<svg xmlns="http://www.w3.org/2000/svg" version="1.2" viewBox="0 0 375 375">
  <path d="M203.879 176.068v18.75h-64.797V97.834h21.828v78.234Zm33.451 18.75h-20.859v-73.61h20.86Zm1.953-94.89c0 3.824-1.242 6.835-3.718 9.03-2.469 2.188-5.383 3.282-8.735 3.282-3.367 0-6.28-1.094-8.75-3.281-2.468-2.196-3.703-5.207-3.703-9.032 0-3.82 1.235-6.828 3.703-9.015 2.47-2.196 5.383-3.297 8.75-3.297 3.352 0 6.266 1.101 8.735 3.297 2.476 2.187 3.718 5.195 3.718 9.015ZM136.72 260.263v5.36h-18.516v-27.72h6.234v22.36Zm9.566 5.359h-5.969v-21.047h5.97Zm.547-27.125c0 1.094-.355 1.961-1.062 2.594-.7.625-1.528.937-2.485.937-.969 0-1.808-.312-2.515-.937-.7-.633-1.047-1.5-1.047-2.594 0-1.094.347-1.953 1.047-2.578.707-.625 1.546-.937 2.515-.937.957 0 1.785.312 2.485.937.707.625 1.062 1.484 1.062 2.578Zm4.841.844 5.969-.953v6.187h7.156v4.97h-7.156v7.39c0 1.261.219 2.265.656 3.015.438.743 1.32 1.11 2.657 1.11a11.106 11.106 0 0 0 3.844-.672l.843 4.64a16.18 16.18 0 0 1-2.406.75c-.875.22-1.953.329-3.235.329-1.625 0-2.976-.22-4.046-.657-1.063-.445-1.918-1.062-2.563-1.843-.637-.79-1.086-1.743-1.344-2.86-.25-1.125-.375-2.363-.375-3.719Zm17.963 26.281v-30.078l5.969-.969v10.094c.395-.133.906-.258 1.531-.375a9.311 9.311 0 0 1 1.828-.187c1.707 0 3.125.234 4.25.703 1.133.46 2.04 1.117 2.72 1.968.687.856 1.163 1.872 1.437 3.047.28 1.168.421 2.477.421 3.922v11.875h-5.953v-11.156c0-1.926-.25-3.285-.75-4.078-.492-.8-1.402-1.203-2.734-1.203-.531 0-1.031.047-1.5.14-.469.094-.887.196-1.25.297v16Zm29.529 0h-5.969v-21.047h5.969Zm.547-27.125c0 1.094-.356 1.961-1.063 2.594-.699.625-1.527.937-2.484.937-.969 0-1.809-.312-2.516-.937-.699-.633-1.047-1.5-1.047-2.594 0-1.094.348-1.953 1.047-2.578.707-.625 1.547-.937 2.516-.937.957 0 1.785.312 2.484.937.707.625 1.063 1.484 1.063 2.578Zm23.013 26.406c-1.024.293-2.336.563-3.938.813-1.594.258-3.273.39-5.031.39-1.781 0-3.266-.242-4.453-.718-1.188-.477-2.133-1.149-2.828-2.016-.688-.875-1.184-1.91-1.485-3.11-.293-1.194-.437-2.515-.437-3.952v-11.735h5.969v11c0 1.93.25 3.32.75 4.172.507.856 1.457 1.281 2.843 1.281.426 0 .88-.02 1.36-.062.476-.04.906-.086 1.281-.14v-16.25h5.969Zm17.154-10.437c0-1.926-.25-3.285-.75-4.078-.493-.8-1.337-1.203-2.532-1.203-.375 0-.766.023-1.172.062-.398.043-.777.09-1.14.14v16.235h-5.97V245.31a37.888 37.888 0 0 1 3.938-.813c.758-.125 1.54-.219 2.344-.281.8-.07 1.586-.11 2.36-.11 1.519 0 2.753.196 3.703.579.945.386 1.726.843 2.343 1.375.852-.614 1.832-1.094 2.938-1.438 1.101-.344 2.125-.515 3.062-.515 1.676 0 3.051.234 4.125.703 1.082.46 1.942 1.117 2.578 1.968.645.856 1.086 1.872 1.329 3.047.238 1.168.359 2.477.359 3.922v11.875h-5.953v-11.156c0-1.926-.25-3.285-.75-4.078-.492-.8-1.336-1.203-2.531-1.203-.325 0-.774.086-1.344.25-.574.156-1.047.355-1.422.593a8.97 8.97 0 0 1 .36 1.938c.05.68.077 1.402.077 2.172v11.484h-5.953Zm-91.787 60.862c-.586 0-1.211.059-1.875.172-.668.105-1.188.25-1.563.437 0 .106-.007.266-.015.485-.012.21-.016.39-.016.547 0 .968.063 1.882.188 2.734.133.844.363 1.59.687 2.234.32.637.75 1.137 1.281 1.5.532.356 1.196.532 2 .532.665 0 1.235-.133 1.704-.407a3.772 3.772 0 0 0 1.156-1.062c.3-.426.523-.899.672-1.422.156-.52.234-1.02.234-1.5 0-1.363-.344-2.41-1.031-3.14-.68-.739-1.82-1.11-3.422-1.11Zm.766-4.64c1.726 0 3.195.234 4.406.703 1.219.468 2.21 1.105 2.984 1.906a7.1 7.1 0 0 1 1.688 2.797c.343 1.062.515 2.199.515 3.406 0 1.062-.195 2.156-.578 3.281a9.123 9.123 0 0 1-1.765 3.031c-.782.907-1.782 1.657-3 2.25-1.211.582-2.637.875-4.282.875-3.336 0-5.87-1.05-7.609-3.156-1.73-2.113-2.594-5.02-2.594-8.719 0-2.664.41-5.023 1.235-7.078.82-2.062 2-3.789 3.53-5.187 1.54-1.406 3.395-2.473 5.563-3.203 2.176-.727 4.625-1.11 7.344-1.14.05.823.102 1.632.156 2.42.063.794.118 1.61.172 2.454a23.24 23.24 0 0 0-3.828.39 13.06 13.06 0 0 0-3.25 1.063 8.92 8.92 0 0 0-2.531 1.86c-.719.761-1.278 1.687-1.672 2.78a7.104 7.104 0 0 1 1.797-.562 9.516 9.516 0 0 1 1.719-.172Zm19.641 14.531c0 1.199-.383 2.11-1.14 2.734-.762.625-1.621.938-2.578.938-.961 0-1.82-.313-2.579-.938-.761-.625-1.14-1.535-1.14-2.734 0-1.196.379-2.11 1.14-2.735.758-.632 1.618-.953 2.579-.953.957 0 1.816.32 2.578.953.757.625 1.14 1.54 1.14 2.735Zm12.762-11.719c.613 0 1.254-.055 1.922-.172.664-.125 1.156-.297 1.469-.516v-.359c0-.101.004-.207.015-.312a1.75 1.75 0 0 0 .032-.282 22.022 22.022 0 0 0-.25-2.703c-.125-.844-.352-1.578-.672-2.203a3.775 3.775 0 0 0-1.313-1.469c-.543-.363-1.21-.547-2-.547-.648 0-1.21.137-1.687.407a3.26 3.26 0 0 0-1.157 1.03c-.293.43-.511.9-.656 1.407-.148.5-.219.992-.219 1.469 0 1.45.348 2.523 1.047 3.219.707.687 1.864 1.03 3.47 1.03Zm2.922 3.875a7.221 7.221 0 0 1-1.875.594 10.44 10.44 0 0 1-1.734.172c-1.73 0-3.211-.207-4.438-.625-1.23-.415-2.242-1.004-3.031-1.766a6.998 6.998 0 0 1-1.735-2.734c-.367-1.063-.546-2.235-.546-3.516 0-1.07.175-2.164.53-3.281a9.002 9.002 0 0 1 1.704-3.063c.77-.914 1.75-1.676 2.937-2.281 1.188-.602 2.618-.906 4.297-.906 3.446 0 6.04 1.062 7.782 3.187 1.75 2.117 2.625 5.164 2.625 9.14 0 2.618-.344 4.923-1.032 6.923-.68 2-1.73 3.683-3.156 5.047-1.418 1.355-3.234 2.386-5.453 3.093-2.211.711-4.836 1.07-7.875 1.094a90.625 90.625 0 0 0-.125-2.469c-.055-.8-.106-1.629-.156-2.484 1.52-.031 2.89-.145 4.11-.344 1.226-.195 2.304-.531 3.233-1a7.477 7.477 0 0 0 2.391-1.86c.656-.769 1.172-1.741 1.547-2.921Zm21.001-9.438a247.352 247.352 0 0 0-3.328 4.438 31.341 31.341 0 0 0-2.953 4.922h6.281Zm5.828-7.28v16.64h2.969v4.875h-2.969v6.203h-5.828v-6.203h-11.969v-4.36a74.056 74.056 0 0 1 2.203-3.968 69.398 69.398 0 0 1 2.938-4.563 80.118 80.118 0 0 1 3.422-4.578 48.177 48.177 0 0 1 3.594-4.047Zm6.923 5.765c.77-.32 1.578-.692 2.422-1.11.844-.414 1.66-.867 2.453-1.359a30.19 30.19 0 0 0 2.297-1.547 15.52 15.52 0 0 0 1.984-1.75h4.172v27.719h-5.969v-19.953a18.386 18.386 0 0 1-2.687 1.453c-.98.437-1.938.82-2.875 1.14ZM46.625 76.844c-.719 0-1.48-.047-2.281-.14a26.337 26.337 0 0 1-2.328-.376 23.58 23.58 0 0 1-2.032-.516 12.157 12.157 0 0 1-1.437-.515l1.156-4.969c.688.293 1.57.606 2.656.938 1.082.336 2.422.5 4.016.5 1.844 0 3.191-.344 4.047-1.032.851-.695 1.281-1.629 1.281-2.797 0-.726-.156-1.335-.469-1.828a3.48 3.48 0 0 0-1.25-1.187c-.53-.313-1.168-.524-1.906-.64a13.9 13.9 0 0 0-2.344-.188h-2.312v-4.797h2.64c.583 0 1.145-.05 1.688-.156a4.833 4.833 0 0 0 1.469-.547 2.87 2.87 0 0 0 1.015-1.047c.258-.438.391-.988.391-1.656 0-.508-.11-.946-.328-1.313a2.85 2.85 0 0 0-.813-.922 3.576 3.576 0 0 0-1.171-.531 4.826 4.826 0 0 0-1.329-.188c-1.148 0-2.21.172-3.187.516a13.17 13.17 0 0 0-2.656 1.281l-2.125-4.359a18.8 18.8 0 0 1 1.5-.844c.57-.289 1.203-.554 1.89-.797a17.344 17.344 0 0 1 2.219-.593c.79-.164 1.629-.25 2.516-.25 1.625 0 3.03.195 4.218.578 1.188.386 2.164.933 2.938 1.64a6.73 6.73 0 0 1 1.719 2.485c.375.949.562 1.98.562 3.093 0 1.094-.308 2.157-.922 3.188a6.097 6.097 0 0 1-2.468 2.328c1.437.594 2.546 1.469 3.328 2.625.789 1.156 1.187 2.555 1.187 4.188 0 1.28-.215 2.464-.64 3.546a7.223 7.223 0 0 1-2 2.797c-.907.782-2.063 1.391-3.47 1.828-1.398.438-3.054.657-4.968.657Zm0 0"/>
  <path d="m355.762 10.207.453.043.441.063.442.085.43.094.429.113.414.137.414.14.406.169.395.168.387.195.386.207.364.223.363.234.351.242.344.266.328.27.32.285.31.3.3.309.285.32.27.328.258.344.25.352.234.363.223.363.199.387.195.387.176.398.168.403.14.414.137.421.106.422.101.434.078.437.067.45.047.449.03.453.005.465v334.933l-.004.461-.031.457-.047.45-.067.441-.078.438-.101.433-.106.43-.137.414-.14.414-.168.41-.176.39-.195.387-.2.38-.222.37-.234.364-.25.351-.258.344-.27.328-.285.32-.3.31-.31.3-.32.285-.328.27-.344.257-.351.25-.363.239-.364.214-.386.207-.387.192-.395.18-.406.164-.414.14-.414.13-.43.116-.43.098-.44.078-.442.067-.453.05-.457.028-.457.007H19.91l-.457-.007-.457-.028-.45-.05-.448-.067-.438-.078-.433-.098-.422-.117-.422-.129-.414-.14-.403-.164-.398-.18-.387-.192-.379-.207-.37-.214-.364-.239-.352-.25-.343-.257-.328-.27-.32-.285-.31-.3-.3-.31-.285-.32-.27-.328-.258-.344-.25-.351-.238-.364-.219-.37-.207-.38-.187-.386-.18-.39-.164-.411-.14-.414-.137-.414-.114-.43-.093-.433-.086-.438-.059-.441-.05-.45-.028-.457-.008-.46V21.34l.008-.465.027-.453.051-.45.059-.449.086-.437.093-.434.114-.422.136-.421.141-.414.164-.403.18-.398.187-.387.207-.387.22-.363.237-.363.25-.352.258-.344.27-.328.285-.32.3-.309.31-.3.32-.286.328-.27.343-.265.352-.242.363-.234.371-.223.38-.207.386-.195.398-.168.403-.168.414-.14.422-.138.422-.113.433-.094.438-.085.449-.063.45-.043.456-.031.457-.004h334.938l.457.004ZM28.187 18.914l-.457.031-.453.043-.441.063-.445.086-.426.093-.43.114-.422.136-.406.145-.41.164-.39.172-.395.191-.38.207-.37.223-.356.234-.351.243-.344.265-.328.27-.32.289-.31.297-.3.308-.285.32-.27.333-.265.34-.242.351-.239.355-.218.375-.207.375-.188.395-.18.395-.164.406-.14.406-.137.422-.113.43-.094.43-.086.44-.059.442-.046.453-.032.457-.008.457v317.465l.008.457.032.457.046.453.059.442.086.437.094.434.113.43.137.414.14.414.164.406.18.394.188.387.207.38.218.37.239.363.242.352.265.344.27.328.285.32.3.309.31.3.32.286.328.27.344.257.351.25.356.238.37.211.38.207.394.196.39.18.411.163.406.141.422.129.43.113.426.102.445.078.441.066.453.047.457.031.458.008h317.464l.457-.008.457-.03.454-.048.441-.066.441-.078.43-.102.43-.113.414-.129.414-.14.406-.165.395-.18.386-.195.383-.207.367-.21.364-.239.351-.25.34-.258.332-.27.32-.284.309-.301.297-.309.289-.32.27-.328.257-.344.25-.352.235-.363.222-.37.2-.38.195-.387.176-.394.164-.406.144-.414.137-.414.105-.43.102-.434.078-.437.063-.442.05-.453.032-.457.004-.457V30.07l-.004-.457-.032-.457-.05-.453-.063-.441-.078-.442-.102-.43-.105-.43-.137-.42-.144-.407-.164-.406-.176-.395-.195-.395-.2-.375-.222-.375-.235-.355-.25-.352-.258-.34-.27-.331-.288-.32-.297-.31-.309-.296-.32-.29-.332-.269-.34-.265-.351-.243-.364-.234-.367-.223-.383-.207-.386-.191-.395-.172-.406-.164-.414-.145-.414-.136-.43-.114-.43-.093-.441-.086-.441-.063-.454-.043-.457-.03-.457-.005H28.645Zm0 0"/>
</svg>
