<svg xmlns="http://www.w3.org/2000/svg" version="1.2" viewBox="0 0 375 375">
  <path d="M184.005 196.084c-5.324 0-10.621-.168-15.89-.5-5.274-.324-10.75-1.094-16.438-2.313V99.224c4.469-.832 9.363-1.457 14.688-1.875 5.32-.425 10.265-.64 14.828-.64 6.164 0 11.836.445 17.015 1.328 5.176.887 9.63 2.402 13.36 4.547 3.726 2.148 6.644 4.968 8.75 8.468 2.101 3.5 3.156 7.82 3.156 12.954 0 7.742-3.734 13.851-11.203 18.328 6.156 2.336 10.351 5.508 12.594 9.515 2.238 4.012 3.359 8.54 3.359 13.578 0 10.168-3.711 17.82-11.125 22.954-7.418 5.136-18.45 7.703-33.094 7.703Zm-11.062-43.532V177.6a76.86 76.86 0 0 0 5.172.422c1.875.094 3.93.14 6.171.14 6.532 0 11.801-.929 15.813-2.796 4.008-1.863 6.016-5.316 6.016-10.36 0-4.476-1.684-7.671-5.047-9.578-3.356-1.914-8.157-2.875-14.407-2.875Zm0-16.656h10.64c6.719 0 11.52-.86 14.407-2.578 2.894-1.726 4.343-4.508 4.343-8.344 0-3.914-1.496-6.664-4.484-8.25-2.98-1.582-7.367-2.375-13.156-2.375-1.868 0-3.871.028-6.016.078-2.148.043-4.059.157-5.734.344Zm-30.945 130.086c-1.524 0-3.04-.047-4.547-.14a32.455 32.455 0 0 1-4.688-.657V238.31c1.282-.25 2.68-.43 4.203-.547 1.52-.125 2.93-.187 4.235-.187 1.758 0 3.379.132 4.86.39 1.476.25 2.75.684 3.812 1.297 1.07.617 1.906 1.422 2.5 2.422.601 1 .906 2.234.906 3.703 0 2.211-1.07 3.953-3.203 5.234 1.758.668 2.957 1.575 3.594 2.72.644 1.148.968 2.437.968 3.874 0 2.906-1.062 5.094-3.187 6.563-2.117 1.468-5.266 2.203-9.453 2.203Zm-3.157-12.438v7.157a24.8 24.8 0 0 0 1.47.125c.538.023 1.128.03 1.765.03 1.863 0 3.367-.265 4.515-.796 1.157-.531 1.735-1.516 1.735-2.953 0-1.281-.485-2.192-1.453-2.735-.961-.55-2.328-.828-4.11-.828Zm0-4.765h3.032c1.925 0 3.3-.242 4.125-.735.832-.488 1.25-1.28 1.25-2.375 0-1.125-.43-1.91-1.282-2.36-.855-.456-2.109-.687-3.765-.687-.531 0-1.106.012-1.719.032-.617.011-1.164.043-1.64.093Zm40.083 6.281c0 1.656-.242 3.172-.718 4.547-.48 1.375-1.18 2.547-2.094 3.515a9.505 9.505 0 0 1-3.266 2.266c-1.262.531-2.68.797-4.25.797-1.543 0-2.949-.266-4.219-.797a9.656 9.656 0 0 1-3.265-2.266c-.906-.968-1.617-2.14-2.125-3.515-.5-1.375-.75-2.89-.75-4.547 0-1.656.258-3.16.781-4.516.52-1.363 1.238-2.523 2.156-3.484a9.81 9.81 0 0 1 3.282-2.234c1.27-.532 2.648-.797 4.14-.797 1.52 0 2.91.265 4.172.797a9.48 9.48 0 0 1 3.266 2.234c.906.96 1.613 2.121 2.125 3.484.508 1.356.765 2.86.765 4.516Zm-6.078 0c0-1.832-.37-3.273-1.11-4.328-.73-1.063-1.777-1.594-3.14-1.594-1.355 0-2.406.531-3.156 1.594-.75 1.055-1.125 2.496-1.125 4.328 0 1.844.375 3.309 1.125 4.39.75 1.075 1.8 1.61 3.156 1.61 1.363 0 2.41-.535 3.14-1.61.74-1.081 1.11-2.546 1.11-4.39Zm23.358-5.203a68.408 68.408 0 0 0-1.89-.406 10.891 10.891 0 0 0-2.313-.235c-.375 0-.824.04-1.344.11-.523.062-.914.136-1.172.218v16.078h-5.968v-19.921c1.07-.375 2.332-.727 3.78-1.063 1.458-.332 3.079-.5 4.86-.5.32 0 .707.024 1.156.063.458.043.91.101 1.36.171.457.063.91.141 1.36.235.456.094.847.203 1.171.328Zm23.88 5.203c0 1.656-.242 3.172-.719 4.547-.48 1.375-1.18 2.547-2.094 3.515a9.505 9.505 0 0 1-3.265 2.266c-1.262.531-2.68.797-4.25.797-1.543 0-2.95-.266-4.219-.797a9.656 9.656 0 0 1-3.266-2.266c-.906-.968-1.617-2.14-2.125-3.515-.5-1.375-.75-2.89-.75-4.547 0-1.656.258-3.16.782-4.516.52-1.363 1.238-2.523 2.156-3.484a9.81 9.81 0 0 1 3.281-2.234c1.27-.532 2.649-.797 4.14-.797 1.52 0 2.911.265 4.173.797a9.48 9.48 0 0 1 3.265 2.234c.907.96 1.614 2.121 2.125 3.484.508 1.356.766 2.86.766 4.516Zm-6.078 0c0-1.832-.371-3.273-1.11-4.328-.73-1.063-1.777-1.594-3.14-1.594-1.356 0-2.406.531-3.156 1.594-.75 1.055-1.125 2.496-1.125 4.328 0 1.844.375 3.309 1.125 4.39.75 1.075 1.8 1.61 3.156 1.61 1.363 0 2.41-.535 3.14-1.61.739-1.081 1.11-2.546 1.11-4.39Zm10.67-9.75c1.008-.3 2.317-.578 3.922-.828a32.722 32.722 0 0 1 5.047-.375c1.781 0 3.266.234 4.453.703 1.188.46 2.125 1.117 2.813 1.969.695.855 1.191 1.87 1.484 3.047.29 1.168.438 2.476.438 3.921v11.875h-5.954v-11.156c0-1.926-.257-3.285-.765-4.078-.5-.8-1.446-1.203-2.828-1.203-.43 0-.887.023-1.375.062-.48.043-.903.09-1.266.141v16.234h-5.969Zm-84.739 61.112c.77-.32 1.578-.691 2.422-1.11.843-.414 1.66-.867 2.453-1.359a30.39 30.39 0 0 0 2.297-1.547 15.52 15.52 0 0 0 1.984-1.75h4.172v27.72h-5.969v-19.954c-.805.531-1.7 1.016-2.687 1.453-.98.438-1.938.82-2.875 1.14Zm41.282 8.031c0 4.668-.887 8.25-2.656 10.75-1.774 2.492-4.219 3.735-7.344 3.735-3.117 0-5.562-1.243-7.344-3.735-1.773-2.5-2.656-6.082-2.656-10.75 0-2.32.234-4.375.703-6.156.469-1.79 1.14-3.297 2.016-4.516.883-1.226 1.937-2.16 3.156-2.797 1.227-.644 2.602-.968 4.125-.968 3.125 0 5.57 1.25 7.344 3.75 1.77 2.492 2.656 6.054 2.656 10.687Zm-6.078 0c0-1.383-.07-2.644-.203-3.781-.137-1.133-.352-2.113-.64-2.938-.294-.82-.696-1.457-1.204-1.906-.5-.457-1.125-.687-1.875-.687s-1.371.23-1.86.687c-.492.45-.89 1.086-1.202 1.906-.305.825-.524 1.805-.657 2.938a31.88 31.88 0 0 0-.203 3.781c0 1.387.067 2.653.203 3.797.133 1.148.352 2.137.657 2.969.312.824.71 1.465 1.203 1.922.488.449 1.109.672 1.859.672s1.375-.223 1.875-.672c.508-.457.91-1.098 1.203-1.922.29-.832.504-1.82.64-2.969.134-1.144.204-2.41.204-3.797Zm16.079 10.766c0 1.199-.383 2.11-1.14 2.734-.762.625-1.622.938-2.579.938-.96 0-1.82-.313-2.578-.938-.761-.625-1.14-1.535-1.14-2.734 0-1.196.379-2.11 1.14-2.735.758-.632 1.617-.953 2.578-.953.957 0 1.817.32 2.578.953.758.625 1.141 1.54 1.141 2.735Zm22.403-4.563c0 1.2-.211 2.297-.625 3.297a7.383 7.383 0 0 1-1.86 2.625c-.824.742-1.855 1.32-3.094 1.735-1.242.414-2.68.625-4.312.625-1.867 0-3.418-.262-4.656-.782-1.243-.52-2.243-1.164-3-1.937-.762-.77-1.305-1.613-1.625-2.531-.313-.926-.47-1.774-.47-2.547 0-.801.102-1.535.313-2.203a7.28 7.28 0 0 1 .875-1.813c.375-.55.797-1.05 1.266-1.5.469-.457.969-.89 1.5-1.297-1.148-.926-1.996-1.844-2.547-2.75-.543-.906-.812-2.066-.812-3.484 0-1.063.218-2.086.656-3.078a7.863 7.863 0 0 1 1.86-2.578c.8-.739 1.769-1.329 2.906-1.766 1.132-.438 2.394-.656 3.78-.656 1.626 0 3.016.234 4.173.703 1.164.469 2.117 1.062 2.859 1.781.75.719 1.29 1.527 1.625 2.422.332.887.5 1.773.5 2.656 0 1.281-.34 2.477-1.016 3.578-.68 1.106-1.527 1.98-2.546 2.625 1.52.98 2.609 2.012 3.265 3.094.656 1.086.985 2.344.985 3.781Zm-13.844.235c0 .324.07.68.219 1.062.144.387.378.742.703 1.063.32.324.734.593 1.234.812.508.211 1.125.313 1.844.313 1.383 0 2.394-.332 3.031-1 .645-.664.969-1.414.969-2.25 0-.614-.14-1.16-.422-1.64a4.266 4.266 0 0 0-1.14-1.25 8.103 8.103 0 0 0-1.704-.97 23.084 23.084 0 0 0-2.094-.78 8.21 8.21 0 0 0-1.89 1.968c-.5.742-.75 1.633-.75 2.672Zm7.406-13.157a2.7 2.7 0 0 0-.187-.937 2.6 2.6 0 0 0-.594-.938 3.586 3.586 0 0 0-1.063-.734c-.43-.207-.949-.312-1.562-.312-.586 0-1.09.093-1.516.28-.43.188-.781.438-1.062.75a3.06 3.06 0 0 0-.625.97c-.137.343-.203.68-.203 1 0 .855.312 1.656.937 2.406.633.742 1.711 1.383 3.234 1.922.852-.54 1.504-1.157 1.954-1.844.457-.695.687-1.55.687-2.563Zm10.751-1.312c.77-.32 1.578-.691 2.422-1.11.844-.414 1.66-.867 2.453-1.359a30.19 30.19 0 0 0 2.297-1.547 15.52 15.52 0 0 0 1.984-1.75h4.172v27.72h-5.969v-19.954a18.291 18.291 0 0 1-2.687 1.453c-.98.438-1.938.82-2.875 1.14ZM51.906 68.094c0-.77-.18-1.457-.531-2.063-.344-.601-.945-1.101-1.797-1.5-.855-.394-2-.695-3.437-.906-1.438-.219-3.25-.328-5.438-.328.29-2.488.531-5.008.719-7.563.187-2.562.332-4.96.437-7.203h15v5h-10a127.06 127.06 0 0 1-.187 2.782c-.063.898-.137 1.68-.219 2.343 3.895.262 6.77 1.172 8.625 2.735 1.852 1.562 2.781 3.73 2.781 6.5 0 1.28-.23 2.468-.687 3.562a7.61 7.61 0 0 1-2.031 2.844c-.907.793-2.047 1.418-3.422 1.875-1.375.445-2.98.672-4.813.672-.73 0-1.492-.047-2.281-.14a29.875 29.875 0 0 1-2.266-.36c-.73-.145-1.39-.297-1.984-.453-.586-.157-1.04-.317-1.36-.485l1.079-4.922c.664.305 1.547.594 2.64.875 1.094.274 2.399.407 3.922.407 1.844 0 3.176-.364 4-1.094.832-.738 1.25-1.598 1.25-2.578Zm0 0"/>
  <path d="m355.762 10.207.453.043.441.063.442.085.43.094.429.113.414.137.414.14.406.169.395.168.387.195.386.207.364.223.363.234.351.242.344.266.328.27.32.285.31.3.3.309.285.32.27.328.258.344.25.352.234.363.223.363.199.387.195.387.176.398.168.403.14.414.137.421.106.422.101.434.078.437.067.45.047.449.03.453.005.465v334.933l-.004.461-.031.457-.047.45-.067.441-.078.438-.101.433-.106.43-.137.414-.14.414-.168.41-.176.39-.195.387-.2.38-.222.37-.234.364-.25.351-.258.344-.27.328-.285.32-.3.31-.31.3-.32.285-.328.27-.344.257-.351.25-.363.239-.364.214-.386.207-.387.192-.395.18-.406.164-.414.14-.414.13-.43.116-.43.098-.44.078-.442.067-.453.05-.457.028-.457.007H19.91l-.457-.007-.457-.028-.45-.05-.448-.067-.438-.078-.433-.098-.422-.117-.422-.129-.414-.14-.403-.164-.398-.18-.387-.192-.379-.207-.37-.214-.364-.239-.352-.25-.343-.257-.328-.27-.32-.285-.31-.3-.3-.31-.285-.32-.27-.328-.258-.344-.25-.351-.238-.364-.219-.37-.207-.38-.187-.386-.18-.39-.164-.411-.14-.414-.137-.414-.114-.43-.093-.433-.086-.438-.059-.441-.05-.45-.028-.457-.008-.46V21.34l.008-.465.027-.453.051-.45.059-.449.086-.437.093-.434.114-.422.136-.421.141-.414.164-.403.18-.398.187-.387.207-.387.22-.363.237-.363.25-.352.258-.344.27-.328.285-.32.3-.309.31-.3.32-.286.328-.27.343-.265.352-.242.363-.234.371-.223.38-.207.386-.195.398-.168.403-.168.414-.14.422-.138.422-.113.433-.094.438-.085.449-.063.45-.043.456-.031.457-.004h334.938l.457.004ZM28.187 18.914l-.457.031-.453.043-.441.063-.445.086-.426.093-.43.114-.422.136-.406.145-.41.164-.39.172-.395.191-.38.207-.37.223-.356.234-.351.243-.344.265-.328.27-.32.289-.31.297-.3.308-.285.32-.27.333-.265.34-.242.351-.239.355-.218.375-.207.375-.188.395-.18.395-.164.406-.14.406-.137.422-.113.43-.094.43-.086.44-.059.442-.046.453-.032.457-.008.457v317.465l.008.457.032.457.046.453.059.442.086.437.094.434.113.43.137.414.14.414.164.406.18.394.188.387.207.38.218.37.239.363.242.352.265.344.27.328.285.32.3.309.31.3.32.286.328.27.344.257.351.25.356.238.37.211.38.207.394.196.39.18.411.163.406.141.422.129.43.113.426.102.445.078.441.066.453.047.457.031.458.008h317.464l.457-.008.457-.03.454-.048.441-.066.441-.078.43-.102.43-.113.414-.129.414-.14.406-.165.395-.18.386-.195.383-.207.367-.21.364-.239.351-.25.34-.258.332-.27.32-.284.309-.301.297-.309.289-.32.27-.328.257-.344.25-.352.235-.363.222-.37.2-.38.195-.387.176-.394.164-.406.144-.414.137-.414.105-.43.102-.434.078-.437.063-.442.05-.453.032-.457.004-.457V30.07l-.004-.457-.032-.457-.05-.453-.063-.441-.078-.442-.102-.43-.105-.43-.137-.42-.144-.407-.164-.406-.176-.395-.195-.395-.2-.375-.222-.375-.235-.355-.25-.352-.258-.34-.27-.331-.288-.32-.297-.31-.309-.296-.32-.29-.332-.269-.34-.265-.351-.243-.364-.234-.367-.223-.383-.207-.386-.191-.395-.172-.406-.164-.414-.145-.414-.136-.43-.114-.43-.093-.441-.086-.441-.063-.454-.043-.457-.03-.457-.005H28.645Zm0 0"/>
</svg>
