<svg xmlns="http://www.w3.org/2000/svg" version="1.2" viewBox="0 0 375 375">
  <path d="M197.575 196.771c-15.773 0-27.789-4.382-36.047-13.156-8.25-8.77-12.375-21.223-12.375-37.36 0-8.019 1.258-15.179 3.781-21.484 2.52-6.3 5.97-11.617 10.344-15.953 4.383-4.344 9.61-7.633 15.672-9.875 6.07-2.238 12.656-3.36 19.75-3.36 4.102 0 7.832.31 11.188.923 3.363.605 6.3 1.304 8.812 2.093 2.52.793 4.617 1.61 6.297 2.454 1.687.836 2.898 1.484 3.64 1.953l-6.296 17.64c-2.98-1.582-6.453-2.93-10.422-4.047-3.969-1.125-8.469-1.687-13.5-1.687-3.367 0-6.656.562-9.875 1.687-3.219 1.118-6.063 2.907-8.531 5.375-2.47 2.47-4.454 5.668-5.954 9.594-1.492 3.918-2.234 8.672-2.234 14.266 0 4.48.488 8.656 1.469 12.531.976 3.867 2.562 7.2 4.75 10 2.195 2.805 5.066 5.024 8.61 6.656 3.55 1.625 7.843 2.438 12.874 2.438 3.176 0 6.024-.18 8.547-.547 2.52-.375 4.758-.816 6.719-1.328 1.957-.52 3.68-1.102 5.172-1.75a262.82 262.82 0 0 0 4.062-1.828l6.016 17.5c-3.086 1.867-7.422 3.543-13.016 5.031-5.594 1.488-12.078 2.234-19.453 2.234Zm-62.691 69.414c-4.512 0-7.95-1.25-10.313-3.75-2.355-2.508-3.53-6.07-3.53-10.688 0-2.289.359-4.335 1.077-6.14.72-1.801 1.703-3.32 2.953-4.563 1.258-1.238 2.754-2.175 4.485-2.812 1.738-.645 3.617-.969 5.64-.969 1.176 0 2.243.09 3.204.266.957.168 1.796.367 2.515.593a13.11 13.11 0 0 1 2.844 1.266l-1.797 5.031c-.855-.445-1.851-.832-2.984-1.156-1.137-.32-2.422-.484-3.86-.484-.96 0-1.902.164-2.828.484a6.45 6.45 0 0 0-2.437 1.547c-.7.7-1.262 1.61-1.688 2.734-.43 1.118-.64 2.477-.64 4.078 0 1.282.132 2.477.406 3.579.281 1.105.734 2.058 1.36 2.859.632.805 1.456 1.437 2.468 1.906 1.008.469 2.238.703 3.687.703.907 0 1.72-.05 2.438-.156a18.68 18.68 0 0 0 1.906-.39 9.826 9.826 0 0 0 1.485-.5l1.171-.516 1.72 5c-.887.531-2.134 1.012-3.735 1.437-1.594.426-3.445.64-5.547.64Zm20.92-4.719c.582 0 1.14-.008 1.672-.031.53-.031.957-.07 1.28-.125v-4.531a12.79 12.79 0 0 0-1.077-.157c-.48-.05-.918-.078-1.313-.078-.562 0-1.093.04-1.593.11a4.001 4.001 0 0 0-1.297.375 2.307 2.307 0 0 0-.891.765c-.21.313-.312.711-.312 1.188 0 .937.312 1.59.937 1.953.633.355 1.5.531 2.594.531Zm-.485-17.437c1.758 0 3.223.199 4.391.593 1.176.399 2.117.97 2.828 1.72.707.75 1.207 1.663 1.5 2.734.29 1.062.438 2.246.438 3.546v12.407a73.67 73.67 0 0 1-3.563.656c-1.512.25-3.351.375-5.515.375-1.356 0-2.59-.121-3.704-.36-1.105-.238-2.058-.628-2.859-1.171a5.485 5.485 0 0 1-1.828-2.14c-.43-.884-.64-1.97-.64-3.25 0-1.22.241-2.255.734-3.11a5.718 5.718 0 0 1 1.968-2.047c.832-.508 1.782-.875 2.844-1.094a16.03 16.03 0 0 1 3.328-.344c.77 0 1.453.04 2.047.11a9.568 9.568 0 0 1 1.469.25v-.563c0-1.008-.309-1.82-.922-2.437-.617-.614-1.68-.922-3.187-.922a20.8 20.8 0 0 0-3.016.219c-.98.148-1.828.355-2.547.625l-.766-4.797a14.07 14.07 0 0 1 1.297-.344 20.53 20.53 0 0 1 1.703-.328 32.544 32.544 0 0 1 1.938-.235 22.387 22.387 0 0 1 2.062-.093Zm27.245 5.828a68.408 68.408 0 0 0-1.89-.406 10.891 10.891 0 0 0-2.313-.235c-.375 0-.824.04-1.344.11-.523.062-.914.136-1.172.218v16.078h-5.968v-19.921c1.07-.375 2.332-.727 3.781-1.063 1.457-.332 3.078-.5 4.86-.5.32 0 .706.024 1.156.063.457.043.91.101 1.359.171.457.063.91.141 1.36.235.456.094.847.203 1.171.328Zm17.677 5.078c0-3.832-1.414-5.75-4.234-5.75a6.93 6.93 0 0 0-1.829.25c-.605.156-1.09.355-1.453.594v10.828c.29.055.66.101 1.11.14.457.043.953.063 1.484.063 1.625 0 2.848-.555 3.672-1.672.832-1.125 1.25-2.61 1.25-4.453Zm6.078.172c0 1.68-.25 3.199-.75 4.562-.492 1.356-1.203 2.512-2.14 3.47-.93.96-2.075 1.698-3.438 2.218-1.356.52-2.898.781-4.625.781-.73 0-1.492-.039-2.281-.11a43.614 43.614 0 0 1-2.313-.25 31.354 31.354 0 0 1-2.172-.374 18.558 18.558 0 0 1-1.843-.47v-29.39l5.968-.968v10.484a11.13 11.13 0 0 1 2.078-.672 10.38 10.38 0 0 1 2.313-.25c1.5 0 2.82.262 3.969.781a7.82 7.82 0 0 1 2.875 2.22c.77.96 1.351 2.116 1.75 3.468.406 1.344.61 2.844.61 4.5Zm24.285-.047c0 1.656-.242 3.172-.719 4.547-.48 1.375-1.18 2.547-2.094 3.515a9.505 9.505 0 0 1-3.265 2.266c-1.262.531-2.68.797-4.25.797-1.543 0-2.95-.266-4.219-.797a9.656 9.656 0 0 1-3.266-2.266c-.906-.968-1.617-2.14-2.125-3.515-.5-1.375-.75-2.89-.75-4.547 0-1.656.258-3.16.782-4.516.52-1.363 1.238-2.523 2.156-3.484a9.81 9.81 0 0 1 3.281-2.234c1.27-.532 2.649-.797 4.14-.797 1.52 0 2.91.265 4.173.797a9.48 9.48 0 0 1 3.265 2.234c.907.96 1.614 2.121 2.125 3.484.508 1.356.766 2.86.766 4.516Zm-6.078 0c0-1.832-.371-3.273-1.11-4.328-.73-1.063-1.777-1.594-3.14-1.594-1.356 0-2.406.531-3.156 1.594-.75 1.055-1.125 2.496-1.125 4.328 0 1.844.375 3.309 1.125 4.39.75 1.075 1.8 1.61 3.156 1.61 1.363 0 2.41-.535 3.14-1.61.739-1.081 1.11-2.546 1.11-4.39Zm10.67-9.75c1.008-.3 2.317-.578 3.922-.828a32.722 32.722 0 0 1 5.047-.375c1.781 0 3.266.234 4.453.703 1.188.46 2.125 1.117 2.813 1.969.695.855 1.191 1.87 1.484 3.047.289 1.168.437 2.476.437 3.921v11.875H247.4v-11.156c0-1.926-.258-3.285-.765-4.078-.5-.8-1.446-1.203-2.828-1.203-.43 0-.887.023-1.375.062-.48.043-.903.09-1.266.141v16.234h-5.969Zm-95.259 61.112c.77-.32 1.578-.691 2.422-1.11.843-.413 1.66-.867 2.453-1.359a30.39 30.39 0 0 0 2.297-1.547 15.52 15.52 0 0 0 1.984-1.75h4.172v27.72h-5.969v-19.954c-.805.531-1.7 1.016-2.687 1.453-.98.438-1.938.82-2.875 1.14Zm39.766 1.516a7.27 7.27 0 0 1-.609 2.922c-.398.93-.918 1.828-1.562 2.703a21.752 21.752 0 0 1-2.157 2.5 122.18 122.18 0 0 1-2.36 2.265c-.398.375-.827.797-1.296 1.266a34.866 34.866 0 0 0-2.484 2.766c-.336.406-.54.746-.61 1.015h11.922v5h-18.484a6.209 6.209 0 0 1-.078-1.11v-.968c0-1.281.203-2.453.609-3.516.414-1.07.957-2.066 1.625-2.984a19.415 19.415 0 0 1 2.25-2.578c.844-.8 1.68-1.602 2.516-2.406.632-.614 1.234-1.192 1.797-1.735a20.189 20.189 0 0 0 1.484-1.61 7.557 7.557 0 0 0 1-1.546c.238-.52.36-1.05.36-1.594 0-1.164-.337-1.988-1-2.468-.669-.477-1.497-.72-2.485-.72-.719 0-1.399.118-2.031.345-.625.218-1.2.484-1.72.796-.51.305-.952.61-1.327.922-.375.305-.656.547-.844.735l-2.953-4.157c1.164-1.093 2.531-1.992 4.094-2.703a12.025 12.025 0 0 1 5.015-1.062c1.625 0 3.024.187 4.203.562 1.176.375 2.145.903 2.907 1.578a6.077 6.077 0 0 1 1.672 2.485c.363.969.546 2.07.546 3.297Zm11.517 17.281c0 1.2-.383 2.11-1.14 2.734-.762.625-1.622.938-2.579.938-.96 0-1.82-.313-2.578-.938-.761-.625-1.14-1.535-1.14-2.734 0-1.195.379-2.11 1.14-2.734.758-.633 1.617-.954 2.578-.954.957 0 1.817.32 2.578.954.758.625 1.141 1.539 1.141 2.734Zm22.559-10.766c0 4.668-.887 8.25-2.656 10.75-1.774 2.492-4.22 3.735-7.344 3.735-3.117 0-5.563-1.243-7.344-3.735-1.773-2.5-2.656-6.082-2.656-10.75 0-2.32.234-4.375.703-6.156.469-1.789 1.14-3.297 2.016-4.516.882-1.226 1.937-2.16 3.156-2.796 1.226-.645 2.601-.97 4.125-.97 3.125 0 5.57 1.25 7.344 3.75 1.77 2.493 2.656 6.055 2.656 10.688Zm-6.078 0c0-1.383-.07-2.644-.203-3.781-.137-1.133-.352-2.113-.641-2.937-.293-.82-.695-1.457-1.203-1.907-.5-.457-1.125-.687-1.875-.687s-1.371.23-1.86.687c-.492.45-.89 1.086-1.203 1.907-.304.824-.523 1.804-.656 2.937a31.88 31.88 0 0 0-.203 3.781c0 1.387.066 2.653.203 3.797.133 1.149.352 2.137.656 2.969.313.824.711 1.465 1.203 1.922.489.449 1.11.672 1.86.672s1.375-.223 1.875-.672c.508-.457.91-1.098 1.203-1.922.289-.832.504-1.82.64-2.969.133-1.144.204-2.41.204-3.797Zm10.235-8.031c.77-.32 1.578-.691 2.422-1.11.844-.413 1.66-.867 2.453-1.359a30.19 30.19 0 0 0 2.297-1.547 15.52 15.52 0 0 0 1.984-1.75h4.172v27.72h-5.969v-19.954a18.291 18.291 0 0 1-2.687 1.453c-.98.438-1.938.82-2.875 1.14ZM48.453 63.203c-.586 0-1.21.059-1.875.172-.668.106-1.187.25-1.562.438 0 .105-.008.265-.016.484-.012.211-.016.39-.016.547 0 .969.063 1.883.188 2.734.133.844.363 1.59.687 2.235.32.636.75 1.136 1.282 1.5.53.355 1.195.53 2 .53.664 0 1.234-.132 1.703-.405A3.772 3.772 0 0 0 52 70.375c.3-.426.523-.898.672-1.422.156-.52.234-1.02.234-1.5 0-1.363-.343-2.41-1.031-3.14-.68-.739-1.82-1.11-3.422-1.11Zm.766-4.64c1.726 0 3.195.234 4.406.703 1.219.469 2.21 1.105 2.984 1.906a7.1 7.1 0 0 1 1.688 2.797 11 11 0 0 1 .516 3.406c0 1.063-.196 2.156-.579 3.281a9.123 9.123 0 0 1-1.765 3.032c-.781.906-1.781 1.656-3 2.25-1.211.582-2.637.875-4.281.875-3.336 0-5.872-1.051-7.61-3.157-1.73-2.113-2.594-5.02-2.594-8.718 0-2.664.41-5.024 1.235-7.078.82-2.063 2-3.79 3.531-5.188 1.54-1.406 3.395-2.473 5.563-3.203 2.175-.727 4.625-1.11 7.343-1.14.051.823.102 1.632.157 2.421.062.793.117 1.61.171 2.453a23.24 23.24 0 0 0-3.828.39 13.06 13.06 0 0 0-3.25 1.063 8.92 8.92 0 0 0-2.531 1.86c-.719.761-1.277 1.687-1.672 2.781a7.104 7.104 0 0 1 1.797-.562 9.516 9.516 0 0 1 1.719-.172Zm0 0"/>
  <path d="m355.762 10.207.453.043.441.063.442.085.43.094.429.113.414.137.414.14.406.169.395.168.387.195.386.207.364.223.363.234.351.242.344.266.328.27.32.285.31.3.3.309.285.32.27.328.258.344.25.352.234.363.223.363.199.387.195.387.176.398.168.403.14.414.137.421.106.422.101.434.078.437.067.45.047.449.03.453.005.465v334.933l-.004.461-.031.457-.047.45-.067.441-.078.438-.101.433-.106.43-.137.414-.14.414-.168.41-.176.39-.195.387-.2.38-.222.37-.234.364-.25.351-.258.344-.27.328-.285.32-.3.31-.31.3-.32.285-.328.27-.344.257-.351.25-.363.239-.364.214-.386.207-.387.192-.395.18-.406.164-.414.14-.414.13-.43.116-.43.098-.44.078-.442.067-.453.05-.457.028-.457.007H19.91l-.457-.007-.457-.028-.45-.05-.448-.067-.438-.078-.433-.098-.422-.117-.422-.129-.414-.14-.403-.164-.398-.18-.387-.192-.379-.207-.37-.214-.364-.239-.352-.25-.343-.257-.328-.27-.32-.285-.31-.3-.3-.31-.285-.32-.27-.328-.258-.344-.25-.351-.238-.364-.219-.37-.207-.38-.187-.386-.18-.39-.164-.411-.14-.414-.137-.414-.114-.43-.093-.433-.086-.438-.059-.441-.05-.45-.028-.457-.008-.46V21.34l.008-.465.027-.453.051-.45.059-.449.086-.437.093-.434.114-.422.136-.421.141-.414.164-.403.18-.398.187-.387.207-.387.22-.363.237-.363.25-.352.258-.344.27-.328.285-.32.3-.309.31-.3.32-.286.328-.27.343-.265.352-.242.363-.234.371-.223.38-.207.386-.195.398-.168.403-.168.414-.14.422-.138.422-.113.433-.094.438-.085.449-.063.45-.043.456-.031.457-.004h334.938l.457.004ZM28.187 18.914l-.457.031-.453.043-.441.063-.445.086-.426.093-.43.114-.422.136-.406.145-.41.164-.39.172-.395.191-.38.207-.37.223-.356.234-.351.243-.344.265-.328.27-.32.289-.31.297-.3.308-.285.32-.27.333-.265.34-.242.351-.239.355-.218.375-.207.375-.188.395-.18.395-.164.406-.14.406-.137.422-.113.43-.094.43-.086.44-.059.442-.046.453-.032.457-.008.457v317.465l.008.457.032.461.046.45.059.44.086.438.094.434.113.43.137.414.14.414.164.41.18.39.188.387.207.38.218.37.239.363.242.352.265.344.27.328.285.32.3.309.31.3.32.286.328.27.344.257.351.25.356.238.37.211.38.207.394.196.39.18.411.163.406.141.422.129.43.113.426.102.445.078.441.066.453.047.457.031.458.008h317.464l.457-.008.457-.03.454-.048.441-.066.441-.078.43-.102.43-.113.414-.129.414-.14.406-.165.395-.18.386-.195.383-.207.367-.21.364-.239.351-.25.34-.258.332-.27.32-.284.309-.301.297-.309.289-.32.27-.328.257-.344.25-.352.235-.363.222-.37.2-.38.195-.387.176-.39.164-.41.144-.414.137-.414.105-.43.102-.434.078-.437.063-.442.05-.449.032-.46.004-.458V30.07l-.004-.457-.032-.457-.05-.453-.063-.441-.078-.442-.102-.43-.105-.43-.137-.42-.144-.407-.164-.406-.176-.395-.195-.39-.2-.38-.222-.375-.235-.355-.25-.352-.258-.34-.27-.331-.288-.32-.297-.31-.309-.296-.32-.29-.332-.269-.34-.265-.351-.243-.364-.234-.367-.223-.383-.207-.386-.191-.395-.172-.406-.164-.414-.145-.414-.136-.43-.114-.43-.093-.441-.086-.441-.063-.454-.043-.457-.03-.457-.005H28.645Zm0 0"/>
</svg>
