<svg xmlns="http://www.w3.org/2000/svg" version="1.2" viewBox="0 0 375 375">
  <path d="M161.748 146.256c0 4.761.582 9.054 1.75 12.875 1.164 3.824 2.844 7.117 5.031 9.875a22.31 22.31 0 0 0 8.047 6.359c3.176 1.492 6.817 2.234 10.922 2.234 4.008 0 7.625-.742 10.844-2.234a22.037 22.037 0 0 0 8.11-6.36c2.195-2.757 3.878-6.05 5.046-9.874 1.164-3.82 1.75-8.114 1.75-12.875 0-4.758-.586-9.07-1.75-12.938-1.168-3.875-2.851-7.187-5.047-9.937-2.187-2.758-4.89-4.883-8.11-6.375-3.218-1.489-6.835-2.235-10.843-2.235-4.105 0-7.746.774-10.922 2.313a22.906 22.906 0 0 0-8.047 6.437c-2.187 2.75-3.867 6.063-5.03 9.938-1.169 3.867-1.75 8.133-1.75 12.797Zm74.031 0c0 8.304-1.242 15.605-3.718 21.906-2.47 6.293-5.852 11.562-10.141 15.812-4.293 4.243-9.402 7.434-15.328 9.578-5.918 2.145-12.281 3.22-19.094 3.22-6.625 0-12.883-1.075-18.766-3.22-5.875-2.144-11.007-5.335-15.39-9.578-4.375-4.25-7.824-9.52-10.344-15.812-2.523-6.3-3.781-13.602-3.781-21.906 0-8.301 1.3-15.598 3.906-21.891 2.613-6.3 6.133-11.598 10.563-15.89 4.437-4.29 9.57-7.508 15.406-9.657 5.832-2.156 11.969-3.234 18.406-3.234 6.625 0 12.875 1.078 18.75 3.234 5.883 2.149 11.02 5.367 15.406 9.656 4.383 4.293 7.832 9.59 10.344 15.891 2.52 6.293 3.781 13.59 3.781 21.89Zm-113 105.491c0 1.356.164 2.578.5 3.672.332 1.094.812 2.04 1.437 2.828a6.38 6.38 0 0 0 2.297 1.813c.914.43 1.957.64 3.125.64 1.144 0 2.176-.21 3.094-.64a6.324 6.324 0 0 0 2.328-1.813c.625-.789 1.101-1.734 1.437-2.828.332-1.094.5-2.316.5-3.672 0-1.363-.168-2.597-.5-3.703-.336-1.101-.812-2.047-1.437-2.828a6.323 6.323 0 0 0-2.328-1.828c-.918-.426-1.95-.64-3.094-.64-1.168 0-2.211.218-3.125.656a6.507 6.507 0 0 0-2.297 1.843c-.625.782-1.105 1.73-1.437 2.844-.336 1.106-.5 2.324-.5 3.656Zm21.156 0c0 2.375-.356 4.465-1.063 6.266-.699 1.793-1.664 3.297-2.89 4.516-1.23 1.21-2.696 2.12-4.391 2.734-1.687.613-3.508.922-5.453.922-1.899 0-3.684-.309-5.36-.922a12.411 12.411 0 0 1-4.406-2.734c-1.25-1.22-2.234-2.723-2.953-4.516-.719-1.8-1.078-3.89-1.078-6.266 0-2.375.367-4.46 1.11-6.265.75-1.801 1.757-3.313 3.03-4.532a12.53 12.53 0 0 1 4.407-2.765 15.061 15.061 0 0 1 5.25-.922c1.894 0 3.68.309 5.36.922a12.189 12.189 0 0 1 4.406 2.765c1.25 1.22 2.234 2.73 2.953 4.532.718 1.804 1.078 3.89 1.078 6.265Zm13.162-.765 4.156-6.407h6.172l-7.203 10.125c1.602 2 3.055 3.95 4.36 5.844 1.3 1.899 2.343 3.59 3.124 5.078H161.3l-.797-1.5a33.232 33.232 0 0 0-1.093-1.875 48.302 48.302 0 0 0-1.25-1.953 28.8 28.8 0 0 0-1.297-1.797 27.14 27.14 0 0 0-1.235 1.688 52.621 52.621 0 0 0-1.172 1.86 384.94 384.94 0 0 0-1.109 1.859 27.853 27.853 0 0 0-.922 1.718h-6.078c.313-.664.75-1.453 1.313-2.359a97.19 97.19 0 0 1 1.812-2.813 76.74 76.74 0 0 1 2.063-2.921 93.286 93.286 0 0 1 2.125-2.75 703.407 703.407 0 0 1-3.61-5.094c-1.2-1.719-2.383-3.422-3.547-5.11h6.438Zm32.488-6.407a179.936 179.936 0 0 1-3.766 11.422 134.912 134.912 0 0 1-4.28 10.313c-.563 1.195-1.126 2.21-1.688 3.047-.555.843-1.164 1.535-1.829 2.078a6.367 6.367 0 0 1-2.265 1.203c-.836.258-1.813.39-2.938.39-.937 0-1.804-.09-2.593-.265-.782-.18-1.422-.371-1.922-.578l1.031-4.766a9.086 9.086 0 0 0 3.172.563c1.062 0 1.879-.29 2.453-.86.57-.574 1.055-1.367 1.453-2.375-1.355-2.664-2.715-5.66-4.078-8.984-1.356-3.32-2.633-7.05-3.828-11.188h6.312c.27 1.043.582 2.172.938 3.391.363 1.211.742 2.434 1.14 3.672.407 1.242.813 2.45 1.22 3.625.413 1.18.812 2.246 1.187 3.203.343-.957.703-2.023 1.078-3.203a126.15 126.15 0 0 0 1.094-3.625c.363-1.238.71-2.461 1.046-3.672.332-1.219.63-2.348.891-3.39Zm8.27 9.845c0 3.335 1.348 5 4.047 5 .614 0 1.188-.079 1.719-.235a6.99 6.99 0 0 0 1.36-.563v-9.515a14.295 14.295 0 0 0-2.438-.203c-1.574 0-2.75.523-3.531 1.562-.774 1.043-1.157 2.36-1.157 3.953Zm13.079 8.562c0 3.437-.875 5.988-2.625 7.656-1.743 1.664-4.438 2.5-8.094 2.5a22.04 22.04 0 0 1-3.844-.344 22.844 22.844 0 0 1-3.547-.89l1.031-5a17.26 17.26 0 0 0 2.938.875c1.031.218 2.195.328 3.5.328 1.707 0 2.914-.375 3.625-1.125.707-.75 1.062-1.707 1.062-2.875v-.766a9.312 9.312 0 0 1-1.984.656c-.68.149-1.418.22-2.219.22-2.906 0-5.136-.86-6.687-2.579-1.543-1.719-2.313-4.125-2.313-7.219 0-1.539.239-2.941.719-4.203a8.941 8.941 0 0 1 2.094-3.266c.926-.914 2.054-1.617 3.39-2.109 1.332-.488 2.836-.734 4.516-.734.719 0 1.457.039 2.219.11a43.65 43.65 0 0 1 2.265.25c.75.105 1.461.23 2.141.374a22.71 22.71 0 0 1 1.813.469Zm4.603-7.719c0-1.863.285-3.492.86-4.89.57-1.407 1.32-2.571 2.25-3.5a9.42 9.42 0 0 1 3.218-2.126 10.218 10.218 0 0 1 3.75-.718c2.988 0 5.348.914 7.078 2.734 1.739 1.824 2.61 4.512 2.61 8.062 0 .344-.016.727-.047 1.141a30.51 30.51 0 0 1-.078 1.094h-13.516c.133 1.23.707 2.203 1.719 2.922 1.008.718 2.367 1.078 4.078 1.078 1.094 0 2.164-.098 3.219-.297 1.05-.195 1.91-.441 2.578-.734l.797 4.828c-.313.168-.742.328-1.282.484-.53.156-1.125.29-1.78.406-.65.125-1.345.227-2.095.313a20.29 20.29 0 0 1-2.234.125c-1.898 0-3.547-.281-4.953-.844-1.398-.562-2.555-1.328-3.469-2.297a9.279 9.279 0 0 1-2.047-3.469c-.437-1.332-.656-2.77-.656-4.312Zm14-2.281a5.617 5.617 0 0 0-.266-1.485 3.573 3.573 0 0 0-1.828-2.188c-.468-.25-1.054-.374-1.75-.374-.668 0-1.242.117-1.718.344-.48.23-.883.53-1.204.906a4.268 4.268 0 0 0-.734 1.297 9.159 9.159 0 0 0-.375 1.5Zm10.36-7.672c1.008-.301 2.316-.578 3.922-.828a32.722 32.722 0 0 1 5.047-.375c1.78 0 3.265.234 4.453.703 1.187.46 2.125 1.117 2.812 1.969.696.855 1.192 1.87 1.485 3.046.289 1.168.437 2.477.437 3.922v11.875H252.1v-11.156c0-1.926-.258-3.285-.766-4.078-.5-.8-1.445-1.203-2.828-1.203-.43 0-.886.023-1.375.062-.48.043-.902.09-1.265.141v16.234h-5.97Zm-99.96 61.112c.77-.32 1.578-.691 2.422-1.11.843-.414 1.66-.867 2.453-1.359a30.39 30.39 0 0 0 2.297-1.547 15.52 15.52 0 0 0 1.984-1.75h4.172v27.72h-5.969v-19.954c-.805.531-1.7 1.016-2.687 1.453-.98.438-1.938.82-2.875 1.14Zm34.329 13.797c0-.77-.18-1.457-.531-2.063-.344-.601-.946-1.101-1.797-1.5-.856-.394-2-.695-3.438-.906-1.437-.219-3.25-.328-5.437-.328.289-2.488.531-5.008.719-7.563.187-2.562.332-4.96.437-7.203h15v5h-10c-.055.961-.117 1.887-.187 2.782-.063.898-.137 1.68-.22 2.343 3.895.262 6.77 1.172 8.626 2.735 1.851 1.562 2.781 3.73 2.781 6.5 0 1.28-.23 2.468-.687 3.562a7.61 7.61 0 0 1-2.032 2.844c-.906.793-2.047 1.418-3.422 1.875-1.375.445-2.98.672-4.812.672-.73 0-1.492-.047-2.281-.14a29.875 29.875 0 0 1-2.266-.36c-.73-.145-1.39-.297-1.984-.453-.586-.157-1.04-.317-1.36-.485l1.078-4.922c.664.305 1.547.594 2.641.875 1.094.274 2.398.407 3.922.407 1.844 0 3.176-.364 4-1.094.832-.738 1.25-1.598 1.25-2.578Zm16.954 5c0 1.199-.383 2.11-1.14 2.734-.762.625-1.622.938-2.579.938-.96 0-1.82-.313-2.578-.938-.761-.625-1.14-1.535-1.14-2.734 0-1.196.379-2.11 1.14-2.735.758-.632 1.617-.953 2.578-.953.957 0 1.817.32 2.578.953.758.625 1.141 1.54 1.141 2.735Zm12.762-11.719c.613 0 1.254-.055 1.922-.172.664-.125 1.156-.297 1.469-.515v-.36c0-.101.003-.207.015-.312a1.75 1.75 0 0 0 .031-.282 22.022 22.022 0 0 0-.25-2.703c-.125-.843-.351-1.578-.671-2.203a3.775 3.775 0 0 0-1.313-1.469c-.543-.363-1.21-.546-2-.546-.648 0-1.21.136-1.687.406-.48.262-.868.605-1.157 1.031-.293.43-.511.898-.656 1.406-.148.5-.219.992-.219 1.47 0 1.448.348 2.522 1.047 3.218.707.687 1.863 1.031 3.469 1.031Zm2.922 3.875a7.221 7.221 0 0 1-1.875.594 10.44 10.44 0 0 1-1.735.172c-1.73 0-3.21-.207-4.437-.625-1.23-.414-2.242-1.004-3.031-1.766a6.998 6.998 0 0 1-1.735-2.734c-.367-1.063-.547-2.235-.547-3.516 0-1.07.176-2.164.532-3.281a9.002 9.002 0 0 1 1.703-3.063c.77-.914 1.75-1.675 2.937-2.28 1.188-.603 2.617-.907 4.297-.907 3.445 0 6.04 1.062 7.781 3.187 1.75 2.117 2.625 5.164 2.625 9.14 0 2.618-.343 4.923-1.03 6.923-.68 2-1.731 3.683-3.157 5.047-1.418 1.355-3.234 2.386-5.453 3.093-2.211.711-4.836 1.07-7.875 1.094a90.625 90.625 0 0 0-.125-2.469c-.055-.8-.106-1.628-.156-2.484 1.52-.031 2.89-.144 4.109-.344 1.226-.195 2.305-.53 3.234-1a7.477 7.477 0 0 0 2.39-1.86c.657-.769 1.173-1.741 1.548-2.92Zm19.798-3.875c.613 0 1.254-.055 1.922-.172.664-.125 1.156-.297 1.468-.515v-.36c0-.101.004-.207.016-.312a1.75 1.75 0 0 0 .031-.282 22.022 22.022 0 0 0-.25-2.703c-.125-.843-.351-1.578-.672-2.203a3.775 3.775 0 0 0-1.312-1.469c-.543-.363-1.211-.546-2-.546-.649 0-1.211.136-1.688.406-.48.262-.867.605-1.156 1.031-.293.43-.512.898-.656 1.406-.149.5-.219.992-.219 1.47 0 1.448.348 2.522 1.047 3.218.707.687 1.863 1.031 3.469 1.031Zm2.922 3.875a7.221 7.221 0 0 1-1.875.594 10.44 10.44 0 0 1-1.735.172c-1.73 0-3.21-.207-4.437-.625-1.23-.414-2.242-1.004-3.032-1.766a6.998 6.998 0 0 1-1.734-2.734c-.367-1.063-.547-2.235-.547-3.516 0-1.07.176-2.164.531-3.281a9.002 9.002 0 0 1 1.704-3.063c.77-.914 1.75-1.675 2.937-2.28 1.188-.603 2.617-.907 4.297-.907 3.445 0 6.039 1.062 7.781 3.187 1.75 2.117 2.625 5.164 2.625 9.14 0 2.618-.344 4.923-1.031 6.923-.68 2-1.73 3.683-3.156 5.047-1.418 1.355-3.235 2.386-5.453 3.093-2.211.711-4.836 1.07-7.875 1.094a90.625 90.625 0 0 0-.125-2.469c-.055-.8-.106-1.628-.157-2.484 1.52-.031 2.891-.144 4.11-.344 1.226-.195 2.304-.53 3.234-1a7.477 7.477 0 0 0 2.39-1.86c.657-.769 1.173-1.741 1.548-2.92ZM58.703 68.531c0 1.2-.21 2.297-.625 3.297a7.383 7.383 0 0 1-1.86 2.625c-.823.742-1.855 1.32-3.093 1.735-1.242.414-2.68.625-4.312.625-1.868 0-3.418-.262-4.657-.782-1.242-.52-2.242-1.164-3-1.937-.761-.77-1.304-1.613-1.625-2.531-.312-.926-.468-1.774-.468-2.547 0-.801.101-1.535.312-2.203A7.28 7.28 0 0 1 40.25 65c.375-.55.797-1.05 1.266-1.5.468-.457.968-.89 1.5-1.297-1.149-.926-1.996-1.843-2.547-2.75-.543-.906-.813-2.066-.813-3.484 0-1.063.219-2.086.657-3.078a7.863 7.863 0 0 1 1.859-2.578c.8-.739 1.77-1.328 2.906-1.766 1.133-.437 2.395-.656 3.781-.656 1.625 0 3.016.234 4.172.703 1.164.469 2.117 1.062 2.86 1.781.75.719 1.289 1.527 1.625 2.422.332.887.5 1.773.5 2.656 0 1.282-.34 2.477-1.016 3.578-.68 1.106-1.527 1.98-2.547 2.625 1.52.98 2.61 2.012 3.266 3.094.656 1.086.984 2.344.984 3.781Zm-13.844.235c0 .324.07.68.22 1.062.144.387.378.742.702 1.063.32.324.735.594 1.235.812.507.211 1.125.313 1.843.313 1.383 0 2.395-.332 3.032-1 .644-.664.968-1.414.968-2.25 0-.614-.14-1.16-.421-1.64a4.266 4.266 0 0 0-1.141-1.25 8.103 8.103 0 0 0-1.703-.97 23.084 23.084 0 0 0-2.094-.78 8.21 8.21 0 0 0-1.89 1.968c-.5.742-.75 1.633-.75 2.672Zm7.407-13.156a2.7 2.7 0 0 0-.188-.938 2.6 2.6 0 0 0-.594-.937A3.586 3.586 0 0 0 50.422 53c-.43-.207-.95-.312-1.563-.312-.586 0-1.09.093-1.515.28-.43.188-.781.438-1.063.75a3.06 3.06 0 0 0-.625.97c-.136.343-.203.68-.203 1 0 .855.313 1.656.938 2.406.632.742 1.71 1.383 3.234 1.922.852-.54 1.504-1.156 1.953-1.844.457-.695.688-1.55.688-2.562Zm0 0"/>
  <path d="m355.762 10.207.453.043.441.063.442.085.43.094.429.113.414.137.414.14.406.165.395.172.387.195.386.207.364.223.363.234.351.242.344.266.328.27.32.285.31.3.3.309.285.32.27.328.258.344.25.352.234.363.223.363.199.387.195.387.176.398.168.403.14.414.137.421.106.422.101.434.078.437.067.45.047.449.03.453.005.465v334.933l-.004.457-.031.461-.047.45-.067.441-.078.438-.101.433-.106.43-.137.414-.14.414-.168.41-.176.39-.195.387-.2.38-.222.37-.234.364-.25.351-.258.344-.27.328-.285.32-.3.31-.31.3-.32.285-.328.27-.344.257-.351.25-.363.239-.364.21-.386.212-.387.19-.395.18-.406.165-.414.14-.414.13-.43.112-.43.102-.44.078-.442.067-.453.046-.457.032-.457.007H19.91l-.457-.007-.457-.032-.45-.046-.448-.067-.438-.078-.433-.102-.422-.113-.422-.129-.414-.14-.403-.164-.398-.18-.387-.192-.379-.21-.37-.211-.364-.239-.352-.25-.343-.257-.328-.27-.32-.285-.31-.3-.3-.31-.285-.32-.27-.328-.258-.344-.25-.351-.238-.364-.219-.37-.207-.38-.187-.386-.18-.39-.164-.411-.14-.414-.137-.414-.114-.43-.093-.433-.086-.438-.059-.441-.05-.45-.028-.46-.008-.458V21.34l.008-.465.027-.453.051-.45.059-.449.086-.437.093-.434.114-.422.136-.421.141-.414.164-.403.18-.398.187-.387.207-.387.22-.363.237-.363.25-.352.258-.344.27-.328.285-.32.3-.309.31-.3.32-.286.328-.27.343-.265.352-.242.363-.234.371-.223.38-.207.386-.195.398-.172.403-.164.414-.14.422-.138.422-.113.433-.094.438-.085.449-.063.45-.043.456-.031.457-.008h334.938l.457.008ZM28.187 18.914l-.457.031-.453.043-.441.063-.445.086-.426.093-.43.114-.422.136-.406.145-.41.164-.39.168-.395.195-.38.207-.37.223-.356.234-.351.243-.344.265-.328.27-.32.289-.31.297-.3.308-.285.32-.27.329-.265.343-.242.352-.239.355-.218.372-.207.378-.188.395-.18.395-.164.406-.14.406-.137.422-.113.43-.094.43-.086.44-.059.442-.046.453-.032.457-.008.457v317.465l.008.457.032.457.046.453.059.442.086.437.094.434.113.43.137.414.14.414.164.406.18.394.188.387.207.38.218.37.239.363.242.352.265.344.27.328.285.32.3.309.31.3.32.286.328.27.344.257.351.25.356.234.37.215.38.207.394.196.39.18.411.163.406.141.422.129.43.113.426.102.445.078.441.066.453.047.457.031.458.008h317.464l.457-.008.457-.03.454-.048.441-.066.441-.078.43-.102.43-.113.414-.129.414-.14.406-.165.395-.18.386-.195.383-.207.367-.215.364-.234.351-.25.34-.258.332-.27.32-.284.309-.301.297-.309.289-.32.27-.328.257-.344.25-.352.235-.363.222-.37.2-.38.195-.387.176-.394.164-.406.144-.414.137-.414.105-.43.102-.434.078-.437.063-.442.05-.453.032-.457.004-.457V30.07l-.004-.457-.032-.457-.05-.453-.063-.441-.078-.442-.102-.43-.105-.43-.137-.42-.144-.407-.164-.406-.176-.395-.195-.395-.2-.378-.222-.372-.235-.355-.25-.352-.258-.343-.27-.328-.288-.32-.297-.31-.309-.296-.32-.29-.332-.269-.34-.265-.351-.243-.364-.234-.367-.223-.383-.207-.386-.195-.395-.168-.406-.164-.414-.145-.414-.136-.43-.114-.43-.093-.441-.086-.441-.063-.454-.043-.457-.03-.457-.005H28.645Zm0 0"/>
</svg>
