<svg xmlns="http://www.w3.org/2000/svg" version="1.2" viewBox="0 0 375 375">
  <path d="M120.115 97.833c1.676 3.074 3.61 6.875 5.797 11.407a572.197 572.197 0 0 1 6.86 14.687 758.657 758.657 0 0 1 7.077 16.172c2.332 5.5 4.524 10.68 6.578 15.531 2.051-4.851 4.239-10.031 6.563-15.531a779.399 779.399 0 0 1 7.062-16.172 630.564 630.564 0 0 1 6.86-14.687c2.195-4.532 4.133-8.333 5.812-11.407H192.6c.938 6.438 1.801 13.649 2.594 21.625a872.54 872.54 0 0 1 2.094 24.907c.613 8.636 1.176 17.292 1.687 25.968.508 8.68.953 16.84 1.328 24.485h-21.265c-.282-9.426-.657-19.688-1.125-30.782a850.148 850.148 0 0 0-2.094-33.593l-5.61 13.015a1932.716 1932.716 0 0 0-6.093 14.282c-2 4.75-3.934 9.296-5.797 13.64a3004.606 3004.606 0 0 0-4.766 11.125h-15.25a1555.66 1555.66 0 0 0-4.765-11.125 2486.09 2486.09 0 0 1-5.813-13.64c-2-4.758-4.027-9.52-6.078-14.282a4043.627 4043.627 0 0 1-5.594-13.015 828.576 828.576 0 0 0-2.109 33.593 2642.07 2642.07 0 0 0-1.11 30.782h-21.28c.374-7.645.816-15.805 1.327-24.485.52-8.676 1.083-17.332 1.688-25.968.602-8.633 1.3-16.938 2.094-24.907.789-7.976 1.656-15.187 2.593-21.625ZM236.28 155.63c0 11.668 4.708 17.5 14.126 17.5 2.144 0 4.148-.281 6.015-.844 1.864-.562 3.454-1.21 4.766-1.953v-33.312a45.544 45.544 0 0 0-3.64-.485c-1.399-.144-3.032-.218-4.907-.218-5.5 0-9.605 1.824-12.312 5.468-2.7 3.637-4.047 8.25-4.047 13.844Zm45.75 29.953c0 12.032-3.058 20.961-9.171 26.797-6.106 5.832-15.547 8.75-28.328 8.75-4.48 0-8.961-.398-13.438-1.187-4.48-.793-8.632-1.844-12.453-3.157l3.64-17.484a60.88 60.88 0 0 0 10.282 3.063c3.594.75 7.676 1.125 12.25 1.125 5.969 0 10.188-1.31 12.656-3.922 2.477-2.606 3.72-5.957 3.72-10.063v-2.672a33.786 33.786 0 0 1-6.938 2.328c-2.375.512-4.965.766-7.766.766-10.168 0-17.961-3.008-23.375-9.031-5.406-6.02-8.11-14.442-8.11-25.266 0-5.406.837-10.32 2.516-14.75 1.688-4.437 4.14-8.238 7.36-11.406 3.218-3.176 7.156-5.629 11.812-7.36 4.664-1.726 9.941-2.593 15.828-2.593 2.508 0 5.094.12 7.75.36 2.664.23 5.305.53 7.922.905 2.613.375 5.11.82 7.484 1.329 2.375.511 4.493 1.046 6.36 1.609ZM89.223 237.904a73.619 73.619 0 0 1 1.656 3.265 174.677 174.677 0 0 1 1.953 4.203c.688 1.5 1.363 3.04 2.031 4.61.664 1.574 1.29 3.054 1.875 4.437.582-1.383 1.207-2.863 1.875-4.437.664-1.57 1.336-3.11 2.016-4.61.687-1.507 1.344-2.91 1.969-4.203.625-1.3 1.175-2.39 1.656-3.265h5.687c.27 1.843.516 3.906.735 6.187a227.2 227.2 0 0 1 .594 7.11c.175 2.468.335 4.945.484 7.421.144 2.48.273 4.813.39 7h-6.078a882.442 882.442 0 0 0-.328-8.797 262.994 262.994 0 0 0-.593-9.609 565.372 565.372 0 0 1-1.61 3.734 375.455 375.455 0 0 0-1.734 4.079 935.85 935.85 0 0 1-1.656 3.89 1446.06 1446.06 0 0 0-1.36 3.188h-4.36c-.374-.883-.835-1.946-1.374-3.188a598.152 598.152 0 0 1-1.656-3.89 638.909 638.909 0 0 0-1.735-4.079 775.848 775.848 0 0 1-1.594-3.734 225.79 225.79 0 0 0-.609 9.61 520.041 520.041 0 0 0-.312 8.796h-6.079c.102-2.187.227-4.52.375-7 .145-2.476.301-4.953.47-7.422.175-2.468.378-4.835.609-7.109.226-2.281.472-4.344.734-6.187Zm36.161 23.562c.582 0 1.14-.008 1.671-.031.532-.031.958-.07 1.282-.125v-4.531a12.956 12.956 0 0 0-1.078-.157c-.48-.05-.918-.078-1.313-.078-.562 0-1.094.04-1.594.11a4.001 4.001 0 0 0-1.297.375 2.307 2.307 0 0 0-.89.765c-.211.313-.313.711-.313 1.188 0 .937.313 1.59.938 1.953.633.355 1.5.531 2.594.531Zm-.485-17.437c1.758 0 3.223.199 4.39.593 1.177.399 2.118.97 2.829 1.72.707.75 1.207 1.663 1.5 2.733.29 1.063.437 2.247.437 3.547v12.407c-.855.187-2.042.406-3.562.656-1.512.25-3.352.375-5.516.375-1.355 0-2.59-.121-3.703-.36-1.105-.238-2.058-.628-2.86-1.171a5.485 5.485 0 0 1-1.827-2.141c-.43-.883-.64-1.969-.64-3.25 0-1.219.241-2.254.733-3.11a5.718 5.718 0 0 1 1.97-2.046c.831-.508 1.78-.875 2.843-1.094a16.03 16.03 0 0 1 3.328-.344c.77 0 1.453.04 2.047.11a9.568 9.568 0 0 1 1.469.25v-.563c0-1.008-.309-1.82-.922-2.437-.617-.614-1.68-.922-3.188-.922a20.8 20.8 0 0 0-3.015.218c-.98.149-1.828.356-2.547.625l-.766-4.796a14.07 14.07 0 0 1 1.297-.344c.52-.125 1.086-.235 1.703-.328a32.544 32.544 0 0 1 1.938-.235 22.387 22.387 0 0 1 2.062-.093Zm19.636 10.391c0 3.335 1.347 5 4.047 5 .613 0 1.187-.079 1.718-.235a6.99 6.99 0 0 0 1.36-.563v-9.515a14.295 14.295 0 0 0-2.438-.203c-1.574 0-2.75.523-3.531 1.562-.774 1.043-1.156 2.36-1.156 3.953Zm13.078 8.562c0 3.437-.875 5.988-2.625 7.656-1.742 1.664-4.438 2.5-8.094 2.5a22.04 22.04 0 0 1-3.844-.344 22.844 22.844 0 0 1-3.547-.89l1.032-5a17.26 17.26 0 0 0 2.937.875c1.031.218 2.195.328 3.5.328 1.707 0 2.914-.375 3.625-1.125.707-.75 1.063-1.707 1.063-2.875v-.766a9.312 9.312 0 0 1-1.985.656c-.68.149-1.418.22-2.218.22-2.907 0-5.137-.86-6.688-2.579-1.543-1.719-2.312-4.125-2.312-7.219 0-1.539.238-2.941.718-4.203a8.941 8.941 0 0 1 2.094-3.266c.926-.914 2.055-1.617 3.39-2.109 1.333-.488 2.837-.734 4.516-.734.72 0 1.457.039 2.22.11a43.65 43.65 0 0 1 2.265.25c.75.105 1.46.23 2.14.374a22.71 22.71 0 0 1 1.813.469Zm5.603-17.672c1.008-.301 2.317-.578 3.922-.828a32.722 32.722 0 0 1 5.047-.375c1.781 0 3.266.234 4.453.703 1.188.46 2.125 1.117 2.813 1.969.695.855 1.191 1.87 1.484 3.046.29 1.168.438 2.477.438 3.922v11.875h-5.954v-11.156c0-1.926-.257-3.285-.765-4.078-.5-.8-1.445-1.203-2.828-1.203-.43 0-.887.023-1.375.062-.48.043-.903.09-1.266.141v16.234h-5.969Zm22.56 9.953c0-1.863.285-3.492.86-4.89.57-1.407 1.32-2.571 2.25-3.5a9.42 9.42 0 0 1 3.218-2.126 10.218 10.218 0 0 1 3.75-.718c2.989 0 5.348.914 7.078 2.734 1.739 1.824 2.61 4.512 2.61 8.062 0 .344-.016.727-.047 1.141a30.51 30.51 0 0 1-.078 1.094H191.9c.133 1.23.707 2.203 1.719 2.922 1.008.718 2.367 1.078 4.078 1.078 1.094 0 2.164-.098 3.219-.297 1.05-.195 1.91-.441 2.578-.734l.797 4.828c-.313.168-.742.328-1.281.484-.532.156-1.125.29-1.782.406-.648.125-1.343.227-2.093.313a20.29 20.29 0 0 1-2.235.125c-1.898 0-3.547-.281-4.953-.844-1.398-.562-2.555-1.328-3.469-2.297a9.279 9.279 0 0 1-2.047-3.469c-.437-1.332-.656-2.77-.656-4.312Zm14-2.281a5.617 5.617 0 0 0-.265-1.485 3.573 3.573 0 0 0-1.828-2.188c-.47-.25-1.055-.374-1.75-.374-.669 0-1.243.117-1.72.344-.48.23-.882.53-1.202.906a4.268 4.268 0 0 0-.735 1.297 9.159 9.159 0 0 0-.375 1.5Zm16.407 8.359c1.094 0 1.863-.101 2.312-.312.457-.22.688-.633.688-1.25 0-.477-.297-.895-.89-1.25-.587-.364-1.477-.77-2.673-1.22a29.82 29.82 0 0 1-2.547-1.077c-.761-.375-1.406-.82-1.937-1.344a5.38 5.38 0 0 1-1.234-1.86c-.293-.726-.438-1.597-.438-2.609 0-1.969.727-3.523 2.188-4.672 1.468-1.144 3.484-1.718 6.046-1.718 1.282 0 2.504.117 3.672.343 1.176.22 2.114.465 2.813.735l-1.047 4.64a21.726 21.726 0 0 0-2.266-.64c-.812-.188-1.726-.282-2.734-.282-1.867 0-2.797.524-2.797 1.563 0 .242.035.453.11.64.082.188.242.372.484.547.238.168.566.352.984.547.414.2.942.418 1.578.657 1.313.48 2.395.953 3.25 1.421.852.47 1.524.98 2.016 1.532a4.717 4.717 0 0 1 1.031 1.812c.207.668.313 1.438.313 2.313 0 2.086-.782 3.664-2.344 4.734-1.563 1.063-3.773 1.594-6.625 1.594-1.867 0-3.418-.164-4.656-.485-1.242-.32-2.102-.585-2.578-.796l1-4.844c1.007.406 2.046.726 3.109.953a15.82 15.82 0 0 0 3.172.328Zm19.322 4.281h-5.97v-21.047h5.97Zm.546-27.125c0 1.094-.355 1.961-1.062 2.594-.7.625-1.527.938-2.484.938-.97 0-1.809-.313-2.516-.938-.7-.633-1.047-1.5-1.047-2.594 0-1.093.348-1.953 1.047-2.578.707-.625 1.547-.937 2.516-.937.957 0 1.785.312 2.484.937.707.625 1.062 1.485 1.062 2.578Zm23.013 26.407c-1.023.293-2.335.562-3.937.812-1.594.258-3.273.39-5.031.39-1.782 0-3.266-.241-4.453-.718-1.188-.477-2.133-1.148-2.829-2.016-.687-.875-1.183-1.91-1.484-3.109-.293-1.195-.437-2.516-.437-3.953v-11.735h5.968v11c0 1.93.25 3.32.75 4.172.508.856 1.457 1.282 2.844 1.282.426 0 .879-.02 1.36-.063.476-.039.906-.086 1.28-.14v-16.25h5.97Zm17.154-10.438c0-1.926-.25-3.285-.75-4.078-.492-.8-1.336-1.203-2.531-1.203-.375 0-.766.023-1.172.062-.399.043-.777.09-1.14.141v16.234h-5.97V245.31a37.888 37.888 0 0 1 3.938-.813c.758-.125 1.54-.218 2.344-.28a26.7 26.7 0 0 1 2.36-.11c1.519 0 2.753.195 3.702.578.946.387 1.727.844 2.344 1.375a10.156 10.156 0 0 1 2.938-1.438c1.101-.343 2.125-.515 3.062-.515 1.676 0 3.05.234 4.125.703 1.082.46 1.941 1.117 2.578 1.969.645.855 1.086 1.87 1.328 3.046.239 1.168.36 2.477.36 3.922v11.875h-5.953v-11.156c0-1.926-.25-3.285-.75-4.078-.493-.8-1.336-1.203-2.532-1.203-.324 0-.773.086-1.343.25-.575.156-1.047.355-1.422.594.187.605.304 1.25.36 1.937.05.68.077 1.402.077 2.172v11.484h-5.953Zm-119.234 53.471a7.27 7.27 0 0 1-.61 2.922c-.398.93-.918 1.828-1.562 2.703-.637.868-1.356 1.7-2.157 2.5a122.18 122.18 0 0 1-2.359 2.266c-.398.375-.828.797-1.297 1.266a34.866 34.866 0 0 0-2.484 2.765c-.336.406-.54.746-.61 1.016h11.922v5h-18.484a6.209 6.209 0 0 1-.078-1.11v-.968c0-1.282.203-2.453.61-3.516.413-1.07.956-2.066 1.624-2.984a19.415 19.415 0 0 1 2.25-2.578c.844-.801 1.68-1.602 2.516-2.407.633-.613 1.234-1.191 1.797-1.734a20.189 20.189 0 0 0 1.484-1.61 7.557 7.557 0 0 0 1-1.546c.238-.52.36-1.051.36-1.594 0-1.164-.336-1.988-1-2.469-.669-.476-1.497-.719-2.485-.719-.719 0-1.398.118-2.031.344a9.3 9.3 0 0 0-1.719.797c-.512.305-.953.61-1.328.922-.375.305-.656.547-.844.734l-2.953-4.156c1.164-1.094 2.531-1.992 4.094-2.703a12.025 12.025 0 0 1 5.015-1.063c1.625 0 3.024.188 4.204.563 1.175.375 2.144.902 2.906 1.578a6.077 6.077 0 0 1 1.672 2.484c.363.97.547 2.07.547 3.297Zm15.641 0a247.352 247.352 0 0 0-3.328 4.438 31.341 31.341 0 0 0-2.953 4.922h6.281Zm5.828-7.28v16.64h2.97v4.875h-2.97v6.203h-5.828v-6.203h-11.968v-4.36a74.056 74.056 0 0 1 2.203-3.968 69.398 69.398 0 0 1 2.937-4.563 80.118 80.118 0 0 1 3.422-4.578 48.177 48.177 0 0 1 3.594-4.047Zm12.767 24.562c0 1.199-.383 2.109-1.14 2.734-.762.625-1.622.937-2.579.937-.96 0-1.82-.312-2.578-.937-.761-.625-1.14-1.535-1.14-2.734 0-1.196.379-2.11 1.14-2.735.758-.633 1.617-.953 2.578-.953.957 0 1.817.32 2.578.953.758.625 1.141 1.54 1.141 2.735Zm10.324 3.75c-.718 0-1.48-.047-2.28-.141a26.337 26.337 0 0 1-2.329-.375 23.58 23.58 0 0 1-2.031-.516 12.157 12.157 0 0 1-1.438-.515l1.157-4.97c.687.294 1.57.606 2.656.938 1.082.336 2.422.5 4.015.5 1.844 0 3.192-.343 4.047-1.03.852-.696 1.282-1.63 1.282-2.798 0-.726-.157-1.336-.47-1.828a3.48 3.48 0 0 0-1.25-1.187c-.53-.313-1.167-.524-1.905-.64a13.9 13.9 0 0 0-2.344-.188h-2.313v-4.797h2.64c.583 0 1.145-.051 1.688-.157a4.833 4.833 0 0 0 1.47-.546 2.87 2.87 0 0 0 1.015-1.047c.258-.438.39-.989.39-1.657 0-.507-.109-.945-.328-1.312a2.85 2.85 0 0 0-.812-.922 3.576 3.576 0 0 0-1.172-.531 4.826 4.826 0 0 0-1.328-.188c-1.149 0-2.211.172-3.188.516a13.17 13.17 0 0 0-2.656 1.281l-2.125-4.36a18.8 18.8 0 0 1 1.5-.843c.57-.289 1.203-.555 1.89-.797a17.344 17.344 0 0 1 2.22-.594c.788-.164 1.628-.25 2.515-.25 1.625 0 3.031.196 4.219.579 1.187.386 2.164.933 2.937 1.64a6.73 6.73 0 0 1 1.719 2.485c.375.949.563 1.98.563 3.093 0 1.094-.31 2.157-.922 3.188a6.097 6.097 0 0 1-2.47 2.328c1.438.594 2.548 1.469 3.329 2.625.79 1.156 1.188 2.555 1.188 4.187 0 1.282-.215 2.465-.641 3.547a7.223 7.223 0 0 1-2 2.797c-.906.781-2.063 1.39-3.469 1.828-1.398.438-3.055.657-4.969.657Zm34.955-14.516c0 4.668-.887 8.25-2.657 10.75-1.773 2.492-4.218 3.734-7.343 3.734-3.118 0-5.563-1.242-7.344-3.734-1.774-2.5-2.656-6.082-2.656-10.75 0-2.32.234-4.375.703-6.156.468-1.79 1.14-3.297 2.015-4.516.883-1.226 1.938-2.16 3.157-2.797 1.226-.644 2.601-.969 4.125-.969 3.125 0 5.57 1.25 7.343 3.75 1.77 2.493 2.657 6.055 2.657 10.688Zm-6.079 0c0-1.383-.07-2.645-.203-3.781-.136-1.133-.351-2.114-.64-2.938-.293-.82-.696-1.457-1.203-1.906-.5-.457-1.125-.688-1.875-.688s-1.371.23-1.86.688c-.492.45-.89 1.086-1.203 1.906-.305.824-.523 1.805-.656 2.938a31.88 31.88 0 0 0-.203 3.78c0 1.388.066 2.653.203 3.798.133 1.148.351 2.137.656 2.969.313.824.711 1.464 1.203 1.921.489.45 1.11.672 1.86.672s1.375-.222 1.875-.672c.507-.457.91-1.097 1.203-1.921.289-.832.504-1.82.64-2.97a33.01 33.01 0 0 0 .203-3.796ZM40.297 54.297c.77-.32 1.578-.692 2.422-1.11.844-.414 1.66-.867 2.453-1.36.8-.487 1.566-1.003 2.297-1.546a15.52 15.52 0 0 0 1.984-1.75h4.172V76.25h-5.969V56.297a18.481 18.481 0 0 1-2.687 1.453c-.98.437-1.938.82-2.875 1.14Zm39.764 1.515a7.27 7.27 0 0 1-.609 2.922c-.398.93-.918 1.828-1.562 2.703-.637.867-1.356 1.7-2.157 2.5a122.18 122.18 0 0 1-2.359 2.266c-.398.375-.828.797-1.297 1.265a34.866 34.866 0 0 0-2.484 2.766c-.336.406-.54.746-.61 1.016h11.922v5H62.421a6.209 6.209 0 0 1-.078-1.11v-.968c0-1.282.203-2.454.61-3.516.413-1.07.956-2.066 1.624-2.984a19.415 19.415 0 0 1 2.25-2.579c.844-.8 1.68-1.601 2.516-2.406.633-.613 1.234-1.191 1.797-1.734a20.189 20.189 0 0 0 1.484-1.61 7.557 7.557 0 0 0 1-1.546c.238-.52.36-1.051.36-1.594 0-1.164-.337-1.988-1-2.469-.669-.477-1.497-.719-2.485-.719-.719 0-1.398.117-2.031.344-.625.219-1.2.484-1.719.797-.512.305-.953.61-1.328.922a11.86 11.86 0 0 0-.844.734l-2.953-4.156c1.164-1.094 2.531-1.992 4.094-2.703a12.025 12.025 0 0 1 5.015-1.063c1.625 0 3.024.188 4.203.563 1.176.375 2.145.902 2.907 1.578a6.077 6.077 0 0 1 1.672 2.484c.363.97.546 2.07.546 3.297Zm0 0"/>
  <path d="m355.762 10.207.453.043.441.063.442.085.43.094.429.113.414.137.414.14.406.169.395.168.387.195.386.207.364.223.363.234.351.242.344.266.328.27.32.285.31.3.3.309.285.32.27.328.258.344.25.352.234.363.223.363.199.387.195.387.176.398.168.403.14.414.137.421.106.422.101.434.078.437.067.45.047.449.03.453.005.465v334.933l-.004.461-.031.457-.047.45-.067.441-.078.438-.101.433-.106.43-.137.414-.14.414-.168.41-.176.39-.195.387-.2.38-.222.37-.234.364-.25.351-.258.344-.27.328-.285.32-.3.31-.31.3-.32.285-.328.27-.344.257-.351.25-.363.239-.364.214-.386.207-.387.192-.395.18-.406.164-.414.14-.414.13-.43.116-.43.098-.44.078-.442.067-.453.05-.457.028-.457.007H19.91l-.457-.007-.457-.028-.45-.05-.448-.067-.438-.078-.433-.098-.422-.117-.422-.129-.414-.14-.403-.164-.398-.18-.387-.192-.379-.207-.37-.214-.364-.239-.352-.25-.343-.257-.328-.27-.32-.285-.31-.3-.3-.31-.285-.32-.27-.328-.258-.344-.25-.351-.238-.364-.219-.37-.207-.38-.187-.386-.18-.39-.164-.411-.14-.414-.137-.414-.114-.43-.093-.433-.086-.438-.059-.441-.05-.45-.028-.457-.008-.46V21.34l.008-.465.027-.453.051-.45.059-.449.086-.437.093-.434.114-.422.136-.421.141-.414.164-.403.18-.398.187-.387.207-.387.22-.363.237-.363.25-.352.258-.344.27-.328.285-.32.3-.309.31-.3.32-.286.328-.27.343-.265.352-.242.363-.234.371-.223.38-.207.386-.195.398-.168.403-.168.414-.14.422-.138.422-.113.433-.094.438-.085.449-.063.45-.043.456-.031.457-.004h334.938l.457.004ZM28.187 18.914l-.457.031-.453.043-.441.063-.445.086-.426.093-.43.114-.422.136-.406.145-.41.164-.39.172-.395.191-.38.207-.37.223-.356.234-.351.243-.344.265-.328.27-.32.289-.31.297-.3.308-.285.32-.27.333-.265.34-.242.351-.239.355-.218.375-.207.375-.188.395-.18.395-.164.406-.14.406-.137.422-.113.43-.094.43-.086.44-.059.442-.046.453-.032.457-.008.457v317.465l.008.457.032.461.046.45.059.44.086.438.094.434.113.43.137.414.14.414.164.41.18.39.188.387.207.38.218.37.239.363.242.352.265.344.27.328.285.32.3.309.31.3.32.286.328.27.344.257.351.25.356.238.37.211.38.207.394.196.39.18.411.163.406.141.422.129.43.113.426.102.445.078.441.066.453.047.457.031.458.008h317.464l.457-.008.457-.03.454-.048.441-.066.441-.078.43-.102.43-.113.414-.129.414-.14.406-.165.395-.18.386-.195.383-.207.367-.21.364-.239.351-.25.34-.258.332-.27.32-.284.309-.301.297-.309.289-.32.27-.328.257-.344.25-.352.235-.363.222-.37.2-.38.195-.387.176-.39.164-.41.144-.414.137-.414.105-.43.102-.434.078-.437.063-.442.05-.449.032-.46.004-.458V30.07l-.004-.457-.032-.457-.05-.453-.063-.441-.078-.442-.102-.43-.105-.43-.137-.42-.144-.407-.164-.406-.176-.395-.195-.39-.2-.38-.222-.375-.235-.355-.25-.352-.258-.34-.27-.331-.288-.32-.297-.31-.309-.296-.32-.29-.332-.269-.34-.265-.351-.243-.364-.234-.367-.223-.383-.207-.386-.191-.395-.172-.406-.164-.414-.145-.414-.136-.43-.114-.43-.093-.441-.086-.441-.063-.454-.043-.457-.03-.457-.005H28.645Zm0 0"/>
</svg>
