<svg xmlns="http://www.w3.org/2000/svg" version="1.2" viewBox="0 0 375 375">
  <path d="M182.746 96.708c14.457 0 25.555 2.543 33.297 7.625 7.75 5.086 11.625 13.414 11.625 24.985 0 11.668-3.922 20.09-11.766 25.265-7.836 5.18-19.027 7.766-33.578 7.766h-6.86v32.469h-21.827V99.224c4.75-.926 9.78-1.578 15.093-1.953 5.32-.375 9.992-.563 14.016-.563Zm1.39 18.61a77.71 77.71 0 0 0-4.687.14 174.64 174.64 0 0 0-3.984.282v28h6.859c7.55 0 13.238-1.024 17.063-3.079 3.832-2.05 5.75-5.879 5.75-11.484 0-2.707-.493-4.945-1.47-6.719-.98-1.77-2.382-3.191-4.202-4.265-1.825-1.07-4.043-1.817-6.657-2.235-2.605-.426-5.496-.64-8.671-.64Zm-97.54 122.257c4.133 0 7.305.73 9.516 2.188 2.218 1.45 3.328 3.828 3.328 7.14 0 3.337-1.121 5.743-3.36 7.22-2.242 1.48-5.437 2.218-9.593 2.218h-1.969v9.281h-6.234V238.31a34.105 34.105 0 0 1 4.312-.563 54.691 54.691 0 0 1 4-.172Zm.406 5.329c-.46 0-.906.015-1.343.046-.438.024-.82.047-1.141.079v8h1.969c2.156 0 3.781-.29 4.875-.875 1.093-.594 1.64-1.692 1.64-3.297 0-.77-.14-1.407-.422-1.907a3.189 3.189 0 0 0-1.203-1.218c-.523-.313-1.156-.524-1.906-.64a14.9 14.9 0 0 0-2.469-.188Zm16.635 22.718v-30.078l5.969-.969v10.094c.394-.133.906-.258 1.531-.375a9.311 9.311 0 0 1 1.828-.187c1.707 0 3.125.234 4.25.703 1.133.46 2.04 1.117 2.719 1.969.688.855 1.164 1.87 1.438 3.046.28 1.168.421 2.477.421 3.922v11.875h-5.953v-11.156c0-1.926-.25-3.285-.75-4.078-.492-.8-1.402-1.203-2.734-1.203-.531 0-1.031.047-1.5.14-.469.094-.887.196-1.25.297v16Zm43.247-10.562c0 1.656-.242 3.172-.718 4.547-.48 1.375-1.18 2.547-2.094 3.515a9.505 9.505 0 0 1-3.266 2.266c-1.261.531-2.68.797-4.25.797-1.543 0-2.949-.266-4.218-.797a9.656 9.656 0 0 1-3.266-2.266c-.906-.968-1.617-2.14-2.125-3.515-.5-1.375-.75-2.89-.75-4.547 0-1.656.258-3.16.781-4.516.52-1.363 1.238-2.523 2.156-3.484a9.81 9.81 0 0 1 3.282-2.235c1.27-.53 2.648-.796 4.14-.796 1.52 0 2.91.265 4.172.796a9.48 9.48 0 0 1 3.266 2.235c.906.96 1.613 2.12 2.125 3.484.508 1.356.765 2.86.765 4.516Zm-6.078 0c0-1.832-.37-3.274-1.109-4.328-.73-1.063-1.777-1.594-3.14-1.594-1.356 0-2.407.531-3.157 1.594-.75 1.054-1.125 2.496-1.125 4.328 0 1.844.375 3.308 1.125 4.39.75 1.075 1.8 1.61 3.156 1.61 1.364 0 2.41-.535 3.141-1.61.738-1.082 1.11-2.546 1.11-4.39Zm16.718 6.281c1.093 0 1.863-.101 2.312-.312.457-.22.688-.633.688-1.25 0-.477-.297-.895-.891-1.25-.586-.364-1.477-.77-2.672-1.22a29.82 29.82 0 0 1-2.547-1.077c-.761-.375-1.406-.82-1.937-1.344a5.38 5.38 0 0 1-1.235-1.86c-.293-.726-.437-1.597-.437-2.609 0-1.969.726-3.523 2.187-4.672 1.47-1.144 3.485-1.718 6.047-1.718 1.282 0 2.504.117 3.672.343 1.176.22 2.113.465 2.813.735l-1.047 4.64a21.726 21.726 0 0 0-2.266-.64c-.812-.188-1.726-.282-2.734-.282-1.867 0-2.797.524-2.797 1.563 0 .242.035.453.11.64.081.188.241.372.484.547.238.168.566.352.984.547.414.2.941.418 1.578.657 1.313.48 2.395.953 3.25 1.421.852.47 1.524.98 2.016 1.532a4.717 4.717 0 0 1 1.031 1.812c.207.668.313 1.438.313 2.313 0 2.086-.782 3.664-2.344 4.734-1.563 1.063-3.774 1.594-6.625 1.594-1.867 0-3.418-.164-4.656-.485-1.243-.32-2.102-.585-2.579-.796l1-4.844c1.008.406 2.047.726 3.11.953a15.82 15.82 0 0 0 3.172.328Zm26.837-6.078c0-1.844-.418-3.316-1.25-4.422-.824-1.101-2.047-1.656-3.672-1.656-.531 0-1.027.023-1.484.062-.45.043-.82.09-1.11.141v10.75c.364.242.848.445 1.453.61a7.259 7.259 0 0 0 1.829.234c2.82 0 4.234-1.907 4.234-5.719Zm6.078-.156c0 1.625-.203 3.105-.61 4.437-.398 1.336-.98 2.48-1.75 3.438a8.025 8.025 0 0 1-2.874 2.25c-1.149.531-2.469.797-3.969.797-.824 0-1.594-.086-2.313-.25a10.85 10.85 0 0 1-2.078-.672v7.922h-5.968v-27.72c.53-.163 1.144-.32 1.843-.468.696-.144 1.422-.27 2.172-.375a43.614 43.614 0 0 1 2.313-.25 25.9 25.9 0 0 1 2.281-.11c1.727 0 3.27.262 4.625.782 1.363.523 2.508 1.258 3.437 2.203.938.938 1.649 2.09 2.141 3.453.5 1.356.75 2.875.75 4.563Zm4.597 10.515v-30.078l5.97-.969v10.094c.394-.133.905-.258 1.53-.375a9.311 9.311 0 0 1 1.829-.187c1.707 0 3.125.234 4.25.703 1.132.46 2.039 1.117 2.718 1.969.688.855 1.164 1.87 1.438 3.046.281 1.168.422 2.477.422 3.922v11.875h-5.953v-11.156c0-1.926-.25-3.285-.75-4.078-.493-.8-1.403-1.203-2.735-1.203-.531 0-1.031.047-1.5.14-.469.094-.887.196-1.25.297v16Zm43.248-10.562c0 1.656-.242 3.172-.719 4.547-.48 1.375-1.18 2.547-2.094 3.515a9.505 9.505 0 0 1-3.265 2.266c-1.262.531-2.68.797-4.25.797-1.543 0-2.95-.266-4.22-.797a9.656 9.656 0 0 1-3.265-2.266c-.906-.968-1.617-2.14-2.125-3.515-.5-1.375-.75-2.89-.75-4.547 0-1.656.258-3.16.781-4.516.52-1.363 1.239-2.523 2.157-3.484a9.81 9.81 0 0 1 3.281-2.235c1.27-.53 2.648-.796 4.14-.796 1.52 0 2.91.265 4.172.796a9.48 9.48 0 0 1 3.266 2.235c.906.96 1.613 2.12 2.125 3.484.508 1.356.766 2.86.766 4.516Zm-6.078 0c0-1.832-.371-3.274-1.11-4.328-.73-1.063-1.777-1.594-3.14-1.594-1.356 0-2.407.531-3.157 1.594-.75 1.054-1.125 2.496-1.125 4.328 0 1.844.375 3.308 1.125 4.39.75 1.075 1.801 1.61 3.157 1.61 1.363 0 2.41-.535 3.14-1.61.739-1.082 1.11-2.546 1.11-4.39Zm23.358-5.203a68.408 68.408 0 0 0-1.891-.407 10.891 10.891 0 0 0-2.313-.234c-.375 0-.824.04-1.343.11-.524.062-.914.136-1.172.218v16.078h-5.969V245.7c1.07-.375 2.332-.726 3.781-1.062 1.457-.332 3.078-.5 4.86-.5.32 0 .707.023 1.156.062.457.043.91.102 1.36.172.456.063.91.141 1.359.235a7.41 7.41 0 0 1 1.172.328Zm22.161 15.047c-1.024.293-2.336.562-3.938.812-1.594.258-3.273.39-5.031.39-1.781 0-3.266-.241-4.453-.718-1.188-.477-2.133-1.148-2.828-2.016-.688-.875-1.184-1.91-1.485-3.109-.293-1.195-.437-2.516-.437-3.953v-11.735h5.969v11c0 1.93.25 3.32.75 4.172.507.856 1.457 1.282 2.843 1.282.426 0 .88-.02 1.36-.063.476-.039.906-.086 1.28-.14v-16.25h5.97Zm11.638-3.563c1.093 0 1.863-.101 2.312-.312.457-.22.688-.633.688-1.25 0-.477-.297-.895-.891-1.25-.586-.364-1.477-.77-2.672-1.22a29.82 29.82 0 0 1-2.547-1.077c-.762-.375-1.406-.82-1.937-1.344a5.38 5.38 0 0 1-1.235-1.86c-.293-.726-.437-1.597-.437-2.609 0-1.969.726-3.523 2.187-4.672 1.47-1.144 3.485-1.718 6.047-1.718 1.281 0 2.504.117 3.672.343 1.176.22 2.113.465 2.813.735l-1.047 4.64a21.726 21.726 0 0 0-2.266-.64c-.812-.188-1.726-.282-2.734-.282-1.867 0-2.797.524-2.797 1.563 0 .242.035.453.11.64.081.188.241.372.484.547.238.168.566.352.984.547.414.2.941.418 1.578.657 1.313.48 2.395.953 3.25 1.421.852.47 1.524.98 2.016 1.532a4.717 4.717 0 0 1 1.031 1.812c.207.668.312 1.438.312 2.313 0 2.086-.78 3.664-2.343 4.734-1.563 1.063-3.774 1.594-6.625 1.594-1.867 0-3.418-.164-4.657-.485-1.242-.32-2.101-.585-2.578-.796l1-4.844c1.008.406 2.047.726 3.11.953a15.82 15.82 0 0 0 3.172.328Zm-143.098 67.628c-.719 0-1.48-.047-2.281-.141a26.337 26.337 0 0 1-2.329-.375 23.58 23.58 0 0 1-2.03-.516 12.157 12.157 0 0 1-1.438-.515l1.156-4.97c.687.294 1.57.606 2.656.938 1.082.336 2.422.5 4.016.5 1.844 0 3.191-.343 4.047-1.03.851-.696 1.281-1.63 1.281-2.798 0-.726-.156-1.336-.469-1.828a3.48 3.48 0 0 0-1.25-1.187c-.531-.313-1.168-.524-1.906-.64a13.9 13.9 0 0 0-2.344-.188h-2.312v-4.797h2.64c.582 0 1.145-.051 1.688-.157a4.833 4.833 0 0 0 1.469-.546 2.87 2.87 0 0 0 1.015-1.047c.258-.438.39-.989.39-1.657 0-.507-.109-.945-.327-1.312a2.85 2.85 0 0 0-.813-.922 3.576 3.576 0 0 0-1.172-.531 4.826 4.826 0 0 0-1.328-.188c-1.148 0-2.21.172-3.187.516a13.17 13.17 0 0 0-2.657 1.281l-2.125-4.36a18.8 18.8 0 0 1 1.5-.843c.57-.289 1.204-.555 1.891-.797a17.344 17.344 0 0 1 2.219-.594c.789-.164 1.629-.25 2.515-.25 1.625 0 3.032.196 4.22.579 1.187.386 2.163.933 2.937 1.64a6.73 6.73 0 0 1 1.718 2.485c.375.949.563 1.98.563 3.093 0 1.094-.309 2.157-.922 3.188a6.097 6.097 0 0 1-2.469 2.328c1.438.594 2.547 1.469 3.328 2.625.79 1.156 1.188 2.555 1.188 4.187 0 1.282-.215 2.465-.64 3.547a7.223 7.223 0 0 1-2 2.797c-.907.781-2.063 1.39-3.47 1.828-1.398.438-3.054.657-4.968.657Zm34.954-14.516c0 4.668-.887 8.25-2.656 10.75-1.774 2.492-4.219 3.734-7.344 3.734-3.117 0-5.562-1.242-7.344-3.734-1.773-2.5-2.656-6.082-2.656-10.75 0-2.32.234-4.375.703-6.156.469-1.79 1.14-3.297 2.016-4.516.883-1.226 1.937-2.16 3.156-2.797 1.227-.644 2.602-.969 4.125-.969 3.125 0 5.57 1.25 7.344 3.75 1.77 2.493 2.656 6.055 2.656 10.688Zm-6.078 0c0-1.383-.07-2.645-.203-3.781-.137-1.133-.352-2.114-.64-2.938-.294-.82-.696-1.457-1.204-1.906-.5-.457-1.125-.688-1.875-.688s-1.371.23-1.86.688c-.492.45-.89 1.086-1.202 1.906-.305.824-.524 1.805-.657 2.938a31.88 31.88 0 0 0-.203 3.78c0 1.388.067 2.653.203 3.798.133 1.148.352 2.137.657 2.969.312.824.71 1.464 1.203 1.921.488.45 1.109.672 1.859.672s1.375-.222 1.875-.672c.508-.457.91-1.097 1.203-1.921.29-.832.504-1.82.64-2.97.134-1.144.204-2.41.204-3.796Zm16.079 10.766c0 1.199-.383 2.109-1.14 2.734-.762.625-1.622.937-2.579.937-.96 0-1.82-.312-2.578-.937-.761-.625-1.14-1.535-1.14-2.734 0-1.196.379-2.11 1.14-2.735.758-.633 1.617-.953 2.578-.953.957 0 1.817.32 2.578.953.758.625 1.141 1.54 1.141 2.735Zm12.762-11.719c.613 0 1.254-.055 1.922-.172.664-.125 1.156-.297 1.469-.516v-.36c0-.1.003-.206.015-.312a1.75 1.75 0 0 0 .031-.28 22.022 22.022 0 0 0-.25-2.704c-.125-.844-.351-1.578-.671-2.203a3.775 3.775 0 0 0-1.313-1.469c-.543-.363-1.21-.547-2-.547-.648 0-1.21.137-1.687.407-.48.261-.868.605-1.157 1.03-.293.43-.511.9-.656 1.407-.148.5-.219.992-.219 1.469 0 1.449.348 2.523 1.047 3.219.707.687 1.863 1.03 3.469 1.03Zm2.922 3.875a7.221 7.221 0 0 1-1.875.594c-.68.117-1.258.171-1.735.171-1.73 0-3.21-.207-4.437-.625-1.23-.414-2.242-1.003-3.031-1.765a6.998 6.998 0 0 1-1.735-2.735c-.367-1.062-.547-2.234-.547-3.515 0-1.07.176-2.164.532-3.281a9.002 9.002 0 0 1 1.703-3.063c.77-.914 1.75-1.676 2.937-2.281 1.188-.602 2.617-.906 4.297-.906 3.445 0 6.04 1.062 7.781 3.187 1.75 2.117 2.625 5.164 2.625 9.14 0 2.618-.343 4.923-1.03 6.923-.68 2-1.731 3.683-3.157 5.046-1.418 1.356-3.234 2.387-5.453 3.094-2.211.711-4.836 1.07-7.875 1.094a90.625 90.625 0 0 0-.125-2.469c-.055-.8-.106-1.629-.156-2.484 1.52-.031 2.89-.145 4.109-.344 1.226-.195 2.305-.531 3.234-1a7.477 7.477 0 0 0 2.39-1.86c.657-.769 1.173-1.741 1.548-2.921Zm13.923 11c.156-1.945.484-3.973.984-6.078a59.072 59.072 0 0 1 1.86-6.188 53.583 53.583 0 0 1 2.468-5.75c.906-1.8 1.828-3.36 2.766-4.672h-12.047v-5.078h19.406v4.328c-.855.93-1.797 2.22-2.828 3.875-1.023 1.657-1.996 3.532-2.922 5.625a53.19 53.19 0 0 0-2.406 6.75 34.54 34.54 0 0 0-1.25 7.188ZM40.297 54.297c.77-.32 1.578-.692 2.422-1.11.844-.414 1.66-.867 2.453-1.36.8-.487 1.566-1.003 2.297-1.546a15.52 15.52 0 0 0 1.984-1.75h4.172V76.25h-5.969V56.297a18.481 18.481 0 0 1-2.687 1.453c-.98.437-1.938.82-2.875 1.14Zm34.327 13.796c0-.77-.18-1.457-.531-2.062-.344-.602-.946-1.102-1.797-1.5-.856-.395-2-.695-3.438-.906-1.437-.22-3.25-.328-5.437-.328.289-2.489.531-5.008.719-7.563.187-2.562.332-4.96.437-7.203h15v5h-10c-.055.96-.117 1.887-.187 2.781a43.89 43.89 0 0 1-.22 2.344c3.895.262 6.77 1.172 8.626 2.734 1.851 1.563 2.781 3.73 2.781 6.5 0 1.282-.23 2.47-.687 3.563a7.61 7.61 0 0 1-2.032 2.844c-.906.793-2.047 1.418-3.422 1.875-1.375.445-2.98.671-4.812.671-.73 0-1.492-.046-2.281-.14a29.875 29.875 0 0 1-2.266-.36c-.73-.144-1.39-.296-1.984-.453-.586-.156-1.04-.316-1.36-.484l1.078-4.922c.665.305 1.547.594 2.641.875 1.094.273 2.399.406 3.922.406 1.844 0 3.176-.363 4-1.093.832-.739 1.25-1.598 1.25-2.579Zm0 0"/>
  <path d="m355.762 10.207.453.043.441.063.442.085.43.094.429.113.414.137.414.14.406.169.395.168.387.195.386.207.364.223.363.234.351.242.344.266.328.27.32.285.31.3.3.309.285.32.27.328.258.344.25.352.234.363.223.363.199.387.195.387.176.398.168.403.14.414.137.421.106.422.101.434.078.437.067.45.047.449.03.453.005.465v334.933l-.004.461-.031.457-.047.45-.067.441-.078.438-.101.433-.106.43-.137.414-.14.414-.168.41-.176.39-.195.387-.2.38-.222.37-.234.364-.25.351-.258.344-.27.328-.285.32-.3.31-.31.3-.32.285-.328.27-.344.257-.351.25-.363.239-.364.214-.386.207-.387.192-.395.18-.406.164-.414.14-.414.13-.43.116-.43.098-.44.078-.442.067-.453.05-.457.028-.457.007H19.91l-.457-.007-.457-.028-.45-.05-.448-.067-.438-.078-.433-.098-.422-.117-.422-.129-.414-.14-.403-.164-.398-.18-.387-.192-.379-.207-.37-.214-.364-.239-.352-.25-.343-.257-.328-.27-.32-.285-.31-.3-.3-.31-.285-.32-.27-.328-.258-.344-.25-.351-.238-.364-.219-.37-.207-.38-.187-.386-.18-.39-.164-.411-.14-.414-.137-.414-.114-.43-.093-.433-.086-.438-.059-.441-.05-.45-.028-.457-.008-.46V21.34l.008-.465.027-.453.051-.45.059-.449.086-.437.093-.434.114-.422.136-.421.141-.414.164-.403.18-.398.187-.387.207-.387.22-.363.237-.363.25-.352.258-.344.27-.328.285-.32.3-.309.31-.3.32-.286.328-.27.343-.265.352-.242.363-.234.371-.223.38-.207.386-.195.398-.168.403-.168.414-.14.422-.138.422-.113.433-.094.438-.085.449-.063.45-.043.456-.031.457-.004h334.938l.457.004ZM28.187 18.914l-.457.031-.453.043-.441.063-.445.086-.426.093-.43.114-.422.136-.406.145-.41.164-.39.172-.395.191-.38.207-.37.223-.356.234-.351.243-.344.265-.328.27-.32.289-.31.297-.3.308-.285.32-.27.333-.265.34-.242.351-.239.355-.218.375-.207.375-.188.395-.18.395-.164.406-.14.406-.137.422-.113.43-.094.43-.086.44-.059.442-.046.453-.032.457-.008.457v317.465l.008.457.032.461.046.45.059.44.086.438.094.434.113.43.137.414.14.414.164.41.18.39.188.387.207.38.218.37.239.363.242.352.265.344.27.328.285.32.3.309.31.3.32.286.328.27.344.257.351.25.356.238.37.211.38.207.394.196.39.18.411.163.406.141.422.129.43.113.426.102.445.078.441.066.453.047.457.031.458.008h317.464l.457-.008.457-.03.454-.048.441-.066.441-.078.43-.102.43-.113.414-.129.414-.14.406-.165.395-.18.386-.195.383-.207.367-.21.364-.239.351-.25.34-.258.332-.27.32-.284.309-.301.297-.309.289-.32.27-.328.257-.344.25-.352.235-.363.222-.37.2-.38.195-.387.176-.39.164-.41.144-.414.137-.414.105-.43.102-.434.078-.437.063-.442.05-.449.032-.46.004-.458V30.07l-.004-.457-.032-.457-.05-.453-.063-.441-.078-.442-.102-.43-.105-.43-.137-.42-.144-.407-.164-.406-.176-.395-.195-.39-.2-.38-.222-.375-.235-.355-.25-.352-.258-.34-.27-.331-.288-.32-.297-.31-.309-.296-.32-.29-.332-.269-.34-.265-.351-.243-.364-.234-.367-.223-.383-.207-.386-.191-.395-.172-.406-.164-.414-.145-.414-.136-.43-.114-.43-.093-.441-.086-.441-.063-.454-.043-.457-.03-.457-.005H28.645Zm0 0"/>
</svg>
