<svg xmlns="http://www.w3.org/2000/svg" version="1.2" viewBox="0 0 375 375">
  <path d="m355.762 10.207.453.043.441.063.442.085.43.094.429.113.414.137.414.145.406.164.395.172.387.191.386.207.364.223.363.234.351.242.344.266.328.27.32.289.31.296.3.309.285.32.27.332.258.34.25.352.234.363.223.367.199.383.195.387.176.402.168.399.14.414.137.421.106.422.101.438.078.433.067.45.047.453.03.449.005.465v334.937l-.004.457-.031.457-.047.45-.067.441-.078.438-.101.437-.106.426-.137.414-.14.414-.168.41-.176.39-.195.387-.2.38-.222.37-.234.368-.25.347-.258.344-.27.328-.285.32-.3.31-.31.3-.32.285-.328.273-.344.254-.351.25-.363.239-.364.214-.386.207-.387.192-.395.18-.406.164-.414.14-.414.13-.43.116-.43.098-.44.078-.442.067-.453.05-.457.028-.457.007H19.91l-.457-.007-.457-.028-.45-.05-.448-.067-.438-.078-.433-.098-.422-.117-.422-.129-.414-.14-.403-.164-.398-.18-.387-.192-.379-.207-.37-.214-.364-.239-.352-.25-.343-.254-.328-.273-.32-.285-.31-.3-.3-.31-.285-.32-.27-.328-.258-.344-.25-.347-.238-.368-.219-.37-.207-.38-.187-.386-.18-.39-.164-.411-.14-.414-.137-.414-.114-.426-.093-.437-.086-.438-.059-.441-.05-.45-.028-.457-.008-.457V21.34l.008-.465.027-.45.051-.452.059-.45.086-.433.093-.438.114-.422.136-.421.141-.414.164-.399.18-.402.187-.387.207-.383.22-.367.237-.363.25-.352.258-.34.27-.332.285-.32.3-.309.31-.296.32-.29.328-.27.343-.265.352-.242.363-.234.371-.223.38-.207.386-.191.398-.172.403-.164.414-.145.422-.137.422-.113.433-.094.438-.085.449-.063.45-.043.456-.031.457-.004h334.938l.457.004ZM28.187 18.918l-.457.027-.453.043-.441.063-.445.086-.426.093-.43.114-.422.136-.406.145-.41.164-.39.172-.395.191-.38.207-.37.223-.356.234-.351.243-.344.265-.328.274-.32.285-.31.3-.3.305-.285.325-.27.328-.265.34-.242.351-.239.36-.218.37-.207.38-.188.39-.18.395-.164.406-.14.406-.137.422-.113.43-.094.43-.086.44-.059.446-.046.45-.032.456-.008.457v317.465l.008.461.032.457.046.45.059.44.086.438.094.434.113.43.137.414.14.414.164.41.18.39.188.387.207.38.218.37.239.363.242.352.265.344.27.328.285.32.3.309.31.3.32.286.328.27.344.257.351.25.356.238.37.215.38.207.394.192.39.18.411.163.406.141.422.129.43.117.426.098.445.078.441.066.453.051.457.027.458.008h317.464l.457-.008.457-.027.454-.05.441-.067.441-.078.43-.098.43-.117.414-.129.414-.14.406-.165.395-.18.386-.19.383-.208.367-.215.364-.238.351-.25.34-.258.332-.27.32-.284.309-.301.297-.309.289-.32.27-.328.257-.344.25-.352.235-.363.222-.37.2-.38.195-.387.176-.39.164-.41.144-.414.137-.414.105-.43.102-.434.078-.437.063-.442.05-.449.032-.457.004-.46V30.07l-.004-.457-.032-.457-.05-.449-.063-.445-.078-.442-.102-.43-.105-.43-.137-.42-.144-.407-.164-.406-.176-.395-.195-.39-.2-.38-.222-.37-.235-.36-.25-.352-.258-.34-.27-.328-.288-.324-.297-.304-.309-.301-.32-.285-.332-.274-.34-.265-.351-.243-.364-.234-.367-.223-.383-.207-.386-.191-.395-.172-.406-.164-.414-.145-.414-.136-.43-.114-.43-.093-.441-.086-.441-.063-.454-.043-.457-.027-.457-.008H28.645Zm0 0"/>
  <path d="M208.072 194.819c-1.96-3.176-4.273-6.602-6.937-10.282a178.552 178.552 0 0 0-8.672-11.062 189.666 189.666 0 0 0-9.734-10.64c-3.356-3.407-6.711-6.411-10.063-9.016v41h-21.828V97.834h21.828v36.672a713.678 713.678 0 0 0 17.14-18.687 2816.293 2816.293 0 0 1 16.032-17.985h25.89a751.518 751.518 0 0 1-19.952 22.672 701.536 701.536 0 0 1-21.063 21.969c7.75 6.437 15.238 14.09 22.469 22.953 7.226 8.867 14.156 18.664 20.781 29.39Zm-107.396 42.757c4.133 0 7.304.73 9.515 2.188 2.22 1.45 3.329 3.828 3.329 7.14 0 3.336-1.122 5.743-3.36 7.22-2.242 1.48-5.437 2.218-9.594 2.218h-1.968v9.281h-6.235v-27.312c1.352-.27 2.79-.457 4.313-.563a54.691 54.691 0 0 1 4-.172Zm.406 5.329a19 19 0 0 0-1.344.046c-.437.024-.82.047-1.14.079v8h1.968c2.157 0 3.782-.29 4.875-.875 1.094-.594 1.641-1.692 1.641-3.297 0-.77-.14-1.407-.422-1.907a3.189 3.189 0 0 0-1.203-1.218c-.523-.313-1.156-.524-1.906-.641a14.9 14.9 0 0 0-2.469-.187Zm36.322 12.155c0 1.657-.242 3.173-.718 4.548-.48 1.375-1.18 2.547-2.094 3.515a9.505 9.505 0 0 1-3.266 2.266c-1.262.531-2.68.797-4.25.797-1.543 0-2.949-.266-4.219-.797a9.656 9.656 0 0 1-3.265-2.266c-.906-.968-1.617-2.14-2.125-3.515-.5-1.375-.75-2.891-.75-4.547 0-1.656.258-3.16.781-4.516.52-1.363 1.238-2.523 2.156-3.484a9.81 9.81 0 0 1 3.282-2.235c1.27-.53 2.648-.796 4.14-.796 1.52 0 2.91.265 4.172.796a9.48 9.48 0 0 1 3.266 2.235c.906.96 1.613 2.12 2.125 3.484.508 1.356.765 2.86.765 4.516Zm-6.078 0c0-1.831-.37-3.273-1.11-4.327-.73-1.063-1.777-1.594-3.14-1.594-1.355 0-2.406.531-3.156 1.594-.75 1.054-1.125 2.496-1.125 4.328 0 1.844.375 3.308 1.125 4.39.75 1.075 1.8 1.61 3.156 1.61 1.363 0 2.41-.535 3.14-1.61.74-1.082 1.11-2.546 1.11-4.39Zm10.468-15.718 5.968-.953v6.187h7.157v4.97h-7.157v7.39c0 1.261.219 2.265.657 3.015.437.743 1.32 1.11 2.656 1.11a11.106 11.106 0 0 0 3.844-.672l.843 4.64a16.18 16.18 0 0 1-2.406.75c-.875.22-1.953.329-3.234.329-1.625 0-2.977-.22-4.047-.657-1.063-.445-1.918-1.062-2.563-1.843-.636-.79-1.086-1.743-1.343-2.86-.25-1.125-.375-2.363-.375-3.718Zm17.759 0 5.97-.953v6.187h7.155v4.97h-7.156v7.39c0 1.261.219 2.265.656 3.015.438.743 1.32 1.11 2.657 1.11a11.106 11.106 0 0 0 3.844-.672l.843 4.64a16.18 16.18 0 0 1-2.406.75c-.875.22-1.953.329-3.235.329-1.625 0-2.976-.22-4.046-.657-1.063-.445-1.918-1.062-2.563-1.843-.637-.79-1.086-1.743-1.344-2.86-.25-1.125-.375-2.363-.375-3.718Zm26.01 22.125c.582 0 1.14-.008 1.672-.031.531-.031.957-.07 1.281-.125v-4.531a12.89 12.89 0 0 0-1.078-.157c-.48-.05-.918-.078-1.312-.078-.563 0-1.094.04-1.594.11a4.001 4.001 0 0 0-1.297.375 2.307 2.307 0 0 0-.89.765c-.211.313-.313.711-.313 1.188 0 .937.312 1.59.937 1.953.633.355 1.5.531 2.594.531Zm-.484-17.437c1.758 0 3.223.199 4.39.593 1.176.399 2.118.969 2.829 1.719.707.75 1.207 1.664 1.5 2.734.289 1.063.437 2.246.437 3.547v12.407c-.855.187-2.043.406-3.562.656-1.512.25-3.352.375-5.516.375-1.355 0-2.59-.121-3.703-.36-1.106-.238-2.059-.629-2.86-1.171a5.485 5.485 0 0 1-1.828-2.141c-.43-.883-.64-1.969-.64-3.25 0-1.219.242-2.254.734-3.11a5.718 5.718 0 0 1 1.969-2.046c.832-.508 1.781-.875 2.844-1.094a16.03 16.03 0 0 1 3.328-.344c.77 0 1.453.04 2.047.11a9.568 9.568 0 0 1 1.468.25v-.563c0-1.008-.308-1.82-.922-2.437-.617-.614-1.68-.922-3.187-.922a20.8 20.8 0 0 0-3.016.218c-.98.149-1.828.356-2.547.625l-.765-4.796a14.07 14.07 0 0 1 1.297-.344c.52-.125 1.086-.235 1.703-.328a32.544 32.544 0 0 1 1.937-.235 22.387 22.387 0 0 1 2.063-.093Zm20.604 17.312c1.094 0 1.863-.102 2.313-.312.457-.22.687-.633.687-1.25 0-.477-.297-.895-.89-1.25-.587-.364-1.477-.77-2.672-1.22-.938-.35-1.79-.71-2.547-1.077-.762-.375-1.407-.82-1.938-1.344a5.38 5.38 0 0 1-1.234-1.86c-.293-.726-.438-1.597-.438-2.609 0-1.969.727-3.523 2.188-4.672 1.469-1.144 3.484-1.718 6.047-1.718 1.28 0 2.504.117 3.672.343 1.175.219 2.113.465 2.812.735l-1.047 4.64a21.726 21.726 0 0 0-2.265-.64c-.813-.188-1.727-.282-2.735-.282-1.867 0-2.797.524-2.797 1.563 0 .242.035.453.11.64.082.188.242.372.484.547.238.168.566.352.984.547.414.2.942.418 1.579.657 1.312.48 2.394.953 3.25 1.421.851.47 1.523.98 2.015 1.532a4.717 4.717 0 0 1 1.031 1.812c.207.668.313 1.438.313 2.313 0 2.086-.781 3.664-2.344 4.734-1.562 1.063-3.773 1.594-6.625 1.594-1.867 0-3.418-.164-4.656-.485-1.242-.32-2.102-.586-2.578-.796l1-4.844c1.008.406 2.047.726 3.11.953a15.82 15.82 0 0 0 3.171.328Zm19.322 4.281h-5.969v-21.047h5.969Zm.547-27.125c0 1.094-.356 1.961-1.063 2.594-.7.625-1.527.938-2.484.938-.969 0-1.809-.313-2.516-.938-.7-.633-1.047-1.5-1.047-2.594 0-1.093.348-1.953 1.047-2.578.707-.625 1.547-.937 2.516-.937.957 0 1.785.312 2.484.937.707.625 1.063 1.485 1.063 2.578Zm23.013 26.407c-1.024.292-2.336.562-3.938.812-1.594.258-3.273.39-5.031.39-1.781 0-3.266-.242-4.453-.718-1.188-.477-2.133-1.149-2.828-2.016-.688-.875-1.184-1.91-1.485-3.11-.293-1.194-.437-2.515-.437-3.952v-11.735h5.969v11c0 1.93.25 3.32.75 4.172.507.856 1.457 1.282 2.843 1.282.426 0 .88-.02 1.36-.063.476-.039.906-.086 1.28-.14v-16.25h5.97Zm17.153-10.438c0-1.926-.25-3.285-.75-4.078-.492-.8-1.336-1.203-2.531-1.203-.375 0-.766.023-1.172.062-.398.043-.777.09-1.14.14v16.235h-5.97v-20.312a37.888 37.888 0 0 1 3.937-.813c.759-.125 1.54-.218 2.345-.281.8-.07 1.586-.11 2.36-.11 1.519 0 2.753.196 3.702.579.946.386 1.727.844 2.344 1.375.852-.614 1.832-1.094 2.938-1.438 1.101-.343 2.125-.515 3.062-.515 1.676 0 3.051.234 4.125.703 1.082.46 1.942 1.117 2.578 1.969.645.855 1.086 1.87 1.328 3.046.239 1.168.36 2.477.36 3.922v11.875h-5.953v-11.156c0-1.926-.25-3.285-.75-4.078-.492-.8-1.336-1.203-2.532-1.203-.324 0-.773.086-1.343.25-.574.156-1.047.355-1.422.594a8.96 8.96 0 0 1 .36 1.937c.05.68.077 1.402.077 2.172v11.484h-5.953Zm-119.453 74.502c-.719 0-1.48-.047-2.281-.14a26.337 26.337 0 0 1-2.329-.376 23.58 23.58 0 0 1-2.03-.515 12.157 12.157 0 0 1-1.438-.516l1.156-4.969c.687.293 1.57.606 2.656.938 1.082.336 2.422.5 4.016.5 1.844 0 3.191-.344 4.047-1.031.851-.696 1.281-1.63 1.281-2.797 0-.727-.156-1.336-.469-1.828a3.48 3.48 0 0 0-1.25-1.188c-.531-.312-1.168-.523-1.906-.64a13.9 13.9 0 0 0-2.344-.188h-2.312v-4.797h2.64c.582 0 1.145-.05 1.688-.156a4.833 4.833 0 0 0 1.469-.547 2.87 2.87 0 0 0 1.015-1.047c.258-.437.39-.988.39-1.656 0-.508-.109-.945-.327-1.313a2.85 2.85 0 0 0-.813-.921 3.576 3.576 0 0 0-1.172-.532 4.826 4.826 0 0 0-1.328-.187c-1.148 0-2.21.172-3.187.515a13.17 13.17 0 0 0-2.657 1.282l-2.125-4.36a18.8 18.8 0 0 1 1.5-.843c.57-.29 1.204-.555 1.891-.797a17.344 17.344 0 0 1 2.219-.594c.789-.164 1.629-.25 2.515-.25 1.625 0 3.032.195 4.22.578 1.187.387 2.163.934 2.937 1.64a6.73 6.73 0 0 1 1.718 2.485c.375.95.563 1.98.563 3.094 0 1.094-.309 2.156-.922 3.187a6.097 6.097 0 0 1-2.469 2.328c1.438.594 2.547 1.47 3.328 2.625.79 1.157 1.188 2.555 1.188 4.188 0 1.281-.215 2.465-.64 3.547a7.223 7.223 0 0 1-2 2.797c-.907.78-2.063 1.39-3.47 1.828-1.398.437-3.054.656-4.968.656Zm25.157-15.469c.613 0 1.254-.054 1.922-.172.664-.125 1.156-.296 1.469-.515v-.36c0-.101.004-.207.015-.312a1.75 1.75 0 0 0 .032-.281 22.022 22.022 0 0 0-.25-2.703c-.125-.844-.352-1.579-.672-2.204a3.775 3.775 0 0 0-1.313-1.468c-.543-.364-1.21-.547-2-.547-.648 0-1.21.137-1.687.406a3.26 3.26 0 0 0-1.156 1.031c-.293.43-.512.899-.657 1.407-.148.5-.218.992-.218 1.468 0 1.45.347 2.524 1.046 3.219.707.688 1.864 1.031 3.47 1.031Zm2.922 3.875a7.221 7.221 0 0 1-1.875.594 10.44 10.44 0 0 1-1.734.172c-1.73 0-3.211-.207-4.438-.625-1.23-.414-2.242-1.004-3.031-1.766a6.998 6.998 0 0 1-1.734-2.734c-.368-1.063-.547-2.234-.547-3.516 0-1.07.175-2.164.53-3.281a9.002 9.002 0 0 1 1.704-3.062c.77-.915 1.75-1.676 2.938-2.282 1.187-.601 2.617-.906 4.296-.906 3.446 0 6.04 1.063 7.782 3.188 1.75 2.117 2.625 5.164 2.625 9.14 0 2.617-.344 4.922-1.032 6.922-.68 2-1.73 3.684-3.156 5.047-1.418 1.355-3.234 2.387-5.453 3.094-2.21.71-4.836 1.07-7.875 1.093a90.625 90.625 0 0 0-.125-2.468c-.055-.801-.105-1.63-.156-2.485 1.52-.031 2.89-.144 4.11-.343 1.226-.196 2.304-.532 3.234-1a7.477 7.477 0 0 0 2.39-1.86c.656-.77 1.172-1.742 1.547-2.922Zm16.876 7.844c0 1.2-.383 2.11-1.14 2.734-.762.625-1.622.938-2.579.938-.96 0-1.82-.313-2.578-.938-.761-.625-1.14-1.535-1.14-2.734 0-1.195.379-2.11 1.14-2.734.758-.633 1.617-.953 2.578-.953.957 0 1.817.32 2.578.953.758.625 1.141 1.539 1.141 2.734Zm22.559-10.766c0 4.668-.887 8.25-2.656 10.75-1.774 2.493-4.22 3.735-7.344 3.735-3.117 0-5.563-1.242-7.344-3.735-1.773-2.5-2.656-6.082-2.656-10.75 0-2.32.234-4.375.703-6.156.469-1.789 1.14-3.297 2.016-4.515.882-1.227 1.937-2.16 3.156-2.797 1.226-.645 2.601-.97 4.125-.97 3.125 0 5.57 1.25 7.344 3.75 1.77 2.493 2.656 6.056 2.656 10.688Zm-6.078 0c0-1.382-.07-2.644-.203-3.78-.137-1.134-.352-2.114-.641-2.938-.293-.82-.695-1.457-1.203-1.907-.5-.457-1.125-.687-1.875-.687s-1.371.23-1.86.687c-.492.45-.89 1.086-1.203 1.907-.304.824-.523 1.804-.656 2.937a31.88 31.88 0 0 0-.203 3.781c0 1.387.066 2.653.203 3.797.133 1.149.352 2.137.656 2.969.313.824.711 1.465 1.203 1.922.489.45 1.11.672 1.86.672s1.375-.223 1.875-.672c.508-.457.91-1.098 1.203-1.922.289-.832.504-1.82.64-2.969.133-1.144.204-2.41.204-3.797Zm10.235-8.031c.77-.32 1.578-.691 2.422-1.11a27.7 27.7 0 0 0 2.453-1.359 30.18 30.18 0 0 0 2.297-1.546 15.52 15.52 0 0 0 1.984-1.75h4.172v27.718h-5.969v-19.953a18.291 18.291 0 0 1-2.687 1.453c-.98.438-1.938.82-2.875 1.14ZM40.297 54.297c.77-.32 1.578-.69 2.422-1.109.844-.414 1.66-.867 2.453-1.36a30.38 30.38 0 0 0 2.297-1.546 15.52 15.52 0 0 0 1.984-1.75h4.172V76.25h-5.969V56.297a18.293 18.293 0 0 1-2.687 1.454c-.98.437-1.938.82-2.875 1.14Zm31.483 7.079c.614 0 1.254-.055 1.922-.172.664-.125 1.156-.297 1.469-.516v-.36c0-.1.004-.206.015-.312a1.75 1.75 0 0 0 .032-.281 22.022 22.022 0 0 0-.25-2.703c-.125-.844-.352-1.578-.672-2.203a3.775 3.775 0 0 0-1.313-1.469c-.543-.363-1.21-.547-2-.547-.648 0-1.21.137-1.687.406-.48.262-.867.606-1.156 1.032-.293.43-.512.898-.657 1.406-.148.5-.218.992-.218 1.469 0 1.449.347 2.523 1.046 3.218.708.688 1.864 1.032 3.47 1.032Zm2.922 3.875a7.221 7.221 0 0 1-1.875.593c-.68.118-1.258.172-1.734.172-1.73 0-3.211-.207-4.438-.625-1.23-.414-2.242-1.004-3.031-1.765a6.998 6.998 0 0 1-1.734-2.735c-.368-1.062-.547-2.234-.547-3.515 0-1.07.176-2.164.531-3.282a9.002 9.002 0 0 1 1.703-3.062c.77-.914 1.75-1.676 2.938-2.281 1.187-.602 2.617-.907 4.296-.907 3.446 0 6.04 1.063 7.782 3.188 1.75 2.117 2.625 5.164 2.625 9.14 0 2.618-.344 4.922-1.032 6.922-.68 2-1.73 3.684-3.156 5.047-1.418 1.356-3.234 2.387-5.453 3.094-2.21.71-4.836 1.07-7.875 1.094a90.625 90.625 0 0 0-.125-2.469c-.055-.8-.105-1.629-.156-2.484 1.52-.032 2.89-.145 4.11-.344 1.226-.195 2.304-.531 3.234-1a7.477 7.477 0 0 0 2.39-1.86c.656-.769 1.172-1.742 1.547-2.921Zm0 0"/>
</svg>
