<svg xmlns="http://www.w3.org/2000/svg" version="1.2" viewBox="0 0 375 375">
  <path d="m355.762 10.207.453.043.441.063.442.085.43.094.429.113.414.137.414.14.406.165.395.172.387.195.386.207.364.223.363.234.351.242.344.266.328.27.32.285.31.3.3.309.285.32.27.328.258.344.25.352.234.363.223.363.199.387.195.387.176.398.168.403.14.414.137.421.106.422.101.434.078.437.067.45.047.449.03.453.005.465v334.933l-.004.461-.031.457-.047.45-.067.441-.078.438-.101.433-.106.43-.137.414-.14.414-.168.41-.176.39-.195.387-.2.38-.222.37-.234.364-.25.351-.258.344-.27.328-.285.32-.3.31-.31.3-.32.285-.328.27-.344.257-.351.25-.363.239-.364.214-.386.207-.387.192-.395.18-.406.164-.414.14-.414.13-.43.116-.43.098-.44.078-.442.067-.453.05-.457.028-.457.007H19.91l-.457-.007-.457-.028-.45-.05-.448-.067-.438-.078-.433-.098-.422-.117-.422-.129-.414-.14-.403-.164-.398-.18-.387-.192-.379-.207-.37-.214-.364-.239-.352-.25-.343-.257-.328-.27-.32-.285-.31-.3-.3-.31-.285-.32-.27-.328-.258-.344-.25-.351-.238-.364-.219-.37-.207-.38-.187-.386-.18-.39-.164-.411-.14-.414-.137-.414-.114-.43-.093-.433-.086-.438-.059-.441-.05-.45-.028-.457-.008-.46V21.34l.008-.465.027-.453.051-.45.059-.449.086-.437.093-.434.114-.422.136-.421.141-.414.164-.403.18-.398.187-.387.207-.387.22-.363.237-.363.25-.352.258-.344.27-.328.285-.32.3-.309.31-.3.32-.286.328-.27.343-.265.352-.242.363-.234.371-.223.38-.207.386-.195.398-.172.403-.164.414-.14.422-.138.422-.113.433-.094.438-.085.449-.063.45-.043.456-.031.457-.004h334.938l.457.004ZM28.187 18.914l-.457.031-.453.043-.441.063-.445.086-.426.093-.43.114-.422.136-.406.145-.41.164-.39.172-.395.191-.38.207-.37.223-.356.234-.351.243-.344.265-.328.27-.32.289-.31.297-.3.308-.285.32-.27.333-.265.34-.242.351-.239.355-.218.375-.207.375-.188.395-.18.395-.164.406-.14.406-.137.422-.113.43-.094.43-.086.44-.059.442-.046.453-.032.457-.008.457v317.465l.008.457.032.457.046.453.059.442.086.437.094.434.113.43.137.414.14.414.164.406.18.394.188.387.207.38.218.37.239.363.242.352.265.344.27.328.285.32.3.309.31.3.32.286.328.27.344.257.351.25.356.238.37.211.38.207.394.196.39.18.411.163.406.141.422.129.43.113.426.102.445.078.441.066.453.047.457.031.458.008h317.464l.457-.008.457-.03.454-.048.441-.066.441-.078.43-.102.43-.113.414-.129.414-.14.406-.165.395-.18.386-.195.383-.207.367-.21.364-.239.351-.25.34-.258.332-.27.32-.284.309-.301.297-.309.289-.32.27-.328.257-.344.25-.352.235-.363.222-.37.2-.38.195-.387.176-.394.164-.406.144-.414.137-.414.105-.43.102-.434.078-.437.063-.442.05-.453.032-.457.004-.457V30.07l-.004-.457-.032-.457-.05-.453-.063-.441-.078-.442-.102-.43-.105-.43-.137-.42-.144-.407-.164-.406-.176-.395-.195-.395-.2-.375-.222-.375-.235-.355-.25-.352-.258-.34-.27-.331-.288-.32-.297-.31-.309-.296-.32-.29-.332-.269-.34-.265-.351-.243-.364-.234-.367-.223-.383-.207-.386-.191-.395-.172-.406-.164-.414-.145-.414-.136-.43-.114-.43-.093-.441-.086-.441-.063-.454-.043-.457-.03-.457-.005H28.645Zm0 0"/>
  <path d="M149.424 178.162c3.082 0 5.625-.254 7.625-.766 2.007-.508 3.617-1.207 4.828-2.094 1.219-.894 2.062-1.945 2.531-3.156.469-1.207.703-2.562.703-4.062 0-3.164-1.496-5.797-4.484-7.891-2.992-2.102-8.121-4.367-15.39-6.797a120.914 120.914 0 0 1-9.532-3.844c-3.168-1.445-6.012-3.265-8.531-5.453-2.524-2.195-4.575-4.86-6.157-7.984-1.586-3.133-2.375-6.938-2.375-11.406 0-4.477.836-8.516 2.516-12.11a25.774 25.774 0 0 1 7.14-9.172c3.083-2.52 6.813-4.457 11.188-5.812 4.383-1.352 9.332-2.031 14.844-2.031 6.531 0 12.176.703 16.937 2.109 4.758 1.398 8.676 2.934 11.75 4.61l-6.296 17.218c-2.711-1.394-5.72-2.629-9.032-3.703-3.312-1.07-7.304-1.61-11.968-1.61-5.22 0-8.977.727-11.266 2.172-2.281 1.438-3.422 3.653-3.422 6.641 0 1.774.414 3.266 1.25 4.484.844 1.211 2.035 2.305 3.578 3.282 1.54.98 3.313 1.867 5.313 2.656 2.007.793 4.226 1.61 6.656 2.453 5.039 1.867 9.426 3.711 13.156 5.531 3.727 1.825 6.828 3.95 9.297 6.375a22.879 22.879 0 0 1 5.531 8.532c1.219 3.261 1.828 7.226 1.828 11.89 0 9.055-3.171 16.074-9.515 21.063-6.344 4.992-15.914 7.484-28.703 7.484-4.293 0-8.164-.258-11.61-.766-3.449-.511-6.508-1.136-9.172-1.875-2.656-.75-4.945-1.546-6.859-2.39-1.906-.844-3.516-1.633-4.828-2.375l6.172-17.36c2.883 1.586 6.445 3.008 10.687 4.266 4.25 1.262 9.453 1.89 15.61 1.89Zm50.111-20.157c0-5.312.859-10.32 2.578-15.03 1.726-4.72 4.222-8.829 7.484-12.329 3.27-3.5 7.238-6.273 11.906-8.328 4.664-2.05 9.985-3.078 15.953-3.078 3.926 0 7.52.355 10.782 1.062 3.27.7 6.441 1.7 9.515 3l-4.328 16.657c-1.969-.75-4.12-1.399-6.453-1.954-2.324-.562-4.934-.843-7.828-.843-6.156 0-10.75 1.914-13.781 5.734-3.032 3.824-4.547 8.86-4.547 15.11 0 6.624 1.422 11.761 4.265 15.406 2.844 3.636 7.813 5.453 14.907 5.453 2.508 0 5.21-.235 8.11-.703 2.894-.469 5.554-1.211 7.983-2.235l2.938 17.078c-2.43 1.024-5.465 1.899-9.11 2.641-3.636.75-7.648 1.125-12.03 1.125-6.72 0-12.508-1-17.36-3-4.844-2.008-8.828-4.738-11.953-8.187-3.125-3.457-5.414-7.54-6.86-12.25-1.449-4.707-2.171-9.817-2.171-15.329Zm-92.629 102.852c.875 0 1.598-.07 2.172-.22.57-.144 1.031-.343 1.375-.593.352-.25.594-.547.719-.89.133-.352.203-.743.203-1.172 0-.907-.43-1.657-1.281-2.25-.844-.602-2.309-1.254-4.39-1.953a29.271 29.271 0 0 1-2.72-1.094 10.325 10.325 0 0 1-2.453-1.563 7.479 7.479 0 0 1-1.765-2.281c-.45-.895-.672-1.984-.672-3.266 0-1.27.238-2.421.718-3.453a7.523 7.523 0 0 1 2.047-2.625c.883-.718 1.953-1.27 3.203-1.656 1.25-.383 2.66-.578 4.235-.578 1.863 0 3.476.203 4.844.61 1.363.398 2.484.835 3.359 1.312l-1.797 4.922a16.274 16.274 0 0 0-2.578-1.063c-.95-.312-2.09-.469-3.422-.469-1.5 0-2.578.211-3.234.625-.649.418-.969 1.055-.969 1.907 0 .5.117.93.36 1.28.238.345.577.657 1.015.938.445.282.957.54 1.531.766.57.219 1.203.45 1.89.688a40.83 40.83 0 0 1 3.75 1.578c1.071.523 1.962 1.132 2.673 1.828a6.459 6.459 0 0 1 1.578 2.437c.351.938.531 2.074.531 3.407 0 2.585-.914 4.59-2.734 6.015-1.813 1.43-4.543 2.14-8.188 2.14-1.23 0-2.34-.073-3.328-.218a22.941 22.941 0 0 1-2.625-.531 16.14 16.14 0 0 1-1.953-.688c-.543-.238-1-.468-1.375-.687l1.75-4.953c.832.449 1.852.855 3.062 1.218 1.22.356 2.708.532 4.47.532Zm14.311-5.75c0-1.52.243-2.953.735-4.297.5-1.352 1.21-2.531 2.14-3.531.938-1 2.07-1.79 3.407-2.375 1.332-.583 2.851-.875 4.562-.875 1.113 0 2.14.101 3.078.296.938.2 1.844.485 2.719.86l-1.234 4.75c-.563-.207-1.18-.39-1.844-.547a9.377 9.377 0 0 0-2.235-.25c-1.761 0-3.078.547-3.953 1.64-.867 1.094-1.297 2.54-1.297 4.329 0 1.886.407 3.351 1.22 4.39.812 1.043 2.234 1.563 4.265 1.563.719 0 1.488-.063 2.312-.188a9.187 9.187 0 0 0 2.282-.656l.843 4.89c-.687.294-1.554.54-2.593.75-1.043.22-2.188.329-3.438.329-1.93 0-3.586-.29-4.969-.86-1.386-.57-2.527-1.351-3.422-2.343-.886-.989-1.539-2.157-1.953-3.5-.418-1.344-.625-2.801-.625-4.375Zm29.047 6.359c.582 0 1.14-.008 1.672-.031.531-.031.957-.07 1.281-.125v-4.531a12.89 12.89 0 0 0-1.078-.157c-.48-.05-.918-.078-1.312-.078-.563 0-1.094.04-1.594.11a4.001 4.001 0 0 0-1.297.375 2.307 2.307 0 0 0-.89.765c-.212.313-.313.711-.313 1.188 0 .937.312 1.59.937 1.953.633.355 1.5.531 2.594.531Zm-.484-17.437c1.757 0 3.222.199 4.39.593 1.176.399 2.117.969 2.828 1.719.707.75 1.207 1.664 1.5 2.734.29 1.063.438 2.246.438 3.547v12.407a73.67 73.67 0 0 1-3.563.656c-1.511.25-3.351.375-5.515.375-1.356 0-2.59-.121-3.703-.36-1.106-.238-2.059-.629-2.86-1.171a5.485 5.485 0 0 1-1.828-2.141c-.43-.883-.64-1.969-.64-3.25 0-1.219.242-2.254.734-3.11a5.718 5.718 0 0 1 1.969-2.046c.832-.508 1.78-.875 2.843-1.094a16.03 16.03 0 0 1 3.329-.344c.77 0 1.453.04 2.046.11a9.568 9.568 0 0 1 1.47.25v-.563c0-1.008-.31-1.82-.923-2.437-.617-.614-1.68-.922-3.187-.922a20.8 20.8 0 0 0-3.016.218c-.98.149-1.828.356-2.547.625l-.765-4.796a14.07 14.07 0 0 1 1.297-.344c.52-.125 1.085-.235 1.703-.328a32.544 32.544 0 0 1 1.937-.235 22.387 22.387 0 0 1 2.063-.093Zm14.557 1.281c1.008-.301 2.316-.578 3.922-.828a32.722 32.722 0 0 1 5.047-.375c1.781 0 3.265.234 4.453.703 1.187.46 2.125 1.117 2.812 1.969.696.855 1.192 1.87 1.485 3.046.289 1.168.437 2.477.437 3.922v11.875h-5.953v-11.156c0-1.926-.258-3.285-.766-4.078-.5-.8-1.445-1.203-2.828-1.203-.43 0-.886.023-1.375.062-.48.043-.902.09-1.265.14v16.235h-5.969Zm28.638 9.625c0 1.844.41 3.328 1.234 4.453.832 1.117 2.063 1.672 3.688 1.672.531 0 1.02-.02 1.469-.063.457-.039.835-.086 1.14-.14v-10.828c-.375-.239-.867-.438-1.469-.594a6.786 6.786 0 0 0-1.812-.25c-2.836 0-4.25 1.918-4.25 5.75Zm13.484 10c-.531.168-1.148.324-1.843.469-.688.148-1.415.269-2.172.375a43.77 43.77 0 0 1-2.328.25c-.782.07-1.532.109-2.25.109-1.743 0-3.293-.25-4.657-.75-1.355-.508-2.5-1.238-3.437-2.188-.93-.945-1.64-2.093-2.14-3.437-.493-1.344-.735-2.86-.735-4.547 0-1.695.21-3.234.64-4.61.426-1.374 1.04-2.538 1.844-3.5a7.998 7.998 0 0 1 2.938-2.202c1.156-.508 2.484-.766 3.984-.766.82 0 1.563.086 2.219.25.656.156 1.316.383 1.984.672v-9.516l5.953-.969Zm11.566.687h-5.968v-21.047h5.968Zm.547-27.125c0 1.094-.355 1.961-1.062 2.594-.7.625-1.528.938-2.485.938-.968 0-1.808-.313-2.515-.938-.7-.633-1.047-1.5-1.047-2.594 0-1.093.347-1.953 1.047-2.578.707-.625 1.547-.937 2.515-.937.957 0 1.785.312 2.485.937.707.625 1.062 1.485 1.062 2.578Zm23.013 26.407c-1.023.292-2.336.562-3.937.812-1.594.258-3.274.39-5.032.39-1.78 0-3.265-.242-4.453-.718-1.187-.477-2.132-1.149-2.828-2.016-.687-.875-1.183-1.91-1.484-3.11-.293-1.194-.438-2.515-.438-3.952v-11.735h5.97v11c0 1.93.25 3.32.75 4.172.507.856 1.456 1.282 2.843 1.282.426 0 .879-.02 1.36-.063.476-.04.905-.086 1.28-.14v-16.25h5.97Zm17.154-10.438c0-1.926-.25-3.285-.75-4.078-.492-.8-1.336-1.203-2.531-1.203-.375 0-.766.023-1.172.062-.399.043-.778.09-1.14.14v16.235h-5.97V245.31a37.888 37.888 0 0 1 3.938-.813 27.673 27.673 0 0 1 2.344-.281c.8-.07 1.585-.11 2.359-.11 1.52 0 2.754.196 3.703.579.945.386 1.727.844 2.344 1.375.851-.614 1.832-1.094 2.937-1.438 1.102-.343 2.125-.515 3.063-.515 1.676 0 3.05.234 4.125.703 1.082.46 1.941 1.117 2.578 1.969.644.855 1.086 1.87 1.328 3.046.238 1.168.36 2.477.36 3.922v11.875H270.3v-11.156c0-1.926-.25-3.285-.75-4.078-.492-.8-1.336-1.203-2.53-1.203-.325 0-.774.086-1.345.25-.574.156-1.047.355-1.422.594a8.9 8.9 0 0 1 .36 1.937c.05.68.078 1.402.078 2.172v11.484h-5.953Zm-108.834 53.471a247.352 247.352 0 0 0-3.328 4.438 31.341 31.341 0 0 0-2.953 4.922h6.281Zm5.829-7.28v16.64h2.968v4.875h-2.968v6.203h-5.829v-6.203h-11.968v-4.36a74.056 74.056 0 0 1 2.203-3.968 69.398 69.398 0 0 1 2.937-4.563 80.118 80.118 0 0 1 3.422-4.578 48.177 48.177 0 0 1 3.594-4.047Zm16.891 7.28a247.352 247.352 0 0 0-3.328 4.438 31.341 31.341 0 0 0-2.953 4.922h6.281Zm5.828-7.28v16.64h2.97v4.875h-2.97v6.203h-5.828v-6.203h-11.968v-4.36a74.056 74.056 0 0 1 2.203-3.968 69.398 69.398 0 0 1 2.937-4.563 80.118 80.118 0 0 1 3.422-4.578 48.177 48.177 0 0 1 3.594-4.047Zm12.767 24.562c0 1.199-.383 2.11-1.14 2.734-.762.625-1.622.938-2.579.938-.96 0-1.82-.313-2.578-.938-.761-.625-1.14-1.535-1.14-2.734 0-1.196.379-2.11 1.14-2.735.758-.632 1.617-.953 2.578-.953.957 0 1.817.32 2.578.953.758.625 1.141 1.54 1.141 2.735Zm12.762-11.719c.613 0 1.254-.055 1.922-.172.664-.125 1.156-.297 1.469-.516v-.359c0-.101.003-.207.015-.312a1.75 1.75 0 0 0 .031-.282 22.022 22.022 0 0 0-.25-2.703c-.125-.844-.351-1.578-.671-2.203a3.775 3.775 0 0 0-1.313-1.469c-.543-.363-1.21-.547-2-.547-.648 0-1.21.137-1.687.407-.48.261-.868.605-1.157 1.031-.293.43-.511.898-.656 1.406-.148.5-.219.992-.219 1.469 0 1.45.348 2.523 1.047 3.219.707.687 1.863 1.031 3.469 1.031Zm2.922 3.875a7.221 7.221 0 0 1-1.875.594 10.44 10.44 0 0 1-1.735.172c-1.73 0-3.21-.207-4.437-.625-1.23-.414-2.242-1.004-3.031-1.766a6.998 6.998 0 0 1-1.735-2.734c-.367-1.063-.547-2.235-.547-3.516 0-1.07.176-2.164.532-3.281a9.002 9.002 0 0 1 1.703-3.063c.77-.914 1.75-1.676 2.937-2.281 1.188-.602 2.617-.906 4.297-.906 3.445 0 6.04 1.062 7.781 3.187 1.75 2.117 2.625 5.164 2.625 9.14 0 2.618-.343 4.923-1.03 6.923-.68 2-1.731 3.683-3.157 5.047-1.418 1.355-3.234 2.386-5.453 3.093-2.211.711-4.836 1.07-7.875 1.094a90.625 90.625 0 0 0-.125-2.469c-.055-.8-.106-1.629-.156-2.484 1.52-.031 2.89-.145 4.109-.344 1.226-.195 2.305-.531 3.234-1a7.477 7.477 0 0 0 2.39-1.86c.657-.769 1.173-1.741 1.548-2.921Zm19.188-2.047c-.586 0-1.21.059-1.875.172-.668.105-1.187.25-1.562.437 0 .106-.008.266-.016.485-.011.21-.015.39-.015.547 0 .968.062 1.883.187 2.734.133.844.363 1.59.688 2.234.32.637.75 1.137 1.28 1.5.532.356 1.196.532 2 .532.665 0 1.235-.133 1.704-.407a3.772 3.772 0 0 0 1.156-1.062c.301-.426.524-.898.672-1.422.156-.52.234-1.02.234-1.5 0-1.363-.343-2.41-1.03-3.14-.68-.739-1.821-1.11-3.423-1.11Zm.766-4.64c1.727 0 3.195.234 4.406.703 1.219.468 2.211 1.105 2.985 1.906a7.1 7.1 0 0 1 1.687 2.797c.344 1.062.516 2.199.516 3.406 0 1.062-.196 2.156-.578 3.281a9.123 9.123 0 0 1-1.766 3.031c-.781.907-1.781 1.657-3 2.25-1.211.583-2.637.875-4.281.875-3.336 0-5.871-1.05-7.61-3.156-1.73-2.113-2.593-5.02-2.593-8.719 0-2.664.41-5.023 1.234-7.078.82-2.062 2-3.789 3.531-5.187 1.54-1.406 3.395-2.473 5.563-3.203 2.176-.727 4.625-1.11 7.343-1.14.051.823.102 1.632.157 2.421.062.793.117 1.61.172 2.453a23.24 23.24 0 0 0-3.829.39 13.06 13.06 0 0 0-3.25 1.063 8.92 8.92 0 0 0-2.53 1.86c-.72.761-1.278 1.687-1.673 2.78a7.104 7.104 0 0 1 1.797-.562 9.516 9.516 0 0 1 1.719-.172ZM57.344 55.812a7.27 7.27 0 0 1-.61 2.922c-.398.93-.918 1.828-1.562 2.703-.637.868-1.356 1.7-2.156 2.5a122.18 122.18 0 0 1-2.36 2.266c-.398.375-.828.797-1.297 1.266a34.866 34.866 0 0 0-2.484 2.765c-.336.407-.54.746-.61 1.016h11.923v5H39.703a6.209 6.209 0 0 1-.078-1.11v-.968c0-1.281.203-2.453.61-3.516.413-1.07.956-2.066 1.624-2.984a19.415 19.415 0 0 1 2.25-2.578c.844-.801 1.68-1.602 2.516-2.407.633-.613 1.234-1.19 1.797-1.734a20.189 20.189 0 0 0 1.484-1.61 7.557 7.557 0 0 0 1-1.546c.239-.52.36-1.05.36-1.594 0-1.164-.336-1.988-1-2.469-.668-.476-1.496-.718-2.485-.718a6.01 6.01 0 0 0-2.031.343c-.625.22-1.2.485-1.719.797-.511.305-.953.61-1.328.922-.375.305-.656.547-.844.734l-2.953-4.156c1.164-1.094 2.532-1.992 4.094-2.703a12.025 12.025 0 0 1 5.016-1.062c1.625 0 3.023.187 4.203.562 1.176.375 2.144.902 2.906 1.578a6.077 6.077 0 0 1 1.672 2.485c.363.968.547 2.07.547 3.296Zm5.671-1.515c.77-.32 1.578-.692 2.421-1.11.844-.414 1.66-.867 2.454-1.359a30.17 30.17 0 0 0 2.296-1.547 15.52 15.52 0 0 0 1.985-1.75h4.172V76.25h-5.969V56.297a18.45 18.45 0 0 1-2.688 1.453c-.98.437-1.937.82-2.875 1.14Zm0 0"/>
</svg>
