<svg xmlns="http://www.w3.org/2000/svg" version="1.2" viewBox="0 0 375 375">
  <path d="M177.006 194.818a694.42 694.42 0 0 1-11.344-25.328 974.819 974.819 0 0 1-10.64-26.031 1072.447 1072.447 0 0 1-9.297-24.625c-2.844-7.844-5.293-14.844-7.344-21h24.063a5292.66 5292.66 0 0 0 6.078 18.125 1471.36 1471.36 0 0 0 6.718 19.375c2.29 6.437 4.508 12.601 6.657 18.484 2.144 5.875 4.148 10.96 6.015 15.25 1.782-4.29 3.766-9.375 5.953-15.25a1185.428 1185.428 0 0 0 6.72-18.484 1364.972 1364.972 0 0 0 6.702-19.375 6838.02 6838.02 0 0 0 6.11-18.125h23.218a3123.433 3123.433 0 0 1-7.421 21 847.033 847.033 0 0 1-9.235 24.625 925.334 925.334 0 0 1-10.64 26.03 729.858 729.858 0 0 1-11.329 25.329Zm-73.288 70.804a220.635 220.635 0 0 1-3.25-7.234 284.578 284.578 0 0 1-3.031-7.438 299.326 299.326 0 0 1-2.657-7.047 221.34 221.34 0 0 1-2.093-6h6.875c.531 1.606 1.11 3.336 1.734 5.188a387.196 387.196 0 0 0 1.922 5.531 507.61 507.61 0 0 0 1.906 5.281 81.021 81.021 0 0 0 1.719 4.36 154.1 154.1 0 0 0 1.687-4.36 246.13 246.13 0 0 0 1.922-5.28 387.196 387.196 0 0 0 1.922-5.532 567.889 567.889 0 0 0 1.75-5.188h6.64a963.797 963.797 0 0 1-2.124 6 280.45 280.45 0 0 1-2.64 7.047 272.57 272.57 0 0 1-3.048 7.438 203.82 203.82 0 0 1-3.234 7.234Zm28.286-4.156c.582 0 1.14-.008 1.672-.031.531-.032.957-.07 1.281-.125v-4.532c-.242-.05-.601-.101-1.078-.156-.48-.05-.918-.078-1.313-.078-.562 0-1.093.04-1.593.11a4.001 4.001 0 0 0-1.297.374 2.307 2.307 0 0 0-.89.766c-.212.313-.313.711-.313 1.188 0 .937.312 1.59.937 1.953.633.355 1.5.531 2.594.531Zm-.484-17.438c1.757 0 3.222.2 4.39.594 1.176.399 2.117.969 2.828 1.719.707.75 1.207 1.664 1.5 2.734.29 1.063.438 2.246.438 3.547v12.406c-.856.188-2.043.407-3.563.657-1.511.25-3.351.375-5.515.375-1.356 0-2.59-.121-3.703-.36-1.106-.238-2.059-.629-2.86-1.172a5.485 5.485 0 0 1-1.828-2.14c-.43-.883-.64-1.969-.64-3.25 0-1.219.242-2.254.734-3.11a5.718 5.718 0 0 1 1.969-2.046c.832-.508 1.78-.875 2.843-1.094a16.03 16.03 0 0 1 3.328-.344c.77 0 1.454.04 2.047.11a9.568 9.568 0 0 1 1.47.25v-.563c0-1.008-.31-1.82-.923-2.438-.617-.613-1.68-.921-3.187-.921a20.8 20.8 0 0 0-3.016.218c-.98.149-1.828.356-2.547.625l-.765-4.797a14.07 14.07 0 0 1 1.296-.343c.52-.125 1.086-.235 1.704-.328a32.544 32.544 0 0 1 1.937-.235 22.387 22.387 0 0 1 2.063-.094Zm14.557 1.282c1.008-.301 2.316-.578 3.922-.828a32.722 32.722 0 0 1 5.047-.375c1.78 0 3.265.234 4.453.703 1.187.46 2.125 1.117 2.812 1.968.696.856 1.192 1.872 1.485 3.047.289 1.168.437 2.477.437 3.922v11.875h-5.953v-11.156c0-1.926-.258-3.285-.766-4.078-.5-.8-1.445-1.203-2.828-1.203-.43 0-.886.023-1.375.062-.48.043-.902.09-1.265.14v16.235h-5.97Zm31.607 16.156c.582 0 1.14-.008 1.671-.031.532-.032.958-.07 1.282-.125v-4.532c-.242-.05-.602-.101-1.078-.156-.48-.05-.918-.078-1.313-.078-.562 0-1.094.04-1.594.11a4.001 4.001 0 0 0-1.297.374 2.307 2.307 0 0 0-.89.766c-.211.313-.313.711-.313 1.188 0 .937.313 1.59.938 1.953.633.355 1.5.531 2.594.531Zm-.485-17.438c1.758 0 3.223.2 4.39.594 1.177.399 2.118.969 2.829 1.719.707.75 1.207 1.664 1.5 2.734.29 1.063.437 2.246.437 3.547v12.406c-.855.188-2.042.407-3.562.657-1.512.25-3.352.375-5.516.375-1.355 0-2.59-.121-3.703-.36-1.105-.238-2.058-.629-2.86-1.172a5.485 5.485 0 0 1-1.827-2.14c-.43-.883-.64-1.969-.64-3.25 0-1.219.241-2.254.733-3.11a5.718 5.718 0 0 1 1.97-2.046c.831-.508 1.78-.875 2.843-1.094a16.03 16.03 0 0 1 3.328-.344c.77 0 1.453.04 2.047.11a9.568 9.568 0 0 1 1.469.25v-.563c0-1.008-.309-1.82-.922-2.438-.617-.613-1.68-.921-3.188-.921a20.8 20.8 0 0 0-3.015.218c-.98.149-1.828.356-2.547.625l-.766-4.797a14.07 14.07 0 0 1 1.297-.343c.52-.125 1.086-.235 1.703-.328a32.544 32.544 0 0 1 1.938-.235 22.387 22.387 0 0 1 2.062-.094Zm19.636 10.907c0 1.843.41 3.328 1.234 4.453.832 1.117 2.063 1.672 3.688 1.672.53 0 1.02-.02 1.468-.063.457-.039.836-.086 1.14-.14v-10.829c-.374-.238-.866-.437-1.468-.593a6.786 6.786 0 0 0-1.812-.25c-2.836 0-4.25 1.918-4.25 5.75Zm13.484 10c-.531.168-1.148.324-1.844.468-.687.149-1.414.27-2.172.375a43.77 43.77 0 0 1-2.328.25c-.78.07-1.53.11-2.25.11-1.742 0-3.293-.25-4.656-.75-1.355-.508-2.5-1.238-3.437-2.188-.93-.945-1.641-2.093-2.141-3.437-.492-1.344-.734-2.86-.734-4.547 0-1.695.21-3.234.64-4.61.426-1.374 1.04-2.538 1.844-3.5a7.998 7.998 0 0 1 2.937-2.203c1.157-.507 2.485-.765 3.985-.765.82 0 1.562.086 2.219.25.656.156 1.316.383 1.984.672v-9.516l5.953-.969Zm11.566.687h-5.969v-21.047h5.97Zm.547-27.125c0 1.094-.355 1.961-1.063 2.594-.699.625-1.527.937-2.484.937-.969 0-1.808-.312-2.516-.937-.699-.633-1.046-1.5-1.046-2.594 0-1.094.347-1.953 1.046-2.578.708-.625 1.547-.937 2.516-.937.957 0 1.785.312 2.484.937.708.625 1.063 1.484 1.063 2.578Zm23.013 26.406c-1.023.293-2.336.563-3.937.813-1.594.258-3.274.39-5.032.39-1.781 0-3.265-.242-4.453-.718-1.187-.477-2.133-1.149-2.828-2.016-.687-.875-1.184-1.91-1.484-3.11-.293-1.194-.438-2.515-.438-3.952v-11.735h5.969v11c0 1.93.25 3.32.75 4.172.508.856 1.457 1.281 2.844 1.281.425 0 .879-.02 1.359-.062.477-.04.906-.086 1.281-.14v-16.25h5.969Zm17.154-10.437c0-1.926-.25-3.285-.75-4.078-.493-.8-1.336-1.203-2.532-1.203-.375 0-.765.023-1.172.062-.398.043-.777.09-1.14.14v16.235h-5.969V245.31a37.888 37.888 0 0 1 3.938-.813 27.246 27.246 0 0 1 2.343-.281c.801-.07 1.586-.11 2.36-.11 1.52 0 2.754.196 3.703.579.945.386 1.726.843 2.344 1.375.851-.614 1.832-1.094 2.937-1.438 1.102-.344 2.125-.515 3.063-.515 1.675 0 3.05.234 4.125.703 1.082.46 1.941 1.117 2.578 1.968.644.856 1.086 1.872 1.328 3.047.238 1.168.36 2.477.36 3.922v11.875h-5.954v-11.156c0-1.926-.25-3.285-.75-4.078-.492-.8-1.336-1.203-2.531-1.203-.324 0-.774.086-1.344.25-.574.156-1.047.355-1.422.593a8.91 8.91 0 0 1 .36 1.938c.05.68.078 1.402.078 2.172v11.484h-5.953Zm-111.053 65.753c0-.77-.18-1.457-.531-2.063-.344-.601-.945-1.101-1.797-1.5-.856-.394-2-.695-3.438-.906-1.437-.219-3.25-.328-5.437-.328.289-2.488.531-5.008.719-7.563.187-2.562.332-4.96.437-7.203h15v5h-10c-.054.961-.117 1.887-.187 2.781-.063.899-.137 1.68-.219 2.344 3.894.262 6.77 1.172 8.625 2.735 1.852 1.562 2.781 3.73 2.781 6.5 0 1.28-.23 2.468-.687 3.562a7.61 7.61 0 0 1-2.032 2.844c-.906.793-2.046 1.418-3.421 1.875-1.375.445-2.98.672-4.813.672-.73 0-1.492-.047-2.281-.14a29.875 29.875 0 0 1-2.266-.36c-.73-.145-1.39-.297-1.984-.453-.586-.157-1.04-.317-1.36-.485l1.079-4.922c.664.305 1.546.594 2.64.875 1.094.274 2.399.407 3.922.407 1.844 0 3.176-.364 4-1.094.832-.738 1.25-1.598 1.25-2.578Zm29.673-5.766c0 4.668-.887 8.25-2.656 10.75-1.774 2.492-4.219 3.734-7.344 3.734-3.117 0-5.562-1.242-7.344-3.734-1.773-2.5-2.656-6.082-2.656-10.75 0-2.32.234-4.375.703-6.156.469-1.79 1.14-3.297 2.016-4.516.883-1.226 1.937-2.16 3.156-2.797 1.227-.644 2.602-.968 4.125-.968 3.125 0 5.57 1.25 7.344 3.75 1.77 2.492 2.656 6.054 2.656 10.687Zm-6.078 0c0-1.383-.07-2.644-.203-3.781-.137-1.133-.352-2.113-.64-2.938-.294-.82-.696-1.457-1.204-1.906-.5-.457-1.125-.687-1.875-.687s-1.371.23-1.86.687c-.492.45-.89 1.086-1.202 1.906-.305.825-.524 1.805-.657 2.938a31.88 31.88 0 0 0-.203 3.781c0 1.387.067 2.652.203 3.797.133 1.148.352 2.137.657 2.969.312.824.71 1.465 1.203 1.922.488.449 1.109.671 1.859.671s1.375-.222 1.875-.671c.508-.457.91-1.098 1.203-1.922.29-.832.504-1.82.64-2.97.134-1.144.204-2.41.204-3.796Zm16.079 10.766c0 1.199-.383 2.11-1.14 2.734-.762.625-1.622.938-2.579.938-.96 0-1.82-.313-2.578-.938-.761-.625-1.14-1.535-1.14-2.734 0-1.196.379-2.11 1.14-2.735.758-.632 1.617-.953 2.578-.953.957 0 1.817.32 2.578.953.758.625 1.141 1.54 1.141 2.735Zm12.762-11.719c.613 0 1.254-.055 1.922-.172.664-.125 1.156-.297 1.469-.516v-.359c0-.101.003-.207.015-.312a1.75 1.75 0 0 0 .031-.282 22.022 22.022 0 0 0-.25-2.703c-.125-.844-.351-1.578-.671-2.203a3.775 3.775 0 0 0-1.313-1.469c-.543-.363-1.21-.547-2-.547-.648 0-1.21.137-1.687.407-.48.261-.868.605-1.157 1.03-.293.43-.511.9-.656 1.407-.148.5-.219.992-.219 1.469 0 1.45.348 2.523 1.047 3.219.707.687 1.863 1.03 3.469 1.03Zm2.922 3.875a7.221 7.221 0 0 1-1.875.594 10.44 10.44 0 0 1-1.735.172c-1.73 0-3.21-.207-4.437-.625-1.23-.415-2.242-1.004-3.031-1.766a6.998 6.998 0 0 1-1.735-2.734c-.367-1.063-.547-2.235-.547-3.516 0-1.07.176-2.164.532-3.281a9.002 9.002 0 0 1 1.703-3.063c.77-.914 1.75-1.676 2.937-2.281 1.188-.602 2.617-.906 4.297-.906 3.445 0 6.04 1.062 7.781 3.187 1.75 2.117 2.625 5.164 2.625 9.14 0 2.618-.343 4.923-1.03 6.923-.68 2-1.731 3.683-3.157 5.047-1.418 1.355-3.234 2.386-5.453 3.093-2.211.711-4.836 1.07-7.875 1.094a90.625 90.625 0 0 0-.125-2.469c-.055-.8-.106-1.629-.156-2.484 1.52-.031 2.89-.145 4.109-.344 1.226-.195 2.305-.531 3.234-1a7.477 7.477 0 0 0 2.39-1.86c.657-.769 1.173-1.741 1.548-2.921Zm21.001-9.438a247.352 247.352 0 0 0-3.328 4.438 31.341 31.341 0 0 0-2.953 4.922h6.28Zm5.828-7.28v16.64h2.969v4.875h-2.969v6.203h-5.828v-6.203h-11.969v-4.36a74.056 74.056 0 0 1 2.203-3.968 69.398 69.398 0 0 1 2.938-4.563 80.118 80.118 0 0 1 3.422-4.578 48.177 48.177 0 0 1 3.593-4.047ZM57.344 55.812a7.27 7.27 0 0 1-.61 2.922c-.398.93-.918 1.828-1.562 2.703-.637.868-1.356 1.7-2.156 2.5a122.18 122.18 0 0 1-2.36 2.266c-.398.375-.828.797-1.297 1.266a34.866 34.866 0 0 0-2.484 2.765c-.336.407-.54.746-.61 1.016h11.923v5H39.703a6.209 6.209 0 0 1-.078-1.11v-.968c0-1.281.203-2.453.61-3.516.413-1.07.956-2.066 1.624-2.984a19.415 19.415 0 0 1 2.25-2.578c.844-.801 1.68-1.602 2.516-2.407.633-.613 1.234-1.19 1.797-1.734a20.189 20.189 0 0 0 1.484-1.61 7.557 7.557 0 0 0 1-1.546c.239-.52.36-1.05.36-1.594 0-1.164-.336-1.988-1-2.469-.668-.476-1.496-.718-2.485-.718a6.01 6.01 0 0 0-2.031.343c-.625.22-1.2.485-1.719.797-.511.305-.953.61-1.328.922-.375.305-.656.547-.844.734l-2.953-4.156c1.164-1.094 2.532-1.992 4.094-2.703a12.025 12.025 0 0 1 5.016-1.062c1.625 0 3.023.187 4.203.562 1.176.375 2.144.902 2.906 1.578a6.077 6.077 0 0 1 1.672 2.485c.363.968.547 2.07.547 3.296Zm11.999 21.032c-.719 0-1.48-.047-2.282-.14a26.337 26.337 0 0 1-2.328-.376 23.58 23.58 0 0 1-2.03-.516 12.157 12.157 0 0 1-1.438-.515l1.156-4.969c.687.293 1.57.606 2.656.938 1.082.336 2.422.5 4.016.5 1.843 0 3.191-.344 4.047-1.032.851-.695 1.28-1.629 1.28-2.797 0-.726-.155-1.335-.468-1.828a3.48 3.48 0 0 0-1.25-1.187c-.531-.313-1.168-.524-1.906-.64a13.9 13.9 0 0 0-2.344-.188H66.14v-4.797h2.64c.582 0 1.145-.05 1.688-.156a4.833 4.833 0 0 0 1.468-.547 2.87 2.87 0 0 0 1.016-1.047c.258-.438.39-.988.39-1.656 0-.508-.109-.946-.327-1.313a2.85 2.85 0 0 0-.813-.922 3.576 3.576 0 0 0-1.172-.531 4.826 4.826 0 0 0-1.328-.188c-1.148 0-2.21.172-3.187.516a13.17 13.17 0 0 0-2.657 1.281l-2.125-4.359a18.8 18.8 0 0 1 1.5-.844 15.91 15.91 0 0 1 1.891-.797 17.344 17.344 0 0 1 2.219-.593c.789-.164 1.629-.25 2.515-.25 1.625 0 3.032.195 4.22.578 1.187.386 2.163.933 2.937 1.64a6.73 6.73 0 0 1 1.718 2.485c.375.949.563 1.98.563 3.093 0 1.094-.309 2.157-.922 3.188a6.097 6.097 0 0 1-2.469 2.328c1.438.594 2.547 1.469 3.328 2.625.79 1.156 1.188 2.555 1.188 4.188 0 1.28-.215 2.464-.64 3.546a7.223 7.223 0 0 1-2 2.797c-.907.782-2.063 1.391-3.47 1.828-1.398.438-3.054.657-4.968.657Zm0 0"/>
  <path d="m355.762 10.207.453.043.441.063.442.085.43.094.429.113.414.137.414.14.406.169.395.168.387.195.386.207.364.223.363.234.351.242.344.266.328.27.32.285.31.3.3.309.285.32.27.328.258.344.25.352.234.363.223.363.199.387.195.387.176.398.168.403.14.414.137.421.106.422.101.434.078.437.067.45.047.449.03.453.005.465v334.933l-.004.461-.031.457-.047.45-.067.441-.078.438-.101.433-.106.43-.137.414-.14.414-.168.41-.176.39-.195.387-.2.38-.222.37-.234.364-.25.351-.258.344-.27.328-.285.32-.3.31-.31.3-.32.285-.328.27-.344.257-.351.25-.363.239-.364.214-.386.207-.387.192-.395.18-.406.164-.414.14-.414.13-.43.116-.43.098-.44.078-.442.067-.453.05-.457.028-.457.007H19.91l-.457-.007-.457-.028-.45-.05-.448-.067-.438-.078-.433-.098-.422-.117-.422-.129-.414-.14-.403-.164-.398-.18-.387-.192-.379-.207-.37-.214-.364-.239-.352-.25-.343-.257-.328-.27-.32-.285-.31-.3-.3-.31-.285-.32-.27-.328-.258-.344-.25-.351-.238-.364-.219-.37-.207-.38-.187-.386-.18-.39-.164-.411-.14-.414-.137-.414-.114-.43-.093-.433-.086-.438-.059-.441-.05-.45-.028-.457-.008-.46V21.34l.008-.465.027-.453.051-.45.059-.449.086-.437.093-.434.114-.422.136-.421.141-.414.164-.403.18-.398.187-.387.207-.387.22-.363.237-.363.25-.352.258-.344.27-.328.285-.32.3-.309.31-.3.32-.286.328-.27.343-.265.352-.242.363-.234.371-.223.38-.207.386-.195.398-.168.403-.168.414-.14.422-.138.422-.113.433-.094.438-.085.449-.063.45-.043.456-.031.457-.004h334.938l.457.004ZM28.187 18.914l-.457.031-.453.043-.441.063-.445.086-.426.093-.43.114-.422.136-.406.145-.41.164-.39.172-.395.191-.38.207-.37.223-.356.234-.351.243-.344.265-.328.27-.32.289-.31.297-.3.308-.285.32-.27.333-.265.34-.242.351-.239.355-.218.375-.207.375-.188.395-.18.395-.164.406-.14.406-.137.422-.113.43-.094.43-.086.44-.059.442-.046.453-.032.457-.008.457v317.465l.008.457.032.457.046.453.059.442.086.437.094.434.113.43.137.414.14.414.164.406.18.394.188.387.207.38.218.37.239.363.242.352.265.344.27.328.285.32.3.309.31.3.32.286.328.27.344.257.351.25.356.238.37.211.38.207.394.196.39.18.411.163.406.141.422.129.43.113.426.102.445.078.441.066.453.047.457.031.458.008h317.464l.457-.008.457-.03.454-.048.441-.066.441-.078.43-.102.43-.113.414-.129.414-.14.406-.165.395-.18.386-.195.383-.207.367-.21.364-.239.351-.25.34-.258.332-.27.32-.284.309-.301.297-.309.289-.32.27-.328.257-.344.25-.352.235-.363.222-.37.2-.38.195-.387.176-.394.164-.406.144-.414.137-.414.105-.43.102-.434.078-.437.063-.442.05-.453.032-.457.004-.457V30.07l-.004-.457-.032-.457-.05-.453-.063-.441-.078-.442-.102-.43-.105-.43-.137-.42-.144-.407-.164-.406-.176-.395-.195-.395-.2-.375-.222-.375-.235-.355-.25-.352-.258-.34-.27-.331-.288-.32-.297-.31-.309-.296-.32-.29-.332-.269-.34-.265-.351-.243-.364-.234-.367-.223-.383-.207-.386-.191-.395-.172-.406-.164-.414-.145-.414-.136-.43-.114-.43-.093-.441-.086-.441-.063-.454-.043-.457-.03-.457-.005H28.645Zm0 0"/>
</svg>
