<svg xmlns="http://www.w3.org/2000/svg" version="1.2" viewBox="0 0 375 375">
  <path d="m355.762 10.207.453.043.441.063.442.085.43.094.429.113.414.137.414.14.406.169.395.168.387.195.386.207.364.223.363.234.351.242.344.266.328.27.32.285.31.3.3.309.285.32.27.328.258.344.25.352.234.363.223.363.199.387.195.387.176.398.168.403.14.414.137.421.106.422.101.434.078.437.067.45.047.449.03.453.005.465v334.933l-.004.461-.031.457-.047.45-.067.441-.078.438-.101.433-.106.43-.137.414-.14.414-.168.41-.176.39-.195.387-.2.38-.222.37-.234.364-.25.351-.258.344-.27.328-.285.32-.3.31-.31.3-.32.285-.328.27-.344.257-.351.25-.363.239-.364.214-.386.207-.387.192-.395.18-.406.164-.414.14-.414.13-.43.116-.43.098-.44.078-.442.067-.453.05-.457.028-.457.007H19.91l-.457-.007-.457-.028-.45-.05-.448-.067-.438-.078-.433-.098-.422-.117-.422-.129-.414-.14-.403-.164-.398-.18-.387-.192-.379-.207-.37-.214-.364-.239-.352-.25-.343-.257-.328-.27-.32-.285-.31-.3-.3-.31-.285-.32-.27-.328-.258-.344-.25-.351-.238-.364-.219-.37-.207-.38-.187-.386-.18-.39-.164-.411-.14-.414-.137-.414-.114-.43-.093-.433-.086-.438-.059-.441-.05-.45-.028-.457-.008-.46V21.34l.008-.465.027-.453.051-.45.059-.449.086-.437.093-.434.114-.422.136-.421.141-.414.164-.403.18-.398.187-.387.207-.387.22-.363.237-.363.25-.352.258-.344.27-.328.285-.32.3-.309.31-.3.32-.286.328-.27.343-.265.352-.242.363-.234.371-.223.38-.207.386-.195.398-.168.403-.168.414-.14.422-.138.422-.113.433-.094.438-.085.449-.063.45-.043.456-.031.457-.004h334.938l.457.004ZM28.187 18.914l-.457.031-.453.043-.441.063-.445.086-.426.093-.43.114-.422.136-.406.145-.41.164-.39.172-.395.191-.38.207-.37.223-.356.234-.351.243-.344.265-.328.27-.32.289-.31.297-.3.308-.285.32-.27.333-.265.34-.242.351-.239.355-.218.375-.207.375-.188.395-.18.395-.164.406-.14.406-.137.422-.113.43-.094.43-.086.44-.059.442-.046.453-.032.457-.008.457v317.465l.008.457.032.457.046.453.059.442.086.437.094.434.113.43.137.414.14.414.164.406.18.394.188.387.207.38.218.37.239.363.242.352.265.344.27.328.285.32.3.309.31.3.32.286.328.27.344.257.351.25.356.238.37.211.38.207.394.196.39.18.411.163.406.141.422.129.43.113.426.102.445.078.441.066.453.047.457.031.458.008h317.464l.457-.008.457-.03.454-.048.441-.066.441-.078.43-.102.43-.113.414-.129.414-.14.406-.165.395-.18.386-.195.383-.207.367-.21.364-.239.351-.25.34-.258.332-.27.32-.284.309-.301.297-.309.289-.32.27-.328.257-.344.25-.352.235-.363.222-.37.2-.38.195-.387.176-.394.164-.406.144-.414.137-.414.105-.43.102-.434.078-.437.063-.442.05-.453.032-.457.004-.457V30.07l-.004-.457-.032-.457-.05-.453-.063-.441-.078-.442-.102-.43-.105-.43-.137-.42-.144-.407-.164-.406-.176-.395-.195-.395-.2-.375-.222-.375-.235-.355-.25-.352-.258-.34-.27-.331-.288-.32-.297-.31-.309-.296-.32-.29-.332-.269-.34-.265-.351-.243-.364-.234-.367-.223-.383-.207-.386-.191-.395-.172-.406-.164-.414-.145-.414-.136-.43-.114-.43-.093-.441-.086-.441-.063-.454-.043-.457-.03-.457-.005H28.645Zm0 0"/>
  <path d="M120.465 97.834c1.676 3.074 3.61 6.875 5.797 11.406a572.197 572.197 0 0 1 6.86 14.687 758.657 758.657 0 0 1 7.077 16.172c2.332 5.5 4.524 10.68 6.579 15.532l6.562-15.532a779.399 779.399 0 0 1 7.063-16.172 630.564 630.564 0 0 1 6.859-14.687c2.195-4.531 4.133-8.332 5.812-11.406h19.875c.938 6.437 1.801 13.648 2.594 21.625a872.54 872.54 0 0 1 2.094 24.906c.613 8.637 1.176 17.293 1.687 25.969.508 8.68.954 16.84 1.329 24.484h-21.266c-.281-9.426-.656-19.687-1.125-30.781a850.148 850.148 0 0 0-2.094-33.594c-1.687 3.918-3.558 8.258-5.61 13.016a1932.716 1932.716 0 0 0-6.093 14.281c-2 4.75-3.934 9.297-5.797 13.64a3004.606 3004.606 0 0 0-4.765 11.126h-15.25c-1.305-3.082-2.891-6.79-4.766-11.125a2487.355 2487.355 0 0 1-5.813-13.641c-2-4.758-4.027-9.52-6.078-14.281a4043.627 4043.627 0 0 1-5.593-13.016 828.576 828.576 0 0 0-2.11 33.594 2642.07 2642.07 0 0 0-1.11 30.781h-21.28c.375-7.644.816-15.805 1.328-24.484.52-8.676 1.082-17.332 1.687-25.969.602-8.633 1.3-16.938 2.094-24.906.789-7.977 1.656-15.188 2.594-21.625Zm98.385 25.89c3.539-1.03 8.11-1.988 13.703-2.875 5.601-.882 11.484-1.328 17.64-1.328 6.25 0 11.454.82 15.61 2.453 4.156 1.637 7.441 3.95 9.86 6.938 2.425 2.98 4.148 6.523 5.171 10.625 1.031 4.105 1.547 8.68 1.547 13.719v41.562h-20.844v-39.047c0-6.719-.886-11.472-2.656-14.265-1.773-2.801-5.086-4.204-9.937-4.204-1.5 0-3.09.075-4.766.22-1.68.136-3.168.292-4.469.468v56.828h-20.86ZM89.503 237.904a73.619 73.619 0 0 1 1.656 3.265 174.677 174.677 0 0 1 1.953 4.203c.688 1.5 1.363 3.04 2.031 4.61.664 1.574 1.29 3.055 1.875 4.437.582-1.382 1.207-2.863 1.875-4.437.664-1.57 1.336-3.11 2.016-4.61.687-1.507 1.344-2.91 1.969-4.203.625-1.3 1.176-2.39 1.656-3.265h5.687c.27 1.843.516 3.906.735 6.187a227.2 227.2 0 0 1 .594 7.11c.175 2.468.336 4.945.484 7.421.145 2.48.273 4.813.39 7h-6.078a882.442 882.442 0 0 0-.328-8.796 262.994 262.994 0 0 0-.593-9.61 565.372 565.372 0 0 1-1.61 3.735 375.455 375.455 0 0 0-1.734 4.078 935.85 935.85 0 0 1-1.656 3.89 1446.06 1446.06 0 0 0-1.36 3.188h-4.36c-.374-.883-.835-1.945-1.374-3.188a598.152 598.152 0 0 1-1.656-3.89 638.909 638.909 0 0 0-1.735-4.078 775.848 775.848 0 0 1-1.594-3.735 225.79 225.79 0 0 0-.609 9.61 520.041 520.041 0 0 0-.312 8.796h-6.079c.102-2.187.227-4.52.375-7 .145-2.476.301-4.953.47-7.421.175-2.47.378-4.836.609-7.11.226-2.281.472-4.344.734-6.187Zm36.161 23.562c.582 0 1.14-.008 1.672-.031.53-.031.957-.07 1.28-.125v-4.531a12.79 12.79 0 0 0-1.077-.157c-.48-.05-.918-.078-1.313-.078-.562 0-1.094.04-1.594.11a4.001 4.001 0 0 0-1.296.375 2.307 2.307 0 0 0-.891.765c-.211.313-.313.711-.313 1.188 0 .937.313 1.59.938 1.953.633.355 1.5.531 2.594.531Zm-.485-17.437c1.758 0 3.223.199 4.39.593 1.177.399 2.118.97 2.83 1.72.706.75 1.206 1.663 1.5 2.734.288 1.062.437 2.246.437 3.546v12.407a73.67 73.67 0 0 1-3.563.656c-1.512.25-3.351.375-5.516.375-1.355 0-2.59-.121-3.703-.36-1.105-.238-2.058-.628-2.86-1.171a5.485 5.485 0 0 1-1.827-2.14c-.43-.884-.64-1.97-.64-3.25 0-1.22.241-2.255.734-3.11a5.718 5.718 0 0 1 1.968-2.047c.832-.508 1.782-.875 2.844-1.094a16.03 16.03 0 0 1 3.328-.344c.77 0 1.453.04 2.047.11a9.568 9.568 0 0 1 1.469.25v-.563c0-1.008-.309-1.82-.922-2.437-.617-.614-1.68-.922-3.188-.922a20.8 20.8 0 0 0-3.015.219c-.98.148-1.828.355-2.547.625l-.766-4.797a14.07 14.07 0 0 1 1.297-.344 20.53 20.53 0 0 1 1.703-.328 32.544 32.544 0 0 1 1.938-.235 22.387 22.387 0 0 1 2.062-.093Zm14.558 1.281c1.007-.3 2.316-.578 3.922-.828a32.722 32.722 0 0 1 5.046-.375c1.782 0 3.266.234 4.454.703 1.187.46 2.125 1.117 2.812 1.969.695.855 1.191 1.87 1.484 3.047.29 1.168.438 2.476.438 3.921v11.875h-5.953v-11.156c0-1.926-.258-3.285-.766-4.078-.5-.8-1.445-1.203-2.828-1.203-.43 0-.887.023-1.375.062-.48.043-.902.09-1.266.141v16.234h-5.968Zm28.638 9.11c0 3.335 1.347 5 4.046 5a6.09 6.09 0 0 0 1.72-.235 6.99 6.99 0 0 0 1.359-.563v-9.515a14.295 14.295 0 0 0-2.438-.203c-1.574 0-2.75.523-3.531 1.562-.774 1.043-1.156 2.36-1.156 3.953Zm13.078 8.562c0 3.437-.875 5.988-2.625 7.656-1.742 1.664-4.438 2.5-8.094 2.5a22.04 22.04 0 0 1-3.844-.344 22.844 22.844 0 0 1-3.547-.89l1.032-5a17.26 17.26 0 0 0 2.937.875c1.031.218 2.195.328 3.5.328 1.707 0 2.914-.375 3.625-1.125.707-.75 1.063-1.707 1.063-2.875v-.766a9.312 9.312 0 0 1-1.985.656c-.68.149-1.418.22-2.219.22-2.906 0-5.136-.86-6.687-2.579-1.543-1.719-2.313-4.125-2.313-7.219 0-1.539.239-2.941.72-4.203a8.941 8.941 0 0 1 2.093-3.265c.926-.914 2.055-1.618 3.39-2.11 1.333-.488 2.837-.734 4.516-.734.719 0 1.457.039 2.219.11a43.65 43.65 0 0 1 2.266.25c.75.105 1.46.23 2.14.374a22.71 22.71 0 0 1 1.813.469Zm13.65-1.516c.582 0 1.14-.008 1.672-.031.531-.031.957-.07 1.281-.125v-4.531a12.89 12.89 0 0 0-1.078-.157c-.48-.05-.918-.078-1.312-.078-.563 0-1.094.04-1.594.11a4.001 4.001 0 0 0-1.297.375 2.307 2.307 0 0 0-.89.765c-.212.313-.313.711-.313 1.188 0 .937.312 1.59.937 1.953.633.355 1.5.531 2.594.531Zm-.484-17.437c1.758 0 3.222.199 4.39.593 1.176.399 2.118.97 2.829 1.72.707.75 1.207 1.663 1.5 2.734.289 1.062.437 2.246.437 3.546v12.407c-.855.187-2.043.406-3.562.656-1.512.25-3.352.375-5.516.375-1.356 0-2.59-.121-3.703-.36-1.106-.238-2.059-.628-2.86-1.171a5.485 5.485 0 0 1-1.828-2.14c-.43-.884-.64-1.97-.64-3.25 0-1.22.242-2.255.734-3.11a5.718 5.718 0 0 1 1.969-2.047c.832-.508 1.781-.875 2.844-1.094a16.03 16.03 0 0 1 3.328-.344c.77 0 1.453.04 2.047.11a9.568 9.568 0 0 1 1.468.25v-.563c0-1.008-.308-1.82-.922-2.437-.617-.614-1.68-.922-3.187-.922a20.8 20.8 0 0 0-3.016.219c-.98.148-1.828.355-2.547.625l-.765-4.797a14.07 14.07 0 0 1 1.297-.344 20.53 20.53 0 0 1 1.703-.328 32.544 32.544 0 0 1 1.937-.235 22.387 22.387 0 0 1 2.063-.093Zm14.557 1.281c1.008-.3 2.316-.578 3.922-.828a32.722 32.722 0 0 1 5.047-.375c1.781 0 3.265.234 4.453.703 1.187.46 2.125 1.117 2.812 1.969.696.855 1.192 1.87 1.485 3.047.289 1.168.437 2.476.437 3.921v11.875h-5.953v-11.156c0-1.926-.258-3.285-.765-4.078-.5-.8-1.446-1.203-2.829-1.203-.43 0-.886.023-1.375.062-.48.043-.902.09-1.265.141v16.234h-5.969Zm22.56 9.953c0-1.863.285-3.492.86-4.89.57-1.407 1.32-2.57 2.25-3.5a9.42 9.42 0 0 1 3.218-2.126 10.218 10.218 0 0 1 3.75-.718c2.988 0 5.348.914 7.078 2.734 1.738 1.824 2.61 4.512 2.61 8.063 0 .343-.016.726-.047 1.14a30.51 30.51 0 0 1-.078 1.094H237.86c.133 1.23.707 2.203 1.719 2.922 1.007.719 2.367 1.078 4.078 1.078 1.094 0 2.164-.098 3.219-.297 1.05-.195 1.91-.441 2.578-.734l.797 4.828c-.313.168-.743.328-1.282.484-.531.156-1.125.29-1.781.406a27.83 27.83 0 0 1-2.094.313 20.29 20.29 0 0 1-2.234.125c-1.899 0-3.547-.281-4.953-.844-1.399-.562-2.555-1.328-3.469-2.297a9.279 9.279 0 0 1-2.047-3.468c-.437-1.332-.656-2.77-.656-4.313Zm14-2.281a5.617 5.617 0 0 0-.266-1.485 3.573 3.573 0 0 0-1.828-2.188c-.469-.25-1.055-.374-1.75-.374-.668 0-1.242.117-1.719.344a3.6 3.6 0 0 0-1.203.906 4.268 4.268 0 0 0-.734 1.297 9.159 9.159 0 0 0-.375 1.5Zm16.407 8.359c1.093 0 1.863-.101 2.312-.312.457-.22.688-.633.688-1.25 0-.477-.297-.895-.891-1.25-.586-.364-1.477-.77-2.672-1.22a29.82 29.82 0 0 1-2.547-1.077c-.762-.375-1.406-.82-1.937-1.344a5.38 5.38 0 0 1-1.235-1.86c-.293-.726-.437-1.597-.437-2.609 0-1.968.726-3.523 2.187-4.672 1.47-1.144 3.485-1.718 6.047-1.718 1.281 0 2.504.117 3.672.343 1.176.22 2.113.465 2.813.735l-1.047 4.64a21.726 21.726 0 0 0-2.266-.64c-.812-.188-1.726-.281-2.734-.281-1.867 0-2.797.523-2.797 1.562 0 .242.035.453.11.64.081.188.241.372.484.548.238.168.566.351.984.546.414.2.941.418 1.578.657 1.313.48 2.395.953 3.25 1.422.852.468 1.524.98 2.016 1.53a4.717 4.717 0 0 1 1.031 1.813c.207.668.312 1.438.312 2.313 0 2.086-.78 3.664-2.343 4.734-1.563 1.063-3.774 1.594-6.625 1.594-1.867 0-3.418-.164-4.657-.484-1.242-.32-2.101-.586-2.578-.797l1-4.844c1.008.406 2.047.727 3.11.953a15.82 15.82 0 0 0 3.172.328Zm12.353-6.078c0-1.863.285-3.492.859-4.89.57-1.407 1.32-2.57 2.25-3.5a9.42 9.42 0 0 1 3.219-2.126 10.218 10.218 0 0 1 3.75-.718c2.988 0 5.347.914 7.078 2.734 1.738 1.824 2.61 4.512 2.61 8.063 0 .343-.016.726-.048 1.14-.023.406-.047.774-.078 1.094h-13.515c.132 1.23.707 2.203 1.718 2.922 1.008.719 2.367 1.078 4.078 1.078 1.094 0 2.164-.098 3.22-.297 1.05-.195 1.91-.441 2.577-.734l.797 4.828c-.312.168-.742.328-1.281.484-.531.156-1.125.29-1.781.406-.649.125-1.344.227-2.094.313a20.29 20.29 0 0 1-2.234.125c-1.899 0-3.547-.281-4.954-.844-1.398-.562-2.554-1.328-3.468-2.297a9.279 9.279 0 0 1-2.047-3.468c-.438-1.332-.656-2.77-.656-4.313Zm14-2.281a5.617 5.617 0 0 0-.266-1.485 3.573 3.573 0 0 0-1.828-2.188c-.469-.25-1.055-.374-1.75-.374-.668 0-1.242.117-1.719.344-.48.23-.883.53-1.203.906a4.268 4.268 0 0 0-.734 1.297 9.159 9.159 0 0 0-.375 1.5Zm-136.95 67.237c0-.77-.18-1.457-.531-2.063-.344-.601-.945-1.101-1.797-1.5-.856-.394-2-.695-3.438-.906-1.437-.219-3.25-.328-5.437-.328.289-2.488.531-5.008.719-7.563.187-2.562.332-4.96.437-7.203h15v5h-10a127.06 127.06 0 0 1-.187 2.782c-.063.898-.137 1.68-.219 2.343 3.894.262 6.77 1.172 8.625 2.735 1.852 1.562 2.781 3.73 2.781 6.5 0 1.28-.23 2.468-.687 3.562a7.61 7.61 0 0 1-2.032 2.844c-.906.793-2.046 1.418-3.421 1.875-1.375.445-2.98.672-4.813.672-.73 0-1.492-.047-2.281-.14a29.875 29.875 0 0 1-2.266-.36c-.73-.145-1.39-.297-1.984-.453-.586-.157-1.04-.317-1.36-.485l1.079-4.922c.664.305 1.546.594 2.64.875 1.094.274 2.399.407 3.922.407 1.844 0 3.176-.364 4-1.094.832-.738 1.25-1.598 1.25-2.578Zm21.079-12.281a247.352 247.352 0 0 0-3.328 4.437 31.341 31.341 0 0 0-2.953 4.922h6.281Zm5.828-7.282v16.64h2.97v4.876h-2.97v6.203h-5.828v-6.203h-11.968v-4.36a74.056 74.056 0 0 1 2.203-3.968 69.398 69.398 0 0 1 2.937-4.563 80.118 80.118 0 0 1 3.422-4.578 48.177 48.177 0 0 1 3.594-4.047Zm12.767 24.563c0 1.199-.383 2.11-1.14 2.734-.762.625-1.622.938-2.579.938-.96 0-1.82-.313-2.578-.938-.761-.625-1.14-1.535-1.14-2.734 0-1.196.379-2.11 1.14-2.735.758-.632 1.617-.953 2.578-.953.957 0 1.817.32 2.578.953.758.625 1.141 1.54 1.141 2.735Zm12.762-11.719c.613 0 1.254-.055 1.922-.172.664-.125 1.156-.297 1.469-.515v-.36c0-.101.003-.207.015-.312a1.75 1.75 0 0 0 .031-.282 22.022 22.022 0 0 0-.25-2.703c-.125-.843-.351-1.578-.671-2.203a3.775 3.775 0 0 0-1.313-1.469c-.543-.363-1.21-.546-2-.546-.648 0-1.21.136-1.687.406-.48.262-.868.605-1.157 1.031-.293.43-.511.898-.656 1.406-.148.5-.219.992-.219 1.47 0 1.448.348 2.522 1.047 3.218.707.687 1.863 1.031 3.469 1.031Zm2.922 3.875a7.221 7.221 0 0 1-1.875.594 10.44 10.44 0 0 1-1.735.172c-1.73 0-3.21-.207-4.437-.625-1.23-.414-2.242-1.004-3.031-1.766a6.998 6.998 0 0 1-1.735-2.734c-.367-1.063-.547-2.235-.547-3.516 0-1.07.176-2.164.532-3.281a9.002 9.002 0 0 1 1.703-3.063c.77-.914 1.75-1.675 2.937-2.28 1.188-.603 2.617-.907 4.297-.907 3.445 0 6.04 1.062 7.781 3.187 1.75 2.117 2.625 5.164 2.625 9.14 0 2.618-.343 4.923-1.03 6.923-.68 2-1.731 3.683-3.157 5.047-1.418 1.355-3.234 2.386-5.453 3.093-2.211.711-4.836 1.07-7.875 1.094a90.625 90.625 0 0 0-.125-2.469c-.055-.8-.106-1.628-.156-2.484 1.52-.031 2.89-.144 4.109-.344 1.226-.195 2.305-.53 3.234-1a7.477 7.477 0 0 0 2.39-1.86c.657-.769 1.173-1.741 1.548-2.92Zm21.001-9.437a247.352 247.352 0 0 0-3.328 4.437 31.341 31.341 0 0 0-2.953 4.922h6.28Zm5.828-7.282v16.64h2.969v4.876h-2.969v6.203h-5.828v-6.203h-11.969v-4.36a74.056 74.056 0 0 1 2.203-3.968 69.398 69.398 0 0 1 2.938-4.563 80.118 80.118 0 0 1 3.422-4.578 48.177 48.177 0 0 1 3.593-4.047ZM57.344 55.813a7.27 7.27 0 0 1-.61 2.921c-.398.93-.918 1.829-1.562 2.704a21.84 21.84 0 0 1-2.156 2.5 122.18 122.18 0 0 1-2.36 2.265c-.398.375-.828.797-1.297 1.266a34.866 34.866 0 0 0-2.484 2.765c-.336.407-.54.747-.61 1.016h11.923v5H39.703a6.209 6.209 0 0 1-.078-1.11v-.968c0-1.281.203-2.453.61-3.516.413-1.07.956-2.066 1.624-2.984a19.415 19.415 0 0 1 2.25-2.578c.844-.801 1.68-1.602 2.516-2.406.633-.614 1.234-1.192 1.797-1.735a20.189 20.189 0 0 0 1.484-1.61 7.557 7.557 0 0 0 1-1.546c.239-.52.36-1.05.36-1.594 0-1.164-.336-1.988-1-2.469-.668-.476-1.496-.718-2.485-.718a6.01 6.01 0 0 0-2.031.343c-.625.22-1.2.485-1.719.797-.511.305-.953.61-1.328.922-.375.305-.656.547-.844.735l-2.953-4.157c1.164-1.093 2.532-1.992 4.094-2.703a12.025 12.025 0 0 1 5.016-1.062c1.625 0 3.023.187 4.203.562 1.176.375 2.144.903 2.906 1.578a6.077 6.077 0 0 1 1.672 2.485c.363.968.547 2.07.547 3.297Zm17.28 12.281c0-.77-.18-1.457-.531-2.063-.344-.601-.946-1.101-1.797-1.5-.856-.394-2-.695-3.438-.906-1.437-.219-3.25-.328-5.437-.328.289-2.488.531-5.008.719-7.563.187-2.562.332-4.96.437-7.203h15v5h-10c-.055.961-.117 1.887-.187 2.782-.063.898-.137 1.68-.22 2.343 3.895.262 6.77 1.172 8.626 2.735 1.851 1.562 2.781 3.73 2.781 6.5 0 1.28-.23 2.468-.687 3.562a7.61 7.61 0 0 1-2.032 2.844c-.906.793-2.047 1.418-3.422 1.875-1.375.445-2.98.672-4.812.672-.73 0-1.492-.047-2.281-.14a29.875 29.875 0 0 1-2.266-.36c-.73-.145-1.39-.297-1.984-.453-.586-.157-1.04-.317-1.36-.485l1.078-4.922c.665.305 1.547.594 2.641.875 1.094.274 2.399.407 3.922.407 1.844 0 3.176-.364 4-1.094.832-.738 1.25-1.598 1.25-2.578Zm0 0"/>
</svg>
