<svg xmlns="http://www.w3.org/2000/svg" version="1.2" viewBox="0 0 375 375">
  <path d="M117.668 194.818V97.834h64.938v18.328h-43.11v20.297h38.344v18.328h-38.344v40.031Zm75.429-36.25c0-6.531 1-12.242 3-17.14 2.008-4.895 4.644-8.973 7.906-12.235 3.27-3.27 7.024-5.742 11.266-7.422 4.25-1.687 8.613-2.53 13.094-2.53 10.445 0 18.703 3.198 24.765 9.593 6.07 6.387 9.11 15.789 9.11 28.203 0 1.21-.047 2.539-.141 3.984-.094 1.45-.188 2.73-.281 3.844h-47.313c.469 4.293 2.473 7.7 6.016 10.219 3.55 2.523 8.312 3.781 14.281 3.781 3.82 0 7.578-.348 11.266-1.047 3.687-.695 6.695-1.562 9.03-2.594l2.798 16.938c-1.117.562-2.61 1.125-4.485 1.687-1.867.555-3.945 1.036-6.234 1.454-2.281.425-4.73.773-7.344 1.046a72.888 72.888 0 0 1-7.828.422c-6.625 0-12.387-.98-17.281-2.937-4.899-1.957-8.953-4.64-12.172-8.047-3.219-3.406-5.602-7.438-7.14-12.094-1.544-4.664-2.313-9.707-2.313-15.125Zm48.984-7.969a21.811 21.811 0 0 0-.906-5.187 12.915 12.915 0 0 0-2.375-4.469c-1.074-1.312-2.43-2.383-4.062-3.219-1.637-.843-3.668-1.265-6.094-1.265-2.336 0-4.34.398-6.016 1.187-1.68.793-3.078 1.844-4.203 3.157-1.117 1.304-1.98 2.82-2.594 4.546a29.716 29.716 0 0 0-1.328 5.25Zm-90.058 87.305h6.234v27.718h-6.234Zm24.921 11.953a68.408 68.408 0 0 0-1.89-.406 10.891 10.891 0 0 0-2.313-.235c-.375 0-.824.04-1.344.11-.523.062-.914.136-1.172.218v16.078h-5.968v-19.921c1.07-.375 2.332-.727 3.78-1.063 1.458-.332 3.08-.5 4.86-.5.32 0 .707.024 1.157.063.457.043.91.101 1.359.171.457.063.91.141 1.36.235.456.094.847.203 1.171.328Zm23.88 5.203c0 1.656-.242 3.172-.719 4.547-.48 1.375-1.18 2.547-2.093 3.515a9.505 9.505 0 0 1-3.266 2.266c-1.262.531-2.68.797-4.25.797-1.543 0-2.95-.266-4.219-.797a9.656 9.656 0 0 1-3.265-2.266c-.907-.968-1.618-2.14-2.125-3.515-.5-1.375-.75-2.89-.75-4.547 0-1.656.257-3.16.78-4.516.52-1.363 1.24-2.523 2.157-3.484a9.81 9.81 0 0 1 3.281-2.234c1.27-.532 2.649-.797 4.14-.797 1.52 0 2.911.265 4.173.797a9.48 9.48 0 0 1 3.265 2.234c.907.96 1.614 2.121 2.125 3.484.508 1.356.766 2.86.766 4.516Zm-6.078 0c0-1.832-.371-3.273-1.11-4.328-.73-1.063-1.777-1.594-3.14-1.594-1.356 0-2.406.531-3.156 1.594-.75 1.055-1.125 2.496-1.125 4.328 0 1.844.375 3.309 1.125 4.39.75 1.075 1.8 1.61 3.156 1.61 1.363 0 2.41-.535 3.14-1.61.739-1.081 1.11-2.546 1.11-4.39Zm10.67-9.75c1.008-.3 2.317-.578 3.922-.828a32.722 32.722 0 0 1 5.047-.375c1.781 0 3.266.234 4.453.703 1.188.46 2.125 1.117 2.813 1.969.695.855 1.191 1.87 1.484 3.047.29 1.168.438 2.476.438 3.921v11.875h-5.954v-11.156c0-1.926-.257-3.285-.765-4.078-.5-.8-1.445-1.203-2.828-1.203-.43 0-.887.023-1.375.062-.48.043-.903.09-1.266.141v16.234h-5.969Zm-53.87 74.909c0-.77-.18-1.457-.531-2.063-.344-.601-.945-1.101-1.797-1.5-.856-.394-2-.695-3.438-.906-1.437-.219-3.25-.328-5.437-.328.289-2.488.531-5.008.719-7.562.187-2.563.332-4.961.437-7.204h15v5h-10a127.06 127.06 0 0 1-.187 2.782c-.063.898-.137 1.68-.219 2.343 3.894.262 6.77 1.172 8.625 2.735 1.852 1.562 2.781 3.73 2.781 6.5 0 1.281-.23 2.469-.687 3.562a7.61 7.61 0 0 1-2.032 2.844c-.906.793-2.046 1.418-3.421 1.875-1.375.445-2.98.672-4.813.672-.73 0-1.492-.047-2.281-.14a29.875 29.875 0 0 1-2.266-.36c-.73-.145-1.39-.297-1.984-.453-.586-.156-1.04-.317-1.36-.485l1.079-4.921c.664.304 1.546.593 2.64.875 1.094.273 2.399.406 3.922.406 1.844 0 3.176-.363 4-1.094.832-.738 1.25-1.598 1.25-2.578Zm22.72 0c0-.77-.18-1.457-.531-2.063-.344-.601-.946-1.101-1.797-1.5-.856-.394-2-.695-3.438-.906-1.437-.219-3.25-.328-5.437-.328.289-2.488.531-5.008.719-7.562.187-2.563.332-4.961.437-7.204h15v5h-10c-.055.961-.117 1.887-.187 2.782-.063.898-.137 1.68-.22 2.343 3.895.262 6.77 1.172 8.626 2.735 1.851 1.562 2.781 3.73 2.781 6.5 0 1.281-.23 2.469-.687 3.562a7.61 7.61 0 0 1-2.032 2.844c-.906.793-2.047 1.418-3.422 1.875-1.375.445-2.98.672-4.812.672-.73 0-1.492-.047-2.281-.14a29.875 29.875 0 0 1-2.266-.36c-.73-.145-1.39-.297-1.984-.453-.586-.156-1.04-.317-1.36-.485l1.078-4.921c.664.304 1.547.593 2.641.875 1.094.273 2.398.406 3.922.406 1.844 0 3.176-.363 4-1.094.832-.738 1.25-1.598 1.25-2.578Zm16.954 5c0 1.2-.383 2.11-1.14 2.734-.762.625-1.622.938-2.579.938-.96 0-1.82-.313-2.578-.938-.761-.625-1.14-1.535-1.14-2.734 0-1.195.379-2.11 1.14-2.734.758-.633 1.617-.954 2.578-.954.957 0 1.817.32 2.578.954.758.625 1.141 1.539 1.141 2.734Zm22.403-4.563c0 1.2-.211 2.297-.625 3.297a7.383 7.383 0 0 1-1.86 2.625c-.824.742-1.855 1.32-3.094 1.735-1.242.414-2.68.625-4.312.625-1.867 0-3.418-.262-4.656-.782-1.243-.52-2.243-1.164-3-1.937-.762-.77-1.305-1.613-1.625-2.531-.313-.926-.47-1.774-.47-2.547 0-.801.102-1.535.313-2.203a7.28 7.28 0 0 1 .875-1.813c.375-.55.797-1.05 1.266-1.5.469-.457.969-.89 1.5-1.297-1.148-.925-1.996-1.843-2.547-2.75-.543-.906-.812-2.066-.812-3.484 0-1.063.218-2.086.656-3.078a7.863 7.863 0 0 1 1.86-2.578c.8-.739 1.769-1.328 2.906-1.766 1.132-.437 2.394-.656 3.78-.656 1.626 0 3.016.234 4.173.703 1.164.469 2.117 1.062 2.859 1.781.75.719 1.29 1.528 1.625 2.422.332.887.5 1.773.5 2.656 0 1.282-.34 2.477-1.016 3.578-.68 1.106-1.527 1.98-2.546 2.625 1.52.98 2.609 2.012 3.265 3.094.656 1.086.985 2.344.985 3.781Zm-13.844.235c0 .324.07.68.219 1.062.144.387.378.742.703 1.063.32.324.734.594 1.234.812.508.211 1.125.313 1.844.313 1.383 0 2.394-.332 3.031-1 .645-.664.969-1.414.969-2.25 0-.613-.14-1.16-.422-1.64a4.266 4.266 0 0 0-1.14-1.25 8.103 8.103 0 0 0-1.704-.97 23.084 23.084 0 0 0-2.094-.78 8.21 8.21 0 0 0-1.89 1.968c-.5.742-.75 1.633-.75 2.672Zm7.406-13.156a2.7 2.7 0 0 0-.187-.938 2.6 2.6 0 0 0-.594-.937 3.586 3.586 0 0 0-1.063-.735c-.43-.207-.949-.312-1.562-.312-.586 0-1.09.093-1.516.28-.43.188-.781.438-1.062.75a3.06 3.06 0 0 0-.625.97c-.137.343-.203.68-.203 1 0 .855.312 1.656.937 2.406.633.742 1.711 1.383 3.234 1.922.852-.54 1.504-1.156 1.954-1.844.457-.695.687-1.55.687-2.562Zm22.36 12.484c0-.77-.18-1.457-.53-2.063-.345-.601-.946-1.101-1.798-1.5-.855-.394-2-.695-3.437-.906-1.438-.219-3.25-.328-5.438-.328.29-2.488.532-5.008.72-7.562.187-2.563.331-4.961.437-7.204h15v5h-10c-.055.961-.118 1.887-.188 2.782-.062.898-.137 1.68-.219 2.343 3.895.262 6.77 1.172 8.625 2.735 1.852 1.562 2.782 3.73 2.782 6.5 0 1.281-.23 2.469-.688 3.562a7.61 7.61 0 0 1-2.031 2.844c-.906.793-2.047 1.418-3.422 1.875-1.375.445-2.98.672-4.813.672-.73 0-1.492-.047-2.28-.14a29.875 29.875 0 0 1-2.266-.36 33.647 33.647 0 0 1-1.985-.453c-.586-.156-1.039-.317-1.36-.485l1.079-4.921c.664.304 1.547.593 2.64.875 1.094.273 2.399.406 3.922.406 1.844 0 3.176-.363 4-1.094.833-.738 1.25-1.598 1.25-2.578ZM57.344 55.813a7.27 7.27 0 0 1-.61 2.922c-.398.93-.918 1.828-1.562 2.703a21.84 21.84 0 0 1-2.156 2.5 122.18 122.18 0 0 1-2.36 2.265c-.398.375-.828.797-1.297 1.266a34.866 34.866 0 0 0-2.484 2.766c-.336.406-.54.746-.61 1.015h11.923v5H39.703a6.209 6.209 0 0 1-.078-1.11v-.968c0-1.281.203-2.453.61-3.516.413-1.07.956-2.066 1.624-2.984a19.415 19.415 0 0 1 2.25-2.578c.844-.8 1.68-1.602 2.516-2.406.633-.614 1.234-1.192 1.797-1.735a20.189 20.189 0 0 0 1.484-1.61 7.557 7.557 0 0 0 1-1.546c.239-.52.36-1.05.36-1.594 0-1.164-.336-1.988-1-2.468-.668-.477-1.496-.72-2.485-.72-.718 0-1.398.118-2.031.345-.625.218-1.2.484-1.719.796-.511.305-.953.61-1.328.922-.375.305-.656.547-.844.735l-2.953-4.157c1.164-1.093 2.532-1.992 4.094-2.703a12.025 12.025 0 0 1 5.016-1.062c1.625 0 3.023.187 4.203.562 1.176.375 2.144.903 2.906 1.578a6.077 6.077 0 0 1 1.672 2.485c.363.969.547 2.07.547 3.297Zm13.826 7.39c-.585 0-1.21.059-1.874.172-.668.106-1.188.25-1.563.438 0 .105-.007.265-.015.484-.012.211-.016.39-.016.547 0 .969.063 1.883.188 2.734.132.844.363 1.59.687 2.235.32.636.75 1.136 1.281 1.5.532.355 1.196.53 2 .53.664 0 1.235-.132 1.703-.405a3.772 3.772 0 0 0 1.157-1.063c.3-.426.523-.898.672-1.422.156-.52.234-1.02.234-1.5 0-1.363-.344-2.41-1.031-3.14-.68-.739-1.82-1.11-3.422-1.11Zm.766-4.64c1.727 0 3.196.234 4.407.703 1.218.469 2.21 1.105 2.984 1.906a7.1 7.1 0 0 1 1.688 2.797c.343 1.062.515 2.2.515 3.406 0 1.063-.195 2.156-.578 3.281a9.123 9.123 0 0 1-1.766 3.032c-.78.906-1.78 1.656-3 2.25-1.21.582-2.636.875-4.28.875-3.337 0-5.872-1.051-7.61-3.157-1.73-2.113-2.594-5.02-2.594-8.718 0-2.664.41-5.024 1.234-7.078.82-2.063 2-3.79 3.532-5.188 1.539-1.406 3.394-2.473 5.562-3.203 2.176-.727 4.625-1.11 7.344-1.14.05.823.102 1.632.156 2.421.063.793.117 1.61.172 2.453a23.24 23.24 0 0 0-3.828.39 13.06 13.06 0 0 0-3.25 1.063 8.92 8.92 0 0 0-2.531 1.86c-.719.761-1.278 1.687-1.672 2.781a7.104 7.104 0 0 1 1.797-.562 9.516 9.516 0 0 1 1.718-.172Zm0 0"/>
  <path d="m355.762 10.207.453.043.441.063.442.085.43.094.429.113.414.137.414.14.406.169.395.168.387.195.386.207.364.223.363.234.351.242.344.266.328.27.32.285.31.3.3.309.285.32.27.328.258.344.25.352.234.363.223.363.199.387.195.387.176.398.168.403.14.414.137.421.106.422.101.434.078.437.067.45.047.449.03.453.005.465v334.933l-.004.461-.031.457-.047.45-.067.441-.078.438-.101.433-.106.43-.137.414-.14.414-.168.41-.176.39-.195.387-.2.38-.222.37-.234.364-.25.351-.258.344-.27.328-.285.32-.3.31-.31.3-.32.285-.328.27-.344.257-.351.25-.363.239-.364.214-.386.207-.387.192-.395.18-.406.164-.414.14-.414.13-.43.116-.43.098-.44.078-.442.067-.453.05-.457.028-.457.007H19.91l-.457-.007-.457-.028-.45-.05-.448-.067-.438-.078-.433-.098-.422-.117-.422-.129-.414-.14-.403-.164-.398-.18-.387-.192-.379-.207-.37-.214-.364-.239-.352-.25-.343-.257-.328-.27-.32-.285-.31-.3-.3-.31-.285-.32-.27-.328-.258-.344-.25-.351-.238-.364-.219-.37-.207-.38-.187-.386-.18-.39-.164-.411-.14-.414-.137-.414-.114-.43-.093-.433-.086-.438-.059-.441-.05-.45-.028-.457-.008-.46V21.34l.008-.465.027-.453.051-.45.059-.449.086-.437.093-.434.114-.422.136-.421.141-.414.164-.403.18-.398.187-.387.207-.387.22-.363.237-.363.25-.352.258-.344.27-.328.285-.32.3-.309.31-.3.32-.286.328-.27.343-.265.352-.242.363-.234.371-.223.38-.207.386-.195.398-.168.403-.168.414-.14.422-.138.422-.113.433-.094.438-.085.449-.063.45-.043.456-.031.457-.004h334.938l.457.004ZM28.187 18.914l-.457.031-.453.043-.441.063-.445.086-.426.093-.43.114-.422.136-.406.145-.41.164-.39.172-.395.191-.38.207-.37.223-.356.234-.351.243-.344.265-.328.27-.32.289-.31.297-.3.308-.285.32-.27.333-.265.34-.242.351-.239.355-.218.375-.207.375-.188.395-.18.395-.164.406-.14.406-.137.422-.113.43-.094.43-.086.44-.059.442-.046.453-.032.457-.008.457v317.465l.008.457.032.461.046.45.059.44.086.438.094.434.113.43.137.414.14.414.164.41.18.39.188.387.207.38.218.37.239.363.242.352.265.344.27.328.285.32.3.309.31.3.32.286.328.27.344.257.351.25.356.238.37.211.38.207.394.196.39.18.411.163.406.141.422.129.43.113.426.102.445.078.441.066.453.047.457.031.458.008h317.464l.457-.008.457-.03.454-.048.441-.066.441-.078.43-.102.43-.113.414-.129.414-.14.406-.165.395-.18.386-.195.383-.207.367-.21.364-.239.351-.25.34-.258.332-.27.32-.284.309-.301.297-.309.289-.32.27-.328.257-.344.25-.352.235-.363.222-.37.2-.38.195-.387.176-.39.164-.41.144-.414.137-.414.105-.43.102-.434.078-.437.063-.442.05-.449.032-.46.004-.458V30.07l-.004-.457-.032-.457-.05-.453-.063-.441-.078-.442-.102-.43-.105-.43-.137-.42-.144-.407-.164-.406-.176-.395-.195-.39-.2-.38-.222-.375-.235-.355-.25-.352-.258-.34-.27-.331-.288-.32-.297-.31-.309-.296-.32-.29-.332-.269-.34-.265-.351-.243-.364-.234-.367-.223-.383-.207-.386-.191-.395-.172-.406-.164-.414-.145-.414-.136-.43-.114-.43-.093-.441-.086-.441-.063-.454-.043-.457-.03-.457-.005H28.645Zm0 0"/>
</svg>
