<svg xmlns="http://www.w3.org/2000/svg" version="1.2" viewBox="0 0 375 375">
  <path d="M155.098 196.771c-15.773 0-27.789-4.383-36.047-13.156-8.25-8.77-12.375-21.223-12.375-37.36 0-8.019 1.258-15.18 3.782-21.484 2.52-6.3 5.968-11.617 10.343-15.953 4.383-4.344 9.61-7.633 15.672-9.875 6.07-2.238 12.656-3.36 19.75-3.36 4.102 0 7.832.31 11.188.923 3.363.605 6.3 1.304 8.812 2.093 2.52.793 4.617 1.61 6.297 2.453 1.688.836 2.899 1.485 3.64 1.954l-6.296 17.64c-2.98-1.582-6.453-2.93-10.422-4.047-3.969-1.125-8.469-1.687-13.5-1.687-3.367 0-6.656.562-9.875 1.687-3.219 1.118-6.063 2.907-8.531 5.375-2.469 2.47-4.453 5.668-5.953 9.594-1.493 3.918-2.235 8.672-2.235 14.266 0 4.48.489 8.656 1.469 12.531.977 3.867 2.562 7.2 4.75 10 2.195 2.805 5.066 5.023 8.61 6.656 3.55 1.625 7.843 2.438 12.874 2.438 3.176 0 6.024-.18 8.547-.547 2.52-.375 4.758-.817 6.719-1.328 1.957-.52 3.68-1.102 5.172-1.75a262.82 262.82 0 0 0 4.062-1.828l6.016 17.5c-3.086 1.867-7.422 3.543-13.016 5.03-5.593 1.49-12.078 2.235-19.453 2.235Zm113.926-38.906c0 5.793-.843 11.09-2.53 15.89-1.68 4.805-4.106 8.907-7.282 12.313-3.168 3.406-6.969 6.043-11.406 7.906-4.43 1.864-9.391 2.797-14.891 2.797-5.418 0-10.34-.933-14.766-2.797-4.43-1.863-8.23-4.5-11.406-7.906-3.18-3.406-5.652-7.508-7.422-12.312-1.773-4.801-2.656-10.098-2.656-15.891 0-5.781.906-11.05 2.719-15.813 1.82-4.757 4.344-8.816 7.562-12.171 3.219-3.364 7.04-5.977 11.469-7.844 4.438-1.863 9.27-2.797 14.5-2.797 5.313 0 10.18.934 14.61 2.797 4.437 1.867 8.238 4.48 11.406 7.844 3.175 3.355 5.648 7.414 7.422 12.171 1.78 4.762 2.671 10.032 2.671 15.813Zm-21.28 0c0-6.438-1.282-11.492-3.845-15.172-2.562-3.687-6.226-5.531-10.984-5.531-4.762 0-8.45 1.844-11.062 5.531-2.606 3.68-3.907 8.734-3.907 15.172 0 6.437 1.301 11.547 3.907 15.328 2.613 3.781 6.3 5.672 11.062 5.672 4.758 0 8.422-1.89 10.984-5.672 2.563-3.781 3.844-8.89 3.844-15.328Zm-107.84 108.32c-4.511 0-7.949-1.25-10.312-3.75-2.356-2.508-3.531-6.07-3.531-10.688 0-2.289.359-4.336 1.078-6.14.718-1.801 1.703-3.32 2.953-4.563 1.258-1.238 2.754-2.176 4.484-2.812 1.738-.645 3.617-.969 5.64-.969 1.177 0 2.243.09 3.204.266.957.168 1.797.367 2.516.593a13.11 13.11 0 0 1 2.843 1.266l-1.797 5.031c-.855-.445-1.851-.832-2.984-1.156-1.137-.32-2.422-.484-3.86-.484-.96 0-1.902.164-2.827.484a6.45 6.45 0 0 0-2.438 1.547c-.7.699-1.262 1.61-1.687 2.734-.43 1.117-.641 2.477-.641 4.078 0 1.282.133 2.477.406 3.578.281 1.106.735 2.059 1.36 2.86.632.805 1.457 1.437 2.468 1.906 1.008.469 2.239.703 3.688.703.906 0 1.719-.05 2.437-.156a18.68 18.68 0 0 0 1.907-.39 9.826 9.826 0 0 0 1.484-.5l1.172-.516 1.719 5c-.887.531-2.133 1.011-3.735 1.437-1.594.426-3.445.64-5.547.64Zm32.561-11.125c0 1.656-.242 3.172-.719 4.547-.48 1.375-1.18 2.547-2.094 3.515a9.505 9.505 0 0 1-3.265 2.266c-1.262.531-2.68.797-4.25.797-1.543 0-2.95-.266-4.22-.797a9.656 9.656 0 0 1-3.265-2.266c-.906-.968-1.617-2.14-2.125-3.515-.5-1.375-.75-2.89-.75-4.547 0-1.656.258-3.16.781-4.516.52-1.363 1.239-2.523 2.157-3.484a9.81 9.81 0 0 1 3.281-2.235c1.27-.53 2.648-.796 4.14-.796 1.52 0 2.91.265 4.172.796a9.48 9.48 0 0 1 3.266 2.235c.906.96 1.613 2.12 2.125 3.484.508 1.356.766 2.86.766 4.516Zm-6.078 0c0-1.832-.372-3.274-1.11-4.328-.73-1.063-1.777-1.594-3.14-1.594-1.356 0-2.407.531-3.157 1.594-.75 1.054-1.125 2.496-1.125 4.328 0 1.844.375 3.308 1.125 4.39.75 1.075 1.801 1.61 3.157 1.61 1.363 0 2.41-.535 3.14-1.61.738-1.082 1.11-2.546 1.11-4.39Zm24.154-.125c0-3.832-1.414-5.75-4.234-5.75-.617 0-1.227.086-1.828.25-.606.156-1.09.355-1.453.594v10.828a15.964 15.964 0 0 0 2.594.203c1.625 0 2.847-.555 3.671-1.672.832-1.125 1.25-2.61 1.25-4.453Zm6.079.172c0 1.68-.25 3.199-.75 4.562-.493 1.356-1.204 2.512-2.141 3.469-.93.96-2.074 1.7-3.438 2.219-1.355.52-2.898.781-4.625.781-.73 0-1.492-.04-2.28-.11a43.614 43.614 0 0 1-2.313-.25 31.354 31.354 0 0 1-2.172-.374c-.7-.145-1.313-.301-1.844-.47v-29.39l5.969-.969v10.485a11.13 11.13 0 0 1 2.078-.672c.719-.164 1.488-.25 2.312-.25 1.5 0 2.82.262 3.97.781a7.82 7.82 0 0 1 2.874 2.219c.77.96 1.352 2.117 1.75 3.469.406 1.343.61 2.843.61 4.5Zm12.644 6.359c.582 0 1.14-.008 1.672-.031.53-.031.957-.07 1.28-.125v-4.531a12.79 12.79 0 0 0-1.077-.157c-.48-.05-.918-.078-1.313-.078-.562 0-1.094.04-1.594.11a4.001 4.001 0 0 0-1.296.375 2.307 2.307 0 0 0-.891.765c-.211.313-.313.711-.313 1.188 0 .937.313 1.59.938 1.953.633.355 1.5.531 2.594.531Zm-.485-17.437c1.758 0 3.223.199 4.39.593 1.177.399 2.118.97 2.83 1.72.706.75 1.206 1.663 1.5 2.733.288 1.063.437 2.247.437 3.547v12.407a73.67 73.67 0 0 1-3.563.656c-1.512.25-3.351.375-5.516.375-1.355 0-2.59-.121-3.703-.36-1.105-.238-2.058-.628-2.86-1.171a5.485 5.485 0 0 1-1.827-2.141c-.43-.883-.64-1.969-.64-3.25 0-1.219.241-2.254.734-3.11a5.718 5.718 0 0 1 1.968-2.046c.832-.508 1.782-.875 2.844-1.094a16.03 16.03 0 0 1 3.328-.344c.77 0 1.453.04 2.047.11a9.568 9.568 0 0 1 1.469.25v-.563c0-1.008-.309-1.82-.922-2.437-.617-.614-1.68-.922-3.188-.922a20.8 20.8 0 0 0-3.015.218c-.98.149-1.828.356-2.547.625l-.766-4.796a14.07 14.07 0 0 1 1.297-.344c.52-.125 1.086-.235 1.703-.328a32.544 32.544 0 0 1 1.938-.235 22.387 22.387 0 0 1 2.062-.093Zm22.964 22c-1.742-.032-3.152-.22-4.234-.563-1.075-.351-1.922-.844-2.547-1.469a4.836 4.836 0 0 1-1.282-2.265c-.23-.895-.343-1.907-.343-3.032v-23.156l5.968-.969v22.922c0 .543.036 1.028.11 1.453.082.418.238.778.469 1.079.226.293.55.53.968.718.426.188 1.004.309 1.735.36Zm4.03-26.688 5.97-.953v6.187h7.155v4.97h-7.156v7.39c0 1.262.219 2.265.656 3.015.438.743 1.32 1.11 2.657 1.11a11.106 11.106 0 0 0 3.844-.672l.843 4.64a16.18 16.18 0 0 1-2.406.75c-.875.22-1.953.329-3.234.329-1.625 0-2.977-.219-4.047-.657-1.063-.445-1.918-1.062-2.563-1.843-.637-.79-1.086-1.742-1.344-2.86-.25-1.125-.375-2.363-.375-3.718Zm-84.227 80.878c0-.77-.18-1.457-.531-2.063-.344-.601-.945-1.101-1.797-1.5-.856-.394-2-.695-3.438-.906-1.437-.219-3.25-.328-5.437-.328.289-2.488.531-5.008.719-7.563.187-2.562.332-4.96.437-7.203h15v5h-10a127.06 127.06 0 0 1-.187 2.782c-.063.898-.137 1.68-.219 2.343 3.894.262 6.77 1.172 8.625 2.735 1.852 1.562 2.781 3.73 2.781 6.5 0 1.28-.23 2.468-.687 3.562a7.61 7.61 0 0 1-2.032 2.844c-.906.793-2.046 1.418-3.421 1.875-1.375.445-2.98.672-4.813.672-.73 0-1.492-.047-2.281-.14a29.875 29.875 0 0 1-2.266-.36c-.73-.145-1.39-.297-1.984-.453-.586-.157-1.04-.317-1.36-.485l1.079-4.922c.664.305 1.546.594 2.64.875 1.094.274 2.399.407 3.922.407 1.844 0 3.176-.364 4-1.094.832-.738 1.25-1.598 1.25-2.578Zm29.517.437c0 1.2-.211 2.297-.625 3.297a7.383 7.383 0 0 1-1.86 2.625c-.824.742-1.855 1.32-3.093 1.735-1.243.414-2.68.625-4.313.625-1.867 0-3.418-.262-4.656-.782-1.242-.52-2.242-1.164-3-1.937-.762-.77-1.305-1.613-1.625-2.531-.313-.926-.469-1.774-.469-2.547 0-.801.102-1.535.313-2.203a7.28 7.28 0 0 1 .875-1.813c.375-.55.797-1.05 1.265-1.5.469-.457.969-.89 1.5-1.297-1.148-.926-1.996-1.844-2.547-2.75-.543-.906-.812-2.066-.812-3.484 0-1.063.219-2.086.656-3.078a7.863 7.863 0 0 1 1.86-2.578c.8-.739 1.77-1.329 2.906-1.766 1.133-.438 2.394-.656 3.781-.656 1.625 0 3.016.234 4.172.703 1.164.469 2.117 1.062 2.86 1.781.75.719 1.288 1.527 1.624 2.422.332.887.5 1.773.5 2.656 0 1.281-.34 2.477-1.015 3.578-.68 1.106-1.528 1.98-2.547 2.625 1.52.98 2.61 2.012 3.265 3.094.657 1.086.985 2.344.985 3.781Zm-13.844.235c0 .324.07.68.219 1.062.144.387.379.742.703 1.063.32.324.734.593 1.234.812.508.211 1.125.313 1.844.313 1.383 0 2.395-.332 3.031-1 .645-.664.969-1.414.969-2.25 0-.614-.14-1.16-.422-1.64a4.266 4.266 0 0 0-1.14-1.25 8.103 8.103 0 0 0-1.704-.97 23.084 23.084 0 0 0-2.093-.78 8.21 8.21 0 0 0-1.891 1.968c-.5.742-.75 1.633-.75 2.672Zm7.406-13.157a2.7 2.7 0 0 0-.187-.937 2.6 2.6 0 0 0-.594-.938 3.586 3.586 0 0 0-1.062-.734c-.43-.207-.95-.312-1.563-.312-.586 0-1.09.093-1.516.28-.43.188-.78.438-1.062.75a3.06 3.06 0 0 0-.625.97c-.137.343-.203.68-.203 1 0 .855.312 1.656.937 2.406.633.742 1.711 1.383 3.235 1.922.851-.54 1.504-1.157 1.953-1.844.457-.695.687-1.55.687-2.563Zm16.595 17.485c0 1.199-.383 2.11-1.14 2.734-.762.625-1.622.938-2.579.938-.96 0-1.82-.313-2.578-.938-.761-.625-1.14-1.535-1.14-2.734 0-1.196.379-2.11 1.14-2.735.758-.632 1.617-.953 2.578-.953.957 0 1.817.32 2.578.953.758.625 1.141 1.54 1.141 2.735Zm12.762-11.719c.613 0 1.254-.055 1.922-.172.664-.125 1.156-.297 1.469-.515v-.36c0-.101.003-.207.015-.312a1.75 1.75 0 0 0 .031-.282 22.022 22.022 0 0 0-.25-2.703c-.125-.843-.351-1.578-.671-2.203a3.775 3.775 0 0 0-1.313-1.469c-.543-.363-1.21-.546-2-.546-.648 0-1.21.136-1.687.406-.48.262-.868.605-1.157 1.031-.293.43-.511.898-.656 1.406-.148.5-.219.992-.219 1.47 0 1.448.348 2.522 1.047 3.218.707.687 1.863 1.031 3.469 1.031Zm2.922 3.875a7.221 7.221 0 0 1-1.875.594 10.44 10.44 0 0 1-1.735.172c-1.73 0-3.21-.207-4.437-.625-1.23-.414-2.242-1.004-3.031-1.766a6.998 6.998 0 0 1-1.735-2.734c-.367-1.063-.547-2.235-.547-3.516 0-1.07.176-2.164.532-3.281a9.002 9.002 0 0 1 1.703-3.063c.77-.914 1.75-1.675 2.937-2.28 1.188-.603 2.617-.907 4.297-.907 3.445 0 6.04 1.062 7.781 3.187 1.75 2.117 2.625 5.164 2.625 9.14 0 2.618-.343 4.923-1.03 6.923-.68 2-1.731 3.683-3.157 5.047-1.418 1.355-3.234 2.386-5.453 3.093-2.211.711-4.836 1.07-7.875 1.094a90.625 90.625 0 0 0-.125-2.469c-.055-.8-.106-1.628-.156-2.484 1.52-.031 2.89-.144 4.109-.344 1.226-.195 2.305-.53 3.234-1a7.477 7.477 0 0 0 2.39-1.86c.657-.769 1.173-1.741 1.548-2.92Zm17.36 11.594c-.719 0-1.48-.047-2.281-.14a26.337 26.337 0 0 1-2.328-.376 23.58 23.58 0 0 1-2.031-.515 12.157 12.157 0 0 1-1.438-.516l1.156-4.969c.688.293 1.57.606 2.657.938 1.082.336 2.421.5 4.015.5 1.844 0 3.192-.344 4.047-1.032.852-.695 1.281-1.628 1.281-2.796 0-.727-.156-1.336-.468-1.829a3.48 3.48 0 0 0-1.25-1.187c-.532-.313-1.168-.524-1.907-.64a13.9 13.9 0 0 0-2.343-.188h-2.313v-4.797h2.64c.583 0 1.145-.05 1.688-.156a4.833 4.833 0 0 0 1.469-.547 2.87 2.87 0 0 0 1.016-1.047c.257-.438.39-.988.39-1.656 0-.508-.11-.946-.328-1.313a2.85 2.85 0 0 0-.812-.922 3.576 3.576 0 0 0-1.172-.53 4.826 4.826 0 0 0-1.328-.188c-1.149 0-2.211.171-3.188.515a13.17 13.17 0 0 0-2.656 1.281l-2.125-4.359a18.8 18.8 0 0 1 1.5-.844c.57-.289 1.203-.554 1.89-.797a17.344 17.344 0 0 1 2.22-.593c.788-.164 1.628-.25 2.515-.25 1.625 0 3.031.195 4.219.578 1.187.387 2.164.933 2.937 1.64a6.73 6.73 0 0 1 1.719 2.485c.375.949.562 1.98.562 3.094 0 1.093-.308 2.156-.922 3.187a6.097 6.097 0 0 1-2.468 2.328c1.437.594 2.547 1.469 3.328 2.625.789 1.156 1.187 2.555 1.187 4.188 0 1.28-.214 2.465-.64 3.547a7.223 7.223 0 0 1-2 2.796c-.907.782-2.063 1.391-3.469 1.829-1.398.437-3.055.656-4.969.656ZM57.344 55.813a7.27 7.27 0 0 1-.61 2.922c-.398.93-.918 1.828-1.562 2.703a21.84 21.84 0 0 1-2.156 2.5 122.18 122.18 0 0 1-2.36 2.265c-.398.375-.828.797-1.297 1.266a34.866 34.866 0 0 0-2.484 2.766c-.336.406-.54.746-.61 1.015h11.923v5H39.703a6.209 6.209 0 0 1-.078-1.11v-.968c0-1.281.203-2.453.61-3.516.413-1.07.956-2.066 1.624-2.984a19.415 19.415 0 0 1 2.25-2.578c.844-.8 1.68-1.602 2.516-2.406.633-.614 1.234-1.192 1.797-1.735a20.189 20.189 0 0 0 1.484-1.61 7.557 7.557 0 0 0 1-1.546c.239-.52.36-1.05.36-1.594 0-1.164-.336-1.988-1-2.468-.668-.477-1.496-.72-2.485-.72-.718 0-1.398.118-2.031.345-.625.218-1.2.484-1.719.796-.511.305-.953.61-1.328.922-.375.305-.656.547-.844.735l-2.953-4.157c1.164-1.093 2.532-1.992 4.094-2.703a12.025 12.025 0 0 1 5.016-1.062c1.625 0 3.023.187 4.203.562 1.176.375 2.144.903 2.906 1.578a6.077 6.077 0 0 1 1.672 2.485c.363.969.547 2.07.547 3.297Zm8.561 20.437c.156-1.945.485-3.973.985-6.078a59.072 59.072 0 0 1 1.859-6.187 53.583 53.583 0 0 1 2.469-5.75c.906-1.801 1.828-3.36 2.765-4.672H61.936v-5.078h19.407v4.328c-.856.93-1.797 2.218-2.828 3.875-1.024 1.656-1.996 3.53-2.922 5.625a53.19 53.19 0 0 0-2.407 6.75 34.54 34.54 0 0 0-1.25 7.187Zm0 0"/>
  <path d="m355.762 10.207.453.043.441.063.442.085.43.094.429.113.414.137.414.14.406.165.395.172.387.195.386.207.364.223.363.234.351.242.344.266.328.27.32.285.31.3.3.309.285.32.27.328.258.344.25.352.234.363.223.363.199.387.195.387.176.398.168.403.14.414.137.421.106.422.101.434.078.437.067.45.047.449.03.453.005.465v334.933l-.004.457-.031.461-.047.45-.067.441-.078.438-.101.433-.106.43-.137.414-.14.414-.168.41-.176.39-.195.387-.2.38-.222.37-.234.364-.25.351-.258.344-.27.328-.285.32-.3.31-.31.3-.32.285-.328.27-.344.257-.351.25-.363.239-.364.21-.386.212-.387.19-.395.18-.406.165-.414.14-.414.13-.43.112-.43.102-.44.078-.442.067-.453.046-.457.032-.457.007H19.91l-.457-.007-.457-.032-.45-.046-.448-.067-.438-.078-.433-.102-.422-.113-.422-.129-.414-.14-.403-.164-.398-.18-.387-.192-.379-.21-.37-.211-.364-.239-.352-.25-.343-.257-.328-.27-.32-.285-.31-.3-.3-.31-.285-.32-.27-.328-.258-.344-.25-.351-.238-.364-.219-.37-.207-.38-.187-.386-.18-.39-.164-.411-.14-.414-.137-.414-.114-.43-.093-.433-.086-.438-.059-.441-.05-.45-.028-.46-.008-.458V21.34l.008-.465.027-.453.051-.45.059-.449.086-.437.093-.434.114-.422.136-.421.141-.414.164-.403.18-.398.187-.387.207-.387.22-.363.237-.363.25-.352.258-.344.27-.328.285-.32.3-.309.31-.3.32-.286.328-.27.343-.265.352-.242.363-.234.371-.223.38-.207.386-.195.398-.172.403-.164.414-.14.422-.138.422-.113.433-.094.438-.085.449-.063.45-.043.456-.031.457-.008h334.938l.457.008ZM28.187 18.914l-.457.031-.453.043-.441.063-.445.086-.426.093-.43.114-.422.136-.406.145-.41.164-.39.168-.395.195-.38.207-.37.223-.356.234-.351.243-.344.265-.328.27-.32.289-.31.297-.3.308-.285.32-.27.329-.265.343-.242.352-.239.355-.218.372-.207.378-.188.395-.18.395-.164.406-.14.406-.137.422-.113.43-.094.43-.086.44-.059.442-.046.453-.032.457-.008.457v317.465l.008.457.032.457.046.453.059.442.086.437.094.434.113.43.137.414.14.414.164.406.18.394.188.387.207.38.218.37.239.363.242.352.265.344.27.328.285.32.3.309.31.3.32.286.328.27.344.257.351.25.356.234.37.215.38.207.394.196.39.18.411.163.406.141.422.129.43.113.426.102.445.078.441.066.453.047.457.031.458.008h317.464l.457-.008.457-.03.454-.048.441-.066.441-.078.43-.102.43-.113.414-.129.414-.14.406-.165.395-.18.386-.195.383-.207.367-.215.364-.234.351-.25.34-.258.332-.27.32-.284.309-.301.297-.309.289-.32.27-.328.257-.344.25-.352.235-.363.222-.37.2-.38.195-.387.176-.394.164-.406.144-.414.137-.414.105-.43.102-.434.078-.437.063-.442.05-.453.032-.457.004-.457V30.07l-.004-.457-.032-.457-.05-.453-.063-.441-.078-.442-.102-.43-.105-.43-.137-.42-.144-.407-.164-.406-.176-.395-.195-.395-.2-.378-.222-.372-.235-.355-.25-.352-.258-.343-.27-.328-.288-.32-.297-.31-.309-.296-.32-.29-.332-.269-.34-.265-.351-.243-.364-.234-.367-.223-.383-.207-.386-.195-.395-.168-.406-.164-.414-.145-.414-.136-.43-.114-.43-.093-.441-.086-.441-.063-.454-.043-.457-.03-.457-.005H28.645Zm0 0"/>
</svg>
