<svg xmlns="http://www.w3.org/2000/svg" version="1.2" viewBox="0 0 375 375">
  <path d="m359.121 5.996.461.043.45.066.448.086.438.094.437.117.422.137.422.145.414.168.399.175.39.196.395.21.371.227.371.238.356.25.347.266.336.277.328.293.313.305.304.313.29.324.277.336.262.347.253.36.239.367.226.371.203.395.2.39.18.41.167.407.145.421.137.426.109.43.101.445.083.442.066.46.05.458.028.457.008.472v340.74l-.008.464-.027.465-.051.461-.066.45-.082.445-.102.441-.11.438-.136.422-.145.421-.168.414-.18.399-.199.39-.203.387-.226.38-.239.37-.253.356-.262.347-.277.336-.29.328-.304.313-.313.305-.328.289-.336.277-.347.262-.356.254-.371.242-.371.215-.395.21-.39.2-.399.18-.414.168-.422.144-.422.133-.437.113-.438.102-.449.082-.449.066-.46.05-.466.028-.465.008H17.453l-.465-.008-.465-.027-.457-.05-.46-.067-.442-.082-.445-.102-.43-.113-.426-.133-.422-.144-.406-.168-.41-.18-.39-.2-.387-.21-.38-.215-.366-.242-.36-.254-.347-.262-.336-.277-.325-.29-.312-.304-.305-.313-.293-.328-.277-.336-.262-.347-.254-.356-.238-.37-.227-.38-.21-.386-.188-.391-.184-.399-.168-.414-.144-.421-.137-.422-.117-.438-.094-.441-.086-.446-.058-.449-.051-.46-.031-.466-.008-.464V17.32l.008-.472.03-.457.052-.457.058-.461.086-.442.094-.445.117-.43.137-.426.144-.421.168-.407.184-.41.187-.39.211-.395.227-.371.238-.367.254-.36.262-.347.277-.336.293-.324.305-.313.312-.305.325-.293.336-.277.347-.266.36-.25.367-.238.379-.226.386-.211.391-.196.41-.175.406-.168.422-.145.426-.137.43-.117.445-.094.441-.086.461-.066.457-.043.465-.031.465-.008h340.738l.465.008Zm-333.25 8.86-.465.03-.457.044-.453.062-.45.09-.437.094-.437.117-.426.137-.414.144-.414.168-.402.176-.399.195-.387.211-.378.227-.364.238-.355.246-.348.27-.336.277-.324.29-.313.308-.308.312-.29.324-.276.336-.27.348-.246.355-.238.364-.227.379-.21.386-.188.399-.184.402-.168.414-.145.414-.136.426-.117.438-.094.437-.09.45-.055.452-.05.457-.032.465-.008.465v322.965l.008.465.032.469.05.457.055.449.09.445.094.442.117.437.136.422.145.422.168.414.184.398.187.395.211.383.227.379.238.37.246.356.27.348.277.336.289.328.308.312.313.305.324.29.336.276.348.262.355.254.364.242.378.215.387.211.399.2.402.179.414.168.414.144.426.133.437.113.438.106.45.078.452.067.457.05.465.028.465.007H349.3l.465-.007.468-.028.457-.05.45-.067.453-.078.433-.106.438-.113.422-.133.422-.144.414-.168.398-.18.395-.199.39-.21.371-.216.371-.242.356-.254.348-.262.336-.277.328-.289.312-.305.305-.312.289-.328.277-.336.262-.348.254-.355.242-.371.223-.38.203-.382.199-.395.18-.398.168-.414.144-.422.14-.422.106-.437.106-.442.078-.445.066-.45.051-.456.027-.47.008-.464V26.203l-.008-.465-.027-.465-.05-.457-.067-.453-.078-.449-.211-.875-.14-.426-.145-.414-.168-.414-.18-.402-.2-.399-.202-.386-.223-.38-.242-.363-.254-.355-.262-.348-.277-.336-.29-.324-.304-.312-.312-.309-.329-.289-.335-.277-.348-.27-.356-.246-.37-.238-.372-.227-.39-.21-.395-.196-.398-.176-.414-.168-.422-.144-.422-.137-.438-.117-.433-.094-.453-.09-.45-.062-.457-.043-.468-.032-.465-.007H26.336Zm0 0"/>
  <path d="M143.546 178.162c3.082 0 5.625-.254 7.625-.766 2.007-.508 3.617-1.207 4.828-2.094 1.218-.894 2.062-1.945 2.53-3.156.47-1.207.704-2.562.704-4.062 0-3.164-1.496-5.797-4.484-7.891-2.993-2.102-8.121-4.367-15.391-6.797a120.914 120.914 0 0 1-9.531-3.844c-3.168-1.445-6.012-3.265-8.531-5.453-2.524-2.195-4.575-4.86-6.157-7.984-1.586-3.133-2.375-6.938-2.375-11.406 0-4.477.836-8.516 2.516-12.11a25.774 25.774 0 0 1 7.14-9.172c3.083-2.52 6.813-4.457 11.188-5.812 4.383-1.352 9.332-2.031 14.844-2.031 6.531 0 12.176.703 16.937 2.109 4.758 1.398 8.676 2.934 11.75 4.61l-6.297 17.218c-2.71-1.394-5.718-2.629-9.03-3.703-3.313-1.07-7.306-1.61-11.97-1.61-5.218 0-8.976.727-11.265 2.172-2.281 1.438-3.422 3.653-3.422 6.641 0 1.774.414 3.266 1.25 4.484.844 1.211 2.035 2.305 3.578 3.282 1.54.98 3.313 1.867 5.313 2.656 2.007.793 4.226 1.61 6.656 2.453 5.039 1.867 9.426 3.711 13.156 5.531 3.727 1.825 6.828 3.95 9.297 6.375a22.879 22.879 0 0 1 5.531 8.532c1.219 3.261 1.828 7.226 1.828 11.89 0 9.055-3.172 16.074-9.515 21.063-6.344 4.992-15.914 7.484-28.703 7.484-4.293 0-8.165-.258-11.61-.766-3.45-.511-6.508-1.136-9.172-1.875-2.656-.75-4.945-1.546-6.86-2.39-1.905-.844-3.515-1.633-4.827-2.375l6.172-17.36c2.882 1.586 6.445 3.008 10.687 4.266 4.25 1.262 9.453 1.89 15.61 1.89Zm50.11-19.594c0-6.531 1-12.242 3-17.14 2.008-4.895 4.645-8.973 7.907-12.235 3.27-3.27 7.023-5.742 11.265-7.422 4.25-1.687 8.614-2.531 13.094-2.531 10.445 0 18.703 3.2 24.766 9.594 6.07 6.386 9.11 15.789 9.11 28.203a61.8 61.8 0 0 1-.142 3.984c-.093 1.45-.187 2.73-.28 3.844h-47.313c.468 4.293 2.472 7.7 6.015 10.219 3.551 2.523 8.313 3.78 14.282 3.78 3.82 0 7.578-.347 11.265-1.046 3.688-.695 6.696-1.563 9.031-2.594l2.797 16.938c-1.117.562-2.61 1.125-4.484 1.687-1.867.555-3.945 1.035-6.234 1.453a92.44 92.44 0 0 1-7.344 1.047 72.888 72.888 0 0 1-7.828.422c-6.625 0-12.387-.98-17.282-2.937-4.898-1.957-8.953-4.641-12.171-8.047-3.22-3.407-5.602-7.438-7.141-12.094-1.543-4.664-2.313-9.707-2.313-15.125Zm48.985-7.969a21.811 21.811 0 0 0-.906-5.187 12.915 12.915 0 0 0-2.375-4.469c-1.075-1.313-2.43-2.383-4.063-3.219-1.637-.844-3.668-1.265-6.094-1.265-2.336 0-4.34.398-6.015 1.187-1.68.793-3.078 1.844-4.203 3.156-1.118 1.305-1.98 2.82-2.594 4.547a29.716 29.716 0 0 0-1.328 5.25ZM110.367 260.895c.875 0 1.597-.07 2.172-.218.57-.145 1.03-.344 1.375-.594.351-.25.593-.547.718-.89.133-.352.204-.743.204-1.173 0-.906-.43-1.656-1.282-2.25-.843-.601-2.308-1.254-4.39-1.953a29.271 29.271 0 0 1-2.72-1.094 10.325 10.325 0 0 1-2.452-1.562 7.479 7.479 0 0 1-1.766-2.281c-.449-.895-.672-1.985-.672-3.266 0-1.27.239-2.422.719-3.453a7.523 7.523 0 0 1 2.047-2.625c.883-.719 1.953-1.27 3.203-1.656 1.25-.383 2.66-.578 4.234-.578 1.864 0 3.477.203 4.844.609 1.363.398 2.485.836 3.36 1.312l-1.797 4.922a16.274 16.274 0 0 0-2.578-1.062c-.95-.313-2.09-.469-3.422-.469-1.5 0-2.578.211-3.235.625-.648.418-.968 1.055-.968 1.906 0 .5.117.93.359 1.282.238.343.578.656 1.016.937.445.281.957.54 1.53.766.571.218 1.204.449 1.891.687a40.83 40.83 0 0 1 3.75 1.578c1.07.524 1.961 1.133 2.672 1.828a6.459 6.459 0 0 1 1.578 2.438c.352.937.532 2.074.532 3.406 0 2.586-.914 4.59-2.735 6.016-1.812 1.43-4.543 2.14-8.187 2.14-1.23 0-2.34-.074-3.328-.218a22.941 22.941 0 0 1-2.625-.532 16.14 16.14 0 0 1-1.953-.687c-.543-.238-1-.469-1.375-.688l1.75-4.953c.832.45 1.851.856 3.062 1.22 1.219.355 2.707.53 4.469.53Zm14.311-5.593c0-1.864.285-3.493.86-4.891.57-1.406 1.32-2.57 2.25-3.5a9.42 9.42 0 0 1 3.218-2.125 10.218 10.218 0 0 1 3.75-.719c2.988 0 5.348.914 7.078 2.735 1.738 1.824 2.61 4.511 2.61 8.062 0 .344-.016.727-.047 1.14-.024.407-.047.774-.079 1.094h-13.515c.133 1.231.707 2.204 1.719 2.922 1.007.72 2.367 1.078 4.078 1.078 1.093 0 2.164-.097 3.218-.296 1.051-.196 1.91-.442 2.579-.735l.796 4.828c-.312.168-.742.328-1.28.485-.532.156-1.126.289-1.782.406-.648.125-1.344.227-2.094.312a20.29 20.29 0 0 1-2.234.125c-1.899 0-3.547-.28-4.953-.843-1.399-.563-2.555-1.328-3.469-2.297a9.279 9.279 0 0 1-2.047-3.469c-.437-1.332-.656-2.77-.656-4.312Zm14-2.282a5.617 5.617 0 0 0-.266-1.484 3.573 3.573 0 0 0-1.828-2.188c-.469-.25-1.055-.375-1.75-.375-.668 0-1.242.118-1.719.344-.48.23-.882.531-1.203.906a4.268 4.268 0 0 0-.734 1.297 9.159 9.159 0 0 0-.375 1.5Zm18.766 13.047c-1.742-.031-3.152-.219-4.234-.562-1.075-.352-1.922-.844-2.547-1.469a4.836 4.836 0 0 1-1.282-2.266c-.23-.894-.343-1.906-.343-3.03v-23.157l5.968-.969v22.922c0 .543.036 1.027.11 1.453.082.418.238.777.469 1.078.226.293.55.531.968.719.426.187 1.004.309 1.735.36Zm3.234-10.765c0-1.864.285-3.493.859-4.891.57-1.406 1.32-2.57 2.25-3.5a9.42 9.42 0 0 1 3.219-2.125 10.218 10.218 0 0 1 3.75-.719c2.988 0 5.347.914 7.078 2.735 1.738 1.824 2.61 4.511 2.61 8.062 0 .344-.016.727-.048 1.14-.023.407-.047.774-.078 1.094h-13.515c.132 1.231.707 2.204 1.718 2.922 1.008.72 2.368 1.078 4.078 1.078 1.094 0 2.165-.097 3.22-.296 1.05-.196 1.91-.442 2.577-.735l.797 4.828c-.312.168-.742.328-1.281.485-.531.156-1.125.289-1.781.406a27.42 27.42 0 0 1-2.094.312 20.29 20.29 0 0 1-2.234.125c-1.899 0-3.547-.28-4.954-.843-1.398-.563-2.554-1.328-3.468-2.297a9.279 9.279 0 0 1-2.047-3.469c-.438-1.332-.656-2.77-.656-4.312Zm14-2.282a5.617 5.617 0 0 0-.266-1.484 3.573 3.573 0 0 0-1.828-2.188c-.469-.25-1.055-.375-1.75-.375-.668 0-1.242.118-1.719.344-.48.23-.883.531-1.203.906a4.268 4.268 0 0 0-.734 1.297 9.159 9.159 0 0 0-.375 1.5Zm10.359-7.672c1.008-.3 2.317-.578 3.922-.828a32.722 32.722 0 0 1 5.047-.375c1.781 0 3.266.235 4.453.703 1.188.461 2.125 1.118 2.813 1.97.695.855 1.191 1.87 1.484 3.046.29 1.168.438 2.477.438 3.922v11.875h-5.953v-11.156c0-1.926-.258-3.285-.766-4.078-.5-.801-1.445-1.204-2.828-1.204-.43 0-.887.024-1.375.063-.48.043-.903.09-1.266.14v16.235h-5.969Zm29.529 20.313h-5.969v-21.047h5.969Zm.547-27.125c0 1.094-.356 1.96-1.063 2.594-.699.625-1.527.937-2.484.937-.969 0-1.809-.312-2.516-.937-.699-.633-1.047-1.5-1.047-2.594 0-1.094.348-1.953 1.047-2.578.707-.625 1.547-.938 2.516-.938.957 0 1.785.313 2.484.938.707.625 1.063 1.484 1.063 2.578Zm23.013 26.406c-1.024.293-2.336.563-3.938.813a31.47 31.47 0 0 1-5.03.39c-1.782 0-3.267-.242-4.454-.718-1.188-.477-2.133-1.149-2.828-2.016-.688-.875-1.184-1.91-1.485-3.11-.292-1.195-.437-2.515-.437-3.953v-11.734h5.969v11c0 1.93.25 3.32.75 4.172.508.855 1.457 1.281 2.843 1.281.426 0 .88-.02 1.36-.062.476-.04.906-.086 1.281-.14v-16.25h5.969Zm17.154-10.437c0-1.926-.25-3.285-.75-4.078-.493-.801-1.337-1.204-2.532-1.204-.375 0-.765.024-1.172.063-.398.043-.777.09-1.14.14v16.235h-5.97v-20.313a37.888 37.888 0 0 1 3.938-.813c.758-.124 1.54-.218 2.344-.28.8-.07 1.586-.11 2.36-.11 1.52 0 2.753.196 3.703.578.945.387 1.726.844 2.343 1.375.852-.613 1.832-1.093 2.938-1.437 1.101-.344 2.125-.516 3.062-.516 1.676 0 3.051.235 4.125.703 1.082.461 1.942 1.118 2.579 1.97.644.855 1.085 1.87 1.328 3.046.238 1.168.359 2.477.359 3.922v11.875h-5.953v-11.156c0-1.926-.25-3.285-.75-4.078-.492-.801-1.336-1.204-2.531-1.204-.325 0-.774.086-1.344.25-.574.157-1.047.356-1.422.594a8.91 8.91 0 0 1 .36 1.938c.05.68.078 1.402.078 2.172v11.484h-5.954Zm-112.453 73.821c.157-1.946.485-3.973.985-6.078a59.072 59.072 0 0 1 1.86-6.188 53.583 53.583 0 0 1 2.468-5.75c.906-1.8 1.828-3.36 2.765-4.672H138.86v-5.078h19.406v4.328c-.856.93-1.797 2.219-2.828 3.875-1.024 1.656-1.996 3.531-2.922 5.625a53.19 53.19 0 0 0-2.406 6.75 34.54 34.54 0 0 0-1.25 7.188Zm38.236-7.719c0 1.2-.211 2.297-.625 3.297a7.383 7.383 0 0 1-1.86 2.625c-.824.742-1.855 1.32-3.093 1.734-1.243.414-2.68.625-4.313.625-1.867 0-3.418-.261-4.656-.781-1.242-.52-2.242-1.164-3-1.938-.762-.77-1.305-1.613-1.625-2.53-.313-.927-.469-1.774-.469-2.548 0-.8.102-1.535.313-2.203a7.28 7.28 0 0 1 .875-1.812 9.403 9.403 0 0 1 1.265-1.5c.469-.457.969-.89 1.5-1.297-1.148-.926-1.996-1.844-2.547-2.75-.543-.906-.812-2.067-.812-3.485 0-1.062.219-2.085.656-3.078a7.863 7.863 0 0 1 1.86-2.578c.8-.738 1.77-1.328 2.906-1.765 1.133-.438 2.394-.657 3.781-.657 1.625 0 3.016.235 4.172.703 1.164.47 2.117 1.063 2.86 1.782.75.718 1.288 1.527 1.624 2.422.332.886.5 1.773.5 2.656 0 1.281-.34 2.476-1.015 3.578-.68 1.105-1.528 1.98-2.547 2.625 1.52.98 2.61 2.012 3.265 3.094.657 1.086.985 2.343.985 3.781Zm-13.844.234c0 .325.07.68.219 1.063.144.387.379.742.703 1.062.32.325.734.594 1.234.813.508.21 1.125.312 1.844.312 1.383 0 2.395-.332 3.031-1 .645-.664.969-1.414.969-2.25 0-.613-.14-1.16-.422-1.64a4.266 4.266 0 0 0-1.14-1.25 8.103 8.103 0 0 0-1.704-.969 23.084 23.084 0 0 0-2.093-.781 8.21 8.21 0 0 0-1.891 1.968c-.5.743-.75 1.633-.75 2.672Zm7.406-13.156a2.7 2.7 0 0 0-.187-.937 2.6 2.6 0 0 0-.594-.938 3.586 3.586 0 0 0-1.062-.734c-.43-.207-.95-.313-1.563-.313-.586 0-1.09.094-1.516.281-.43.188-.78.438-1.062.75a3.06 3.06 0 0 0-.625.97 2.693 2.693 0 0 0-.203 1c0 .855.312 1.655.937 2.405.633.743 1.711 1.383 3.235 1.922.851-.539 1.504-1.156 1.953-1.843.457-.696.687-1.551.687-2.563Zm16.595 17.485c0 1.199-.383 2.109-1.14 2.734-.762.625-1.622.937-2.579.937-.96 0-1.82-.312-2.578-.937-.761-.625-1.14-1.535-1.14-2.735 0-1.195.379-2.109 1.14-2.734.758-.633 1.617-.953 2.578-.953.957 0 1.817.32 2.578.953.758.625 1.141 1.54 1.141 2.734Zm12.762-11.72c.613 0 1.254-.054 1.922-.171.664-.125 1.156-.297 1.469-.516v-.36c0-.1.003-.206.015-.312a1.75 1.75 0 0 0 .031-.28 22.022 22.022 0 0 0-.25-2.704c-.125-.844-.351-1.578-.671-2.203a3.775 3.775 0 0 0-1.313-1.469c-.543-.363-1.21-.547-2-.547-.648 0-1.21.137-1.687.406-.48.262-.868.606-1.157 1.032-.293.43-.511.898-.656 1.406-.148.5-.219.992-.219 1.469 0 1.449.348 2.523 1.047 3.218.707.688 1.863 1.032 3.469 1.032Zm2.922 3.876a7.221 7.221 0 0 1-1.875.593c-.68.118-1.258.172-1.735.172-1.73 0-3.21-.207-4.437-.625-1.23-.414-2.242-1.004-3.031-1.765a6.998 6.998 0 0 1-1.735-2.735c-.367-1.062-.547-2.234-.547-3.515 0-1.07.176-2.164.532-3.282a9.002 9.002 0 0 1 1.703-3.062c.77-.914 1.75-1.676 2.937-2.281 1.188-.602 2.617-.907 4.297-.907 3.445 0 6.04 1.063 7.781 3.188 1.75 2.117 2.625 5.164 2.625 9.14 0 2.618-.343 4.922-1.03 6.922-.68 2-1.731 3.684-3.157 5.047-1.418 1.356-3.234 2.387-5.453 3.094-2.211.711-4.836 1.07-7.875 1.094a90.625 90.625 0 0 0-.125-2.469c-.055-.8-.106-1.629-.156-2.484 1.52-.032 2.89-.145 4.109-.344 1.226-.195 2.305-.531 3.234-1a7.477 7.477 0 0 0 2.39-1.86c.657-.769 1.173-1.742 1.548-2.921Zm13.923 11c.156-1.946.484-3.973.984-6.078a59.072 59.072 0 0 1 1.86-6.188 53.583 53.583 0 0 1 2.468-5.75c.906-1.8 1.828-3.36 2.766-4.672h-12.047v-5.078h19.406v4.328c-.855.93-1.797 2.219-2.828 3.875-1.023 1.656-1.996 3.531-2.922 5.625a53.19 53.19 0 0 0-2.406 6.75 34.54 34.54 0 0 0-1.25 7.188ZM46.625 76.844c-.719 0-1.48-.047-2.281-.141a26.337 26.337 0 0 1-2.328-.375 23.58 23.58 0 0 1-2.032-.516 12.157 12.157 0 0 1-1.437-.515l1.156-4.969c.688.293 1.57.606 2.656.938 1.082.335 2.422.5 4.016.5 1.844 0 3.191-.344 4.047-1.032.851-.695 1.281-1.629 1.281-2.797 0-.726-.156-1.336-.469-1.828a3.48 3.48 0 0 0-1.25-1.187c-.53-.313-1.168-.524-1.906-.64a13.9 13.9 0 0 0-2.344-.188h-2.312v-4.797h2.64c.583 0 1.145-.051 1.688-.156a4.833 4.833 0 0 0 1.469-.547 2.87 2.87 0 0 0 1.015-1.047c.258-.438.391-.988.391-1.656 0-.508-.11-.946-.328-1.313a2.85 2.85 0 0 0-.813-.922 3.576 3.576 0 0 0-1.171-.531 4.826 4.826 0 0 0-1.329-.188c-1.148 0-2.21.172-3.187.516a13.17 13.17 0 0 0-2.656 1.281l-2.125-4.36a18.8 18.8 0 0 1 1.5-.843c.57-.289 1.203-.555 1.89-.797a17.344 17.344 0 0 1 2.219-.593c.79-.165 1.629-.25 2.516-.25 1.625 0 3.03.195 4.218.578 1.188.386 2.164.933 2.938 1.64a6.73 6.73 0 0 1 1.719 2.485c.375.949.562 1.98.562 3.093 0 1.094-.308 2.157-.922 3.188a6.097 6.097 0 0 1-2.468 2.328c1.437.594 2.546 1.469 3.328 2.625.789 1.156 1.187 2.555 1.187 4.188 0 1.28-.215 2.464-.64 3.546a7.223 7.223 0 0 1-2 2.797c-.907.782-2.063 1.39-3.47 1.828-1.398.438-3.054.657-4.968.657Zm26.358-21.032a247.352 247.352 0 0 0-3.328 4.438 31.341 31.341 0 0 0-2.953 4.922h6.281Zm5.828-7.28v16.64h2.97v4.875h-2.97v6.203h-5.828v-6.203H61.015v-4.36a74.056 74.056 0 0 1 2.203-3.968 69.398 69.398 0 0 1 2.937-4.563 80.118 80.118 0 0 1 3.422-4.578 48.177 48.177 0 0 1 3.594-4.047Zm0 0"/>
</svg>
