<svg xmlns="http://www.w3.org/2000/svg" version="1.2" viewBox="0 0 375 375">
  <path d="m359.121 5.996.461.043.45.066.448.086.438.094.437.117.422.137.422.145.414.168.399.175.39.196.395.21.371.227.371.238.356.25.347.266.336.277.328.293.313.305.304.313.29.324.277.336.262.347.253.36.239.367.226.371.203.395.2.39.18.41.167.407.145.421.137.426.109.43.101.445.083.442.066.46.05.458.028.457.008.472v340.74l-.008.464-.027.465-.051.461-.066.45-.082.445-.102.441-.11.438-.136.422-.145.421-.168.414-.18.399-.199.39-.203.387-.226.38-.239.37-.253.356-.262.347-.277.336-.29.328-.304.313-.313.305-.328.289-.336.277-.347.262-.356.254-.371.242-.371.215-.395.21-.39.2-.399.18-.414.168-.422.144-.422.133-.437.113-.438.102-.449.082-.449.066-.46.05-.466.028-.465.008H17.453l-.465-.008-.465-.027-.457-.05-.46-.067-.442-.082-.445-.102-.43-.113-.426-.133-.422-.144-.406-.168-.41-.18-.39-.2-.387-.21-.38-.215-.366-.242-.36-.254-.347-.262-.336-.277-.325-.29-.312-.304-.305-.313-.293-.328-.277-.336-.262-.347-.254-.356-.238-.37-.227-.38-.21-.386-.188-.391-.184-.399-.168-.414-.144-.421-.137-.422-.117-.438-.094-.441-.086-.446-.058-.449-.051-.46-.031-.466-.008-.464V17.32l.008-.472.03-.457.052-.457.058-.461.086-.442.094-.445.117-.43.137-.426.144-.421.168-.407.184-.41.187-.39.211-.395.227-.371.238-.367.254-.36.262-.347.277-.336.293-.324.305-.313.312-.305.325-.293.336-.277.347-.266.36-.25.367-.238.379-.226.386-.211.391-.196.41-.175.406-.168.422-.145.426-.137.43-.117.445-.094.441-.086.461-.066.457-.043.465-.031.465-.008h340.738l.465.008Zm-333.25 8.86-.465.03-.457.044-.453.062-.45.09-.437.094-.437.117-.426.137-.414.144-.414.168-.402.176-.399.195-.387.211-.378.227-.364.238-.355.246-.348.27-.336.277-.324.29-.313.308-.308.312-.29.324-.276.336-.27.348-.246.355-.238.364-.227.379-.21.386-.188.399-.184.402-.168.414-.145.414-.136.426-.117.438-.094.437-.09.45-.055.452-.05.457-.032.465-.008.465v322.965l.008.465.032.469.05.457.055.449.09.445.094.442.117.437.136.422.145.422.168.414.184.398.187.395.211.383.227.379.238.37.246.356.27.348.277.336.289.328.308.312.313.305.324.29.336.276.348.262.355.254.364.242.378.215.387.211.399.2.402.179.414.168.414.144.426.133.437.113.438.106.45.078.452.067.457.05.465.028.465.007H349.3l.465-.007.468-.028.457-.05.45-.067.453-.078.433-.106.438-.113.422-.133.422-.144.414-.168.398-.18.395-.199.39-.21.371-.216.371-.242.356-.254.348-.262.336-.277.328-.289.312-.305.305-.312.289-.328.277-.336.262-.348.254-.355.242-.371.223-.38.203-.382.199-.395.18-.398.168-.414.144-.422.14-.422.106-.437.106-.442.078-.445.066-.45.051-.456.027-.47.008-.464V26.203l-.008-.465-.027-.465-.05-.457-.067-.453-.078-.449-.211-.875-.14-.426-.145-.414-.168-.414-.18-.402-.2-.399-.202-.386-.223-.38-.242-.363-.254-.355-.262-.348-.277-.336-.29-.324-.304-.312-.312-.309-.329-.289-.335-.277-.348-.27-.356-.246-.37-.238-.372-.227-.39-.21-.395-.196-.398-.176-.414-.168-.422-.144-.422-.137-.438-.117-.433-.094-.453-.09-.45-.062-.457-.043-.468-.032-.465-.007H26.336Zm0 0"/>
  <path d="M154.475 196.084c-5.324 0-10.62-.168-15.89-.5-5.274-.324-10.75-1.094-16.438-2.313V99.224c4.469-.832 9.363-1.457 14.688-1.875 5.32-.425 10.265-.64 14.828-.64 6.164 0 11.836.445 17.015 1.328 5.176.887 9.63 2.402 13.36 4.547 3.726 2.148 6.644 4.968 8.75 8.468 2.101 3.5 3.156 7.82 3.156 12.954 0 7.742-3.734 13.851-11.203 18.328 6.156 2.336 10.351 5.508 12.594 9.515 2.238 4.012 3.359 8.54 3.359 13.578 0 10.168-3.711 17.82-11.125 22.954-7.418 5.136-18.45 7.703-33.094 7.703Zm-11.062-43.532V177.6a76.86 76.86 0 0 0 5.172.422c1.875.094 3.93.14 6.171.14 6.532 0 11.801-.929 15.813-2.796 4.008-1.863 6.016-5.316 6.016-10.36 0-4.476-1.684-7.671-5.047-9.578-3.356-1.914-8.157-2.875-14.407-2.875Zm0-16.656h10.64c6.72 0 11.52-.86 14.407-2.578 2.894-1.726 4.343-4.508 4.343-8.344 0-3.914-1.496-6.664-4.484-8.25-2.98-1.582-7.367-2.375-13.156-2.375-1.867 0-3.871.028-6.016.078-2.148.043-4.059.157-5.734.344Zm115.738 3.781a150.34 150.34 0 0 0-6.578-1.468c-2.512-.508-5.215-.766-8.11-.766-1.312 0-2.882.117-4.703.344-1.812.23-3.183.484-4.109.765v56.266h-20.86v-69.703c3.727-1.3 8.133-2.535 13.22-3.703 5.093-1.164 10.765-1.75 17.015-1.75 1.113 0 2.46.074 4.047.219 1.594.136 3.18.324 4.765.562a88.24 88.24 0 0 1 4.75.828c1.594.324 2.946.719 4.063 1.188ZM119.438 266.02c-1.524 0-3.04-.047-4.547-.14a32.455 32.455 0 0 1-4.687-.657v-26.875c1.28-.25 2.68-.43 4.203-.546 1.52-.125 2.93-.188 4.234-.188 1.758 0 3.379.133 4.86.39 1.476.25 2.75.684 3.812 1.298 1.07.617 1.906 1.421 2.5 2.421.601 1 .906 2.235.906 3.704 0 2.21-1.07 3.953-3.203 5.234 1.758.668 2.957 1.574 3.594 2.719.644 1.148.969 2.437.969 3.875 0 2.906-1.063 5.093-3.188 6.562-2.117 1.469-5.266 2.203-9.453 2.203Zm-3.156-12.437v7.156c.445.055.937.094 1.468.125.54.024 1.13.031 1.766.031 1.863 0 3.367-.265 4.516-.797 1.156-.53 1.734-1.515 1.734-2.953 0-1.28-.484-2.191-1.453-2.734-.961-.55-2.328-.828-4.11-.828Zm0-4.766h3.03c1.927 0 3.302-.242 4.126-.734.832-.488 1.25-1.281 1.25-2.375 0-1.125-.43-1.91-1.281-2.36-.856-.457-2.11-.687-3.766-.687-.531 0-1.105.012-1.719.031-.617.012-1.164.043-1.64.094Zm33.083 1.078a68.408 68.408 0 0 0-1.891-.406 10.891 10.891 0 0 0-2.313-.234c-.375 0-.824.039-1.343.11-.524.062-.914.136-1.172.218v16.078h-5.969v-19.922c1.07-.375 2.332-.726 3.781-1.062 1.457-.332 3.078-.5 4.86-.5.32 0 .707.023 1.156.062.457.043.91.102 1.36.172.456.062.91.14 1.359.234.457.094.847.203 1.172.328Zm23.879 5.203c0 1.657-.242 3.172-.718 4.547-.48 1.375-1.18 2.547-2.094 3.516a9.505 9.505 0 0 1-3.266 2.266c-1.261.53-2.68.796-4.25.796-1.543 0-2.949-.265-4.218-.796a9.656 9.656 0 0 1-3.266-2.266c-.906-.969-1.617-2.14-2.125-3.516-.5-1.375-.75-2.89-.75-4.547 0-1.656.258-3.16.781-4.515.52-1.363 1.238-2.524 2.156-3.485a9.81 9.81 0 0 1 3.282-2.234c1.27-.531 2.648-.797 4.14-.797 1.52 0 2.91.266 4.172.797a9.48 9.48 0 0 1 3.266 2.234c.906.961 1.613 2.122 2.125 3.485.508 1.355.765 2.86.765 4.515Zm-6.078 0c0-1.832-.37-3.273-1.11-4.328-.73-1.062-1.776-1.593-3.14-1.593-1.355 0-2.406.53-3.156 1.593-.75 1.055-1.125 2.496-1.125 4.328 0 1.844.375 3.31 1.125 4.391.75 1.074 1.8 1.61 3.156 1.61 1.364 0 2.41-.536 3.14-1.61.74-1.082 1.11-2.547 1.11-4.39Zm22.234-.593c0-1.926-.25-3.285-.75-4.078-.493-.801-1.337-1.204-2.532-1.204-.375 0-.766.024-1.172.063-.398.043-.777.09-1.14.14v16.235h-5.97v-20.313a37.888 37.888 0 0 1 3.938-.813c.758-.124 1.54-.218 2.344-.28.8-.07 1.586-.11 2.36-.11 1.519 0 2.753.196 3.702.578.946.387 1.727.844 2.344 1.375.852-.613 1.832-1.093 2.938-1.437 1.101-.344 2.125-.516 3.062-.516 1.676 0 3.051.235 4.125.703 1.082.461 1.942 1.118 2.578 1.97.645.855 1.086 1.87 1.328 3.046.239 1.168.36 2.477.36 3.922v11.875h-5.953v-11.156c0-1.926-.25-3.285-.75-4.078-.492-.801-1.336-1.204-2.532-1.204-.324 0-.773.086-1.343.25-.575.157-1.047.356-1.422.594a8.97 8.97 0 0 1 .36 1.938c.05.68.077 1.402.077 2.172v11.484H189.4Zm28.885 11.156h-5.969v-21.047h5.97Zm.547-27.125c0 1.094-.355 1.96-1.062 2.594-.7.625-1.528.937-2.485.937-.969 0-1.808-.312-2.515-.937-.7-.633-1.047-1.5-1.047-2.594 0-1.094.347-1.953 1.047-2.578.707-.625 1.546-.938 2.515-.938.957 0 1.785.313 2.485.938.707.625 1.062 1.484 1.062 2.578Zm5.044 6.812c1.008-.3 2.317-.578 3.922-.828a32.722 32.722 0 0 1 5.047-.375c1.781 0 3.266.235 4.453.703 1.188.461 2.125 1.118 2.813 1.97.695.855 1.191 1.87 1.484 3.046.29 1.168.438 2.477.438 3.922v11.875h-5.954v-11.156c0-1.926-.257-3.285-.765-4.078-.5-.801-1.445-1.204-2.828-1.204-.43 0-.887.024-1.375.063-.48.043-.903.09-1.266.14v16.235h-5.969Zm22.56 9.954c0-1.864.285-3.493.86-4.891.57-1.406 1.32-2.57 2.25-3.5a9.42 9.42 0 0 1 3.218-2.125 10.218 10.218 0 0 1 3.75-.719c2.989 0 5.348.914 7.078 2.735 1.739 1.824 2.61 4.511 2.61 8.062 0 .344-.016.727-.047 1.14-.024.407-.047.774-.078 1.094H252.56c.133 1.231.707 2.204 1.719 2.922 1.008.72 2.367 1.078 4.078 1.078 1.094 0 2.164-.097 3.219-.296 1.05-.196 1.91-.442 2.578-.735l.797 4.828c-.313.168-.742.328-1.281.485a16.9 16.9 0 0 1-1.782.406c-.648.125-1.343.227-2.093.312a20.29 20.29 0 0 1-2.235.125c-1.898 0-3.547-.28-4.953-.843-1.398-.563-2.555-1.328-3.469-2.297a9.279 9.279 0 0 1-2.047-3.469c-.437-1.332-.656-2.77-.656-4.312Zm14-2.282a5.617 5.617 0 0 0-.265-1.484 3.573 3.573 0 0 0-1.828-2.188c-.47-.25-1.055-.375-1.75-.375-.669 0-1.243.118-1.72.344-.48.23-.882.531-1.202.906a4.268 4.268 0 0 0-.735 1.297 9.159 9.159 0 0 0-.375 1.5Zm-117.609 75.306c.157-1.946.485-3.973.985-6.078a59.072 59.072 0 0 1 1.86-6.188 53.583 53.583 0 0 1 2.468-5.75c.906-1.8 1.828-3.36 2.765-4.672H138.86v-5.078h19.406v4.328c-.856.93-1.797 2.219-2.828 3.875-1.024 1.656-1.996 3.531-2.922 5.625a53.19 53.19 0 0 0-2.406 6.75 34.54 34.54 0 0 0-1.25 7.188Zm28.595-14.876c.613 0 1.254-.054 1.922-.171.664-.125 1.156-.297 1.469-.516v-.36c0-.1.004-.206.015-.312a1.75 1.75 0 0 0 .032-.28 22.022 22.022 0 0 0-.25-2.704c-.125-.844-.352-1.578-.672-2.203a3.775 3.775 0 0 0-1.313-1.469c-.543-.363-1.21-.547-2-.547-.648 0-1.21.137-1.687.406-.48.262-.867.606-1.156 1.032-.293.43-.512.898-.657 1.406-.148.5-.218.992-.218 1.469 0 1.449.347 2.523 1.046 3.218.707.688 1.864 1.032 3.47 1.032Zm2.922 3.876a7.221 7.221 0 0 1-1.875.593c-.68.118-1.258.172-1.734.172-1.73 0-3.211-.207-4.438-.625-1.23-.414-2.242-1.004-3.031-1.765a6.998 6.998 0 0 1-1.734-2.735c-.368-1.062-.547-2.234-.547-3.515 0-1.07.175-2.164.53-3.282a9.002 9.002 0 0 1 1.704-3.062c.77-.914 1.75-1.676 2.938-2.281 1.187-.602 2.617-.907 4.296-.907 3.446 0 6.04 1.063 7.782 3.188 1.75 2.117 2.625 5.164 2.625 9.14 0 2.618-.344 4.922-1.032 6.922-.68 2-1.73 3.684-3.156 5.047-1.418 1.356-3.234 2.387-5.453 3.094-2.21.711-4.836 1.07-7.875 1.094a90.625 90.625 0 0 0-.125-2.469c-.055-.8-.105-1.629-.156-2.484 1.52-.032 2.89-.145 4.11-.344 1.226-.195 2.304-.531 3.234-1a7.477 7.477 0 0 0 2.39-1.86c.656-.769 1.172-1.742 1.547-2.921Zm16.876 7.844c0 1.199-.383 2.109-1.14 2.734-.762.625-1.622.937-2.579.937-.96 0-1.82-.312-2.578-.937-.761-.625-1.14-1.535-1.14-2.735 0-1.195.379-2.109 1.14-2.734.758-.633 1.617-.953 2.578-.953.957 0 1.817.32 2.578.953.758.625 1.141 1.54 1.141 2.734Zm12.762-11.72c.613 0 1.254-.054 1.922-.171.664-.125 1.156-.297 1.469-.516v-.36c0-.1.003-.206.015-.312a1.75 1.75 0 0 0 .031-.28 22.022 22.022 0 0 0-.25-2.704c-.125-.844-.351-1.578-.671-2.203a3.775 3.775 0 0 0-1.313-1.469c-.543-.363-1.21-.547-2-.547-.648 0-1.21.137-1.687.406-.48.262-.868.606-1.157 1.032-.293.43-.511.898-.656 1.406-.148.5-.219.992-.219 1.469 0 1.449.348 2.523 1.047 3.218.707.688 1.863 1.032 3.469 1.032Zm2.922 3.876a7.221 7.221 0 0 1-1.875.593c-.68.118-1.258.172-1.735.172-1.73 0-3.21-.207-4.437-.625-1.23-.414-2.242-1.004-3.031-1.765a6.998 6.998 0 0 1-1.735-2.735c-.367-1.062-.547-2.234-.547-3.515 0-1.07.176-2.164.532-3.282a9.002 9.002 0 0 1 1.703-3.062c.77-.914 1.75-1.676 2.937-2.281 1.188-.602 2.617-.907 4.297-.907 3.445 0 6.04 1.063 7.781 3.188 1.75 2.117 2.625 5.164 2.625 9.14 0 2.618-.343 4.922-1.03 6.922-.68 2-1.731 3.684-3.157 5.047-1.418 1.356-3.234 2.387-5.453 3.094-2.211.711-4.836 1.07-7.875 1.094a90.625 90.625 0 0 0-.125-2.469c-.055-.8-.106-1.629-.156-2.484 1.52-.032 2.89-.145 4.109-.344 1.226-.195 2.305-.531 3.234-1a7.477 7.477 0 0 0 2.39-1.86c.657-.769 1.173-1.742 1.548-2.921Zm29.595-2.922c0 4.668-.887 8.25-2.657 10.75-1.773 2.492-4.218 3.734-7.343 3.734-3.118 0-5.563-1.242-7.344-3.734-1.774-2.5-2.656-6.082-2.656-10.75 0-2.32.234-4.375.703-6.156.468-1.79 1.14-3.297 2.015-4.516.883-1.227 1.938-2.16 3.157-2.797 1.226-.644 2.601-.969 4.125-.969 3.125 0 5.57 1.25 7.343 3.75 1.77 2.493 2.657 6.055 2.657 10.688Zm-6.079 0c0-1.383-.07-2.645-.203-3.781-.136-1.133-.351-2.114-.64-2.938-.293-.82-.696-1.457-1.203-1.906-.5-.457-1.125-.688-1.875-.688s-1.371.23-1.86.688c-.492.45-.89 1.086-1.203 1.906-.305.824-.523 1.805-.656 2.938a31.88 31.88 0 0 0-.203 3.78c0 1.388.066 2.653.203 3.798.133 1.148.351 2.136.656 2.968.313.825.711 1.465 1.203 1.922.489.45 1.11.672 1.86.672s1.375-.222 1.875-.672c.507-.457.91-1.097 1.203-1.922.289-.832.504-1.82.64-2.968.133-1.145.203-2.41.203-3.797ZM46.625 76.844c-.719 0-1.48-.047-2.281-.14a26.337 26.337 0 0 1-2.328-.376 23.58 23.58 0 0 1-2.032-.515 12.157 12.157 0 0 1-1.437-.516l1.156-4.969c.688.293 1.57.606 2.656.938 1.082.336 2.422.5 4.016.5 1.844 0 3.191-.344 4.047-1.032.851-.695 1.281-1.628 1.281-2.796 0-.727-.156-1.336-.469-1.829a3.48 3.48 0 0 0-1.25-1.187c-.53-.313-1.168-.524-1.906-.64a13.9 13.9 0 0 0-2.344-.188h-2.312v-4.797h2.64c.583 0 1.145-.05 1.688-.156a4.833 4.833 0 0 0 1.469-.547 2.87 2.87 0 0 0 1.015-1.047c.258-.438.391-.988.391-1.656 0-.508-.11-.946-.328-1.313a2.85 2.85 0 0 0-.813-.922 3.576 3.576 0 0 0-1.171-.531 4.826 4.826 0 0 0-1.329-.187c-1.148 0-2.21.171-3.187.515a13.17 13.17 0 0 0-2.656 1.281l-2.125-4.359a18.8 18.8 0 0 1 1.5-.844c.57-.289 1.203-.554 1.89-.797a17.344 17.344 0 0 1 2.219-.593c.79-.164 1.629-.25 2.516-.25 1.625 0 3.03.195 4.218.578 1.188.387 2.164.933 2.938 1.64a6.73 6.73 0 0 1 1.719 2.485c.375.949.562 1.98.562 3.094 0 1.093-.308 2.156-.922 3.187a6.097 6.097 0 0 1-2.468 2.328c1.437.594 2.546 1.469 3.328 2.625.789 1.156 1.187 2.555 1.187 4.188 0 1.28-.215 2.465-.64 3.547a7.223 7.223 0 0 1-2 2.796c-.907.782-2.063 1.391-3.47 1.829-1.398.437-3.054.656-4.968.656Zm27.999-8.75c0-.77-.18-1.457-.531-2.063-.344-.601-.946-1.101-1.797-1.5-.856-.394-2-.695-3.438-.906-1.437-.219-3.25-.328-5.437-.328.289-2.488.531-5.008.719-7.563.187-2.562.332-4.96.437-7.203h15v5h-10c-.055.961-.117 1.887-.187 2.782-.063.898-.137 1.68-.22 2.343 3.895.262 6.77 1.172 8.626 2.735 1.851 1.562 2.781 3.73 2.781 6.5 0 1.28-.23 2.468-.687 3.562a7.61 7.61 0 0 1-2.032 2.844c-.906.793-2.047 1.418-3.422 1.875-1.375.445-2.98.672-4.812.672-.73 0-1.492-.047-2.281-.14a29.875 29.875 0 0 1-2.266-.36c-.73-.145-1.39-.297-1.984-.453-.586-.157-1.04-.317-1.36-.485l1.078-4.922c.665.305 1.547.594 2.641.875 1.094.274 2.399.407 3.922.407 1.844 0 3.176-.364 4-1.094.832-.738 1.25-1.598 1.25-2.578Zm0 0"/>
</svg>
