<svg xmlns="http://www.w3.org/2000/svg" version="1.2" viewBox="0 0 375 375">
  <path d="m359.121 5.996.461.043.45.066.448.086.438.094.437.117.422.137.422.145.414.168.399.175.39.196.395.21.371.227.371.238.356.25.347.266.336.277.328.293.313.305.304.313.29.324.277.336.262.347.253.36.239.367.226.371.203.395.2.39.18.41.167.407.145.421.137.426.109.43.101.445.083.442.066.46.05.458.028.457.008.472v340.74l-.008.464-.027.465-.051.461-.066.45-.082.445-.102.441-.11.438-.136.422-.145.421-.168.414-.18.399-.199.39-.203.387-.226.38-.239.37-.253.356-.262.347-.277.336-.29.328-.304.313-.313.305-.328.289-.336.277-.347.262-.356.254-.371.242-.371.215-.395.21-.39.2-.399.18-.414.168-.422.144-.422.133-.437.113-.438.102-.449.082-.449.066-.46.05-.466.028-.465.008H17.453l-.465-.008-.465-.027-.457-.05-.46-.067-.442-.082-.445-.102-.43-.113-.426-.133-.422-.144-.406-.168-.41-.18-.39-.2-.387-.21-.38-.215-.366-.242-.36-.254-.347-.262-.336-.277-.325-.29-.312-.304-.305-.313-.293-.328-.277-.336-.262-.347-.254-.356-.238-.37-.227-.38-.21-.386-.188-.391-.184-.399-.168-.414-.144-.421-.137-.422-.117-.438-.094-.441-.086-.446-.058-.449-.051-.46-.031-.466-.008-.464V17.32l.008-.472.03-.457.052-.457.058-.461.086-.442.094-.445.117-.43.137-.426.144-.421.168-.407.184-.41.187-.39.211-.395.227-.371.238-.367.254-.36.262-.347.277-.336.293-.324.305-.313.312-.305.325-.293.336-.277.347-.266.36-.25.367-.238.379-.226.386-.211.391-.196.41-.175.406-.168.422-.145.426-.137.43-.117.445-.094.441-.086.461-.066.457-.043.465-.031.465-.008h340.738l.465.008Zm-333.25 8.86-.465.03-.457.044-.453.062-.45.09-.437.094-.437.117-.426.137-.414.144-.414.168-.402.176-.399.195-.387.211-.378.227-.364.238-.355.246-.348.27-.336.277-.324.29-.313.308-.308.312-.29.324-.276.336-.27.348-.246.355-.238.364-.227.379-.21.386-.188.399-.184.402-.168.414-.145.414-.136.426-.117.438-.094.437-.09.45-.055.452-.05.457-.032.465-.008.465v322.965l.008.465.032.469.05.457.055.449.09.445.094.442.117.437.136.422.145.422.168.414.184.398.187.395.211.383.227.379.238.37.246.356.27.348.277.336.289.328.308.312.313.305.324.29.336.276.348.262.355.254.364.242.378.215.387.211.399.2.402.179.414.168.414.144.426.133.437.113.438.106.45.078.452.067.457.05.465.028.465.007H349.3l.465-.007.468-.028.457-.05.45-.067.453-.078.433-.106.438-.113.422-.133.422-.144.414-.168.398-.18.395-.199.39-.21.371-.216.371-.242.356-.254.348-.262.336-.277.328-.289.312-.305.305-.312.289-.328.277-.336.262-.348.254-.355.242-.371.223-.38.203-.382.199-.395.18-.398.168-.414.144-.422.14-.422.106-.437.106-.442.078-.445.066-.45.051-.456.027-.47.008-.464V26.203l-.008-.465-.027-.465-.05-.457-.067-.453-.078-.449-.211-.875-.14-.426-.145-.414-.168-.414-.18-.402-.2-.399-.202-.386-.223-.38-.242-.363-.254-.355-.262-.348-.277-.336-.29-.324-.304-.312-.312-.309-.329-.289-.335-.277-.348-.27-.356-.246-.37-.238-.372-.227-.39-.21-.395-.196-.398-.176-.414-.168-.422-.144-.422-.137-.438-.117-.433-.094-.453-.09-.45-.062-.457-.043-.468-.032-.465-.007H26.336Zm0 0"/>
  <path d="M178.541 194.78c-1.96-3.176-4.273-6.602-6.937-10.282a178.552 178.552 0 0 0-8.672-11.062 189.666 189.666 0 0 0-9.735-10.641c-3.355-3.406-6.71-6.41-10.062-9.016v41h-21.828V97.795h21.828v36.672a713.678 713.678 0 0 0 17.14-18.688 2816.293 2816.293 0 0 1 16.032-17.984h25.89a751.518 751.518 0 0 1-19.953 22.672 701.536 701.536 0 0 1-21.062 21.969c7.75 6.437 15.238 14.09 22.469 22.953 7.226 8.867 14.156 18.664 20.78 29.39Zm81.449-55.141a150.34 150.34 0 0 0-6.578-1.47c-2.512-.507-5.215-.765-8.11-.765-1.312 0-2.882.117-4.702.344-1.813.23-3.184.484-4.11.766v56.265h-20.86v-69.703c3.727-1.3 8.134-2.535 13.22-3.703 5.093-1.164 10.765-1.75 17.015-1.75 1.113 0 2.461.074 4.047.219 1.594.137 3.18.324 4.766.562a88.24 88.24 0 0 1 4.75.828c1.593.325 2.945.72 4.062 1.188ZM129.123 265.622a53.076 53.076 0 0 0-1.984-2.937 52.76 52.76 0 0 0-2.484-3.156 45.85 45.85 0 0 0-2.782-3.047 31.023 31.023 0 0 0-2.875-2.578v11.718h-6.234v-27.718h6.234v10.484a191.002 191.002 0 0 0 4.891-5.344 997.059 997.059 0 0 1 4.594-5.14h7.39a206.157 206.157 0 0 1-5.687 6.484 206.69 206.69 0 0 1-6.031 6.281c2.218 1.836 4.36 4.024 6.422 6.563 2.07 2.53 4.05 5.328 5.937 8.39Zm23.282-15.765a68.408 68.408 0 0 0-1.89-.407 10.891 10.891 0 0 0-2.313-.234c-.375 0-.824.04-1.344.11-.523.062-.914.136-1.172.218v16.078h-5.968V245.7c1.07-.375 2.332-.726 3.78-1.062 1.458-.332 3.079-.5 4.86-.5.32 0 .707.023 1.156.062.457.043.91.102 1.36.172.457.063.91.14 1.36.235.456.093.847.203 1.171.328Zm22.88-5.282a179.936 179.936 0 0 1-3.766 11.422 134.912 134.912 0 0 1-4.28 10.313c-.563 1.195-1.126 2.21-1.688 3.047-.555.843-1.164 1.535-1.829 2.078a6.367 6.367 0 0 1-2.265 1.203c-.836.258-1.813.39-2.938.39-.937 0-1.804-.09-2.593-.265-.782-.18-1.422-.371-1.922-.578l1.031-4.766a9.086 9.086 0 0 0 3.172.563c1.062 0 1.879-.29 2.453-.86.57-.574 1.055-1.367 1.453-2.375-1.355-2.664-2.715-5.66-4.078-8.984-1.356-3.32-2.633-7.05-3.828-11.188h6.312c.27 1.043.582 2.172.938 3.391.363 1.21.742 2.434 1.14 3.672.407 1.242.813 2.45 1.22 3.625.413 1.18.812 2.246 1.187 3.203.343-.957.703-2.023 1.078-3.203a126.15 126.15 0 0 0 1.094-3.625c.363-1.238.71-2.461 1.046-3.672.332-1.219.63-2.348.891-3.39Zm16.677 10.688c0-1.844-.418-3.317-1.25-4.422-.825-1.102-2.047-1.656-3.672-1.656a15.267 15.267 0 0 0-2.594.202v10.75c.363.243.848.446 1.453.61a7.213 7.213 0 0 0 1.828.235c2.82 0 4.235-1.907 4.235-5.72Zm6.078-.156c0 1.625-.203 3.105-.61 4.437-.398 1.336-.98 2.48-1.75 3.438a8.025 8.025 0 0 1-2.875 2.25c-1.148.53-2.468.797-3.968.797-.825 0-1.594-.086-2.313-.25a10.85 10.85 0 0 1-2.078-.672v7.922h-5.969v-27.72c.532-.163 1.145-.32 1.844-.468.695-.145 1.422-.27 2.172-.375a43.614 43.614 0 0 1 2.312-.25c.79-.07 1.551-.11 2.282-.11 1.726 0 3.27.262 4.625.782 1.363.523 2.507 1.258 3.437 2.203.938.938 1.649 2.09 2.14 3.453.5 1.356.75 2.875.75 4.563Zm4.394-15.766 5.969-.953v6.187h7.156v4.97h-7.156v7.39c0 1.261.218 2.265.656 3.015.437.743 1.32 1.11 2.656 1.11a11.12 11.12 0 0 0 3.844-.672l.844 4.64a16.18 16.18 0 0 1-2.407.75c-.875.22-1.953.329-3.234.329-1.625 0-2.976-.22-4.047-.657-1.062-.445-1.918-1.062-2.562-1.843-.637-.79-1.086-1.743-1.344-2.86-.25-1.125-.375-2.363-.375-3.718Zm37.65 15.719c0 1.656-.242 3.172-.718 4.547-.48 1.375-1.18 2.547-2.094 3.515a9.505 9.505 0 0 1-3.266 2.266c-1.261.531-2.68.797-4.25.797-1.543 0-2.949-.266-4.218-.797a9.656 9.656 0 0 1-3.266-2.266c-.906-.968-1.617-2.14-2.125-3.515-.5-1.375-.75-2.891-.75-4.547 0-1.656.258-3.16.781-4.516.52-1.363 1.238-2.523 2.156-3.484a9.81 9.81 0 0 1 3.282-2.235c1.27-.53 2.648-.796 4.14-.796 1.52 0 2.91.265 4.172.796a9.48 9.48 0 0 1 3.266 2.235c.906.96 1.613 2.12 2.125 3.484.508 1.356.765 2.86.765 4.516Zm-6.078 0c0-1.832-.37-3.274-1.11-4.328-.73-1.063-1.776-1.594-3.14-1.594-1.355 0-2.406.531-3.156 1.594-.75 1.054-1.125 2.496-1.125 4.328 0 1.844.375 3.308 1.125 4.39.75 1.075 1.8 1.61 3.156 1.61 1.364 0 2.41-.535 3.14-1.61.74-1.082 1.11-2.546 1.11-4.39Zm10.671-9.75c1.008-.301 2.316-.578 3.922-.828a32.722 32.722 0 0 1 5.046-.375c1.782 0 3.266.234 4.454.703 1.187.46 2.125 1.117 2.812 1.969.695.855 1.192 1.87 1.484 3.046.29 1.168.438 2.477.438 3.922v11.875h-5.953v-11.156c0-1.926-.258-3.285-.766-4.078-.5-.8-1.445-1.203-2.828-1.203-.43 0-.887.023-1.375.062-.48.043-.902.09-1.266.14v16.235h-5.968Zm-86.334 75.297c0 1.2-.211 2.297-.625 3.297a7.383 7.383 0 0 1-1.86 2.625c-.824.742-1.855 1.32-3.093 1.734-1.242.414-2.68.625-4.313.625-1.867 0-3.418-.261-4.656-.781-1.242-.52-2.242-1.164-3-1.938-.762-.769-1.305-1.613-1.625-2.53-.312-.927-.469-1.774-.469-2.548 0-.8.102-1.535.313-2.203a7.28 7.28 0 0 1 .875-1.812 9.403 9.403 0 0 1 1.265-1.5c.47-.457.97-.89 1.5-1.297-1.148-.926-1.996-1.844-2.546-2.75-.543-.906-.813-2.067-.813-3.484 0-1.063.219-2.086.656-3.079a7.863 7.863 0 0 1 1.86-2.578c.8-.738 1.77-1.328 2.906-1.765 1.133-.438 2.394-.657 3.781-.657 1.625 0 3.016.235 4.172.704 1.164.468 2.117 1.062 2.86 1.78.75.72 1.289 1.528 1.624 2.423.332.886.5 1.773.5 2.656 0 1.281-.34 2.476-1.015 3.578-.68 1.105-1.528 1.98-2.547 2.625 1.52.98 2.61 2.012 3.266 3.094.656 1.086.984 2.344.984 3.781Zm-13.844.234c0 .325.07.68.219 1.063.144.387.379.742.703 1.062.32.325.734.594 1.234.813.508.21 1.125.312 1.844.312 1.383 0 2.395-.332 3.031-1 .645-.664.97-1.414.97-2.25 0-.613-.141-1.16-.423-1.64a4.266 4.266 0 0 0-1.14-1.25 8.103 8.103 0 0 0-1.703-.969 23.084 23.084 0 0 0-2.094-.781 8.21 8.21 0 0 0-1.89 1.969c-.5.742-.75 1.632-.75 2.671Zm7.406-13.156a2.7 2.7 0 0 0-.187-.937 2.6 2.6 0 0 0-.594-.938 3.586 3.586 0 0 0-1.062-.734c-.43-.207-.95-.313-1.563-.313-.586 0-1.09.094-1.515.282a3.02 3.02 0 0 0-1.063.75 3.06 3.06 0 0 0-.625.968c-.137.344-.203.68-.203 1 0 .856.312 1.657.937 2.407.633.742 1.711 1.382 3.235 1.921.851-.539 1.504-1.156 1.953-1.843.457-.696.687-1.551.687-2.563Zm17.08 21.235c-.72 0-1.48-.047-2.282-.141a26.337 26.337 0 0 1-2.328-.375 23.58 23.58 0 0 1-2.031-.516 12.157 12.157 0 0 1-1.437-.515l1.156-4.97c.687.294 1.57.606 2.656.938 1.082.336 2.422.5 4.016.5 1.843 0 3.191-.343 4.047-1.03.851-.696 1.28-1.63 1.28-2.798 0-.726-.155-1.336-.468-1.828a3.48 3.48 0 0 0-1.25-1.187c-.531-.313-1.168-.524-1.906-.641a13.9 13.9 0 0 0-2.344-.188h-2.312v-4.796h2.64c.582 0 1.145-.051 1.688-.157a4.833 4.833 0 0 0 1.468-.546 2.87 2.87 0 0 0 1.016-1.047c.258-.438.39-.989.39-1.657 0-.507-.109-.945-.327-1.312a2.85 2.85 0 0 0-.813-.922 3.576 3.576 0 0 0-1.172-.531 4.826 4.826 0 0 0-1.328-.188c-1.148 0-2.21.172-3.187.516a13.17 13.17 0 0 0-2.657 1.281l-2.125-4.36a18.8 18.8 0 0 1 1.5-.843c.57-.29 1.203-.555 1.89-.797a17.344 17.344 0 0 1 2.22-.594c.789-.164 1.629-.25 2.515-.25 1.625 0 3.032.196 4.219.579 1.188.386 2.164.933 2.938 1.64a6.73 6.73 0 0 1 1.718 2.485c.375.949.563 1.98.563 3.093 0 1.094-.309 2.157-.922 3.188a6.097 6.097 0 0 1-2.469 2.328c1.438.594 2.547 1.469 3.328 2.625.79 1.156 1.188 2.555 1.188 4.187 0 1.282-.215 2.465-.64 3.547a7.223 7.223 0 0 1-2 2.797c-.907.781-2.063 1.39-3.47 1.828-1.398.438-3.054.657-4.968.657Zm22.235-3.75c0 1.199-.383 2.109-1.14 2.734-.762.625-1.622.937-2.579.937-.96 0-1.82-.312-2.578-.937-.761-.625-1.14-1.535-1.14-2.734 0-1.196.379-2.11 1.14-2.735.758-.633 1.617-.953 2.578-.953.957 0 1.817.32 2.578.953.758.625 1.141 1.54 1.141 2.735Zm22.403-4.563c0 1.2-.211 2.297-.625 3.297a7.383 7.383 0 0 1-1.86 2.625c-.824.742-1.855 1.32-3.094 1.734-1.242.414-2.68.625-4.312.625-1.867 0-3.418-.261-4.656-.781-1.243-.52-2.243-1.164-3-1.938-.762-.769-1.305-1.613-1.625-2.53-.313-.927-.47-1.774-.47-2.548 0-.8.102-1.535.313-2.203a7.28 7.28 0 0 1 .875-1.812 9.357 9.357 0 0 1 1.266-1.5c.469-.457.969-.89 1.5-1.297-1.148-.926-1.996-1.844-2.547-2.75-.543-.906-.812-2.067-.812-3.484a7.54 7.54 0 0 1 .656-3.079 7.863 7.863 0 0 1 1.86-2.578c.8-.738 1.769-1.328 2.906-1.765 1.132-.438 2.394-.657 3.78-.657 1.626 0 3.016.235 4.173.704 1.164.468 2.117 1.062 2.859 1.78.75.72 1.29 1.528 1.625 2.423.332.886.5 1.773.5 2.656 0 1.281-.34 2.476-1.016 3.578-.68 1.105-1.527 1.98-2.546 2.625 1.52.98 2.609 2.012 3.265 3.094.656 1.086.985 2.344.985 3.781Zm-13.844.234c0 .325.07.68.219 1.063.144.387.378.742.703 1.062.32.325.734.594 1.234.813.508.21 1.125.312 1.844.312 1.383 0 2.394-.332 3.031-1 .645-.664.969-1.414.969-2.25 0-.613-.14-1.16-.422-1.64a4.266 4.266 0 0 0-1.14-1.25 8.103 8.103 0 0 0-1.704-.969 23.084 23.084 0 0 0-2.094-.781 8.21 8.21 0 0 0-1.89 1.969c-.5.742-.75 1.632-.75 2.671Zm7.406-13.156a2.7 2.7 0 0 0-.187-.937 2.6 2.6 0 0 0-.594-.938 3.586 3.586 0 0 0-1.063-.734c-.43-.207-.949-.313-1.562-.313-.586 0-1.09.094-1.516.282-.43.187-.781.437-1.062.75a3.06 3.06 0 0 0-.625.968c-.137.344-.203.68-.203 1 0 .856.312 1.657.937 2.407.633.742 1.711 1.382 3.234 1.921.852-.539 1.504-1.156 1.954-1.843.457-.696.687-1.551.687-2.563Zm29.314 6.719c0 4.668-.887 8.25-2.657 10.75-1.773 2.492-4.218 3.734-7.343 3.734-3.118 0-5.563-1.242-7.344-3.734-1.774-2.5-2.656-6.082-2.656-10.75 0-2.32.234-4.375.703-6.156.468-1.79 1.14-3.297 2.015-4.516.883-1.227 1.938-2.16 3.157-2.797 1.226-.644 2.601-.969 4.125-.969 3.125 0 5.57 1.25 7.343 3.75 1.77 2.493 2.657 6.055 2.657 10.688Zm-6.079 0c0-1.383-.07-2.645-.203-3.781-.136-1.133-.351-2.114-.64-2.938-.293-.82-.696-1.457-1.203-1.906-.5-.457-1.125-.688-1.875-.688s-1.371.23-1.86.688c-.492.45-.89 1.086-1.203 1.906-.305.824-.523 1.805-.656 2.938a31.88 31.88 0 0 0-.203 3.78c0 1.388.066 2.653.203 3.798.133 1.148.351 2.136.656 2.969.313.824.711 1.464 1.203 1.921.489.45 1.11.672 1.86.672s1.375-.222 1.875-.672c.507-.457.91-1.097 1.203-1.921.289-.833.504-1.82.64-2.97a33.01 33.01 0 0 0 .203-3.796ZM46.625 76.844c-.719 0-1.48-.047-2.281-.14a26.337 26.337 0 0 1-2.328-.376 23.58 23.58 0 0 1-2.032-.516 12.157 12.157 0 0 1-1.437-.515l1.156-4.969c.688.293 1.57.606 2.656.938 1.082.336 2.422.5 4.016.5 1.844 0 3.191-.344 4.047-1.032.851-.695 1.281-1.629 1.281-2.797 0-.726-.156-1.335-.469-1.828a3.48 3.48 0 0 0-1.25-1.187c-.53-.313-1.168-.524-1.906-.64a13.9 13.9 0 0 0-2.344-.188h-2.312v-4.797h2.64c.583 0 1.145-.05 1.688-.156a4.833 4.833 0 0 0 1.469-.547 2.87 2.87 0 0 0 1.015-1.047c.258-.438.391-.988.391-1.656 0-.508-.11-.946-.328-1.313a2.85 2.85 0 0 0-.813-.922 3.576 3.576 0 0 0-1.171-.531 4.826 4.826 0 0 0-1.329-.188c-1.148 0-2.21.172-3.187.516a13.17 13.17 0 0 0-2.656 1.281l-2.125-4.359a18.8 18.8 0 0 1 1.5-.844c.57-.289 1.203-.554 1.89-.797a17.344 17.344 0 0 1 2.219-.593c.79-.164 1.629-.25 2.516-.25 1.625 0 3.03.195 4.218.578 1.188.386 2.164.933 2.938 1.64a6.73 6.73 0 0 1 1.719 2.485c.375.949.562 1.98.562 3.093 0 1.094-.308 2.157-.922 3.188a6.097 6.097 0 0 1-2.468 2.328c1.437.594 2.546 1.469 3.328 2.625.789 1.156 1.187 2.555 1.187 4.188 0 1.28-.215 2.464-.64 3.546a7.223 7.223 0 0 1-2 2.797c-.907.782-2.063 1.391-3.47 1.828-1.398.438-3.054.657-4.968.657ZM71.17 63.203c-.585 0-1.21.059-1.874.172-.668.105-1.188.25-1.563.437 0 .106-.007.266-.015.485-.012.21-.016.39-.016.547 0 .968.063 1.883.188 2.734.132.844.363 1.59.687 2.234.32.637.75 1.137 1.281 1.5.532.356 1.196.532 2 .532.664 0 1.235-.133 1.703-.407a3.772 3.772 0 0 0 1.157-1.062c.3-.426.523-.898.672-1.422.156-.52.234-1.02.234-1.5 0-1.363-.344-2.41-1.031-3.14-.68-.739-1.82-1.11-3.422-1.11Zm.766-4.64c1.727 0 3.196.234 4.407.703 1.218.468 2.21 1.105 2.984 1.906a7.1 7.1 0 0 1 1.688 2.797c.343 1.062.515 2.199.515 3.406 0 1.062-.195 2.156-.578 3.281a9.123 9.123 0 0 1-1.766 3.031c-.78.907-1.78 1.657-3 2.25-1.21.583-2.636.875-4.28.875-3.337 0-5.872-1.05-7.61-3.156-1.73-2.113-2.594-5.02-2.594-8.719 0-2.664.41-5.023 1.234-7.078.82-2.062 2-3.789 3.532-5.187 1.539-1.406 3.394-2.473 5.562-3.203 2.176-.727 4.625-1.11 7.344-1.14.05.823.102 1.632.156 2.421.063.793.117 1.61.172 2.453a23.24 23.24 0 0 0-3.828.39 13.06 13.06 0 0 0-3.25 1.063 8.92 8.92 0 0 0-2.531 1.86c-.719.761-1.278 1.687-1.672 2.78a7.104 7.104 0 0 1 1.797-.562 9.516 9.516 0 0 1 1.718-.172Zm0 0"/>
</svg>
