<svg xmlns="http://www.w3.org/2000/svg" version="1.2" viewBox="0 0 375 375">
  <path d="m359.121 5.996.461.043.45.066.448.086.438.094.437.117.422.137.422.145.414.168.399.175.39.196.395.21.371.227.371.238.356.25.347.266.336.277.328.293.313.305.304.313.29.324.277.336.262.347.253.36.239.367.226.371.203.395.2.39.18.41.167.407.145.421.137.426.109.43.101.445.083.442.066.46.05.458.028.457.008.472v340.74l-.008.464-.027.465-.051.461-.066.45-.082.445-.102.441-.11.438-.136.422-.145.421-.168.414-.18.399-.199.39-.203.387-.226.38-.239.37-.253.356-.262.347-.277.336-.29.328-.304.313-.313.305-.328.289-.336.277-.347.262-.356.254-.371.242-.371.215-.395.21-.39.2-.399.18-.414.168-.422.144-.422.133-.437.113-.438.102-.449.082-.449.066-.46.05-.466.028-.465.008H17.453l-.465-.008-.465-.027-.457-.05-.46-.067-.442-.082-.445-.102-.43-.113-.426-.133-.422-.144-.406-.168-.41-.18-.39-.2-.387-.21-.38-.215-.366-.242-.36-.254-.347-.262-.336-.277-.325-.29-.312-.304-.305-.313-.293-.328-.277-.336-.262-.347-.254-.356-.238-.37-.227-.38-.21-.386-.188-.391-.184-.399-.168-.414-.144-.421-.137-.422-.117-.438-.094-.441-.086-.446-.058-.449-.051-.46-.031-.466-.008-.464V17.32l.008-.472.03-.457.052-.457.058-.461.086-.442.094-.445.117-.43.137-.426.144-.421.168-.407.184-.41.187-.39.211-.395.227-.371.238-.367.254-.36.262-.347.277-.336.293-.324.305-.313.312-.305.325-.293.336-.277.347-.266.36-.25.367-.238.379-.226.386-.211.391-.196.41-.175.406-.168.422-.145.426-.137.43-.117.445-.094.441-.086.461-.066.457-.043.465-.031.465-.008h340.738l.465.008Zm-333.25 8.86-.465.03-.457.044-.453.062-.45.09-.437.094-.437.117-.426.137-.414.144-.414.168-.402.176-.399.195-.387.211-.378.227-.364.238-.355.246-.348.27-.336.277-.324.29-.313.308-.308.312-.29.324-.276.336-.27.348-.246.355-.238.364-.227.379-.21.386-.188.399-.184.402-.168.414-.145.414-.136.426-.117.438-.094.437-.09.45-.055.452-.05.457-.032.465-.008.465v322.965l.008.465.032.469.05.457.055.449.09.445.094.442.117.437.136.422.145.422.168.414.184.398.187.395.211.383.227.379.238.37.246.356.27.348.277.336.289.328.308.312.313.305.324.29.336.276.348.262.355.254.364.242.378.215.387.211.399.2.402.179.414.168.414.144.426.133.437.113.438.106.45.078.452.067.457.05.465.028.465.007H349.3l.465-.007.468-.028.457-.05.45-.067.453-.078.433-.106.438-.113.422-.133.422-.144.414-.168.398-.18.395-.199.39-.21.371-.216.371-.242.356-.254.348-.262.336-.277.328-.289.312-.305.305-.312.289-.328.277-.336.262-.348.254-.355.242-.371.223-.38.203-.382.199-.395.18-.398.168-.414.144-.422.14-.422.106-.437.106-.442.078-.445.066-.45.051-.456.027-.47.008-.464V26.203l-.008-.465-.027-.465-.05-.457-.067-.453-.078-.449-.211-.875-.14-.426-.145-.414-.168-.414-.18-.402-.2-.399-.202-.386-.223-.38-.242-.363-.254-.355-.262-.348-.277-.336-.29-.324-.304-.312-.312-.309-.329-.289-.335-.277-.348-.27-.356-.246-.37-.238-.372-.227-.39-.21-.395-.196-.398-.176-.414-.168-.422-.144-.422-.137-.438-.117-.433-.094-.453-.09-.45-.062-.457-.043-.468-.032-.465-.007H26.336Zm0 0"/>
  <path d="M154.882 178.162c3.082 0 5.625-.254 7.625-.766 2.008-.508 3.617-1.207 4.828-2.094 1.22-.894 2.063-1.945 2.532-3.156.468-1.207.703-2.562.703-4.062 0-3.165-1.496-5.797-4.485-7.891-2.992-2.102-8.12-4.367-15.39-6.797a120.914 120.914 0 0 1-9.532-3.844c-3.168-1.445-6.011-3.265-8.53-5.453-2.524-2.195-4.575-4.86-6.157-7.984-1.586-3.133-2.375-6.938-2.375-11.406 0-4.477.836-8.516 2.516-12.11a25.774 25.774 0 0 1 7.14-9.172c3.082-2.52 6.813-4.457 11.188-5.812 4.383-1.352 9.332-2.031 14.843-2.031 6.532 0 12.176.703 16.938 2.109 4.758 1.398 8.676 2.934 11.75 4.61l-6.297 17.218c-2.71-1.394-5.719-2.629-9.031-3.703-3.313-1.07-7.305-1.61-11.969-1.61-5.219 0-8.976.727-11.266 2.172-2.28 1.438-3.421 3.653-3.421 6.641 0 1.773.414 3.266 1.25 4.484.843 1.211 2.035 2.305 3.578 3.282 1.539.98 3.312 1.867 5.312 2.656 2.008.793 4.227 1.61 6.656 2.453 5.04 1.867 9.426 3.711 13.157 5.531 3.726 1.825 6.828 3.95 9.297 6.375a22.879 22.879 0 0 1 5.53 8.532c1.22 3.261 1.829 7.226 1.829 11.89 0 9.055-3.172 16.074-9.516 21.063-6.343 4.992-15.914 7.484-28.703 7.484-4.293 0-8.164-.258-11.61-.766-3.448-.511-6.507-1.136-9.171-1.875-2.656-.75-4.945-1.546-6.86-2.39-1.906-.844-3.515-1.633-4.828-2.375l6.172-17.36c2.883 1.586 6.446 3.008 10.688 4.266 4.25 1.262 9.453 1.89 15.61 1.89Zm97.971-38.485a150.34 150.34 0 0 0-6.579-1.468c-2.511-.508-5.214-.766-8.109-.766-1.312 0-2.883.117-4.703.344-1.813.23-3.184.484-4.11.765v56.266h-20.859v-69.703c3.727-1.301 8.133-2.535 13.219-3.703 5.094-1.164 10.766-1.75 17.016-1.75 1.113 0 2.46.074 4.046.218a75.85 75.85 0 0 1 4.766.563 88.24 88.24 0 0 1 4.75.828c1.594.324 2.945.719 4.063 1.188ZM101.706 260.895c.875 0 1.597-.07 2.171-.218.57-.145 1.032-.344 1.375-.594.352-.25.594-.547.72-.89.132-.352.202-.743.202-1.173 0-.906-.43-1.656-1.28-2.25-.845-.601-2.31-1.254-4.392-1.953a29.271 29.271 0 0 1-2.718-1.094 10.325 10.325 0 0 1-2.453-1.562 7.479 7.479 0 0 1-1.766-2.281c-.45-.895-.672-1.985-.672-3.266 0-1.27.238-2.422.719-3.453a7.523 7.523 0 0 1 2.047-2.625c.883-.719 1.953-1.27 3.203-1.656 1.25-.383 2.66-.578 4.234-.578 1.863 0 3.477.203 4.844.609 1.363.398 2.484.836 3.36 1.312l-1.798 4.922a16.274 16.274 0 0 0-2.578-1.062c-.949-.313-2.09-.469-3.422-.469-1.5 0-2.578.211-3.234.625-.648.418-.969 1.055-.969 1.906 0 .5.118.93.36 1.282.238.343.578.656 1.015.937.446.281.957.54 1.532.766.57.218 1.203.449 1.89.687a40.83 40.83 0 0 1 3.75 1.578c1.07.524 1.961 1.133 2.672 1.828a6.459 6.459 0 0 1 1.578 2.438c.352.937.531 2.074.531 3.406 0 2.586-.914 4.59-2.734 6.016-1.812 1.43-4.543 2.14-8.187 2.14-1.23 0-2.34-.074-3.329-.218a22.941 22.941 0 0 1-2.625-.532 16.14 16.14 0 0 1-1.953-.687c-.543-.238-1-.469-1.375-.688l1.75-4.953c.832.45 1.852.856 3.063 1.22 1.219.355 2.707.53 4.469.53Zm15.108-21.515 5.968-.953v6.187h7.157v4.969h-7.157v7.39c0 1.262.219 2.266.657 3.016.437.742 1.32 1.11 2.656 1.11a11.106 11.106 0 0 0 3.844-.672l.843 4.64a16.18 16.18 0 0 1-2.406.75c-.875.219-1.953.328-3.234.328-1.625 0-2.977-.218-4.047-.656-1.063-.445-1.918-1.062-2.563-1.844-.636-.789-1.086-1.742-1.343-2.859-.25-1.125-.375-2.363-.375-3.719Zm30.65 10.515a68.408 68.408 0 0 0-1.89-.406 10.891 10.891 0 0 0-2.313-.234c-.375 0-.824.039-1.344.11-.523.062-.914.136-1.172.218v16.078h-5.969v-19.922c1.07-.375 2.333-.726 3.782-1.062 1.457-.332 3.078-.5 4.86-.5.32 0 .706.023 1.155.062.457.043.91.102 1.36.172.457.062.91.14 1.36.234.456.094.847.203 1.171.328Zm23.88 5.203c0 1.657-.242 3.172-.719 4.547-.48 1.375-1.18 2.547-2.094 3.516a9.505 9.505 0 0 1-3.265 2.266c-1.262.53-2.68.796-4.25.796-1.543 0-2.95-.265-4.219-.796a9.656 9.656 0 0 1-3.266-2.266c-.906-.969-1.617-2.14-2.125-3.516-.5-1.375-.75-2.89-.75-4.547 0-1.656.258-3.16.782-4.515.52-1.363 1.238-2.524 2.156-3.485a9.81 9.81 0 0 1 3.281-2.234c1.27-.531 2.649-.797 4.14-.797 1.52 0 2.91.266 4.173.797a9.48 9.48 0 0 1 3.265 2.234c.906.961 1.614 2.122 2.125 3.485.508 1.355.766 2.86.766 4.515Zm-6.078 0c0-1.832-.371-3.273-1.11-4.328-.73-1.062-1.777-1.593-3.14-1.593-1.356 0-2.407.53-3.157 1.593-.75 1.055-1.125 2.496-1.125 4.328 0 1.844.375 3.31 1.125 4.391.75 1.074 1.801 1.61 3.157 1.61 1.363 0 2.41-.536 3.14-1.61.739-1.082 1.11-2.547 1.11-4.39Zm10.67-9.75c1.008-.3 2.317-.578 3.922-.828a32.722 32.722 0 0 1 5.047-.375c1.781 0 3.266.235 4.453.703 1.188.461 2.125 1.118 2.813 1.97.695.855 1.19 1.87 1.484 3.046.289 1.168.437 2.477.437 3.922v11.875h-5.953v-11.156c0-1.926-.258-3.285-.765-4.078-.5-.801-1.446-1.204-2.828-1.204-.43 0-.887.024-1.375.063-.48.043-.903.09-1.266.14v16.235h-5.969Zm23.357-5.968 5.969-.953v6.187h7.156v4.969h-7.156v7.39c0 1.262.218 2.266.656 3.016.437.742 1.32 1.11 2.656 1.11a11.106 11.106 0 0 0 3.844-.672l.844 4.64a16.18 16.18 0 0 1-2.407.75c-.875.219-1.953.328-3.234.328-1.625 0-2.977-.218-4.047-.656-1.062-.445-1.918-1.062-2.562-1.844-.637-.789-1.086-1.742-1.344-2.859-.25-1.125-.375-2.363-.375-3.719Zm23.932 26.281h-5.97v-21.047h5.97Zm.546-27.125c0 1.094-.355 1.96-1.062 2.594-.7.625-1.527.937-2.484.937-.97 0-1.809-.312-2.516-.937-.7-.633-1.047-1.5-1.047-2.594 0-1.094.348-1.953 1.047-2.578.707-.625 1.547-.938 2.516-.938.957 0 1.785.313 2.484.938.707.625 1.062 1.484 1.062 2.578Zm23.013 26.406c-1.023.293-2.335.563-3.937.813-1.594.258-3.273.39-5.031.39-1.782 0-3.266-.242-4.453-.718-1.188-.477-2.133-1.149-2.829-2.016-.687-.875-1.183-1.91-1.484-3.11-.293-1.195-.437-2.515-.437-3.953v-11.734h5.968v11c0 1.93.25 3.32.75 4.172.508.855 1.457 1.281 2.844 1.281.426 0 .879-.02 1.36-.062.476-.04.906-.086 1.28-.14v-16.25h5.97Zm17.154-10.437c0-1.926-.25-3.285-.75-4.078-.492-.801-1.336-1.204-2.531-1.204-.375 0-.766.024-1.172.063-.399.043-.777.09-1.14.14v16.235h-5.97v-20.313a37.888 37.888 0 0 1 3.938-.813c.758-.124 1.54-.218 2.344-.28.8-.07 1.586-.11 2.36-.11 1.519 0 2.753.196 3.702.578.946.387 1.727.844 2.344 1.375.852-.613 1.832-1.093 2.938-1.437 1.101-.344 2.125-.516 3.062-.516 1.676 0 3.05.235 4.125.703 1.082.461 1.941 1.118 2.578 1.97.645.855 1.086 1.87 1.328 3.046.239 1.168.36 2.477.36 3.922v11.875H275.5v-11.156c0-1.926-.25-3.285-.75-4.078-.493-.801-1.336-1.204-2.532-1.204-.324 0-.773.086-1.343.25-.575.157-1.047.356-1.422.594.187.606.304 1.25.36 1.938.05.68.077 1.402.077 2.172v11.484h-5.953Zm-105.595 66.102c0 1.2-.211 2.297-.625 3.297a7.383 7.383 0 0 1-1.86 2.625c-.824.742-1.855 1.32-3.093 1.734-1.242.414-2.68.625-4.313.625-1.867 0-3.418-.261-4.656-.781-1.242-.52-2.242-1.164-3-1.938-.762-.77-1.305-1.613-1.625-2.53-.312-.927-.469-1.774-.469-2.548 0-.8.102-1.535.313-2.203a7.28 7.28 0 0 1 .875-1.812 9.403 9.403 0 0 1 1.265-1.5c.47-.457.97-.89 1.5-1.297-1.148-.926-1.996-1.844-2.546-2.75-.543-.906-.813-2.067-.813-3.485 0-1.062.219-2.085.656-3.078a7.863 7.863 0 0 1 1.86-2.578c.8-.738 1.77-1.328 2.906-1.765 1.133-.438 2.394-.657 3.781-.657 1.625 0 3.016.235 4.172.703 1.164.47 2.117 1.063 2.86 1.782.75.718 1.289 1.527 1.624 2.422.332.886.5 1.773.5 2.656 0 1.281-.34 2.476-1.015 3.578-.68 1.105-1.528 1.98-2.547 2.625 1.52.98 2.61 2.012 3.266 3.094.656 1.086.984 2.343.984 3.781Zm-13.844.234c0 .325.07.68.219 1.063.144.387.379.742.703 1.062.32.325.734.594 1.234.813.508.21 1.125.312 1.844.312 1.383 0 2.395-.332 3.031-1 .645-.664.97-1.414.97-2.25 0-.613-.141-1.16-.423-1.64a4.266 4.266 0 0 0-1.14-1.25 8.103 8.103 0 0 0-1.703-.969 23.084 23.084 0 0 0-2.094-.781 8.21 8.21 0 0 0-1.89 1.968c-.5.743-.75 1.633-.75 2.672Zm7.406-13.156a2.7 2.7 0 0 0-.187-.937 2.6 2.6 0 0 0-.594-.938 3.586 3.586 0 0 0-1.062-.734c-.43-.207-.95-.313-1.563-.313-.586 0-1.09.094-1.515.281-.43.188-.782.438-1.063.75a3.06 3.06 0 0 0-.625.97 2.693 2.693 0 0 0-.203 1c0 .855.312 1.655.937 2.405.633.743 1.711 1.383 3.235 1.922.851-.539 1.504-1.156 1.953-1.843.457-.696.687-1.551.687-2.563Zm13.642 20.641c.156-1.946.485-3.973.985-6.078a59.072 59.072 0 0 1 1.859-6.188 53.583 53.583 0 0 1 2.469-5.75c.906-1.8 1.828-3.36 2.765-4.672h-12.047v-5.078h19.407v4.328c-.856.93-1.797 2.219-2.828 3.875-1.024 1.656-1.997 3.531-2.922 5.625a53.19 53.19 0 0 0-2.407 6.75 34.54 34.54 0 0 0-1.25 7.188Zm25.673-3.156c0 1.199-.383 2.109-1.14 2.734-.762.625-1.622.937-2.579.937-.96 0-1.82-.312-2.578-.937-.761-.625-1.14-1.535-1.14-2.735 0-1.195.379-2.109 1.14-2.734.758-.633 1.617-.953 2.578-.953.957 0 1.817.32 2.578.953.758.625 1.141 1.54 1.141 2.734Zm12.153-9.891c-.586 0-1.211.058-1.875.172-.668.105-1.188.25-1.563.437 0 .106-.008.266-.016.485-.011.21-.015.39-.015.546 0 .97.062 1.883.187 2.735.133.844.364 1.59.688 2.234.32.637.75 1.137 1.281 1.5.531.356 1.195.531 2 .531.664 0 1.234-.132 1.703-.406a3.772 3.772 0 0 0 1.156-1.062 4.62 4.62 0 0 0 .672-1.422c.157-.52.235-1.02.235-1.5 0-1.363-.344-2.41-1.032-3.14-.68-.74-1.82-1.11-3.421-1.11Zm.765-4.64c1.727 0 3.195.234 4.406.702 1.22.47 2.211 1.106 2.985 1.907a7.1 7.1 0 0 1 1.687 2.796c.344 1.063.516 2.2.516 3.407 0 1.062-.195 2.156-.578 3.281a9.123 9.123 0 0 1-1.766 3.031c-.781.906-1.781 1.656-3 2.25-1.21.582-2.637.875-4.281.875-3.336 0-5.871-1.05-7.61-3.156-1.73-2.113-2.593-5.02-2.593-8.719 0-2.664.41-5.023 1.234-7.078.82-2.062 2-3.789 3.531-5.187 1.54-1.407 3.395-2.473 5.563-3.204 2.176-.726 4.625-1.109 7.344-1.14.05.824.101 1.633.156 2.422.062.793.117 1.61.172 2.453a23.24 23.24 0 0 0-3.828.39 13.06 13.06 0 0 0-3.25 1.063 8.92 8.92 0 0 0-2.532 1.86c-.718.761-1.277 1.687-1.671 2.78a7.104 7.104 0 0 1 1.796-.562 9.516 9.516 0 0 1 1.72-.172Zm30.845-2.751a7.27 7.27 0 0 1-.61 2.922 13.5 13.5 0 0 1-1.562 2.703c-.637.867-1.355 1.7-2.156 2.5a122.18 122.18 0 0 1-2.36 2.266 61.78 61.78 0 0 0-1.296 1.265 34.866 34.866 0 0 0-2.485 2.766c-.336.406-.539.746-.61 1.016h11.923v5h-18.485a6.209 6.209 0 0 1-.078-1.11v-.968c0-1.282.203-2.454.61-3.516.414-1.07.957-2.066 1.625-2.984a19.415 19.415 0 0 1 2.25-2.579c.843-.8 1.68-1.601 2.515-2.406.633-.613 1.235-1.191 1.797-1.734a20.189 20.189 0 0 0 1.484-1.61 7.557 7.557 0 0 0 1-1.546c.239-.52.36-1.051.36-1.594 0-1.164-.336-1.988-1-2.469-.668-.476-1.496-.719-2.485-.719a6 6 0 0 0-2.03.344c-.626.219-1.2.484-1.72.797-.511.305-.953.61-1.328.922a11.83 11.83 0 0 0-.843.734l-2.954-4.156c1.165-1.094 2.532-1.992 4.094-2.703a12.025 12.025 0 0 1 5.016-1.063c1.625 0 3.023.188 4.203.563 1.176.375 2.145.902 2.906 1.578a6.077 6.077 0 0 1 1.672 2.484c.363.97.547 2.07.547 3.297ZM46.625 76.844c-.719 0-1.48-.047-2.281-.14a26.337 26.337 0 0 1-2.328-.376 23.58 23.58 0 0 1-2.032-.516 12.157 12.157 0 0 1-1.437-.515l1.156-4.969c.688.293 1.57.606 2.656.938 1.082.336 2.422.5 4.016.5 1.844 0 3.191-.344 4.047-1.032.851-.695 1.281-1.629 1.281-2.797 0-.726-.156-1.335-.469-1.828a3.48 3.48 0 0 0-1.25-1.187c-.53-.313-1.168-.524-1.906-.64a13.9 13.9 0 0 0-2.344-.188h-2.312v-4.797h2.64c.583 0 1.145-.05 1.688-.156a4.833 4.833 0 0 0 1.469-.547 2.87 2.87 0 0 0 1.015-1.047c.258-.438.391-.988.391-1.656 0-.508-.11-.946-.328-1.313a2.85 2.85 0 0 0-.813-.922 3.576 3.576 0 0 0-1.171-.531 4.826 4.826 0 0 0-1.329-.188c-1.148 0-2.21.172-3.187.516a13.17 13.17 0 0 0-2.656 1.281l-2.125-4.359a18.8 18.8 0 0 1 1.5-.844c.57-.289 1.203-.554 1.89-.797a17.344 17.344 0 0 1 2.219-.593c.79-.164 1.629-.25 2.516-.25 1.625 0 3.03.195 4.218.578 1.188.386 2.164.933 2.938 1.64a6.73 6.73 0 0 1 1.719 2.485c.375.949.562 1.98.562 3.093 0 1.094-.308 2.157-.922 3.188a6.097 6.097 0 0 1-2.468 2.328c1.437.594 2.546 1.469 3.328 2.625.789 1.156 1.187 2.555 1.187 4.188 0 1.28-.215 2.464-.64 3.546a7.223 7.223 0 0 1-2 2.797c-.907.782-2.063 1.391-3.47 1.828-1.398.438-3.054.657-4.968.657Zm34.795-8.313c0 1.2-.21 2.297-.624 3.297a7.383 7.383 0 0 1-1.86 2.625c-.824.742-1.855 1.32-3.093 1.734-1.242.415-2.68.625-4.313.625-1.867 0-3.418-.261-4.656-.78-1.242-.52-2.242-1.165-3-1.938-.762-.77-1.305-1.614-1.625-2.532-.313-.925-.469-1.773-.469-2.546 0-.801.102-1.536.313-2.204A7.28 7.28 0 0 1 62.968 65c.375-.55.797-1.05 1.265-1.5.47-.457.97-.89 1.5-1.297-1.148-.926-1.996-1.844-2.547-2.75-.542-.906-.812-2.066-.812-3.484 0-1.063.219-2.086.656-3.078a7.863 7.863 0 0 1 1.86-2.579c.8-.738 1.77-1.328 2.906-1.765 1.133-.438 2.394-.656 3.781-.656 1.625 0 3.016.234 4.172.703 1.164.468 2.117 1.062 2.86 1.781.75.719 1.288 1.527 1.624 2.422.332.887.5 1.773.5 2.656 0 1.281-.34 2.477-1.015 3.578-.68 1.106-1.528 1.98-2.547 2.625 1.52.98 2.61 2.012 3.265 3.094.657 1.086.985 2.344.985 3.781Zm-13.843.235c0 .324.07.68.219 1.062.144.387.379.742.703 1.063.32.324.734.593 1.234.812.508.211 1.125.313 1.844.313 1.383 0 2.395-.332 3.031-1 .645-.664.97-1.414.97-2.25a3.19 3.19 0 0 0-.423-1.641 4.266 4.266 0 0 0-1.14-1.25 8.103 8.103 0 0 0-1.704-.969 23.084 23.084 0 0 0-2.093-.781 8.21 8.21 0 0 0-1.89 1.969c-.5.742-.75 1.633-.75 2.672Zm7.406-13.157a2.7 2.7 0 0 0-.187-.937 2.6 2.6 0 0 0-.594-.938A3.586 3.586 0 0 0 73.14 53c-.43-.207-.95-.313-1.563-.313-.586 0-1.09.094-1.516.282-.43.187-.78.437-1.062.75a3.06 3.06 0 0 0-.625.968c-.137.344-.203.68-.203 1 0 .856.312 1.657.937 2.407.633.742 1.711 1.383 3.235 1.922.851-.54 1.504-1.157 1.953-1.844.457-.695.687-1.55.687-2.563Zm0 0"/>
</svg>
