<svg xmlns="http://www.w3.org/2000/svg" version="1.2" viewBox="0 0 375 375">
  <path d="m359.121 5.996.461.043.45.066.448.086.438.094.437.117.422.137.422.145.414.168.399.175.39.196.395.21.371.227.371.238.356.25.347.266.336.277.328.293.313.305.304.313.29.324.277.336.262.347.253.36.239.367.226.371.203.395.2.39.18.41.167.407.145.421.137.426.109.43.101.445.083.442.066.46.05.458.028.457.008.472v340.74l-.008.464-.027.465-.051.461-.066.45-.082.445-.102.441-.11.438-.136.422-.145.421-.168.414-.18.399-.199.39-.203.387-.226.38-.239.37-.253.356-.262.347-.277.336-.29.328-.304.313-.313.305-.328.289-.336.277-.347.262-.356.254-.371.242-.371.215-.395.21-.39.2-.399.18-.414.168-.422.144-.422.133-.437.113-.438.102-.449.082-.449.066-.46.05-.466.028-.465.008H17.453l-.465-.008-.465-.027-.457-.05-.46-.067-.442-.082-.445-.102-.43-.113-.426-.133-.422-.144-.406-.168-.41-.18-.39-.2-.387-.21-.38-.215-.366-.242-.36-.254-.347-.262-.336-.277-.325-.29-.312-.304-.305-.313-.293-.328-.277-.336-.262-.347-.254-.356-.238-.37-.227-.38-.21-.386-.188-.391-.184-.399-.168-.414-.144-.421-.137-.422-.117-.438-.094-.441-.086-.446-.058-.449-.051-.46-.031-.466-.008-.464V17.32l.008-.472.03-.457.052-.457.058-.461.086-.442.094-.445.117-.43.137-.426.144-.421.168-.407.184-.41.187-.39.211-.395.227-.371.238-.367.254-.36.262-.347.277-.336.293-.324.305-.313.312-.305.325-.293.336-.277.347-.266.36-.25.367-.238.379-.226.386-.211.391-.196.41-.175.406-.168.422-.145.426-.137.43-.117.445-.094.441-.086.461-.066.457-.043.465-.031.465-.008h340.738l.465.008Zm-333.25 8.86-.465.03-.457.044-.453.062-.45.09-.437.094-.437.117-.426.137-.414.144-.414.168-.402.176-.399.195-.387.211-.378.227-.364.238-.355.246-.348.27-.336.277-.324.29-.313.308-.308.312-.29.324-.276.336-.27.348-.246.355-.238.364-.227.379-.21.386-.188.399-.184.402-.168.414-.145.414-.136.426-.117.438-.094.437-.09.45-.055.452-.05.457-.032.465-.008.465v322.965l.008.465.032.469.05.457.055.449.09.445.094.442.117.437.136.422.145.422.168.414.184.398.187.395.211.383.227.379.238.37.246.356.27.348.277.336.289.328.308.312.313.305.324.29.336.276.348.262.355.254.364.242.378.215.387.211.399.2.402.179.414.168.414.144.426.133.437.113.438.106.45.078.452.067.457.05.465.028.465.007H349.3l.465-.007.468-.028.457-.05.45-.067.453-.078.433-.106.438-.113.422-.133.422-.144.414-.168.398-.18.395-.199.39-.21.371-.216.371-.242.356-.254.348-.262.336-.277.328-.289.312-.305.305-.312.289-.328.277-.336.262-.348.254-.355.242-.371.223-.38.203-.382.199-.395.18-.398.168-.414.144-.422.14-.422.106-.437.106-.442.078-.445.066-.45.051-.456.027-.47.008-.464V26.203l-.008-.465-.027-.465-.05-.457-.067-.453-.078-.449-.211-.875-.14-.426-.145-.414-.168-.414-.18-.402-.2-.399-.202-.386-.223-.38-.242-.363-.254-.355-.262-.348-.277-.336-.29-.324-.304-.312-.312-.309-.329-.289-.335-.277-.348-.27-.356-.246-.37-.238-.372-.227-.39-.21-.395-.196-.398-.176-.414-.168-.422-.144-.422-.137-.438-.117-.433-.094-.453-.09-.45-.062-.457-.043-.468-.032-.465-.007H26.336Zm0 0"/>
  <path d="M187.994 137.686a536.226 536.226 0 0 0 11.187-19.875 299.186 299.186 0 0 0 9.797-20.016h24.078a626.947 626.947 0 0 1-16.53 30.375 777.691 777.691 0 0 1-18.048 29.516v37.093H176.65v-36.812a776.428 776.428 0 0 1-18.125-29.656 625.935 625.935 0 0 1-16.578-30.516h25.328a361.185 361.185 0 0 0 9.656 20.016 407.55 407.55 0 0 0 11.063 19.875ZM126.64 249.31a141.163 141.163 0 0 0 3.203-5.688 91.828 91.828 0 0 0 2.797-5.719h6.875a180.41 180.41 0 0 1-4.719 8.688 233.44 233.44 0 0 1-5.156 8.437v10.594h-6.235v-10.515a236.78 236.78 0 0 1-5.187-8.485 177.376 177.376 0 0 1-4.734-8.719h7.234a98.347 98.347 0 0 0 2.766 5.72 123.07 123.07 0 0 0 3.156 5.687Zm15.674-9.969 5.969-.953v6.187h7.156v4.97h-7.156v7.39c0 1.261.219 2.265.656 3.015.438.743 1.32 1.11 2.656 1.11a11.094 11.094 0 0 0 3.844-.672l.844 4.64a16.18 16.18 0 0 1-2.406.75c-.875.22-1.954.329-3.235.329-1.625 0-2.976-.22-4.047-.657-1.062-.445-1.918-1.062-2.562-1.843-.637-.79-1.086-1.743-1.344-2.86-.25-1.125-.375-2.363-.375-3.719Zm17.76 0 5.969-.953v6.187h7.156v4.97h-7.156v7.39c0 1.261.218 2.265.656 3.015.437.743 1.32 1.11 2.656 1.11a11.106 11.106 0 0 0 3.844-.672l.844 4.64a16.18 16.18 0 0 1-2.407.75c-.875.22-1.953.329-3.234.329-1.625 0-2.977-.22-4.047-.657-1.062-.445-1.918-1.062-2.562-1.843-.637-.79-1.086-1.743-1.344-2.86-.25-1.125-.375-2.363-.375-3.719Zm30.65 10.516a68.408 68.408 0 0 0-1.89-.407 10.891 10.891 0 0 0-2.313-.234c-.375 0-.824.039-1.344.11-.523.062-.914.136-1.171.218v16.078h-5.97V245.7c1.071-.375 2.333-.726 3.782-1.062 1.457-.332 3.078-.5 4.86-.5.32 0 .707.023 1.156.062.457.043.91.102 1.36.172.456.063.91.14 1.358.235.458.093.848.203 1.172.328Zm10.161 15.765h-5.968v-21.047h5.968Zm.547-27.125c0 1.094-.355 1.961-1.062 2.594-.7.625-1.528.937-2.485.937-.968 0-1.808-.312-2.515-.937-.7-.633-1.047-1.5-1.047-2.594 0-1.094.348-1.953 1.047-2.578.707-.625 1.547-.937 2.515-.937.957 0 1.786.312 2.485.937.707.625 1.062 1.484 1.062 2.578Zm23.013 26.406c-1.023.293-2.336.563-3.937.813-1.594.258-3.274.39-5.031.39-1.782 0-3.266-.242-4.454-.718-1.187-.477-2.132-1.149-2.828-2.016-.687-.875-1.183-1.91-1.484-3.11-.293-1.194-.438-2.515-.438-3.952v-11.735h5.97v11c0 1.93.25 3.32.75 4.172.507.856 1.456 1.281 2.843 1.281.426 0 .879-.02 1.36-.062.476-.04.906-.086 1.28-.14v-16.25h5.97Zm17.154-10.437c0-1.926-.25-3.285-.75-4.078-.492-.8-1.336-1.203-2.531-1.203-.375 0-.766.023-1.172.062-.399.043-.778.09-1.14.14v16.235h-5.97V245.31a37.888 37.888 0 0 1 3.938-.813 27.27 27.27 0 0 1 2.344-.281c.8-.07 1.586-.11 2.36-.11 1.519 0 2.753.196 3.702.579.945.386 1.727.843 2.344 1.375.851-.614 1.832-1.094 2.937-1.438 1.102-.344 2.125-.515 3.063-.515 1.676 0 3.05.234 4.125.703 1.082.46 1.941 1.117 2.578 1.968.645.856 1.086 1.872 1.328 3.047.238 1.168.36 2.477.36 3.922v11.875h-5.954v-11.156c0-1.926-.25-3.285-.75-4.078-.492-.8-1.336-1.203-2.53-1.203-.325 0-.774.086-1.345.25-.574.156-1.046.355-1.421.593a8.97 8.97 0 0 1 .359 1.938c.05.68.078 1.402.078 2.172v11.484H241.6Zm-83.256 66.141c0 1.2-.211 2.297-.625 3.297a7.383 7.383 0 0 1-1.86 2.625c-.824.742-1.855 1.32-3.093 1.734-1.242.414-2.68.625-4.313.625-1.867 0-3.418-.261-4.656-.781-1.242-.52-2.242-1.164-3-1.938-.762-.77-1.305-1.613-1.625-2.53-.312-.927-.469-1.774-.469-2.548 0-.8.102-1.535.313-2.203a7.28 7.28 0 0 1 .875-1.812 9.403 9.403 0 0 1 1.265-1.5c.47-.457.97-.89 1.5-1.297-1.148-.926-1.996-1.844-2.546-2.75-.543-.906-.813-2.067-.813-3.485 0-1.062.219-2.085.656-3.078a7.863 7.863 0 0 1 1.86-2.578c.8-.738 1.77-1.328 2.906-1.765 1.133-.438 2.394-.657 3.781-.657 1.625 0 3.016.235 4.172.703 1.164.47 2.117 1.063 2.86 1.782.75.718 1.289 1.527 1.624 2.422.332.886.5 1.773.5 2.656 0 1.281-.34 2.476-1.015 3.578-.68 1.105-1.528 1.98-2.547 2.625 1.52.98 2.61 2.012 3.266 3.094.656 1.086.984 2.343.984 3.781Zm-13.844.234c0 .325.07.68.219 1.063.144.387.379.742.703 1.062.32.325.734.594 1.234.813.508.21 1.125.312 1.844.312 1.383 0 2.395-.332 3.031-1 .645-.664.97-1.414.97-2.25 0-.613-.141-1.16-.423-1.64a4.266 4.266 0 0 0-1.14-1.25 8.103 8.103 0 0 0-1.703-.969 23.084 23.084 0 0 0-2.094-.781 8.21 8.21 0 0 0-1.89 1.968c-.5.743-.75 1.633-.75 2.672Zm7.406-13.156a2.7 2.7 0 0 0-.187-.937 2.6 2.6 0 0 0-.594-.938 3.586 3.586 0 0 0-1.062-.734c-.43-.207-.95-.313-1.563-.313-.586 0-1.09.094-1.515.281-.43.188-.782.438-1.063.75a3.06 3.06 0 0 0-.625.97 2.693 2.693 0 0 0-.203 1c0 .855.312 1.655.937 2.405.633.743 1.711 1.383 3.235 1.922.851-.539 1.504-1.156 1.953-1.843.457-.696.687-1.551.687-2.563Zm29.158 12.922c0 1.2-.211 2.297-.625 3.297a7.383 7.383 0 0 1-1.86 2.625c-.824.742-1.855 1.32-3.093 1.734-1.243.414-2.68.625-4.313.625-1.867 0-3.418-.261-4.656-.781-1.242-.52-2.242-1.164-3-1.938-.762-.77-1.305-1.613-1.625-2.53-.313-.927-.469-1.774-.469-2.548 0-.8.102-1.535.313-2.203a7.28 7.28 0 0 1 .875-1.812 9.403 9.403 0 0 1 1.265-1.5c.469-.457.969-.89 1.5-1.297-1.148-.926-1.996-1.844-2.547-2.75-.543-.906-.812-2.067-.812-3.485 0-1.062.219-2.085.656-3.078a7.863 7.863 0 0 1 1.86-2.578c.8-.738 1.77-1.328 2.906-1.765 1.133-.438 2.394-.657 3.781-.657 1.625 0 3.016.235 4.172.703 1.164.47 2.117 1.063 2.86 1.782.75.718 1.288 1.527 1.624 2.422.332.886.5 1.773.5 2.656 0 1.281-.34 2.476-1.015 3.578-.68 1.105-1.528 1.98-2.547 2.625 1.52.98 2.61 2.012 3.265 3.094.657 1.086.985 2.343.985 3.781Zm-13.844.234c0 .325.07.68.219 1.063.144.387.379.742.703 1.062.32.325.734.594 1.234.813.508.21 1.125.312 1.844.312 1.383 0 2.395-.332 3.031-1 .645-.664.969-1.414.969-2.25 0-.613-.14-1.16-.422-1.64a4.266 4.266 0 0 0-1.14-1.25 8.103 8.103 0 0 0-1.704-.969 23.084 23.084 0 0 0-2.093-.781 8.21 8.21 0 0 0-1.891 1.968c-.5.743-.75 1.633-.75 2.672Zm7.406-13.156a2.7 2.7 0 0 0-.187-.937 2.6 2.6 0 0 0-.594-.938 3.586 3.586 0 0 0-1.062-.734c-.43-.207-.95-.313-1.563-.313-.586 0-1.09.094-1.516.281-.43.188-.78.438-1.062.75a3.06 3.06 0 0 0-.625.97 2.693 2.693 0 0 0-.203 1c0 .855.312 1.655.937 2.405.633.743 1.711 1.383 3.235 1.922.851-.539 1.504-1.156 1.953-1.843.457-.696.687-1.551.687-2.563Zm16.595 17.485c0 1.199-.383 2.109-1.14 2.734-.762.625-1.622.937-2.579.937-.96 0-1.82-.312-2.578-.937-.761-.625-1.14-1.535-1.14-2.735 0-1.195.379-2.109 1.14-2.734.758-.633 1.617-.953 2.578-.953.957 0 1.817.32 2.578.953.758.625 1.141 1.54 1.141 2.734Zm12.762-11.72c.613 0 1.254-.054 1.922-.171.664-.125 1.156-.297 1.469-.516v-.36c0-.1.003-.206.015-.312a1.75 1.75 0 0 0 .031-.28 22.022 22.022 0 0 0-.25-2.704c-.125-.844-.351-1.578-.671-2.203a3.775 3.775 0 0 0-1.313-1.469c-.543-.363-1.21-.547-2-.547-.648 0-1.21.137-1.687.406-.48.262-.868.606-1.157 1.032-.293.43-.511.898-.656 1.406-.148.5-.219.992-.219 1.469 0 1.449.348 2.523 1.047 3.218.707.688 1.863 1.032 3.469 1.032Zm2.922 3.876a7.221 7.221 0 0 1-1.875.593c-.68.118-1.258.172-1.735.172-1.73 0-3.21-.207-4.437-.625-1.23-.414-2.242-1.004-3.031-1.765a6.998 6.998 0 0 1-1.735-2.735c-.367-1.062-.547-2.234-.547-3.515 0-1.07.176-2.164.532-3.282a9.002 9.002 0 0 1 1.703-3.062c.77-.914 1.75-1.676 2.937-2.281 1.188-.602 2.617-.907 4.297-.907 3.445 0 6.04 1.063 7.781 3.188 1.75 2.117 2.625 5.164 2.625 9.14 0 2.618-.343 4.922-1.03 6.922-.68 2-1.731 3.684-3.157 5.047-1.418 1.356-3.234 2.387-5.453 3.094-2.211.711-4.836 1.07-7.875 1.094a90.625 90.625 0 0 0-.125-2.469c-.055-.8-.106-1.629-.156-2.484 1.52-.032 2.89-.145 4.109-.344 1.226-.195 2.305-.531 3.234-1a7.477 7.477 0 0 0 2.39-1.86c.657-.769 1.173-1.742 1.548-2.921Zm11.032-10.953c.77-.32 1.578-.692 2.422-1.11.844-.414 1.66-.867 2.453-1.36.8-.487 1.567-1.003 2.297-1.546a15.52 15.52 0 0 0 1.984-1.75h4.172v27.719h-5.969v-19.953a18.481 18.481 0 0 1-2.687 1.453c-.98.437-1.938.82-2.875 1.14ZM46.625 76.844c-.719 0-1.48-.047-2.281-.141a26.337 26.337 0 0 1-2.328-.375 23.58 23.58 0 0 1-2.032-.516 12.157 12.157 0 0 1-1.437-.515l1.156-4.969c.688.293 1.57.606 2.656.938 1.082.335 2.422.5 4.016.5 1.844 0 3.191-.344 4.047-1.032.851-.695 1.281-1.629 1.281-2.797 0-.726-.156-1.336-.469-1.828a3.48 3.48 0 0 0-1.25-1.187c-.53-.313-1.168-.524-1.906-.64a13.9 13.9 0 0 0-2.344-.188h-2.312v-4.797h2.64c.583 0 1.145-.051 1.688-.156a4.833 4.833 0 0 0 1.469-.547 2.87 2.87 0 0 0 1.015-1.047c.258-.438.391-.988.391-1.656 0-.508-.11-.946-.328-1.313a2.85 2.85 0 0 0-.813-.922 3.576 3.576 0 0 0-1.171-.531 4.826 4.826 0 0 0-1.329-.188c-1.148 0-2.21.172-3.187.516a13.17 13.17 0 0 0-2.656 1.281l-2.125-4.36a18.8 18.8 0 0 1 1.5-.843c.57-.289 1.203-.555 1.89-.797a17.344 17.344 0 0 1 2.219-.593c.79-.165 1.629-.25 2.516-.25 1.625 0 3.03.195 4.218.578 1.188.386 2.164.933 2.938 1.64a6.73 6.73 0 0 1 1.719 2.485c.375.949.562 1.98.562 3.093 0 1.094-.308 2.157-.922 3.188a6.097 6.097 0 0 1-2.468 2.328c1.437.594 2.546 1.469 3.328 2.625.789 1.156 1.187 2.555 1.187 4.188 0 1.28-.215 2.464-.64 3.546a7.223 7.223 0 0 1-2 2.797c-.907.782-2.063 1.39-3.47 1.828-1.398.438-3.054.657-4.968.657ZM71.78 61.375c.614 0 1.254-.055 1.922-.172.664-.125 1.156-.297 1.469-.516v-.359c0-.102.004-.207.015-.312a1.75 1.75 0 0 0 .032-.282 22.022 22.022 0 0 0-.25-2.703c-.125-.844-.352-1.578-.672-2.203a3.775 3.775 0 0 0-1.313-1.469c-.543-.363-1.21-.547-2-.547-.648 0-1.21.137-1.687.407-.48.261-.867.605-1.156 1.03-.293.43-.512.9-.657 1.407-.148.5-.218.992-.218 1.469 0 1.45.347 2.523 1.046 3.219.708.687 1.864 1.03 3.47 1.03Zm2.922 3.875a7.221 7.221 0 0 1-1.875.594 10.44 10.44 0 0 1-1.734.172c-1.73 0-3.211-.207-4.438-.625-1.23-.415-2.242-1.004-3.031-1.766a6.998 6.998 0 0 1-1.734-2.734c-.368-1.063-.547-2.235-.547-3.516 0-1.07.176-2.164.531-3.281a9.002 9.002 0 0 1 1.703-3.063c.77-.914 1.75-1.676 2.938-2.281 1.187-.602 2.617-.906 4.296-.906 3.446 0 6.04 1.062 7.782 3.187 1.75 2.117 2.625 5.164 2.625 9.14 0 2.618-.344 4.923-1.032 6.923-.68 2-1.73 3.683-3.156 5.047-1.418 1.355-3.234 2.386-5.453 3.093-2.21.711-4.836 1.07-7.875 1.094a90.625 90.625 0 0 0-.125-2.469c-.055-.8-.105-1.629-.156-2.484 1.52-.031 2.89-.145 4.11-.344 1.226-.195 2.304-.531 3.234-1a7.477 7.477 0 0 0 2.39-1.86c.656-.769 1.172-1.741 1.547-2.921Zm0 0"/>
</svg>
