<svg xmlns="http://www.w3.org/2000/svg" version="1.2" viewBox="0 0 375 375">
  <path d="m359.121 5.996.461.043.45.066.448.086.438.094.437.117.422.137.422.145.414.168.399.175.39.196.395.21.371.227.371.238.356.25.347.266.336.277.328.293.313.305.304.313.29.324.277.336.262.347.253.36.239.367.226.371.203.395.2.39.18.41.167.407.145.421.137.426.109.43.101.445.083.442.066.46.05.458.028.457.008.472v340.74l-.008.464-.027.465-.051.461-.066.45-.082.445-.102.441-.11.438-.136.422-.145.421-.168.414-.18.399-.199.39-.203.387-.226.38-.239.37-.253.356-.262.347-.277.336-.29.328-.304.313-.313.305-.328.289-.336.277-.347.262-.356.254-.371.242-.371.215-.395.21-.39.2-.399.18-.414.168-.422.144-.422.133-.437.113-.438.102-.449.082-.449.066-.46.05-.466.028-.465.008H17.453l-.465-.008-.465-.027-.457-.05-.46-.067-.442-.082-.445-.102-.43-.113-.426-.133-.422-.144-.406-.168-.41-.18-.39-.2-.387-.21-.38-.215-.366-.242-.36-.254-.347-.262-.336-.277-.325-.29-.312-.304-.305-.313-.293-.328-.277-.336-.262-.347-.254-.356-.238-.37-.227-.38-.21-.386-.188-.391-.184-.399-.168-.414-.144-.421-.137-.422-.117-.438-.094-.441-.086-.446-.058-.449-.051-.46-.031-.466-.008-.464V17.32l.008-.472.03-.457.052-.457.058-.461.086-.442.094-.445.117-.43.137-.426.144-.421.168-.407.184-.41.187-.39.211-.395.227-.371.238-.367.254-.36.262-.347.277-.336.293-.324.305-.313.312-.305.325-.293.336-.277.347-.266.36-.25.367-.238.379-.226.386-.211.391-.196.41-.175.406-.168.422-.145.426-.137.43-.117.445-.094.441-.086.461-.066.457-.043.465-.031.465-.008h340.738l.465.008Zm-333.25 8.86-.465.03-.457.044-.453.062-.45.09-.437.094-.437.117-.426.137-.414.144-.414.168-.402.176-.399.195-.387.211-.378.227-.364.238-.355.246-.348.27-.336.277-.324.29-.313.308-.308.312-.29.324-.276.336-.27.348-.246.355-.238.364-.227.379-.21.386-.188.399-.184.402-.168.414-.145.414-.136.426-.117.438-.094.437-.09.45-.055.452-.05.457-.032.465-.008.465v322.965l.008.465.032.469.05.457.055.449.09.445.094.442.117.437.136.422.145.422.168.414.184.398.187.395.211.383.227.379.238.37.246.356.27.348.277.336.289.328.308.312.313.305.324.29.336.276.348.262.355.254.364.242.378.215.387.211.399.2.402.179.414.168.414.144.426.133.437.113.438.106.45.078.452.067.457.05.465.028.465.007H349.3l.465-.007.468-.028.457-.05.45-.067.453-.078.433-.106.438-.113.422-.133.422-.144.414-.168.398-.18.395-.199.39-.21.371-.216.371-.242.356-.254.348-.262.336-.277.328-.289.312-.305.305-.312.289-.328.277-.336.262-.348.254-.355.242-.371.223-.38.203-.382.199-.395.18-.398.168-.414.144-.422.14-.422.106-.437.106-.442.078-.445.066-.45.051-.456.027-.47.008-.464V26.203l-.008-.465-.027-.465-.05-.457-.067-.453-.078-.449-.211-.875-.14-.426-.145-.414-.168-.414-.18-.402-.2-.399-.202-.386-.223-.38-.242-.363-.254-.355-.262-.348-.277-.336-.29-.324-.304-.312-.312-.309-.329-.289-.335-.277-.348-.27-.356-.246-.37-.238-.372-.227-.39-.21-.395-.196-.398-.176-.414-.168-.422-.144-.422-.137-.438-.117-.433-.094-.453-.09-.45-.062-.457-.043-.468-.032-.465-.007H26.336Zm0 0"/>
  <path d="M168.61 194.818a491.828 491.828 0 0 0-20.313-32.89c-7.273-10.82-15.011-21.036-23.218-30.641v63.531h-21.547V97.834h17.765c3.082 3.074 6.489 6.851 10.22 11.328a422.473 422.473 0 0 1 11.405 14.36 491.759 491.759 0 0 1 11.547 15.812 925.785 925.785 0 0 1 10.782 15.734V97.834h21.687v96.984Zm86.479-37.375c0-13.426-4.945-20.14-14.828-20.14-2.149 0-4.274.28-6.375.843-2.094.555-3.793 1.25-5.094 2.094v37.922c1.02.187 2.32.355 3.906.5a60.92 60.92 0 0 0 5.188.203c5.687 0 9.972-1.957 12.86-5.875 2.894-3.914 4.343-9.098 4.343-15.547Zm21.281.563c0 5.886-.867 11.21-2.594 15.968-1.718 4.75-4.214 8.81-7.484 12.172-3.262 3.356-7.273 5.946-12.031 7.766-4.762 1.812-10.172 2.719-16.235 2.719-2.523 0-5.164-.117-7.921-.344-2.75-.23-5.454-.531-8.11-.906a114.59 114.59 0 0 1-7.625-1.328c-2.43-.52-4.574-1.055-6.437-1.61V89.568l20.86-3.36v36.673a39.82 39.82 0 0 1 7.265-2.375c2.52-.563 5.226-.844 8.125-.844 5.218 0 9.832.914 13.843 2.734 4.02 1.813 7.38 4.403 10.079 7.766 2.707 3.355 4.757 7.39 6.156 12.11 1.406 4.71 2.11 9.952 2.11 15.734ZM129.378 265.661a136.106 136.106 0 0 0-5.797-9.406 96.315 96.315 0 0 0-6.64-8.75v18.156h-6.157v-27.719h5.078c.875.875 1.844 1.953 2.906 3.235 1.07 1.281 2.16 2.652 3.266 4.11a126.336 126.336 0 0 1 3.313 4.515 253.605 253.605 0 0 1 3.078 4.5v-16.36h6.203v27.72Zm17.208 0h-5.968v-21.047h5.968Zm.547-27.125c0 1.094-.355 1.961-1.062 2.594-.7.625-1.528.937-2.485.937-.968 0-1.808-.312-2.515-.937-.7-.633-1.047-1.5-1.047-2.594 0-1.094.347-1.953 1.047-2.578.707-.625 1.547-.938 2.515-.938.957 0 1.785.313 2.485.938.707.625 1.062 1.484 1.062 2.578Zm24.732 16.563c0 1.656-.242 3.171-.719 4.546-.48 1.375-1.18 2.547-2.094 3.516a9.505 9.505 0 0 1-3.265 2.266c-1.262.531-2.68.797-4.25.797-1.543 0-2.95-.266-4.219-.797a9.656 9.656 0 0 1-3.266-2.266c-.906-.969-1.617-2.14-2.125-3.516-.5-1.375-.75-2.89-.75-4.546 0-1.657.258-3.16.782-4.516.52-1.363 1.238-2.523 2.156-3.484a9.81 9.81 0 0 1 3.281-2.235c1.27-.531 2.649-.797 4.14-.797 1.52 0 2.911.266 4.173.797a9.48 9.48 0 0 1 3.265 2.235c.907.96 1.614 2.12 2.125 3.484.508 1.355.766 2.86.766 4.516Zm-6.078 0c0-1.832-.371-3.274-1.11-4.329-.73-1.062-1.777-1.593-3.14-1.593-1.356 0-2.406.531-3.156 1.593-.75 1.055-1.125 2.497-1.125 4.329 0 1.843.375 3.308 1.125 4.39.75 1.074 1.8 1.61 3.156 1.61 1.363 0 2.41-.536 3.14-1.61.739-1.082 1.11-2.547 1.11-4.39Zm24.155-.125c0-3.832-1.414-5.75-4.235-5.75-.617 0-1.226.086-1.828.25-.605.156-1.09.355-1.453.593v10.828c.29.055.66.102 1.11.141.456.043.952.063 1.484.063 1.625 0 2.847-.555 3.672-1.672.832-1.125 1.25-2.61 1.25-4.453Zm6.078.171c0 1.68-.25 3.2-.75 4.563-.492 1.355-1.203 2.512-2.14 3.469-.93.96-2.075 1.699-3.438 2.218-1.356.52-2.899.782-4.625.782-.73 0-1.493-.04-2.282-.11a43.614 43.614 0 0 1-2.312-.25 31.354 31.354 0 0 1-2.172-.375c-.7-.144-1.313-.3-1.844-.468v-29.391l5.969-.969V245.1a11.13 11.13 0 0 1 2.078-.672c.719-.164 1.488-.25 2.313-.25 1.5 0 2.82.261 3.968.781a7.82 7.82 0 0 1 2.875 2.219c.77.96 1.352 2.117 1.75 3.468.407 1.344.61 2.844.61 4.5Zm10.566 10.516h-5.969v-21.047h5.969Zm.547-27.125c0 1.094-.356 1.961-1.063 2.594-.7.625-1.527.937-2.484.937-.969 0-1.809-.312-2.516-.937-.7-.633-1.047-1.5-1.047-2.594 0-1.094.348-1.953 1.047-2.578.707-.625 1.547-.938 2.516-.938.957 0 1.785.313 2.484.938.707.625 1.063 1.484 1.063 2.578Zm23.013 26.406c-1.024.293-2.336.563-3.938.813-1.594.258-3.273.39-5.031.39-1.781 0-3.266-.242-4.453-.718-1.188-.477-2.133-1.149-2.828-2.016-.688-.875-1.184-1.91-1.485-3.11-.293-1.195-.437-2.515-.437-3.952v-11.735h5.969v11c0 1.93.25 3.32.75 4.172.507.856 1.457 1.281 2.843 1.281.426 0 .88-.02 1.36-.062.476-.04.906-.086 1.281-.14v-16.25h5.969Zm17.154-10.437c0-1.926-.25-3.285-.75-4.078-.493-.801-1.337-1.203-2.532-1.203-.375 0-.766.023-1.172.062-.398.043-.777.09-1.14.14v16.235h-5.97V245.35a37.888 37.888 0 0 1 3.938-.813c.758-.125 1.54-.219 2.344-.281.8-.07 1.586-.11 2.36-.11 1.519 0 2.753.196 3.703.579.945.386 1.726.843 2.343 1.375.852-.614 1.832-1.094 2.938-1.438 1.101-.344 2.125-.516 3.062-.516 1.676 0 3.051.235 4.125.704 1.082.46 1.942 1.117 2.578 1.968.645.856 1.086 1.871 1.329 3.047.238 1.168.359 2.477.359 3.922v11.875h-5.953v-11.156c0-1.926-.25-3.285-.75-4.078-.492-.801-1.336-1.203-2.531-1.203-.325 0-.774.086-1.344.25-.574.156-1.047.355-1.422.593a8.97 8.97 0 0 1 .36 1.938c.05.68.077 1.402.077 2.172v11.484H247.3Zm-98.598 58.946c.614 0 1.254-.055 1.922-.172.664-.125 1.156-.297 1.469-.516v-.359c0-.101.004-.207.016-.312a1.75 1.75 0 0 0 .03-.282 22.022 22.022 0 0 0-.25-2.703c-.124-.844-.35-1.578-.671-2.203a3.775 3.775 0 0 0-1.313-1.469c-.543-.363-1.21-.547-2-.547-.648 0-1.21.137-1.687.407-.48.261-.867.605-1.156 1.031-.293.43-.512.898-.657 1.406-.148.5-.218.992-.218 1.469 0 1.45.347 2.523 1.047 3.219.707.687 1.863 1.031 3.468 1.031Zm2.922 3.875a7.221 7.221 0 0 1-1.875.594 10.44 10.44 0 0 1-1.734.172c-1.73 0-3.211-.207-4.438-.625-1.23-.414-2.242-1.004-3.03-1.766a6.998 6.998 0 0 1-1.735-2.734c-.367-1.063-.547-2.235-.547-3.516 0-1.07.176-2.164.531-3.281a9.002 9.002 0 0 1 1.703-3.063c.77-.914 1.75-1.676 2.938-2.281 1.187-.602 2.617-.906 4.297-.906 3.445 0 6.039 1.062 7.78 3.187 1.75 2.117 2.626 5.164 2.626 9.14 0 2.618-.344 4.923-1.031 6.923-.68 2-1.73 3.683-3.157 5.047-1.418 1.355-3.234 2.386-5.453 3.093-2.21.711-4.836 1.07-7.875 1.094a90.625 90.625 0 0 0-.125-2.469c-.054-.8-.105-1.629-.156-2.484 1.52-.031 2.89-.145 4.11-.344 1.226-.195 2.304-.531 3.234-1a7.477 7.477 0 0 0 2.39-1.86c.657-.769 1.172-1.741 1.547-2.921Zm28.079-9.438a7.27 7.27 0 0 1-.609 2.922c-.398.93-.918 1.828-1.562 2.703-.637.868-1.356 1.7-2.157 2.5a122.18 122.18 0 0 1-2.36 2.266c-.398.375-.827.797-1.296 1.266a34.866 34.866 0 0 0-2.484 2.765c-.336.407-.54.746-.61 1.016h11.922v5h-18.484a6.209 6.209 0 0 1-.078-1.11v-.968c0-1.281.203-2.453.609-3.516.414-1.07.957-2.066 1.625-2.984a19.415 19.415 0 0 1 2.25-2.578c.844-.801 1.68-1.602 2.516-2.407.632-.613 1.234-1.191 1.797-1.734a20.189 20.189 0 0 0 1.484-1.61 7.557 7.557 0 0 0 1-1.546c.238-.52.36-1.051.36-1.594 0-1.164-.337-1.988-1-2.469-.669-.476-1.497-.718-2.485-.718-.719 0-1.399.117-2.031.343-.625.22-1.2.485-1.72.797-.51.305-.952.61-1.327.922-.375.305-.656.547-.844.734l-2.953-4.156c1.164-1.094 2.531-1.992 4.094-2.703a12.025 12.025 0 0 1 5.015-1.062c1.625 0 3.024.187 4.203.562 1.176.375 2.145.902 2.907 1.578a6.077 6.077 0 0 1 1.672 2.485c.363.968.546 2.07.546 3.296Zm11.517 17.282c0 1.199-.383 2.11-1.14 2.734-.762.625-1.622.938-2.579.938-.96 0-1.82-.313-2.578-.938-.761-.625-1.14-1.535-1.14-2.734 0-1.196.379-2.11 1.14-2.735.758-.632 1.617-.953 2.578-.953.957 0 1.817.32 2.578.953.758.625 1.141 1.54 1.141 2.735Zm12.762-11.719c.613 0 1.254-.055 1.922-.172.664-.125 1.156-.297 1.469-.516v-.359c0-.101.003-.207.015-.312a1.75 1.75 0 0 0 .031-.282 22.022 22.022 0 0 0-.25-2.703c-.125-.844-.351-1.578-.671-2.203a3.775 3.775 0 0 0-1.313-1.469c-.543-.363-1.21-.547-2-.547-.648 0-1.21.137-1.687.407-.48.261-.868.605-1.157 1.031-.293.43-.511.898-.656 1.406-.148.5-.219.992-.219 1.469 0 1.45.348 2.523 1.047 3.219.707.687 1.863 1.031 3.469 1.031Zm2.922 3.875a7.221 7.221 0 0 1-1.875.594 10.44 10.44 0 0 1-1.735.172c-1.73 0-3.21-.207-4.437-.625-1.23-.414-2.242-1.004-3.031-1.766a6.998 6.998 0 0 1-1.735-2.734c-.367-1.063-.547-2.235-.547-3.516 0-1.07.176-2.164.532-3.281a9.002 9.002 0 0 1 1.703-3.063c.77-.914 1.75-1.676 2.937-2.281 1.188-.602 2.617-.906 4.297-.906 3.445 0 6.04 1.062 7.781 3.187 1.75 2.117 2.625 5.164 2.625 9.14 0 2.618-.343 4.923-1.03 6.923-.68 2-1.731 3.683-3.157 5.047-1.418 1.355-3.234 2.386-5.453 3.093-2.211.711-4.836 1.07-7.875 1.094a90.625 90.625 0 0 0-.125-2.469c-.055-.8-.106-1.629-.156-2.484 1.52-.031 2.89-.145 4.109-.344 1.226-.195 2.305-.531 3.234-1a7.477 7.477 0 0 0 2.39-1.86c.657-.769 1.173-1.741 1.548-2.921Zm11.032-10.953c.77-.32 1.578-.692 2.422-1.11.844-.414 1.66-.867 2.453-1.359a30.19 30.19 0 0 0 2.297-1.547 15.52 15.52 0 0 0 1.984-1.75h4.172v27.719h-5.969v-19.953a18.386 18.386 0 0 1-2.687 1.453c-.98.437-1.938.82-2.875 1.14ZM50.266 55.813a247.352 247.352 0 0 0-3.328 4.437 31.341 31.341 0 0 0-2.954 4.922h6.282Zm5.828-7.282v16.641h2.969v4.875h-2.97v6.203h-5.827v-6.203h-11.97v-4.36A74.056 74.056 0 0 1 40.5 61.72a69.398 69.398 0 0 1 2.938-4.563 80.118 80.118 0 0 1 3.421-4.578 48.177 48.177 0 0 1 3.594-4.047Zm6.921 5.766c.77-.32 1.578-.691 2.421-1.11.844-.413 1.66-.867 2.454-1.359a30.17 30.17 0 0 0 2.296-1.547 15.52 15.52 0 0 0 1.985-1.75h4.172v27.72h-5.969V56.296c-.805.531-1.7 1.016-2.688 1.453-.98.438-1.937.82-2.875 1.14Zm0 0"/>
</svg>
