<svg xmlns="http://www.w3.org/2000/svg" version="1.2" viewBox="0 0 375 375">
  <path d="m359.121 5.996.461.043.45.066.448.086.438.094.437.117.422.137.422.145.414.168.399.175.39.196.395.21.371.227.371.238.356.247.347.27.336.276.328.29.313.308.304.313.29.324.277.336.262.347.253.36.239.367.226.371.203.395.2.39.18.41.167.407.145.421.137.426.109.43.101.445.083.442.066.46.05.458.028.457.008.472v340.74l-.008.464-.027.465-.051.461-.066.45-.082.445-.102.441-.11.438-.136.422-.145.421-.168.414-.18.399-.199.39-.203.387-.226.38-.239.37-.253.356-.262.347-.277.336-.29.328-.304.313-.313.305-.328.289-.336.277-.347.262-.356.254-.371.238-.371.219-.395.21-.39.2-.399.18-.414.168-.422.144-.422.133-.437.113-.438.102-.449.082-.449.066-.46.05-.466.028-.465.008H17.453l-.465-.008-.465-.027-.457-.05-.46-.067-.442-.082-.445-.102-.43-.113-.426-.133-.422-.144-.406-.168-.41-.18-.39-.2-.387-.21-.38-.22-.366-.237-.36-.254-.347-.262-.336-.277-.325-.29-.312-.304-.305-.313-.293-.328-.277-.336-.262-.347-.254-.356-.238-.37-.227-.38-.21-.386-.188-.391-.184-.399-.168-.414-.144-.421-.137-.422-.117-.438-.094-.441-.086-.446-.058-.449-.051-.46-.031-.466-.008-.464V17.32l.008-.472.03-.457.052-.457.058-.461.086-.442.094-.445.117-.43.137-.426.144-.421.168-.407.184-.41.187-.39.211-.395.227-.371.238-.367.254-.36.262-.347.277-.336.293-.324.305-.313.312-.305.325-.293.336-.277.347-.27.36-.246.367-.238.379-.226.386-.211.391-.196.41-.175.406-.168.422-.145.426-.137.43-.117.445-.094.441-.086.461-.066.457-.043.465-.031.465-.008h340.738l.465.008Zm-333.25 8.86-.465.03-.457.044-.453.062-.45.09-.437.094-.437.117-.426.137-.414.144-.414.168-.402.176-.399.195-.387.211-.378.227-.364.238-.355.246-.348.27-.336.277-.324.29-.313.308-.308.312-.29.324-.276.336-.27.348-.246.355-.238.364-.227.379-.21.386-.188.399-.184.402-.168.414-.145.414-.136.426-.117.438-.094.437-.09.45-.055.452-.05.457-.032.465-.008.465v322.965l.008.465.032.469.05.457.055.449.09.445.094.442.117.437.136.422.145.422.168.414.184.398.187.395.211.383.227.379.238.37.246.356.27.348.277.336.289.328.308.312.313.305.324.29.336.276.348.262.355.254.364.242.378.215.387.211.399.2.402.179.414.168.414.144.426.133.437.113.438.106.45.078.452.067.457.05.465.028.465.007H349.3l.465-.007.468-.028.457-.05.45-.067.453-.078.433-.106.438-.113.422-.133.422-.144.414-.168.398-.18.395-.199.39-.21.371-.216.371-.242.356-.254.348-.262.336-.277.328-.289.312-.305.305-.312.289-.328.277-.336.262-.348.254-.355.242-.371.223-.38.203-.382.199-.395.18-.398.168-.414.144-.422.14-.422.106-.437.106-.442.078-.445.066-.45.051-.456.027-.47.008-.464V26.203l-.008-.465-.027-.465-.05-.457-.067-.453-.078-.449-.211-.875-.14-.426-.145-.414-.168-.414-.18-.402-.2-.399-.202-.386-.223-.38-.242-.363-.254-.355-.262-.348-.277-.336-.29-.324-.304-.312-.312-.309-.329-.289-.335-.277-.348-.27-.356-.246-.37-.238-.372-.227-.39-.21-.395-.196-.398-.176-.414-.168-.422-.144-.422-.137-.438-.117-.433-.094-.453-.09-.45-.062-.457-.043-.468-.032-.465-.007H26.336Zm0 0"/>
  <path d="M139.217 96.708c14.55 0 25.695 2.59 33.437 7.766 7.75 5.18 11.625 13.226 11.625 24.14 0 6.813-1.562 12.344-4.687 16.594-3.125 4.242-7.625 7.574-13.5 10 1.957 2.43 4.007 5.203 6.156 8.328a232.327 232.327 0 0 1 6.36 9.797 191.467 191.467 0 0 1 6.093 10.64 271.147 271.147 0 0 1 5.453 10.845H165.67c-1.774-3.176-3.57-6.395-5.39-9.657a230.341 230.341 0 0 0-5.61-9.515c-1.907-3.082-3.793-6-5.657-8.75-1.867-2.75-3.73-5.242-5.593-7.485h-10.782v35.407H110.81V99.224a125.09 125.09 0 0 1 14.75-1.953c5.094-.375 9.645-.563 13.657-.563Zm1.25 18.61c-1.586 0-3.008.047-4.266.14-1.262.094-2.45.188-3.563.282v26.312h6.157c8.207 0 14.082-1.023 17.625-3.078 3.55-2.05 5.328-5.55 5.328-10.5 0-4.75-1.797-8.129-5.39-10.14-3.595-2.009-8.891-3.016-15.891-3.016Zm125.132 76.984c-3.555 1.023-8.133 1.977-13.735 2.86-5.593.882-11.468 1.328-17.625 1.328-6.25 0-11.453-.84-15.609-2.516-4.148-1.676-7.434-4.031-9.86-7.063-2.429-3.03-4.156-6.644-5.187-10.843-1.023-4.196-1.531-8.817-1.531-13.86v-41h20.86v38.485c0 6.718.882 11.574 2.656 14.562 1.77 2.98 5.082 4.469 9.937 4.469 1.488 0 3.07-.067 4.75-.203a79.43 79.43 0 0 0 4.484-.5v-56.813h20.86ZM94.772 237.614c4.164 0 7.352.746 9.563 2.234 2.219 1.48 3.328 3.778 3.328 6.89 0 1.95-.45 3.532-1.344 4.75-.898 1.212-2.183 2.165-3.86 2.86.563.688 1.15 1.48 1.766 2.375a67.78 67.78 0 0 1 1.813 2.797 47.04 47.04 0 0 1 1.734 3.047 76.86 76.86 0 0 1 1.563 3.094h-7c-.5-.906-1.012-1.82-1.531-2.75a60.1 60.1 0 0 0-1.61-2.719 56.891 56.891 0 0 0-1.625-2.5 28.658 28.658 0 0 0-1.594-2.156h-3.078v10.125h-6.234v-27.313a34.17 34.17 0 0 1 4.203-.562 50.996 50.996 0 0 1 3.906-.172Zm.375 5.328c-.46 0-.87.016-1.234.047-.356.023-.695.047-1.016.078v7.516h1.766c2.344 0 4.02-.29 5.031-.875 1.02-.594 1.531-1.594 1.531-3 0-1.364-.515-2.332-1.546-2.907-1.024-.57-2.532-.859-4.532-.859Zm35.758 22c-1.023.293-2.336.563-3.937.813-1.594.257-3.274.39-5.032.39-1.78 0-3.265-.242-4.453-.719-1.187-.476-2.132-1.148-2.828-2.015-.687-.875-1.183-1.91-1.484-3.11-.293-1.195-.438-2.515-.438-3.953v-11.734h5.97v11c0 1.93.25 3.32.75 4.172.507.855 1.456 1.281 2.843 1.281.426 0 .879-.02 1.36-.062.476-.04.905-.086 1.28-.141v-16.25h5.97Zm5.388-25.562 5.969-.954v6.188h7.156v4.969h-7.156v7.39c0 1.262.219 2.266.656 3.016.438.742 1.32 1.11 2.656 1.11.645 0 1.305-.055 1.985-.173a11.011 11.011 0 0 0 1.86-.5l.843 4.641a16.18 16.18 0 0 1-2.406.75c-.875.219-1.953.328-3.235.328-1.625 0-2.976-.219-4.047-.656-1.062-.445-1.918-1.063-2.562-1.844-.637-.789-1.086-1.742-1.344-2.86-.25-1.124-.375-2.363-.375-3.718Zm17.963 26.28v-30.077l5.969-.97v10.095c.394-.133.906-.258 1.531-.375a9.311 9.311 0 0 1 1.828-.188c1.707 0 3.125.235 4.25.703 1.133.461 2.04 1.117 2.719 1.969.688.855 1.164 1.871 1.438 3.047.28 1.168.421 2.476.421 3.922v11.875h-5.953v-11.156c0-1.926-.25-3.286-.75-4.079-.492-.8-1.402-1.203-2.734-1.203-.531 0-1.031.047-1.5.14a17.48 17.48 0 0 0-1.25.298v16Zm22.56-10.359c0-1.863.285-3.492.86-4.89.57-1.406 1.32-2.57 2.25-3.5a9.42 9.42 0 0 1 3.218-2.125 10.218 10.218 0 0 1 3.75-.719c2.988 0 5.348.914 7.078 2.734 1.739 1.825 2.61 4.512 2.61 8.063 0 .344-.016.726-.047 1.14-.024.407-.047.774-.078 1.094H182.94c.133 1.23.707 2.203 1.719 2.922 1.008.719 2.367 1.078 4.078 1.078a17.22 17.22 0 0 0 3.219-.297c1.05-.195 1.91-.441 2.578-.734l.797 4.828c-.313.168-.743.328-1.282.485-.53.156-1.125.289-1.78.406-.65.125-1.345.226-2.095.312a20.29 20.29 0 0 1-2.234.125c-1.898 0-3.547-.281-4.953-.843-1.399-.563-2.555-1.329-3.469-2.297a9.279 9.279 0 0 1-2.047-3.47c-.437-1.331-.656-2.769-.656-4.312Zm14-2.28a5.617 5.617 0 0 0-.266-1.485 3.573 3.573 0 0 0-1.828-2.188c-.469-.25-1.054-.375-1.75-.375-.668 0-1.242.117-1.719.344-.48.23-.882.531-1.203.906a4.268 4.268 0 0 0-.734 1.297 9.159 9.159 0 0 0-.375 1.5Zm10.36-7.673c1.008-.3 2.316-.578 3.922-.828a32.722 32.722 0 0 1 5.047-.375c1.78 0 3.265.235 4.453.703 1.187.461 2.125 1.117 2.812 1.969.695.855 1.192 1.871 1.485 3.047.289 1.168.437 2.476.437 3.922v11.875h-5.953v-11.156c0-1.926-.258-3.286-.766-4.079-.5-.8-1.445-1.203-2.828-1.203-.43 0-.887.024-1.375.063-.48.043-.902.09-1.265.14v16.235h-5.97Zm29.528 20.312h-5.968v-21.046h5.968Zm.547-27.124c0 1.094-.355 1.96-1.062 2.594-.7.625-1.528.937-2.485.937-.968 0-1.808-.312-2.515-.937-.7-.633-1.047-1.5-1.047-2.594 0-1.094.348-1.953 1.047-2.578.707-.625 1.547-.938 2.515-.938.957 0 1.786.313 2.485.938.707.625 1.062 1.484 1.062 2.578Zm23.013 26.406c-1.023.293-2.336.563-3.937.813a31.61 31.61 0 0 1-5.031.39c-1.782 0-3.266-.242-4.454-.719-1.187-.476-2.132-1.148-2.828-2.015-.687-.875-1.183-1.91-1.484-3.11-.293-1.195-.438-2.515-.438-3.953v-11.734h5.97v11c0 1.93.25 3.32.75 4.172.507.855 1.456 1.281 2.843 1.281.426 0 .879-.02 1.36-.062.476-.04.906-.086 1.28-.141v-16.25h5.97Zm17.154-10.437c0-1.926-.25-3.286-.75-4.079-.492-.8-1.336-1.203-2.531-1.203-.375 0-.766.024-1.172.063-.399.043-.778.09-1.14.14v16.235h-5.97v-20.313a37.888 37.888 0 0 1 3.938-.813 27.677 27.677 0 0 1 2.344-.28c.8-.07 1.586-.11 2.359-.11 1.52 0 2.754.195 3.703.578.945.387 1.727.844 2.344 1.375.851-.613 1.832-1.093 2.937-1.437 1.102-.344 2.125-.516 3.063-.516 1.676 0 3.05.235 4.125.703 1.082.461 1.941 1.117 2.578 1.969.644.855 1.086 1.871 1.328 3.047.238 1.168.36 2.476.36 3.922v11.875h-5.954v-11.156c0-1.926-.25-3.286-.75-4.079-.492-.8-1.336-1.203-2.53-1.203-.325 0-.774.086-1.345.25-.574.157-1.047.356-1.422.594.188.605.305 1.25.36 1.938.05.68.078 1.402.078 2.171v11.485h-5.953Zm-131.481 51.867c.77-.32 1.578-.69 2.422-1.109.843-.414 1.66-.867 2.453-1.36a30.38 30.38 0 0 0 2.297-1.546 15.52 15.52 0 0 0 1.984-1.75h4.172v27.719h-5.969v-19.954c-.805.532-1.7 1.016-2.687 1.454-.98.437-1.938.82-2.875 1.14Zm41.282 8.032c0 4.668-.887 8.25-2.656 10.75-1.774 2.492-4.219 3.734-7.344 3.734-3.117 0-5.562-1.242-7.344-3.734-1.773-2.5-2.656-6.082-2.656-10.75 0-2.32.234-4.375.703-6.157.469-1.789 1.14-3.296 2.016-4.515.883-1.227 1.937-2.16 3.156-2.797 1.227-.645 2.602-.969 4.125-.969 3.125 0 5.57 1.25 7.344 3.75 1.77 2.492 2.656 6.055 2.656 10.688Zm-6.078 0c0-1.383-.07-2.645-.203-3.782-.137-1.132-.352-2.113-.64-2.937-.294-.82-.696-1.457-1.204-1.906-.5-.457-1.125-.688-1.875-.688s-1.371.23-1.86.688c-.492.449-.89 1.086-1.202 1.906-.305.824-.524 1.805-.657 2.937a31.88 31.88 0 0 0-.203 3.782c0 1.386.067 2.652.203 3.797.133 1.148.352 2.136.657 2.968.312.825.71 1.465 1.203 1.922.488.45 1.109.672 1.859.672s1.375-.223 1.875-.672c.508-.457.91-1.097 1.203-1.922.29-.832.504-1.82.64-2.968a32.79 32.79 0 0 0 .204-3.797Zm10.235-8.032c.77-.32 1.578-.69 2.422-1.109.844-.414 1.66-.867 2.453-1.36a29.983 29.983 0 0 0 2.297-1.546 15.52 15.52 0 0 0 1.985-1.75h4.171v27.719h-5.968v-19.954c-.805.532-1.7 1.016-2.688 1.454-.98.437-1.937.82-2.875 1.14Zm28.564 18.798c0 1.199-.383 2.109-1.14 2.734-.762.625-1.622.937-2.579.937-.96 0-1.82-.312-2.578-.937-.762-.625-1.14-1.535-1.14-2.735 0-1.195.378-2.109 1.14-2.734.758-.633 1.617-.953 2.578-.953.957 0 1.817.32 2.578.953.758.625 1.14 1.539 1.14 2.734Zm3.996-18.798c.77-.32 1.578-.69 2.422-1.109.844-.414 1.66-.867 2.453-1.36a30.18 30.18 0 0 0 2.297-1.546 15.52 15.52 0 0 0 1.984-1.75h4.172v27.719h-5.969v-19.954a18.293 18.293 0 0 1-2.687 1.454c-.98.437-1.938.82-2.875 1.14ZM50.266 55.812a247.352 247.352 0 0 0-3.328 4.438 31.341 31.341 0 0 0-2.954 4.922h6.282Zm5.828-7.28v16.64h2.969v4.875h-2.97v6.203h-5.827v-6.203h-11.97v-4.36A74.056 74.056 0 0 1 40.5 61.72a69.398 69.398 0 0 1 2.938-4.563 80.118 80.118 0 0 1 3.421-4.578 48.177 48.177 0 0 1 3.594-4.047Zm16.889 7.28a247.352 247.352 0 0 0-3.328 4.438 31.341 31.341 0 0 0-2.953 4.922h6.281Zm5.828-7.28v16.64h2.97v4.875h-2.97v6.203h-5.828v-6.203H61.015v-4.36a74.056 74.056 0 0 1 2.203-3.968 69.398 69.398 0 0 1 2.937-4.563 80.118 80.118 0 0 1 3.422-4.578 48.177 48.177 0 0 1 3.594-4.047Zm0 0"/>
</svg>
