<svg xmlns="http://www.w3.org/2000/svg" version="1.2" viewBox="0 0 375 375">
  <path d="m359.121 5.996.461.043.45.066.448.086.438.094.437.117.422.137.422.149.414.164.399.175.39.196.395.21.371.227.371.238.356.25.347.266.336.277.328.293.313.305.304.313.29.324.277.336.262.347.253.36.239.367.226.371.203.395.2.39.18.41.167.407.145.421.137.43.109.426.101.445.083.442.066.46.05.458.028.457.008.472v340.74l-.008.464-.027.465-.051.461-.066.45-.082.445-.102.441-.11.438-.136.422-.145.421-.168.414-.18.399-.199.394-.203.383-.226.38-.239.37-.253.356-.262.347-.277.336-.29.328-.304.313-.313.305-.328.289-.336.277-.347.262-.356.254-.371.242-.371.215-.395.21-.39.2-.399.18-.414.168-.422.144-.422.133-.437.113-.438.102-.449.082-.449.066-.46.05-.466.028-.465.008H17.453l-.465-.008-.465-.027-.457-.05-.46-.067-.442-.082-.445-.102-.43-.113-.426-.133-.422-.144-.406-.168-.41-.18-.39-.2-.387-.21-.38-.215-.366-.242-.36-.254-.347-.262-.336-.277-.325-.29-.312-.304-.305-.313-.293-.328-.277-.336-.262-.347-.254-.356-.238-.37-.227-.38-.21-.383-.188-.394-.184-.399-.168-.414-.144-.421-.137-.422-.117-.438-.094-.441-.086-.446-.058-.449-.051-.46-.031-.466-.008-.464V17.32l.008-.472.03-.457.052-.457.058-.461.086-.442.094-.445.117-.426.137-.43.144-.421.168-.407.184-.41.187-.39.211-.395.227-.371.238-.367.254-.36.262-.347.277-.336.293-.324.305-.313.312-.305.325-.293.336-.277.347-.266.36-.25.367-.238.379-.226.386-.211.391-.196.41-.175.406-.165.422-.148.426-.137.43-.117.445-.094.441-.086.461-.066.457-.043.465-.031.465-.008h340.738l.465.008Zm-333.25 8.86-.465.03-.457.044-.453.066-.45.086-.437.094-.437.117-.426.137-.414.144-.414.168-.402.176-.399.195-.387.211-.378.227-.364.238-.355.246-.348.27-.336.277-.324.29-.313.308-.308.312-.29.324-.276.336-.27.348-.246.355-.238.364-.227.379-.21.386-.188.399-.184.402-.168.414-.145.414-.136.43-.117.434-.094.437-.09.45-.055.452-.05.457-.032.465-.008.465v322.965l.008.469.032.465.05.457.055.449.09.445.094.442.117.437.136.422.145.422.168.414.184.398.187.395.211.383.227.379.238.37.246.356.27.348.277.336.289.328.308.312.313.305.324.29.336.276.348.262.355.254.364.242.378.215.387.211.399.2.402.179.414.168.414.144.426.133.437.117.438.102.45.078.452.067.457.05.465.028.465.007H349.3l.465-.007.468-.028.457-.05.45-.067.453-.078.433-.102.438-.117.422-.133.422-.144.414-.168.398-.18.395-.199.39-.21.371-.216.371-.242.356-.254.348-.262.336-.277.328-.289.312-.305.305-.312.289-.328.277-.336.262-.348.254-.355.242-.371.223-.38.203-.382.199-.395.18-.398.168-.414.144-.422.14-.422.106-.437.106-.442.078-.445.066-.45.051-.456.027-.465.008-.469V26.203l-.008-.465-.027-.465-.05-.457-.067-.453-.078-.449-.106-.437-.105-.434-.14-.43-.145-.414-.168-.414-.18-.402-.2-.399-.202-.386-.223-.38-.242-.363-.254-.355-.262-.348-.277-.336-.29-.324-.304-.312-.312-.309-.329-.289-.335-.277-.348-.27-.356-.246-.37-.238-.372-.227-.39-.21-.395-.196-.398-.176-.414-.168-.422-.144-.422-.137-.438-.117-.433-.094-.453-.086-.45-.066-.457-.043-.468-.032-.465-.007H26.336Zm0 0"/>
  <path d="M139.217 96.709c14.55 0 25.695 2.59 33.437 7.765 7.75 5.18 11.625 13.227 11.625 24.14 0 6.813-1.562 12.345-4.687 16.595-3.125 4.242-7.625 7.574-13.5 10 1.957 2.43 4.007 5.203 6.156 8.328a232.327 232.327 0 0 1 6.36 9.797 191.467 191.467 0 0 1 6.093 10.64 271.147 271.147 0 0 1 5.453 10.844H165.67c-1.774-3.176-3.57-6.395-5.39-9.656a230.341 230.341 0 0 0-5.61-9.516c-1.907-3.082-3.793-6-5.657-8.75-1.867-2.75-3.73-5.242-5.593-7.484h-10.782v35.406H110.81V99.224a125.09 125.09 0 0 1 14.75-1.953c5.094-.375 9.645-.562 13.657-.562Zm1.25 18.609c-1.586 0-3.008.047-4.266.14-1.262.094-2.45.188-3.563.282v26.312h6.157c8.207 0 14.082-1.023 17.625-3.078 3.55-2.05 5.328-5.55 5.328-10.5 0-4.75-1.797-8.129-5.39-10.14-3.595-2.008-8.891-3.016-15.891-3.016Zm62.288 79.5V89.568l20.86-3.36v35.282c1.394-.469 3.187-.91 5.374-1.328 2.196-.426 4.32-.641 6.375-.641 5.97 0 10.938.82 14.907 2.453 3.968 1.637 7.14 3.95 9.515 6.938 2.375 2.98 4.051 6.523 5.032 10.625.976 4.105 1.468 8.68 1.468 13.718v41.563h-20.843V155.77c0-6.719-.868-11.473-2.594-14.266-1.73-2.8-4.922-4.203-9.578-4.203-1.875 0-3.633.164-5.266.485-1.625.324-3.09.672-4.39 1.047v55.984Zm-88.082 42.796c4.165 0 7.352.746 9.563 2.234 2.219 1.481 3.328 3.778 3.328 6.891 0 1.95-.45 3.531-1.344 4.75-.898 1.211-2.183 2.164-3.859 2.86.562.687 1.148 1.48 1.766 2.374a67.78 67.78 0 0 1 1.812 2.797 47.04 47.04 0 0 1 1.734 3.047 76.86 76.86 0 0 1 1.563 3.094h-7c-.5-.906-1.012-1.82-1.531-2.75a60.1 60.1 0 0 0-1.61-2.719 56.891 56.891 0 0 0-1.625-2.5 28.658 28.658 0 0 0-1.593-2.156h-3.079v10.125h-6.234v-27.313a34.17 34.17 0 0 1 4.203-.562 50.996 50.996 0 0 1 3.906-.172Zm.375 5.328c-.46 0-.87.016-1.234.047-.355.024-.695.047-1.016.078v7.516h1.766c2.344 0 4.02-.29 5.031-.875 1.02-.594 1.532-1.594 1.532-3 0-1.363-.516-2.332-1.547-2.906-1.024-.57-2.532-.86-4.532-.86Zm17.79 22.719v-30.078l5.968-.969v10.094c.395-.133.907-.258 1.532-.375a9.311 9.311 0 0 1 1.828-.188c1.707 0 3.125.235 4.25.703 1.133.461 2.039 1.118 2.719 1.97.687.855 1.164 1.87 1.437 3.046.281 1.168.422 2.477.422 3.922v11.875h-5.953v-11.156c0-1.926-.25-3.285-.75-4.078-.492-.801-1.403-1.204-2.735-1.204-.53 0-1.03.047-1.5.141-.468.094-.886.195-1.25.297v16Zm43.247-10.563c0 1.657-.242 3.172-.719 4.547-.48 1.375-1.18 2.547-2.094 3.516a9.505 9.505 0 0 1-3.265 2.266c-1.262.53-2.68.796-4.25.796-1.543 0-2.95-.265-4.219-.796a9.656 9.656 0 0 1-3.266-2.266c-.906-.969-1.617-2.14-2.125-3.516-.5-1.375-.75-2.89-.75-4.547 0-1.656.258-3.16.782-4.515.52-1.363 1.238-2.524 2.156-3.485a9.81 9.81 0 0 1 3.281-2.234c1.27-.531 2.649-.797 4.14-.797 1.52 0 2.911.266 4.173.797a9.48 9.48 0 0 1 3.265 2.234c.907.961 1.614 2.122 2.125 3.485.508 1.355.766 2.86.766 4.515Zm-6.078 0c0-1.832-.371-3.273-1.11-4.328-.73-1.062-1.777-1.593-3.14-1.593-1.356 0-2.406.53-3.156 1.593-.75 1.055-1.125 2.496-1.125 4.328 0 1.844.375 3.31 1.125 4.391.75 1.074 1.8 1.61 3.156 1.61 1.363 0 2.41-.536 3.14-1.61.739-1.082 1.11-2.547 1.11-4.39Zm15.748-.125c0 1.844.41 3.329 1.235 4.454.832 1.117 2.062 1.671 3.687 1.671.532 0 1.02-.019 1.469-.062.457-.04.836-.086 1.14-.14v-10.829c-.374-.238-.867-.437-1.468-.594a6.786 6.786 0 0 0-1.813-.25c-2.836 0-4.25 1.918-4.25 5.75Zm13.485 10c-.531.168-1.149.325-1.844.47-.687.148-1.414.269-2.172.374a43.77 43.77 0 0 1-2.328.25c-.781.07-1.531.11-2.25.11-1.742 0-3.293-.25-4.656-.75-1.356-.508-2.5-1.239-3.438-2.188-.93-.945-1.64-2.094-2.14-3.437-.493-1.344-.735-2.86-.735-4.547 0-1.696.211-3.235.64-4.61.427-1.375 1.04-2.539 1.845-3.5a7.998 7.998 0 0 1 2.937-2.203c1.156-.508 2.485-.765 3.985-.765.82 0 1.562.086 2.218.25.657.156 1.317.382 1.985.671v-9.515l5.953-.969Zm11.566.688h-5.969v-21.047h5.969Zm.547-27.125c0 1.094-.356 1.96-1.063 2.594-.699.625-1.527.937-2.484.937-.969 0-1.809-.312-2.516-.937-.699-.633-1.047-1.5-1.047-2.594 0-1.094.348-1.953 1.047-2.578.707-.625 1.547-.938 2.516-.938.957 0 1.785.313 2.484.938.707.625 1.063 1.484 1.063 2.578Zm23.013 26.406c-1.024.293-2.336.563-3.938.813-1.594.258-3.273.39-5.031.39-1.781 0-3.266-.242-4.453-.718-1.188-.477-2.133-1.149-2.828-2.016-.688-.875-1.184-1.91-1.485-3.11-.293-1.195-.437-2.515-.437-3.953v-11.734h5.969v11c0 1.93.25 3.32.75 4.172.507.855 1.457 1.281 2.843 1.281.426 0 .88-.02 1.36-.062.476-.04.906-.086 1.281-.14v-16.25h5.969Zm17.154-10.437c0-1.926-.25-3.285-.75-4.078-.493-.801-1.337-1.204-2.532-1.204-.375 0-.766.024-1.172.063-.398.043-.777.09-1.14.14v16.235h-5.97v-20.313a37.888 37.888 0 0 1 3.938-.813c.758-.124 1.54-.218 2.344-.28.8-.07 1.586-.11 2.36-.11 1.519 0 2.753.196 3.703.578.945.387 1.726.844 2.343 1.375.852-.613 1.832-1.093 2.938-1.437 1.101-.344 2.125-.516 3.062-.516 1.676 0 3.051.235 4.125.703 1.082.461 1.942 1.118 2.578 1.97.645.855 1.086 1.87 1.329 3.046.238 1.168.359 2.477.359 3.922v11.875h-5.953v-11.156c0-1.926-.25-3.285-.75-4.078-.492-.801-1.336-1.204-2.531-1.204-.325 0-.774.086-1.344.25-.574.157-1.047.356-1.422.594a8.97 8.97 0 0 1 .36 1.938c.05.68.077 1.402.077 2.172v11.484h-5.953Zm-111.583 51.868c.77-.32 1.578-.692 2.422-1.11.843-.414 1.66-.867 2.453-1.359a30.39 30.39 0 0 0 2.297-1.547 15.52 15.52 0 0 0 1.984-1.75h4.172v27.719h-5.969v-19.953a18.49 18.49 0 0 1-2.687 1.453c-.98.437-1.938.82-2.875 1.14Zm41.282 8.031c0 4.668-.887 8.25-2.656 10.75-1.774 2.492-4.219 3.734-7.344 3.734-3.117 0-5.562-1.242-7.344-3.734-1.773-2.5-2.656-6.082-2.656-10.75 0-2.32.234-4.375.703-6.156.469-1.79 1.14-3.297 2.016-4.516.883-1.226 1.937-2.16 3.156-2.797 1.227-.644 2.602-.969 4.125-.969 3.125 0 5.57 1.25 7.344 3.75 1.77 2.493 2.656 6.055 2.656 10.688Zm-6.078 0c0-1.383-.07-2.645-.203-3.781-.137-1.133-.352-2.114-.64-2.938-.294-.82-.696-1.457-1.204-1.906-.5-.457-1.125-.688-1.875-.688s-1.371.23-1.86.688c-.492.45-.89 1.086-1.202 1.906-.305.824-.524 1.805-.657 2.938a31.88 31.88 0 0 0-.203 3.781c0 1.387.067 2.652.203 3.797.133 1.148.352 2.137.657 2.969.312.824.71 1.464 1.203 1.921.488.45 1.109.672 1.859.672s1.375-.222 1.875-.672c.508-.457.91-1.097 1.203-1.921.29-.832.504-1.82.64-2.97.134-1.144.204-2.41.204-3.796Zm27.282-6.516a7.27 7.27 0 0 1-.61 2.922 13.5 13.5 0 0 1-1.562 2.703c-.636.868-1.355 1.7-2.156 2.5a122.18 122.18 0 0 1-2.36 2.266c-.398.375-.827.797-1.296 1.266a34.866 34.866 0 0 0-2.485 2.765c-.335.406-.539.746-.609 1.016h11.922v5h-18.484a6.209 6.209 0 0 1-.079-1.11v-.968c0-1.282.204-2.453.61-3.516.414-1.07.957-2.066 1.625-2.984a19.415 19.415 0 0 1 2.25-2.578c.844-.801 1.68-1.602 2.515-2.407.633-.613 1.235-1.191 1.797-1.734a20.189 20.189 0 0 0 1.485-1.61 7.557 7.557 0 0 0 1-1.546c.238-.52.36-1.051.36-1.594 0-1.164-.337-1.988-1-2.469-.669-.476-1.497-.719-2.485-.719-.719 0-1.399.118-2.032.344a9.29 9.29 0 0 0-1.718.797c-.512.305-.953.61-1.328.922-.375.305-.657.547-.844.734l-2.953-4.156c1.164-1.094 2.531-1.992 4.093-2.703a12.025 12.025 0 0 1 5.016-1.063c1.625 0 3.024.188 4.203.563 1.176.375 2.145.902 2.906 1.578a6.077 6.077 0 0 1 1.672 2.484c.364.97.547 2.07.547 3.297Zm11.517 17.282c0 1.199-.383 2.109-1.14 2.734-.762.625-1.622.937-2.579.937-.96 0-1.82-.312-2.578-.937-.762-.625-1.14-1.535-1.14-2.734 0-1.196.378-2.11 1.14-2.735.758-.633 1.617-.953 2.578-.953.957 0 1.817.32 2.578.953.758.625 1.14 1.54 1.14 2.735Zm12.762-11.72c.613 0 1.254-.054 1.922-.171.664-.125 1.156-.297 1.468-.516v-.359c0-.102.004-.207.016-.313a1.75 1.75 0 0 0 .031-.28 22.022 22.022 0 0 0-.25-2.704c-.125-.844-.351-1.578-.672-2.203a3.775 3.775 0 0 0-1.312-1.469c-.543-.363-1.211-.547-2-.547-.649 0-1.211.137-1.688.407-.48.261-.867.605-1.156 1.03-.293.43-.512.9-.656 1.407-.149.5-.219.992-.219 1.469 0 1.45.348 2.523 1.047 3.219.707.687 1.863 1.03 3.469 1.03Zm2.922 3.876a7.221 7.221 0 0 1-1.875.594c-.68.117-1.258.171-1.735.171-1.73 0-3.21-.207-4.437-.625-1.23-.414-2.242-1.003-3.032-1.765a6.998 6.998 0 0 1-1.734-2.735c-.367-1.062-.547-2.234-.547-3.515 0-1.07.176-2.164.531-3.281a9.002 9.002 0 0 1 1.704-3.063c.77-.914 1.75-1.676 2.937-2.281 1.188-.602 2.617-.906 4.297-.906 3.445 0 6.039 1.062 7.781 3.187 1.75 2.117 2.625 5.164 2.625 9.14 0 2.618-.344 4.923-1.031 6.923-.68 2-1.73 3.683-3.156 5.046-1.418 1.356-3.235 2.387-5.453 3.094-2.211.711-4.836 1.07-7.875 1.094a90.625 90.625 0 0 0-.125-2.469c-.055-.8-.106-1.629-.157-2.484 1.52-.031 2.891-.145 4.11-.344 1.226-.195 2.304-.531 3.234-1a7.477 7.477 0 0 0 2.39-1.86c.657-.769 1.173-1.741 1.548-2.921ZM50.266 55.813a247.352 247.352 0 0 0-3.328 4.437 31.341 31.341 0 0 0-2.954 4.922h6.282Zm5.828-7.282v16.641h2.969v4.875h-2.97v6.203h-5.827v-6.203h-11.97v-4.36A74.056 74.056 0 0 1 40.5 61.72a69.398 69.398 0 0 1 2.938-4.563 80.118 80.118 0 0 1 3.421-4.578 48.177 48.177 0 0 1 3.594-4.047Zm18.53 19.563c0-.77-.18-1.457-.531-2.063-.344-.601-.946-1.101-1.797-1.5-.856-.394-2-.695-3.438-.906-1.437-.219-3.25-.328-5.437-.328.289-2.488.531-5.008.719-7.562.187-2.563.332-4.961.437-7.204h15v5h-10c-.055.961-.117 1.887-.187 2.782-.063.898-.137 1.68-.22 2.343 3.895.262 6.77 1.172 8.626 2.735 1.851 1.562 2.781 3.73 2.781 6.5 0 1.281-.23 2.469-.687 3.562a7.61 7.61 0 0 1-2.032 2.844c-.906.793-2.047 1.418-3.422 1.875-1.375.445-2.98.672-4.812.672-.73 0-1.492-.047-2.281-.14a29.875 29.875 0 0 1-2.266-.36c-.73-.145-1.39-.297-1.984-.453-.586-.156-1.04-.317-1.36-.485l1.078-4.921c.665.304 1.547.593 2.641.875 1.094.273 2.399.406 3.922.406 1.844 0 3.176-.364 4-1.094.832-.738 1.25-1.598 1.25-2.578Zm0 0"/>
</svg>
