<svg xmlns="http://www.w3.org/2000/svg" version="1.2" viewBox="0 0 375 375">
  <path d="m359.121 5.996.461.043.45.066.448.086.438.094.437.117.422.137.422.145.414.168.399.175.39.196.395.21.371.227.371.238.356.247.347.27.336.276.328.29.313.308.304.313.29.324.277.336.262.347.253.36.239.367.226.371.203.395.2.39.18.41.167.407.145.421.137.426.109.43.101.445.083.442.066.46.05.458.028.457.008.472v340.74l-.008.464-.027.465-.051.461-.066.45-.082.445-.102.441-.11.438-.136.422-.145.421-.168.414-.18.399-.199.39-.203.387-.226.38-.239.37-.253.356-.262.347-.277.336-.29.328-.304.313-.313.305-.328.289-.336.277-.347.262-.356.254-.371.238-.371.219-.395.21-.39.2-.399.18-.414.168-.422.144-.422.133-.437.113-.438.102-.449.082-.449.066-.46.05-.466.028-.465.008H17.453l-.465-.008-.465-.027-.457-.05-.46-.067-.442-.082-.445-.102-.43-.113-.426-.133-.422-.144-.406-.168-.41-.18-.39-.2-.387-.21-.38-.22-.366-.237-.36-.254-.347-.262-.336-.277-.325-.29-.312-.304-.305-.313-.293-.328-.277-.336-.262-.347-.254-.356-.238-.37-.227-.38-.21-.386-.188-.391-.184-.399-.168-.414-.144-.421-.137-.422-.117-.438-.094-.441-.086-.446-.058-.449-.051-.46-.031-.466-.008-.464V17.32l.008-.472.03-.457.052-.457.058-.461.086-.442.094-.445.117-.43.137-.426.144-.421.168-.407.184-.41.187-.39.211-.395.227-.371.238-.367.254-.36.262-.347.277-.336.293-.324.305-.313.312-.305.325-.293.336-.277.347-.27.36-.246.367-.238.379-.226.386-.211.391-.196.41-.175.406-.168.422-.145.426-.137.43-.117.445-.094.441-.086.461-.066.457-.043.465-.031.465-.008h340.738l.465.008Zm-333.25 8.86-.465.03-.457.044-.453.062-.45.09-.437.094-.437.117-.426.137-.414.144-.414.168-.402.176-.399.195-.387.211-.378.227-.364.238-.355.246-.348.27-.336.277-.324.29-.313.308-.308.312-.29.324-.276.336-.27.348-.246.355-.238.364-.227.379-.21.386-.188.399-.184.402-.168.414-.145.414-.136.426-.117.438-.094.437-.09.45-.055.452-.05.457-.032.465-.008.465v322.965l.008.465.032.469.05.457.055.449.09.445.094.442.117.437.136.422.145.422.168.414.184.398.187.395.211.383.227.379.238.37.246.356.27.348.277.336.289.328.308.312.313.305.324.29.336.276.348.262.355.254.364.242.378.215.387.211.399.2.402.179.414.168.414.144.426.133.437.113.438.106.45.078.452.067.457.05.465.028.465.007H349.3l.465-.007.468-.028.457-.05.45-.067.453-.078.433-.106.438-.113.422-.133.422-.144.414-.168.398-.18.395-.199.39-.21.371-.216.371-.242.356-.254.348-.262.336-.277.328-.289.312-.305.305-.312.289-.328.277-.336.262-.348.254-.355.242-.371.223-.38.203-.382.199-.395.18-.398.168-.414.144-.422.14-.422.106-.437.106-.442.078-.445.066-.45.051-.456.027-.47.008-.464V26.203l-.008-.465-.027-.465-.05-.457-.067-.453-.078-.449-.211-.875-.14-.426-.145-.414-.168-.414-.18-.402-.2-.399-.202-.386-.223-.38-.242-.363-.254-.355-.262-.348-.277-.336-.29-.324-.304-.312-.312-.309-.329-.289-.335-.277-.348-.27-.356-.246-.37-.238-.372-.227-.39-.21-.395-.196-.398-.176-.414-.168-.422-.144-.422-.137-.438-.117-.433-.094-.453-.09-.45-.062-.457-.043-.468-.032-.465-.007H26.336Zm0 0"/>
  <path d="M155.31 196.77c-15.774 0-27.79-4.382-36.048-13.155-8.25-8.77-12.375-21.223-12.375-37.36 0-8.02 1.258-15.18 3.782-21.484 2.52-6.301 5.968-11.617 10.343-15.953 4.383-4.344 9.61-7.633 15.672-9.875 6.07-2.239 12.656-3.36 19.75-3.36 4.102 0 7.832.309 11.188.922 3.363.606 6.3 1.305 8.812 2.094 2.52.793 4.617 1.61 6.297 2.453 1.688.836 2.898 1.484 3.64 1.953l-6.296 17.64c-2.98-1.581-6.453-2.929-10.422-4.046-3.969-1.125-8.469-1.688-13.5-1.688-3.367 0-6.656.563-9.875 1.688-3.219 1.117-6.063 2.906-8.531 5.375-2.47 2.469-4.453 5.668-5.953 9.594-1.493 3.918-2.235 8.672-2.235 14.265 0 4.48.488 8.657 1.469 12.532.976 3.867 2.562 7.199 4.75 10 2.195 2.804 5.066 5.023 8.61 6.656 3.55 1.625 7.843 2.437 12.874 2.437 3.176 0 6.024-.18 8.547-.547 2.52-.375 4.758-.816 6.719-1.328 1.957-.52 3.68-1.101 5.172-1.75a262.82 262.82 0 0 0 4.062-1.828l6.016 17.5c-3.086 1.867-7.422 3.543-13.016 5.031-5.593 1.489-12.078 2.235-19.453 2.235Zm62.847-39.327c0 6.449 1.442 11.632 4.328 15.547 2.895 3.917 7.188 5.875 12.875 5.875 1.864 0 3.586-.067 5.172-.204 1.594-.144 2.899-.312 3.922-.5V140.24c-1.305-.844-3.008-1.54-5.11-2.094a24.415 24.415 0 0 0-6.359-.844c-9.886 0-14.828 6.715-14.828 20.14Zm47.156 35c-1.867.554-4.011 1.09-6.437 1.609-2.43.512-4.969.953-7.625 1.328a143.85 143.85 0 0 1-8.125.906 96.3 96.3 0 0 1-7.906.344c-6.063 0-11.477-.887-16.235-2.656-4.761-1.77-8.777-4.313-12.047-7.625-3.261-3.313-5.757-7.32-7.484-12.031-1.719-4.72-2.578-10.016-2.578-15.891 0-5.969.742-11.352 2.234-16.156 1.5-4.813 3.645-8.895 6.438-12.25 2.8-3.364 6.226-5.93 10.281-7.703 4.063-1.77 8.707-2.657 13.938-2.657 2.894 0 5.484.282 7.765.844a42.477 42.477 0 0 1 6.922 2.375V89.568l20.86-3.36Zm-150.109 73.78c-4.512 0-7.95-1.25-10.313-3.75-2.355-2.508-3.53-6.07-3.53-10.687 0-2.29.359-4.336 1.077-6.14.72-1.802 1.703-3.321 2.953-4.563 1.258-1.239 2.754-2.176 4.485-2.813 1.738-.644 3.617-.969 5.64-.969 1.176 0 2.243.09 3.204.266.957.168 1.796.367 2.515.594a13.11 13.11 0 0 1 2.844 1.265l-1.797 5.032c-.855-.446-1.851-.832-2.984-1.157-1.137-.32-2.422-.484-3.86-.484-.96 0-1.902.164-2.828.484a6.45 6.45 0 0 0-2.437 1.547c-.7.7-1.262 1.61-1.688 2.735-.43 1.117-.64 2.476-.64 4.078 0 1.281.132 2.476.406 3.578.281 1.105.734 2.058 1.36 2.86.632.804 1.456 1.437 2.468 1.906 1.008.468 2.238.703 3.687.703.907 0 1.72-.051 2.438-.157a18.68 18.68 0 0 0 1.906-.39 9.826 9.826 0 0 0 1.485-.5l1.171-.516 1.72 5c-.888.531-2.134 1.012-3.735 1.438-1.594.425-3.445.64-5.547.64Zm20.92-4.718c.582 0 1.14-.008 1.672-.032.53-.031.957-.07 1.28-.125v-4.531c-.241-.05-.6-.102-1.077-.156a12.55 12.55 0 0 0-1.313-.078c-.562 0-1.094.039-1.594.109a4.001 4.001 0 0 0-1.296.375 2.307 2.307 0 0 0-.891.766c-.211.312-.313.71-.313 1.187 0 .938.313 1.59.938 1.953.633.356 1.5.532 2.594.532Zm-.485-17.438c1.758 0 3.223.2 4.391.594 1.176.398 2.117.969 2.828 1.719.707.75 1.207 1.664 1.5 2.734.29 1.062.438 2.246.438 3.547v12.406a72.45 72.45 0 0 1-3.563.656c-1.512.25-3.351.375-5.516.375-1.355 0-2.59-.12-3.703-.36-1.105-.237-2.058-.628-2.859-1.171a5.485 5.485 0 0 1-1.828-2.14c-.43-.883-.64-1.97-.64-3.25 0-1.22.241-2.255.734-3.11a5.718 5.718 0 0 1 1.968-2.047c.832-.508 1.782-.875 2.844-1.094a16.03 16.03 0 0 1 3.328-.343c.77 0 1.453.039 2.047.109a9.568 9.568 0 0 1 1.469.25v-.562c0-1.008-.309-1.82-.922-2.438-.617-.613-1.68-.922-3.188-.922a20.8 20.8 0 0 0-3.015.219c-.98.148-1.828.355-2.547.625l-.766-4.797a14.07 14.07 0 0 1 1.297-.344 20.53 20.53 0 0 1 1.703-.328 32.544 32.544 0 0 1 1.938-.234 22.387 22.387 0 0 1 2.062-.094Zm19.636 10.906c0 1.844.41 3.328 1.234 4.453.832 1.118 2.063 1.672 3.688 1.672.53 0 1.02-.02 1.468-.062.457-.04.836-.086 1.141-.14v-10.829c-.375-.238-.867-.437-1.469-.594a6.786 6.786 0 0 0-1.812-.25c-2.836 0-4.25 1.918-4.25 5.75Zm13.484 10c-.531.168-1.148.324-1.844.469a29.8 29.8 0 0 1-2.171.375 43.77 43.77 0 0 1-2.329.25c-.78.07-1.53.11-2.25.11-1.742 0-3.293-.25-4.656-.75-1.355-.508-2.5-1.239-3.437-2.188-.93-.945-1.64-2.094-2.14-3.438-.493-1.343-.735-2.859-.735-4.546 0-1.696.21-3.235.64-4.61.426-1.375 1.04-2.539 1.844-3.5a7.998 7.998 0 0 1 2.938-2.203c1.156-.508 2.484-.766 3.984-.766.82 0 1.562.086 2.219.25.656.157 1.316.383 1.984.672v-9.515l5.953-.97Zm17.16-10.468c0-1.926-.25-3.286-.75-4.079-.492-.8-1.336-1.203-2.531-1.203-.375 0-.766.024-1.172.063-.399.043-.777.09-1.14.14v16.235h-5.97v-20.313a37.888 37.888 0 0 1 3.938-.813 27.677 27.677 0 0 1 2.344-.28c.8-.07 1.586-.11 2.36-.11 1.519 0 2.753.195 3.702.578.946.387 1.727.844 2.344 1.375.852-.613 1.832-1.093 2.937-1.437 1.102-.344 2.125-.516 3.063-.516 1.676 0 3.05.235 4.125.703 1.082.461 1.941 1.117 2.578 1.969.645.855 1.086 1.871 1.328 3.047.239 1.168.36 2.476.36 3.922v11.875h-5.954v-11.156c0-1.926-.25-3.286-.75-4.079-.492-.8-1.335-1.203-2.53-1.203-.325 0-.774.086-1.345.25-.574.157-1.046.356-1.421.594.187.605.304 1.25.359 1.938.05.68.078 1.402.078 2.171v11.485h-5.953Zm28.886 11.155h-5.969v-21.046h5.969Zm.547-27.124c0 1.094-.356 1.96-1.063 2.594-.699.625-1.527.937-2.484.937-.969 0-1.809-.312-2.516-.937-.699-.633-1.047-1.5-1.047-2.594 0-1.094.348-1.953 1.047-2.578.707-.625 1.547-.938 2.516-.938.957 0 1.785.313 2.484.938.707.625 1.063 1.484 1.063 2.578Zm23.013 26.406c-1.024.293-2.336.563-3.938.813-1.593.257-3.273.39-5.03.39-1.782 0-3.267-.242-4.454-.719-1.188-.476-2.133-1.148-2.828-2.015-.688-.875-1.184-1.91-1.485-3.11-.292-1.195-.437-2.515-.437-3.953v-11.734h5.969v11c0 1.93.25 3.32.75 4.172.508.855 1.457 1.281 2.843 1.281.426 0 .88-.02 1.36-.062.476-.04.906-.086 1.281-.141v-16.25h5.969Zm17.153-10.437c0-1.926-.25-3.286-.75-4.079-.492-.8-1.336-1.203-2.53-1.203-.376 0-.766.024-1.173.063-.398.043-.777.09-1.14.14v16.235h-5.97v-20.313a37.888 37.888 0 0 1 3.938-.813c.758-.124 1.54-.218 2.344-.28.801-.07 1.586-.11 2.36-.11 1.52 0 2.753.195 3.703.578.945.387 1.726.844 2.343 1.375.852-.613 1.832-1.093 2.938-1.437 1.101-.344 2.125-.516 3.062-.516 1.676 0 3.051.235 4.125.703 1.082.461 1.942 1.117 2.579 1.969.644.855 1.085 1.871 1.328 3.047.238 1.168.36 2.476.36 3.922v11.875h-5.954v-11.156c0-1.926-.25-3.286-.75-4.079-.492-.8-1.336-1.203-2.531-1.203-.325 0-.774.086-1.344.25-.574.157-1.047.356-1.422.594.188.605.305 1.25.36 1.938.05.68.078 1.402.078 2.171v11.485h-5.954Zm-115.581 51.867c.77-.32 1.578-.69 2.422-1.109.843-.414 1.66-.867 2.453-1.36a30.38 30.38 0 0 0 2.297-1.546 15.52 15.52 0 0 0 1.984-1.75h4.172v27.719h-5.969v-19.954c-.805.532-1.7 1.016-2.687 1.454-.98.437-1.938.82-2.875 1.14Zm22.72 0c.77-.32 1.578-.69 2.421-1.109a28.13 28.13 0 0 0 2.454-1.36 30.16 30.16 0 0 0 2.296-1.546 15.52 15.52 0 0 0 1.985-1.75h4.172v27.719h-5.97v-19.954a18.242 18.242 0 0 1-2.687 1.454c-.98.437-1.937.82-2.875 1.14Zm39.766 1.516a7.27 7.27 0 0 1-.61 2.922 13.5 13.5 0 0 1-1.562 2.703 21.56 21.56 0 0 1-2.156 2.5 122.18 122.18 0 0 1-2.36 2.266c-.398.375-.827.797-1.296 1.265a34.866 34.866 0 0 0-2.485 2.766c-.335.406-.539.746-.609 1.016h11.922v5h-18.484a6.209 6.209 0 0 1-.079-1.11v-.969c0-1.28.204-2.453.61-3.515.414-1.07.957-2.067 1.625-2.985a19.415 19.415 0 0 1 2.25-2.578c.844-.8 1.68-1.601 2.515-2.406.633-.613 1.235-1.191 1.797-1.734a20.189 20.189 0 0 0 1.485-1.61 7.557 7.557 0 0 0 1-1.547c.238-.52.36-1.05.36-1.593 0-1.164-.337-1.989-1-2.469-.669-.477-1.497-.719-2.485-.719-.719 0-1.399.117-2.032.344a9.225 9.225 0 0 0-1.718.797c-.512.305-.953.61-1.328.922-.375.304-.657.547-.844.734l-2.953-4.156c1.164-1.094 2.531-1.992 4.093-2.703a12.025 12.025 0 0 1 5.016-1.063c1.625 0 3.024.188 4.203.563 1.176.375 2.145.902 2.906 1.578a6.077 6.077 0 0 1 1.672 2.484c.364.969.547 2.07.547 3.297Zm11.517 17.282c0 1.199-.383 2.109-1.14 2.734-.762.625-1.622.937-2.579.937-.96 0-1.82-.312-2.578-.937-.762-.625-1.14-1.535-1.14-2.735 0-1.195.378-2.109 1.14-2.734.758-.633 1.617-.953 2.578-.953.957 0 1.817.32 2.578.953.758.625 1.14 1.539 1.14 2.734Zm13.965-17.282a247.352 247.352 0 0 0-3.328 4.438 31.341 31.341 0 0 0-2.953 4.921h6.28Zm5.828-7.281v16.64h2.969v4.875h-2.969v6.204h-5.828v-6.204h-11.969v-4.359a74.056 74.056 0 0 1 2.203-3.969 69.398 69.398 0 0 1 2.938-4.562 80.118 80.118 0 0 1 3.422-4.578 48.177 48.177 0 0 1 3.593-4.047ZM50.266 55.812a247.352 247.352 0 0 0-3.328 4.438 31.341 31.341 0 0 0-2.954 4.922h6.282Zm5.828-7.281v16.64h2.969v4.876h-2.97v6.203h-5.827v-6.203h-11.97v-4.36a74.056 74.056 0 0 1 2.204-3.969 69.398 69.398 0 0 1 2.938-4.562 80.118 80.118 0 0 1 3.421-4.578 48.177 48.177 0 0 1 3.594-4.047ZM81.42 68.53c0 1.2-.21 2.298-.624 3.298a7.383 7.383 0 0 1-1.86 2.625c-.824.742-1.855 1.32-3.093 1.734-1.242.414-2.68.625-4.313.625-1.867 0-3.418-.262-4.656-.781-1.242-.52-2.242-1.164-3-1.938-.762-.77-1.305-1.613-1.625-2.53-.313-.927-.469-1.774-.469-2.548 0-.8.102-1.535.313-2.203A7.28 7.28 0 0 1 62.968 65a9.403 9.403 0 0 1 1.265-1.5c.47-.457.97-.89 1.5-1.297-1.148-.926-1.996-1.844-2.547-2.75-.542-.906-.812-2.067-.812-3.485 0-1.062.219-2.086.656-3.078a7.863 7.863 0 0 1 1.86-2.578c.8-.738 1.77-1.328 2.906-1.765 1.133-.438 2.394-.657 3.781-.657 1.625 0 3.016.235 4.172.703 1.164.47 2.117 1.063 2.86 1.782.75.718 1.288 1.527 1.624 2.422.332.886.5 1.773.5 2.656 0 1.281-.34 2.476-1.015 3.578-.68 1.105-1.528 1.98-2.547 2.625 1.52.98 2.61 2.012 3.265 3.094.657 1.086.985 2.343.985 3.78Zm-13.843.235c0 .325.07.68.219 1.063.144.387.379.742.703 1.062.32.325.734.594 1.234.813.508.21 1.125.312 1.844.312 1.383 0 2.395-.332 3.031-1 .645-.664.97-1.414.97-2.25 0-.613-.142-1.16-.423-1.64a4.266 4.266 0 0 0-1.14-1.25 8.103 8.103 0 0 0-1.704-.97 23.084 23.084 0 0 0-2.093-.78 8.21 8.21 0 0 0-1.89 1.968c-.5.743-.75 1.633-.75 2.672Zm7.406-13.156a2.7 2.7 0 0 0-.187-.937 2.6 2.6 0 0 0-.594-.938A3.586 3.586 0 0 0 73.14 53c-.43-.207-.95-.313-1.563-.313-.586 0-1.09.094-1.516.281-.43.188-.78.438-1.062.75a3.06 3.06 0 0 0-.625.97 2.693 2.693 0 0 0-.203 1c0 .855.312 1.655.937 2.405.633.743 1.711 1.383 3.235 1.922.851-.539 1.504-1.156 1.953-1.843.457-.696.687-1.551.687-2.563Zm0 0"/>
</svg>
