<svg xmlns="http://www.w3.org/2000/svg" version="1.2" viewBox="0 0 375 375">
  <path d="m359.121 5.996.461.043.45.066.448.086.438.094.437.117.422.137.422.145.414.168.399.175.39.196.395.21.371.227.371.238.356.247.347.27.336.276.328.29.313.308.304.313.29.324.277.336.262.347.253.36.239.367.226.371.203.395.2.39.18.41.167.407.145.421.137.426.109.43.101.445.083.442.066.46.05.458.028.457.008.472v340.74l-.008.464-.027.465-.051.461-.066.45-.082.445-.102.441-.11.438-.136.422-.145.421-.168.414-.18.399-.199.39-.203.387-.226.38-.239.37-.253.356-.262.347-.277.336-.29.328-.304.313-.313.305-.328.289-.336.277-.347.262-.356.254-.371.238-.371.219-.395.21-.39.2-.399.18-.414.168-.422.144-.422.133-.437.113-.438.102-.449.082-.449.066-.46.05-.466.028-.465.008H17.453l-.465-.008-.465-.027-.457-.05-.46-.067-.442-.082-.445-.102-.43-.113-.426-.133-.422-.144-.406-.168-.41-.18-.39-.2-.387-.21-.38-.22-.366-.237-.36-.254-.347-.262-.336-.277-.325-.29-.312-.304-.305-.313-.293-.328-.277-.336-.262-.347-.254-.356-.238-.37-.227-.38-.21-.386-.188-.391-.184-.399-.168-.414-.144-.421-.137-.422-.117-.438-.094-.441-.086-.446-.058-.449-.051-.46-.031-.466-.008-.464V17.32l.008-.472.03-.457.052-.457.058-.461.086-.442.094-.445.117-.43.137-.426.144-.421.168-.407.184-.41.187-.39.211-.395.227-.371.238-.367.254-.36.262-.347.277-.336.293-.324.305-.313.312-.305.325-.293.336-.277.347-.27.36-.246.367-.238.379-.226.386-.211.391-.196.41-.175.406-.168.422-.145.426-.137.43-.117.445-.094.441-.086.461-.066.457-.043.465-.031.465-.008h340.738l.465.008Zm-333.25 8.86-.465.03-.457.044-.453.062-.45.09-.437.094-.437.117-.426.137-.414.144-.414.168-.402.176-.399.195-.387.211-.378.227-.364.238-.355.246-.348.27-.336.277-.324.29-.313.308-.308.312-.29.324-.276.336-.27.348-.246.355-.238.364-.227.379-.21.386-.188.399-.184.402-.168.414-.145.414-.136.426-.117.438-.094.437-.09.45-.055.452-.05.457-.032.465-.008.465v322.965l.008.465.032.469.05.457.055.449.09.445.094.442.117.437.136.422.145.422.168.414.184.398.187.395.211.383.227.379.238.37.246.356.27.348.277.336.289.328.308.312.313.305.324.29.336.276.348.262.355.254.364.242.378.215.387.211.399.2.402.179.414.168.414.144.426.133.437.113.438.106.45.078.452.067.457.05.465.028.465.007H349.3l.465-.007.468-.028.457-.05.45-.067.453-.078.433-.106.438-.113.422-.133.422-.144.414-.168.398-.18.395-.199.39-.21.371-.216.371-.242.356-.254.348-.262.336-.277.328-.289.312-.305.305-.312.289-.328.277-.336.262-.348.254-.355.242-.371.223-.38.203-.382.199-.395.18-.398.168-.414.144-.422.14-.422.106-.437.106-.442.078-.445.066-.45.051-.456.027-.47.008-.464V26.203l-.008-.465-.027-.465-.05-.457-.067-.453-.078-.449-.211-.875-.14-.426-.145-.414-.168-.414-.18-.402-.2-.399-.202-.386-.223-.38-.242-.363-.254-.355-.262-.348-.277-.336-.29-.324-.304-.312-.312-.309-.329-.289-.335-.277-.348-.27-.356-.246-.37-.238-.372-.227-.39-.21-.395-.196-.398-.176-.414-.168-.422-.144-.422-.137-.438-.117-.433-.094-.453-.09-.45-.062-.457-.043-.468-.032-.465-.007H26.336Zm0 0"/>
  <path d="M135.373 97.833H157.2v96.985h-21.828Zm42.82 25.891c3.539-1.031 8.11-1.988 13.703-2.875 5.602-.883 11.484-1.328 17.64-1.328 6.25 0 11.454.82 15.61 2.453 4.156 1.637 7.441 3.95 9.86 6.937 2.425 2.98 4.148 6.524 5.171 10.625 1.031 4.106 1.547 8.68 1.547 13.72v41.562H220.88V155.77c0-6.719-.886-11.473-2.656-14.266-1.773-2.8-5.086-4.203-9.937-4.203-1.5 0-3.09.074-4.766.219-1.68.136-3.168.293-4.469.469v56.828h-20.86Zm-52.47 114.218h6.234v27.719h-6.234Zm12.234 7.406c1.008-.3 2.316-.578 3.922-.828a32.722 32.722 0 0 1 5.046-.375c1.782 0 3.266.235 4.454.703 1.187.461 2.125 1.117 2.812 1.969.695.855 1.192 1.871 1.484 3.047.29 1.168.438 2.476.438 3.922v11.875h-5.953v-11.156c0-1.926-.258-3.286-.766-4.079-.5-.8-1.445-1.203-2.828-1.203-.43 0-.887.024-1.375.063-.48.043-.902.09-1.266.14v16.235h-5.968Zm28.638 9.625c0 1.844.41 3.328 1.234 4.453.832 1.118 2.063 1.672 3.688 1.672.53 0 1.02-.02 1.468-.062.457-.04.836-.086 1.14-.14v-10.829c-.374-.238-.866-.437-1.468-.594a6.786 6.786 0 0 0-1.812-.25c-2.836 0-4.25 1.918-4.25 5.75Zm13.484 10c-.531.168-1.148.324-1.844.469-.687.148-1.414.27-2.172.375a43.77 43.77 0 0 1-2.328.25c-.781.07-1.531.11-2.25.11-1.742 0-3.293-.25-4.656-.75-1.355-.508-2.5-1.239-3.437-2.188-.93-.945-1.641-2.094-2.141-3.438-.492-1.343-.734-2.859-.734-4.546 0-1.696.21-3.235.64-4.61.426-1.375 1.04-2.539 1.844-3.5a7.998 7.998 0 0 1 2.937-2.203c1.157-.508 2.485-.766 3.985-.766.82 0 1.562.086 2.219.25.656.157 1.316.383 1.984.672v-9.515l5.953-.97Zm11.566.687h-5.969v-21.046h5.97Zm.547-27.124c0 1.094-.355 1.96-1.063 2.594-.699.625-1.527.937-2.484.937-.969 0-1.808-.312-2.516-.937-.699-.633-1.046-1.5-1.046-2.594 0-1.094.347-1.953 1.046-2.578.708-.625 1.547-.938 2.516-.938.957 0 1.785.313 2.484.938.708.625 1.063 1.484 1.063 2.578Zm23.013 26.406c-1.023.293-2.336.563-3.937.813-1.594.257-3.274.39-5.032.39-1.781 0-3.265-.242-4.453-.719-1.187-.476-2.133-1.148-2.828-2.015-.687-.875-1.184-1.91-1.484-3.11-.293-1.195-.438-2.515-.438-3.953v-11.734h5.969v11c0 1.93.25 3.32.75 4.172.508.855 1.457 1.281 2.844 1.281.425 0 .879-.02 1.359-.062.477-.04.906-.086 1.281-.141v-16.25h5.969Zm17.154-10.437c0-1.926-.25-3.286-.75-4.079-.493-.8-1.336-1.203-2.532-1.203-.375 0-.765.024-1.172.063-.398.043-.777.09-1.14.14v16.235h-5.969v-20.313a37.888 37.888 0 0 1 3.938-.813 27.653 27.653 0 0 1 2.343-.28c.801-.07 1.586-.11 2.36-.11 1.52 0 2.754.195 3.703.578.945.387 1.726.844 2.344 1.375.851-.613 1.832-1.093 2.937-1.437 1.102-.344 2.125-.516 3.063-.516 1.675 0 3.05.235 4.125.703 1.082.461 1.941 1.117 2.578 1.969.644.855 1.086 1.871 1.328 3.047.238 1.168.36 2.476.36 3.922v11.875h-5.954v-11.156c0-1.926-.25-3.286-.75-4.079-.492-.8-1.336-1.203-2.531-1.203-.324 0-.774.086-1.344.25-.574.157-1.047.356-1.422.594.188.605.305 1.25.36 1.938.05.68.078 1.402.078 2.171v11.485h-5.953Zm-92.422 51.867c.77-.32 1.578-.69 2.422-1.109.843-.414 1.66-.867 2.453-1.36a30.38 30.38 0 0 0 2.297-1.546 15.52 15.52 0 0 0 1.984-1.75h4.172v27.719h-5.969v-19.954c-.805.532-1.7 1.016-2.687 1.454-.98.437-1.938.82-2.875 1.14Zm22.72 0c.77-.32 1.578-.69 2.421-1.109a28.13 28.13 0 0 0 2.454-1.36 30.16 30.16 0 0 0 2.296-1.546 15.52 15.52 0 0 0 1.985-1.75h4.172v27.719h-5.97v-19.954a18.242 18.242 0 0 1-2.687 1.454c-.98.437-1.937.82-2.875 1.14Zm32.688 1.516a247.352 247.352 0 0 0-3.328 4.438 31.341 31.341 0 0 0-2.953 4.921h6.281Zm5.828-7.281v16.64h2.969v4.875h-2.969v6.204h-5.828v-6.204h-11.969v-4.359a74.056 74.056 0 0 1 2.203-3.969 69.398 69.398 0 0 1 2.938-4.562 80.118 80.118 0 0 1 3.422-4.578 48.177 48.177 0 0 1 3.594-4.047Zm12.767 24.563c0 1.199-.383 2.109-1.14 2.734-.762.625-1.622.937-2.579.937-.96 0-1.82-.312-2.578-.937-.762-.625-1.14-1.535-1.14-2.735 0-1.195.378-2.109 1.14-2.734.758-.633 1.617-.953 2.578-.953.957 0 1.817.32 2.578.953.758.625 1.14 1.539 1.14 2.734Zm22.402-4.563c0 1.2-.21 2.297-.625 3.297a7.383 7.383 0 0 1-1.859 2.625c-.824.742-1.855 1.32-3.094 1.734-1.242.414-2.68.625-4.312.625-1.867 0-3.418-.262-4.657-.781-1.242-.52-2.242-1.164-3-1.938-.761-.77-1.304-1.613-1.625-2.53-.312-.927-.468-1.774-.468-2.548 0-.8.101-1.535.312-2.203a7.28 7.28 0 0 1 .875-1.812 9.357 9.357 0 0 1 1.266-1.5c.469-.457.969-.891 1.5-1.297-1.149-.926-1.996-1.844-2.547-2.75-.543-.907-.813-2.067-.813-3.485 0-1.062.22-2.086.657-3.078a7.863 7.863 0 0 1 1.86-2.578c.8-.738 1.769-1.328 2.905-1.766 1.133-.437 2.395-.656 3.782-.656 1.625 0 3.015.235 4.171.703 1.165.47 2.118 1.063 2.86 1.782.75.718 1.289 1.527 1.625 2.421.332.887.5 1.774.5 2.657 0 1.281-.34 2.476-1.016 3.578-.68 1.105-1.527 1.98-2.547 2.625 1.52.98 2.61 2.012 3.266 3.094.656 1.086.984 2.343.984 3.78Zm-13.843.234c0 .324.07.68.218 1.063.145.386.38.742.703 1.062.32.324.735.594 1.235.813.508.21 1.125.312 1.844.312 1.382 0 2.394-.332 3.03-1 .645-.664.97-1.414.97-2.25 0-.613-.141-1.16-.422-1.64a4.266 4.266 0 0 0-1.14-1.25 8.103 8.103 0 0 0-1.704-.97 23.084 23.084 0 0 0-2.094-.78 8.21 8.21 0 0 0-1.89 1.968c-.5.743-.75 1.633-.75 2.672Zm7.406-13.156a2.7 2.7 0 0 0-.188-.938 2.6 2.6 0 0 0-.593-.937 3.586 3.586 0 0 0-1.063-.734c-.43-.207-.95-.313-1.562-.313-.586 0-1.09.094-1.516.281-.43.188-.781.438-1.063.75a3.06 3.06 0 0 0-.625.97 2.713 2.713 0 0 0-.203 1c0 .855.313 1.655.938 2.405.633.743 1.71 1.383 3.234 1.922.852-.539 1.504-1.156 1.953-1.844.457-.695.688-1.55.688-2.562ZM50.266 55.812a247.352 247.352 0 0 0-3.328 4.438 31.341 31.341 0 0 0-2.954 4.922h6.282Zm5.828-7.281v16.64h2.969v4.876h-2.97v6.203h-5.827v-6.203h-11.97v-4.36a74.056 74.056 0 0 1 2.204-3.969 69.398 69.398 0 0 1 2.938-4.562 80.118 80.118 0 0 1 3.421-4.578 48.177 48.177 0 0 1 3.594-4.047ZM71.78 61.375c.614 0 1.254-.055 1.922-.172.664-.125 1.156-.297 1.469-.516v-.36c0-.1.004-.206.015-.312a1.75 1.75 0 0 0 .032-.28 22.022 22.022 0 0 0-.25-2.704c-.125-.844-.352-1.578-.672-2.203a3.775 3.775 0 0 0-1.313-1.469c-.543-.363-1.21-.547-2-.547-.648 0-1.21.137-1.687.406-.48.262-.867.606-1.156 1.032-.293.43-.512.898-.657 1.406-.148.5-.218.992-.218 1.469 0 1.449.347 2.523 1.046 3.218.708.688 1.864 1.032 3.47 1.032Zm2.922 3.875a7.221 7.221 0 0 1-1.875.593c-.68.118-1.258.172-1.734.172-1.73 0-3.211-.207-4.438-.625-1.23-.414-2.242-1.004-3.031-1.765a6.998 6.998 0 0 1-1.734-2.735c-.368-1.062-.547-2.234-.547-3.515 0-1.07.176-2.164.531-3.282a9.002 9.002 0 0 1 1.703-3.062c.77-.914 1.75-1.676 2.938-2.281 1.187-.602 2.617-.907 4.296-.907 3.446 0 6.04 1.063 7.782 3.188 1.75 2.117 2.625 5.164 2.625 9.14 0 2.618-.344 4.922-1.032 6.922-.68 2-1.73 3.684-3.156 5.047-1.418 1.356-3.234 2.387-5.453 3.094-2.21.711-4.836 1.07-7.875 1.094a90.625 90.625 0 0 0-.125-2.469c-.055-.8-.105-1.629-.156-2.484 1.52-.032 2.89-.145 4.11-.344 1.226-.195 2.304-.531 3.234-1a7.477 7.477 0 0 0 2.39-1.86c.656-.769 1.172-1.742 1.547-2.921Zm0 0"/>
</svg>
