<svg xmlns="http://www.w3.org/2000/svg" version="1.2" viewBox="0 0 375 375">
  <path d="m359.121 5.996.461.043.45.066.448.086.438.094.437.117.422.137.422.145.414.168.399.175.39.196.395.21.371.227.371.238.356.247.347.27.336.276.328.29.313.308.304.313.29.324.277.336.262.347.253.36.239.367.226.371.203.395.2.39.18.41.167.407.145.421.137.426.109.43.101.445.083.442.066.46.05.458.028.457.008.472v340.74l-.008.464-.027.465-.051.461-.066.45-.082.445-.102.441-.11.438-.136.422-.145.421-.168.414-.18.399-.199.39-.203.387-.226.38-.239.37-.253.356-.262.347-.277.336-.29.328-.304.313-.313.305-.328.289-.336.277-.347.262-.356.254-.371.238-.371.219-.395.21-.39.2-.399.18-.414.168-.422.144-.422.133-.437.113-.438.102-.449.082-.449.066-.46.05-.466.028-.465.008H17.453l-.465-.008-.465-.027-.457-.05-.46-.067-.442-.082-.445-.102-.43-.113-.426-.133-.422-.144-.406-.168-.41-.18-.39-.2-.387-.21-.38-.22-.366-.237-.36-.254-.347-.262-.336-.277-.325-.29-.312-.304-.305-.313-.293-.328-.277-.336-.262-.347-.254-.356-.238-.37-.227-.38-.21-.386-.188-.391-.184-.399-.168-.414-.144-.421-.137-.422-.117-.438-.094-.441-.086-.446-.058-.449-.051-.46-.031-.466-.008-.464V17.32l.008-.472.03-.457.052-.457.058-.461.086-.442.094-.445.117-.43.137-.426.144-.421.168-.407.184-.41.187-.39.211-.395.227-.371.238-.367.254-.36.262-.347.277-.336.293-.324.305-.313.312-.305.325-.293.336-.277.347-.27.36-.246.367-.238.379-.226.386-.211.391-.196.41-.175.406-.168.422-.145.426-.137.43-.117.445-.094.441-.086.461-.066.457-.043.465-.031.465-.008h340.738l.465.008Zm-333.25 8.86-.465.03-.457.044-.453.062-.45.09-.437.094-.437.117-.426.137-.414.144-.414.168-.402.176-.399.195-.387.211-.378.227-.364.238-.355.246-.348.27-.336.277-.324.29-.313.308-.308.312-.29.324-.276.336-.27.348-.246.355-.238.364-.227.379-.21.386-.188.399-.184.402-.168.414-.145.414-.136.426-.117.438-.094.437-.09.45-.055.452-.05.457-.032.465-.008.465v322.965l.008.465.032.469.05.457.055.449.09.445.094.442.117.437.136.422.145.422.168.414.184.398.187.395.211.383.227.379.238.37.246.356.27.348.277.336.289.328.308.312.313.305.324.29.336.276.348.262.355.254.364.242.378.215.387.211.399.2.402.179.414.168.414.144.426.133.437.113.438.106.45.078.452.067.457.05.465.028.465.007H349.3l.465-.007.468-.028.457-.05.45-.067.453-.078.433-.106.438-.113.422-.133.422-.144.414-.168.398-.18.395-.199.39-.21.371-.216.371-.242.356-.254.348-.262.336-.277.328-.289.312-.305.305-.312.289-.328.277-.336.262-.348.254-.355.242-.371.223-.38.203-.382.199-.395.18-.398.168-.414.144-.422.14-.422.106-.437.106-.442.078-.445.066-.45.051-.456.027-.47.008-.464V26.203l-.008-.465-.027-.465-.05-.457-.067-.453-.078-.449-.211-.875-.14-.426-.145-.414-.168-.414-.18-.402-.2-.399-.202-.386-.223-.38-.242-.363-.254-.355-.262-.348-.277-.336-.29-.324-.304-.312-.312-.309-.329-.289-.335-.277-.348-.27-.356-.246-.37-.238-.372-.227-.39-.21-.395-.196-.398-.176-.414-.168-.422-.144-.422-.137-.438-.117-.433-.094-.453-.09-.45-.062-.457-.043-.468-.032-.465-.007H26.336Zm0 0"/>
  <path d="M142.146 178.161c3.082 0 5.625-.254 7.625-.765 2.008-.508 3.617-1.207 4.828-2.094 1.22-.895 2.063-1.945 2.532-3.156.468-1.207.703-2.563.703-4.063 0-3.164-1.496-5.797-4.485-7.89-2.992-2.102-8.12-4.368-15.39-6.797a120.914 120.914 0 0 1-9.531-3.844c-3.168-1.445-6.012-3.266-8.532-5.453-2.523-2.195-4.574-4.86-6.156-7.984-1.586-3.133-2.375-6.938-2.375-11.407 0-4.476.836-8.515 2.516-12.11a25.774 25.774 0 0 1 7.14-9.171c3.082-2.52 6.813-4.457 11.188-5.812 4.383-1.352 9.332-2.032 14.844-2.032 6.53 0 12.175.703 16.937 2.11 4.758 1.398 8.676 2.933 11.75 4.609l-6.297 17.219c-2.71-1.395-5.719-2.63-9.031-3.703-3.313-1.07-7.305-1.61-11.969-1.61-5.219 0-8.976.727-11.265 2.172-2.282 1.438-3.422 3.652-3.422 6.64 0 1.774.414 3.266 1.25 4.485.843 1.211 2.035 2.305 3.578 3.281 1.539.98 3.312 1.868 5.312 2.657 2.008.793 4.227 1.609 6.657 2.453 5.039 1.867 9.425 3.71 13.156 5.531 3.726 1.824 6.828 3.95 9.297 6.375a22.879 22.879 0 0 1 5.53 8.531c1.22 3.262 1.829 7.227 1.829 11.89 0 9.056-3.172 16.075-9.516 21.063-6.343 4.993-15.914 7.485-28.703 7.485-4.293 0-8.164-.258-11.61-.766-3.448-.512-6.507-1.137-9.171-1.875-2.656-.75-4.945-1.547-6.86-2.39-1.906-.844-3.515-1.633-4.827-2.375l6.171-17.36c2.883 1.586 6.446 3.008 10.688 4.266 4.25 1.261 9.453 1.89 15.61 1.89Zm100.767-20.718c0-13.426-4.945-20.141-14.828-20.141-2.148 0-4.273.281-6.375.844-2.093.554-3.793 1.25-5.093 2.094v37.921c1.02.188 2.32.356 3.906.5a60.92 60.92 0 0 0 5.187.204c5.688 0 9.973-1.958 12.86-5.875 2.894-3.915 4.343-9.098 4.343-15.547Zm21.282.562c0 5.887-.867 11.211-2.594 15.969-1.719 4.75-4.215 8.808-7.484 12.172-3.262 3.355-7.274 5.945-12.032 7.765-4.761 1.813-10.172 2.72-16.234 2.72a96.77 96.77 0 0 1-7.922-.345c-2.75-.23-5.453-.53-8.11-.906a114.59 114.59 0 0 1-7.624-1.328c-2.43-.52-4.574-1.055-6.438-1.61V89.569l20.86-3.36v36.672a39.82 39.82 0 0 1 7.265-2.375c2.52-.562 5.227-.844 8.125-.844 5.219 0 9.832.914 13.844 2.735 4.02 1.812 7.379 4.402 10.078 7.765 2.707 3.356 4.758 7.391 6.156 12.11 1.407 4.71 2.11 9.953 2.11 15.734ZM116.306 265.66a85.348 85.348 0 0 0-1-2.952 404.91 404.91 0 0 1-1.047-3.047h-10.797c-.344 1.011-.7 2.027-1.062 3.047a56.835 56.835 0 0 0-.985 2.953h-6.468a394.551 394.551 0 0 1 2.953-8.281 350.71 350.71 0 0 1 2.734-7.157 258.187 258.187 0 0 1 2.64-6.375c.876-2.02 1.774-3.988 2.704-5.906h5.969a199.158 199.158 0 0 1 2.671 5.906c.883 2.012 1.77 4.137 2.657 6.375a277.947 277.947 0 0 1 2.734 7.157 468.758 468.758 0 0 1 2.969 8.28Zm-7.484-21.437c-.137.399-.34.946-.61 1.64-.262.688-.57 1.485-.922 2.392-.343.906-.726 1.906-1.14 3a222.509 222.509 0 0 0-1.25 3.453h7.875c-.43-1.207-.84-2.36-1.235-3.453a101.479 101.479 0 0 0-1.14-3 226.52 226.52 0 0 1-.953-2.391c-.262-.695-.47-1.242-.625-1.64Zm17.355 1.125c1.008-.3 2.316-.578 3.922-.828a32.722 32.722 0 0 1 5.047-.375c1.78 0 3.265.235 4.453.703 1.187.461 2.125 1.117 2.812 1.969.696.855 1.192 1.871 1.485 3.047.289 1.168.437 2.476.437 3.922v11.875h-5.953v-11.156c0-1.926-.258-3.286-.766-4.079-.5-.8-1.445-1.203-2.828-1.203-.43 0-.886.024-1.375.063-.48.043-.902.09-1.265.14v16.235h-5.97Zm23.357-5.968 5.968-.954v6.188h7.157v4.969h-7.157v7.39c0 1.262.22 2.266.657 3.016.437.742 1.32 1.11 2.656 1.11.644 0 1.305-.055 1.984-.173a11.011 11.011 0 0 0 1.86-.5l.843 4.641a16.18 16.18 0 0 1-2.406.75c-.875.219-1.953.328-3.234.328-1.625 0-2.977-.219-4.047-.656-1.063-.445-1.918-1.063-2.563-1.844-.636-.789-1.086-1.742-1.343-2.86-.25-1.124-.375-2.363-.375-3.718Zm23.931 26.28h-5.968v-21.046h5.968Zm.547-27.124c0 1.094-.355 1.96-1.062 2.594-.7.625-1.528.937-2.485.937-.968 0-1.808-.312-2.515-.937-.7-.633-1.047-1.5-1.047-2.594 0-1.094.347-1.953 1.047-2.578.707-.625 1.547-.938 2.515-.938.957 0 1.785.313 2.485.938.707.625 1.062 1.484 1.062 2.578Zm16.607 15.969c0-1.926-.25-3.286-.75-4.079-.492-.8-1.336-1.203-2.531-1.203-.375 0-.766.024-1.172.063-.399.043-.777.09-1.14.14v16.235h-5.97v-20.313a37.888 37.888 0 0 1 3.938-.813c.758-.124 1.54-.218 2.344-.28.8-.07 1.586-.11 2.36-.11 1.519 0 2.753.195 3.702.578.946.387 1.727.844 2.344 1.375.852-.613 1.832-1.093 2.938-1.437 1.101-.344 2.125-.516 3.062-.516 1.676 0 3.05.235 4.125.703 1.082.461 1.941 1.117 2.578 1.969.645.855 1.086 1.871 1.328 3.047.239 1.168.36 2.476.36 3.922v11.875h-5.953v-11.156c0-1.926-.25-3.286-.75-4.079-.493-.8-1.336-1.203-2.532-1.203-.324 0-.773.086-1.343.25-.575.157-1.047.356-1.422.594.187.605.304 1.25.359 1.938.05.68.078 1.402.078 2.171v11.485h-5.953Zm42.605.593c0 1.657-.242 3.172-.719 4.547-.48 1.375-1.18 2.547-2.094 3.516a9.505 9.505 0 0 1-3.265 2.265c-1.262.532-2.68.797-4.25.797-1.543 0-2.95-.265-4.22-.797a9.656 9.656 0 0 1-3.265-2.265c-.906-.969-1.617-2.14-2.125-3.516-.5-1.375-.75-2.89-.75-4.547 0-1.656.258-3.16.781-4.515.52-1.364 1.239-2.524 2.157-3.485a9.81 9.81 0 0 1 3.281-2.234c1.27-.531 2.648-.797 4.14-.797 1.52 0 2.91.266 4.172.797a9.48 9.48 0 0 1 3.266 2.234c.906.961 1.613 2.121 2.125 3.485.508 1.355.766 2.859.766 4.515Zm-6.078 0c0-1.832-.371-3.273-1.11-4.328-.73-1.062-1.777-1.594-3.14-1.594-1.356 0-2.407.532-3.157 1.594-.75 1.055-1.125 2.496-1.125 4.328 0 1.844.375 3.309 1.125 4.39.75 1.075 1.801 1.61 3.157 1.61 1.363 0 2.41-.535 3.14-1.61.739-1.081 1.11-2.546 1.11-4.39Zm10.67-9.75c1.008-.3 2.316-.578 3.922-.828a32.722 32.722 0 0 1 5.047-.375c1.781 0 3.265.235 4.453.703 1.187.461 2.125 1.117 2.812 1.969.696.855 1.192 1.871 1.485 3.047.289 1.168.437 2.476.437 3.922v11.875h-5.953v-11.156c0-1.926-.258-3.286-.765-4.079-.5-.8-1.446-1.203-2.829-1.203-.43 0-.886.024-1.375.063-.48.043-.902.09-1.265.14v16.235h-5.969Zm42.247-.734a179.936 179.936 0 0 1-3.765 11.422 134.912 134.912 0 0 1-4.282 10.312c-.562 1.196-1.125 2.211-1.687 3.047-.555.844-1.164 1.535-1.828 2.078a6.367 6.367 0 0 1-2.266 1.203c-.836.258-1.812.391-2.937.391-.938 0-1.805-.09-2.594-.266-.781-.18-1.422-.37-1.922-.578l1.031-4.765a9.086 9.086 0 0 0 3.172.562c1.063 0 1.88-.289 2.453-.86.57-.573 1.055-1.366 1.453-2.374-1.355-2.664-2.714-5.66-4.078-8.985-1.355-3.32-2.632-7.05-3.828-11.187h6.313c.27 1.043.582 2.172.937 3.39.363 1.211.742 2.434 1.14 3.672.407 1.243.813 2.45 1.22 3.625.414 1.18.812 2.246 1.187 3.204.344-.958.703-2.024 1.078-3.204a126.15 126.15 0 0 0 1.094-3.625c.363-1.238.71-2.46 1.047-3.671.332-1.22.629-2.348.89-3.391Zm-140.126 61.758c.77-.32 1.578-.69 2.422-1.109.843-.414 1.66-.867 2.453-1.36a30.38 30.38 0 0 0 2.297-1.546 15.52 15.52 0 0 0 1.984-1.75h4.172v27.719h-5.969v-19.954c-.805.532-1.7 1.016-2.687 1.454-.98.437-1.938.82-2.875 1.14Zm39.766 1.516a7.27 7.27 0 0 1-.609 2.922c-.398.93-.918 1.828-1.562 2.703-.637.867-1.356 1.7-2.157 2.5a122.18 122.18 0 0 1-2.36 2.266c-.398.375-.827.797-1.296 1.265a34.866 34.866 0 0 0-2.484 2.766c-.336.406-.54.746-.61 1.016h11.922v5h-18.484a6.209 6.209 0 0 1-.078-1.11v-.969c0-1.28.203-2.453.609-3.515.414-1.07.957-2.067 1.625-2.985a19.415 19.415 0 0 1 2.25-2.578c.844-.8 1.68-1.601 2.516-2.406.632-.613 1.234-1.191 1.797-1.734a20.189 20.189 0 0 0 1.484-1.61 7.557 7.557 0 0 0 1-1.547c.238-.52.36-1.05.36-1.593 0-1.164-.337-1.989-1-2.469-.669-.477-1.497-.719-2.485-.719-.719 0-1.399.117-2.031.344-.625.219-1.2.484-1.72.797-.51.305-.952.61-1.327.922a11.86 11.86 0 0 0-.844.734l-2.953-4.156c1.164-1.094 2.531-1.992 4.094-2.703a12.025 12.025 0 0 1 5.015-1.063c1.625 0 3.024.188 4.203.563 1.176.375 2.145.902 2.907 1.578a6.077 6.077 0 0 1 1.672 2.484c.363.969.546 2.07.546 3.297Zm5.673-1.516c.77-.32 1.578-.69 2.422-1.109.844-.414 1.66-.867 2.453-1.36a29.983 29.983 0 0 0 2.297-1.546 15.52 15.52 0 0 0 1.985-1.75h4.171v27.719h-5.968v-19.954c-.805.532-1.7 1.016-2.688 1.454-.98.437-1.937.82-2.875 1.14Zm28.564 18.798c0 1.199-.383 2.109-1.14 2.734-.762.625-1.622.937-2.579.937-.96 0-1.82-.312-2.578-.937-.762-.625-1.14-1.535-1.14-2.735 0-1.195.378-2.109 1.14-2.734.758-.633 1.617-.953 2.578-.953.957 0 1.817.32 2.578.953.758.625 1.14 1.539 1.14 2.734Zm22.402-4.563c0 1.2-.21 2.297-.625 3.297a7.383 7.383 0 0 1-1.859 2.625c-.824.742-1.855 1.32-3.094 1.734-1.242.414-2.68.625-4.312.625-1.867 0-3.418-.262-4.657-.781-1.242-.52-2.242-1.164-3-1.938-.761-.77-1.304-1.613-1.625-2.53-.312-.927-.468-1.774-.468-2.548 0-.8.101-1.535.312-2.203a7.28 7.28 0 0 1 .875-1.812 9.357 9.357 0 0 1 1.266-1.5c.469-.457.969-.891 1.5-1.297-1.149-.926-1.996-1.844-2.547-2.75-.543-.907-.813-2.067-.813-3.485 0-1.062.22-2.086.657-3.078a7.863 7.863 0 0 1 1.86-2.578c.8-.738 1.769-1.328 2.905-1.766 1.133-.437 2.395-.656 3.782-.656 1.625 0 3.015.235 4.171.703 1.165.47 2.118 1.063 2.86 1.782.75.718 1.289 1.527 1.625 2.421.332.887.5 1.774.5 2.657 0 1.281-.34 2.476-1.016 3.578-.68 1.105-1.527 1.98-2.547 2.625 1.52.98 2.61 2.012 3.266 3.094.656 1.086.984 2.343.984 3.78Zm-13.843.234c0 .324.07.68.218 1.063.145.386.38.742.703 1.062.32.324.735.594 1.235.813.508.21 1.125.312 1.844.312 1.382 0 2.394-.332 3.03-1 .645-.664.97-1.414.97-2.25 0-.613-.141-1.16-.422-1.64a4.266 4.266 0 0 0-1.14-1.25 8.103 8.103 0 0 0-1.704-.97 23.084 23.084 0 0 0-2.094-.78 8.21 8.21 0 0 0-1.89 1.968c-.5.743-.75 1.633-.75 2.672Zm7.406-13.156a2.7 2.7 0 0 0-.188-.938 2.6 2.6 0 0 0-.593-.937 3.586 3.586 0 0 0-1.063-.734c-.43-.207-.95-.313-1.562-.313-.586 0-1.09.094-1.516.281-.43.188-.781.438-1.063.75a3.06 3.06 0 0 0-.625.97 2.713 2.713 0 0 0-.203 1c0 .855.313 1.655.938 2.405.633.743 1.71 1.383 3.234 1.922.852-.539 1.504-1.156 1.953-1.844.457-.695.688-1.55.688-2.562ZM51.906 68.093c0-.77-.18-1.457-.531-2.062-.344-.602-.945-1.102-1.797-1.5-.855-.395-2-.695-3.437-.906-1.438-.22-3.25-.328-5.438-.328a178.5 178.5 0 0 0 .719-7.563c.187-2.562.332-4.96.437-7.203h15v5h-10c-.054.96-.117 1.887-.187 2.781-.063.899-.137 1.68-.219 2.344 3.895.262 6.77 1.172 8.625 2.734 1.852 1.563 2.781 3.73 2.781 6.5 0 1.282-.23 2.47-.687 3.563a7.61 7.61 0 0 1-2.031 2.844c-.907.793-2.047 1.418-3.422 1.875-1.375.445-2.98.671-4.813.671-.73 0-1.492-.046-2.281-.14a29.875 29.875 0 0 1-2.266-.36c-.73-.144-1.39-.296-1.984-.453-.586-.156-1.04-.316-1.36-.484l1.079-4.922c.664.305 1.547.594 2.64.875 1.094.273 2.399.406 3.922.406 1.844 0 3.176-.363 4-1.093.832-.739 1.25-1.598 1.25-2.579Zm11.109-13.796c.77-.32 1.578-.692 2.421-1.11a28.13 28.13 0 0 0 2.454-1.36c.8-.487 1.566-1.003 2.296-1.546a15.52 15.52 0 0 0 1.985-1.75h4.172V76.25h-5.969V56.297c-.805.53-1.7 1.015-2.688 1.453-.98.437-1.937.82-2.875 1.14Zm0 0"/>
</svg>
