<svg xmlns="http://www.w3.org/2000/svg" version="1.2" viewBox="0 0 375 375">
  <path d="m359.121 5.996.461.043.45.066.448.086.438.094.437.117.422.137.422.145.414.168.399.175.39.196.395.21.371.227.371.238.356.247.347.27.336.276.328.29.313.308.304.313.29.324.277.336.262.347.253.36.239.367.226.371.203.395.2.39.18.41.167.407.145.421.137.426.109.43.101.445.083.442.066.46.05.458.028.457.008.472v340.74l-.008.464-.027.465-.051.461-.066.45-.082.445-.102.441-.11.438-.136.422-.145.421-.168.414-.18.399-.199.39-.203.387-.226.38-.239.37-.253.356-.262.347-.277.336-.29.328-.304.313-.313.305-.328.289-.336.277-.347.262-.356.254-.371.238-.371.219-.395.21-.39.2-.399.18-.414.168-.422.144-.422.133-.437.113-.438.102-.449.082-.449.066-.46.05-.466.028-.465.008H17.453l-.465-.008-.465-.027-.457-.05-.46-.067-.442-.082-.445-.102-.43-.113-.426-.133-.422-.144-.406-.168-.41-.18-.39-.2-.387-.21-.38-.22-.366-.237-.36-.254-.347-.262-.336-.277-.325-.29-.312-.304-.305-.313-.293-.328-.277-.336-.262-.347-.254-.356-.238-.37-.227-.38-.21-.386-.188-.391-.184-.399-.168-.414-.144-.421-.137-.422-.117-.438-.094-.441-.086-.446-.058-.449-.051-.46-.031-.466-.008-.464V17.32l.008-.472.03-.457.052-.457.058-.461.086-.442.094-.445.117-.43.137-.426.144-.421.168-.407.184-.41.187-.39.211-.395.227-.371.238-.367.254-.36.262-.347.277-.336.293-.324.305-.313.312-.305.325-.293.336-.277.347-.27.36-.246.367-.238.379-.226.386-.211.391-.196.41-.175.406-.168.422-.145.426-.137.43-.117.445-.094.441-.086.461-.066.457-.043.465-.031.465-.008h340.738l.465.008Zm-333.25 8.86-.465.03-.457.044-.453.062-.45.09-.437.094-.437.117-.426.137-.414.144-.414.168-.402.176-.399.195-.387.211-.378.227-.364.238-.355.246-.348.27-.336.277-.324.29-.313.308-.308.312-.29.324-.276.336-.27.348-.246.355-.238.364-.227.379-.21.386-.188.399-.184.402-.168.414-.145.414-.136.426-.117.438-.094.437-.09.45-.055.452-.05.457-.032.465-.008.465v322.965l.008.465.032.469.05.457.055.449.09.445.094.442.117.437.136.422.145.422.168.414.184.398.187.395.211.383.227.379.238.37.246.356.27.348.277.336.289.328.308.312.313.305.324.29.336.276.348.262.355.254.364.242.378.215.387.211.399.2.402.179.414.168.414.144.426.133.437.113.438.106.45.078.452.067.457.05.465.028.465.007H349.3l.465-.007.468-.028.457-.05.45-.067.453-.078.433-.106.438-.113.422-.133.422-.144.414-.168.398-.18.395-.199.39-.21.371-.216.371-.242.356-.254.348-.262.336-.277.328-.289.312-.305.305-.312.289-.328.277-.336.262-.348.254-.355.242-.371.223-.38.203-.382.199-.395.18-.398.168-.414.144-.422.14-.422.106-.437.106-.442.078-.445.066-.45.051-.456.027-.47.008-.464V26.203l-.008-.465-.027-.465-.05-.457-.067-.453-.078-.449-.211-.875-.14-.426-.145-.414-.168-.414-.18-.402-.2-.399-.202-.386-.223-.38-.242-.363-.254-.355-.262-.348-.277-.336-.29-.324-.304-.312-.312-.309-.329-.289-.335-.277-.348-.27-.356-.246-.37-.238-.372-.227-.39-.21-.395-.196-.398-.176-.414-.168-.422-.144-.422-.137-.438-.117-.433-.094-.453-.09-.45-.062-.457-.043-.468-.032-.465-.007H26.336Zm0 0"/>
  <path d="M186.79 97.834v18.61h-29.25v78.374h-21.828v-78.375h-29.25v-18.61Zm9.106 60.734c0-6.531 1-12.242 3-17.14 2.007-4.895 4.644-8.973 7.906-12.235 3.27-3.27 7.023-5.742 11.265-7.422 4.25-1.687 8.614-2.531 13.094-2.531 10.446 0 18.703 3.2 24.766 9.594 6.07 6.386 9.11 15.789 9.11 28.203 0 1.21-.048 2.539-.141 3.984-.094 1.45-.188 2.73-.282 3.844h-47.312c.469 4.293 2.472 7.7 6.015 10.219 3.551 2.523 8.313 3.781 14.282 3.781 3.82 0 7.578-.348 11.265-1.047 3.688-.695 6.696-1.562 9.032-2.594l2.796 16.938c-1.117.562-2.609 1.125-4.484 1.687-1.867.555-3.945 1.036-6.234 1.453a92.44 92.44 0 0 1-7.344 1.047 72.888 72.888 0 0 1-7.828.422c-6.625 0-12.387-.98-17.281-2.937-4.899-1.957-8.954-4.64-12.172-8.047-3.219-3.406-5.602-7.438-7.14-12.094-1.544-4.664-2.313-9.707-2.313-15.125Zm48.984-7.969a21.811 21.811 0 0 0-.906-5.187 12.915 12.915 0 0 0-2.375-4.469c-1.075-1.312-2.43-2.383-4.063-3.219-1.637-.843-3.668-1.265-6.094-1.265-2.335 0-4.34.398-6.015 1.187-1.68.793-3.078 1.844-4.203 3.156-1.117 1.305-1.98 2.82-2.594 4.547a29.716 29.716 0 0 0-1.328 5.25Zm-125.233 87.343v5.313h-8.36v22.406h-6.25v-22.406h-8.36v-5.313Zm2.591 17.36c0-1.863.285-3.492.859-4.89.57-1.407 1.32-2.571 2.25-3.5a9.42 9.42 0 0 1 3.219-2.126 10.218 10.218 0 0 1 3.75-.719c2.988 0 5.347.915 7.078 2.735 1.738 1.824 2.61 4.512 2.61 8.062 0 .344-.016.727-.048 1.141-.023.406-.047.773-.078 1.094h-13.515c.132 1.23.707 2.203 1.718 2.922 1.008.718 2.368 1.078 4.078 1.078 1.094 0 2.165-.098 3.22-.297 1.05-.195 1.91-.442 2.577-.735l.797 4.829c-.312.168-.742.328-1.281.484-.531.156-1.125.289-1.781.406-.649.125-1.344.227-2.094.313a20.29 20.29 0 0 1-2.234.125c-1.899 0-3.547-.282-4.954-.844-1.398-.563-2.554-1.328-3.468-2.297a9.279 9.279 0 0 1-2.047-3.469c-.438-1.332-.656-2.77-.656-4.312Zm14-2.281a5.617 5.617 0 0 0-.266-1.485 3.573 3.573 0 0 0-1.828-2.188c-.469-.25-1.055-.374-1.75-.374-.668 0-1.242.117-1.719.343-.48.231-.883.532-1.203.907a4.268 4.268 0 0 0-.734 1.297 9.159 9.159 0 0 0-.375 1.5Zm18.766 13.046c-1.743-.03-3.153-.218-4.235-.562-1.074-.352-1.922-.844-2.547-1.469a4.836 4.836 0 0 1-1.28-2.265c-.231-.895-.345-1.907-.345-3.032v-23.156l5.97-.969v22.922c0 .543.034 1.028.109 1.453.082.418.238.778.468 1.078.227.293.551.532.969.72.426.187 1.004.308 1.734.359Zm12.64 0c-1.743-.03-3.153-.218-4.235-.562-1.074-.352-1.922-.844-2.547-1.469a4.836 4.836 0 0 1-1.281-2.265c-.23-.895-.344-1.907-.344-3.032v-23.156l5.969-.969v22.922c0 .543.035 1.028.11 1.453.081.418.238.778.468 1.078.227.293.55.532.969.72.426.187 1.004.308 1.734.359Zm22.202-1.125c-1.023.293-2.336.563-3.938.813a31.47 31.47 0 0 1-5.03.39c-1.782 0-3.266-.242-4.454-.718-1.187-.477-2.133-1.149-2.828-2.016-.688-.875-1.184-1.91-1.484-3.11-.293-1.194-.438-2.515-.438-3.952v-11.735h5.969v11c0 1.93.25 3.32.75 4.172.508.856 1.457 1.281 2.844 1.281.425 0 .878-.019 1.359-.062.477-.04.906-.086 1.281-.14v-16.25h5.969Zm18.279-15.046a68.408 68.408 0 0 0-1.891-.407 10.891 10.891 0 0 0-2.313-.234c-.375 0-.824.039-1.343.11-.524.062-.914.136-1.172.218v16.078h-5.969V245.74c1.07-.375 2.332-.726 3.781-1.062 1.457-.332 3.078-.5 4.86-.5.32 0 .707.023 1.156.062.457.043.91.102 1.36.172.456.063.91.14 1.359.235a7.41 7.41 0 0 1 1.172.328Zm10.161 15.765h-5.97v-21.047h5.97Zm.546-27.125c0 1.094-.355 1.961-1.062 2.594-.7.625-1.527.937-2.484.937-.97 0-1.809-.312-2.516-.937-.7-.633-1.047-1.5-1.047-2.594 0-1.094.348-1.953 1.047-2.578.707-.625 1.547-.937 2.516-.937.957 0 1.785.312 2.484.937.707.625 1.062 1.484 1.062 2.578Zm23.014 26.406c-1.024.293-2.336.563-3.938.813-1.594.258-3.273.39-5.031.39-1.781 0-3.266-.242-4.453-.718-1.188-.477-2.133-1.149-2.828-2.016-.688-.875-1.184-1.91-1.485-3.11-.293-1.194-.437-2.515-.437-3.952v-11.735h5.968v11c0 1.93.25 3.32.75 4.172.508.856 1.457 1.281 2.844 1.281.426 0 .88-.019 1.36-.062.476-.04.906-.086 1.28-.14v-16.25h5.97ZM259 254.505c0-1.926-.25-3.285-.75-4.078-.493-.8-1.337-1.203-2.532-1.203-.375 0-.766.023-1.172.062-.398.043-.777.09-1.14.14v16.235h-5.97V245.35a37.888 37.888 0 0 1 3.938-.813c.758-.125 1.54-.219 2.344-.281.8-.07 1.586-.11 2.36-.11 1.519 0 2.753.196 3.702.579.946.386 1.727.843 2.344 1.375.852-.614 1.832-1.094 2.938-1.438 1.101-.344 2.125-.515 3.062-.515 1.676 0 3.05.234 4.125.703 1.082.46 1.941 1.117 2.578 1.968.645.856 1.086 1.872 1.328 3.047.239 1.168.36 2.477.36 3.922v11.875h-5.953v-11.156c0-1.926-.25-3.285-.75-4.078-.493-.8-1.336-1.203-2.532-1.203-.324 0-.773.086-1.343.25-.575.156-1.047.355-1.422.593.187.606.304 1.25.36 1.938.05.68.077 1.402.077 2.172v11.484H259Zm-119.063 51.868c.77-.32 1.578-.691 2.422-1.11.843-.413 1.66-.867 2.453-1.359a30.39 30.39 0 0 0 2.297-1.547 15.52 15.52 0 0 0 1.984-1.75h4.172v27.72h-5.969v-19.954c-.805.531-1.7 1.016-2.687 1.453-.98.438-1.938.82-2.875 1.14Zm39.766 1.516a7.27 7.27 0 0 1-.609 2.921c-.398.93-.918 1.829-1.562 2.704a21.752 21.752 0 0 1-2.157 2.5 122.18 122.18 0 0 1-2.36 2.265c-.398.375-.827.797-1.296 1.266a34.866 34.866 0 0 0-2.484 2.765c-.336.407-.54.747-.61 1.016h11.922v5h-18.484a6.209 6.209 0 0 1-.078-1.11v-.968c0-1.281.203-2.453.609-3.516.414-1.07.957-2.066 1.625-2.984a19.415 19.415 0 0 1 2.25-2.578c.844-.801 1.68-1.602 2.516-2.406.632-.614 1.234-1.192 1.797-1.735a20.189 20.189 0 0 0 1.484-1.61 7.557 7.557 0 0 0 1-1.546c.238-.52.36-1.05.36-1.594 0-1.164-.337-1.988-1-2.469-.669-.476-1.497-.718-2.485-.718-.719 0-1.399.117-2.031.343-.625.22-1.2.485-1.72.797-.51.305-.952.61-1.327.922-.375.305-.656.547-.844.735l-2.953-4.157c1.164-1.093 2.531-1.992 4.094-2.703a12.025 12.025 0 0 1 5.015-1.062c1.625 0 3.024.187 4.203.562 1.176.375 2.145.903 2.907 1.578a6.077 6.077 0 0 1 1.672 2.485c.363.968.546 2.07.546 3.297Zm8.564 20.437c.156-1.945.484-3.973.984-6.078a59.072 59.072 0 0 1 1.86-6.188 53.583 53.583 0 0 1 2.468-5.75c.907-1.8 1.829-3.359 2.766-4.671h-12.047v-5.079h19.406v4.329c-.855.93-1.796 2.218-2.828 3.875-1.023 1.656-1.996 3.53-2.922 5.625a53.19 53.19 0 0 0-2.406 6.75 34.54 34.54 0 0 0-1.25 7.187Zm25.673-3.156c0 1.199-.383 2.11-1.14 2.734-.762.625-1.622.938-2.579.938-.96 0-1.82-.313-2.578-.938-.762-.625-1.14-1.535-1.14-2.734 0-1.195.378-2.11 1.14-2.735.758-.632 1.617-.953 2.578-.953.957 0 1.817.32 2.578.953.758.625 1.14 1.54 1.14 2.735Zm12.152-9.89c-.586 0-1.21.058-1.875.171-.668.106-1.187.25-1.562.438 0 .105-.008.265-.016.484-.011.21-.015.39-.015.547 0 .969.062 1.883.187 2.734.133.844.363 1.59.688 2.235.32.636.75 1.136 1.28 1.5.532.355 1.196.53 2 .53.665 0 1.235-.132 1.704-.405a3.772 3.772 0 0 0 1.156-1.063c.301-.426.524-.898.672-1.422.156-.52.234-1.02.234-1.5 0-1.363-.343-2.41-1.03-3.14-.68-.739-1.821-1.11-3.423-1.11Zm.766-4.641c1.727 0 3.195.234 4.406.703 1.219.468 2.211 1.105 2.985 1.906a7.1 7.1 0 0 1 1.687 2.797c.344 1.062.516 2.199.516 3.406 0 1.063-.196 2.156-.578 3.281a9.123 9.123 0 0 1-1.766 3.032c-.781.906-1.781 1.656-3 2.25-1.211.582-2.637.875-4.281.875-3.336 0-5.871-1.051-7.61-3.157-1.73-2.113-2.593-5.02-2.593-8.718 0-2.664.41-5.024 1.234-7.079.82-2.062 2-3.789 3.531-5.187 1.54-1.406 3.395-2.473 5.563-3.203 2.176-.727 4.625-1.11 7.343-1.14.051.823.102 1.632.157 2.421.062.793.117 1.61.172 2.453a23.24 23.24 0 0 0-3.829.39 13.06 13.06 0 0 0-3.25 1.063 8.92 8.92 0 0 0-2.53 1.86c-.72.761-1.278 1.687-1.673 2.78a7.104 7.104 0 0 1 1.797-.562 9.516 9.516 0 0 1 1.719-.171ZM51.906 68.094c0-.77-.18-1.457-.531-2.063-.344-.601-.945-1.101-1.797-1.5-.855-.394-2-.695-3.437-.906-1.438-.219-3.25-.328-5.438-.328.29-2.488.531-5.008.719-7.562.187-2.563.332-4.961.437-7.204h15v5h-10a127.06 127.06 0 0 1-.187 2.782c-.063.898-.137 1.68-.219 2.343 3.895.262 6.77 1.172 8.625 2.735 1.852 1.562 2.781 3.73 2.781 6.5 0 1.281-.23 2.469-.687 3.562a7.61 7.61 0 0 1-2.031 2.844c-.907.793-2.047 1.418-3.422 1.875-1.375.445-2.98.672-4.813.672-.73 0-1.492-.047-2.281-.14a29.875 29.875 0 0 1-2.266-.36c-.73-.145-1.39-.297-1.984-.453-.586-.156-1.04-.317-1.36-.485l1.079-4.921c.664.304 1.547.593 2.64.875 1.094.273 2.399.406 3.922.406 1.844 0 3.176-.364 4-1.094.832-.738 1.25-1.598 1.25-2.578Zm28.155-12.281a7.27 7.27 0 0 1-.609 2.922c-.398.93-.918 1.828-1.562 2.703a21.752 21.752 0 0 1-2.157 2.5 122.18 122.18 0 0 1-2.359 2.265c-.398.375-.828.797-1.297 1.266a34.866 34.866 0 0 0-2.484 2.766c-.336.406-.54.746-.61 1.015h11.922v5H62.421a6.209 6.209 0 0 1-.078-1.11v-.968c0-1.281.203-2.453.61-3.516.413-1.07.956-2.066 1.624-2.984a19.415 19.415 0 0 1 2.25-2.578c.844-.8 1.68-1.602 2.516-2.406.633-.614 1.234-1.192 1.797-1.735a20.189 20.189 0 0 0 1.484-1.61 7.557 7.557 0 0 0 1-1.546c.238-.52.36-1.05.36-1.594 0-1.164-.337-1.988-1-2.468-.669-.477-1.497-.72-2.485-.72-.719 0-1.398.118-2.031.345-.625.218-1.2.484-1.719.796-.512.305-.953.61-1.328.922-.375.305-.656.547-.844.735l-2.953-4.157c1.164-1.093 2.531-1.992 4.094-2.703a12.025 12.025 0 0 1 5.015-1.062c1.625 0 3.024.187 4.203.562 1.176.375 2.145.903 2.907 1.578a6.077 6.077 0 0 1 1.672 2.485c.363.969.546 2.07.546 3.297Zm0 0"/>
</svg>
