<svg xmlns="http://www.w3.org/2000/svg" version="1.2" viewBox="0 0 375 375">
  <path d="m359.121 5.996.461.043.45.066.448.086.438.094.437.117.422.137.422.149.414.164.399.175.39.196.395.21.371.227.371.238.356.25.347.266.336.277.328.293.313.305.304.313.29.328.277.332.262.347.253.36.239.37.226.368.203.395.2.39.18.41.167.407.145.421.137.43.109.426.101.445.083.442.066.46.05.458.028.457.008.472v340.74l-.008.464-.027.47-.051.456-.066.45-.082.445-.102.441-.11.438-.136.422-.145.421-.168.414-.18.399-.199.394-.203.383-.226.38-.239.37-.253.356-.262.347-.277.336-.29.328-.304.313-.313.305-.328.289-.336.277-.347.262-.356.254-.371.242-.371.215-.395.21-.39.2-.399.18-.414.168-.422.144-.422.133-.437.113-.438.102-.449.082-.449.066-.46.05-.466.028-.465.008H17.453l-.465-.008-.465-.027-.457-.05-.46-.067-.442-.082-.445-.102-.43-.113-.426-.133-.422-.144-.406-.168-.41-.18-.39-.2-.387-.21-.38-.215-.366-.242-.36-.254-.347-.262-.336-.277-.325-.29-.312-.304-.305-.313-.293-.328-.277-.336-.262-.347-.254-.356-.238-.37-.227-.38-.21-.383-.188-.394-.184-.399-.168-.414-.144-.421-.137-.422-.117-.438-.094-.441-.086-.446-.058-.449-.051-.457-.031-.469-.008-.464V17.32l.008-.472.03-.457.052-.457.058-.461.086-.442.094-.445.117-.426.137-.43.144-.421.168-.407.184-.41.187-.39.211-.395.227-.367.238-.371.254-.36.262-.347.277-.332.293-.328.305-.313.312-.305.325-.293.336-.277.347-.266.36-.25.367-.238.379-.226.386-.211.391-.196.41-.175.406-.165.422-.148.426-.137.43-.117.445-.094.441-.086.461-.066.457-.043.465-.031.465-.008h340.738l.465.008Zm-333.25 8.86-.465.03-.457.044-.453.066-.45.086-.437.094-.437.117-.426.137-.414.144-.414.168-.402.176-.399.195-.387.211-.378.227-.364.238-.355.246-.348.27-.336.277-.324.29-.313.308-.308.312-.29.324-.276.336-.27.348-.246.36-.238.363-.227.375-.21.386-.188.399-.184.402-.168.414-.145.414-.136.43-.117.434-.094.437-.09.45-.055.452-.05.457-.032.465-.008.465v322.965l.008.469.032.465.05.457.055.449.09.445.094.442.117.437.136.422.145.422.168.414.184.398.187.395.211.383.227.379.238.37.246.356.27.352.277.332.289.328.308.312.313.305.324.29.336.276.348.262.355.254.364.242.378.219.387.21.399.196.402.18.414.168.414.144.426.133.437.117.438.102.45.078.452.067.457.05.465.028.465.007H349.3l.465-.007.468-.028.457-.05.45-.067.453-.078.433-.102.438-.117.422-.133.422-.144.414-.168.398-.18.395-.195.39-.211.371-.219.371-.242.356-.254.348-.262.336-.277.328-.289.312-.305.305-.312.289-.328.277-.332.262-.352.254-.355.242-.371.223-.38.203-.382.199-.395.18-.398.168-.414.144-.422.14-.422.106-.437.106-.442.078-.445.066-.45.051-.456.027-.465.008-.469V26.203l-.008-.465-.027-.465-.05-.457-.067-.453-.078-.449-.106-.437-.105-.434-.14-.43-.145-.414-.168-.414-.18-.402-.2-.399-.202-.386-.223-.375-.242-.364-.254-.359-.262-.348-.277-.336-.29-.324-.304-.312-.312-.309-.329-.289-.335-.277-.348-.27-.356-.246-.37-.238-.372-.227-.39-.21-.395-.196-.398-.176-.414-.168-.422-.144-.422-.137-.438-.117-.433-.094-.453-.086-.45-.066-.457-.043-.468-.032-.465-.007H26.336Zm0 0"/>
  <path d="M176.59 97.834h21.828v96.985H176.59Zm-45.666 140.109h6.234v27.719h-6.234Zm31.921 17.157c0 1.655-.242 3.171-.719 4.546-.48 1.375-1.18 2.547-2.093 3.516a9.505 9.505 0 0 1-3.266 2.265c-1.262.532-2.68.797-4.25.797-1.543 0-2.95-.265-4.219-.797a9.656 9.656 0 0 1-3.265-2.265c-.907-.969-1.618-2.14-2.125-3.516-.5-1.375-.75-2.89-.75-4.547 0-1.656.257-3.16.78-4.515.52-1.364 1.239-2.524 2.157-3.485a9.81 9.81 0 0 1 3.281-2.234c1.27-.531 2.649-.797 4.14-.797 1.52 0 2.911.266 4.173.797a9.48 9.48 0 0 1 3.265 2.234c.907.961 1.614 2.121 2.125 3.485.508 1.355.766 2.859.766 4.515Zm-6.078 0c0-1.833-.371-3.274-1.11-4.329-.73-1.062-1.777-1.594-3.14-1.594-1.356 0-2.406.532-3.156 1.594-.75 1.055-1.125 2.496-1.125 4.328 0 1.844.375 3.309 1.125 4.39.75 1.075 1.8 1.61 3.156 1.61 1.363 0 2.41-.535 3.14-1.61.739-1.081 1.11-2.546 1.11-4.39Zm15.748-.126c0 1.844.41 3.328 1.235 4.453.832 1.118 2.062 1.672 3.687 1.672.532 0 1.02-.02 1.47-.062.456-.04.835-.086 1.14-.14v-10.829c-.375-.238-.867-.438-1.47-.594a6.786 6.786 0 0 0-1.812-.25c-2.835 0-4.25 1.918-4.25 5.75Zm13.485 10c-.531.168-1.149.324-1.844.469-.687.148-1.414.27-2.172.375a43.77 43.77 0 0 1-2.328.25c-.781.07-1.531.11-2.25.11-1.742 0-3.293-.25-4.656-.75-1.356-.508-2.5-1.239-3.438-2.188-.93-.945-1.64-2.094-2.14-3.438-.492-1.343-.735-2.859-.735-4.547 0-1.695.211-3.234.64-4.609.427-1.375 1.04-2.539 1.845-3.5a7.998 7.998 0 0 1 2.937-2.203c1.156-.508 2.485-.766 3.985-.766.82 0 1.562.086 2.218.25.657.157 1.317.383 1.985.672v-9.515l5.953-.97Zm11.566.688h-5.969v-21.047h5.969Zm.547-27.125c0 1.093-.356 1.96-1.063 2.593-.699.625-1.527.938-2.484.938-.969 0-1.809-.313-2.516-.938-.699-.632-1.047-1.5-1.047-2.593 0-1.094.348-1.953 1.047-2.578.707-.625 1.547-.938 2.516-.938.957 0 1.785.313 2.484.938.707.625 1.063 1.484 1.063 2.578Zm5.044 6.813c1.008-.302 2.316-.579 3.922-.829a32.722 32.722 0 0 1 5.047-.375c1.781 0 3.265.234 4.453.703 1.187.461 2.125 1.117 2.812 1.969.696.855 1.192 1.871 1.485 3.047.289 1.168.437 2.476.437 3.922v11.875h-5.953v-11.157c0-1.925-.258-3.285-.765-4.078-.5-.8-1.446-1.203-2.829-1.203-.43 0-.886.024-1.375.063-.48.043-.902.09-1.265.14v16.235h-5.969Zm22.56 9.952c0-1.863.285-3.492.86-4.89.57-1.407 1.32-2.57 2.25-3.5a9.42 9.42 0 0 1 3.218-2.125 10.218 10.218 0 0 1 3.75-.719c2.988 0 5.348.914 7.078 2.734 1.738 1.825 2.61 4.512 2.61 8.063 0 .344-.016.726-.047 1.14-.024.407-.047.774-.079 1.094h-13.515c.133 1.23.707 2.203 1.719 2.922 1.007.719 2.367 1.078 4.078 1.078 1.093 0 2.164-.097 3.218-.297 1.051-.195 1.91-.441 2.579-.734l.796 4.828c-.312.168-.742.328-1.28.484-.532.157-1.126.29-1.782.407a27.85 27.85 0 0 1-2.094.312 20.29 20.29 0 0 1-2.234.125c-1.899 0-3.547-.281-4.953-.844-1.399-.562-2.555-1.328-3.469-2.296a9.279 9.279 0 0 1-2.047-3.47c-.437-1.331-.656-2.769-.656-4.312Zm14-2.28a5.617 5.617 0 0 0-.266-1.485 3.573 3.573 0 0 0-1.828-2.188c-.469-.25-1.055-.375-1.75-.375-.668 0-1.242.117-1.719.344-.48.23-.882.531-1.203.906a4.268 4.268 0 0 0-.734 1.297 9.159 9.159 0 0 0-.375 1.5Zm-99.78 53.351c.77-.32 1.578-.691 2.422-1.109.843-.414 1.66-.867 2.453-1.36a30.38 30.38 0 0 0 2.297-1.546 15.52 15.52 0 0 0 1.984-1.75h4.172v27.719h-5.969v-19.954c-.805.532-1.7 1.016-2.687 1.454-.98.437-1.938.82-2.875 1.14Zm39.766 1.516a7.27 7.27 0 0 1-.609 2.922c-.398.93-.918 1.828-1.562 2.703-.637.867-1.356 1.7-2.157 2.5a122.18 122.18 0 0 1-2.36 2.266c-.398.375-.827.797-1.296 1.265a34.866 34.866 0 0 0-2.484 2.766c-.336.406-.54.746-.61 1.016h11.922v5h-18.484a6.209 6.209 0 0 1-.078-1.11v-.969c0-1.28.203-2.453.609-3.515.414-1.07.957-2.067 1.625-2.985a19.415 19.415 0 0 1 2.25-2.578c.844-.8 1.68-1.601 2.516-2.406.632-.613 1.234-1.191 1.797-1.734a20.189 20.189 0 0 0 1.484-1.61 7.557 7.557 0 0 0 1-1.547c.238-.52.36-1.05.36-1.593 0-1.164-.337-1.989-1-2.47-.669-.476-1.497-.718-2.485-.718-.719 0-1.399.117-2.031.344-.625.219-1.2.484-1.72.797-.51.304-.952.61-1.327.922a11.86 11.86 0 0 0-.844.734l-2.953-4.156c1.164-1.094 2.531-1.992 4.094-2.703a12.025 12.025 0 0 1 5.015-1.063c1.625 0 3.024.188 4.203.563 1.176.375 2.145.902 2.907 1.578a6.077 6.077 0 0 1 1.672 2.484c.363.969.546 2.07.546 3.297Zm13.83 7.391c-.586 0-1.211.058-1.875.172-.668.105-1.188.25-1.563.437 0 .106-.008.266-.016.484a10.46 10.46 0 0 0-.015.547c0 .969.062 1.883.187 2.735.133.843.364 1.59.688 2.234.32.637.75 1.137 1.281 1.5.531.356 1.195.531 2 .531.664 0 1.234-.133 1.703-.406a3.772 3.772 0 0 0 1.156-1.062 4.62 4.62 0 0 0 .672-1.422c.157-.52.235-1.02.235-1.5 0-1.364-.344-2.41-1.032-3.141-.68-.738-1.82-1.11-3.421-1.11Zm.765-4.641c1.727 0 3.196.234 4.406.703 1.22.469 2.211 1.106 2.985 1.906a7.1 7.1 0 0 1 1.687 2.797c.344 1.063.516 2.2.516 3.407 0 1.062-.195 2.156-.578 3.28a9.123 9.123 0 0 1-1.766 3.032c-.781.906-1.781 1.656-3 2.25-1.21.582-2.636.875-4.281.875-3.336 0-5.871-1.05-7.61-3.156-1.73-2.113-2.593-5.02-2.593-8.719 0-2.664.41-5.023 1.234-7.078.82-2.063 2-3.79 3.531-5.188 1.54-1.406 3.395-2.472 5.563-3.203 2.176-.726 4.625-1.11 7.344-1.14.05.824.101 1.632.156 2.422.062.793.117 1.609.172 2.453a23.24 23.24 0 0 0-3.828.39 13.06 13.06 0 0 0-3.25 1.063 8.92 8.92 0 0 0-2.532 1.86c-.718.76-1.277 1.687-1.671 2.78a7.104 7.104 0 0 1 1.796-.562 9.516 9.516 0 0 1 1.72-.172Zm19.642 14.531c0 1.2-.383 2.11-1.14 2.735-.762.625-1.622.937-2.579.937-.96 0-1.82-.312-2.578-.937-.762-.625-1.14-1.535-1.14-2.735 0-1.195.378-2.11 1.14-2.734.758-.633 1.617-.953 2.578-.953.957 0 1.817.32 2.578.953.758.625 1.14 1.539 1.14 2.734Zm12.762-11.718c.613 0 1.254-.055 1.922-.172.664-.125 1.156-.297 1.468-.516v-.36c0-.1.004-.206.016-.312a1.75 1.75 0 0 0 .031-.281 22.022 22.022 0 0 0-.25-2.703c-.125-.844-.351-1.578-.672-2.203a3.775 3.775 0 0 0-1.312-1.47c-.543-.362-1.211-.546-2-.546-.649 0-1.211.137-1.688.406-.48.262-.867.606-1.156 1.032-.293.43-.512.898-.656 1.406-.149.5-.219.992-.219 1.469 0 1.449.348 2.523 1.047 3.218.707.688 1.863 1.032 3.469 1.032Zm2.922 3.875a7.221 7.221 0 0 1-1.875.593 10.44 10.44 0 0 1-1.735.172c-1.73 0-3.21-.207-4.437-.625-1.23-.414-2.242-1.004-3.032-1.765a6.998 6.998 0 0 1-1.734-2.735c-.367-1.062-.547-2.234-.547-3.515 0-1.07.176-2.165.531-3.282a9.002 9.002 0 0 1 1.704-3.062c.77-.914 1.75-1.676 2.937-2.281 1.188-.602 2.617-.907 4.297-.907 3.445 0 6.039 1.063 7.781 3.188 1.75 2.117 2.625 5.164 2.625 9.14 0 2.618-.344 4.922-1.031 6.922-.68 2-1.73 3.684-3.156 5.047-1.418 1.356-3.235 2.387-5.453 3.094-2.211.71-4.836 1.07-7.875 1.094a90.625 90.625 0 0 0-.125-2.47c-.055-.8-.106-1.628-.157-2.483 1.52-.032 2.891-.145 4.11-.344 1.226-.196 2.304-.531 3.234-1a7.477 7.477 0 0 0 2.39-1.86c.657-.77 1.173-1.742 1.548-2.921ZM51.906 68.094c0-.77-.18-1.457-.531-2.062-.344-.602-.945-1.102-1.797-1.5-.855-.395-2-.695-3.437-.906-1.438-.22-3.25-.329-5.438-.329.29-2.488.531-5.007.719-7.562.187-2.563.332-4.96.437-7.203h15v5h-10c-.054.96-.117 1.887-.187 2.781-.063.899-.137 1.68-.219 2.344 3.895.262 6.77 1.172 8.625 2.734 1.852 1.563 2.781 3.73 2.781 6.5 0 1.281-.23 2.469-.687 3.563a7.61 7.61 0 0 1-2.031 2.843c-.907.793-2.047 1.418-3.422 1.875-1.375.446-2.98.672-4.813.672-.73 0-1.492-.047-2.281-.14a29.875 29.875 0 0 1-2.266-.36c-.73-.144-1.39-.297-1.984-.453-.586-.156-1.04-.316-1.36-.484l1.079-4.922c.664.305 1.547.594 2.64.875 1.094.273 2.399.406 3.922.406 1.844 0 3.176-.363 4-1.094.832-.738 1.25-1.597 1.25-2.578Zm17.437 8.75c-.719 0-1.48-.047-2.282-.14a26.337 26.337 0 0 1-2.328-.375 23.58 23.58 0 0 1-2.03-.516 12.157 12.157 0 0 1-1.438-.516l1.156-4.968c.687.293 1.57.605 2.656.937 1.082.336 2.422.5 4.016.5 1.843 0 3.191-.344 4.047-1.031.851-.695 1.28-1.629 1.28-2.797 0-.726-.155-1.336-.468-1.828a3.48 3.48 0 0 0-1.25-1.188c-.531-.312-1.168-.523-1.906-.64a13.9 13.9 0 0 0-2.344-.188H66.14v-4.797h2.64c.582 0 1.145-.05 1.688-.156a4.833 4.833 0 0 0 1.468-.547 2.87 2.87 0 0 0 1.016-1.047c.258-.437.39-.988.39-1.656 0-.508-.109-.945-.327-1.312a2.85 2.85 0 0 0-.813-.922 3.576 3.576 0 0 0-1.172-.531 4.826 4.826 0 0 0-1.328-.188c-1.148 0-2.21.172-3.187.516a13.17 13.17 0 0 0-2.657 1.281l-2.125-4.36a18.8 18.8 0 0 1 1.5-.843c.57-.29 1.203-.555 1.891-.797a17.344 17.344 0 0 1 2.219-.594c.789-.164 1.629-.25 2.515-.25 1.625 0 3.032.196 4.22.578 1.187.387 2.163.934 2.937 1.641a6.73 6.73 0 0 1 1.718 2.484c.375.95.563 1.98.563 3.094 0 1.094-.309 2.156-.922 3.188a6.097 6.097 0 0 1-2.469 2.328c1.438.593 2.547 1.468 3.328 2.625.79 1.156 1.188 2.554 1.188 4.187 0 1.281-.215 2.465-.64 3.547a7.223 7.223 0 0 1-2 2.797c-.907.781-2.063 1.39-3.47 1.828-1.398.438-3.054.656-4.968.656Zm0 0"/>
</svg>
