<svg xmlns="http://www.w3.org/2000/svg" version="1.2" viewBox="0 0 375 375">
  <path d="m359.121 5.996.461.043.45.066.448.086.438.094.437.117.422.137.422.149.414.164.399.175.39.196.395.21.371.227.371.238.356.25.347.266.336.277.328.293.313.305.304.313.29.328.277.332.262.347.253.36.239.37.226.368.203.395.2.39.18.41.167.407.145.421.137.43.109.426.101.445.083.442.066.46.05.458.028.457.008.472v340.74l-.008.464-.027.47-.051.456-.066.45-.082.445-.102.441-.11.438-.136.422-.145.421-.168.414-.18.399-.199.394-.203.383-.226.38-.239.37-.253.356-.262.347-.277.336-.29.328-.304.313-.313.305-.328.289-.336.277-.347.262-.356.254-.371.242-.371.215-.395.21-.39.2-.399.18-.414.168-.422.144-.422.133-.437.113-.438.102-.449.082-.449.066-.46.05-.466.028-.465.008H17.453l-.465-.008-.465-.027-.457-.05-.46-.067-.442-.082-.445-.102-.43-.113-.426-.133-.422-.144-.406-.168-.41-.18-.39-.2-.387-.21-.38-.215-.366-.242-.36-.254-.347-.262-.336-.277-.325-.29-.312-.304-.305-.313-.293-.328-.277-.336-.262-.347-.254-.356-.238-.37-.227-.38-.21-.383-.188-.394-.184-.399-.168-.414-.144-.421-.137-.422-.117-.438-.094-.441-.086-.446-.058-.449-.051-.457-.031-.469-.008-.464V17.32l.008-.472.03-.457.052-.457.058-.461.086-.442.094-.445.117-.426.137-.43.144-.421.168-.407.184-.41.187-.39.211-.395.227-.367.238-.371.254-.36.262-.347.277-.332.293-.328.305-.313.312-.305.325-.293.336-.277.347-.266.36-.25.367-.238.379-.226.386-.211.391-.196.41-.175.406-.165.422-.148.426-.137.43-.117.445-.094.441-.086.461-.066.457-.043.465-.031.465-.008h340.738l.465.008Zm-333.25 8.86-.465.03-.457.044-.453.066-.45.086-.437.094-.437.117-.426.137-.414.144-.414.168-.402.176-.399.195-.387.211-.378.227-.364.238-.355.246-.348.27-.336.277-.324.29-.313.308-.308.312-.29.324-.276.336-.27.348-.246.36-.238.363-.227.375-.21.386-.188.399-.184.402-.168.414-.145.414-.136.43-.117.434-.094.437-.09.45-.055.452-.05.457-.032.465-.008.465v322.965l.008.469.032.465.05.457.055.449.09.445.094.442.117.437.136.422.145.422.168.414.184.398.187.395.211.383.227.379.238.37.246.356.27.352.277.332.289.328.308.312.313.305.324.29.336.276.348.262.355.254.364.242.378.219.387.21.399.196.402.18.414.168.414.144.426.133.437.117.438.102.45.078.452.067.457.05.465.028.465.007H349.3l.465-.007.468-.028.457-.05.45-.067.453-.078.433-.102.438-.117.422-.133.422-.144.414-.168.398-.18.395-.195.39-.211.371-.219.371-.242.356-.254.348-.262.336-.277.328-.289.312-.305.305-.312.289-.328.277-.332.262-.352.254-.355.242-.371.223-.38.203-.382.199-.395.18-.398.168-.414.144-.422.14-.422.106-.437.106-.442.078-.445.066-.45.051-.456.027-.465.008-.469V26.203l-.008-.465-.027-.465-.05-.457-.067-.453-.078-.449-.106-.437-.105-.434-.14-.43-.145-.414-.168-.414-.18-.402-.2-.399-.202-.386-.223-.375-.242-.364-.254-.359-.262-.348-.277-.336-.29-.324-.304-.312-.312-.309-.329-.289-.335-.277-.348-.27-.356-.246-.37-.238-.372-.227-.39-.21-.395-.196-.398-.176-.414-.168-.422-.144-.422-.137-.438-.117-.433-.094-.453-.086-.45-.066-.457-.043-.468-.032-.465-.007H26.336Zm0 0"/>
  <path d="M166.288 194.819a293.815 293.815 0 0 0-8.875-16.438c-3.219-5.55-6.93-11.223-11.125-17.016-1.312 1.688-2.976 4.028-4.984 7.016-2 2.98-4.008 6.152-6.016 9.516a680.13 680.13 0 0 0-5.656 9.656c-1.774 3.074-3.078 5.496-3.922 7.266h-24.906c4.101-7.563 8.883-15.493 14.343-23.797 5.457-8.301 11.547-17.117 18.266-26.453l-31.219-46.735h26.453l18.891 30.235 18.484-30.235h24.907l-30.797 47.016c7.844 10.18 14.422 19.586 19.734 28.219 5.32 8.625 9.52 15.875 12.594 21.75Zm33.877-36.25c0-6.532 1-12.243 3-17.141 2.008-4.895 4.644-8.973 7.906-12.234 3.27-3.27 7.024-5.743 11.266-7.422 4.25-1.688 8.613-2.532 13.094-2.532 10.445 0 18.703 3.2 24.765 9.594 6.07 6.387 9.11 15.79 9.11 28.203 0 1.211-.047 2.54-.141 3.985-.094 1.449-.188 2.73-.281 3.843H221.57c.469 4.293 2.473 7.7 6.016 10.22 3.55 2.523 8.312 3.78 14.281 3.78 3.82 0 7.578-.347 11.266-1.046 3.687-.696 6.695-1.563 9.031-2.594l2.797 16.937c-1.117.563-2.61 1.125-4.485 1.688-1.867.555-3.945 1.035-6.234 1.453-2.281.426-4.73.773-7.344 1.047a72.888 72.888 0 0 1-7.828.422c-6.625 0-12.387-.98-17.281-2.938-4.898-1.957-8.953-4.64-12.172-8.047-3.219-3.406-5.601-7.437-7.14-12.093-1.544-4.664-2.313-9.707-2.313-15.125Zm48.984-7.97a21.811 21.811 0 0 0-.906-5.187 12.915 12.915 0 0 0-2.375-4.468c-1.074-1.313-2.43-2.383-4.062-3.22-1.637-.843-3.668-1.265-6.094-1.265-2.336 0-4.34.399-6.016 1.188-1.68.793-3.078 1.843-4.203 3.156-1.117 1.305-1.98 2.82-2.594 4.547a29.716 29.716 0 0 0-1.328 5.25ZM145.745 265.662a100.572 100.572 0 0 0-2.547-4.688 56.835 56.835 0 0 0-3.171-4.875c-.375.48-.852 1.149-1.422 2a59.888 59.888 0 0 0-1.719 2.719 191.52 191.52 0 0 0-1.625 2.766c-.512.875-.887 1.57-1.125 2.078h-7.11c1.165-2.157 2.532-4.422 4.094-6.797a222.16 222.16 0 0 1 5.22-7.563l-8.923-13.359h7.563l5.406 8.64 5.281-8.64h7.11l-8.797 13.437c2.238 2.907 4.117 5.594 5.64 8.063 1.52 2.469 2.72 4.543 3.594 6.219Zm9.672-10.36c0-1.863.285-3.492.86-4.89.57-1.407 1.32-2.57 2.25-3.5a9.42 9.42 0 0 1 3.218-2.125 10.218 10.218 0 0 1 3.75-.719c2.988 0 5.348.914 7.078 2.734 1.739 1.825 2.61 4.512 2.61 8.063 0 .344-.016.726-.047 1.14-.024.407-.047.774-.078 1.094h-13.516c.133 1.23.707 2.203 1.719 2.922 1.008.719 2.367 1.078 4.078 1.078a17.22 17.22 0 0 0 3.219-.297c1.05-.195 1.91-.441 2.578-.734l.797 4.828c-.313.168-.743.328-1.282.484a16.6 16.6 0 0 1-1.78.407c-.65.125-1.345.226-2.095.312a20.29 20.29 0 0 1-2.234.125c-1.898 0-3.547-.281-4.953-.844-1.399-.562-2.555-1.328-3.469-2.296a9.279 9.279 0 0 1-2.047-3.47c-.437-1.331-.656-2.769-.656-4.312Zm14-2.28a5.617 5.617 0 0 0-.266-1.485 3.573 3.573 0 0 0-1.828-2.188c-.468-.25-1.054-.375-1.75-.375-.668 0-1.242.117-1.718.344-.481.23-.883.531-1.204.906a4.268 4.268 0 0 0-.734 1.297 9.159 9.159 0 0 0-.375 1.5Zm10.36-7.672c1.008-.302 2.316-.579 3.922-.829a32.722 32.722 0 0 1 5.047-.375c1.78 0 3.265.234 4.453.703 1.187.461 2.125 1.117 2.812 1.969.696.855 1.192 1.871 1.485 3.047.289 1.168.437 2.476.437 3.922v11.875h-5.953v-11.157c0-1.925-.258-3.285-.766-4.078-.5-.8-1.445-1.203-2.828-1.203-.43 0-.887.024-1.375.063-.48.043-.902.09-1.265.14v16.235h-5.97Zm43.247 9.75c0 1.655-.242 3.171-.719 4.546-.48 1.375-1.18 2.547-2.093 3.516a9.505 9.505 0 0 1-3.266 2.265c-1.262.532-2.68.797-4.25.797-1.543 0-2.95-.265-4.219-.797a9.656 9.656 0 0 1-3.265-2.265c-.907-.969-1.618-2.14-2.125-3.516-.5-1.375-.75-2.89-.75-4.547 0-1.656.257-3.16.78-4.515.52-1.364 1.24-2.524 2.157-3.485a9.81 9.81 0 0 1 3.281-2.234c1.27-.531 2.649-.797 4.141-.797 1.52 0 2.91.266 4.172.797a9.48 9.48 0 0 1 3.266 2.234c.906.961 1.613 2.121 2.125 3.485.507 1.355.765 2.859.765 4.515Zm-6.078 0c0-1.833-.371-3.274-1.11-4.329-.73-1.062-1.777-1.594-3.14-1.594-1.355 0-2.406.532-3.156 1.594-.75 1.055-1.125 2.496-1.125 4.328 0 1.844.375 3.309 1.125 4.39.75 1.075 1.8 1.61 3.156 1.61 1.363 0 2.41-.535 3.14-1.61.739-1.081 1.11-2.546 1.11-4.39Zm10.67-9.75c1.008-.302 2.317-.579 3.922-.829a32.722 32.722 0 0 1 5.047-.375c1.781 0 3.266.234 4.453.703 1.188.461 2.125 1.117 2.813 1.969.695.855 1.191 1.871 1.484 3.047.29 1.168.438 2.476.438 3.922v11.875h-5.953v-11.157c0-1.925-.258-3.285-.766-4.078-.5-.8-1.445-1.203-2.828-1.203-.43 0-.887.024-1.375.063-.48.043-.903.09-1.266.14v16.235h-5.969Zm-87.679 61.023c.77-.32 1.578-.691 2.422-1.109.843-.414 1.66-.867 2.453-1.36a30.38 30.38 0 0 0 2.297-1.546 15.52 15.52 0 0 0 1.984-1.75h4.172v27.719h-5.969v-19.954c-.805.532-1.7 1.016-2.687 1.454-.98.437-1.938.82-2.875 1.14Zm29.048 22.547c-.72 0-1.48-.047-2.282-.14a26.337 26.337 0 0 1-2.328-.375 23.58 23.58 0 0 1-2.031-.516 12.157 12.157 0 0 1-1.437-.516l1.156-4.968c.687.293 1.57.605 2.656.937 1.082.336 2.422.5 4.016.5 1.843 0 3.191-.344 4.047-1.031.851-.695 1.28-1.629 1.28-2.797 0-.727-.155-1.336-.468-1.828a3.48 3.48 0 0 0-1.25-1.188c-.531-.312-1.168-.523-1.906-.64a13.9 13.9 0 0 0-2.344-.188h-2.312v-4.797h2.64c.582 0 1.145-.05 1.688-.156a4.833 4.833 0 0 0 1.468-.547 2.87 2.87 0 0 0 1.016-1.047c.258-.437.39-.988.39-1.656 0-.508-.109-.945-.327-1.312a2.85 2.85 0 0 0-.813-.922 3.576 3.576 0 0 0-1.172-.531 4.826 4.826 0 0 0-1.328-.188c-1.148 0-2.21.172-3.187.516a13.17 13.17 0 0 0-2.657 1.28l-2.125-4.358a18.8 18.8 0 0 1 1.5-.844c.57-.29 1.203-.555 1.89-.797a17.344 17.344 0 0 1 2.22-.594c.789-.164 1.629-.25 2.515-.25 1.625 0 3.032.195 4.219.578 1.188.387 2.164.934 2.938 1.64a6.73 6.73 0 0 1 1.718 2.485c.375.95.563 1.98.563 3.094 0 1.094-.309 2.156-.922 3.188a6.097 6.097 0 0 1-2.469 2.328c1.438.593 2.547 1.468 3.328 2.625.79 1.156 1.188 2.554 1.188 4.187 0 1.281-.215 2.465-.64 3.547a7.223 7.223 0 0 1-2 2.797c-.907.781-2.063 1.39-3.47 1.828-1.398.438-3.054.656-4.968.656Zm16.391-22.547c.77-.32 1.578-.691 2.422-1.109.844-.414 1.66-.867 2.453-1.36a29.983 29.983 0 0 0 2.297-1.546 15.52 15.52 0 0 0 1.985-1.75h4.171v27.719h-5.968v-19.954c-.805.532-1.7 1.016-2.688 1.454-.98.437-1.937.82-2.875 1.14Zm28.564 18.797c0 1.2-.383 2.11-1.14 2.735-.762.625-1.622.937-2.579.937-.96 0-1.82-.312-2.578-.937-.762-.625-1.14-1.535-1.14-2.735 0-1.195.378-2.11 1.14-2.734.758-.633 1.617-.953 2.578-.953.957 0 1.817.32 2.578.953.758.625 1.14 1.539 1.14 2.734Zm10.324 3.75c-.719 0-1.48-.047-2.281-.14a26.337 26.337 0 0 1-2.328-.375 23.58 23.58 0 0 1-2.031-.516 12.157 12.157 0 0 1-1.438-.516l1.156-4.968c.688.293 1.57.605 2.657.937 1.082.336 2.421.5 4.015.5 1.844 0 3.192-.344 4.047-1.031.852-.695 1.281-1.629 1.281-2.797 0-.727-.156-1.336-.468-1.828a3.48 3.48 0 0 0-1.25-1.188c-.532-.312-1.168-.523-1.907-.64a13.9 13.9 0 0 0-2.343-.188h-2.313v-4.797h2.64c.583 0 1.145-.05 1.688-.156a4.833 4.833 0 0 0 1.469-.547 2.87 2.87 0 0 0 1.016-1.047c.257-.437.39-.988.39-1.656 0-.508-.11-.945-.328-1.312a2.85 2.85 0 0 0-.812-.922 3.576 3.576 0 0 0-1.172-.531 4.826 4.826 0 0 0-1.328-.188c-1.149 0-2.211.172-3.188.516a13.17 13.17 0 0 0-2.656 1.28l-2.125-4.358a18.8 18.8 0 0 1 1.5-.844c.57-.29 1.203-.555 1.89-.797a17.344 17.344 0 0 1 2.22-.594c.788-.164 1.628-.25 2.515-.25 1.625 0 3.031.195 4.219.578 1.187.387 2.164.934 2.937 1.64a6.73 6.73 0 0 1 1.719 2.485c.375.95.562 1.98.562 3.094 0 1.094-.308 2.156-.922 3.188a6.097 6.097 0 0 1-2.468 2.328c1.437.593 2.547 1.468 3.328 2.625.789 1.156 1.187 2.554 1.187 4.187 0 1.281-.214 2.465-.64 3.547a7.223 7.223 0 0 1-2 2.797c-.907.781-2.063 1.39-3.469 1.828-1.398.438-3.055.656-4.969.656ZM51.906 68.094c0-.77-.18-1.457-.531-2.062-.344-.602-.945-1.102-1.797-1.5-.855-.395-2-.695-3.437-.906-1.438-.22-3.25-.329-5.438-.329.29-2.488.531-5.007.719-7.562.187-2.563.332-4.96.437-7.203h15v5h-10c-.054.96-.117 1.887-.187 2.781-.063.899-.137 1.68-.219 2.344 3.895.262 6.77 1.172 8.625 2.734 1.852 1.563 2.781 3.73 2.781 6.5 0 1.281-.23 2.469-.687 3.563a7.61 7.61 0 0 1-2.031 2.843c-.907.793-2.047 1.418-3.422 1.875-1.375.446-2.98.672-4.813.672-.73 0-1.492-.047-2.281-.14a29.875 29.875 0 0 1-2.266-.36c-.73-.144-1.39-.297-1.984-.453-.586-.156-1.04-.316-1.36-.484l1.079-4.922c.664.305 1.547.594 2.64.875 1.094.273 2.399.406 3.922.406 1.844 0 3.176-.363 4-1.094.832-.738 1.25-1.597 1.25-2.578Zm21.077-12.281a247.352 247.352 0 0 0-3.328 4.438 31.341 31.341 0 0 0-2.953 4.921h6.281Zm5.828-7.281v16.64h2.97v4.875h-2.97v6.204h-5.828v-6.204H61.015v-4.359a74.056 74.056 0 0 1 2.203-3.969 69.398 69.398 0 0 1 2.937-4.562 80.118 80.118 0 0 1 3.422-4.578 48.177 48.177 0 0 1 3.594-4.047Zm0 0"/>
</svg>
