<svg xmlns="http://www.w3.org/2000/svg" version="1.2" viewBox="0 0 375 375">
  <path d="m359.121 5.996.461.043.45.066.448.086.438.094.437.117.422.137.422.145.414.168.399.175.39.196.395.21.371.227.371.238.356.25.347.266.336.277.328.293.313.305.304.313.29.324.277.336.262.347.253.36.239.367.226.371.203.395.2.39.18.41.167.407.145.421.137.426.109.43.101.445.083.442.066.46.05.458.028.457.008.472v340.74l-.008.464-.027.465-.051.461-.066.45-.082.445-.102.441-.11.438-.136.422-.145.421-.168.414-.18.399-.199.39-.203.387-.226.38-.239.37-.253.356-.262.347-.277.336-.29.328-.304.313-.313.305-.328.289-.336.277-.347.262-.356.254-.371.242-.371.215-.395.21-.39.2-.399.18-.414.168-.422.144-.422.133-.437.113-.438.102-.449.082-.449.066-.46.05-.466.028-.465.008H17.453l-.465-.008-.465-.027-.457-.05-.46-.067-.442-.082-.445-.102-.43-.113-.426-.133-.422-.144-.406-.168-.41-.18-.39-.2-.387-.21-.38-.215-.366-.242-.36-.254-.347-.262-.336-.277-.325-.29-.312-.304-.305-.313-.293-.328-.277-.336-.262-.347-.254-.356-.238-.37-.227-.38-.21-.386-.188-.391-.184-.399-.168-.414-.144-.421-.137-.422-.117-.438-.094-.441-.086-.446-.058-.449-.051-.46-.031-.466-.008-.464V17.32l.008-.472.03-.457.052-.457.058-.461.086-.442.094-.445.117-.43.137-.426.144-.421.168-.407.184-.41.187-.39.211-.395.227-.371.238-.367.254-.36.262-.347.277-.336.293-.324.305-.313.312-.305.325-.293.336-.277.347-.266.36-.25.367-.238.379-.226.386-.211.391-.196.41-.175.406-.168.422-.145.426-.137.43-.117.445-.094.441-.086.461-.066.457-.043.465-.031.465-.008h340.738l.465.008Zm-333.25 8.86-.465.03-.457.044-.453.062-.45.09-.437.094-.437.117-.426.137-.414.144-.414.168-.402.176-.399.195-.387.211-.378.227-.364.238-.355.246-.348.27-.336.277-.324.29-.313.308-.308.312-.29.324-.276.336-.27.348-.246.355-.238.364-.227.379-.21.386-.188.399-.184.402-.168.414-.145.414-.136.426-.117.438-.094.437-.09.45-.055.452-.05.457-.032.465-.008.465v322.965l.008.465.032.469.05.457.055.449.09.445.094.442.117.437.136.422.145.422.168.414.184.398.187.395.211.383.227.379.238.37.246.356.27.348.277.336.289.328.308.312.313.305.324.29.336.276.348.262.355.254.364.242.378.215.387.211.399.2.402.179.414.168.414.144.426.133.437.113.438.106.45.078.452.067.457.05.465.028.465.007H349.3l.465-.007.468-.028.457-.05.45-.067.453-.078.433-.106.438-.113.422-.133.422-.144.414-.168.398-.18.395-.199.39-.21.371-.216.371-.242.356-.254.348-.262.336-.277.328-.289.312-.305.305-.312.289-.328.277-.336.262-.348.254-.355.242-.371.223-.38.203-.382.199-.395.18-.398.168-.414.144-.422.14-.422.106-.437.106-.442.078-.445.066-.45.051-.456.027-.47.008-.464V26.203l-.008-.465-.027-.465-.05-.457-.067-.453-.078-.449-.211-.875-.14-.426-.145-.414-.168-.414-.18-.402-.2-.399-.202-.386-.223-.38-.242-.363-.254-.355-.262-.348-.277-.336-.29-.324-.304-.312-.312-.309-.329-.289-.335-.277-.348-.27-.356-.246-.37-.238-.372-.227-.39-.21-.395-.196-.398-.176-.414-.168-.422-.144-.422-.137-.438-.117-.433-.094-.453-.09-.45-.062-.457-.043-.468-.032-.465-.007H26.336Zm0 0"/>
  <path d="M188.96 97.834v18.609h-29.25v78.375h-21.83v-78.375h-29.25v-18.61Zm40.73 82.421c2.05 0 4.008-.039 5.875-.125 1.875-.093 3.367-.234 4.484-.421v-15.813c-.836-.187-2.094-.375-3.781-.562a41.803 41.803 0 0 0-4.61-.282c-1.96 0-3.804.121-5.53.36-1.731.23-3.25.672-4.563 1.328-1.305.648-2.328 1.531-3.078 2.656-.743 1.117-1.11 2.512-1.11 4.188 0 3.273 1.094 5.539 3.281 6.796 2.196 1.25 5.208 1.875 9.032 1.875Zm-1.672-61.015c6.156 0 11.285.703 15.39 2.11 4.102 1.398 7.391 3.402 9.86 6.015 2.476 2.617 4.226 5.789 5.25 9.515 1.031 3.731 1.547 7.883 1.547 12.454v43.39c-2.992.649-7.149 1.414-12.469 2.297-5.313.895-11.746 1.344-19.297 1.344-4.762 0-9.078-.422-12.953-1.266-3.867-.844-7.2-2.219-10-4.125-2.805-1.914-4.953-4.41-6.453-7.484-1.492-3.082-2.235-6.863-2.235-11.344 0-4.289.864-7.926 2.594-10.906 1.727-2.988 4.035-5.367 6.922-7.14 2.895-1.782 6.207-3.067 9.938-3.86 3.738-.79 7.613-1.188 11.625-1.188 2.707 0 5.109.121 7.203.36 2.101.23 3.804.531 5.11.906v-1.969c0-3.539-1.075-6.383-3.22-8.531-2.148-2.145-5.875-3.219-11.187-3.219-3.555 0-7.059.258-10.516.766-3.449.512-6.43 1.234-8.937 2.172l-2.672-16.797c1.219-.375 2.734-.77 4.547-1.188a82.258 82.258 0 0 1 5.953-1.109 120.84 120.84 0 0 1 6.781-.844c2.383-.238 4.79-.36 7.219-.36ZM120.866 237.942v5.313h-8.359v22.406h-6.25v-22.406h-8.36v-5.313Zm11.638 23.563c.582 0 1.141-.008 1.672-.032.531-.03.957-.07 1.281-.125v-4.53a12.479 12.479 0 0 0-1.078-.157 11.327 11.327 0 0 0-2.906.032 4.001 4.001 0 0 0-1.297.374 2.307 2.307 0 0 0-.89.766c-.211.312-.313.71-.313 1.187 0 .938.313 1.59.938 1.953.632.356 1.5.532 2.593.532Zm-.484-17.438c1.758 0 3.223.2 4.39.594 1.176.398 2.118.969 2.829 1.719.707.75 1.207 1.664 1.5 2.734.289 1.063.437 2.246.437 3.547v12.406c-.855.188-2.043.406-3.562.656-1.512.25-3.352.375-5.516.375-1.355 0-2.59-.12-3.703-.359-1.105-.238-2.059-.629-2.86-1.172a5.485 5.485 0 0 1-1.828-2.14c-.43-.883-.64-1.97-.64-3.25 0-1.22.242-2.254.734-3.11a5.718 5.718 0 0 1 1.969-2.047 8.835 8.835 0 0 1 2.844-1.093 16.03 16.03 0 0 1 3.328-.344c.77 0 1.453.039 2.047.11a9.568 9.568 0 0 1 1.468.25v-.563c0-1.008-.308-1.82-.921-2.438-.618-.613-1.68-.922-3.188-.922a20.8 20.8 0 0 0-3.016.22c-.98.148-1.828.355-2.546.624l-.766-4.797a14.07 14.07 0 0 1 1.297-.344 20.53 20.53 0 0 1 1.703-.328 32.544 32.544 0 0 1 1.937-.234 22.387 22.387 0 0 1 2.063-.094Zm14.557 1.281c1.008-.3 2.317-.578 3.922-.828a32.722 32.722 0 0 1 5.047-.375c1.781 0 3.266.235 4.453.703 1.188.461 2.125 1.118 2.813 1.97.695.855 1.191 1.87 1.484 3.046.29 1.168.438 2.477.438 3.922v11.875h-5.954v-11.156c0-1.926-.257-3.285-.765-4.078-.5-.801-1.445-1.204-2.828-1.204-.43 0-.887.024-1.375.063-.48.043-.903.09-1.266.14v16.235h-5.969Zm23.357-5.968 5.969-.953v6.187h7.156v4.969h-7.156v7.39c0 1.262.219 2.266.656 3.016.438.742 1.32 1.11 2.656 1.11a11.094 11.094 0 0 0 3.844-.672l.844 4.64a16.18 16.18 0 0 1-2.406.75c-.875.219-1.954.328-3.235.328-1.625 0-2.976-.218-4.047-.656-1.062-.445-1.918-1.062-2.562-1.844-.637-.789-1.086-1.742-1.344-2.859-.25-1.125-.375-2.363-.375-3.719Zm26.01 22.125c.582 0 1.14-.008 1.672-.032.531-.03.957-.07 1.281-.125v-4.53a12.54 12.54 0 0 0-1.078-.157 11.323 11.323 0 0 0-2.906.032 4.001 4.001 0 0 0-1.297.374 2.307 2.307 0 0 0-.89.766c-.212.312-.313.71-.313 1.187 0 .938.312 1.59.937 1.953.633.356 1.5.532 2.594.532Zm-.485-17.438c1.758 0 3.223.2 4.391.594 1.176.398 2.117.969 2.828 1.719.707.75 1.207 1.664 1.5 2.734.29 1.063.438 2.246.438 3.547v12.406a72.45 72.45 0 0 1-3.563.656c-1.511.25-3.351.375-5.515.375-1.356 0-2.59-.12-3.704-.359-1.105-.238-2.058-.629-2.859-1.172a5.485 5.485 0 0 1-1.828-2.14c-.43-.883-.64-1.97-.64-3.25 0-1.22.242-2.254.734-3.11a5.718 5.718 0 0 1 1.968-2.047 8.852 8.852 0 0 1 2.844-1.093 16.03 16.03 0 0 1 3.328-.344c.77 0 1.453.039 2.047.11a9.568 9.568 0 0 1 1.469.25v-.563c0-1.008-.309-1.82-.922-2.438-.617-.613-1.68-.922-3.187-.922a20.8 20.8 0 0 0-3.016.22c-.98.148-1.828.355-2.547.624l-.766-4.797a14.07 14.07 0 0 1 1.297-.344 20.53 20.53 0 0 1 1.703-.328 32.544 32.544 0 0 1 1.938-.234 22.387 22.387 0 0 1 2.062-.094Zm22.964 22c-1.742-.031-3.152-.219-4.234-.562-1.075-.352-1.922-.844-2.547-1.469a4.836 4.836 0 0 1-1.281-2.266c-.23-.894-.344-1.906-.344-3.03v-23.157l5.969-.969v22.922c0 .543.035 1.027.109 1.453.082.418.238.777.469 1.078.226.293.55.531.968.719.426.187 1.004.309 1.735.36Zm22.202-1.125c-1.023.293-2.335.563-3.937.813-1.594.258-3.273.39-5.031.39-1.782 0-3.266-.242-4.453-.718-1.188-.477-2.133-1.149-2.829-2.016-.687-.875-1.183-1.91-1.484-3.11-.293-1.195-.437-2.515-.437-3.953v-11.734h5.968v11c0 1.93.25 3.32.75 4.172.508.855 1.457 1.281 2.844 1.281.426 0 .879-.02 1.36-.062.476-.04.906-.086 1.28-.14v-16.25h5.97Zm17.154-10.437c0-1.926-.25-3.285-.75-4.078-.492-.801-1.336-1.204-2.531-1.204-.375 0-.766.024-1.172.063-.399.043-.777.09-1.14.14v16.235h-5.97v-20.313a37.888 37.888 0 0 1 3.938-.813c.758-.124 1.54-.218 2.344-.28.8-.07 1.586-.11 2.36-.11 1.519 0 2.753.196 3.702.578.946.387 1.727.844 2.344 1.375.852-.613 1.832-1.093 2.938-1.437 1.101-.344 2.125-.516 3.062-.516 1.676 0 3.05.235 4.125.703 1.082.461 1.941 1.118 2.578 1.97.645.855 1.086 1.87 1.328 3.046.239 1.168.36 2.477.36 3.922v11.875h-5.953v-11.156c0-1.926-.25-3.285-.75-4.078-.493-.801-1.336-1.204-2.532-1.204-.324 0-.773.086-1.343.25-.575.157-1.047.356-1.422.594a8.97 8.97 0 0 1 .359 1.938c.05.68.078 1.402.078 2.172v11.484h-5.953Zm-117.842 51.868c.77-.32 1.578-.692 2.422-1.11.843-.414 1.66-.867 2.453-1.36.8-.487 1.566-1.003 2.297-1.546a15.52 15.52 0 0 0 1.984-1.75h4.172v27.719h-5.969v-19.953c-.805.53-1.7 1.015-2.687 1.453-.98.437-1.938.82-2.875 1.14Zm41.126 14.234c0 1.2-.211 2.297-.625 3.297a7.383 7.383 0 0 1-1.86 2.625c-.824.742-1.855 1.32-3.093 1.734-1.243.414-2.68.625-4.313.625-1.867 0-3.418-.261-4.656-.781-1.242-.52-2.242-1.164-3-1.938-.762-.77-1.305-1.613-1.625-2.53-.313-.927-.469-1.774-.469-2.548 0-.8.102-1.535.313-2.203a7.28 7.28 0 0 1 .875-1.812 9.403 9.403 0 0 1 1.265-1.5c.469-.457.969-.89 1.5-1.297-1.148-.926-1.996-1.844-2.547-2.75-.543-.906-.812-2.067-.812-3.485 0-1.062.219-2.085.656-3.078a7.863 7.863 0 0 1 1.86-2.578c.8-.738 1.77-1.328 2.906-1.765 1.133-.438 2.394-.657 3.781-.657 1.625 0 3.016.235 4.172.703 1.164.47 2.117 1.063 2.86 1.782.75.718 1.288 1.527 1.624 2.422.332.886.5 1.773.5 2.656 0 1.281-.34 2.476-1.015 3.578-.68 1.105-1.528 1.98-2.547 2.625 1.52.98 2.61 2.012 3.265 3.094.657 1.086.985 2.343.985 3.781Zm-13.844.234c0 .325.07.68.219 1.063.144.387.379.742.703 1.062.32.325.734.594 1.234.813.508.21 1.125.312 1.844.312 1.383 0 2.395-.332 3.031-1 .645-.664.969-1.414.969-2.25 0-.613-.14-1.16-.422-1.64a4.266 4.266 0 0 0-1.14-1.25 8.103 8.103 0 0 0-1.704-.969 23.084 23.084 0 0 0-2.093-.781 8.21 8.21 0 0 0-1.891 1.968c-.5.743-.75 1.633-.75 2.672Zm7.406-13.156a2.7 2.7 0 0 0-.187-.937 2.6 2.6 0 0 0-.594-.938 3.586 3.586 0 0 0-1.062-.734c-.43-.207-.95-.313-1.563-.313-.586 0-1.09.094-1.516.281-.43.188-.78.438-1.062.75a3.06 3.06 0 0 0-.625.97 2.693 2.693 0 0 0-.203 1c0 .855.312 1.655.937 2.405.633.743 1.711 1.383 3.235 1.922.851-.539 1.504-1.156 1.953-1.843.457-.696.687-1.551.687-2.563Zm29.314 6.719c0 4.668-.887 8.25-2.656 10.75-1.774 2.492-4.22 3.734-7.344 3.734-3.117 0-5.563-1.242-7.344-3.734-1.773-2.5-2.656-6.082-2.656-10.75 0-2.32.234-4.375.703-6.156.469-1.79 1.14-3.297 2.016-4.516.882-1.227 1.937-2.16 3.156-2.797 1.226-.644 2.601-.969 4.125-.969 3.125 0 5.57 1.25 7.344 3.75 1.77 2.493 2.656 6.055 2.656 10.688Zm-6.078 0c0-1.383-.07-2.645-.203-3.781-.137-1.133-.352-2.114-.641-2.938-.293-.82-.695-1.457-1.203-1.906-.5-.457-1.125-.688-1.875-.688s-1.371.23-1.86.688c-.492.45-.89 1.086-1.203 1.906-.304.824-.523 1.805-.656 2.938a31.88 31.88 0 0 0-.203 3.78c0 1.388.066 2.653.203 3.798.133 1.148.352 2.136.656 2.968.313.825.711 1.465 1.203 1.922.489.45 1.11.672 1.86.672s1.375-.222 1.875-.672c.508-.457.91-1.097 1.203-1.922.289-.832.504-1.82.64-2.968.133-1.145.204-2.41.204-3.797Zm16.079 10.766c0 1.199-.383 2.109-1.14 2.734-.762.625-1.622.937-2.579.937-.96 0-1.82-.312-2.578-.937-.762-.625-1.14-1.535-1.14-2.735 0-1.195.378-2.109 1.14-2.734.758-.633 1.617-.953 2.578-.953.957 0 1.817.32 2.578.953.758.625 1.14 1.54 1.14 2.734Zm12.762-11.72c.613 0 1.254-.054 1.922-.171.664-.125 1.156-.297 1.468-.516v-.36c0-.1.004-.206.016-.312a1.75 1.75 0 0 0 .031-.28 22.022 22.022 0 0 0-.25-2.704c-.125-.844-.351-1.578-.672-2.203a3.775 3.775 0 0 0-1.312-1.469c-.543-.363-1.211-.547-2-.547-.649 0-1.211.137-1.688.406-.48.262-.867.606-1.156 1.032-.293.43-.512.898-.656 1.406-.149.5-.219.992-.219 1.469 0 1.449.348 2.523 1.047 3.218.707.688 1.863 1.032 3.469 1.032Zm2.922 3.876a7.221 7.221 0 0 1-1.875.593c-.68.118-1.258.172-1.735.172-1.73 0-3.21-.207-4.437-.625-1.23-.414-2.242-1.004-3.032-1.765a6.998 6.998 0 0 1-1.734-2.735c-.367-1.062-.547-2.234-.547-3.515 0-1.07.176-2.164.531-3.282a9.002 9.002 0 0 1 1.704-3.062c.77-.914 1.75-1.676 2.937-2.281 1.188-.602 2.617-.907 4.297-.907 3.445 0 6.039 1.063 7.781 3.188 1.75 2.117 2.625 5.164 2.625 9.14 0 2.618-.344 4.922-1.031 6.922-.68 2-1.73 3.684-3.156 5.047-1.418 1.356-3.235 2.387-5.453 3.094-2.211.711-4.836 1.07-7.875 1.094a90.625 90.625 0 0 0-.125-2.469c-.055-.8-.106-1.629-.157-2.484 1.52-.032 2.891-.145 4.11-.344 1.226-.195 2.304-.531 3.234-1a7.477 7.477 0 0 0 2.39-1.86c.657-.769 1.173-1.742 1.548-2.921ZM43.188 76.25c.156-1.945.484-3.973.984-6.078a59.072 59.072 0 0 1 1.86-6.188 53.583 53.583 0 0 1 2.468-5.75c.906-1.8 1.828-3.36 2.766-4.672H39.219v-5.078h19.406v4.328c-.855.93-1.797 2.22-2.828 3.875-1.024 1.657-1.996 3.532-2.922 5.625a53.19 53.19 0 0 0-2.406 6.75 34.54 34.54 0 0 0-1.25 7.188Zm26.155.594c-.719 0-1.48-.047-2.282-.141a26.337 26.337 0 0 1-2.328-.375 23.58 23.58 0 0 1-2.03-.516 12.157 12.157 0 0 1-1.438-.515l1.156-4.969c.687.293 1.57.606 2.656.938 1.082.335 2.422.5 4.016.5 1.843 0 3.191-.344 4.047-1.032.851-.695 1.28-1.629 1.28-2.797 0-.726-.155-1.336-.468-1.828a3.48 3.48 0 0 0-1.25-1.187c-.531-.313-1.168-.524-1.906-.64a13.9 13.9 0 0 0-2.344-.188H66.14v-4.797h2.64c.582 0 1.145-.051 1.688-.156a4.833 4.833 0 0 0 1.468-.547 2.87 2.87 0 0 0 1.016-1.047c.258-.438.39-.988.39-1.656 0-.508-.109-.946-.327-1.313a2.85 2.85 0 0 0-.813-.922 3.576 3.576 0 0 0-1.172-.531 4.826 4.826 0 0 0-1.328-.188c-1.148 0-2.21.172-3.187.516a13.17 13.17 0 0 0-2.657 1.281l-2.125-4.36a18.8 18.8 0 0 1 1.5-.843c.57-.289 1.203-.555 1.891-.797a17.344 17.344 0 0 1 2.219-.593c.789-.165 1.629-.25 2.515-.25 1.625 0 3.032.195 4.22.578 1.187.386 2.163.933 2.937 1.64a6.73 6.73 0 0 1 1.718 2.485c.375.949.563 1.98.563 3.093 0 1.094-.309 2.157-.922 3.188a6.097 6.097 0 0 1-2.469 2.328c1.438.594 2.547 1.469 3.328 2.625.79 1.156 1.188 2.555 1.188 4.188 0 1.28-.215 2.464-.64 3.546a7.223 7.223 0 0 1-2 2.797c-.907.782-2.063 1.39-3.47 1.828-1.398.438-3.054.657-4.968.657Zm0 0"/>
</svg>
