<svg xmlns="http://www.w3.org/2000/svg" version="1.2" viewBox="0 0 375 375">
  <path d="m359.121 5.996.461.043.45.066.448.086.438.094.437.117.422.137.422.145.414.168.399.175.39.196.395.21.371.227.371.238.356.25.347.266.336.277.328.293.313.305.304.313.29.324.277.336.262.347.253.36.239.367.226.371.203.395.2.39.18.41.167.407.145.421.137.426.109.43.101.445.083.442.066.46.05.458.028.457.008.472v340.74l-.008.464-.027.465-.051.461-.066.45-.082.445-.102.441-.11.438-.136.422-.145.421-.168.414-.18.399-.199.39-.203.387-.226.38-.239.37-.253.356-.262.347-.277.336-.29.328-.304.313-.313.305-.328.289-.336.277-.347.262-.356.254-.371.242-.371.215-.395.21-.39.2-.399.18-.414.168-.422.144-.422.133-.437.113-.438.102-.449.082-.449.066-.46.05-.466.028-.465.008H17.453l-.465-.008-.465-.027-.457-.05-.46-.067-.442-.082-.445-.102-.43-.113-.426-.133-.422-.144-.406-.168-.41-.18-.39-.2-.387-.21-.38-.215-.366-.242-.36-.254-.347-.262-.336-.277-.325-.29-.312-.304-.305-.313-.293-.328-.277-.336-.262-.347-.254-.356-.238-.37-.227-.38-.21-.386-.188-.391-.184-.399-.168-.414-.144-.421-.137-.422-.117-.438-.094-.441-.086-.446-.058-.449-.051-.46-.031-.466-.008-.464V17.32l.008-.472.03-.457.052-.457.058-.461.086-.442.094-.445.117-.43.137-.426.144-.421.168-.407.184-.41.187-.39.211-.395.227-.371.238-.367.254-.36.262-.347.277-.336.293-.324.305-.313.312-.305.325-.293.336-.277.347-.266.36-.25.367-.238.379-.226.386-.211.391-.196.41-.175.406-.168.422-.145.426-.137.43-.117.445-.094.441-.086.461-.066.457-.043.465-.031.465-.008h340.738l.465.008Zm-333.25 8.86-.465.03-.457.044-.453.062-.45.09-.437.094-.437.117-.426.137-.414.144-.414.168-.402.176-.399.195-.387.211-.378.227-.364.238-.355.246-.348.27-.336.277-.324.29-.313.308-.308.312-.29.324-.276.336-.27.348-.246.355-.238.364-.227.379-.21.386-.188.399-.184.402-.168.414-.145.414-.136.426-.117.438-.094.437-.09.45-.055.452-.05.457-.032.465-.008.465v322.965l.008.465.032.469.05.457.055.449.09.445.094.442.117.437.136.422.145.422.168.414.184.398.187.395.211.383.227.379.238.37.246.356.27.348.277.336.289.328.308.312.313.305.324.29.336.276.348.262.355.254.364.242.378.215.387.211.399.2.402.179.414.168.414.144.426.133.437.113.438.106.45.078.452.067.457.05.465.028.465.007H349.3l.465-.007.468-.028.457-.05.45-.067.453-.078.433-.106.438-.113.422-.133.422-.144.414-.168.398-.18.395-.199.39-.21.371-.216.371-.242.356-.254.348-.262.336-.277.328-.289.312-.305.305-.312.289-.328.277-.336.262-.348.254-.355.242-.371.223-.38.203-.382.199-.395.18-.398.168-.414.144-.422.14-.422.106-.437.106-.442.078-.445.066-.45.051-.456.027-.47.008-.464V26.203l-.008-.465-.027-.465-.05-.457-.067-.453-.078-.449-.211-.875-.14-.426-.145-.414-.168-.414-.18-.402-.2-.399-.202-.386-.223-.38-.242-.363-.254-.355-.262-.348-.277-.336-.29-.324-.304-.312-.312-.309-.329-.289-.335-.277-.348-.27-.356-.246-.37-.238-.372-.227-.39-.21-.395-.196-.398-.176-.414-.168-.422-.144-.422-.137-.438-.117-.433-.094-.453-.09-.45-.062-.457-.043-.468-.032-.465-.007H26.336Zm0 0"/>
  <path d="M139.566 96.709c14.55 0 25.695 2.59 33.437 7.765 7.75 5.18 11.625 13.227 11.625 24.141 0 6.813-1.562 12.344-4.687 16.594-3.125 4.242-7.625 7.574-13.5 10 1.957 2.43 4.008 5.203 6.156 8.328a232.327 232.327 0 0 1 6.36 9.797 191.467 191.467 0 0 1 6.093 10.64 271.147 271.147 0 0 1 5.453 10.844H166.02l-5.39-9.656a230.341 230.341 0 0 0-5.61-9.516c-1.906-3.082-3.793-6-5.656-8.75-1.867-2.75-3.73-5.242-5.594-7.484h-10.781v35.406H111.16V99.224a125.3 125.3 0 0 1 14.75-1.953c5.093-.375 9.644-.562 13.656-.562Zm1.25 18.61c-1.586 0-3.008.046-4.266.14-1.262.094-2.449.187-3.562.281v26.313h6.156c8.207 0 14.082-1.024 17.625-3.079 3.55-2.05 5.328-5.55 5.328-10.5 0-4.75-1.797-8.128-5.39-10.14-3.594-2.008-8.891-3.016-15.891-3.016Zm58.788 43.249c0-6.531 1-12.242 3-17.14 2.008-4.895 4.645-8.973 7.907-12.235 3.27-3.27 7.023-5.742 11.265-7.422 4.25-1.687 8.613-2.53 13.094-2.53 10.445 0 18.703 3.198 24.766 9.593 6.07 6.387 9.109 15.789 9.109 28.203 0 1.21-.047 2.539-.14 3.984-.094 1.45-.188 2.73-.282 3.844h-47.312c.468 4.293 2.472 7.7 6.015 10.219 3.551 2.523 8.313 3.781 14.281 3.781 3.82 0 7.579-.348 11.266-1.047 3.688-.695 6.695-1.562 9.031-2.594l2.797 16.938c-1.117.562-2.61 1.125-4.484 1.687-1.867.555-3.946 1.036-6.235 1.454-2.28.425-4.73.773-7.343 1.046a72.888 72.888 0 0 1-7.828.422c-6.625 0-12.387-.98-17.282-2.937-4.898-1.957-8.953-4.64-12.172-8.047-3.218-3.406-5.601-7.438-7.14-12.094-1.543-4.664-2.313-9.707-2.313-15.125Zm48.985-7.969a21.811 21.811 0 0 0-.907-5.187 12.915 12.915 0 0 0-2.375-4.469c-1.074-1.312-2.43-2.383-4.062-3.219-1.637-.843-3.668-1.265-6.094-1.265-2.336 0-4.34.398-6.015 1.187-1.68.793-3.079 1.844-4.204 3.157-1.117 1.304-1.98 2.82-2.593 4.546a29.716 29.716 0 0 0-1.328 5.25Zm-133.156 87.015c4.164 0 7.351.746 9.562 2.235 2.22 1.48 3.328 3.777 3.328 6.89 0 1.95-.449 3.531-1.343 4.75-.899 1.211-2.184 2.164-3.86 2.86.563.687 1.149 1.48 1.766 2.375a67.78 67.78 0 0 1 1.812 2.796 47.04 47.04 0 0 1 1.735 3.047 76.86 76.86 0 0 1 1.562 3.094h-7c-.5-.906-1.011-1.82-1.53-2.75a60.1 60.1 0 0 0-1.61-2.719 56.891 56.891 0 0 0-1.625-2.5 28.658 28.658 0 0 0-1.594-2.156h-3.078v10.125h-6.235V238.35a34.17 34.17 0 0 1 4.204-.563 50.996 50.996 0 0 1 3.906-.172Zm.375 5.328c-.461 0-.871.016-1.235.047-.355.024-.695.047-1.015.078v7.516h1.765c2.344 0 4.02-.29 5.032-.875 1.02-.594 1.531-1.594 1.531-3 0-1.363-.516-2.332-1.547-2.906-1.023-.57-2.531-.86-4.531-.86Zm17.789 22.719v-30.078l5.969-.969v10.094c.394-.133.906-.258 1.531-.375a9.311 9.311 0 0 1 1.828-.188c1.707 0 3.125.235 4.25.704 1.133.46 2.04 1.117 2.719 1.968.687.856 1.164 1.871 1.437 3.047.282 1.168.422 2.477.422 3.922v11.875H145.8v-11.156c0-1.926-.25-3.285-.75-4.078-.492-.801-1.402-1.203-2.734-1.203-.531 0-1.031.046-1.5.14-.469.094-.887.196-1.25.297v16Zm22.56-10.359c0-1.864.285-3.492.86-4.89.57-1.407 1.32-2.571 2.25-3.5a9.42 9.42 0 0 1 3.218-2.126 10.218 10.218 0 0 1 3.75-.719c2.988 0 5.348.914 7.078 2.735 1.738 1.824 2.61 4.511 2.61 8.062 0 .344-.016.727-.047 1.14-.024.407-.047.774-.079 1.095h-13.515c.133 1.23.707 2.203 1.719 2.921 1.007.72 2.367 1.079 4.078 1.079 1.093 0 2.164-.098 3.218-.297 1.051-.196 1.91-.442 2.579-.735l.796 4.828c-.312.168-.742.329-1.28.485-.532.156-1.126.289-1.782.406a27.83 27.83 0 0 1-2.094.313 20.29 20.29 0 0 1-2.234.125c-1.899 0-3.547-.282-4.953-.844-1.399-.563-2.555-1.328-3.469-2.297a9.279 9.279 0 0 1-2.047-3.469c-.437-1.332-.656-2.77-.656-4.312Zm14-2.282a5.617 5.617 0 0 0-.266-1.484 3.573 3.573 0 0 0-1.828-2.188c-.469-.25-1.055-.374-1.75-.374-.668 0-1.242.117-1.719.343-.48.23-.882.532-1.203.907a4.268 4.268 0 0 0-.734 1.296 9.159 9.159 0 0 0-.375 1.5Zm10.36-7.671c1.007-.301 2.316-.579 3.922-.829a32.722 32.722 0 0 1 5.046-.375c1.782 0 3.266.235 4.454.704 1.187.46 2.125 1.117 2.812 1.968.695.856 1.191 1.871 1.484 3.047.29 1.168.438 2.477.438 3.922v11.875h-5.953v-11.156c0-1.926-.258-3.285-.766-4.078-.5-.801-1.445-1.203-2.828-1.203-.43 0-.887.023-1.375.062-.48.043-.902.09-1.266.14v16.235h-5.968Zm29.528 20.312h-5.969v-21.047h5.97Zm.547-27.125c0 1.094-.355 1.961-1.062 2.594-.7.625-1.528.937-2.485.937-.969 0-1.808-.312-2.515-.937-.7-.633-1.047-1.5-1.047-2.594 0-1.094.347-1.953 1.047-2.578.707-.625 1.546-.938 2.515-.938.957 0 1.785.313 2.485.938.707.625 1.062 1.484 1.062 2.578Zm23.013 26.406c-1.023.293-2.336.563-3.937.813-1.594.258-3.274.39-5.032.39-1.78 0-3.265-.242-4.453-.718-1.187-.477-2.133-1.149-2.828-2.016-.687-.875-1.183-1.91-1.484-3.11-.293-1.195-.438-2.515-.438-3.952v-11.735h5.969v11c0 1.93.25 3.32.75 4.172.508.856 1.457 1.281 2.844 1.281.426 0 .879-.02 1.36-.062.476-.04.905-.086 1.28-.14v-16.25h5.97Zm17.154-10.437c0-1.926-.25-3.285-.75-4.078-.493-.801-1.336-1.203-2.532-1.203-.375 0-.765.023-1.171.062-.399.043-.778.09-1.141.14v16.235h-5.969V245.35a37.888 37.888 0 0 1 3.938-.813 27.246 27.246 0 0 1 2.343-.281c.801-.07 1.586-.11 2.36-.11 1.52 0 2.754.196 3.703.579.945.386 1.726.843 2.344 1.375.851-.614 1.832-1.094 2.937-1.438 1.102-.344 2.125-.516 3.063-.516 1.675 0 3.05.235 4.125.704 1.082.46 1.941 1.117 2.578 1.968.644.856 1.086 1.871 1.328 3.047.238 1.168.36 2.477.36 3.922v11.875h-5.954v-11.156c0-1.926-.25-3.285-.75-4.078-.492-.801-1.336-1.203-2.531-1.203-.324 0-.774.086-1.344.25-.574.156-1.047.355-1.422.593a8.91 8.91 0 0 1 .36 1.938c.05.68.078 1.402.078 2.172v11.484h-5.953Zm-110.822 51.868c.77-.32 1.578-.692 2.422-1.11.843-.414 1.66-.867 2.453-1.359a30.39 30.39 0 0 0 2.297-1.547 15.52 15.52 0 0 0 1.984-1.75h4.172v27.719h-5.969v-19.953a18.49 18.49 0 0 1-2.687 1.453c-.98.437-1.938.82-2.875 1.14Zm41.126 14.234c0 1.2-.211 2.297-.625 3.297a7.383 7.383 0 0 1-1.86 2.625c-.824.742-1.855 1.32-3.093 1.734-1.243.415-2.68.625-4.313.625-1.867 0-3.418-.261-4.656-.78-1.242-.52-2.242-1.165-3-1.938-.762-.77-1.305-1.614-1.625-2.532-.313-.925-.469-1.773-.469-2.546 0-.801.102-1.536.313-2.204a7.28 7.28 0 0 1 .875-1.812c.375-.55.797-1.05 1.265-1.5.469-.457.969-.89 1.5-1.297-1.148-.926-1.996-1.844-2.547-2.75-.543-.906-.812-2.066-.812-3.484 0-1.063.219-2.086.656-3.078a7.863 7.863 0 0 1 1.86-2.579c.8-.738 1.77-1.328 2.906-1.765 1.133-.438 2.394-.656 3.781-.656 1.625 0 3.016.234 4.172.703 1.164.468 2.117 1.062 2.86 1.781.75.719 1.288 1.527 1.624 2.422.332.887.5 1.773.5 2.656 0 1.281-.34 2.477-1.015 3.578-.68 1.106-1.528 1.98-2.547 2.625 1.52.98 2.61 2.012 3.265 3.094.657 1.086.985 2.344.985 3.781Zm-13.844.235c0 .324.07.68.219 1.062.144.387.379.742.703 1.063.32.324.734.593 1.234.812.508.211 1.125.313 1.844.313 1.383 0 2.395-.332 3.031-1 .645-.664.969-1.414.969-2.25 0-.614-.14-1.16-.422-1.641a4.266 4.266 0 0 0-1.14-1.25 8.103 8.103 0 0 0-1.704-.969 23.084 23.084 0 0 0-2.093-.781 8.21 8.21 0 0 0-1.891 1.969c-.5.742-.75 1.633-.75 2.672Zm7.406-13.157a2.7 2.7 0 0 0-.187-.937 2.6 2.6 0 0 0-.594-.938 3.586 3.586 0 0 0-1.062-.734c-.43-.207-.95-.313-1.563-.313-.586 0-1.09.094-1.516.282-.43.187-.78.437-1.062.75a3.06 3.06 0 0 0-.625.968c-.137.344-.203.68-.203 1 0 .856.312 1.657.937 2.407.633.742 1.711 1.383 3.235 1.922.851-.54 1.504-1.157 1.953-1.844.457-.695.687-1.551.687-2.563Zm18.908 7.595c-.586 0-1.211.058-1.875.171-.668.105-1.188.25-1.563.437 0 .106-.008.266-.016.485-.011.21-.015.39-.015.547 0 .968.062 1.883.187 2.734.133.844.364 1.59.688 2.234.32.637.75 1.137 1.281 1.5.531.356 1.195.532 2 .532.664 0 1.234-.133 1.703-.407a3.772 3.772 0 0 0 1.156-1.062c.301-.426.524-.898.672-1.422.157-.52.235-1.02.235-1.5 0-1.363-.344-2.41-1.032-3.14-.68-.739-1.82-1.11-3.421-1.11Zm.765-4.642c1.727 0 3.196.235 4.406.704 1.22.468 2.211 1.105 2.985 1.906a7.1 7.1 0 0 1 1.687 2.797c.344 1.062.516 2.199.516 3.406 0 1.062-.195 2.156-.578 3.281a9.123 9.123 0 0 1-1.766 3.031c-.781.907-1.781 1.657-3 2.25-1.21.582-2.636.875-4.281.875-3.336 0-5.871-1.05-7.61-3.156-1.73-2.113-2.593-5.02-2.593-8.719 0-2.664.41-5.023 1.234-7.078.82-2.062 2-3.789 3.531-5.187 1.54-1.406 3.395-2.473 5.563-3.203 2.176-.727 4.625-1.11 7.344-1.14.05.823.101 1.632.156 2.421.062.793.117 1.61.172 2.453a23.24 23.24 0 0 0-3.828.39 13.06 13.06 0 0 0-3.25 1.063 8.92 8.92 0 0 0-2.532 1.86c-.718.761-1.277 1.687-1.671 2.78a7.104 7.104 0 0 1 1.796-.562 9.516 9.516 0 0 1 1.72-.172Zm19.642 14.532c0 1.199-.383 2.11-1.14 2.734-.762.625-1.622.938-2.579.938-.96 0-1.82-.313-2.578-.938-.762-.625-1.14-1.535-1.14-2.734 0-1.196.378-2.11 1.14-2.735.758-.632 1.617-.953 2.578-.953.957 0 1.817.32 2.578.953.758.625 1.14 1.54 1.14 2.735Zm21.043-17.282a7.27 7.27 0 0 1-.61 2.922 13.5 13.5 0 0 1-1.562 2.703c-.637.868-1.355 1.7-2.156 2.5a122.18 122.18 0 0 1-2.36 2.266c-.398.375-.828.797-1.296 1.266a34.866 34.866 0 0 0-2.485 2.765c-.336.407-.539.746-.61 1.016h11.923v5h-18.485a6.209 6.209 0 0 1-.078-1.11v-.968c0-1.281.203-2.453.61-3.516.414-1.07.957-2.066 1.625-2.984a19.415 19.415 0 0 1 2.25-2.578c.843-.801 1.68-1.602 2.515-2.407.633-.613 1.235-1.191 1.797-1.734a20.189 20.189 0 0 0 1.484-1.61 7.557 7.557 0 0 0 1-1.546c.239-.52.36-1.051.36-1.594 0-1.164-.336-1.988-1-2.469-.668-.476-1.496-.718-2.485-.718a6 6 0 0 0-2.03.343c-.626.22-1.2.485-1.72.797-.511.305-.953.61-1.328.922a11.83 11.83 0 0 0-.843.734l-2.954-4.156c1.165-1.094 2.532-1.992 4.094-2.703a12.025 12.025 0 0 1 5.016-1.062c1.625 0 3.023.187 4.203.562 1.176.375 2.145.902 2.906 1.578a6.077 6.077 0 0 1 1.672 2.485c.363.968.547 2.07.547 3.296ZM43.188 76.25c.156-1.945.484-3.973.984-6.078a59.072 59.072 0 0 1 1.86-6.187 53.583 53.583 0 0 1 2.468-5.75c.906-1.801 1.828-3.36 2.766-4.672H39.219v-5.078h19.406v4.328c-.855.93-1.797 2.218-2.828 3.875-1.024 1.656-1.996 3.53-2.922 5.625a53.19 53.19 0 0 0-2.406 6.75 34.54 34.54 0 0 0-1.25 7.187Zm31.436-8.156c0-.77-.18-1.457-.531-2.063-.344-.601-.946-1.101-1.797-1.5-.856-.394-2-.695-3.438-.906-1.437-.219-3.25-.328-5.437-.328.289-2.488.531-5.008.719-7.562.187-2.563.332-4.961.437-7.204h15v5h-10c-.055.961-.117 1.887-.187 2.782-.063.898-.137 1.68-.22 2.343 3.895.262 6.77 1.172 8.626 2.735 1.851 1.562 2.781 3.73 2.781 6.5 0 1.281-.23 2.469-.687 3.562a7.61 7.61 0 0 1-2.032 2.844c-.906.793-2.047 1.418-3.422 1.875-1.375.445-2.98.672-4.812.672-.73 0-1.492-.047-2.281-.14a29.875 29.875 0 0 1-2.266-.36c-.73-.145-1.39-.297-1.984-.453-.586-.156-1.04-.317-1.36-.485l1.078-4.921c.665.304 1.547.593 2.641.875 1.094.273 2.399.406 3.922.406 1.844 0 3.176-.364 4-1.094.832-.738 1.25-1.598 1.25-2.578Zm0 0"/>
</svg>
