<svg xmlns="http://www.w3.org/2000/svg" version="1.2" viewBox="0 0 375 375">
  <path d="m359.121 5.996.461.043.45.066.448.086.438.094.437.117.422.137.422.145.414.168.399.175.39.196.395.21.371.227.371.238.356.247.347.27.336.276.328.29.313.308.304.313.29.324.277.336.262.347.253.36.239.367.226.371.203.395.2.39.18.41.167.407.145.421.137.426.109.43.101.445.083.442.066.46.05.458.028.457.008.472v340.74l-.008.464-.027.465-.051.461-.066.45-.082.445-.102.441-.11.438-.136.422-.145.421-.168.414-.18.399-.199.39-.203.387-.226.38-.239.37-.253.356-.262.347-.277.336-.29.328-.304.313-.313.305-.328.289-.336.277-.347.262-.356.254-.371.238-.371.219-.395.21-.39.2-.399.18-.414.168-.422.144-.422.133-.437.113-.438.102-.449.082-.449.066-.46.05-.466.028-.465.008H17.453l-.465-.008-.465-.027-.457-.05-.46-.067-.442-.082-.445-.102-.43-.113-.426-.133-.422-.144-.406-.168-.41-.18-.39-.2-.387-.21-.38-.22-.366-.237-.36-.254-.347-.262-.336-.277-.325-.29-.312-.304-.305-.313-.293-.328-.277-.336-.262-.347-.254-.356-.238-.37-.227-.38-.21-.386-.188-.391-.184-.399-.168-.414-.144-.421-.137-.422-.117-.438-.094-.441-.086-.446-.058-.449-.051-.46-.031-.466-.008-.464V17.32l.008-.472.03-.457.052-.457.058-.461.086-.442.094-.445.117-.43.137-.426.144-.421.168-.407.184-.41.187-.39.211-.395.227-.371.238-.367.254-.36.262-.347.277-.336.293-.324.305-.313.312-.305.325-.293.336-.277.347-.27.36-.246.367-.238.379-.226.386-.211.391-.196.41-.175.406-.168.422-.145.426-.137.43-.117.445-.094.441-.086.461-.066.457-.043.465-.031.465-.008h340.738l.465.008Zm-333.25 8.86-.465.03-.457.044-.453.062-.45.09-.437.094-.437.117-.426.137-.414.144-.414.168-.402.176-.399.195-.387.211-.378.227-.364.238-.355.246-.348.27-.336.277-.324.29-.313.308-.308.312-.29.324-.276.336-.27.348-.246.355-.238.364-.227.379-.21.386-.188.399-.184.402-.168.414-.145.414-.136.426-.117.438-.094.437-.09.45-.055.452-.05.457-.032.465-.008.465v322.965l.008.465.032.469.05.457.055.449.09.445.094.442.117.437.136.422.145.422.168.414.184.398.187.395.211.383.227.379.238.37.246.356.27.348.277.336.289.328.308.312.313.305.324.29.336.276.348.262.355.254.364.242.378.215.387.211.399.2.402.179.414.168.414.144.426.133.437.113.438.106.45.078.452.067.457.05.465.028.465.007H349.3l.465-.007.468-.028.457-.05.45-.067.453-.078.433-.106.438-.113.422-.133.422-.144.414-.168.398-.18.395-.199.39-.21.371-.216.371-.242.356-.254.348-.262.336-.277.328-.289.312-.305.305-.312.289-.328.277-.336.262-.348.254-.355.242-.371.223-.38.203-.382.199-.395.18-.398.168-.414.144-.422.14-.422.106-.437.106-.442.078-.445.066-.45.051-.456.027-.47.008-.464V26.203l-.008-.465-.027-.465-.05-.457-.067-.453-.078-.449-.211-.875-.14-.426-.145-.414-.168-.414-.18-.402-.2-.399-.202-.386-.223-.38-.242-.363-.254-.355-.262-.348-.277-.336-.29-.324-.304-.312-.312-.309-.329-.289-.335-.277-.348-.27-.356-.246-.37-.238-.372-.227-.39-.21-.395-.196-.398-.176-.414-.168-.422-.144-.422-.137-.438-.117-.433-.094-.453-.09-.45-.062-.457-.043-.468-.032-.465-.007H26.336Zm0 0"/>
  <path d="M127.808 146.256c0 4.761.582 9.054 1.75 12.875 1.164 3.824 2.844 7.117 5.032 9.875a22.31 22.31 0 0 0 8.047 6.359c3.175 1.492 6.816 2.234 10.921 2.234 4.008 0 7.625-.742 10.844-2.234a22.037 22.037 0 0 0 8.11-6.36c2.195-2.757 3.878-6.05 5.046-9.874 1.164-3.82 1.75-8.114 1.75-12.875 0-4.758-.586-9.07-1.75-12.938-1.168-3.875-2.851-7.187-5.046-9.937a22.035 22.035 0 0 0-8.11-6.375c-3.219-1.489-6.836-2.235-10.844-2.235-4.105 0-7.746.774-10.921 2.313a22.906 22.906 0 0 0-8.047 6.437c-2.188 2.75-3.868 6.063-5.032 9.938-1.168 3.867-1.75 8.133-1.75 12.797Zm74.032 0c0 8.304-1.243 15.605-3.72 21.906-2.468 6.293-5.85 11.562-10.14 15.812-4.293 4.243-9.402 7.434-15.328 9.578-5.918 2.145-12.281 3.22-19.094 3.22-6.625 0-12.882-1.075-18.765-3.22-5.875-2.144-11.008-5.335-15.39-9.578-4.376-4.25-7.825-9.52-10.345-15.812-2.523-6.3-3.78-13.602-3.78-21.906 0-8.301 1.3-15.598 3.905-21.891 2.614-6.3 6.133-11.598 10.563-15.89 4.437-4.29 9.57-7.508 15.406-9.657 5.832-2.156 11.969-3.234 18.406-3.234 6.625 0 12.875 1.078 18.75 3.234 5.883 2.149 11.02 5.367 15.407 9.656 4.382 4.293 7.832 9.59 10.343 15.891 2.52 6.293 3.782 13.59 3.782 21.89Zm37.925 33.594c3.832 0 6.539-.376 8.125-1.126 1.582-.75 2.375-2.195 2.375-4.343 0-1.676-1.028-3.145-3.078-4.407-2.055-1.257-5.18-2.68-9.375-4.265-3.262-1.207-6.227-2.461-8.891-3.766-2.656-1.312-4.918-2.879-6.781-4.703-1.868-1.82-3.313-3.988-4.344-6.5-1.024-2.52-1.531-5.555-1.531-9.11 0-6.894 2.562-12.347 7.687-16.359 5.133-4.02 12.18-6.031 21.14-6.031 4.477 0 8.77.398 12.876 1.187 4.101.793 7.367 1.657 9.797 2.594l-3.641 16.235c-2.43-.844-5.062-1.586-7.906-2.235-2.844-.656-6.043-.984-9.594-.984-6.531 0-9.797 1.82-9.797 5.453 0 .844.14 1.594.422 2.25.281.648.836 1.277 1.672 1.89.844.606 1.988 1.258 3.437 1.954 1.446.699 3.29 1.468 5.532 2.312 4.57 1.68 8.347 3.336 11.328 4.969 2.988 1.637 5.347 3.414 7.078 5.328 1.726 1.906 2.941 4.027 3.64 6.36.696 2.335 1.047 5.039 1.047 8.109 0 7.281-2.73 12.789-8.187 16.515-5.461 3.727-13.18 5.594-23.156 5.594-6.532 0-11.97-.562-16.313-1.687-4.336-1.114-7.344-2.04-9.031-2.782l3.5-16.937a69.636 69.636 0 0 0 10.922 3.297 52.964 52.964 0 0 0 11.047 1.187Zm-121.367 71.936c0 1.355.165 2.578.5 3.672.333 1.094.813 2.039 1.438 2.828a6.38 6.38 0 0 0 2.297 1.812c.914.43 1.957.641 3.125.641 1.144 0 2.176-.21 3.094-.64a6.324 6.324 0 0 0 2.328-1.813c.625-.79 1.101-1.734 1.437-2.828.332-1.094.5-2.317.5-3.672 0-1.363-.168-2.598-.5-3.703-.336-1.102-.812-2.047-1.437-2.828a6.323 6.323 0 0 0-2.328-1.828c-.918-.426-1.95-.641-3.094-.641-1.168 0-2.211.219-3.125.656a6.507 6.507 0 0 0-2.297 1.844c-.625.781-1.105 1.73-1.438 2.844-.335 1.105-.5 2.324-.5 3.656Zm21.157 0c0 2.375-.356 4.465-1.063 6.266-.699 1.793-1.664 3.296-2.89 4.515-1.23 1.211-2.696 2.121-4.391 2.735-1.688.613-3.508.921-5.453.921-1.899 0-3.684-.308-5.36-.921a12.411 12.411 0 0 1-4.406-2.735c-1.25-1.219-2.234-2.722-2.953-4.515-.719-1.801-1.078-3.891-1.078-6.266s.367-4.46 1.11-6.266c.75-1.8 1.757-3.312 3.03-4.53a12.53 12.53 0 0 1 4.407-2.767 15.061 15.061 0 0 1 5.25-.921c1.894 0 3.68.308 5.36.921a12.189 12.189 0 0 1 4.405 2.766c1.25 1.219 2.235 2.73 2.954 4.531.718 1.805 1.078 3.891 1.078 6.266Zm10.849 9.594c1.094 0 1.864-.102 2.313-.313.457-.219.687-.633.687-1.25 0-.476-.296-.894-.89-1.25-.586-.363-1.477-.77-2.672-1.219-.938-.351-1.79-.71-2.547-1.078-.762-.375-1.406-.82-1.937-1.343a5.38 5.38 0 0 1-1.235-1.86c-.293-.726-.437-1.597-.437-2.61 0-1.968.726-3.523 2.187-4.671 1.469-1.145 3.485-1.719 6.047-1.719 1.281 0 2.504.117 3.672.344 1.176.219 2.113.465 2.812.734l-1.046 4.641a21.726 21.726 0 0 0-2.266-.64c-.813-.188-1.727-.282-2.734-.282-1.868 0-2.797.524-2.797 1.563 0 .242.035.453.11.64.081.188.241.371.483.547.239.168.567.352.985.547.414.2.941.418 1.578.656 1.312.48 2.395.953 3.25 1.422.852.469 1.523.98 2.016 1.531a4.717 4.717 0 0 1 1.03 1.813c.208.668.313 1.437.313 2.312 0 2.086-.78 3.664-2.343 4.735-1.563 1.062-3.774 1.593-6.625 1.593-1.868 0-3.418-.164-4.657-.484-1.242-.32-2.101-.586-2.578-.797l1-4.844c1.008.407 2.047.727 3.11.954a15.82 15.82 0 0 0 3.171.328Zm24.916-6.875c0-1.926-.25-3.285-.75-4.078-.492-.801-1.336-1.204-2.531-1.204-.375 0-.766.024-1.172.063-.399.043-.778.09-1.14.14v16.235h-5.97v-20.313a37.888 37.888 0 0 1 3.938-.813 27.677 27.677 0 0 1 2.344-.28c.8-.07 1.586-.11 2.36-.11 1.519 0 2.753.196 3.702.578.946.387 1.727.844 2.344 1.375.852-.613 1.832-1.093 2.937-1.437 1.102-.344 2.125-.516 3.063-.516 1.676 0 3.05.235 4.125.703 1.082.461 1.941 1.118 2.578 1.97.645.855 1.086 1.87 1.328 3.046.238 1.168.36 2.477.36 3.922v11.875h-5.954v-11.156c0-1.926-.25-3.285-.75-4.078-.492-.801-1.335-1.204-2.53-1.204-.325 0-.774.086-1.345.25-.574.157-1.046.356-1.421.594a8.97 8.97 0 0 1 .359 1.938c.05.68.078 1.402.078 2.172v11.484h-5.953Zm28.886 11.156h-5.969v-21.047h5.969Zm.547-27.125c0 1.094-.356 1.96-1.063 2.594-.699.625-1.527.937-2.484.937-.969 0-1.809-.312-2.516-.937-.699-.633-1.047-1.5-1.047-2.594 0-1.094.348-1.953 1.047-2.578.707-.625 1.547-.938 2.516-.938.957 0 1.785.313 2.484.938.707.625 1.063 1.484 1.063 2.578Zm23.013 26.406c-1.024.293-2.336.563-3.938.813a31.47 31.47 0 0 1-5.03.39c-1.782 0-3.267-.242-4.454-.718-1.188-.477-2.133-1.149-2.828-2.016-.688-.875-1.184-1.91-1.485-3.11-.293-1.195-.437-2.515-.437-3.953v-11.734h5.969v11c0 1.93.25 3.32.75 4.172.508.855 1.457 1.281 2.843 1.281.426 0 .88-.02 1.36-.062.476-.04.906-.086 1.281-.14v-16.25h5.969Zm17.154-10.437c0-1.926-.25-3.285-.75-4.078-.493-.801-1.337-1.204-2.532-1.204-.375 0-.765.024-1.172.063-.398.043-.777.09-1.14.14v16.235h-5.97v-20.313a37.888 37.888 0 0 1 3.938-.813c.758-.124 1.54-.218 2.344-.28.8-.07 1.586-.11 2.36-.11 1.519 0 2.753.196 3.703.578.945.387 1.726.844 2.343 1.375.852-.613 1.832-1.093 2.938-1.437 1.101-.344 2.125-.516 3.062-.516 1.676 0 3.051.235 4.125.703 1.082.461 1.942 1.118 2.579 1.97.644.855 1.085 1.87 1.328 3.046.238 1.168.359 2.477.359 3.922v11.875h-5.953v-11.156c0-1.926-.25-3.285-.75-4.078-.492-.801-1.336-1.204-2.531-1.204-.325 0-.774.086-1.344.25-.574.157-1.047.356-1.422.594a8.91 8.91 0 0 1 .36 1.938c.05.68.078 1.402.078 2.172v11.484h-5.954Zm-104.983 51.868c.77-.32 1.578-.692 2.422-1.11.843-.414 1.66-.867 2.453-1.359a30.39 30.39 0 0 0 2.297-1.547 15.52 15.52 0 0 0 1.984-1.75h4.172v27.719h-5.969v-19.953a18.49 18.49 0 0 1-2.687 1.453c-.98.437-1.938.82-2.875 1.14Zm31.485 7.077c.613 0 1.254-.054 1.922-.171.664-.125 1.156-.297 1.469-.516v-.359c0-.102.004-.207.015-.313a1.75 1.75 0 0 0 .032-.28 22.022 22.022 0 0 0-.25-2.704c-.125-.844-.352-1.578-.672-2.203a3.775 3.775 0 0 0-1.313-1.469c-.543-.363-1.21-.547-2-.547-.648 0-1.21.137-1.687.407-.48.261-.867.605-1.156 1.03-.293.43-.512.9-.657 1.407-.148.5-.218.992-.218 1.469 0 1.45.347 2.523 1.046 3.219.707.687 1.864 1.03 3.47 1.03Zm2.922 3.876a7.221 7.221 0 0 1-1.875.594c-.68.117-1.258.171-1.734.171-1.73 0-3.211-.207-4.438-.625-1.23-.414-2.242-1.003-3.031-1.765a6.998 6.998 0 0 1-1.734-2.735c-.368-1.062-.547-2.234-.547-3.515 0-1.07.175-2.164.53-3.281a9.002 9.002 0 0 1 1.704-3.063c.77-.914 1.75-1.676 2.938-2.281 1.187-.602 2.617-.906 4.296-.906 3.446 0 6.04 1.062 7.782 3.187 1.75 2.117 2.625 5.164 2.625 9.14 0 2.618-.344 4.923-1.032 6.923-.68 2-1.73 3.683-3.156 5.046-1.418 1.356-3.234 2.387-5.453 3.094-2.21.711-4.836 1.07-7.875 1.094a90.625 90.625 0 0 0-.125-2.469c-.055-.8-.105-1.629-.156-2.484 1.52-.031 2.89-.145 4.11-.344 1.226-.195 2.304-.531 3.234-1a7.477 7.477 0 0 0 2.39-1.86c.656-.769 1.172-1.741 1.547-2.921Zm29.595-2.922c0 4.668-.887 8.25-2.656 10.75-1.774 2.492-4.22 3.734-7.344 3.734-3.117 0-5.563-1.242-7.344-3.734-1.773-2.5-2.656-6.082-2.656-10.75 0-2.32.234-4.375.703-6.156.469-1.79 1.14-3.297 2.016-4.516.882-1.226 1.937-2.16 3.156-2.797 1.226-.644 2.601-.969 4.125-.969 3.125 0 5.57 1.25 7.344 3.75 1.77 2.493 2.656 6.055 2.656 10.688Zm-6.078 0c0-1.383-.07-2.645-.203-3.781-.137-1.133-.352-2.114-.641-2.938-.293-.82-.695-1.457-1.203-1.906-.5-.457-1.125-.688-1.875-.688s-1.371.23-1.86.688c-.492.45-.89 1.086-1.203 1.906-.304.824-.523 1.805-.656 2.938a31.88 31.88 0 0 0-.203 3.781c0 1.387.066 2.652.203 3.797.133 1.148.352 2.137.656 2.969.313.824.711 1.464 1.203 1.921.489.45 1.11.672 1.86.672s1.375-.222 1.875-.672c.508-.457.91-1.097 1.203-1.921.289-.832.504-1.82.64-2.97.133-1.144.204-2.41.204-3.796Zm16.079 10.766c0 1.199-.383 2.109-1.14 2.734-.762.625-1.622.937-2.579.937-.96 0-1.82-.312-2.578-.937-.762-.625-1.14-1.535-1.14-2.734 0-1.196.378-2.11 1.14-2.735.758-.633 1.617-.953 2.578-.953.957 0 1.817.32 2.578.953.758.625 1.14 1.54 1.14 2.735Zm21.043-17.282a7.27 7.27 0 0 1-.61 2.922 13.5 13.5 0 0 1-1.562 2.703c-.637.868-1.355 1.7-2.156 2.5a122.18 122.18 0 0 1-2.36 2.266c-.398.375-.828.797-1.296 1.266a34.866 34.866 0 0 0-2.485 2.765c-.336.406-.539.746-.61 1.016h11.923v5h-18.485a6.209 6.209 0 0 1-.078-1.11v-.968c0-1.282.203-2.453.61-3.516.414-1.07.957-2.066 1.625-2.984a19.415 19.415 0 0 1 2.25-2.578c.843-.801 1.68-1.602 2.515-2.407.633-.613 1.235-1.191 1.797-1.734a20.189 20.189 0 0 0 1.484-1.61 7.557 7.557 0 0 0 1-1.546c.239-.52.36-1.051.36-1.594 0-1.164-.336-1.988-1-2.469-.668-.476-1.496-.719-2.485-.719a6 6 0 0 0-2.03.344 9.31 9.31 0 0 0-1.72.797c-.511.305-.953.61-1.328.922a11.83 11.83 0 0 0-.843.734l-2.954-4.156c1.165-1.094 2.532-1.992 4.094-2.703a12.025 12.025 0 0 1 5.016-1.063c1.625 0 3.023.188 4.203.563 1.176.375 2.145.902 2.906 1.578a6.077 6.077 0 0 1 1.672 2.484c.363.97.547 2.07.547 3.297ZM43.188 76.25c.156-1.945.484-3.973.984-6.078a59.072 59.072 0 0 1 1.86-6.187 53.583 53.583 0 0 1 2.468-5.75c.906-1.801 1.828-3.36 2.766-4.672H39.219v-5.078h19.406v4.328c-.855.93-1.797 2.218-2.828 3.875-1.024 1.656-1.996 3.53-2.922 5.625a53.19 53.19 0 0 0-2.406 6.75 34.54 34.54 0 0 0-1.25 7.187ZM71.17 63.203c-.585 0-1.21.059-1.874.172-.668.106-1.188.25-1.563.438 0 .105-.007.265-.015.484-.012.211-.016.39-.016.547 0 .969.063 1.883.188 2.734.132.844.363 1.59.687 2.235.32.636.75 1.136 1.281 1.5.532.355 1.196.53 2 .53.664 0 1.235-.132 1.703-.405a3.772 3.772 0 0 0 1.157-1.063c.3-.426.523-.898.672-1.422.156-.52.234-1.02.234-1.5 0-1.363-.344-2.41-1.031-3.14-.68-.739-1.82-1.11-3.422-1.11Zm.766-4.64c1.727 0 3.196.234 4.407.703 1.218.469 2.21 1.105 2.984 1.906a7.1 7.1 0 0 1 1.688 2.797c.343 1.062.515 2.2.515 3.406 0 1.063-.195 2.156-.578 3.281a9.123 9.123 0 0 1-1.766 3.032c-.78.906-1.78 1.656-3 2.25-1.21.582-2.636.875-4.28.875-3.337 0-5.872-1.051-7.61-3.157-1.73-2.113-2.594-5.02-2.594-8.718 0-2.664.41-5.024 1.234-7.078.82-2.063 2-3.79 3.532-5.188 1.539-1.406 3.394-2.473 5.562-3.203 2.176-.727 4.625-1.11 7.344-1.14.05.823.102 1.632.156 2.421.063.793.117 1.61.172 2.453a23.24 23.24 0 0 0-3.828.39 13.06 13.06 0 0 0-3.25 1.063 8.92 8.92 0 0 0-2.531 1.86c-.719.761-1.278 1.687-1.672 2.781a7.104 7.104 0 0 1 1.797-.562 9.516 9.516 0 0 1 1.718-.172Zm0 0"/>
</svg>
