<svg xmlns="http://www.w3.org/2000/svg" version="1.2" viewBox="0 0 375 375">
  <path d="m359.121 5.996.461.043.45.066.448.086.438.094.437.117.422.137.422.145.414.168.399.175.39.196.395.21.371.227.371.238.356.247.347.27.336.276.328.29.313.308.304.313.29.324.277.336.262.347.253.36.239.367.226.371.203.395.2.39.18.41.167.407.145.421.137.426.109.43.101.445.083.442.066.46.05.458.028.457.008.472v340.74l-.008.464-.027.465-.051.461-.066.45-.082.445-.102.441-.11.438-.136.422-.145.421-.168.414-.18.399-.199.39-.203.387-.226.38-.239.37-.253.356-.262.347-.277.336-.29.328-.304.313-.313.305-.328.289-.336.277-.347.262-.356.254-.371.238-.371.219-.395.21-.39.2-.399.18-.414.168-.422.144-.422.133-.437.113-.438.102-.449.082-.449.066-.46.05-.466.028-.465.008H17.453l-.465-.008-.465-.027-.457-.05-.46-.067-.442-.082-.445-.102-.43-.113-.426-.133-.422-.144-.406-.168-.41-.18-.39-.2-.387-.21-.38-.22-.366-.237-.36-.254-.347-.262-.336-.277-.325-.29-.312-.304-.305-.313-.293-.328-.277-.336-.262-.347-.254-.356-.238-.37-.227-.38-.21-.386-.188-.391-.184-.399-.168-.414-.144-.421-.137-.422-.117-.438-.094-.441-.086-.446-.058-.449-.051-.46-.031-.466-.008-.464V17.32l.008-.472.03-.457.052-.457.058-.461.086-.442.094-.445.117-.43.137-.426.144-.421.168-.407.184-.41.187-.39.211-.395.227-.371.238-.367.254-.36.262-.347.277-.336.293-.324.305-.313.312-.305.325-.293.336-.277.347-.27.36-.246.367-.238.379-.226.386-.211.391-.196.41-.175.406-.168.422-.145.426-.137.43-.117.445-.094.441-.086.461-.066.457-.043.465-.031.465-.008h340.738l.465.008Zm-333.25 8.86-.465.03-.457.044-.453.062-.45.09-.437.094-.437.117-.426.137-.414.144-.414.168-.402.176-.399.195-.387.211-.378.227-.364.238-.355.246-.348.27-.336.277-.324.29-.313.308-.308.312-.29.324-.276.336-.27.348-.246.355-.238.364-.227.379-.21.386-.188.399-.184.402-.168.414-.145.414-.136.426-.117.438-.094.437-.09.45-.055.452-.05.457-.032.465-.008.465v322.965l.008.465.032.469.05.457.055.449.09.445.094.442.117.437.136.422.145.422.168.414.184.398.187.395.211.383.227.379.238.37.246.356.27.348.277.336.289.328.308.312.313.305.324.29.336.276.348.262.355.254.364.242.378.215.387.211.399.2.402.179.414.168.414.144.426.133.437.113.438.106.45.078.452.067.457.05.465.028.465.007H349.3l.465-.007.468-.028.457-.05.45-.067.453-.078.433-.106.438-.113.422-.133.422-.144.414-.168.398-.18.395-.199.39-.21.371-.216.371-.242.356-.254.348-.262.336-.277.328-.289.312-.305.305-.312.289-.328.277-.336.262-.348.254-.355.242-.371.223-.38.203-.382.199-.395.18-.398.168-.414.144-.422.14-.422.106-.437.106-.442.078-.445.066-.45.051-.456.027-.47.008-.464V26.203l-.008-.465-.027-.465-.05-.457-.067-.453-.078-.449-.211-.875-.14-.426-.145-.414-.168-.414-.18-.402-.2-.399-.202-.386-.223-.38-.242-.363-.254-.355-.262-.348-.277-.336-.29-.324-.304-.312-.312-.309-.329-.289-.335-.277-.348-.27-.356-.246-.37-.238-.372-.227-.39-.21-.395-.196-.398-.176-.414-.168-.422-.144-.422-.137-.438-.117-.433-.094-.453-.09-.45-.062-.457-.043-.468-.032-.465-.007H26.336Zm0 0"/>
  <path d="M151.676 96.708c14.457 0 25.555 2.543 33.297 7.625 7.75 5.086 11.625 13.414 11.625 24.985 0 11.668-3.922 20.09-11.766 25.265-7.836 5.18-19.027 7.766-33.578 7.766h-6.86v32.469h-21.827V99.224c4.75-.926 9.78-1.578 15.093-1.953 5.32-.375 9.993-.563 14.016-.563Zm1.39 18.61a77.71 77.71 0 0 0-4.687.14 174.64 174.64 0 0 0-3.984.282v28h6.86c7.55 0 13.237-1.024 17.062-3.079 3.832-2.05 5.75-5.879 5.75-11.484 0-2.707-.493-4.945-1.47-6.719-.98-1.77-2.382-3.191-4.202-4.265-1.824-1.07-4.043-1.817-6.657-2.235-2.605-.426-5.496-.64-8.671-.64Zm57.524-12.453 20.859-3.36v21.703h25.046v17.344H231.45v25.89c0 4.387.765 7.887 2.296 10.5 1.54 2.618 4.645 3.923 9.313 3.923 2.238 0 4.547-.208 6.922-.625 2.383-.426 4.555-1.008 6.515-1.75l2.938 16.234c-2.523 1.023-5.324 1.902-8.406 2.64-3.075.75-6.852 1.126-11.328 1.126-5.688 0-10.403-.766-14.141-2.297-3.73-1.54-6.715-3.688-8.953-6.438-2.242-2.758-3.805-6.098-4.688-10.015-.886-3.915-1.328-8.254-1.328-13.016Zm-97.294 134.749c4.133 0 7.304.73 9.515 2.187 2.22 1.45 3.328 3.829 3.328 7.141 0 3.336-1.12 5.742-3.359 7.219-2.242 1.48-5.437 2.219-9.594 2.219h-1.968v9.28h-6.235v-27.312c1.352-.27 2.79-.457 4.313-.562a54.691 54.691 0 0 1 4-.172Zm.406 5.328c-.46 0-.906.016-1.344.047a27.1 27.1 0 0 0-1.14.078v8h1.968c2.157 0 3.782-.289 4.875-.875 1.094-.594 1.641-1.691 1.641-3.297 0-.77-.14-1.406-.422-1.906a3.189 3.189 0 0 0-1.203-1.219c-.523-.312-1.156-.523-1.906-.64a14.9 14.9 0 0 0-2.469-.188Zm25.041 23.125c-1.742-.031-3.152-.219-4.234-.562-1.075-.352-1.922-.844-2.547-1.47a4.836 4.836 0 0 1-1.281-2.265c-.23-.894-.344-1.906-.344-3.031v-23.156l5.969-.97v22.923c0 .543.035 1.027.109 1.453.082.418.238.777.469 1.078.226.293.55.531.968.719.426.187 1.004.308 1.735.36Zm12.281-4.562c.582 0 1.14-.008 1.671-.032.532-.031.957-.07 1.282-.125v-4.531c-.242-.05-.602-.102-1.078-.156a12.55 12.55 0 0 0-1.313-.078c-.562 0-1.094.039-1.594.109a4.001 4.001 0 0 0-1.297.375 2.307 2.307 0 0 0-.89.766c-.211.312-.313.71-.313 1.187 0 .938.313 1.59.938 1.953.633.356 1.5.532 2.594.532Zm-.485-17.438c1.758 0 3.223.2 4.39.594 1.177.398 2.118.969 2.829 1.719.707.75 1.207 1.664 1.5 2.734.289 1.062.437 2.246.437 3.547v12.406c-.855.188-2.043.406-3.562.656-1.512.25-3.352.375-5.516.375-1.355 0-2.59-.12-3.703-.36-1.105-.237-2.058-.628-2.86-1.171a5.485 5.485 0 0 1-1.827-2.14c-.43-.883-.64-1.97-.64-3.25 0-1.22.241-2.255.733-3.11a5.718 5.718 0 0 1 1.97-2.047c.831-.508 1.78-.875 2.843-1.094a16.03 16.03 0 0 1 3.328-.343c.77 0 1.453.039 2.047.109a9.568 9.568 0 0 1 1.469.25v-.562c0-1.008-.309-1.82-.922-2.438-.617-.613-1.68-.922-3.188-.922a20.8 20.8 0 0 0-3.015.219c-.98.148-1.828.355-2.547.625l-.766-4.797a14.07 14.07 0 0 1 1.297-.344 20.53 20.53 0 0 1 1.703-.328 32.544 32.544 0 0 1 1.938-.234 22.387 22.387 0 0 1 2.062-.094Zm14.354-4.687 5.97-.954v6.188h7.155v4.969h-7.156v7.39c0 1.262.219 2.266.656 3.016.438.742 1.32 1.11 2.657 1.11.644 0 1.304-.055 1.984-.173a11.011 11.011 0 0 0 1.86-.5l.843 4.641a16.18 16.18 0 0 1-2.406.75c-.875.219-1.953.328-3.234.328-1.625 0-2.977-.219-4.047-.656-1.063-.445-1.918-1.063-2.563-1.844-.637-.789-1.086-1.742-1.344-2.86-.25-1.124-.375-2.363-.375-3.718Zm23.932 26.28h-5.969v-21.046h5.97Zm.547-27.124c0 1.094-.355 1.96-1.063 2.594-.699.625-1.527.937-2.484.937-.969 0-1.808-.312-2.516-.937-.699-.633-1.046-1.5-1.046-2.594 0-1.094.347-1.953 1.046-2.578.708-.625 1.547-.938 2.516-.938.957 0 1.785.313 2.484.938.708.625 1.063 1.484 1.063 2.578Zm5.044 6.812c1.008-.3 2.317-.578 3.922-.828a32.722 32.722 0 0 1 5.047-.375c1.781 0 3.266.235 4.453.703 1.188.461 2.125 1.117 2.813 1.969.695.855 1.191 1.871 1.484 3.047.29 1.168.438 2.476.438 3.922v11.875h-5.954v-11.156c0-1.926-.257-3.286-.765-4.079-.5-.8-1.446-1.203-2.828-1.203-.43 0-.887.024-1.375.063-.48.043-.903.09-1.266.14v16.235h-5.969Zm41.529 19.594c-1.024.293-2.336.563-3.938.813-1.593.257-3.273.39-5.03.39-1.782 0-3.267-.242-4.454-.719-1.188-.476-2.133-1.148-2.828-2.015-.688-.875-1.184-1.91-1.485-3.11-.293-1.195-.437-2.515-.437-3.953v-11.734h5.969v11c0 1.93.25 3.32.75 4.172.508.855 1.457 1.281 2.843 1.281.426 0 .88-.02 1.36-.062.476-.04.906-.086 1.281-.141v-16.25h5.969Zm17.153-10.437c0-1.926-.25-3.286-.75-4.079-.492-.8-1.336-1.203-2.53-1.203-.376 0-.766.024-1.173.063-.398.043-.777.09-1.14.14v16.235h-5.97v-20.313a37.888 37.888 0 0 1 3.938-.813c.758-.124 1.54-.218 2.344-.28.8-.07 1.586-.11 2.36-.11 1.52 0 2.753.195 3.703.578.945.387 1.726.844 2.343 1.375.852-.613 1.832-1.093 2.938-1.437 1.101-.344 2.125-.516 3.062-.516 1.676 0 3.051.235 4.125.703 1.082.461 1.942 1.117 2.579 1.969.644.855 1.085 1.871 1.328 3.047.238 1.168.359 2.476.359 3.922v11.875h-5.953v-11.156c0-1.926-.25-3.286-.75-4.079-.492-.8-1.336-1.203-2.531-1.203-.325 0-.774.086-1.344.25-.574.157-1.047.356-1.422.594.188.605.305 1.25.36 1.938.05.68.078 1.402.078 2.171v11.485h-5.954Zm-113.161 51.867c.77-.32 1.578-.69 2.422-1.109.843-.414 1.66-.867 2.453-1.36a30.38 30.38 0 0 0 2.297-1.546 15.52 15.52 0 0 0 1.984-1.75h4.172v27.719h-5.969v-19.954c-.805.532-1.7 1.016-2.687 1.454-.98.437-1.938.82-2.875 1.14Zm31.485 7.078c.613 0 1.254-.054 1.922-.171.664-.125 1.156-.297 1.469-.516v-.36c0-.1.004-.206.015-.312a1.75 1.75 0 0 0 .032-.281 22.022 22.022 0 0 0-.25-2.703c-.125-.844-.352-1.578-.672-2.203a3.775 3.775 0 0 0-1.313-1.469c-.543-.363-1.21-.547-2-.547-.648 0-1.21.137-1.687.406-.48.262-.867.606-1.156 1.032-.293.43-.512.898-.657 1.406-.148.5-.218.992-.218 1.469 0 1.449.347 2.523 1.046 3.218.707.688 1.864 1.032 3.47 1.032Zm2.922 3.876a7.221 7.221 0 0 1-1.875.593c-.68.118-1.258.172-1.734.172-1.73 0-3.211-.207-4.438-.625-1.23-.414-2.242-1.004-3.031-1.765a6.998 6.998 0 0 1-1.734-2.735c-.368-1.062-.547-2.234-.547-3.515 0-1.07.175-2.164.53-3.282a9.002 9.002 0 0 1 1.704-3.062c.77-.914 1.75-1.676 2.938-2.281 1.187-.602 2.617-.907 4.296-.907 3.446 0 6.04 1.063 7.782 3.188 1.75 2.117 2.625 5.164 2.625 9.14 0 2.618-.344 4.922-1.032 6.922-.68 2-1.73 3.684-3.156 5.047-1.418 1.356-3.234 2.387-5.453 3.094-2.21.71-4.836 1.07-7.875 1.094a90.625 90.625 0 0 0-.125-2.469c-.055-.8-.105-1.629-.156-2.484 1.52-.032 2.89-.145 4.11-.344 1.226-.195 2.304-.531 3.234-1a7.477 7.477 0 0 0 2.39-1.86c.656-.77 1.172-1.742 1.547-2.921Zm22.642 2.844c0-.77-.18-1.458-.532-2.063-.343-.602-.945-1.102-1.796-1.5-.856-.395-2-.695-3.438-.906-1.437-.22-3.25-.329-5.437-.329.289-2.488.53-5.007.718-7.562.188-2.563.332-4.961.438-7.203h15v5h-10c-.055.96-.117 1.887-.188 2.781a44.09 44.09 0 0 1-.218 2.344c3.894.262 6.77 1.172 8.625 2.734 1.851 1.563 2.78 3.73 2.78 6.5 0 1.281-.23 2.469-.687 3.563a7.61 7.61 0 0 1-2.03 2.843c-.907.793-2.048 1.418-3.423 1.875-1.375.446-2.98.672-4.812.672-.73 0-1.492-.047-2.282-.14a29.875 29.875 0 0 1-2.265-.36c-.73-.144-1.39-.297-1.985-.453-.585-.156-1.039-.316-1.359-.484l1.078-4.922c.664.305 1.547.594 2.64.875 1.095.273 2.4.406 3.923.406 1.843 0 3.176-.363 4-1.094.832-.738 1.25-1.597 1.25-2.578Zm16.954 5c0 1.199-.383 2.109-1.14 2.734-.762.625-1.622.937-2.579.937-.96 0-1.82-.312-2.578-.937-.762-.625-1.14-1.535-1.14-2.735 0-1.195.378-2.109 1.14-2.734.758-.633 1.617-.953 2.578-.953.957 0 1.817.32 2.578.953.758.625 1.14 1.539 1.14 2.734Zm3.996-18.798c.77-.32 1.578-.69 2.422-1.109.844-.414 1.66-.867 2.453-1.36a30.18 30.18 0 0 0 2.297-1.546 15.52 15.52 0 0 0 1.984-1.75h4.172v27.719h-5.969v-19.954a18.293 18.293 0 0 1-2.687 1.454c-.98.437-1.938.82-2.875 1.14ZM43.188 76.25c.156-1.945.484-3.973.984-6.078a59.072 59.072 0 0 1 1.86-6.188 53.583 53.583 0 0 1 2.468-5.75c.906-1.8 1.828-3.36 2.766-4.672H39.219v-5.078h19.406v4.328c-.855.93-1.797 2.22-2.828 3.875-1.024 1.657-1.996 3.532-2.922 5.625a53.19 53.19 0 0 0-2.406 6.75 34.54 34.54 0 0 0-1.25 7.188Zm38.232-7.719c0 1.2-.21 2.297-.624 3.297a7.383 7.383 0 0 1-1.86 2.625c-.824.742-1.855 1.32-3.093 1.734-1.242.414-2.68.625-4.313.625-1.867 0-3.418-.261-4.656-.78-1.242-.52-2.242-1.165-3-1.938-.762-.77-1.305-1.614-1.625-2.532-.313-.925-.469-1.773-.469-2.546 0-.801.102-1.536.313-2.204A7.28 7.28 0 0 1 62.968 65c.375-.55.797-1.05 1.265-1.5.47-.457.97-.89 1.5-1.297-1.148-.926-1.996-1.844-2.547-2.75-.542-.906-.812-2.066-.812-3.484 0-1.063.219-2.086.656-3.078a7.863 7.863 0 0 1 1.86-2.579c.8-.738 1.77-1.328 2.906-1.765 1.133-.438 2.394-.656 3.781-.656 1.625 0 3.016.234 4.172.703 1.164.468 2.117 1.062 2.86 1.78.75.72 1.288 1.528 1.624 2.423.332.887.5 1.773.5 2.656 0 1.281-.34 2.477-1.015 3.578-.68 1.106-1.528 1.98-2.547 2.625 1.52.98 2.61 2.012 3.265 3.094.657 1.086.985 2.344.985 3.781Zm-13.843.235c0 .324.07.68.219 1.062.144.387.379.742.703 1.063.32.324.734.593 1.234.812.508.211 1.125.313 1.844.313 1.383 0 2.395-.332 3.031-1 .645-.665.97-1.415.97-2.25a3.19 3.19 0 0 0-.423-1.641 4.266 4.266 0 0 0-1.14-1.25 8.103 8.103 0 0 0-1.704-.969 23.084 23.084 0 0 0-2.093-.781 8.21 8.21 0 0 0-1.89 1.969c-.5.742-.75 1.632-.75 2.672Zm7.406-13.157a2.7 2.7 0 0 0-.187-.937 2.6 2.6 0 0 0-.594-.938A3.586 3.586 0 0 0 73.14 53c-.43-.207-.95-.313-1.563-.313-.586 0-1.09.094-1.516.282-.43.187-.78.437-1.062.75a3.06 3.06 0 0 0-.625.968c-.137.344-.203.68-.203 1 0 .856.312 1.657.937 2.407.633.742 1.711 1.382 3.235 1.922.851-.54 1.504-1.157 1.953-1.844.457-.696.687-1.551.687-2.563Zm0 0"/>
</svg>
