<svg xmlns="http://www.w3.org/2000/svg" version="1.2" viewBox="0 0 375 375">
  <path d="m359.121 5.996.461.043.45.066.448.086.438.094.437.117.422.137.422.149.414.164.399.175.39.196.395.21.371.227.371.238.356.25.347.266.336.277.328.293.313.305.304.313.29.324.277.336.262.347.253.36.239.367.226.371.203.395.2.39.18.41.167.407.145.421.137.43.109.426.101.445.083.442.066.46.05.458.028.457.008.472v340.74l-.008.464-.027.465-.051.461-.066.45-.082.445-.102.441-.11.438-.136.422-.145.421-.168.414-.18.399-.199.394-.203.383-.226.38-.239.37-.253.356-.262.347-.277.336-.29.328-.304.313-.313.305-.328.289-.336.277-.347.262-.356.254-.371.242-.371.215-.395.21-.39.2-.399.18-.414.168-.422.144-.422.133-.437.113-.438.102-.449.082-.449.066-.46.05-.466.028-.465.008H17.453l-.465-.008-.465-.027-.457-.05-.46-.067-.442-.082-.445-.102-.43-.113-.426-.133-.422-.144-.406-.168-.41-.18-.39-.2-.387-.21-.38-.215-.366-.242-.36-.254-.347-.262-.336-.277-.325-.29-.312-.304-.305-.313-.293-.328-.277-.336-.262-.347-.254-.356-.238-.37-.227-.38-.21-.383-.188-.394-.184-.399-.168-.414-.144-.421-.137-.422-.117-.438-.094-.441-.086-.446-.058-.449-.051-.46-.031-.466-.008-.464V17.32l.008-.472.03-.457.052-.457.058-.461.086-.442.094-.445.117-.426.137-.43.144-.421.168-.407.184-.41.187-.39.211-.395.227-.371.238-.367.254-.36.262-.347.277-.336.293-.324.305-.313.312-.305.325-.293.336-.277.347-.266.36-.25.367-.238.379-.226.386-.211.391-.196.41-.175.406-.165.422-.148.426-.137.43-.117.445-.094.441-.086.461-.066.457-.043.465-.031.465-.008h340.738l.465.008Zm-333.25 8.86-.465.03-.457.044-.453.066-.45.086-.437.094-.437.117-.426.137-.414.144-.414.168-.402.176-.399.195-.387.211-.378.227-.364.238-.355.246-.348.27-.336.277-.324.29-.313.308-.308.312-.29.324-.276.336-.27.348-.246.355-.238.364-.227.379-.21.386-.188.399-.184.402-.168.414-.145.414-.136.43-.117.434-.094.437-.09.45-.055.452-.05.457-.032.465-.008.465v322.965l.008.469.032.465.05.457.055.449.09.445.094.442.117.437.136.422.145.422.168.414.184.398.187.395.211.383.227.379.238.37.246.356.27.348.277.336.289.328.308.312.313.305.324.29.336.276.348.262.355.254.364.242.378.215.387.211.399.2.402.179.414.168.414.144.426.133.437.117.438.102.45.078.452.067.457.05.465.028.465.007H349.3l.465-.007.468-.028.457-.05.45-.067.453-.078.433-.102.438-.117.422-.133.422-.144.414-.168.398-.18.395-.199.39-.21.371-.216.371-.242.356-.254.348-.262.336-.277.328-.289.312-.305.305-.312.289-.328.277-.336.262-.348.254-.355.242-.371.223-.38.203-.382.199-.395.18-.398.168-.414.144-.422.14-.422.106-.437.106-.442.078-.445.066-.45.051-.456.027-.465.008-.469V26.203l-.008-.465-.027-.465-.05-.457-.067-.453-.078-.449-.106-.437-.105-.434-.14-.43-.145-.414-.168-.414-.18-.402-.2-.399-.202-.386-.223-.38-.242-.363-.254-.355-.262-.348-.277-.336-.29-.324-.304-.312-.312-.309-.329-.289-.335-.277-.348-.27-.356-.246-.37-.238-.372-.227-.39-.21-.395-.196-.398-.176-.414-.168-.422-.144-.422-.137-.438-.117-.433-.094-.453-.086-.45-.066-.457-.043-.468-.032-.465-.007H26.336Zm0 0"/>
  <path d="M164.271 97.834H186.1v96.984h-21.828v-41.14H127.6v41.14h-21.828V97.834H127.6v37.078h36.672Zm60.603 57.796c0 11.668 4.707 17.5 14.125 17.5 2.145 0 4.149-.28 6.016-.843 1.863-.563 3.453-1.211 4.766-1.953V137.02a45.544 45.544 0 0 0-3.641-.484c-1.398-.145-3.031-.22-4.906-.22-5.5 0-9.606 1.825-12.313 5.47-2.699 3.636-4.047 8.25-4.047 13.843Zm45.75 29.954c0 12.03-3.058 20.96-9.172 26.796-6.105 5.832-15.546 8.75-28.328 8.75-4.48 0-8.96-.398-13.437-1.187-4.48-.793-8.633-1.844-12.453-3.156l3.64-17.485a60.88 60.88 0 0 0 10.282 3.063c3.593.75 7.675 1.125 12.25 1.125 5.968 0 10.187-1.309 12.656-3.922 2.476-2.606 3.719-5.957 3.719-10.063v-2.671a33.786 33.786 0 0 1-6.938 2.328c-2.375.511-4.965.765-7.766.765-10.167 0-17.96-3.008-23.375-9.031-5.406-6.02-8.109-14.441-8.109-25.266 0-5.406.836-10.32 2.516-14.75 1.687-4.437 4.14-8.238 7.36-11.406 3.218-3.176 7.155-5.629 11.812-7.36 4.664-1.726 9.941-2.593 15.828-2.593 2.508 0 5.093.121 7.75.36 2.664.23 5.304.53 7.922.906a111.6 111.6 0 0 1 7.484 1.328c2.375.511 4.492 1.047 6.36 1.61Zm-151.781 52.358a73.619 73.619 0 0 1 1.656 3.266 174.677 174.677 0 0 1 1.953 4.203c.688 1.5 1.364 3.04 2.032 4.61.664 1.574 1.289 3.054 1.875 4.437.582-1.383 1.207-2.863 1.875-4.438.664-1.57 1.336-3.109 2.015-4.609a209.95 209.95 0 0 1 1.969-4.203c.625-1.3 1.176-2.39 1.656-3.266h5.688c.27 1.844.515 3.906.734 6.188a227.2 227.2 0 0 1 .594 7.11c.176 2.468.336 4.944.484 7.421.145 2.48.274 4.812.39 7h-6.077a882.442 882.442 0 0 0-.328-8.797 262.994 262.994 0 0 0-.594-9.61 565.372 565.372 0 0 1-1.61 3.735 375.455 375.455 0 0 0-1.734 4.078 935.85 935.85 0 0 1-1.656 3.89 1446.06 1446.06 0 0 0-1.36 3.188h-4.359c-.375-.882-.836-1.945-1.375-3.187a598.152 598.152 0 0 1-1.656-3.89 638.909 638.909 0 0 0-1.734-4.079 775.848 775.848 0 0 1-1.594-3.734 225.79 225.79 0 0 0-.61 9.61 520.041 520.041 0 0 0-.312 8.796h-6.078c.101-2.188.226-4.52.375-7 .144-2.477.3-4.953.469-7.422.175-2.469.378-4.836.609-7.11.226-2.28.473-4.343.734-6.187Zm27.114 17.36c0-1.864.285-3.493.86-4.891.57-1.406 1.32-2.57 2.25-3.5a9.42 9.42 0 0 1 3.218-2.125 10.218 10.218 0 0 1 3.75-.719c2.989 0 5.348.914 7.078 2.735 1.739 1.824 2.61 4.511 2.61 8.062 0 .344-.016.727-.047 1.14-.024.407-.047.774-.078 1.094h-13.516c.133 1.231.707 2.204 1.719 2.922 1.008.72 2.367 1.078 4.078 1.078 1.094 0 2.164-.097 3.219-.296 1.05-.196 1.91-.442 2.578-.735l.797 4.828c-.313.168-.742.328-1.282.485-.53.156-1.125.289-1.78.406-.65.125-1.345.227-2.095.312a20.29 20.29 0 0 1-2.234.125c-1.898 0-3.547-.28-4.953-.843-1.398-.563-2.555-1.328-3.469-2.297a9.279 9.279 0 0 1-2.047-3.469c-.437-1.332-.656-2.77-.656-4.312Zm14-2.282a5.617 5.617 0 0 0-.266-1.484 3.573 3.573 0 0 0-1.828-2.188c-.468-.25-1.054-.375-1.75-.375-.668 0-1.242.118-1.718.344-.48.23-.883.531-1.204.906a4.268 4.268 0 0 0-.734 1.297 9.159 9.159 0 0 0-.375 1.5Zm23.047-3.125a68.408 68.408 0 0 0-1.89-.406 10.891 10.891 0 0 0-2.313-.234c-.375 0-.824.039-1.343.11-.524.062-.915.136-1.172.218v16.078h-5.97v-19.922c1.071-.375 2.333-.726 3.782-1.062 1.457-.332 3.078-.5 4.86-.5.32 0 .707.023 1.156.062.457.043.91.102 1.36.172.456.062.91.14 1.359.234.457.094.847.203 1.171.328Zm3.193 5.25c0-1.52.242-2.953.734-4.297.5-1.351 1.211-2.53 2.14-3.53.938-1 2.071-1.79 3.407-2.376 1.332-.582 2.852-.875 4.563-.875 1.113 0 2.14.102 3.078.297.937.2 1.843.484 2.718.86l-1.234 4.75a15.636 15.636 0 0 0-1.844-.547 9.377 9.377 0 0 0-2.234-.25c-1.762 0-3.078.546-3.953 1.64-.867 1.094-1.297 2.54-1.297 4.328 0 1.887.406 3.352 1.219 4.391.812 1.043 2.234 1.562 4.265 1.562.719 0 1.489-.062 2.313-.187a9.187 9.187 0 0 0 2.281-.656l.844 4.89c-.688.293-1.555.54-2.594.75-1.043.22-2.187.328-3.437.328-1.93 0-3.586-.289-4.97-.859-1.386-.57-2.527-1.351-3.421-2.344-.887-.988-1.54-2.156-1.953-3.5-.418-1.343-.625-2.8-.625-4.375Zm38.968 9.797c-1.023.293-2.336.563-3.937.813-1.594.258-3.274.39-5.031.39-1.782 0-3.266-.242-4.454-.718-1.187-.477-2.132-1.149-2.828-2.016-.687-.875-1.183-1.91-1.484-3.11-.293-1.195-.438-2.515-.438-3.953v-11.734h5.97v11c0 1.93.25 3.32.75 4.172.507.855 1.456 1.281 2.843 1.281.426 0 .879-.02 1.36-.062.476-.04.906-.086 1.28-.14v-16.25h5.97Zm18.279-15.047a68.408 68.408 0 0 0-1.89-.406 10.891 10.891 0 0 0-2.313-.234c-.375 0-.824.039-1.344.11-.523.062-.914.136-1.172.218v16.078h-5.969v-19.922c1.07-.375 2.332-.726 3.782-1.062 1.457-.332 3.078-.5 4.859-.5.32 0 .707.023 1.156.062.457.043.91.102 1.36.172.457.062.91.14 1.359.234.457.094.848.203 1.172.328Zm22.88-5.281a179.936 179.936 0 0 1-3.766 11.422 134.912 134.912 0 0 1-4.281 10.312c-.563 1.196-1.125 2.211-1.688 3.047-.554.844-1.164 1.536-1.828 2.078a6.367 6.367 0 0 1-2.265 1.204c-.836.257-1.813.39-2.938.39-.937 0-1.805-.09-2.594-.265-.78-.18-1.421-.371-1.921-.579l1.03-4.765a9.086 9.086 0 0 0 3.173.562c1.062 0 1.879-.289 2.453-.859.57-.574 1.054-1.367 1.453-2.375-1.356-2.664-2.715-5.66-4.078-8.984-1.356-3.32-2.633-7.051-3.828-11.188h6.312c.27 1.043.582 2.172.938 3.39.363 1.212.742 2.434 1.14 3.673.407 1.242.813 2.449 1.219 3.625.414 1.18.813 2.246 1.188 3.203a93.82 93.82 0 0 0 1.078-3.203 126.15 126.15 0 0 0 1.093-3.625c.364-1.239.711-2.461 1.047-3.672.332-1.219.63-2.348.89-3.39Zm-109.34 63.274a7.27 7.27 0 0 1-.61 2.922c-.398.93-.918 1.828-1.562 2.703-.637.868-1.356 1.7-2.157 2.5a122.18 122.18 0 0 1-2.359 2.266c-.398.375-.828.797-1.297 1.266a34.866 34.866 0 0 0-2.484 2.765c-.336.406-.54.746-.61 1.016h11.922v5h-18.484a6.209 6.209 0 0 1-.078-1.11v-.968c0-1.282.203-2.453.61-3.516.413-1.07.956-2.066 1.624-2.984a19.415 19.415 0 0 1 2.25-2.578c.844-.801 1.68-1.602 2.516-2.407.633-.613 1.234-1.191 1.797-1.734a20.189 20.189 0 0 0 1.484-1.61 7.557 7.557 0 0 0 1-1.546c.238-.52.36-1.051.36-1.594 0-1.164-.336-1.988-1-2.469-.669-.476-1.497-.719-2.485-.719-.719 0-1.398.118-2.031.344a9.3 9.3 0 0 0-1.719.797c-.512.305-.953.61-1.328.922-.375.305-.656.547-.844.734l-2.953-4.156c1.164-1.094 2.531-1.992 4.094-2.703a12.025 12.025 0 0 1 5.015-1.063c1.625 0 3.024.188 4.204.563 1.175.375 2.144.902 2.906 1.578a6.077 6.077 0 0 1 1.672 2.484c.363.97.547 2.07.547 3.297Zm24.235 6.516c0 4.668-.887 8.25-2.656 10.75-1.774 2.492-4.219 3.734-7.344 3.734-3.117 0-5.562-1.242-7.344-3.734-1.773-2.5-2.656-6.082-2.656-10.75 0-2.32.234-4.375.703-6.156.469-1.79 1.14-3.297 2.016-4.516.883-1.226 1.937-2.16 3.156-2.797 1.227-.644 2.602-.969 4.125-.969 3.125 0 5.57 1.25 7.344 3.75 1.77 2.493 2.656 6.055 2.656 10.688Zm-6.078 0c0-1.383-.07-2.645-.203-3.781-.137-1.133-.352-2.114-.64-2.938-.294-.82-.696-1.457-1.204-1.906-.5-.457-1.125-.688-1.875-.688s-1.371.23-1.86.688c-.492.45-.89 1.086-1.202 1.906-.305.824-.524 1.805-.657 2.938a31.88 31.88 0 0 0-.203 3.781c0 1.387.067 2.652.203 3.797.133 1.148.352 2.137.657 2.969.312.824.71 1.464 1.203 1.921.488.45 1.109.672 1.859.672s1.375-.222 1.875-.672c.508-.457.91-1.097 1.203-1.921.29-.832.504-1.82.64-2.97.134-1.144.204-2.41.204-3.796Zm28.798 0c0 4.668-.887 8.25-2.656 10.75-1.774 2.492-4.22 3.734-7.344 3.734-3.117 0-5.563-1.242-7.344-3.734-1.773-2.5-2.656-6.082-2.656-10.75 0-2.32.234-4.375.703-6.156.469-1.79 1.14-3.297 2.016-4.516.882-1.226 1.937-2.16 3.156-2.797 1.226-.644 2.601-.969 4.125-.969 3.125 0 5.57 1.25 7.344 3.75 1.77 2.493 2.656 6.055 2.656 10.688Zm-6.078 0c0-1.383-.07-2.645-.203-3.781-.137-1.133-.352-2.114-.641-2.938-.293-.82-.695-1.457-1.203-1.906-.5-.457-1.125-.688-1.875-.688s-1.371.23-1.86.688c-.492.45-.89 1.086-1.203 1.906-.304.824-.523 1.805-.656 2.938a31.88 31.88 0 0 0-.203 3.781c0 1.387.066 2.652.203 3.797.133 1.148.352 2.137.656 2.969.313.824.711 1.464 1.203 1.921.489.45 1.11.672 1.86.672s1.375-.222 1.875-.672c.508-.457.91-1.097 1.203-1.921.289-.832.504-1.82.64-2.97.133-1.144.204-2.41.204-3.796Zm16.079 10.766c0 1.199-.383 2.109-1.14 2.734-.762.625-1.622.937-2.579.937-.96 0-1.82-.312-2.578-.937-.762-.625-1.14-1.535-1.14-2.734 0-1.196.378-2.11 1.14-2.735.758-.633 1.617-.953 2.578-.953.957 0 1.817.32 2.578.953.758.625 1.14 1.54 1.14 2.735Zm12.152-9.891c-.586 0-1.21.059-1.875.172-.668.105-1.187.25-1.562.437 0 .106-.008.266-.016.485-.011.21-.015.39-.015.547 0 .968.062 1.882.187 2.734.133.844.363 1.59.688 2.234.32.637.75 1.137 1.28 1.5.532.356 1.196.532 2 .532.665 0 1.235-.133 1.704-.407a3.772 3.772 0 0 0 1.156-1.062 4.62 4.62 0 0 0 .672-1.422c.156-.52.234-1.02.234-1.5 0-1.363-.343-2.41-1.03-3.14-.68-.739-1.821-1.11-3.423-1.11Zm.766-4.64c1.727 0 3.195.234 4.406.702 1.219.47 2.211 1.106 2.985 1.907a7.1 7.1 0 0 1 1.687 2.797c.344 1.062.516 2.199.516 3.406 0 1.062-.196 2.156-.578 3.281a9.123 9.123 0 0 1-1.766 3.031c-.781.907-1.781 1.657-3 2.25-1.211.582-2.637.875-4.281.875-3.336 0-5.871-1.05-7.61-3.156-1.73-2.113-2.593-5.02-2.593-8.719 0-2.664.41-5.023 1.234-7.078.82-2.062 2-3.789 3.531-5.187 1.54-1.407 3.395-2.473 5.563-3.203 2.176-.727 4.625-1.11 7.343-1.141.051.824.102 1.633.157 2.422.062.793.117 1.61.172 2.453a23.24 23.24 0 0 0-3.829.39 13.06 13.06 0 0 0-3.25 1.063 8.92 8.92 0 0 0-2.53 1.86c-.72.761-1.278 1.687-1.673 2.78a7.104 7.104 0 0 1 1.797-.562 9.516 9.516 0 0 1 1.719-.172ZM58.703 68.531c0 1.2-.21 2.297-.625 3.297a7.383 7.383 0 0 1-1.86 2.625c-.823.742-1.855 1.32-3.093 1.735-1.242.414-2.68.625-4.312.625-1.868 0-3.418-.262-4.657-.782-1.242-.52-2.242-1.164-3-1.937-.761-.77-1.304-1.613-1.625-2.531-.312-.926-.468-1.774-.468-2.547 0-.801.101-1.535.312-2.203A7.28 7.28 0 0 1 40.25 65c.375-.55.797-1.05 1.266-1.5.468-.457.968-.89 1.5-1.297-1.149-.926-1.996-1.843-2.547-2.75-.543-.906-.813-2.066-.813-3.484 0-1.063.219-2.086.657-3.078a7.863 7.863 0 0 1 1.859-2.578c.8-.739 1.77-1.328 2.906-1.766 1.133-.437 2.395-.656 3.781-.656 1.625 0 3.016.234 4.172.703 1.164.469 2.117 1.062 2.86 1.781.75.719 1.289 1.527 1.625 2.422.332.887.5 1.773.5 2.656 0 1.282-.34 2.477-1.016 3.578-.68 1.106-1.527 1.98-2.547 2.625 1.52.98 2.61 2.012 3.266 3.094.656 1.086.984 2.344.984 3.781Zm-13.844.235c0 .324.07.68.22 1.062.144.387.378.742.702 1.063.32.324.735.594 1.235.812.507.211 1.125.313 1.843.313 1.383 0 2.395-.332 3.032-1 .644-.664.968-1.414.968-2.25 0-.614-.14-1.16-.421-1.64a4.266 4.266 0 0 0-1.141-1.25 8.103 8.103 0 0 0-1.703-.97 23.084 23.084 0 0 0-2.094-.78 8.21 8.21 0 0 0-1.89 1.968c-.5.742-.75 1.633-.75 2.672Zm7.407-13.156a2.7 2.7 0 0 0-.188-.938 2.6 2.6 0 0 0-.594-.937A3.586 3.586 0 0 0 50.422 53c-.43-.207-.95-.312-1.563-.312-.586 0-1.09.093-1.515.28-.43.188-.781.438-1.063.75a3.06 3.06 0 0 0-.625.97c-.136.343-.203.68-.203 1 0 .855.313 1.656.938 2.406.632.742 1.71 1.383 3.234 1.922.852-.54 1.504-1.156 1.953-1.844.457-.695.688-1.55.688-2.562Zm29.311 6.718c0 4.668-.887 8.25-2.656 10.75-1.774 2.492-4.219 3.735-7.344 3.735-3.117 0-5.562-1.243-7.344-3.735-1.773-2.5-2.656-6.082-2.656-10.75 0-2.32.234-4.375.703-6.156.469-1.789 1.14-3.297 2.016-4.516.883-1.226 1.937-2.16 3.156-2.796 1.227-.645 2.602-.97 4.125-.97 3.125 0 5.57 1.25 7.344 3.75 1.77 2.493 2.656 6.055 2.656 10.688Zm-6.078 0c0-1.383-.07-2.644-.203-3.781-.137-1.133-.352-2.113-.64-2.937-.294-.82-.696-1.458-1.204-1.907-.5-.457-1.125-.687-1.875-.687s-1.371.23-1.86.687c-.491.45-.89 1.086-1.202 1.907-.305.824-.524 1.804-.657 2.937a31.88 31.88 0 0 0-.203 3.781c0 1.387.067 2.653.203 3.797.133 1.149.352 2.137.657 2.969.312.824.71 1.465 1.203 1.922.488.449 1.11.672 1.86.672s1.374-.223 1.874-.672c.508-.457.91-1.098 1.203-1.922.29-.832.504-1.82.64-2.969.134-1.144.204-2.41.204-3.797Zm0 0"/>
</svg>
