<svg xmlns="http://www.w3.org/2000/svg" version="1.2" viewBox="0 0 375 375">
  <path d="m359.121 5.996.461.043.45.066.448.086.438.094.437.117.422.137.422.145.414.168.399.175.39.196.395.21.371.227.371.238.356.247.347.27.336.276.328.29.313.308.304.313.29.324.277.336.262.347.253.36.239.367.226.371.203.395.2.39.18.41.167.407.145.421.137.426.109.43.101.445.083.442.066.46.05.458.028.457.008.472v340.74l-.008.464-.027.465-.051.461-.066.45-.082.445-.102.441-.11.438-.136.422-.145.421-.168.414-.18.399-.199.39-.203.387-.226.38-.239.37-.253.356-.262.347-.277.336-.29.328-.304.313-.313.305-.328.289-.336.277-.347.262-.356.254-.371.238-.371.219-.395.21-.39.2-.399.18-.414.168-.422.144-.422.133-.437.113-.438.102-.449.082-.449.066-.46.05-.466.028-.465.008H17.453l-.465-.008-.465-.027-.457-.05-.46-.067-.442-.082-.445-.102-.43-.113-.426-.133-.422-.144-.406-.168-.41-.18-.39-.2-.387-.21-.38-.22-.366-.237-.36-.254-.347-.262-.336-.277-.325-.29-.312-.304-.305-.313-.293-.328-.277-.336-.262-.347-.254-.356-.238-.37-.227-.38-.21-.386-.188-.391-.184-.399-.168-.414-.144-.421-.137-.422-.117-.438-.094-.441-.086-.446-.058-.449-.051-.46-.031-.466-.008-.464V17.32l.008-.472.03-.457.052-.457.058-.461.086-.442.094-.445.117-.43.137-.426.144-.421.168-.407.184-.41.187-.39.211-.395.227-.371.238-.367.254-.36.262-.347.277-.336.293-.324.305-.313.312-.305.325-.293.336-.277.347-.27.36-.246.367-.238.379-.226.386-.211.391-.196.41-.175.406-.168.422-.145.426-.137.43-.117.445-.094.441-.086.461-.066.457-.043.465-.031.465-.008h340.738l.465.008Zm-333.25 8.86-.465.03-.457.044-.453.062-.45.09-.437.094-.437.117-.426.137-.414.144-.414.168-.402.176-.399.195-.387.211-.378.227-.364.238-.355.246-.348.27-.336.277-.324.29-.313.308-.308.312-.29.324-.276.336-.27.348-.246.355-.238.364-.227.379-.21.386-.188.399-.184.402-.168.414-.145.414-.136.426-.117.438-.094.437-.09.45-.055.452-.05.457-.032.465-.008.465v322.965l.008.465.032.469.05.457.055.449.09.445.094.442.117.437.136.422.145.422.168.414.184.398.187.395.211.383.227.379.238.37.246.356.27.348.277.336.289.328.308.312.313.305.324.29.336.276.348.262.355.254.364.242.378.215.387.211.399.2.402.179.414.168.414.144.426.133.437.113.438.106.45.078.452.067.457.05.465.028.465.007H349.3l.465-.007.468-.028.457-.05.45-.067.453-.078.433-.106.438-.113.422-.133.422-.144.414-.168.398-.18.395-.199.39-.21.371-.216.371-.242.356-.254.348-.262.336-.277.328-.289.312-.305.305-.312.289-.328.277-.336.262-.348.254-.355.242-.371.223-.38.203-.382.199-.395.18-.398.168-.414.144-.422.14-.422.106-.437.106-.442.078-.445.066-.45.051-.456.027-.47.008-.464V26.203l-.008-.465-.027-.465-.05-.457-.067-.453-.078-.449-.211-.875-.14-.426-.145-.414-.168-.414-.18-.402-.2-.399-.202-.386-.223-.38-.242-.363-.254-.355-.262-.348-.277-.336-.29-.324-.304-.312-.312-.309-.329-.289-.335-.277-.348-.27-.356-.246-.37-.238-.372-.227-.39-.21-.395-.196-.398-.176-.414-.168-.422-.144-.422-.137-.438-.117-.433-.094-.453-.09-.45-.062-.457-.043-.468-.032-.465-.007H26.336Zm0 0"/>
  <path d="M205.545 97.833v18.61h-29.25v78.375h-21.828v-78.375h-29.25v-18.61Zm41.995 98.391c-6.062-.094-10.983-.746-14.765-1.953-3.781-1.219-6.773-2.922-8.968-5.11-2.188-2.195-3.68-4.859-4.47-7.984-.792-3.125-1.187-6.648-1.187-10.578V89.568l20.86-3.36v80.203c0 1.868.132 3.543.406 5.032.281 1.492.816 2.75 1.61 3.78.8 1.032 1.945 1.876 3.437 2.532 1.488.649 3.492 1.063 6.015 1.25Zm-118.834 41.718v5.313h-8.36v22.406h-6.25v-22.406h-8.358v-5.313Zm3.591 27.718v-30.077l5.97-.97v10.095c.394-.133.905-.258 1.53-.375a9.311 9.311 0 0 1 1.828-.188c1.707 0 3.125.235 4.25.703 1.133.461 2.04 1.117 2.72 1.969.687.855 1.163 1.871 1.437 3.047.281 1.168.422 2.476.422 3.922v11.875H144.5v-11.156c0-1.926-.25-3.286-.75-4.079-.492-.8-1.402-1.203-2.734-1.203-.531 0-1.031.047-1.5.14a17.48 17.48 0 0 0-1.25.298v16Zm31.607-4.155c.582 0 1.14-.008 1.672-.032.531-.031.957-.07 1.281-.125v-4.531a12.98 12.98 0 0 0-1.078-.156c-.48-.051-.918-.078-1.312-.078-.563 0-1.094.039-1.594.109a4.001 4.001 0 0 0-1.297.375 2.307 2.307 0 0 0-.89.766c-.212.312-.313.71-.313 1.187 0 .938.312 1.59.937 1.953.633.356 1.5.532 2.594.532Zm-.484-17.438c1.757 0 3.222.2 4.39.594 1.176.398 2.117.969 2.828 1.719.707.75 1.207 1.664 1.5 2.734.29 1.062.438 2.246.438 3.547v12.406a72.45 72.45 0 0 1-3.563.656c-1.511.25-3.351.375-5.515.375-1.356 0-2.59-.12-3.703-.36-1.106-.237-2.059-.628-2.86-1.171a5.485 5.485 0 0 1-1.828-2.14c-.43-.883-.64-1.97-.64-3.25 0-1.22.242-2.255.734-3.11a5.718 5.718 0 0 1 1.969-2.047c.832-.508 1.78-.875 2.843-1.094a16.03 16.03 0 0 1 3.329-.343c.77 0 1.453.039 2.046.109a9.568 9.568 0 0 1 1.47.25v-.562c0-1.008-.31-1.82-.923-2.438-.617-.613-1.68-.922-3.187-.922a20.8 20.8 0 0 0-3.016.219c-.98.148-1.828.355-2.547.625l-.765-4.797a14.07 14.07 0 0 1 1.297-.344 20.45 20.45 0 0 1 1.703-.328 32.544 32.544 0 0 1 1.937-.234 22.387 22.387 0 0 1 2.063-.094Zm22.963 22c-1.742-.031-3.152-.219-4.234-.562-1.074-.352-1.922-.844-2.547-1.47a4.836 4.836 0 0 1-1.281-2.265c-.23-.894-.344-1.906-.344-3.031v-23.156l5.969-.97v22.923c0 .543.035 1.027.11 1.453.081.418.237.777.468 1.078.226.293.55.531.969.719.425.187 1.004.308 1.734.36Zm12.64 0c-1.742-.031-3.152-.219-4.234-.562-1.074-.352-1.922-.844-2.547-1.47a4.836 4.836 0 0 1-1.281-2.265c-.23-.894-.344-1.906-.344-3.031v-23.156l5.969-.97v22.923c0 .543.035 1.027.109 1.453.082.418.238.777.469 1.078.226.293.55.531.968.719.426.187 1.004.308 1.735.36Zm10.203-.407h-5.97v-21.046h5.97Zm.546-27.124c0 1.094-.355 1.96-1.062 2.594-.7.625-1.527.937-2.484.937-.97 0-1.81-.312-2.516-.937-.7-.633-1.047-1.5-1.047-2.594 0-1.094.348-1.953 1.047-2.578.707-.625 1.547-.938 2.516-.938.957 0 1.785.313 2.484.938.707.625 1.062 1.484 1.062 2.578Zm23.013 26.406c-1.023.293-2.336.563-3.937.813a31.61 31.61 0 0 1-5.031.39c-1.782 0-3.266-.242-4.453-.719-1.188-.476-2.133-1.148-2.829-2.015-.687-.875-1.183-1.91-1.484-3.11-.293-1.195-.437-2.515-.437-3.953v-11.734h5.968v11c0 1.93.25 3.32.75 4.172.508.855 1.457 1.281 2.844 1.281.426 0 .879-.02 1.36-.062.476-.04.906-.086 1.28-.141v-16.25h5.97Zm17.154-10.437c0-1.926-.25-3.286-.75-4.079-.492-.8-1.336-1.203-2.531-1.203-.375 0-.766.024-1.172.063-.399.043-.777.09-1.14.14v16.235h-5.97v-20.313a37.888 37.888 0 0 1 3.938-.813c.758-.124 1.54-.218 2.344-.28.8-.07 1.586-.11 2.36-.11 1.519 0 2.753.195 3.702.578.946.387 1.727.844 2.344 1.375.852-.613 1.832-1.093 2.937-1.437 1.102-.344 2.125-.516 3.063-.516 1.676 0 3.05.235 4.125.703 1.082.461 1.941 1.117 2.578 1.969.645.855 1.086 1.871 1.328 3.047.239 1.168.36 2.476.36 3.922v11.875H261.5v-11.156c0-1.926-.25-3.286-.75-4.079-.492-.8-1.335-1.203-2.53-1.203-.325 0-.774.086-1.345.25-.574.157-1.046.356-1.421.594.187.605.304 1.25.359 1.938.05.68.078 1.402.078 2.171v11.485h-5.953Zm-92.955 53.383a7.27 7.27 0 0 1-.61 2.922c-.398.93-.918 1.828-1.562 2.703-.637.867-1.356 1.7-2.157 2.5a122.18 122.18 0 0 1-2.359 2.266c-.398.375-.828.797-1.297 1.265a34.866 34.866 0 0 0-2.484 2.766c-.336.406-.54.746-.61 1.016h11.922v5h-18.484a6.209 6.209 0 0 1-.078-1.11v-.969c0-1.28.203-2.453.61-3.515.413-1.07.956-2.067 1.624-2.985a19.415 19.415 0 0 1 2.25-2.578c.844-.8 1.68-1.601 2.516-2.406.633-.613 1.234-1.191 1.797-1.734a20.189 20.189 0 0 0 1.484-1.61 7.557 7.557 0 0 0 1-1.547c.238-.52.36-1.05.36-1.593 0-1.164-.336-1.989-1-2.469-.669-.477-1.497-.719-2.485-.719-.719 0-1.398.117-2.031.344-.625.219-1.2.484-1.719.797-.512.305-.953.61-1.328.922a11.86 11.86 0 0 0-.844.734l-2.953-4.156c1.164-1.094 2.531-1.992 4.094-2.703a12.025 12.025 0 0 1 5.015-1.063c1.625 0 3.024.188 4.204.563 1.175.375 2.144.902 2.906 1.578a6.077 6.077 0 0 1 1.672 2.484c.363.969.547 2.07.547 3.297Zm24.235 6.516c0 4.668-.887 8.25-2.656 10.75-1.774 2.492-4.219 3.734-7.344 3.734-3.117 0-5.562-1.242-7.344-3.734-1.773-2.5-2.656-6.082-2.656-10.75 0-2.32.234-4.375.703-6.157.469-1.789 1.14-3.296 2.016-4.515.883-1.227 1.937-2.16 3.156-2.797 1.227-.645 2.602-.969 4.125-.969 3.125 0 5.57 1.25 7.344 3.75 1.77 2.492 2.656 6.055 2.656 10.688Zm-6.078 0c0-1.383-.07-2.645-.203-3.782-.137-1.132-.352-2.113-.64-2.937-.294-.82-.696-1.457-1.204-1.906-.5-.457-1.125-.688-1.875-.688s-1.371.23-1.86.688c-.492.449-.89 1.086-1.202 1.906-.305.824-.524 1.805-.657 2.937a31.88 31.88 0 0 0-.203 3.782c0 1.386.067 2.652.203 3.797.133 1.148.352 2.136.657 2.968.312.825.71 1.465 1.203 1.922.488.45 1.109.672 1.859.672s1.375-.223 1.875-.672c.508-.457.91-1.097 1.203-1.922.29-.832.504-1.82.64-2.968a32.79 32.79 0 0 0 .204-3.797Zm20.204-6.516a247.352 247.352 0 0 0-3.328 4.438 31.341 31.341 0 0 0-2.953 4.921h6.281Zm5.828-7.281v16.64h2.969v4.875h-2.969v6.204h-5.828v-6.204h-11.969v-4.359a74.056 74.056 0 0 1 2.203-3.969 69.398 69.398 0 0 1 2.938-4.562 80.118 80.118 0 0 1 3.422-4.578 48.177 48.177 0 0 1 3.594-4.047Zm12.767 24.563c0 1.199-.383 2.109-1.14 2.734-.762.625-1.622.937-2.579.937-.96 0-1.82-.312-2.578-.937-.762-.625-1.14-1.535-1.14-2.735 0-1.195.378-2.109 1.14-2.734.758-.633 1.617-.953 2.578-.953.957 0 1.817.32 2.578.953.758.625 1.14 1.539 1.14 2.734Zm13.965-17.282a247.352 247.352 0 0 0-3.328 4.438 31.341 31.341 0 0 0-2.953 4.921h6.28Zm5.828-7.281v16.64h2.969v4.875h-2.969v6.204h-5.828v-6.204h-11.969v-4.359a74.056 74.056 0 0 1 2.203-3.969 69.398 69.398 0 0 1 2.938-4.562 80.118 80.118 0 0 1 3.422-4.578 48.177 48.177 0 0 1 3.593-4.047ZM58.703 68.53c0 1.2-.21 2.298-.625 3.298a7.383 7.383 0 0 1-1.86 2.625c-.823.742-1.855 1.32-3.093 1.734-1.242.414-2.68.625-4.312.625-1.868 0-3.418-.262-4.657-.781-1.242-.52-2.242-1.164-3-1.938-.761-.77-1.304-1.613-1.625-2.53-.312-.927-.468-1.774-.468-2.548 0-.8.101-1.535.312-2.203A7.28 7.28 0 0 1 40.25 65a9.357 9.357 0 0 1 1.266-1.5c.468-.457.968-.89 1.5-1.297-1.149-.926-1.996-1.844-2.547-2.75-.543-.906-.813-2.067-.813-3.485 0-1.062.219-2.086.657-3.078a7.863 7.863 0 0 1 1.859-2.578c.8-.738 1.77-1.328 2.906-1.765 1.133-.438 2.395-.657 3.781-.657 1.625 0 3.016.235 4.172.703 1.164.47 2.117 1.063 2.86 1.782.75.718 1.289 1.527 1.625 2.422.332.886.5 1.773.5 2.656 0 1.281-.34 2.476-1.016 3.578-.68 1.105-1.527 1.98-2.547 2.625 1.52.98 2.61 2.012 3.266 3.094.656 1.086.984 2.343.984 3.78Zm-13.844.235c0 .325.07.68.22 1.063.144.387.378.742.702 1.062.32.325.735.594 1.235.813.507.21 1.125.312 1.843.312 1.383 0 2.395-.332 3.032-1 .644-.664.968-1.414.968-2.25 0-.613-.14-1.16-.421-1.64a4.266 4.266 0 0 0-1.141-1.25 8.103 8.103 0 0 0-1.703-.97 23.084 23.084 0 0 0-2.094-.78 8.21 8.21 0 0 0-1.89 1.968c-.5.743-.75 1.633-.75 2.672Zm7.407-13.156a2.7 2.7 0 0 0-.188-.937 2.6 2.6 0 0 0-.594-.938A3.586 3.586 0 0 0 50.422 53c-.43-.207-.95-.313-1.563-.313-.586 0-1.09.094-1.515.281-.43.188-.781.438-1.063.75a3.06 3.06 0 0 0-.625.97 2.713 2.713 0 0 0-.203 1c0 .855.313 1.655.938 2.405.632.743 1.71 1.383 3.234 1.922.852-.539 1.504-1.156 1.953-1.843.457-.696.688-1.551.688-2.563Zm10.749-1.312c.77-.32 1.578-.692 2.421-1.11a28.13 28.13 0 0 0 2.454-1.36c.8-.487 1.566-1.003 2.296-1.546a15.52 15.52 0 0 0 1.985-1.75h4.172V76.25h-5.969V56.297c-.805.53-1.7 1.015-2.688 1.453-.98.437-1.937.82-2.875 1.14Zm0 0"/>
</svg>
