<svg xmlns="http://www.w3.org/2000/svg" version="1.2" viewBox="0 0 375 375">
  <path d="m359.121 5.996.461.043.45.066.448.086.438.094.437.117.422.137.422.145.414.168.399.175.39.196.395.21.371.227.371.238.356.247.347.27.336.276.328.29.313.308.304.313.29.324.277.336.262.347.253.36.239.367.226.371.203.395.2.39.18.41.167.407.145.421.137.426.109.43.101.445.083.442.066.46.05.458.028.457.008.472v340.74l-.008.464-.027.465-.051.461-.066.45-.082.445-.102.441-.11.438-.136.422-.145.421-.168.414-.18.399-.199.39-.203.387-.226.38-.239.37-.253.356-.262.347-.277.336-.29.328-.304.313-.313.305-.328.289-.336.277-.347.262-.356.254-.371.238-.371.219-.395.21-.39.2-.399.18-.414.168-.422.144-.422.133-.437.113-.438.102-.449.082-.449.066-.46.05-.466.028-.465.008H17.453l-.465-.008-.465-.027-.457-.05-.46-.067-.442-.082-.445-.102-.43-.113-.426-.133-.422-.144-.406-.168-.41-.18-.39-.2-.387-.21-.38-.22-.366-.237-.36-.254-.347-.262-.336-.277-.325-.29-.312-.304-.305-.313-.293-.328-.277-.336-.262-.347-.254-.356-.238-.37-.227-.38-.21-.386-.188-.391-.184-.399-.168-.414-.144-.421-.137-.422-.117-.438-.094-.441-.086-.446-.058-.449-.051-.46-.031-.466-.008-.464V17.32l.008-.472.03-.457.052-.457.058-.461.086-.442.094-.445.117-.43.137-.426.144-.421.168-.407.184-.41.187-.39.211-.395.227-.371.238-.367.254-.36.262-.347.277-.336.293-.324.305-.313.312-.305.325-.293.336-.277.347-.27.36-.246.367-.238.379-.226.386-.211.391-.196.41-.175.406-.168.422-.145.426-.137.43-.117.445-.094.441-.086.461-.066.457-.043.465-.031.465-.008h340.738l.465.008Zm-333.25 8.86-.465.03-.457.044-.453.062-.45.09-.437.094-.437.117-.426.137-.414.144-.414.168-.402.176-.399.195-.387.211-.378.227-.364.238-.355.246-.348.27-.336.277-.324.29-.313.308-.308.312-.29.324-.276.336-.27.348-.246.355-.238.364-.227.379-.21.386-.188.399-.184.402-.168.414-.145.414-.136.426-.117.438-.094.437-.09.45-.055.452-.05.457-.032.465-.008.465v322.965l.008.465.032.469.05.457.055.449.09.445.094.442.117.437.136.422.145.422.168.414.184.398.187.395.211.383.227.379.238.37.246.356.27.348.277.336.289.328.308.312.313.305.324.29.336.276.348.262.355.254.364.242.378.215.387.211.399.2.402.179.414.168.414.144.426.133.437.113.438.106.45.078.452.067.457.05.465.028.465.007H349.3l.465-.007.468-.028.457-.05.45-.067.453-.078.433-.106.438-.113.422-.133.422-.144.414-.168.398-.18.395-.199.39-.21.371-.216.371-.242.356-.254.348-.262.336-.277.328-.289.312-.305.305-.312.289-.328.277-.336.262-.348.254-.355.242-.371.223-.38.203-.382.199-.395.18-.398.168-.414.144-.422.14-.422.106-.437.106-.442.078-.445.066-.45.051-.456.027-.47.008-.464V26.203l-.008-.465-.027-.465-.05-.457-.067-.453-.078-.449-.211-.875-.14-.426-.145-.414-.168-.414-.18-.402-.2-.399-.202-.386-.223-.38-.242-.363-.254-.355-.262-.348-.277-.336-.29-.324-.304-.312-.312-.309-.329-.289-.335-.277-.348-.27-.356-.246-.37-.238-.372-.227-.39-.21-.395-.196-.398-.176-.414-.168-.422-.144-.422-.137-.438-.117-.433-.094-.453-.09-.45-.062-.457-.043-.468-.032-.465-.007H26.336Zm0 0"/>
  <path d="M140.479 96.708c14.457 0 25.554 2.543 33.297 7.625 7.75 5.086 11.625 13.414 11.625 24.985 0 11.668-3.922 20.09-11.766 25.265-7.836 5.18-19.027 7.766-33.578 7.766h-6.86v32.469H111.37V99.224c4.75-.926 9.782-1.578 15.094-1.953 5.32-.375 9.992-.563 14.016-.563Zm1.39 18.61c-1.586 0-3.148.047-4.687.14a174.64 174.64 0 0 0-3.985.282v28h6.86c7.55 0 13.238-1.024 17.062-3.079 3.832-2.05 5.75-5.879 5.75-11.484 0-2.707-.492-4.945-1.468-6.719-.98-1.77-2.383-3.191-4.204-4.265-1.824-1.07-4.043-1.817-6.656-2.235-2.605-.426-5.496-.64-8.672-.64Zm105.382 42.125c0-13.426-4.945-20.141-14.828-20.141-2.148 0-4.273.281-6.375.844-2.094.554-3.793 1.25-5.094 2.094v37.921c1.02.188 2.32.356 3.907.5a60.92 60.92 0 0 0 5.187.204c5.688 0 9.973-1.958 12.86-5.875 2.894-3.915 4.343-9.098 4.343-15.547Zm21.282.562c0 5.887-.868 11.211-2.594 15.969-1.719 4.75-4.215 8.808-7.485 12.172-3.261 3.355-7.273 5.945-12.03 7.765-4.763 1.813-10.173 2.72-16.235 2.72-2.524 0-5.164-.118-7.922-.345-2.75-.23-5.453-.53-8.11-.906a114.59 114.59 0 0 1-7.624-1.328c-2.43-.52-4.575-1.055-6.438-1.61V89.569l20.86-3.36v36.672a39.82 39.82 0 0 1 7.265-2.375c2.52-.562 5.227-.844 8.125-.844 5.219 0 9.832.914 13.844 2.735 4.02 1.812 7.379 4.402 10.078 7.765 2.707 3.356 4.758 7.391 6.156 12.11 1.406 4.71 2.11 9.953 2.11 15.734ZM163.139 260.301v5.36h-18.516v-27.719h6.234v22.36Zm2.598-5c0-1.863.285-3.492.859-4.89.57-1.406 1.32-2.57 2.25-3.5a9.42 9.42 0 0 1 3.219-2.125 10.218 10.218 0 0 1 3.75-.719c2.988 0 5.347.914 7.078 2.734 1.738 1.825 2.61 4.512 2.61 8.063 0 .344-.016.726-.048 1.14-.023.407-.046.774-.078 1.094h-13.515c.132 1.23.707 2.203 1.718 2.922 1.008.719 2.368 1.078 4.079 1.078 1.093 0 2.164-.097 3.218-.297 1.051-.195 1.91-.441 2.578-.734l.797 4.828c-.312.168-.742.328-1.281.485-.531.156-1.125.289-1.781.406-.649.125-1.344.226-2.094.312a20.29 20.29 0 0 1-2.234.125c-1.899 0-3.547-.281-4.953-.843-1.399-.563-2.555-1.329-3.47-2.297a9.279 9.279 0 0 1-2.046-3.47c-.438-1.331-.656-2.769-.656-4.312Zm14-2.28a5.617 5.617 0 0 0-.266-1.485 3.573 3.573 0 0 0-1.828-2.188c-.469-.25-1.055-.375-1.75-.375-.668 0-1.242.117-1.719.344-.48.23-.883.531-1.203.906a4.268 4.268 0 0 0-.734 1.297 9.159 9.159 0 0 0-.375 1.5Zm18.406 8.484c.582 0 1.141-.008 1.672-.032.531-.031.957-.07 1.281-.125v-4.531a12.98 12.98 0 0 0-1.078-.156c-.48-.051-.918-.078-1.312-.078-.563 0-1.094.039-1.594.109a4.001 4.001 0 0 0-1.297.375 2.307 2.307 0 0 0-.89.766c-.211.312-.313.71-.313 1.187 0 .938.313 1.59.938 1.953.632.356 1.5.532 2.593.532Zm-.484-17.438c1.758 0 3.223.2 4.39.594 1.176.398 2.118.969 2.829 1.719.707.75 1.207 1.664 1.5 2.734.289 1.062.437 2.246.437 3.547v12.406c-.855.188-2.043.406-3.562.656-1.512.25-3.352.375-5.516.375-1.355 0-2.59-.12-3.703-.36-1.106-.237-2.059-.628-2.86-1.171a5.485 5.485 0 0 1-1.828-2.14c-.43-.883-.64-1.97-.64-3.25 0-1.22.242-2.255.734-3.11a5.718 5.718 0 0 1 1.969-2.047c.832-.508 1.781-.875 2.844-1.094a16.03 16.03 0 0 1 3.328-.343c.77 0 1.453.039 2.047.109a9.568 9.568 0 0 1 1.468.25v-.562c0-1.008-.308-1.82-.921-2.438-.618-.613-1.68-.922-3.188-.922a20.8 20.8 0 0 0-3.016.219c-.98.148-1.828.355-2.546.625l-.766-4.797a14.07 14.07 0 0 1 1.297-.344 20.53 20.53 0 0 1 1.703-.328 32.544 32.544 0 0 1 1.937-.234 22.387 22.387 0 0 1 2.063-.094Zm19.635 10.906c0 1.844.41 3.328 1.235 4.453.832 1.118 2.062 1.672 3.687 1.672.532 0 1.02-.02 1.469-.062.457-.04.836-.086 1.14-.14v-10.829c-.374-.238-.867-.437-1.468-.594a6.786 6.786 0 0 0-1.813-.25c-2.836 0-4.25 1.918-4.25 5.75Zm13.485 10c-.531.168-1.149.324-1.844.469-.687.148-1.414.27-2.172.375a43.77 43.77 0 0 1-2.328.25c-.781.07-1.531.11-2.25.11-1.742 0-3.293-.25-4.656-.75-1.356-.508-2.5-1.239-3.438-2.188-.93-.945-1.64-2.094-2.14-3.438-.493-1.343-.735-2.859-.735-4.546 0-1.696.211-3.235.64-4.61.427-1.375 1.04-2.539 1.845-3.5a7.998 7.998 0 0 1 2.937-2.203c1.156-.508 2.485-.766 3.985-.766.82 0 1.562.086 2.218.25.657.157 1.317.383 1.985.672v-9.515l5.953-.97Zm-73.795 42.915a7.27 7.27 0 0 1-.61 2.922c-.398.93-.918 1.828-1.562 2.703-.637.867-1.356 1.7-2.157 2.5a122.18 122.18 0 0 1-2.359 2.266c-.398.375-.828.797-1.297 1.265a34.866 34.866 0 0 0-2.484 2.766c-.336.406-.54.746-.61 1.016h11.922v5h-18.484a6.209 6.209 0 0 1-.078-1.11v-.969c0-1.28.203-2.453.61-3.515.413-1.07.956-2.067 1.624-2.985a19.415 19.415 0 0 1 2.25-2.578c.844-.8 1.68-1.601 2.516-2.406.633-.613 1.234-1.191 1.797-1.734a20.189 20.189 0 0 0 1.484-1.61 7.557 7.557 0 0 0 1-1.547c.238-.52.36-1.05.36-1.593 0-1.164-.336-1.989-1-2.469-.669-.477-1.497-.719-2.485-.719-.719 0-1.398.117-2.031.344-.625.219-1.2.484-1.719.797-.512.305-.953.61-1.328.922a11.86 11.86 0 0 0-.844.734l-2.953-4.156c1.164-1.094 2.531-1.992 4.094-2.703a12.025 12.025 0 0 1 5.015-1.063c1.625 0 3.024.188 4.204.563 1.175.375 2.144.902 2.906 1.578a6.077 6.077 0 0 1 1.672 2.484c.363.969.547 2.07.547 3.297Zm24.235 6.516c0 4.668-.887 8.25-2.656 10.75-1.774 2.492-4.219 3.734-7.344 3.734-3.117 0-5.562-1.242-7.344-3.734-1.773-2.5-2.656-6.082-2.656-10.75 0-2.32.234-4.375.703-6.157.469-1.789 1.14-3.296 2.016-4.515.883-1.227 1.937-2.16 3.156-2.797 1.227-.645 2.602-.969 4.125-.969 3.125 0 5.57 1.25 7.344 3.75 1.77 2.492 2.656 6.055 2.656 10.688Zm-6.078 0c0-1.383-.07-2.645-.203-3.782-.137-1.132-.352-2.113-.64-2.937-.294-.82-.696-1.457-1.204-1.906-.5-.457-1.125-.688-1.875-.688s-1.371.23-1.86.688c-.492.449-.89 1.086-1.202 1.906-.305.824-.524 1.805-.657 2.937a31.88 31.88 0 0 0-.203 3.782c0 1.386.067 2.652.203 3.797.133 1.148.352 2.136.657 2.968.312.825.71 1.465 1.203 1.922.488.45 1.109.672 1.859.672s1.375-.223 1.875-.672c.508-.457.91-1.097 1.203-1.922.29-.832.504-1.82.64-2.968a32.79 32.79 0 0 0 .204-3.797Zm13.126 13.922c.156-1.946.484-3.973.984-6.079a59.072 59.072 0 0 1 1.86-6.187 53.583 53.583 0 0 1 2.468-5.75c.907-1.8 1.829-3.36 2.766-4.672h-12.047v-5.078h19.406v4.328c-.855.93-1.796 2.219-2.828 3.875-1.023 1.656-1.996 3.531-2.922 5.625a53.19 53.19 0 0 0-2.406 6.75 34.54 34.54 0 0 0-1.25 7.188Zm25.673-3.156c0 1.199-.383 2.109-1.14 2.734-.762.625-1.622.937-2.579.937-.96 0-1.82-.312-2.578-.937-.762-.625-1.14-1.535-1.14-2.735 0-1.195.378-2.109 1.14-2.734.758-.633 1.617-.953 2.578-.953.957 0 1.817.32 2.578.953.758.625 1.14 1.539 1.14 2.734Zm21.043-17.282a7.27 7.27 0 0 1-.61 2.922 13.5 13.5 0 0 1-1.562 2.703c-.637.867-1.355 1.7-2.156 2.5a122.18 122.18 0 0 1-2.36 2.266 61.78 61.78 0 0 0-1.296 1.265 34.866 34.866 0 0 0-2.485 2.766c-.336.406-.539.746-.61 1.016h11.923v5h-18.485a6.209 6.209 0 0 1-.078-1.11v-.969c0-1.28.203-2.453.61-3.515.414-1.07.957-2.067 1.625-2.985a19.415 19.415 0 0 1 2.25-2.578c.843-.8 1.68-1.601 2.515-2.406.633-.613 1.235-1.191 1.797-1.734a20.189 20.189 0 0 0 1.484-1.61 7.557 7.557 0 0 0 1-1.547c.239-.52.36-1.05.36-1.593 0-1.164-.336-1.989-1-2.469-.668-.477-1.496-.719-2.485-.719-.718 0-1.398.117-2.03.344-.626.219-1.2.484-1.72.797-.511.305-.953.61-1.328.922a11.58 11.58 0 0 0-.843.734l-2.954-4.156c1.165-1.094 2.532-1.992 4.094-2.703a12.025 12.025 0 0 1 5.016-1.063c1.625 0 3.023.188 4.203.563 1.176.375 2.145.902 2.906 1.578a6.077 6.077 0 0 1 1.672 2.484c.363.969.547 2.07.547 3.297ZM58.703 68.53c0 1.2-.21 2.298-.625 3.298a7.383 7.383 0 0 1-1.86 2.625c-.823.742-1.855 1.32-3.093 1.734-1.242.414-2.68.625-4.312.625-1.868 0-3.418-.262-4.657-.781-1.242-.52-2.242-1.164-3-1.938-.761-.77-1.304-1.613-1.625-2.53-.312-.927-.468-1.774-.468-2.548 0-.8.101-1.535.312-2.203A7.28 7.28 0 0 1 40.25 65a9.357 9.357 0 0 1 1.266-1.5c.468-.457.968-.89 1.5-1.297-1.149-.926-1.996-1.844-2.547-2.75-.543-.906-.813-2.067-.813-3.485 0-1.062.219-2.086.657-3.078a7.863 7.863 0 0 1 1.859-2.578c.8-.738 1.77-1.328 2.906-1.765 1.133-.438 2.395-.657 3.781-.657 1.625 0 3.016.235 4.172.703 1.164.47 2.117 1.063 2.86 1.782.75.718 1.289 1.527 1.625 2.422.332.886.5 1.773.5 2.656 0 1.281-.34 2.476-1.016 3.578-.68 1.105-1.527 1.98-2.547 2.625 1.52.98 2.61 2.012 3.266 3.094.656 1.086.984 2.343.984 3.78Zm-13.844.235c0 .325.07.68.22 1.063.144.387.378.742.702 1.062.32.325.735.594 1.235.813.507.21 1.125.312 1.843.312 1.383 0 2.395-.332 3.032-1 .644-.664.968-1.414.968-2.25 0-.613-.14-1.16-.421-1.64a4.266 4.266 0 0 0-1.141-1.25 8.103 8.103 0 0 0-1.703-.97 23.084 23.084 0 0 0-2.094-.78 8.21 8.21 0 0 0-1.89 1.968c-.5.743-.75 1.633-.75 2.672Zm7.407-13.156a2.7 2.7 0 0 0-.188-.937 2.6 2.6 0 0 0-.594-.938A3.586 3.586 0 0 0 50.422 53c-.43-.207-.95-.313-1.563-.313-.586 0-1.09.094-1.515.281-.43.188-.781.438-1.063.75a3.06 3.06 0 0 0-.625.97 2.713 2.713 0 0 0-.203 1c0 .855.313 1.655.938 2.405.632.743 1.71 1.383 3.234 1.922.852-.539 1.504-1.156 1.953-1.843.457-.696.688-1.551.688-2.563Zm27.795.203a7.27 7.27 0 0 1-.609 2.922c-.398.93-.918 1.828-1.562 2.703-.637.867-1.356 1.7-2.157 2.5a122.18 122.18 0 0 1-2.359 2.266c-.398.375-.828.797-1.297 1.265a34.866 34.866 0 0 0-2.484 2.766c-.336.406-.54.746-.61 1.016h11.922v5H62.421a6.209 6.209 0 0 1-.078-1.11v-.968c0-1.282.203-2.454.61-3.516.413-1.07.956-2.066 1.624-2.984a19.415 19.415 0 0 1 2.25-2.579c.844-.8 1.68-1.601 2.516-2.406.633-.613 1.234-1.191 1.797-1.734a20.189 20.189 0 0 0 1.484-1.61 7.557 7.557 0 0 0 1-1.546c.238-.52.36-1.051.36-1.594 0-1.164-.337-1.988-1-2.469-.669-.477-1.497-.719-2.485-.719-.719 0-1.398.117-2.031.344-.625.219-1.2.484-1.719.797-.512.305-.953.61-1.328.922a11.86 11.86 0 0 0-.844.734l-2.953-4.156c1.164-1.094 2.531-1.992 4.094-2.703a12.025 12.025 0 0 1 5.015-1.063c1.625 0 3.024.188 4.203.563 1.176.375 2.145.902 2.907 1.578a6.077 6.077 0 0 1 1.672 2.484c.363.97.546 2.07.546 3.297Zm0 0"/>
</svg>
