<svg xmlns="http://www.w3.org/2000/svg" version="1.2" viewBox="0 0 375 375">
  <path d="m359.121 5.996.461.043.45.066.448.086.438.094.437.117.422.137.422.145.414.168.399.175.39.196.395.21.371.227.371.238.356.247.347.27.336.276.328.29.313.308.304.313.29.324.277.336.262.347.253.36.239.367.226.371.203.395.2.39.18.41.167.407.145.421.137.426.109.43.101.445.083.442.066.46.05.458.028.457.008.472v340.74l-.008.464-.027.465-.051.461-.066.45-.082.445-.102.441-.11.438-.136.422-.145.421-.168.414-.18.399-.199.39-.203.387-.226.38-.239.37-.253.356-.262.347-.277.336-.29.328-.304.313-.313.305-.328.289-.336.277-.347.262-.356.254-.371.238-.371.219-.395.21-.39.2-.399.18-.414.168-.422.144-.422.133-.437.113-.438.102-.449.082-.449.066-.46.05-.466.028-.465.008H17.453l-.465-.008-.465-.027-.457-.05-.46-.067-.442-.082-.445-.102-.43-.113-.426-.133-.422-.144-.406-.168-.41-.18-.39-.2-.387-.21-.38-.22-.366-.237-.36-.254-.347-.262-.336-.277-.325-.29-.312-.304-.305-.313-.293-.328-.277-.336-.262-.347-.254-.356-.238-.37-.227-.38-.21-.386-.188-.391-.184-.399-.168-.414-.144-.421-.137-.422-.117-.438-.094-.441-.086-.446-.058-.449-.051-.46-.031-.466-.008-.464V17.32l.008-.472.03-.457.052-.457.058-.461.086-.442.094-.445.117-.43.137-.426.144-.421.168-.407.184-.41.187-.39.211-.395.227-.371.238-.367.254-.36.262-.347.277-.336.293-.324.305-.313.312-.305.325-.293.336-.277.347-.27.36-.246.367-.238.379-.226.386-.211.391-.196.41-.175.406-.168.422-.145.426-.137.43-.117.445-.094.441-.086.461-.066.457-.043.465-.031.465-.008h340.738l.465.008Zm-333.25 8.86-.465.03-.457.044-.453.062-.45.09-.437.094-.437.117-.426.137-.414.144-.414.168-.402.176-.399.195-.387.211-.378.227-.364.238-.355.246-.348.27-.336.277-.324.29-.313.308-.308.312-.29.324-.276.336-.27.348-.246.355-.238.364-.227.379-.21.386-.188.399-.184.402-.168.414-.145.414-.136.426-.117.438-.094.437-.09.45-.055.452-.05.457-.032.465-.008.465v322.965l.008.465.032.469.05.457.055.449.09.445.094.442.117.437.136.422.145.422.168.414.184.398.187.395.211.383.227.379.238.37.246.356.27.348.277.336.289.328.308.312.313.305.324.29.336.276.348.262.355.254.364.242.378.215.387.211.399.2.402.179.414.168.414.144.426.133.437.113.438.106.45.078.452.067.457.05.465.028.465.007H349.3l.465-.007.468-.028.457-.05.45-.067.453-.078.433-.106.438-.113.422-.133.422-.144.414-.168.398-.18.395-.199.39-.21.371-.216.371-.242.356-.254.348-.262.336-.277.328-.289.312-.305.305-.312.289-.328.277-.336.262-.348.254-.355.242-.371.223-.38.203-.382.199-.395.18-.398.168-.414.144-.422.14-.422.106-.437.106-.442.078-.445.066-.45.051-.456.027-.47.008-.464V26.203l-.008-.465-.027-.465-.05-.457-.067-.453-.078-.449-.211-.875-.14-.426-.145-.414-.168-.414-.18-.402-.2-.399-.202-.386-.223-.38-.242-.363-.254-.355-.262-.348-.277-.336-.29-.324-.304-.312-.312-.309-.329-.289-.335-.277-.348-.27-.356-.246-.37-.238-.372-.227-.39-.21-.395-.196-.398-.176-.414-.168-.422-.144-.422-.137-.438-.117-.433-.094-.453-.09-.45-.062-.457-.043-.468-.032-.465-.007H26.336Zm0 0"/>
  <path d="M163.782 196.083c-5.324 0-10.62-.168-15.89-.5-5.274-.324-10.75-1.093-16.438-2.312V99.224c4.469-.832 9.363-1.457 14.688-1.875 5.32-.426 10.265-.64 14.828-.64 6.164 0 11.836.445 17.015 1.327 5.176.887 9.63 2.403 13.36 4.547 3.726 2.149 6.644 4.969 8.75 8.469 2.101 3.5 3.156 7.82 3.156 12.953 0 7.742-3.734 13.852-11.203 18.328 6.156 2.336 10.351 5.508 12.594 9.516 2.238 4.012 3.359 8.539 3.359 13.578 0 10.168-3.711 17.82-11.125 22.953-7.418 5.137-18.45 7.703-33.094 7.703Zm-11.062-43.531v25.047a76.86 76.86 0 0 0 5.172.422c1.875.094 3.93.14 6.171.14 6.532 0 11.801-.93 15.813-2.796 4.008-1.864 6.016-5.317 6.016-10.36 0-4.476-1.684-7.672-5.047-9.578-3.356-1.914-8.157-2.875-14.407-2.875Zm0-16.656h10.64c6.72 0 11.52-.86 14.407-2.578 2.894-1.727 4.343-4.508 4.343-8.344 0-3.914-1.496-6.664-4.484-8.25-2.98-1.582-7.367-2.375-13.156-2.375-1.867 0-3.871.027-6.016.078-2.148.043-4.059.156-5.734.344Zm92.238 58.922h-20.86v-73.61h20.86Zm1.953-94.891c0 3.824-1.242 6.836-3.719 9.031-2.468 2.188-5.382 3.282-8.734 3.282-3.367 0-6.281-1.094-8.75-3.282-2.469-2.195-3.703-5.207-3.703-9.031 0-3.82 1.234-6.828 3.703-9.016 2.469-2.195 5.383-3.296 8.75-3.296 3.352 0 6.266 1.101 8.734 3.296 2.477 2.188 3.72 5.196 3.72 9.016ZM121.338 266.02c-1.524 0-3.04-.047-4.547-.14a32.455 32.455 0 0 1-4.687-.657v-26.875c1.28-.25 2.68-.43 4.203-.547 1.52-.125 2.93-.187 4.234-.187 1.758 0 3.379.133 4.86.39 1.476.25 2.75.684 3.812 1.297 1.07.618 1.906 1.422 2.5 2.422.601 1 .906 2.235.906 3.703 0 2.211-1.07 3.954-3.203 5.235 1.758.668 2.957 1.574 3.594 2.719.644 1.148.969 2.437.969 3.875 0 2.906-1.063 5.093-3.188 6.562-2.117 1.469-5.266 2.203-9.453 2.203Zm-3.156-12.437v7.156c.445.055.937.094 1.468.125.54.023 1.13.031 1.766.031 1.863 0 3.367-.265 4.516-.797 1.156-.531 1.734-1.515 1.734-2.953 0-1.281-.484-2.191-1.453-2.734-.961-.551-2.328-.828-4.11-.828Zm0-4.766h3.03c1.927 0 3.302-.242 4.126-.734.832-.489 1.25-1.282 1.25-2.375 0-1.125-.43-1.91-1.281-2.36-.856-.457-2.11-.687-3.766-.687-.531 0-1.105.011-1.719.031-.617.012-1.164.043-1.64.094Zm26.364 16.843h-5.969v-21.046h5.969Zm.547-27.124c0 1.094-.356 1.96-1.063 2.594-.699.625-1.527.937-2.484.937-.969 0-1.809-.312-2.516-.937-.699-.633-1.047-1.5-1.047-2.594 0-1.094.348-1.953 1.047-2.578.707-.625 1.547-.938 2.516-.938.957 0 1.785.313 2.484.938.707.625 1.063 1.484 1.063 2.578Zm11.091 22.844c1.094 0 1.863-.102 2.312-.313.457-.219.688-.633.688-1.25 0-.477-.297-.895-.89-1.25-.587-.363-1.477-.77-2.673-1.219a29.646 29.646 0 0 1-2.546-1.078c-.762-.375-1.407-.82-1.938-1.344a5.38 5.38 0 0 1-1.234-1.859c-.293-.727-.438-1.598-.438-2.61 0-1.968.727-3.523 2.188-4.671 1.468-1.145 3.484-1.719 6.047-1.719 1.28 0 2.503.117 3.671.344 1.176.219 2.114.465 2.813.734l-1.047 4.64a21.726 21.726 0 0 0-2.266-.64c-.812-.187-1.726-.281-2.734-.281-1.867 0-2.797.523-2.797 1.562 0 .243.035.454.11.641.082.188.242.371.484.547.238.168.566.351.984.547.414.199.942.418 1.578.656 1.313.48 2.395.953 3.25 1.422.852.469 1.524.98 2.016 1.531a4.717 4.717 0 0 1 1.031 1.813c.207.668.313 1.437.313 2.312 0 2.086-.781 3.664-2.344 4.735-1.562 1.062-3.773 1.593-6.625 1.593-1.867 0-3.418-.164-4.656-.484-1.242-.32-2.102-.586-2.578-.797l1-4.844c1.007.407 2.047.727 3.109.953a15.82 15.82 0 0 0 3.172.329Zm24.916-6.875c0-1.926-.25-3.286-.75-4.079-.493-.8-1.337-1.203-2.532-1.203-.375 0-.766.024-1.172.063-.398.043-.777.09-1.14.14v16.235h-5.97v-20.313a37.888 37.888 0 0 1 3.938-.813c.758-.124 1.54-.218 2.344-.28.8-.07 1.586-.11 2.36-.11 1.519 0 2.753.195 3.703.578.945.387 1.726.844 2.343 1.375.852-.613 1.832-1.093 2.938-1.437 1.101-.344 2.125-.516 3.062-.516 1.676 0 3.051.235 4.125.703 1.082.461 1.942 1.117 2.578 1.969.645.855 1.086 1.871 1.329 3.047.238 1.168.359 2.476.359 3.922v11.875h-5.953v-11.156c0-1.926-.25-3.286-.75-4.079-.492-.8-1.336-1.203-2.531-1.203-.325 0-.774.086-1.344.25-.574.157-1.047.356-1.422.594.187.605.305 1.25.36 1.938.05.68.077 1.402.077 2.171v11.485H181.1Zm40.885 10.437c-1.023.293-2.336.563-3.937.813a31.61 31.61 0 0 1-5.031.39c-1.782 0-3.266-.242-4.454-.719-1.187-.476-2.132-1.148-2.828-2.015-.687-.875-1.183-1.91-1.484-3.11-.293-1.195-.438-2.515-.438-3.953v-11.734h5.97v11c0 1.93.25 3.32.75 4.172.507.855 1.456 1.281 2.843 1.281.426 0 .879-.02 1.36-.062.476-.04.906-.086 1.28-.141v-16.25h5.97Zm5.388-25.562 5.969-.954v6.188h7.156v4.969h-7.156v7.39c0 1.262.219 2.266.656 3.016.438.742 1.32 1.11 2.657 1.11.644 0 1.304-.055 1.984-.173a11.011 11.011 0 0 0 1.86-.5l.843 4.641a16.18 16.18 0 0 1-2.406.75c-.875.219-1.953.328-3.235.328-1.625 0-2.976-.219-4.046-.656-1.063-.445-1.918-1.063-2.563-1.844-.637-.789-1.086-1.742-1.344-2.86-.25-1.124-.375-2.363-.375-3.718Zm17.963 26.28v-30.077l5.969-.97v10.095c.395-.133.906-.258 1.531-.375a9.311 9.311 0 0 1 1.828-.188c1.707 0 3.125.235 4.25.703 1.133.461 2.04 1.117 2.72 1.969.687.855 1.163 1.871 1.437 3.047.28 1.168.422 2.476.422 3.922v11.875h-5.954v-11.156c0-1.926-.25-3.286-.75-4.079-.492-.8-1.402-1.203-2.734-1.203-.531 0-1.031.047-1.5.14a17.48 17.48 0 0 0-1.25.298v16Zm-88.352 42.228a7.27 7.27 0 0 1-.61 2.922c-.398.93-.918 1.828-1.562 2.703-.637.867-1.356 1.7-2.157 2.5a122.18 122.18 0 0 1-2.359 2.266c-.398.375-.828.797-1.297 1.265a34.866 34.866 0 0 0-2.484 2.766c-.336.406-.54.746-.61 1.016h11.922v5h-18.484a6.209 6.209 0 0 1-.078-1.11v-.969c0-1.28.203-2.453.61-3.515.413-1.07.956-2.067 1.624-2.985a19.415 19.415 0 0 1 2.25-2.578c.844-.8 1.68-1.601 2.516-2.406.633-.613 1.234-1.191 1.797-1.734a20.189 20.189 0 0 0 1.484-1.61 7.557 7.557 0 0 0 1-1.547c.238-.52.36-1.05.36-1.593 0-1.164-.336-1.989-1-2.469-.669-.477-1.497-.719-2.485-.719-.719 0-1.398.117-2.031.344-.625.219-1.2.484-1.719.797-.512.305-.953.61-1.328.922a11.86 11.86 0 0 0-.844.734l-2.953-4.156c1.164-1.094 2.531-1.992 4.094-2.703a12.025 12.025 0 0 1 5.015-1.063c1.625 0 3.024.188 4.204.563 1.175.375 2.144.902 2.906 1.578a6.077 6.077 0 0 1 1.672 2.484c.363.969.547 2.07.547 3.297Zm24.235 6.516c0 4.668-.887 8.25-2.656 10.75-1.774 2.492-4.219 3.734-7.344 3.734-3.117 0-5.562-1.242-7.344-3.734-1.773-2.5-2.656-6.082-2.656-10.75 0-2.32.234-4.375.703-6.157.469-1.789 1.14-3.296 2.016-4.515.883-1.227 1.937-2.16 3.156-2.797 1.227-.645 2.602-.969 4.125-.969 3.125 0 5.57 1.25 7.344 3.75 1.77 2.492 2.656 6.055 2.656 10.688Zm-6.078 0c0-1.383-.07-2.645-.203-3.782-.137-1.132-.352-2.113-.64-2.937-.294-.82-.696-1.457-1.204-1.906-.5-.457-1.125-.688-1.875-.688s-1.371.23-1.86.688c-.492.449-.89 1.086-1.202 1.906-.305.824-.524 1.805-.657 2.937a31.88 31.88 0 0 0-.203 3.782c0 1.386.067 2.652.203 3.797.133 1.148.352 2.136.657 2.968.312.825.71 1.465 1.203 1.922.488.45 1.109.672 1.859.672s1.375-.223 1.875-.672c.508-.457.91-1.097 1.203-1.922.29-.832.504-1.82.64-2.968a32.79 32.79 0 0 0 .204-3.797Zm28.642 6.203c0 1.2-.211 2.297-.625 3.297a7.383 7.383 0 0 1-1.86 2.625c-.824.742-1.855 1.32-3.094 1.734-1.242.414-2.68.625-4.312.625-1.867 0-3.418-.262-4.656-.781-1.242-.52-2.242-1.164-3-1.938-.762-.77-1.305-1.613-1.625-2.53-.313-.927-.469-1.774-.469-2.548 0-.8.102-1.535.312-2.203a7.28 7.28 0 0 1 .875-1.812 9.357 9.357 0 0 1 1.266-1.5c.469-.457.969-.891 1.5-1.297-1.148-.926-1.996-1.844-2.547-2.75-.543-.907-.812-2.067-.812-3.485 0-1.062.218-2.086.656-3.078a7.863 7.863 0 0 1 1.86-2.578c.8-.738 1.769-1.328 2.906-1.766 1.132-.437 2.394-.656 3.78-.656 1.626 0 3.016.235 4.173.703 1.164.47 2.117 1.063 2.86 1.782.75.718 1.288 1.527 1.624 2.421.332.887.5 1.774.5 2.657 0 1.281-.34 2.476-1.016 3.578-.68 1.105-1.527 1.98-2.546 2.625 1.52.98 2.609 2.012 3.265 3.094.656 1.086.985 2.343.985 3.78Zm-13.844.234c0 .324.07.68.219 1.063.144.386.379.742.703 1.062.32.324.734.594 1.234.813.508.21 1.125.312 1.844.312 1.383 0 2.394-.332 3.031-1 .645-.664.969-1.414.969-2.25 0-.613-.14-1.16-.422-1.64a4.266 4.266 0 0 0-1.14-1.25 8.103 8.103 0 0 0-1.704-.97 23.084 23.084 0 0 0-2.094-.78 8.21 8.21 0 0 0-1.89 1.968c-.5.743-.75 1.633-.75 2.672Zm7.406-13.156a2.7 2.7 0 0 0-.187-.938 2.6 2.6 0 0 0-.594-.937 3.586 3.586 0 0 0-1.063-.734c-.43-.207-.949-.313-1.562-.313-.586 0-1.09.094-1.516.281-.43.188-.781.438-1.062.75a3.06 3.06 0 0 0-.625.97 2.693 2.693 0 0 0-.203 1c0 .855.312 1.655.937 2.405.633.743 1.711 1.383 3.234 1.922.852-.539 1.504-1.156 1.954-1.844.457-.695.687-1.55.687-2.562Zm16.595 17.485c0 1.199-.383 2.109-1.14 2.734-.762.625-1.622.937-2.579.937-.96 0-1.82-.312-2.578-.937-.762-.625-1.14-1.535-1.14-2.735 0-1.195.378-2.109 1.14-2.734.758-.633 1.617-.953 2.578-.953.957 0 1.817.32 2.578.953.758.625 1.14 1.539 1.14 2.734Zm12.762-11.72c.613 0 1.254-.054 1.922-.171.664-.125 1.156-.297 1.468-.516v-.36c0-.1.004-.206.016-.312a1.75 1.75 0 0 0 .031-.281 22.022 22.022 0 0 0-.25-2.703c-.125-.844-.351-1.578-.672-2.203a3.775 3.775 0 0 0-1.312-1.469c-.543-.363-1.211-.547-2-.547-.649 0-1.211.137-1.688.406-.48.262-.867.606-1.156 1.032-.293.43-.512.898-.656 1.406-.149.5-.219.992-.219 1.469 0 1.449.348 2.523 1.047 3.218.707.688 1.863 1.032 3.469 1.032Zm2.922 3.876a7.221 7.221 0 0 1-1.875.593c-.68.118-1.258.172-1.735.172-1.73 0-3.21-.207-4.437-.625-1.23-.414-2.242-1.004-3.032-1.765a6.998 6.998 0 0 1-1.734-2.735c-.367-1.062-.547-2.234-.547-3.515 0-1.07.176-2.164.531-3.282a9.002 9.002 0 0 1 1.704-3.062c.77-.914 1.75-1.676 2.937-2.281 1.188-.602 2.617-.907 4.297-.907 3.445 0 6.039 1.063 7.781 3.188 1.75 2.117 2.625 5.164 2.625 9.14 0 2.618-.344 4.922-1.031 6.922-.68 2-1.73 3.684-3.156 5.047-1.418 1.356-3.235 2.387-5.453 3.094-2.211.71-4.836 1.07-7.875 1.094a90.625 90.625 0 0 0-.125-2.469c-.055-.8-.106-1.629-.157-2.484 1.52-.032 2.891-.145 4.11-.344 1.226-.195 2.304-.531 3.234-1a7.477 7.477 0 0 0 2.39-1.86c.657-.77 1.173-1.742 1.548-2.921ZM58.703 68.53c0 1.2-.21 2.298-.625 3.298a7.383 7.383 0 0 1-1.86 2.625c-.823.742-1.855 1.32-3.093 1.734-1.242.414-2.68.625-4.312.625-1.868 0-3.418-.262-4.657-.781-1.242-.52-2.242-1.164-3-1.938-.761-.77-1.304-1.613-1.625-2.53-.312-.927-.468-1.774-.468-2.548 0-.8.101-1.535.312-2.203A7.28 7.28 0 0 1 40.25 65a9.357 9.357 0 0 1 1.266-1.5c.468-.457.968-.89 1.5-1.297-1.149-.926-1.996-1.844-2.547-2.75-.543-.906-.813-2.067-.813-3.485 0-1.062.219-2.086.657-3.078a7.863 7.863 0 0 1 1.859-2.578c.8-.738 1.77-1.328 2.906-1.765 1.133-.438 2.395-.657 3.781-.657 1.625 0 3.016.235 4.172.703 1.164.47 2.117 1.063 2.86 1.782.75.718 1.289 1.527 1.625 2.422.332.886.5 1.773.5 2.656 0 1.281-.34 2.476-1.016 3.578-.68 1.105-1.527 1.98-2.547 2.625 1.52.98 2.61 2.012 3.266 3.094.656 1.086.984 2.343.984 3.78Zm-13.844.235c0 .325.07.68.22 1.063.144.387.378.742.702 1.062.32.325.735.594 1.235.813.507.21 1.125.312 1.843.312 1.383 0 2.395-.332 3.032-1 .644-.664.968-1.414.968-2.25 0-.613-.14-1.16-.421-1.64a4.266 4.266 0 0 0-1.141-1.25 8.103 8.103 0 0 0-1.703-.97 23.084 23.084 0 0 0-2.094-.78 8.21 8.21 0 0 0-1.89 1.968c-.5.743-.75 1.633-.75 2.672Zm7.407-13.156a2.7 2.7 0 0 0-.188-.937 2.6 2.6 0 0 0-.594-.938A3.586 3.586 0 0 0 50.422 53c-.43-.207-.95-.313-1.563-.313-.586 0-1.09.094-1.515.281-.43.188-.781.438-1.063.75a3.06 3.06 0 0 0-.625.97 2.713 2.713 0 0 0-.203 1c0 .855.313 1.655.938 2.405.632.743 1.71 1.383 3.234 1.922.852-.539 1.504-1.156 1.953-1.843.457-.696.688-1.551.688-2.563Zm17.077 21.234c-.719 0-1.48-.046-2.282-.14a26.337 26.337 0 0 1-2.328-.375 23.58 23.58 0 0 1-2.03-.516 12.157 12.157 0 0 1-1.438-.515l1.156-4.97c.687.294 1.57.606 2.656.938 1.082.336 2.422.5 4.016.5 1.843 0 3.191-.343 4.047-1.03.851-.696 1.28-1.63 1.28-2.798 0-.726-.155-1.336-.468-1.828a3.48 3.48 0 0 0-1.25-1.187c-.531-.313-1.168-.524-1.906-.641a13.9 13.9 0 0 0-2.344-.188H66.14v-4.796h2.64c.582 0 1.145-.051 1.688-.157a4.833 4.833 0 0 0 1.468-.547 2.87 2.87 0 0 0 1.016-1.046c.258-.438.39-.989.39-1.657 0-.508-.109-.945-.327-1.312a2.85 2.85 0 0 0-.813-.922 3.576 3.576 0 0 0-1.172-.531 4.826 4.826 0 0 0-1.328-.188c-1.148 0-2.21.172-3.187.516a13.17 13.17 0 0 0-2.657 1.281l-2.125-4.36a18.8 18.8 0 0 1 1.5-.843c.57-.29 1.203-.555 1.891-.797a17.344 17.344 0 0 1 2.219-.594c.789-.164 1.629-.25 2.515-.25 1.625 0 3.032.196 4.22.578 1.187.387 2.163.934 2.937 1.641a6.73 6.73 0 0 1 1.718 2.484c.375.95.563 1.98.563 3.094 0 1.094-.309 2.156-.922 3.188a6.097 6.097 0 0 1-2.469 2.328c1.438.594 2.547 1.469 3.328 2.625.79 1.156 1.188 2.554 1.188 4.187 0 1.282-.215 2.465-.64 3.547a7.223 7.223 0 0 1-2 2.797c-.907.781-2.063 1.39-3.47 1.828-1.398.438-3.054.656-4.968.656Zm0 0"/>
</svg>
