<svg xmlns="http://www.w3.org/2000/svg" version="1.2" viewBox="0 0 375 375">
  <path d="M205.839 97.834h21.828v96.984h-21.828v-41.14h-36.672v41.14h-21.828V97.834h21.828v37.078h36.672Zm-92.036 140.07h6.234v27.718h-6.234v-11.765H103.32v11.765h-6.235v-27.718h6.235v10.593h10.484Zm30.922 6.671a179.936 179.936 0 0 1-3.765 11.422 134.912 134.912 0 0 1-4.281 10.313c-.563 1.195-1.125 2.21-1.688 3.047-.555.843-1.164 1.535-1.828 2.078a6.367 6.367 0 0 1-2.266 1.203c-.836.258-1.812.39-2.937.39-.938 0-1.805-.09-2.594-.265-.781-.18-1.422-.371-1.922-.578l1.031-4.766a9.086 9.086 0 0 0 3.172.563c1.063 0 1.88-.29 2.453-.86.57-.574 1.055-1.367 1.454-2.375-1.356-2.664-2.715-5.66-4.079-8.984-1.355-3.32-2.632-7.05-3.828-11.188h6.313c.27 1.043.582 2.172.937 3.391.364 1.21.742 2.434 1.14 3.672.407 1.242.813 2.45 1.22 3.625.414 1.18.812 2.246 1.187 3.203.344-.957.703-2.023 1.078-3.203a126.15 126.15 0 0 0 1.094-3.625c.363-1.238.711-2.461 1.047-3.672a172.3 172.3 0 0 0 .89-3.39Zm8.271 10.36c0 1.844.41 3.328 1.234 4.453.832 1.117 2.063 1.672 3.688 1.672.531 0 1.02-.02 1.468-.063a13.07 13.07 0 0 0 1.141-.14v-10.828c-.375-.239-.867-.438-1.469-.594a6.786 6.786 0 0 0-1.812-.25c-2.836 0-4.25 1.918-4.25 5.75Zm13.484 10c-.531.168-1.148.324-1.844.469-.687.148-1.414.269-2.171.375a43.77 43.77 0 0 1-2.329.25c-.78.07-1.53.109-2.25.109-1.742 0-3.293-.25-4.656-.75-1.355-.508-2.5-1.238-3.437-2.188-.93-.945-1.64-2.093-2.14-3.437-.493-1.344-.735-2.86-.735-4.547 0-1.695.21-3.234.64-4.61.426-1.374 1.04-2.538 1.844-3.5a7.998 7.998 0 0 1 2.938-2.202c1.156-.508 2.484-.766 3.984-.766.82 0 1.562.086 2.219.25.656.156 1.316.383 1.984.672v-9.516l5.953-.969Zm18.285-15.078a68.408 68.408 0 0 0-1.89-.407 10.891 10.891 0 0 0-2.313-.234c-.375 0-.824.04-1.344.11-.523.062-.914.136-1.172.218v16.078h-5.968V245.7c1.07-.375 2.332-.726 3.78-1.062 1.458-.332 3.079-.5 4.86-.5.32 0 .707.023 1.156.062.457.043.91.102 1.36.172.457.063.91.14 1.36.235.456.093.847.203 1.171.328Zm23.88 5.203c0 1.656-.242 3.172-.719 4.547-.48 1.375-1.18 2.547-2.094 3.515a9.505 9.505 0 0 1-3.265 2.266c-1.262.531-2.68.797-4.25.797-1.543 0-2.95-.266-4.219-.797a9.656 9.656 0 0 1-3.266-2.266c-.906-.968-1.617-2.14-2.125-3.515-.5-1.375-.75-2.891-.75-4.547 0-1.656.258-3.16.782-4.516.52-1.363 1.238-2.523 2.156-3.484a9.81 9.81 0 0 1 3.281-2.235c1.27-.53 2.649-.796 4.14-.796 1.52 0 2.91.265 4.173.796a9.48 9.48 0 0 1 3.265 2.235c.907.96 1.614 2.12 2.125 3.484.508 1.356.766 2.86.766 4.516Zm-6.078 0c0-1.832-.371-3.274-1.11-4.328-.73-1.063-1.777-1.594-3.14-1.594-1.356 0-2.406.531-3.156 1.594-.75 1.054-1.125 2.496-1.125 4.328 0 1.844.375 3.308 1.125 4.39.75 1.075 1.8 1.61 3.156 1.61 1.363 0 2.41-.535 3.14-1.61.739-1.082 1.11-2.546 1.11-4.39Zm15.748-.64c0 3.335 1.348 5 4.047 5 .613 0 1.188-.079 1.719-.235a6.99 6.99 0 0 0 1.36-.563v-9.515a14.002 14.002 0 0 0-2.438-.203c-1.574 0-2.75.523-3.531 1.562-.774 1.043-1.157 2.36-1.157 3.953Zm13.078 8.562c0 3.437-.875 5.988-2.625 7.656-1.742 1.664-4.437 2.5-8.093 2.5a22.04 22.04 0 0 1-3.844-.344 22.844 22.844 0 0 1-3.547-.89l1.031-5a17.26 17.26 0 0 0 2.938.875c1.031.218 2.195.328 3.5.328 1.707 0 2.914-.375 3.625-1.125.707-.75 1.062-1.707 1.062-2.875v-.766a9.312 9.312 0 0 1-1.984.656c-.68.149-1.418.219-2.219.219-2.906 0-5.137-.86-6.687-2.578-1.543-1.719-2.313-4.125-2.313-7.219 0-1.539.238-2.941.719-4.203a8.941 8.941 0 0 1 2.094-3.266c.925-.914 2.054-1.617 3.39-2.109 1.332-.488 2.836-.734 4.516-.734.719 0 1.457.039 2.219.109a43.65 43.65 0 0 1 2.265.25c.75.105 1.461.23 2.14.375a22.71 22.71 0 0 1 1.813.469Zm4.604-7.719c0-1.863.285-3.492.86-4.89.57-1.407 1.32-2.571 2.25-3.5a9.42 9.42 0 0 1 3.218-2.126 10.218 10.218 0 0 1 3.75-.718c2.988 0 5.348.914 7.078 2.734 1.739 1.824 2.61 4.512 2.61 8.062 0 .344-.016.727-.047 1.141a30.68 30.68 0 0 1-.078 1.094h-13.516c.133 1.23.707 2.203 1.719 2.922 1.008.718 2.367 1.078 4.078 1.078 1.094 0 2.164-.098 3.219-.297 1.05-.195 1.91-.442 2.578-.734l.797 4.828c-.313.168-.743.328-1.282.484-.53.156-1.125.29-1.78.406-.65.125-1.345.227-2.095.313a20.29 20.29 0 0 1-2.234.125c-1.898 0-3.547-.281-4.953-.844-1.399-.562-2.555-1.328-3.469-2.297a9.279 9.279 0 0 1-2.047-3.469c-.437-1.332-.656-2.77-.656-4.312Zm14-2.281a5.617 5.617 0 0 0-.266-1.485 3.573 3.573 0 0 0-1.828-2.188c-.469-.25-1.054-.374-1.75-.374-.668 0-1.242.117-1.719.344a3.6 3.6 0 0 0-1.203.906 4.268 4.268 0 0 0-.734 1.297 9.159 9.159 0 0 0-.375 1.5Zm10.36-7.672c1.008-.301 2.316-.578 3.922-.828a32.722 32.722 0 0 1 5.047-.375c1.78 0 3.265.234 4.453.703 1.187.46 2.125 1.117 2.812 1.969.695.855 1.192 1.87 1.485 3.046.289 1.168.437 2.477.437 3.922v11.875h-5.953v-11.156c0-1.926-.258-3.285-.766-4.078-.5-.8-1.445-1.203-2.828-1.203-.43 0-.887.023-1.375.062-.48.043-.902.09-1.265.14v16.235h-5.97Zm-120.42 61.112c.77-.32 1.578-.692 2.422-1.11.843-.414 1.66-.867 2.453-1.359a30.39 30.39 0 0 0 2.297-1.547 15.52 15.52 0 0 0 1.984-1.75h4.172v27.719h-5.969v-19.953a18.49 18.49 0 0 1-2.687 1.453c-.98.437-1.938.82-2.875 1.14Zm28.563 18.797c0 1.199-.383 2.11-1.14 2.734-.762.625-1.621.938-2.578.938-.961 0-1.82-.313-2.579-.938-.761-.625-1.14-1.535-1.14-2.734 0-1.196.379-2.11 1.14-2.735.758-.632 1.618-.953 2.579-.953.957 0 1.816.32 2.578.953.757.625 1.14 1.54 1.14 2.735Zm22.559-10.766c0 4.668-.887 8.25-2.656 10.75-1.774 2.492-4.219 3.734-7.344 3.734-3.117 0-5.563-1.242-7.344-3.734-1.773-2.5-2.656-6.082-2.656-10.75 0-2.32.234-4.375.703-6.156.469-1.79 1.14-3.297 2.016-4.516.883-1.226 1.937-2.16 3.156-2.797 1.227-.644 2.602-.968 4.125-.968 3.125 0 5.57 1.25 7.344 3.75 1.77 2.492 2.656 6.054 2.656 10.687Zm-6.078 0c0-1.383-.07-2.644-.203-3.781-.137-1.133-.352-2.113-.64-2.938-.294-.82-.696-1.457-1.204-1.906-.5-.457-1.125-.687-1.875-.687s-1.371.23-1.86.687c-.492.45-.89 1.086-1.203 1.906-.304.825-.523 1.805-.656 2.938a31.88 31.88 0 0 0-.203 3.781c0 1.387.066 2.652.203 3.797.133 1.148.352 2.137.656 2.969.313.824.711 1.465 1.204 1.922.488.449 1.109.671 1.859.671s1.375-.222 1.875-.671c.508-.457.91-1.098 1.203-1.922.29-.832.504-1.82.64-2.969a32.79 32.79 0 0 0 .204-3.797Zm28.798 0c0 4.668-.887 8.25-2.656 10.75-1.774 2.492-4.22 3.734-7.344 3.734-3.117 0-5.563-1.242-7.344-3.734-1.773-2.5-2.656-6.082-2.656-10.75 0-2.32.234-4.375.703-6.156.469-1.79 1.14-3.297 2.016-4.516.882-1.226 1.937-2.16 3.156-2.797 1.226-.644 2.601-.968 4.125-.968 3.125 0 5.57 1.25 7.344 3.75 1.77 2.492 2.656 6.054 2.656 10.687Zm-6.078 0c0-1.383-.07-2.644-.203-3.781-.137-1.133-.352-2.113-.641-2.938-.293-.82-.695-1.457-1.203-1.906-.5-.457-1.125-.687-1.875-.687s-1.371.23-1.86.687c-.492.45-.89 1.086-1.203 1.906-.304.825-.523 1.805-.656 2.938a31.88 31.88 0 0 0-.203 3.781c0 1.387.066 2.652.203 3.797.133 1.148.352 2.137.656 2.969.313.824.711 1.465 1.203 1.922.489.449 1.11.671 1.86.671s1.375-.222 1.875-.671c.508-.457.91-1.098 1.203-1.922.289-.832.504-1.82.64-2.969.133-1.145.204-2.41.204-3.797Zm28.641 6.203c0 1.2-.21 2.297-.625 3.297a7.383 7.383 0 0 1-1.859 2.625c-.824.742-1.855 1.32-3.094 1.734-1.242.415-2.68.625-4.312.625-1.867 0-3.418-.261-4.657-.78-1.242-.52-2.242-1.165-3-1.938-.761-.77-1.304-1.614-1.625-2.532-.312-.925-.468-1.773-.468-2.546 0-.801.101-1.536.312-2.204a7.28 7.28 0 0 1 .875-1.812c.375-.55.797-1.05 1.266-1.5.469-.457.969-.89 1.5-1.297-1.149-.926-1.996-1.844-2.547-2.75-.543-.906-.813-2.066-.813-3.484 0-1.063.22-2.086.657-3.078a7.863 7.863 0 0 1 1.86-2.579c.8-.738 1.769-1.328 2.905-1.765 1.133-.438 2.395-.656 3.782-.656 1.625 0 3.015.234 4.171.703 1.165.468 2.118 1.062 2.86 1.781.75.719 1.289 1.527 1.625 2.422.332.887.5 1.773.5 2.656 0 1.281-.34 2.477-1.016 3.578-.68 1.106-1.527 1.98-2.547 2.625 1.52.98 2.61 2.012 3.266 3.094.656 1.086.984 2.344.984 3.781Zm-13.843.235c0 .324.07.68.218 1.062.145.387.38.742.703 1.063.32.324.735.593 1.235.812.508.211 1.125.313 1.844.313 1.382 0 2.394-.332 3.03-1 .645-.664.97-1.414.97-2.25 0-.614-.141-1.16-.422-1.641a4.266 4.266 0 0 0-1.14-1.25 8.103 8.103 0 0 0-1.704-.969 23.084 23.084 0 0 0-2.094-.781 8.21 8.21 0 0 0-1.89 1.969c-.5.742-.75 1.633-.75 2.672Zm7.406-13.157a2.7 2.7 0 0 0-.188-.937 2.6 2.6 0 0 0-.593-.938 3.586 3.586 0 0 0-1.063-.734c-.43-.207-.95-.313-1.562-.313-.586 0-1.09.094-1.516.282a3.03 3.03 0 0 0-1.063.75 3.06 3.06 0 0 0-.625.968c-.136.344-.203.68-.203 1 0 .856.313 1.657.938 2.407.633.742 1.71 1.383 3.234 1.922.852-.54 1.504-1.157 1.953-1.844.457-.695.688-1.55.688-2.563ZM40.297 54.297c.77-.32 1.578-.692 2.422-1.11.844-.414 1.66-.867 2.453-1.359a30.39 30.39 0 0 0 2.297-1.547 15.52 15.52 0 0 0 1.984-1.75h4.172V76.25h-5.969V56.297a18.386 18.386 0 0 1-2.687 1.453c-.98.437-1.938.82-2.875 1.14Zm0 0"/>
  <path d="m355.762 10.207.453.043.441.063.442.085.43.094.429.113.414.137.414.14.406.165.395.172.387.195.386.207.364.223.363.234.351.242.344.266.328.27.32.285.31.3.3.309.285.32.27.328.258.344.25.352.234.363.223.363.199.387.195.387.176.398.168.403.14.414.137.421.106.422.101.434.078.437.067.45.047.449.03.453.005.465v334.933l-.004.461-.031.457-.047.45-.067.441-.078.438-.101.433-.106.43-.137.414-.14.414-.168.41-.176.39-.195.387-.2.38-.222.37-.234.364-.25.351-.258.344-.27.328-.285.32-.3.31-.31.3-.32.285-.328.27-.344.257-.351.25-.363.239-.364.214-.386.207-.387.192-.395.18-.406.164-.414.14-.414.13-.43.116-.43.098-.44.078-.442.067-.453.05-.457.028-.457.007H19.91l-.457-.007-.457-.028-.45-.05-.448-.067-.438-.078-.433-.098-.422-.117-.422-.129-.414-.14-.403-.164-.398-.18-.387-.192-.379-.207-.37-.214-.364-.239-.352-.25-.343-.257-.328-.27-.32-.285-.31-.3-.3-.31-.285-.32-.27-.328-.258-.344-.25-.351-.238-.364-.219-.37-.207-.38-.187-.386-.18-.39-.164-.411-.14-.414-.137-.414-.114-.43-.093-.433-.086-.438-.059-.441-.05-.45-.028-.457-.008-.46V21.34l.008-.465.027-.453.051-.45.059-.449.086-.437.093-.434.114-.422.136-.421.141-.414.164-.403.18-.398.187-.387.207-.387.22-.363.237-.363.25-.352.258-.344.27-.328.285-.32.3-.309.31-.3.32-.286.328-.27.343-.265.352-.242.363-.234.371-.223.38-.207.386-.195.398-.172.403-.164.414-.14.422-.138.422-.113.433-.094.438-.085.449-.063.45-.043.456-.031.457-.004h334.938l.457.004ZM28.187 18.914l-.457.031-.453.043-.441.063-.445.086-.426.093-.43.114-.422.136-.406.145-.41.164-.39.172-.395.191-.38.207-.37.223-.356.234-.351.243-.344.265-.328.27-.32.289-.31.297-.3.308-.285.32-.27.333-.265.34-.242.351-.239.355-.218.375-.207.375-.188.395-.18.395-.164.406-.14.406-.137.422-.113.43-.094.43-.086.44-.059.442-.046.453-.032.457-.008.457v317.465l.008.457.032.457.046.453.059.442.086.437.094.434.113.43.137.414.14.414.164.406.18.394.188.387.207.38.218.37.239.363.242.352.265.344.27.328.285.32.3.309.31.3.32.286.328.27.344.257.351.25.356.238.37.211.38.207.394.196.39.18.411.163.406.141.422.129.43.113.426.102.445.078.441.066.453.047.457.031.458.008h317.464l.457-.008.457-.03.454-.048.441-.066.441-.078.43-.102.43-.113.414-.129.414-.14.406-.165.395-.18.386-.195.383-.207.367-.21.364-.239.351-.25.34-.258.332-.27.32-.284.309-.301.297-.309.289-.32.27-.328.257-.344.25-.352.235-.363.222-.37.2-.38.195-.387.176-.394.164-.406.144-.414.137-.414.105-.43.102-.434.078-.437.063-.442.05-.453.032-.457.004-.457V30.07l-.004-.457-.032-.457-.05-.453-.063-.441-.078-.442-.102-.43-.105-.43-.137-.42-.144-.407-.164-.406-.176-.395-.195-.395-.2-.375-.222-.375-.235-.355-.25-.352-.258-.34-.27-.331-.288-.32-.297-.31-.309-.296-.32-.29-.332-.269-.34-.265-.351-.243-.364-.234-.367-.223-.383-.207-.386-.191-.395-.172-.406-.164-.414-.145-.414-.136-.43-.114-.43-.093-.441-.086-.441-.063-.454-.043-.457-.03-.457-.005H28.645Zm0 0"/>
</svg>
