<svg xmlns="http://www.w3.org/2000/svg" version="1.2" viewBox="0 0 375 375">
  <path d="M164.97 97.834h21.83v96.984h-21.83v-41.14h-36.672v41.14H106.47V97.834h21.828v37.078h36.672Zm39.323 60.734c0-6.531 1-12.242 3-17.14 2.007-4.895 4.644-8.973 7.906-12.235 3.27-3.27 7.023-5.742 11.265-7.422 4.25-1.687 8.614-2.531 13.094-2.531 10.446 0 18.703 3.2 24.766 9.594 6.07 6.386 9.11 15.789 9.11 28.203 0 1.21-.048 2.539-.141 3.984-.094 1.45-.188 2.73-.282 3.844H225.7c.469 4.293 2.472 7.7 6.015 10.219 3.551 2.523 8.313 3.78 14.282 3.78 3.82 0 7.578-.347 11.265-1.046 3.688-.695 6.696-1.563 9.032-2.594l2.796 16.938c-1.117.562-2.609 1.125-4.484 1.687-1.867.555-3.945 1.035-6.234 1.453a92.44 92.44 0 0 1-7.344 1.047 72.888 72.888 0 0 1-7.828.422c-6.625 0-12.387-.98-17.281-2.937-4.899-1.957-8.954-4.641-12.172-8.047-3.219-3.407-5.602-7.438-7.14-12.094-1.544-4.664-2.313-9.707-2.313-15.125Zm48.984-7.969a21.811 21.811 0 0 0-.906-5.187 12.915 12.915 0 0 0-2.375-4.469c-1.075-1.313-2.43-2.383-4.063-3.219-1.637-.844-3.668-1.265-6.094-1.265-2.335 0-4.34.398-6.015 1.187-1.68.793-3.078 1.844-4.203 3.156-1.117 1.305-1.98 2.82-2.594 4.547a29.716 29.716 0 0 0-1.328 5.25Zm-113.334 87.305h6.234v27.718h-6.234v-11.765h-10.484v11.765h-6.235v-27.718h6.235v10.593h10.484Zm11.235 17.359c0-1.863.285-3.492.86-4.89.57-1.407 1.32-2.571 2.25-3.5a9.42 9.42 0 0 1 3.218-2.126 10.218 10.218 0 0 1 3.75-.718c2.988 0 5.348.914 7.078 2.734 1.738 1.824 2.61 4.512 2.61 8.062 0 .344-.016.727-.048 1.141-.023.406-.046.773-.078 1.094h-13.515c.133 1.23.707 2.203 1.718 2.922 1.008.718 2.368 1.078 4.079 1.078 1.093 0 2.164-.098 3.218-.297 1.051-.195 1.91-.442 2.578-.734l.797 4.828c-.312.168-.742.328-1.28.484a16.71 16.71 0 0 1-1.782.406c-.649.125-1.344.227-2.094.313a20.29 20.29 0 0 1-2.234.125c-1.899 0-3.547-.281-4.953-.844-1.399-.562-2.555-1.328-3.47-2.297a9.279 9.279 0 0 1-2.046-3.469c-.438-1.332-.656-2.77-.656-4.312Zm14-2.281a5.617 5.617 0 0 0-.266-1.485 3.573 3.573 0 0 0-1.828-2.188c-.469-.25-1.055-.374-1.75-.374-.668 0-1.242.117-1.719.344-.48.23-.883.53-1.203.906a4.268 4.268 0 0 0-.734 1.297 9.159 9.159 0 0 0-.375 1.5Zm18.766 13.047c-1.742-.032-3.153-.22-4.235-.563-1.074-.352-1.921-.844-2.546-1.469a4.836 4.836 0 0 1-1.282-2.265c-.23-.895-.343-1.907-.343-3.032v-23.156l5.968-.969v22.922c0 .543.035 1.028.11 1.453.082.418.238.778.468 1.079.227.292.551.53.97.718.425.188 1.003.309 1.734.36Zm10.202-.407h-5.969v-21.047h5.97Zm.547-27.125c0 1.094-.355 1.961-1.062 2.594-.7.625-1.528.938-2.485.938-.969 0-1.808-.313-2.515-.938-.7-.633-1.047-1.5-1.047-2.594 0-1.093.347-1.953 1.047-2.578.707-.625 1.546-.937 2.515-.937.957 0 1.785.312 2.485.937.707.625 1.062 1.485 1.062 2.578Zm23.013 26.407c-1.023.292-2.336.562-3.937.812-1.594.258-3.274.39-5.032.39-1.78 0-3.265-.242-4.453-.718-1.187-.477-2.133-1.149-2.828-2.016-.687-.875-1.183-1.91-1.484-3.11-.293-1.194-.438-2.515-.438-3.952v-11.735h5.969v11c0 1.93.25 3.32.75 4.172.508.856 1.457 1.282 2.844 1.282.426 0 .879-.02 1.36-.063.476-.039.905-.086 1.28-.14v-16.25h5.97Zm17.154-10.438c0-1.926-.25-3.285-.75-4.078-.493-.8-1.336-1.203-2.532-1.203-.375 0-.765.023-1.171.062-.399.043-.778.09-1.141.14v16.235h-5.969V245.31a37.888 37.888 0 0 1 3.938-.813 27.649 27.649 0 0 1 2.343-.281c.801-.07 1.586-.11 2.36-.11 1.52 0 2.754.196 3.703.579.945.386 1.726.844 2.344 1.375.851-.614 1.832-1.094 2.937-1.438 1.102-.343 2.125-.515 3.063-.515 1.675 0 3.05.234 4.125.703 1.082.46 1.941 1.117 2.578 1.969.644.855 1.086 1.87 1.328 3.046.238 1.168.36 2.477.36 3.922v11.875h-5.954v-11.156c0-1.926-.25-3.285-.75-4.078-.492-.8-1.336-1.203-2.531-1.203-.324 0-.774.086-1.344.25-.574.156-1.047.355-1.422.594a8.9 8.9 0 0 1 .36 1.937c.05.68.078 1.402.078 2.172v11.484h-5.953Zm-84.955 53.471a247.352 247.352 0 0 0-3.328 4.438 31.341 31.341 0 0 0-2.953 4.922h6.281Zm5.829-7.28v16.64h2.968v4.875h-2.968v6.203h-5.829v-6.203h-11.968v-4.36a74.056 74.056 0 0 1 2.203-3.968 69.398 69.398 0 0 1 2.937-4.563 80.118 80.118 0 0 1 3.422-4.578 48.177 48.177 0 0 1 3.594-4.047Zm12.766 24.562c0 1.199-.383 2.11-1.14 2.734-.762.625-1.621.938-2.578.938-.961 0-1.82-.313-2.579-.938-.761-.625-1.14-1.535-1.14-2.734 0-1.196.379-2.11 1.14-2.735.758-.632 1.618-.953 2.579-.953.957 0 1.816.32 2.578.953.757.625 1.14 1.54 1.14 2.735Zm22.559-10.766c0 4.668-.887 8.25-2.656 10.75-1.774 2.492-4.219 3.734-7.344 3.734-3.117 0-5.563-1.242-7.344-3.734-1.773-2.5-2.656-6.082-2.656-10.75 0-2.32.234-4.375.703-6.156.469-1.79 1.14-3.297 2.016-4.516.883-1.226 1.937-2.16 3.156-2.797 1.227-.644 2.602-.968 4.125-.968 3.125 0 5.57 1.25 7.344 3.75 1.77 2.492 2.656 6.054 2.656 10.687Zm-6.078 0c0-1.383-.07-2.644-.203-3.781-.137-1.133-.352-2.113-.64-2.938-.294-.82-.696-1.457-1.204-1.906-.5-.457-1.125-.687-1.875-.687s-1.371.23-1.86.687c-.492.45-.89 1.086-1.203 1.906-.304.825-.523 1.805-.656 2.938a31.88 31.88 0 0 0-.203 3.781c0 1.387.066 2.652.203 3.797.133 1.148.352 2.137.656 2.969.313.824.711 1.465 1.204 1.922.488.449 1.109.671 1.859.671s1.375-.222 1.875-.671c.508-.457.91-1.098 1.203-1.922.29-.832.504-1.82.64-2.969a32.79 32.79 0 0 0 .204-3.797Zm28.798 0c0 4.668-.887 8.25-2.656 10.75-1.774 2.492-4.22 3.734-7.344 3.734-3.117 0-5.563-1.242-7.344-3.734-1.773-2.5-2.656-6.082-2.656-10.75 0-2.32.234-4.375.703-6.156.469-1.79 1.14-3.297 2.016-4.516.882-1.226 1.937-2.16 3.156-2.797 1.226-.644 2.601-.968 4.125-.968 3.125 0 5.57 1.25 7.344 3.75 1.77 2.492 2.656 6.054 2.656 10.687Zm-6.078 0c0-1.383-.07-2.644-.203-3.781-.137-1.133-.352-2.113-.641-2.938-.293-.82-.695-1.457-1.203-1.906-.5-.457-1.125-.687-1.875-.687s-1.371.23-1.86.687c-.492.45-.89 1.086-1.203 1.906-.304.825-.523 1.805-.656 2.938a31.88 31.88 0 0 0-.203 3.781c0 1.387.066 2.652.203 3.797.133 1.148.352 2.137.656 2.969.313.824.711 1.465 1.203 1.922.489.449 1.11.671 1.86.671s1.375-.222 1.875-.671c.508-.457.91-1.098 1.203-1.922.289-.832.504-1.82.64-2.969.133-1.145.204-2.41.204-3.797Zm16.563 14.516c-.719 0-1.48-.047-2.281-.14a26.337 26.337 0 0 1-2.328-.376 23.58 23.58 0 0 1-2.031-.516 12.157 12.157 0 0 1-1.438-.515l1.156-4.969c.688.293 1.57.606 2.657.938 1.082.336 2.421.5 4.015.5 1.844 0 3.192-.344 4.047-1.032.852-.695 1.281-1.629 1.281-2.797 0-.726-.156-1.335-.468-1.828a3.48 3.48 0 0 0-1.25-1.187c-.532-.313-1.168-.524-1.907-.64a13.9 13.9 0 0 0-2.343-.188h-2.313v-4.797h2.64c.583 0 1.145-.05 1.688-.156a4.833 4.833 0 0 0 1.469-.547 2.87 2.87 0 0 0 1.016-1.047c.257-.438.39-.988.39-1.656 0-.508-.11-.946-.328-1.313a2.85 2.85 0 0 0-.812-.922 3.576 3.576 0 0 0-1.172-.531 4.826 4.826 0 0 0-1.328-.188c-1.149 0-2.211.172-3.188.516a13.17 13.17 0 0 0-2.656 1.281l-2.125-4.359a18.8 18.8 0 0 1 1.5-.844c.57-.289 1.203-.554 1.89-.797a17.344 17.344 0 0 1 2.22-.593c.788-.164 1.628-.25 2.515-.25 1.625 0 3.031.195 4.219.578 1.187.386 2.164.933 2.937 1.64a6.73 6.73 0 0 1 1.719 2.485c.375.949.562 1.98.562 3.093 0 1.094-.308 2.157-.922 3.188a6.097 6.097 0 0 1-2.468 2.328c1.437.594 2.547 1.469 3.328 2.625.789 1.156 1.187 2.555 1.187 4.188 0 1.28-.214 2.464-.64 3.546a7.223 7.223 0 0 1-2 2.797c-.907.782-2.063 1.391-3.469 1.828-1.398.438-3.055.657-4.969.657ZM57.344 55.813a7.27 7.27 0 0 1-.61 2.921c-.398.93-.918 1.829-1.562 2.704a21.84 21.84 0 0 1-2.156 2.5 122.18 122.18 0 0 1-2.36 2.265c-.398.375-.828.797-1.297 1.266a34.866 34.866 0 0 0-2.484 2.765c-.336.407-.54.746-.61 1.016h11.923v5H39.703a6.209 6.209 0 0 1-.078-1.11v-.968c0-1.281.203-2.453.61-3.516.413-1.07.956-2.066 1.624-2.984a19.415 19.415 0 0 1 2.25-2.578c.844-.801 1.68-1.602 2.516-2.406.633-.614 1.234-1.192 1.797-1.735a20.189 20.189 0 0 0 1.484-1.61 7.557 7.557 0 0 0 1-1.546c.239-.52.36-1.05.36-1.594 0-1.164-.336-1.988-1-2.469-.668-.476-1.496-.718-2.485-.718a6.01 6.01 0 0 0-2.031.343c-.625.22-1.2.485-1.719.797-.511.305-.953.61-1.328.922-.375.305-.656.547-.844.735l-2.953-4.157c1.164-1.093 2.532-1.992 4.094-2.703a12.025 12.025 0 0 1 5.016-1.062c1.625 0 3.023.187 4.203.562 1.176.375 2.144.902 2.906 1.578a6.077 6.077 0 0 1 1.672 2.485c.363.968.547 2.07.547 3.297Zm0 0"/>
  <path d="m355.762 10.207.453.043.441.063.442.085.43.094.429.113.414.137.414.14.406.165.395.172.387.195.386.207.364.223.363.234.351.242.344.266.328.27.32.285.31.3.3.309.285.32.27.328.258.344.25.352.234.363.223.363.199.387.195.387.176.398.168.403.14.414.137.421.106.422.101.434.078.437.067.45.047.449.03.453.005.465v334.933l-.004.461-.031.457-.047.45-.067.441-.078.438-.101.433-.106.43-.137.414-.14.414-.168.41-.176.39-.195.387-.2.38-.222.37-.234.364-.25.351-.258.344-.27.328-.285.32-.3.31-.31.3-.32.285-.328.27-.344.257-.351.25-.363.239-.364.214-.386.207-.387.192-.395.18-.406.164-.414.14-.414.13-.43.116-.43.098-.44.078-.442.067-.453.05-.457.028-.457.007H19.91l-.457-.007-.457-.028-.45-.05-.448-.067-.438-.078-.433-.098-.422-.117-.422-.129-.414-.14-.403-.164-.398-.18-.387-.192-.379-.207-.37-.214-.364-.239-.352-.25-.343-.257-.328-.27-.32-.285-.31-.3-.3-.31-.285-.32-.27-.328-.258-.344-.25-.351-.238-.364-.219-.37-.207-.38-.187-.386-.18-.39-.164-.411-.14-.414-.137-.414-.114-.43-.093-.433-.086-.438-.059-.441-.05-.45-.028-.457-.008-.46V21.34l.008-.465.027-.453.051-.45.059-.449.086-.437.093-.434.114-.422.136-.421.141-.414.164-.403.18-.398.187-.387.207-.387.22-.363.237-.363.25-.352.258-.344.27-.328.285-.32.3-.309.31-.3.32-.286.328-.27.343-.265.352-.242.363-.234.371-.223.38-.207.386-.195.398-.172.403-.164.414-.14.422-.138.422-.113.433-.094.438-.085.449-.063.45-.043.456-.031.457-.004h334.938l.457.004ZM28.187 18.914l-.457.031-.453.043-.441.063-.445.086-.426.093-.43.114-.422.136-.406.145-.41.164-.39.172-.395.191-.38.207-.37.223-.356.234-.351.243-.344.265-.328.27-.32.289-.31.297-.3.308-.285.32-.27.333-.265.34-.242.351-.239.355-.218.375-.207.375-.188.395-.18.395-.164.406-.14.406-.137.422-.113.43-.094.43-.086.44-.059.442-.046.453-.032.457-.008.457v317.465l.008.457.032.457.046.453.059.442.086.437.094.434.113.43.137.414.14.414.164.406.18.394.188.387.207.38.218.37.239.363.242.352.265.344.27.328.285.32.3.309.31.3.32.286.328.27.344.257.351.25.356.238.37.211.38.207.394.196.39.18.411.163.406.141.422.129.43.113.426.102.445.078.441.066.453.047.457.031.458.008h317.464l.457-.008.457-.03.454-.048.441-.066.441-.078.43-.102.43-.113.414-.129.414-.14.406-.165.395-.18.386-.195.383-.207.367-.21.364-.239.351-.25.34-.258.332-.27.32-.284.309-.301.297-.309.289-.32.27-.328.257-.344.25-.352.235-.363.222-.37.2-.38.195-.387.176-.394.164-.406.144-.414.137-.414.105-.43.102-.434.078-.437.063-.442.05-.453.032-.457.004-.457V30.07l-.004-.457-.032-.457-.05-.453-.063-.441-.078-.442-.102-.43-.105-.43-.137-.42-.144-.407-.164-.406-.176-.395-.195-.395-.2-.375-.222-.375-.235-.355-.25-.352-.258-.34-.27-.331-.288-.32-.297-.31-.309-.296-.32-.29-.332-.269-.34-.265-.351-.243-.364-.234-.367-.223-.383-.207-.386-.191-.395-.172-.406-.164-.414-.145-.414-.136-.43-.114-.43-.093-.441-.086-.441-.063-.454-.043-.457-.03-.457-.005H28.645Zm0 0"/>
</svg>
