<svg xmlns="http://www.w3.org/2000/svg" version="1.2" viewBox="0 0 375 375">
  <path d="M143.138 196.084c-5.324 0-10.62-.168-15.89-.5-5.274-.325-10.75-1.094-16.438-2.313V99.224c4.469-.832 9.364-1.457 14.688-1.875 5.32-.426 10.265-.64 14.828-.64 6.164 0 11.836.445 17.015 1.328 5.176.886 9.63 2.402 13.36 4.547 3.726 2.148 6.644 4.968 8.75 8.468 2.101 3.5 3.156 7.82 3.156 12.953 0 7.743-3.734 13.852-11.203 18.329 6.156 2.336 10.352 5.507 12.594 9.515 2.238 4.012 3.36 8.54 3.36 13.578 0 10.168-3.712 17.82-11.126 22.953-7.418 5.137-18.45 7.704-33.094 7.704Zm-11.062-43.532V177.6a76.86 76.86 0 0 0 5.172.422c1.875.094 3.93.14 6.172.14 6.53 0 11.8-.929 15.812-2.796 4.008-1.863 6.016-5.317 6.016-10.36 0-4.476-1.684-7.671-5.047-9.578-3.356-1.914-8.156-2.875-14.406-2.875Zm0-16.656h10.64c6.72 0 11.52-.86 14.407-2.578 2.894-1.727 4.343-4.508 4.343-8.344 0-3.914-1.496-6.664-4.484-8.25-2.98-1.582-7.367-2.375-13.156-2.375-1.867 0-3.871.028-6.016.078-2.148.043-4.058.157-5.734.344Zm67.879 22.672c0-6.531 1-12.242 3-17.14 2.008-4.895 4.644-8.973 7.906-12.235 3.27-3.27 7.023-5.742 11.266-7.422 4.25-1.687 8.613-2.531 13.093-2.531 10.446 0 18.704 3.2 24.766 9.594 6.07 6.386 9.11 15.789 9.11 28.203 0 1.21-.047 2.539-.141 3.984-.094 1.45-.188 2.73-.281 3.844H221.36c.469 4.293 2.473 7.7 6.016 10.219 3.55 2.523 8.312 3.78 14.28 3.78 3.821 0 7.579-.347 11.267-1.046 3.687-.695 6.695-1.563 9.03-2.594l2.798 16.938c-1.118.562-2.61 1.125-4.485 1.687-1.867.555-3.945 1.035-6.234 1.453-2.281.426-4.73.774-7.344 1.047a72.888 72.888 0 0 1-7.828.422c-6.625 0-12.387-.98-17.281-2.937-4.899-1.957-8.953-4.641-12.172-8.047-3.219-3.407-5.602-7.438-7.14-12.094-1.544-4.664-2.313-9.707-2.313-15.125Zm48.984-7.969a21.811 21.811 0 0 0-.906-5.187 12.915 12.915 0 0 0-2.375-4.469c-1.074-1.313-2.43-2.383-4.063-3.219-1.636-.844-3.668-1.265-6.093-1.265-2.336 0-4.34.398-6.016 1.187-1.68.793-3.078 1.844-4.203 3.156-1.117 1.305-1.98 2.82-2.594 4.547a29.716 29.716 0 0 0-1.328 5.25ZM107.998 265.982c-1.523 0-3.039-.047-4.547-.141a32.455 32.455 0 0 1-4.687-.656V238.31c1.28-.25 2.68-.43 4.203-.547 1.52-.125 2.93-.188 4.234-.188 1.758 0 3.38.133 4.86.391 1.476.25 2.75.684 3.812 1.297 1.07.617 1.906 1.422 2.5 2.422.602 1 .906 2.234.906 3.703 0 2.21-1.07 3.953-3.203 5.234 1.758.668 2.957 1.574 3.594 2.719.644 1.148.969 2.437.969 3.875 0 2.906-1.063 5.094-3.188 6.562-2.117 1.47-5.265 2.204-9.453 2.204Zm-3.156-12.438v7.156c.445.055.937.094 1.469.125a40.24 40.24 0 0 0 1.765.032c1.863 0 3.367-.266 4.516-.797 1.156-.532 1.734-1.516 1.734-2.953 0-1.282-.484-2.192-1.453-2.735-.96-.55-2.328-.828-4.11-.828Zm0-4.766h3.031c1.926 0 3.3-.242 4.125-.734.832-.488 1.25-1.281 1.25-2.375 0-1.125-.43-1.91-1.281-2.36-.856-.456-2.11-.687-3.766-.687-.531 0-1.105.012-1.719.031-.617.012-1.164.043-1.64.094Zm19.395 6.485c0-1.863.285-3.492.86-4.89.57-1.407 1.32-2.571 2.25-3.5a9.42 9.42 0 0 1 3.218-2.126 10.218 10.218 0 0 1 3.75-.719c2.989 0 5.348.915 7.078 2.735 1.739 1.824 2.61 4.512 2.61 8.062 0 .344-.016.727-.047 1.141-.023.406-.047.773-.078 1.094h-13.516c.133 1.23.707 2.203 1.719 2.922 1.008.718 2.367 1.078 4.078 1.078 1.094 0 2.164-.098 3.219-.297 1.05-.195 1.91-.442 2.578-.735l.797 4.829c-.313.168-.742.328-1.281.484a16.9 16.9 0 0 1-1.782.406c-.648.125-1.343.227-2.093.313a20.29 20.29 0 0 1-2.235.125c-1.898 0-3.547-.282-4.953-.844-1.398-.563-2.555-1.328-3.469-2.297a9.279 9.279 0 0 1-2.047-3.469c-.437-1.332-.656-2.77-.656-4.312Zm14-2.281a5.617 5.617 0 0 0-.265-1.485 3.573 3.573 0 0 0-1.828-2.188c-.47-.25-1.055-.374-1.75-.374-.669 0-1.243.117-1.72.343-.48.23-.882.532-1.202.907a4.268 4.268 0 0 0-.735 1.297 9.159 9.159 0 0 0-.375 1.5Zm23.048-3.125a68.408 68.408 0 0 0-1.891-.407 10.891 10.891 0 0 0-2.313-.234c-.375 0-.824.039-1.343.11-.524.062-.914.136-1.172.218v16.078h-5.969V245.7c1.07-.375 2.332-.726 3.781-1.062 1.457-.332 3.078-.5 4.86-.5.32 0 .707.023 1.156.062.457.043.91.102 1.36.172.456.063.91.14 1.359.235a7.41 7.41 0 0 1 1.172.328Zm22.879-5.282a179.936 179.936 0 0 1-3.765 11.422 134.912 134.912 0 0 1-4.281 10.313c-.563 1.195-1.125 2.21-1.688 3.047-.555.843-1.164 1.535-1.828 2.078a6.367 6.367 0 0 1-2.266 1.203c-.836.258-1.812.39-2.937.39-.938 0-1.805-.09-2.594-.265-.781-.18-1.422-.371-1.922-.578l1.031-4.766a9.086 9.086 0 0 0 3.172.563c1.063 0 1.88-.29 2.453-.86.57-.574 1.055-1.367 1.454-2.375-1.356-2.664-2.715-5.66-4.079-8.984-1.355-3.32-2.632-7.05-3.828-11.188h6.313c.27 1.043.582 2.172.937 3.391.364 1.21.742 2.434 1.14 3.672.407 1.242.813 2.45 1.22 3.625.414 1.18.812 2.246 1.187 3.203.344-.957.703-2.023 1.078-3.203a126.15 126.15 0 0 0 1.094-3.625c.363-1.238.71-2.461 1.047-3.672a172.3 172.3 0 0 0 .89-3.39Zm11.599 21.453c-1.742-.03-3.152-.218-4.234-.562-1.075-.352-1.922-.844-2.547-1.469a4.836 4.836 0 0 1-1.282-2.265c-.23-.895-.343-1.907-.343-3.032v-23.156l5.968-.969v22.922c0 .543.036 1.028.11 1.453.082.418.238.778.469 1.078.226.293.55.532.968.72.426.187 1.004.308 1.735.359Zm12.64 0c-1.742-.03-3.152-.218-4.235-.562-1.074-.352-1.921-.844-2.546-1.469a4.836 4.836 0 0 1-1.282-2.265c-.23-.895-.343-1.907-.343-3.032v-23.156l5.968-.969v22.922c0 .543.036 1.028.11 1.453.082.418.238.778.468 1.078.227.293.551.532.97.72.425.187 1.003.308 1.734.359Zm10.202-.406h-5.969v-21.047h5.97Zm.547-27.125c0 1.094-.355 1.961-1.062 2.594-.7.625-1.528.937-2.485.937-.969 0-1.808-.312-2.515-.937-.7-.633-1.047-1.5-1.047-2.594 0-1.094.347-1.953 1.047-2.578.707-.625 1.546-.937 2.515-.937.957 0 1.785.312 2.485.937.707.625 1.062 1.484 1.062 2.578Zm23.013 26.406c-1.023.293-2.336.563-3.937.813-1.594.258-3.274.39-5.032.39-1.78 0-3.265-.242-4.453-.718-1.187-.477-2.133-1.149-2.828-2.016-.687-.875-1.183-1.91-1.484-3.11-.293-1.194-.438-2.515-.438-3.952v-11.735h5.969v11c0 1.93.25 3.32.75 4.172.508.856 1.457 1.281 2.844 1.281.426 0 .879-.02 1.36-.062.476-.04.905-.086 1.28-.14v-16.25h5.97Zm17.154-10.437c0-1.926-.25-3.285-.75-4.078-.492-.8-1.336-1.203-2.532-1.203-.375 0-.765.023-1.171.062-.399.043-.778.09-1.141.14v16.235h-5.969V245.31a37.888 37.888 0 0 1 3.938-.813 27.294 27.294 0 0 1 2.343-.281c.801-.07 1.586-.11 2.36-.11 1.52 0 2.754.196 3.703.579.945.386 1.727.843 2.344 1.375.851-.614 1.832-1.094 2.937-1.438 1.102-.344 2.125-.515 3.063-.515 1.676 0 3.05.234 4.125.703 1.082.46 1.941 1.117 2.578 1.968.644.856 1.086 1.872 1.328 3.047.238 1.168.36 2.477.36 3.922v11.875h-5.954v-11.156c0-1.926-.25-3.285-.75-4.078-.492-.8-1.336-1.203-2.531-1.203-.324 0-.773.086-1.344.25-.574.156-1.047.355-1.422.593a8.91 8.91 0 0 1 .36 1.938c.05.68.078 1.402.078 2.172v11.484h-5.953ZM148.702 313.5c.614 0 1.254-.055 1.922-.172.664-.125 1.156-.297 1.469-.516v-.359c0-.101.004-.207.016-.312a1.75 1.75 0 0 0 .03-.282 22.022 22.022 0 0 0-.25-2.703c-.124-.844-.35-1.578-.671-2.203a3.775 3.775 0 0 0-1.313-1.469c-.543-.363-1.21-.547-2-.547-.648 0-1.21.137-1.687.407-.48.261-.867.605-1.156 1.03-.293.43-.512.9-.657 1.407-.148.5-.218.992-.218 1.469 0 1.45.347 2.523 1.047 3.219.707.687 1.863 1.03 3.468 1.03Zm2.922 3.875a7.221 7.221 0 0 1-1.875.594 10.44 10.44 0 0 1-1.734.172c-1.73 0-3.211-.207-4.438-.625-1.23-.415-2.242-1.004-3.03-1.766a6.998 6.998 0 0 1-1.735-2.734c-.367-1.063-.547-2.235-.547-3.516 0-1.07.176-2.164.531-3.281a9.002 9.002 0 0 1 1.703-3.063c.77-.914 1.75-1.676 2.938-2.281 1.187-.602 2.617-.906 4.297-.906 3.445 0 6.039 1.062 7.78 3.187 1.75 2.117 2.626 5.164 2.626 9.14 0 2.618-.344 4.923-1.031 6.923-.68 2-1.73 3.683-3.157 5.047-1.418 1.355-3.234 2.386-5.453 3.093-2.21.711-4.836 1.07-7.875 1.094a90.625 90.625 0 0 0-.125-2.469c-.054-.8-.105-1.629-.156-2.484 1.52-.031 2.89-.145 4.11-.344 1.226-.195 2.304-.531 3.234-1a7.477 7.477 0 0 0 2.39-1.86c.657-.769 1.172-1.741 1.547-2.921Zm16.876 7.844c0 1.199-.383 2.11-1.14 2.734-.762.625-1.621.938-2.578.938-.961 0-1.82-.313-2.579-.938-.761-.625-1.14-1.535-1.14-2.734 0-1.196.379-2.11 1.14-2.735.758-.632 1.618-.953 2.579-.953.957 0 1.816.32 2.578.953.757.625 1.14 1.54 1.14 2.735Zm22.559-10.766c0 4.668-.887 8.25-2.656 10.75-1.774 2.492-4.219 3.734-7.344 3.734-3.117 0-5.563-1.242-7.344-3.734-1.773-2.5-2.656-6.082-2.656-10.75 0-2.32.234-4.375.703-6.156.469-1.79 1.14-3.297 2.016-4.516.883-1.226 1.937-2.16 3.156-2.797 1.227-.644 2.602-.968 4.125-.968 3.125 0 5.57 1.25 7.344 3.75 1.77 2.492 2.656 6.054 2.656 10.687Zm-6.078 0c0-1.383-.07-2.644-.203-3.781-.137-1.133-.352-2.113-.64-2.938-.294-.82-.696-1.457-1.204-1.906-.5-.457-1.125-.687-1.875-.687s-1.371.23-1.86.687c-.492.45-.89 1.086-1.203 1.906-.304.825-.523 1.805-.656 2.938a31.88 31.88 0 0 0-.203 3.781c0 1.387.066 2.652.203 3.797.133 1.148.352 2.137.656 2.969.313.824.711 1.465 1.204 1.922.488.449 1.109.671 1.859.671s1.375-.222 1.875-.671c.508-.457.91-1.098 1.203-1.922.29-.832.504-1.82.64-2.97.134-1.144.204-2.41.204-3.796Zm10.235-8.031c.77-.32 1.578-.692 2.422-1.11.844-.414 1.66-.867 2.453-1.359a29.992 29.992 0 0 0 2.297-1.547 15.52 15.52 0 0 0 1.985-1.75h4.171v27.719h-5.968v-19.953a18.45 18.45 0 0 1-2.688 1.453c-.98.437-1.937.82-2.875 1.14Zm39.767 1.515a7.27 7.27 0 0 1-.61 2.922 13.5 13.5 0 0 1-1.562 2.703c-.637.868-1.355 1.7-2.156 2.5a122.18 122.18 0 0 1-2.36 2.266c-.398.375-.828.797-1.296 1.266a34.866 34.866 0 0 0-2.485 2.765c-.336.407-.539.746-.61 1.016h11.923v5h-18.485a6.209 6.209 0 0 1-.078-1.11v-.968c0-1.281.203-2.453.61-3.516.414-1.07.957-2.066 1.625-2.984a19.415 19.415 0 0 1 2.25-2.578c.843-.801 1.68-1.602 2.515-2.407.633-.613 1.235-1.191 1.797-1.734a20.189 20.189 0 0 0 1.484-1.61 7.557 7.557 0 0 0 1-1.546c.239-.52.36-1.051.36-1.594 0-1.164-.336-1.988-1-2.469-.668-.476-1.496-.718-2.485-.718a6 6 0 0 0-2.03.343c-.626.22-1.2.485-1.72.797-.511.305-.953.61-1.328.922a11.83 11.83 0 0 0-.843.734l-2.954-4.156c1.165-1.094 2.532-1.992 4.094-2.703a12.025 12.025 0 0 1 5.016-1.062c1.625 0 3.023.187 4.203.562 1.176.375 2.145.902 2.906 1.578a6.077 6.077 0 0 1 1.672 2.485c.363.968.547 2.07.547 3.296ZM50.266 55.812a247.352 247.352 0 0 0-3.328 4.438 31.341 31.341 0 0 0-2.954 4.922h6.282Zm5.828-7.28v16.64h2.969v4.875h-2.97v6.203h-5.827v-6.203h-11.97v-4.36A74.056 74.056 0 0 1 40.5 61.72a69.398 69.398 0 0 1 2.938-4.563 80.118 80.118 0 0 1 3.421-4.578 48.177 48.177 0 0 1 3.594-4.047Zm0 0"/>
  <path d="m355.762 10.207.453.043.441.063.442.085.43.094.429.113.414.137.414.14.406.169.395.168.387.195.386.207.364.223.363.234.351.242.344.266.328.27.32.285.31.3.3.309.285.32.27.328.258.344.25.352.234.363.223.363.199.387.195.387.176.398.168.403.14.414.137.421.106.422.101.434.078.437.067.45.047.449.03.453.005.465v334.933l-.004.461-.031.457-.047.45-.067.441-.078.438-.101.433-.106.43-.137.414-.14.414-.168.41-.176.39-.195.387-.2.38-.222.37-.234.364-.25.351-.258.344-.27.328-.285.32-.3.31-.31.3-.32.285-.328.27-.344.257-.351.25-.363.239-.364.214-.386.207-.387.192-.395.18-.406.164-.414.14-.414.13-.43.116-.43.098-.44.078-.442.067-.453.05-.457.028-.457.007H19.91l-.457-.007-.457-.028-.45-.05-.448-.067-.438-.078-.433-.098-.422-.117-.422-.129-.414-.14-.403-.164-.398-.18-.387-.192-.379-.207-.37-.214-.364-.239-.352-.25-.343-.257-.328-.27-.32-.285-.31-.3-.3-.31-.285-.32-.27-.328-.258-.344-.25-.351-.238-.364-.219-.37-.207-.38-.187-.386-.18-.39-.164-.411-.14-.414-.137-.414-.114-.43-.093-.433-.086-.438-.059-.441-.05-.45-.028-.457-.008-.46V21.34l.008-.465.027-.453.051-.45.059-.449.086-.437.093-.434.114-.422.136-.421.141-.414.164-.403.18-.398.187-.387.207-.387.22-.363.237-.363.25-.352.258-.344.27-.328.285-.32.3-.309.31-.3.32-.286.328-.27.343-.265.352-.242.363-.234.371-.223.38-.207.386-.195.398-.168.403-.168.414-.14.422-.138.422-.113.433-.094.438-.085.449-.063.45-.043.456-.031.457-.004h334.938l.457.004ZM28.187 18.914l-.457.031-.453.043-.441.063-.445.086-.426.093-.43.114-.422.136-.406.145-.41.164-.39.172-.395.191-.38.207-.37.223-.356.234-.351.243-.344.265-.328.27-.32.289-.31.297-.3.308-.285.32-.27.333-.265.34-.242.351-.239.355-.218.375-.207.375-.188.395-.18.395-.164.406-.14.406-.137.422-.113.43-.094.43-.086.44-.059.442-.046.453-.032.457-.008.457v317.465l.008.457.032.457.046.453.059.442.086.437.094.434.113.43.137.414.14.414.164.406.18.394.188.387.207.38.218.37.239.363.242.352.265.344.27.328.285.32.3.309.31.3.32.286.328.27.344.257.351.25.356.238.37.211.38.207.394.196.39.18.411.163.406.141.422.129.43.113.426.102.445.078.441.066.453.047.457.031.458.008h317.464l.457-.008.457-.03.454-.048.441-.066.441-.078.43-.102.43-.113.414-.129.414-.14.406-.165.395-.18.386-.195.383-.207.367-.21.364-.239.351-.25.34-.258.332-.27.32-.284.309-.301.297-.309.289-.32.27-.328.257-.344.25-.352.235-.363.222-.37.2-.38.195-.387.176-.394.164-.406.144-.414.137-.414.105-.43.102-.434.078-.437.063-.442.05-.453.032-.457.004-.457V30.07l-.004-.457-.032-.457-.05-.453-.063-.441-.078-.442-.102-.43-.105-.43-.137-.42-.144-.407-.164-.406-.176-.395-.195-.395-.2-.375-.222-.375-.235-.355-.25-.352-.258-.34-.27-.331-.288-.32-.297-.31-.309-.296-.32-.29-.332-.269-.34-.265-.351-.243-.364-.234-.367-.223-.383-.207-.386-.191-.395-.172-.406-.164-.414-.145-.414-.136-.43-.114-.43-.093-.441-.086-.441-.063-.454-.043-.457-.03-.457-.005H28.645Zm0 0"/>
</svg>
