<svg xmlns="http://www.w3.org/2000/svg" version="1.2" viewBox="0 0 375 375">
  <path d="M210.877 194.818a491.828 491.828 0 0 0-20.312-32.89c-7.274-10.82-15.012-21.036-23.22-30.641v63.531H145.8V97.834h17.766c3.082 3.074 6.488 6.851 10.218 11.328a422.473 422.473 0 0 1 11.407 14.36 491.759 491.759 0 0 1 11.546 15.812 925.785 925.785 0 0 1 10.782 15.734V97.834h21.687v96.984Zm-87.279 70.804a136.106 136.106 0 0 0-5.797-9.406 96.315 96.315 0 0 0-6.64-8.75v18.156h-6.157v-27.718h5.078c.875.875 1.844 1.953 2.906 3.234 1.07 1.281 2.16 2.652 3.266 4.11a126.336 126.336 0 0 1 3.312 4.515 253.605 253.605 0 0 1 3.079 4.5v-16.36h6.203v27.72Zm17.208 0h-5.969v-21.047h5.97Zm.547-27.125c0 1.094-.355 1.961-1.062 2.594-.7.625-1.528.938-2.485.938-.969 0-1.808-.313-2.515-.938-.7-.633-1.047-1.5-1.047-2.594 0-1.093.347-1.953 1.047-2.578.707-.625 1.546-.937 2.515-.937.957 0 1.785.312 2.485.937.707.625 1.062 1.485 1.062 2.578Zm4.841.844 5.969-.953v6.187h7.156v4.97h-7.156v7.39c0 1.262.219 2.265.656 3.015.438.743 1.32 1.11 2.656 1.11a11.106 11.106 0 0 0 3.845-.672l.843 4.64a16.18 16.18 0 0 1-2.406.75c-.875.22-1.953.329-3.235.329-1.625 0-2.976-.219-4.047-.657-1.062-.445-1.918-1.062-2.562-1.843-.637-.79-1.086-1.742-1.344-2.86-.25-1.125-.375-2.363-.375-3.718Zm30.651 10.516a68.408 68.408 0 0 0-1.89-.407 10.891 10.891 0 0 0-2.313-.234c-.375 0-.825.04-1.344.11-.524.062-.914.136-1.172.218v16.078h-5.969V245.7c1.07-.375 2.332-.726 3.781-1.062 1.457-.332 3.079-.5 4.86-.5.32 0 .707.023 1.156.062.457.043.91.102 1.36.172.456.063.91.141 1.359.235a7.41 7.41 0 0 1 1.172.328Zm23.88 5.203c0 1.656-.243 3.172-.72 4.547-.48 1.375-1.179 2.547-2.093 3.515a9.505 9.505 0 0 1-3.266 2.266c-1.261.531-2.68.797-4.25.797-1.543 0-2.949-.266-4.218-.797a9.656 9.656 0 0 1-3.266-2.266c-.906-.968-1.617-2.14-2.125-3.515-.5-1.375-.75-2.89-.75-4.547 0-1.656.258-3.16.781-4.516.52-1.363 1.239-2.523 2.157-3.484a9.81 9.81 0 0 1 3.28-2.235c1.27-.53 2.65-.796 4.141-.796 1.52 0 2.91.265 4.172.796a9.48 9.48 0 0 1 3.266 2.235c.906.96 1.613 2.12 2.125 3.484.508 1.356.766 2.86.766 4.516Zm-6.079 0c0-1.832-.37-3.274-1.109-4.328-.73-1.063-1.777-1.594-3.14-1.594-1.356 0-2.407.531-3.157 1.594-.75 1.054-1.125 2.496-1.125 4.328 0 1.844.375 3.308 1.125 4.39.75 1.075 1.8 1.61 3.156 1.61 1.364 0 2.41-.535 3.141-1.61.738-1.082 1.11-2.546 1.11-4.39Zm15.749-.64c0 3.335 1.348 5 4.047 5 .613 0 1.187-.079 1.719-.235a6.99 6.99 0 0 0 1.359-.563v-9.515a14.295 14.295 0 0 0-2.438-.203c-1.574 0-2.75.523-3.53 1.562-.774 1.043-1.157 2.36-1.157 3.953Zm13.078 8.562c0 3.437-.875 5.988-2.625 7.656-1.742 1.664-4.437 2.5-8.094 2.5a22.04 22.04 0 0 1-3.843-.344 22.844 22.844 0 0 1-3.547-.89l1.031-5a17.26 17.26 0 0 0 2.937.875c1.032.218 2.196.328 3.5.328 1.707 0 2.915-.375 3.625-1.125.707-.75 1.063-1.707 1.063-2.875v-.766a9.312 9.312 0 0 1-1.984.656c-.68.149-1.418.22-2.22.22-2.905 0-5.136-.86-6.687-2.579-1.543-1.719-2.312-4.125-2.312-7.219 0-1.539.238-2.941.719-4.203a8.941 8.941 0 0 1 2.093-3.266c.926-.914 2.055-1.617 3.391-2.109 1.332-.488 2.836-.734 4.516-.734.718 0 1.457.039 2.218.11a43.65 43.65 0 0 1 2.266.25c.75.105 1.46.23 2.14.374a22.71 22.71 0 0 1 1.813.469Zm4.604-7.719c0-1.863.285-3.492.859-4.89.57-1.407 1.32-2.571 2.25-3.5a9.42 9.42 0 0 1 3.219-2.126 10.218 10.218 0 0 1 3.75-.718c2.988 0 5.347.914 7.078 2.734 1.738 1.824 2.61 4.512 2.61 8.062 0 .344-.016.727-.048 1.141a26.48 26.48 0 0 1-.078 1.094h-13.515c.132 1.23.707 2.203 1.718 2.922 1.008.718 2.368 1.078 4.079 1.078 1.093 0 2.164-.098 3.218-.297 1.051-.195 1.91-.441 2.578-.734l.797 4.828c-.312.168-.742.328-1.281.484-.531.156-1.125.29-1.781.406-.649.125-1.344.227-2.094.313a20.29 20.29 0 0 1-2.234.125c-1.899 0-3.547-.281-4.953-.844-1.399-.562-2.555-1.328-3.47-2.297a9.279 9.279 0 0 1-2.046-3.469c-.438-1.332-.656-2.77-.656-4.312Zm14-2.281a5.617 5.617 0 0 0-.266-1.485 3.573 3.573 0 0 0-1.828-2.188c-.469-.25-1.055-.374-1.75-.374-.668 0-1.242.117-1.719.344-.48.23-.883.53-1.203.906a4.268 4.268 0 0 0-.734 1.297 9.159 9.159 0 0 0-.375 1.5Zm10.359-7.672c1.008-.301 2.317-.578 3.922-.828a32.722 32.722 0 0 1 5.047-.375c1.781 0 3.266.234 4.453.703 1.188.46 2.125 1.117 2.813 1.969.695.855 1.191 1.87 1.484 3.046.29 1.168.438 2.477.438 3.922v11.875h-5.953v-11.156c0-1.926-.258-3.285-.766-4.078-.5-.8-1.445-1.203-2.828-1.203-.43 0-.887.023-1.375.062-.48.043-.903.09-1.266.141v16.234h-5.969Zm-112.499 61.112c.77-.32 1.578-.691 2.422-1.11.843-.414 1.66-.867 2.453-1.359a30.39 30.39 0 0 0 2.297-1.547 15.52 15.52 0 0 0 1.984-1.75h4.172v27.72h-5.969v-19.954c-.805.531-1.7 1.016-2.687 1.453-.98.438-1.938.82-2.875 1.14Zm32.688 1.516a247.352 247.352 0 0 0-3.328 4.437 31.341 31.341 0 0 0-2.953 4.922h6.281Zm5.828-7.282v16.64h2.97v4.876h-2.97v6.203h-5.828v-6.203h-11.968v-4.36a74.056 74.056 0 0 1 2.203-3.968 69.398 69.398 0 0 1 2.937-4.563 80.118 80.118 0 0 1 3.422-4.578 48.177 48.177 0 0 1 3.594-4.047Zm12.767 24.563c0 1.199-.383 2.11-1.14 2.734-.762.625-1.622.938-2.579.938-.96 0-1.82-.313-2.578-.938-.761-.625-1.14-1.535-1.14-2.734 0-1.196.379-2.11 1.14-2.735.758-.632 1.617-.953 2.578-.953.957 0 1.817.32 2.578.953.758.625 1.141 1.54 1.141 2.735Zm22.559-10.766c0 4.668-.887 8.25-2.656 10.75-1.774 2.492-4.22 3.735-7.344 3.735-3.117 0-5.563-1.243-7.344-3.735-1.773-2.5-2.656-6.082-2.656-10.75 0-2.32.234-4.375.703-6.156.469-1.79 1.14-3.297 2.016-4.516.882-1.226 1.937-2.16 3.156-2.797 1.226-.644 2.601-.968 4.125-.968 3.125 0 5.57 1.25 7.344 3.75 1.77 2.492 2.656 6.054 2.656 10.687Zm-6.078 0c0-1.383-.07-2.644-.203-3.781-.137-1.133-.352-2.113-.641-2.938-.293-.82-.695-1.457-1.203-1.906-.5-.457-1.125-.687-1.875-.687s-1.371.23-1.86.687c-.492.45-.89 1.086-1.203 1.906-.304.825-.523 1.805-.656 2.938a31.88 31.88 0 0 0-.203 3.781c0 1.387.066 2.653.203 3.797.133 1.148.352 2.137.656 2.969.313.824.711 1.465 1.203 1.922.489.449 1.11.672 1.86.672s1.375-.223 1.875-.672c.508-.457.91-1.098 1.203-1.922.289-.832.504-1.82.64-2.969.133-1.144.204-2.41.204-3.797Zm28.798 0c0 4.668-.887 8.25-2.657 10.75-1.773 2.492-4.218 3.735-7.343 3.735-3.118 0-5.563-1.243-7.344-3.735-1.774-2.5-2.656-6.082-2.656-10.75 0-2.32.234-4.375.703-6.156.468-1.79 1.14-3.297 2.015-4.516.883-1.226 1.938-2.16 3.157-2.797 1.226-.644 2.601-.968 4.125-.968 3.125 0 5.57 1.25 7.343 3.75 1.77 2.492 2.657 6.054 2.657 10.687Zm-6.079 0c0-1.383-.07-2.644-.203-3.781-.136-1.133-.351-2.113-.64-2.938-.293-.82-.696-1.457-1.203-1.906-.5-.457-1.125-.687-1.875-.687s-1.371.23-1.86.687c-.492.45-.89 1.086-1.203 1.906-.305.825-.523 1.805-.656 2.938a31.88 31.88 0 0 0-.203 3.781c0 1.387.066 2.653.203 3.797.133 1.148.351 2.137.656 2.969.313.824.711 1.465 1.203 1.922.489.449 1.11.672 1.86.672s1.375-.223 1.875-.672c.507-.457.91-1.098 1.203-1.922.289-.832.504-1.82.64-2.969.133-1.144.203-2.41.203-3.797ZM43.188 76.25c.156-1.945.484-3.973.984-6.078a59.072 59.072 0 0 1 1.86-6.187 53.583 53.583 0 0 1 2.468-5.75c.906-1.801 1.828-3.36 2.766-4.672H39.219v-5.078h19.406v4.328c-.855.93-1.797 2.218-2.828 3.875-1.024 1.656-1.996 3.53-2.922 5.625a53.19 53.19 0 0 0-2.406 6.75 34.54 34.54 0 0 0-1.25 7.187Zm0 0"/>
  <path d="m355.762 10.207.453.043.441.063.442.085.43.094.429.113.414.137.414.14.406.165.395.172.387.195.386.207.364.223.363.234.351.242.344.266.328.27.32.285.31.3.3.309.285.32.27.328.258.344.25.352.234.363.223.363.199.387.195.387.176.398.168.403.14.414.137.421.106.422.101.434.078.437.067.45.047.449.03.453.005.465v334.933l-.004.457-.031.461-.047.45-.067.441-.078.438-.101.433-.106.43-.137.414-.14.414-.168.41-.176.39-.195.387-.2.38-.222.37-.234.364-.25.351-.258.344-.27.328-.285.32-.3.31-.31.3-.32.285-.328.27-.344.257-.351.25-.363.239-.364.21-.386.212-.387.19-.395.18-.406.165-.414.14-.414.13-.43.112-.43.102-.44.078-.442.067-.453.046-.457.032-.457.007H19.91l-.457-.007-.457-.032-.45-.046-.448-.067-.438-.078-.433-.102-.422-.113-.422-.129-.414-.14-.403-.164-.398-.18-.387-.192-.379-.21-.37-.211-.364-.239-.352-.25-.343-.257-.328-.27-.32-.285-.31-.3-.3-.31-.285-.32-.27-.328-.258-.344-.25-.351-.238-.364-.219-.37-.207-.38-.187-.386-.18-.39-.164-.411-.14-.414-.137-.414-.114-.43-.093-.433-.086-.438-.059-.441-.05-.45-.028-.46-.008-.458V21.34l.008-.465.027-.453.051-.45.059-.449.086-.437.093-.434.114-.422.136-.421.141-.414.164-.403.18-.398.187-.387.207-.387.22-.363.237-.363.25-.352.258-.344.27-.328.285-.32.3-.309.31-.3.32-.286.328-.27.343-.265.352-.242.363-.234.371-.223.38-.207.386-.195.398-.172.403-.164.414-.14.422-.138.422-.113.433-.094.438-.085.449-.063.45-.043.456-.031.457-.008h334.938l.457.008ZM28.187 18.914l-.457.031-.453.043-.441.063-.445.086-.426.093-.43.114-.422.136-.406.145-.41.164-.39.168-.395.195-.38.207-.37.223-.356.234-.351.243-.344.265-.328.27-.32.289-.31.297-.3.308-.285.32-.27.329-.265.343-.242.352-.239.355-.218.372-.207.378-.188.395-.18.395-.164.406-.14.406-.137.422-.113.43-.094.43-.086.44-.059.442-.046.453-.032.457-.008.457v317.465l.008.457.032.457.046.453.059.442.086.437.094.434.113.43.137.414.14.414.164.406.18.394.188.387.207.38.218.37.239.363.242.352.265.344.27.328.285.32.3.309.31.3.32.286.328.27.344.257.351.25.356.234.37.215.38.207.394.196.39.18.411.163.406.141.422.129.43.113.426.102.445.078.441.066.453.047.457.031.458.008h317.464l.457-.008.457-.03.454-.048.441-.066.441-.078.43-.102.43-.113.414-.129.414-.14.406-.165.395-.18.386-.195.383-.207.367-.215.364-.234.351-.25.34-.258.332-.27.32-.284.309-.301.297-.309.289-.32.27-.328.257-.344.25-.352.235-.363.222-.37.2-.38.195-.387.176-.394.164-.406.144-.414.137-.414.105-.43.102-.434.078-.437.063-.442.05-.453.032-.457.004-.457V30.07l-.004-.457-.032-.457-.05-.453-.063-.441-.078-.442-.102-.43-.105-.43-.137-.42-.144-.407-.164-.406-.176-.395-.195-.395-.2-.378-.222-.372-.235-.355-.25-.352-.258-.343-.27-.328-.288-.32-.297-.31-.309-.296-.32-.29-.332-.269-.34-.265-.351-.243-.364-.234-.367-.223-.383-.207-.386-.195-.395-.168-.406-.164-.414-.145-.414-.136-.43-.114-.43-.093-.441-.086-.441-.063-.454-.043-.457-.03-.457-.005H28.645Zm0 0"/>
</svg>
