<svg xmlns="http://www.w3.org/2000/svg" version="1.2" viewBox="0 0 375 375">
  <path d="M158.535 194.818V97.833h64.937v18.328h-43.109v20.297h38.344v18.328h-38.344v40.032Zm-47.231 70.804v-27.718h18.562v5.234h-12.328v5.797h10.969v5.25h-10.969v11.437Zm30.96.407c-1.742-.032-3.153-.22-4.235-.563-1.074-.351-1.922-.844-2.547-1.469a4.836 4.836 0 0 1-1.28-2.265c-.231-.895-.345-1.907-.345-3.032v-23.156l5.97-.969v22.922c0 .543.034 1.028.109 1.453.082.418.238.778.468 1.079.227.293.551.53.97.718.425.188 1.003.309 1.733.36Zm22.202-1.125c-1.023.293-2.336.562-3.937.812-1.594.258-3.274.39-5.032.39-1.78 0-3.265-.241-4.453-.718-1.187-.477-2.133-1.148-2.828-2.016-.687-.875-1.183-1.91-1.484-3.109-.293-1.195-.438-2.516-.438-3.953v-11.735h5.969v11c0 1.93.25 3.32.75 4.172.508.856 1.457 1.282 2.844 1.282.426 0 .879-.02 1.36-.063.476-.039.905-.086 1.28-.14v-16.25h5.97Zm25.279-9.844c0 1.656-.243 3.172-.72 4.547-.48 1.375-1.179 2.547-2.093 3.515a9.505 9.505 0 0 1-3.265 2.266c-1.262.531-2.68.797-4.25.797-1.543 0-2.95-.266-4.22-.797a9.656 9.656 0 0 1-3.265-2.266c-.906-.968-1.617-2.14-2.125-3.515-.5-1.375-.75-2.89-.75-4.547 0-1.656.258-3.16.781-4.516.52-1.363 1.239-2.523 2.157-3.484a9.81 9.81 0 0 1 3.28-2.235c1.27-.53 2.65-.796 4.142-.796 1.52 0 2.91.265 4.171.796a9.48 9.48 0 0 1 3.266 2.235c.906.96 1.613 2.12 2.125 3.484.508 1.356.766 2.86.766 4.516Zm-6.078 0c0-1.832-.372-3.274-1.11-4.328-.73-1.063-1.777-1.594-3.14-1.594-1.356 0-2.407.531-3.157 1.594-.75 1.054-1.125 2.496-1.125 4.328 0 1.844.375 3.308 1.125 4.39.75 1.075 1.801 1.61 3.157 1.61 1.363 0 2.41-.535 3.14-1.61.738-1.082 1.11-2.546 1.11-4.39Zm23.357-5.203a68.408 68.408 0 0 0-1.89-.407 10.891 10.891 0 0 0-2.313-.234c-.375 0-.824.04-1.343.11-.524.062-.914.136-1.172.218v16.078h-5.969V245.7c1.07-.375 2.332-.726 3.781-1.062 1.457-.332 3.078-.5 4.86-.5.32 0 .707.023 1.156.062.457.043.91.102 1.36.172.456.063.91.141 1.359.235.457.093.847.203 1.171.328Zm10.162 15.765h-5.97v-21.047h5.97Zm.546-27.125c0 1.094-.355 1.961-1.062 2.594-.7.625-1.527.938-2.484.938-.97 0-1.809-.313-2.516-.938-.7-.633-1.047-1.5-1.047-2.594 0-1.093.348-1.953 1.047-2.578.707-.625 1.547-.937 2.516-.937.957 0 1.785.312 2.484.937.707.625 1.062 1.485 1.062 2.578Zm5.045 6.813c1.008-.301 2.316-.578 3.922-.828a32.722 32.722 0 0 1 5.047-.375c1.78 0 3.265.234 4.453.703 1.187.46 2.125 1.117 2.812 1.969.695.855 1.192 1.87 1.485 3.046.289 1.168.437 2.477.437 3.922v11.875h-5.953v-11.156c0-1.926-.258-3.285-.766-4.078-.5-.8-1.445-1.203-2.828-1.203-.43 0-.887.023-1.375.062-.48.043-.902.09-1.265.141v16.234h-5.97Zm22.56 9.953c0-1.863.285-3.492.859-4.89.57-1.407 1.32-2.571 2.25-3.5a9.42 9.42 0 0 1 3.219-2.126 10.218 10.218 0 0 1 3.75-.718c2.988 0 5.347.914 7.078 2.734 1.738 1.824 2.61 4.512 2.61 8.062 0 .344-.016.727-.048 1.141-.023.406-.047.774-.078 1.094h-13.515c.132 1.23.707 2.203 1.718 2.922 1.008.718 2.368 1.078 4.078 1.078 1.094 0 2.165-.098 3.22-.297 1.05-.195 1.91-.441 2.577-.734l.797 4.828c-.312.168-.742.328-1.281.484-.531.156-1.125.29-1.781.406-.649.125-1.344.227-2.094.313a20.29 20.29 0 0 1-2.234.125c-1.899 0-3.547-.281-4.954-.844-1.398-.562-2.554-1.328-3.468-2.297a9.279 9.279 0 0 1-2.047-3.469c-.438-1.332-.656-2.77-.656-4.312Zm14-2.281a5.617 5.617 0 0 0-.266-1.485 3.573 3.573 0 0 0-1.828-2.188c-.469-.25-1.055-.374-1.75-.374-.668 0-1.242.117-1.719.344-.48.23-.883.53-1.203.906a4.268 4.268 0 0 0-.734 1.297 9.159 9.159 0 0 0-.375 1.5Zm-119.4 53.439c.77-.32 1.578-.69 2.422-1.109.843-.414 1.66-.867 2.453-1.36a30.38 30.38 0 0 0 2.297-1.546 15.52 15.52 0 0 0 1.984-1.75h4.172v27.719h-5.969V308.42c-.805.532-1.7 1.016-2.687 1.454-.98.437-1.938.82-2.875 1.14Zm41.126 14.235c0 1.2-.211 2.297-.625 3.297a7.383 7.383 0 0 1-1.86 2.625c-.824.742-1.855 1.32-3.093 1.734-1.243.414-2.68.625-4.313.625-1.867 0-3.418-.262-4.656-.781-1.242-.52-2.242-1.164-3-1.938-.762-.77-1.305-1.613-1.625-2.53-.313-.927-.469-1.774-.469-2.548 0-.8.102-1.535.313-2.203a7.28 7.28 0 0 1 .875-1.812 9.403 9.403 0 0 1 1.265-1.5c.469-.457.969-.891 1.5-1.297-1.148-.926-1.996-1.844-2.547-2.75-.543-.907-.812-2.067-.812-3.485 0-1.062.219-2.086.656-3.078a7.863 7.863 0 0 1 1.86-2.578c.8-.738 1.77-1.328 2.906-1.766 1.133-.437 2.394-.656 3.781-.656 1.625 0 3.016.235 4.172.703 1.164.47 2.117 1.063 2.86 1.782.75.718 1.288 1.527 1.624 2.421.332.887.5 1.774.5 2.657 0 1.281-.34 2.476-1.015 3.578-.68 1.105-1.528 1.98-2.547 2.625 1.52.98 2.61 2.012 3.265 3.094.657 1.086.985 2.343.985 3.78Zm-13.844.234c0 .324.07.68.219 1.063.144.386.379.742.703 1.062.32.324.734.594 1.234.813.508.21 1.125.312 1.844.312 1.383 0 2.395-.332 3.031-1 .645-.664.969-1.414.969-2.25 0-.613-.14-1.16-.422-1.64a4.266 4.266 0 0 0-1.14-1.25 8.103 8.103 0 0 0-1.704-.97 23.084 23.084 0 0 0-2.093-.78 8.21 8.21 0 0 0-1.891 1.968c-.5.743-.75 1.633-.75 2.672Zm7.406-13.156a2.7 2.7 0 0 0-.187-.938 2.6 2.6 0 0 0-.594-.937 3.586 3.586 0 0 0-1.062-.734c-.43-.207-.95-.313-1.563-.313-.586 0-1.09.094-1.516.281-.43.188-.78.438-1.062.75a3.06 3.06 0 0 0-.625.97 2.693 2.693 0 0 0-.203 1c0 .855.312 1.655.937 2.405.633.743 1.711 1.383 3.235 1.922.851-.539 1.504-1.156 1.953-1.844.457-.695.687-1.55.687-2.562Zm16.595 17.484c0 1.2-.383 2.11-1.14 2.735-.762.625-1.622.937-2.579.937-.96 0-1.82-.312-2.578-.937-.761-.625-1.14-1.535-1.14-2.735 0-1.195.379-2.109 1.14-2.734.758-.633 1.617-.953 2.578-.953.957 0 1.817.32 2.578.953.758.625 1.141 1.539 1.141 2.734Zm12.762-11.718c.613 0 1.254-.055 1.922-.172.664-.125 1.156-.297 1.469-.516v-.36c0-.1.003-.206.015-.312a1.75 1.75 0 0 0 .031-.281 22.022 22.022 0 0 0-.25-2.703c-.125-.844-.351-1.578-.671-2.203a3.775 3.775 0 0 0-1.313-1.469c-.543-.363-1.21-.547-2-.547-.648 0-1.21.137-1.687.406-.48.262-.868.606-1.157 1.032-.293.43-.511.898-.656 1.406-.148.5-.219.992-.219 1.469 0 1.449.348 2.523 1.047 3.218.707.688 1.863 1.032 3.469 1.032Zm2.922 3.875a7.221 7.221 0 0 1-1.875.593c-.68.118-1.258.172-1.735.172-1.73 0-3.21-.207-4.437-.625-1.23-.414-2.242-1.004-3.031-1.765a6.998 6.998 0 0 1-1.735-2.735c-.367-1.062-.547-2.234-.547-3.515 0-1.07.176-2.164.532-3.282a9.002 9.002 0 0 1 1.703-3.062c.77-.914 1.75-1.676 2.937-2.281 1.188-.602 2.617-.907 4.297-.907 3.445 0 6.04 1.063 7.781 3.188 1.75 2.117 2.625 5.164 2.625 9.14 0 2.618-.343 4.922-1.03 6.922-.68 2-1.731 3.684-3.157 5.047-1.418 1.356-3.234 2.387-5.453 3.094-2.211.71-4.836 1.07-7.875 1.094a90.625 90.625 0 0 0-.125-2.469c-.055-.8-.106-1.629-.156-2.484 1.52-.032 2.89-.145 4.109-.344 1.226-.195 2.305-.531 3.234-1a7.477 7.477 0 0 0 2.39-1.86c.657-.77 1.173-1.742 1.548-2.921Zm19.798-3.875c.613 0 1.254-.055 1.922-.172.664-.125 1.156-.297 1.468-.516v-.36c0-.1.004-.206.016-.312a1.75 1.75 0 0 0 .031-.281 22.022 22.022 0 0 0-.25-2.703c-.125-.844-.351-1.578-.672-2.203a3.775 3.775 0 0 0-1.312-1.469c-.543-.363-1.211-.547-2-.547-.649 0-1.211.137-1.688.406-.48.262-.867.606-1.156 1.032-.293.43-.512.898-.656 1.406-.149.5-.219.992-.219 1.469 0 1.449.348 2.523 1.047 3.218.707.688 1.863 1.032 3.469 1.032Zm2.922 3.875a7.221 7.221 0 0 1-1.875.593c-.68.118-1.258.172-1.735.172-1.73 0-3.21-.207-4.437-.625-1.23-.414-2.242-1.004-3.032-1.765a6.998 6.998 0 0 1-1.734-2.735c-.367-1.062-.547-2.234-.547-3.515 0-1.07.176-2.164.531-3.282a9.002 9.002 0 0 1 1.704-3.062c.77-.914 1.75-1.676 2.937-2.281 1.188-.602 2.617-.907 4.297-.907 3.445 0 6.039 1.063 7.781 3.188 1.75 2.117 2.625 5.164 2.625 9.14 0 2.618-.344 4.922-1.031 6.922-.68 2-1.73 3.684-3.156 5.047-1.418 1.356-3.235 2.387-5.453 3.094-2.211.71-4.836 1.07-7.875 1.094a90.625 90.625 0 0 0-.125-2.469c-.055-.8-.106-1.629-.157-2.484 1.52-.032 2.891-.145 4.11-.344 1.226-.195 2.304-.531 3.234-1a7.477 7.477 0 0 0 2.39-1.86c.657-.77 1.173-1.742 1.548-2.921Zm-180.561-256c.613 0 1.253-.055 1.921-.172.664-.125 1.157-.297 1.47-.516v-.359c0-.102.003-.207.015-.312a1.75 1.75 0 0 0 .031-.282 22.022 22.022 0 0 0-.25-2.703c-.125-.844-.352-1.578-.672-2.203a3.775 3.775 0 0 0-1.312-1.469c-.543-.363-1.211-.547-2-.547-.649 0-1.211.137-1.688.407-.48.261-.867.605-1.156 1.03-.293.43-.512.9-.656 1.407-.149.5-.22.992-.22 1.469 0 1.45.349 2.523 1.048 3.219.707.687 1.863 1.03 3.469 1.03Zm2.921 3.875a7.221 7.221 0 0 1-1.875.594 10.43 10.43 0 0 1-1.734.172c-1.73 0-3.21-.207-4.437-.625-1.231-.415-2.243-1.004-3.032-1.766a6.998 6.998 0 0 1-1.734-2.734c-.367-1.063-.547-2.235-.547-3.516 0-1.07.176-2.164.531-3.281a9.002 9.002 0 0 1 1.703-3.063c.77-.914 1.75-1.676 2.938-2.281 1.187-.602 2.617-.906 4.297-.906 3.445 0 6.039 1.062 7.781 3.187 1.75 2.117 2.625 5.164 2.625 9.14 0 2.618-.344 4.923-1.031 6.923-.68 2-1.73 3.683-3.156 5.047-1.418 1.355-3.235 2.386-5.454 3.093-2.21.711-4.836 1.07-7.875 1.094a90.625 90.625 0 0 0-.125-2.469c-.054-.8-.105-1.629-.156-2.484 1.52-.031 2.89-.145 4.11-.344 1.226-.195 2.304-.531 3.234-1a7.477 7.477 0 0 0 2.39-1.86c.657-.769 1.172-1.741 1.547-2.921Zm0 0"/>
  <path d="m355.762 10.207.453.043.441.063.442.085.43.094.429.113.414.137.414.14.406.165.395.172.387.195.386.207.364.223.363.234.351.242.344.266.328.27.32.285.31.3.3.309.285.32.27.328.258.344.25.352.234.363.223.363.199.387.195.387.176.398.168.403.14.414.137.421.106.422.101.434.078.437.067.45.047.449.03.453.005.465v334.933l-.004.457-.031.461-.047.45-.067.441-.078.438-.101.433-.106.43-.137.414-.14.414-.168.41-.176.39-.195.387-.2.38-.222.37-.234.364-.25.351-.258.344-.27.328-.285.32-.3.31-.31.3-.32.285-.328.27-.344.257-.351.25-.363.239-.364.21-.386.212-.387.19-.395.18-.406.165-.414.14-.414.13-.43.112-.43.102-.44.078-.442.067-.453.046-.457.032-.457.007H19.91l-.457-.007-.457-.032-.45-.046-.448-.067-.438-.078-.433-.102-.422-.113-.422-.129-.414-.14-.403-.164-.398-.18-.387-.192-.379-.21-.37-.211-.364-.239-.352-.25-.343-.257-.328-.27-.32-.285-.31-.3-.3-.31-.285-.32-.27-.328-.258-.344-.25-.351-.238-.364-.219-.37-.207-.38-.187-.386-.18-.39-.164-.411-.14-.414-.137-.414-.114-.43-.093-.433-.086-.438-.059-.441-.05-.45-.028-.46-.008-.458V21.34l.008-.465.027-.453.051-.45.059-.449.086-.437.093-.434.114-.422.136-.421.141-.414.164-.403.18-.398.187-.387.207-.387.22-.363.237-.363.25-.352.258-.344.27-.328.285-.32.3-.309.31-.3.32-.286.328-.27.343-.265.352-.242.363-.234.371-.223.38-.207.386-.195.398-.172.403-.164.414-.14.422-.138.422-.113.433-.094.438-.085.449-.063.45-.043.456-.031.457-.008h334.938l.457.008ZM28.187 18.914l-.457.031-.453.043-.441.063-.445.086-.426.093-.43.114-.422.136-.406.145-.41.164-.39.168-.395.195-.38.207-.37.223-.356.234-.351.243-.344.265-.328.27-.32.289-.31.297-.3.308-.285.32-.27.329-.265.343-.242.352-.239.355-.218.372-.207.378-.188.395-.18.395-.164.406-.14.406-.137.422-.113.43-.094.43-.086.44-.059.442-.046.453-.032.457-.008.457v317.465l.008.457.032.457.046.453.059.442.086.437.094.434.113.43.137.414.14.414.164.406.18.394.188.387.207.38.218.37.239.363.242.352.265.344.27.328.285.32.3.309.31.3.32.286.328.27.344.257.351.25.356.234.37.215.38.207.394.196.39.18.411.163.406.141.422.129.43.113.426.102.445.078.441.066.453.047.457.031.458.008h317.464l.457-.008.457-.03.454-.048.441-.066.441-.078.43-.102.43-.113.414-.129.414-.14.406-.165.395-.18.386-.195.383-.207.367-.215.364-.234.351-.25.34-.258.332-.27.32-.284.309-.301.297-.309.289-.32.27-.328.257-.344.25-.352.235-.363.222-.37.2-.38.195-.387.176-.394.164-.406.144-.414.137-.414.105-.43.102-.434.078-.437.063-.442.05-.453.032-.457.004-.457V30.07l-.004-.457-.032-.457-.05-.453-.063-.441-.078-.442-.102-.43-.105-.43-.137-.42-.144-.407-.164-.406-.176-.395-.195-.395-.2-.378-.222-.372-.235-.355-.25-.352-.258-.343-.27-.328-.288-.32-.297-.31-.309-.296-.32-.29-.332-.269-.34-.265-.351-.243-.364-.234-.367-.223-.383-.207-.386-.195-.395-.168-.406-.164-.414-.145-.414-.136-.43-.114-.43-.093-.441-.086-.441-.063-.454-.043-.457-.03-.457-.005H28.645Zm0 0"/>
</svg>
