<svg xmlns="http://www.w3.org/2000/svg" version="1.2" viewBox="0 0 375 375">
  <path d="M170.01 194.818a491.828 491.828 0 0 0-20.312-32.89c-7.274-10.821-15.012-21.036-23.219-30.641v63.53h-21.547V97.835h17.766c3.082 3.074 6.488 6.851 10.219 11.328a422.473 422.473 0 0 1 11.406 14.359 491.759 491.759 0 0 1 11.547 15.813 925.785 925.785 0 0 1 10.781 15.734V97.834h21.687v96.984Zm35.823-36.25c0-6.531 1-12.242 3-17.14 2.008-4.895 4.645-8.973 7.906-12.235 3.27-3.27 7.024-5.742 11.266-7.422 4.25-1.687 8.613-2.531 13.094-2.531 10.445 0 18.703 3.199 24.765 9.594 6.07 6.386 9.11 15.789 9.11 28.203 0 1.21-.047 2.539-.14 3.984-.095 1.45-.188 2.73-.282 3.844h-47.313c.47 4.293 2.473 7.699 6.016 10.219 3.55 2.523 8.312 3.78 14.281 3.78 3.82 0 7.578-.347 11.266-1.046 3.687-.695 6.695-1.563 9.031-2.594l2.797 16.938c-1.117.562-2.61 1.125-4.484 1.687-1.868.555-3.946 1.035-6.235 1.453-2.281.426-4.73.774-7.344 1.047a72.888 72.888 0 0 1-7.828.422c-6.625 0-12.386-.98-17.28-2.937-4.9-1.958-8.954-4.641-12.173-8.047-3.219-3.407-5.601-7.438-7.14-12.094-1.543-4.664-2.313-9.707-2.313-15.125Zm48.984-7.969a21.811 21.811 0 0 0-.906-5.187 12.915 12.915 0 0 0-2.375-4.47c-1.074-1.312-2.43-2.382-4.062-3.218-1.637-.844-3.668-1.265-6.094-1.265-2.336 0-4.34.398-6.016 1.187-1.68.793-3.078 1.844-4.203 3.156-1.117 1.305-1.98 2.82-2.594 4.547a29.716 29.716 0 0 0-1.328 5.25Zm-96.24 115.024a136.106 136.106 0 0 0-5.797-9.407 96.315 96.315 0 0 0-6.64-8.75v18.157h-6.157v-27.72h5.078c.875.876 1.844 1.954 2.907 3.235 1.07 1.281 2.16 2.653 3.265 4.11a126.336 126.336 0 0 1 3.313 4.515 253.605 253.605 0 0 1 3.078 4.5v-16.36h6.203v27.72Zm10.24-10.36c0-1.863.285-3.492.86-4.89.57-1.407 1.32-2.57 2.25-3.5a9.42 9.42 0 0 1 3.218-2.125 10.218 10.218 0 0 1 3.75-.72c2.988 0 5.347.915 7.078 2.735 1.738 1.824 2.61 4.512 2.61 8.063 0 .343-.016.726-.048 1.14-.023.407-.046.774-.078 1.094h-13.515c.133 1.23.707 2.203 1.718 2.922 1.008.719 2.368 1.078 4.079 1.078 1.093 0 2.164-.098 3.218-.297 1.051-.195 1.91-.441 2.578-.734l.797 4.828c-.312.168-.742.328-1.28.484-.532.157-1.126.29-1.782.407-.649.125-1.344.226-2.094.312a20.29 20.29 0 0 1-2.234.125c-1.899 0-3.547-.281-4.953-.844-1.399-.562-2.555-1.328-3.47-2.297a9.279 9.279 0 0 1-2.046-3.468c-.438-1.332-.656-2.77-.656-4.313Zm14-2.281a5.617 5.617 0 0 0-.266-1.484 3.573 3.573 0 0 0-1.828-2.188c-.469-.25-1.055-.375-1.75-.375-.668 0-1.242.117-1.719.344-.48.23-.883.531-1.203.906a4.268 4.268 0 0 0-.734 1.297 9.159 9.159 0 0 0-.375 1.5Zm30.047 2.078c0 1.656-.242 3.172-.719 4.547-.48 1.375-1.18 2.547-2.093 3.516a9.505 9.505 0 0 1-3.266 2.265c-1.262.531-2.68.797-4.25.797-1.543 0-2.95-.266-4.219-.797a9.656 9.656 0 0 1-3.265-2.265c-.907-.97-1.618-2.141-2.125-3.516-.5-1.375-.75-2.89-.75-4.547 0-1.656.257-3.16.78-4.516.52-1.363 1.239-2.523 2.157-3.484a9.81 9.81 0 0 1 3.281-2.234c1.27-.532 2.649-.797 4.14-.797 1.52 0 2.911.265 4.173.797a9.48 9.48 0 0 1 3.265 2.234c.907.961 1.614 2.121 2.125 3.484.508 1.356.766 2.86.766 4.516Zm-6.078 0c0-1.832-.371-3.273-1.11-4.328-.73-1.063-1.777-1.594-3.14-1.594-1.356 0-2.406.531-3.156 1.594-.75 1.055-1.125 2.496-1.125 4.328 0 1.844.375 3.309 1.125 4.39.75 1.075 1.8 1.61 3.156 1.61 1.363 0 2.41-.535 3.14-1.61.739-1.081 1.11-2.546 1.11-4.39Zm10.67-9.75c1.008-.3 2.317-.578 3.922-.828a32.722 32.722 0 0 1 5.047-.375c1.781 0 3.266.234 4.453.703 1.188.461 2.125 1.117 2.813 1.969.695.855 1.191 1.87 1.484 3.047.29 1.168.438 2.476.438 3.922v11.875h-5.954v-11.157c0-1.925-.257-3.285-.765-4.078-.5-.8-1.446-1.203-2.828-1.203-.43 0-.887.023-1.375.063-.48.043-.903.09-1.266.14v16.235h-5.969Zm-60.472 62.627a7.27 7.27 0 0 1-.61 2.922c-.398.93-.918 1.828-1.562 2.703-.637.868-1.356 1.7-2.157 2.5a122.18 122.18 0 0 1-2.359 2.266c-.398.375-.828.797-1.297 1.266a34.866 34.866 0 0 0-2.484 2.765c-.336.406-.54.746-.61 1.016h11.922v5h-18.484a6.209 6.209 0 0 1-.078-1.11v-.968c0-1.282.203-2.453.61-3.516.413-1.07.956-2.066 1.624-2.984a19.415 19.415 0 0 1 2.25-2.578c.844-.801 1.68-1.602 2.516-2.407.633-.613 1.234-1.191 1.797-1.734a20.189 20.189 0 0 0 1.484-1.61 7.557 7.557 0 0 0 1-1.546c.238-.52.36-1.051.36-1.594 0-1.164-.336-1.988-1-2.469-.669-.476-1.497-.719-2.485-.719-.719 0-1.398.118-2.031.344a9.3 9.3 0 0 0-1.719.797c-.512.305-.953.61-1.328.922-.375.305-.656.547-.844.734l-2.953-4.156c1.164-1.094 2.531-1.992 4.094-2.703a12.025 12.025 0 0 1 5.015-1.063c1.625 0 3.024.188 4.204.563 1.175.375 2.144.902 2.906 1.578a6.077 6.077 0 0 1 1.672 2.484c.363.97.547 2.07.547 3.297Zm24.235 6.516c0 4.668-.887 8.25-2.656 10.75-1.774 2.492-4.219 3.734-7.344 3.734-3.117 0-5.562-1.242-7.344-3.734-1.773-2.5-2.656-6.082-2.656-10.75 0-2.32.234-4.375.703-6.156.469-1.79 1.14-3.297 2.016-4.516.883-1.226 1.937-2.16 3.156-2.797 1.227-.644 2.602-.969 4.125-.969 3.125 0 5.57 1.25 7.344 3.75 1.77 2.493 2.656 6.055 2.656 10.688Zm-6.078 0c0-1.383-.07-2.645-.203-3.781-.137-1.133-.352-2.114-.64-2.938-.294-.82-.696-1.457-1.204-1.906-.5-.457-1.125-.688-1.875-.688s-1.371.23-1.86.688c-.492.45-.89 1.086-1.202 1.906-.305.824-.524 1.805-.657 2.938a31.88 31.88 0 0 0-.203 3.78c0 1.388.067 2.653.203 3.798.133 1.148.352 2.137.657 2.969.312.824.71 1.464 1.203 1.921.488.45 1.109.672 1.859.672s1.375-.222 1.875-.672c.508-.457.91-1.097 1.203-1.921.29-.832.504-1.82.64-2.97.134-1.144.204-2.41.204-3.796Zm16.079 10.766c0 1.199-.383 2.109-1.14 2.734-.762.625-1.622.937-2.579.937-.96 0-1.82-.312-2.578-.937-.761-.625-1.14-1.535-1.14-2.734 0-1.196.379-2.11 1.14-2.735.758-.633 1.617-.953 2.578-.953.957 0 1.817.32 2.578.953.758.625 1.141 1.54 1.141 2.735Zm3.996-18.797c.77-.32 1.578-.692 2.422-1.11.844-.414 1.66-.867 2.453-1.36a29.694 29.694 0 0 0 2.297-1.546 15.52 15.52 0 0 0 1.985-1.75h4.171v27.719h-5.968v-19.953c-.805.53-1.7 1.015-2.688 1.453-.98.437-1.937.82-2.875 1.14Zm41.126 14.234c0 1.2-.21 2.297-.625 3.297a7.383 7.383 0 0 1-1.859 2.625c-.824.742-1.855 1.32-3.094 1.734-1.242.414-2.68.625-4.312.625-1.867 0-3.418-.261-4.657-.78-1.242-.52-2.242-1.165-3-1.938-.761-.77-1.304-1.614-1.625-2.532-.312-.925-.468-1.773-.468-2.547 0-.8.101-1.535.312-2.203a7.28 7.28 0 0 1 .875-1.812 9.357 9.357 0 0 1 1.266-1.5c.469-.457.969-.89 1.5-1.297-1.149-.926-1.996-1.844-2.547-2.75-.543-.906-.813-2.066-.813-3.484 0-1.063.22-2.086.657-3.079a7.863 7.863 0 0 1 1.86-2.578c.8-.738 1.769-1.328 2.905-1.765 1.133-.438 2.395-.657 3.782-.657 1.625 0 3.015.235 4.171.704 1.165.468 2.118 1.062 2.86 1.78.75.72 1.289 1.528 1.625 2.423.332.886.5 1.773.5 2.656 0 1.281-.34 2.477-1.016 3.578-.68 1.106-1.527 1.98-2.547 2.625 1.52.98 2.61 2.012 3.266 3.094.656 1.086.984 2.344.984 3.781Zm-13.843.234c0 .325.07.68.218 1.063.145.387.38.742.703 1.062.32.325.735.594 1.235.813.508.21 1.125.312 1.844.312 1.382 0 2.394-.332 3.03-1 .645-.664.97-1.414.97-2.25 0-.613-.141-1.16-.422-1.64a4.266 4.266 0 0 0-1.14-1.25 8.103 8.103 0 0 0-1.704-.969 23.084 23.084 0 0 0-2.094-.781 8.21 8.21 0 0 0-1.89 1.969c-.5.742-.75 1.632-.75 2.671Zm7.406-13.156a2.7 2.7 0 0 0-.188-.937 2.6 2.6 0 0 0-.593-.938 3.586 3.586 0 0 0-1.063-.734c-.43-.207-.95-.313-1.562-.313-.586 0-1.09.094-1.516.282a3.03 3.03 0 0 0-1.063.75 3.06 3.06 0 0 0-.625.968c-.136.344-.203.68-.203 1 0 .856.313 1.657.938 2.407.633.742 1.71 1.382 3.234 1.921.852-.539 1.504-1.156 1.953-1.843.457-.696.688-1.551.688-2.563ZM40.297 54.297c.77-.32 1.578-.691 2.422-1.11.844-.413 1.66-.867 2.453-1.359a30.39 30.39 0 0 0 2.297-1.547 15.52 15.52 0 0 0 1.984-1.75h4.172v27.72h-5.969V56.296a18.291 18.291 0 0 1-2.687 1.453c-.98.438-1.938.82-2.875 1.14Zm41.28 8.031c0 4.668-.887 8.25-2.656 10.75-1.774 2.492-4.219 3.735-7.344 3.735-3.117 0-5.562-1.243-7.344-3.735-1.773-2.5-2.656-6.082-2.656-10.75 0-2.32.234-4.375.703-6.156.469-1.789 1.14-3.297 2.016-4.516.883-1.226 1.937-2.16 3.156-2.796 1.227-.645 2.602-.97 4.125-.97 3.125 0 5.57 1.25 7.344 3.75 1.77 2.493 2.656 6.055 2.656 10.688Zm-6.078 0c0-1.383-.07-2.644-.203-3.781-.137-1.133-.352-2.113-.64-2.937-.294-.82-.696-1.458-1.204-1.907-.5-.457-1.125-.687-1.875-.687s-1.371.23-1.86.687c-.491.45-.89 1.086-1.202 1.907-.305.824-.524 1.804-.657 2.937a31.88 31.88 0 0 0-.203 3.781c0 1.387.067 2.653.203 3.797.133 1.149.352 2.137.657 2.969.312.824.71 1.465 1.203 1.922.488.449 1.11.672 1.86.672s1.374-.223 1.874-.672c.508-.457.91-1.098 1.203-1.922.29-.832.504-1.82.64-2.969.134-1.144.204-2.41.204-3.797Zm0 0"/>
  <path d="m355.762 10.207.453.043.441.063.442.085.43.094.429.113.414.137.414.14.406.169.395.168.387.195.386.207.364.223.363.234.351.242.344.266.328.27.32.285.31.3.3.309.285.32.27.328.258.344.25.352.234.363.223.363.199.387.195.387.176.398.168.403.14.414.137.421.106.422.101.434.078.437.067.45.047.449.03.453.005.465v334.933l-.004.461-.031.457-.047.45-.067.441-.078.438-.101.433-.106.43-.137.414-.14.414-.168.41-.176.39-.195.387-.2.38-.222.37-.234.364-.25.351-.258.344-.27.328-.285.32-.3.31-.31.3-.32.285-.328.27-.344.257-.351.25-.363.239-.364.214-.386.207-.387.192-.395.18-.406.164-.414.14-.414.13-.43.116-.43.098-.44.078-.442.067-.453.05-.457.028-.457.007H19.91l-.457-.007-.457-.028-.45-.05-.448-.067-.438-.078-.433-.098-.422-.117-.422-.129-.414-.14-.403-.164-.398-.18-.387-.192-.379-.207-.37-.214-.364-.239-.352-.25-.343-.257-.328-.27-.32-.285-.31-.3-.3-.31-.285-.32-.27-.328-.258-.344-.25-.351-.238-.364-.219-.37-.207-.38-.187-.386-.18-.39-.164-.411-.14-.414-.137-.414-.114-.43-.093-.433-.086-.438-.059-.441-.05-.45-.028-.457-.008-.46V21.34l.008-.465.027-.453.051-.45.059-.449.086-.437.093-.434.114-.422.136-.421.141-.414.164-.403.18-.398.187-.387.207-.387.22-.363.237-.363.25-.352.258-.344.27-.328.285-.32.3-.309.31-.3.32-.286.328-.27.343-.265.352-.242.363-.234.371-.223.38-.207.386-.195.398-.168.403-.168.414-.14.422-.138.422-.113.433-.094.438-.085.449-.063.45-.043.456-.031.457-.004h334.938l.457.004ZM28.187 18.914l-.457.031-.453.043-.441.063-.445.086-.426.093-.43.114-.422.136-.406.145-.41.164-.39.172-.395.191-.38.207-.37.223-.356.234-.351.243-.344.265-.328.27-.32.289-.31.297-.3.308-.285.32-.27.333-.265.34-.242.351-.239.355-.218.375-.207.375-.188.395-.18.395-.164.406-.14.406-.137.422-.113.43-.094.43-.086.44-.059.442-.046.453-.032.457-.008.457v317.465l.008.457.032.461.046.45.059.44.086.438.094.434.113.43.137.414.14.414.164.41.18.39.188.387.207.38.218.37.239.363.242.352.265.344.27.328.285.32.3.309.31.3.32.286.328.27.344.257.351.25.356.238.37.211.38.207.394.196.39.18.411.163.406.141.422.129.43.113.426.102.445.078.441.066.453.047.457.031.458.008h317.464l.457-.008.457-.03.454-.048.441-.066.441-.078.43-.102.43-.113.414-.129.414-.14.406-.165.395-.18.386-.195.383-.207.367-.21.364-.239.351-.25.34-.258.332-.27.32-.284.309-.301.297-.309.289-.32.27-.328.257-.344.25-.352.235-.363.222-.37.2-.38.195-.387.176-.39.164-.41.144-.414.137-.414.105-.43.102-.434.078-.437.063-.442.05-.449.032-.46.004-.458V30.07l-.004-.457-.032-.457-.05-.453-.063-.441-.078-.442-.102-.43-.105-.43-.137-.42-.144-.407-.164-.406-.176-.395-.195-.39-.2-.38-.222-.375-.235-.355-.25-.352-.258-.34-.27-.331-.288-.32-.297-.31-.309-.296-.32-.29-.332-.269-.34-.265-.351-.243-.364-.234-.367-.223-.383-.207-.386-.191-.395-.172-.406-.164-.414-.145-.414-.136-.43-.114-.43-.093-.441-.086-.441-.063-.454-.043-.457-.03-.457-.005H28.645Zm0 0"/>
</svg>
