<svg xmlns="http://www.w3.org/2000/svg" version="1.2" viewBox="0 0 375 375">
  <path d="M172.18 194.818a491.828 491.828 0 0 0-20.313-32.89c-7.273-10.821-15.012-21.036-23.219-30.641v63.53h-21.547V97.835h17.766c3.082 3.074 6.488 6.851 10.219 11.328a422.473 422.473 0 0 1 11.406 14.359 491.759 491.759 0 0 1 11.547 15.813 925.785 925.785 0 0 1 10.781 15.734V97.834h21.688v96.984Zm67.447-14.563c2.051 0 4.008-.039 5.875-.125 1.875-.093 3.367-.234 4.485-.421v-15.813c-.836-.187-2.094-.375-3.782-.562a41.803 41.803 0 0 0-4.609-.282c-1.961 0-3.805.121-5.531.36-1.73.23-3.25.672-4.563 1.328-1.304.648-2.328 1.531-3.078 2.656-.742 1.117-1.11 2.512-1.11 4.188 0 3.273 1.094 5.539 3.282 6.796 2.195 1.25 5.207 1.875 9.031 1.875Zm-1.672-61.015c6.157 0 11.285.703 15.391 2.11 4.102 1.398 7.39 3.401 9.86 6.015 2.476 2.617 4.226 5.789 5.25 9.515 1.03 3.73 1.546 7.883 1.546 12.454v43.39c-2.992.649-7.148 1.414-12.469 2.297-5.312.895-11.746 1.344-19.296 1.344-4.762 0-9.079-.422-12.954-1.266-3.867-.844-7.199-2.219-10-4.125-2.804-1.914-4.953-4.41-6.453-7.484-1.492-3.082-2.234-6.864-2.234-11.344 0-4.29.863-7.926 2.594-10.906 1.726-2.989 4.035-5.367 6.922-7.14 2.894-1.782 6.207-3.067 9.937-3.86 3.738-.79 7.613-1.188 11.625-1.188 2.707 0 5.11.121 7.203.36 2.102.23 3.805.53 5.11.906v-1.969c0-3.539-1.075-6.383-3.22-8.531-2.148-2.145-5.874-3.219-11.187-3.219a72.22 72.22 0 0 0-10.515.766c-3.45.511-6.43 1.234-8.938 2.172l-2.672-16.797c1.22-.375 2.735-.77 4.547-1.188a82.258 82.258 0 0 1 5.953-1.11 121.96 121.96 0 0 1 6.782-.843 72.57 72.57 0 0 1 7.218-.36ZM127.606 260.857c.875 0 1.598-.07 2.172-.219.57-.144 1.031-.344 1.375-.594.352-.25.594-.546.719-.89a3.29 3.29 0 0 0 .203-1.172c0-.906-.43-1.656-1.281-2.25-.844-.602-2.309-1.254-4.39-1.953a29.271 29.271 0 0 1-2.72-1.094 10.325 10.325 0 0 1-2.453-1.562 7.479 7.479 0 0 1-1.765-2.282c-.45-.894-.672-1.984-.672-3.265 0-1.27.238-2.422.718-3.453a7.523 7.523 0 0 1 2.047-2.625c.883-.72 1.953-1.27 3.203-1.657 1.25-.383 2.66-.578 4.235-.578 1.863 0 3.476.203 4.844.61 1.363.398 2.484.835 3.359 1.312l-1.797 4.922a16.274 16.274 0 0 0-2.578-1.063c-.95-.312-2.09-.468-3.422-.468-1.5 0-2.578.21-3.234.625-.649.418-.969 1.054-.969 1.906 0 .5.117.93.36 1.281.238.344.577.656 1.015.938.445.28.957.539 1.531.765.57.22 1.203.45 1.89.688a40.83 40.83 0 0 1 3.75 1.578c1.071.523 1.962 1.133 2.673 1.828a6.459 6.459 0 0 1 1.578 2.438c.351.937.531 2.074.531 3.406 0 2.586-.914 4.59-2.734 6.015-1.813 1.43-4.543 2.141-8.188 2.141-1.23 0-2.34-.074-3.328-.219a22.941 22.941 0 0 1-2.625-.53 16.14 16.14 0 0 1-1.953-.688c-.543-.239-1-.47-1.375-.688l1.75-4.953c.832.45 1.852.855 3.062 1.219 1.22.355 2.708.53 4.47.53Zm34.999-5.797c0 1.656-.242 3.172-.719 4.547-.48 1.375-1.18 2.547-2.094 3.516a9.505 9.505 0 0 1-3.265 2.265c-1.262.531-2.68.797-4.25.797-1.543 0-2.95-.266-4.22-.797a9.656 9.656 0 0 1-3.265-2.265c-.906-.97-1.617-2.141-2.125-3.516-.5-1.375-.75-2.89-.75-4.547 0-1.656.258-3.16.782-4.516.52-1.363 1.238-2.523 2.156-3.484a9.81 9.81 0 0 1 3.281-2.234c1.27-.532 2.649-.797 4.14-.797 1.52 0 2.91.265 4.173.797a9.48 9.48 0 0 1 3.265 2.234c.906.961 1.613 2.121 2.125 3.484.508 1.356.766 2.86.766 4.516Zm-6.078 0c0-1.832-.371-3.273-1.11-4.328-.73-1.063-1.777-1.594-3.14-1.594-1.356 0-2.407.531-3.157 1.594-.75 1.055-1.125 2.496-1.125 4.328 0 1.844.375 3.309 1.125 4.39.75 1.075 1.801 1.61 3.157 1.61 1.363 0 2.41-.535 3.14-1.61.739-1.081 1.11-2.546 1.11-4.39Zm15.748-.125c0 1.844.41 3.328 1.235 4.453.832 1.117 2.062 1.672 3.687 1.672.531 0 1.02-.02 1.469-.062.457-.04.836-.086 1.14-.141v-10.828c-.375-.238-.867-.438-1.468-.594a6.786 6.786 0 0 0-1.813-.25c-2.836 0-4.25 1.918-4.25 5.75Zm13.485 10a19.26 19.26 0 0 1-1.844.469 29.83 29.83 0 0 1-2.172.375 43.77 43.77 0 0 1-2.328.25c-.781.07-1.531.11-2.25.11-1.742 0-3.293-.25-4.656-.75-1.356-.509-2.5-1.24-3.438-2.188-.93-.946-1.64-2.094-2.14-3.438-.493-1.344-.735-2.86-.735-4.547 0-1.695.211-3.234.64-4.61.427-1.374 1.04-2.538 1.844-3.5a7.998 7.998 0 0 1 2.938-2.202c1.156-.508 2.484-.766 3.984-.766.82 0 1.563.086 2.22.25.655.156 1.316.383 1.983.672v-9.516l5.954-.968Zm11.566.688h-5.97v-21.047h5.97Zm.547-27.125c0 1.093-.356 1.96-1.063 2.593-.7.625-1.527.938-2.484.938-.97 0-1.809-.313-2.516-.938-.7-.633-1.047-1.5-1.047-2.593 0-1.094.348-1.954 1.047-2.579.707-.625 1.547-.937 2.516-.937.957 0 1.785.312 2.484.937.707.625 1.063 1.485 1.063 2.579Zm23.013 26.406c-1.024.293-2.336.562-3.938.812-1.594.258-3.273.39-5.031.39-1.781 0-3.266-.241-4.453-.718-1.188-.476-2.133-1.148-2.828-2.015-.688-.875-1.184-1.91-1.485-3.11-.293-1.195-.437-2.515-.437-3.953v-11.734h5.968v11c0 1.93.25 3.32.75 4.172.508.855 1.457 1.28 2.844 1.28.426 0 .88-.019 1.36-.062.476-.039.906-.086 1.28-.14v-16.25h5.97Zm17.154-10.438c0-1.925-.25-3.285-.75-4.078-.493-.8-1.337-1.203-2.532-1.203-.375 0-.766.023-1.172.063-.398.043-.777.09-1.14.14v16.235h-5.97V245.31a37.888 37.888 0 0 1 3.938-.813c.758-.124 1.54-.218 2.344-.28a26.7 26.7 0 0 1 2.36-.11c1.519 0 2.753.195 3.702.578.946.387 1.727.844 2.344 1.375a10.128 10.128 0 0 1 2.938-1.437c1.101-.344 2.125-.516 3.062-.516 1.676 0 3.05.234 4.125.703 1.082.461 1.942 1.117 2.578 1.969.645.855 1.086 1.87 1.328 3.047.239 1.168.36 2.476.36 3.922v11.875h-5.953v-11.157c0-1.925-.25-3.285-.75-4.078-.493-.8-1.336-1.203-2.532-1.203-.324 0-.773.086-1.343.25-.575.156-1.047.356-1.422.594.187.605.304 1.25.36 1.937.05.68.077 1.403.077 2.172v11.485h-5.953Zm-81.056 53.472a7.27 7.27 0 0 1-.61 2.921c-.398.93-.918 1.829-1.562 2.704a21.752 21.752 0 0 1-2.157 2.5 122.18 122.18 0 0 1-2.359 2.265c-.398.375-.828.797-1.297 1.266a34.866 34.866 0 0 0-2.484 2.765c-.336.407-.54.747-.61 1.016h11.922v5h-18.484a6.209 6.209 0 0 1-.078-1.11v-.968c0-1.281.203-2.453.61-3.516.413-1.07.956-2.066 1.624-2.984a19.415 19.415 0 0 1 2.25-2.578c.844-.801 1.68-1.602 2.516-2.406.633-.614 1.234-1.192 1.797-1.735a20.189 20.189 0 0 0 1.484-1.61 7.557 7.557 0 0 0 1-1.546c.238-.52.36-1.05.36-1.594 0-1.164-.336-1.988-1-2.469-.669-.476-1.497-.718-2.485-.718-.719 0-1.398.117-2.031.343-.625.22-1.2.485-1.719.797-.512.305-.953.61-1.328.922-.375.305-.656.547-.844.735l-2.953-4.157c1.164-1.093 2.531-1.992 4.094-2.703a12.025 12.025 0 0 1 5.015-1.062c1.625 0 3.024.187 4.204.562 1.175.375 2.144.903 2.906 1.578a6.077 6.077 0 0 1 1.672 2.485c.363.968.547 2.07.547 3.297Zm22.719 0a7.27 7.27 0 0 1-.609 2.921c-.398.93-.918 1.829-1.562 2.704a21.752 21.752 0 0 1-2.157 2.5 122.18 122.18 0 0 1-2.36 2.265c-.398.375-.827.797-1.296 1.266a34.866 34.866 0 0 0-2.484 2.765c-.336.407-.54.747-.61 1.016h11.922v5h-18.484a6.209 6.209 0 0 1-.078-1.11v-.968c0-1.281.203-2.453.609-3.516.414-1.07.957-2.066 1.625-2.984a19.415 19.415 0 0 1 2.25-2.578c.844-.801 1.68-1.602 2.516-2.406.632-.614 1.234-1.192 1.797-1.735a20.189 20.189 0 0 0 1.484-1.61 7.557 7.557 0 0 0 1-1.546c.238-.52.36-1.05.36-1.594 0-1.164-.337-1.988-1-2.469-.669-.476-1.497-.718-2.485-.718-.719 0-1.399.117-2.031.343-.625.22-1.2.485-1.72.797-.51.305-.952.61-1.327.922-.375.305-.656.547-.844.735l-2.953-4.157c1.164-1.093 2.531-1.992 4.094-2.703a12.025 12.025 0 0 1 5.015-1.062c1.625 0 3.024.187 4.203.562 1.176.375 2.145.903 2.907 1.578a6.077 6.077 0 0 1 1.672 2.485c.363.968.546 2.07.546 3.297Zm11.517 17.281c0 1.199-.383 2.11-1.14 2.734-.762.625-1.622.938-2.579.938-.96 0-1.82-.313-2.578-.938-.761-.625-1.14-1.535-1.14-2.734 0-1.196.379-2.11 1.14-2.735.758-.632 1.617-.953 2.578-.953.957 0 1.817.32 2.578.953.758.625 1.141 1.54 1.141 2.735Zm12.762-11.719c.613 0 1.254-.055 1.922-.172.664-.125 1.156-.297 1.469-.515v-.36c0-.101.003-.207.015-.312a1.75 1.75 0 0 0 .031-.282 22.022 22.022 0 0 0-.25-2.703c-.125-.843-.351-1.578-.671-2.203a3.775 3.775 0 0 0-1.313-1.469c-.543-.363-1.21-.546-2-.546-.648 0-1.21.136-1.687.406-.48.262-.868.605-1.157 1.031-.293.43-.511.898-.656 1.406-.148.5-.219.992-.219 1.47 0 1.448.348 2.522 1.047 3.218.707.687 1.863 1.031 3.469 1.031Zm2.922 3.875a7.221 7.221 0 0 1-1.875.594 10.44 10.44 0 0 1-1.735.172c-1.73 0-3.21-.207-4.437-.625-1.23-.414-2.242-1.004-3.031-1.766a6.998 6.998 0 0 1-1.735-2.734c-.367-1.063-.547-2.235-.547-3.516 0-1.07.176-2.164.532-3.281a9.002 9.002 0 0 1 1.703-3.063c.77-.914 1.75-1.675 2.937-2.28 1.188-.603 2.617-.907 4.297-.907 3.445 0 6.04 1.062 7.781 3.187 1.75 2.117 2.625 5.164 2.625 9.14 0 2.618-.343 4.923-1.03 6.923-.68 2-1.731 3.683-3.157 5.047-1.418 1.355-3.234 2.386-5.453 3.093-2.211.711-4.836 1.07-7.875 1.094a90.625 90.625 0 0 0-.125-2.469c-.055-.8-.106-1.628-.156-2.484 1.52-.031 2.89-.144 4.109-.344 1.226-.195 2.305-.53 3.234-1a7.477 7.477 0 0 0 2.39-1.86c.657-.769 1.173-1.741 1.548-2.92Zm19.798-3.875c.613 0 1.254-.055 1.922-.172.664-.125 1.156-.297 1.468-.515v-.36c0-.101.004-.207.016-.312a1.75 1.75 0 0 0 .031-.282 22.022 22.022 0 0 0-.25-2.703c-.125-.843-.351-1.578-.672-2.203a3.775 3.775 0 0 0-1.312-1.469c-.543-.363-1.211-.546-2-.546-.649 0-1.211.136-1.688.406-.48.262-.867.605-1.156 1.031-.293.43-.512.898-.656 1.406-.149.5-.219.992-.219 1.47 0 1.448.348 2.522 1.047 3.218.707.687 1.863 1.031 3.469 1.031Zm2.922 3.875a7.221 7.221 0 0 1-1.875.594 10.44 10.44 0 0 1-1.735.172c-1.73 0-3.21-.207-4.437-.625-1.23-.414-2.242-1.004-3.032-1.766a6.998 6.998 0 0 1-1.734-2.734c-.367-1.063-.547-2.235-.547-3.516 0-1.07.176-2.164.531-3.281a9.002 9.002 0 0 1 1.704-3.063c.77-.914 1.75-1.675 2.937-2.28 1.188-.603 2.617-.907 4.297-.907 3.445 0 6.039 1.062 7.781 3.187 1.75 2.117 2.625 5.164 2.625 9.14 0 2.618-.344 4.923-1.031 6.923-.68 2-1.73 3.683-3.156 5.047-1.418 1.355-3.235 2.386-5.453 3.093-2.211.711-4.836 1.07-7.875 1.094a90.625 90.625 0 0 0-.125-2.469c-.055-.8-.106-1.628-.157-2.484 1.52-.031 2.891-.144 4.11-.344 1.226-.195 2.304-.53 3.234-1a7.477 7.477 0 0 0 2.39-1.86c.657-.769 1.173-1.741 1.548-2.92ZM40.297 54.297c.77-.32 1.578-.691 2.422-1.11.844-.413 1.66-.867 2.453-1.359a30.39 30.39 0 0 0 2.297-1.547 15.52 15.52 0 0 0 1.984-1.75h4.172v27.72h-5.969V56.296a18.291 18.291 0 0 1-2.687 1.453c-.98.438-1.938.82-2.875 1.14Zm22.718 0c.77-.32 1.578-.691 2.421-1.11.844-.413 1.66-.867 2.454-1.359a30.17 30.17 0 0 0 2.296-1.547 15.52 15.52 0 0 0 1.985-1.75h4.172v27.72h-5.969V56.296c-.805.531-1.7 1.016-2.688 1.453-.98.438-1.937.82-2.875 1.14Zm0 0"/>
  <path d="m355.762 10.207.453.043.441.063.442.085.43.094.429.113.414.137.414.14.406.169.395.168.387.195.386.207.364.223.363.234.351.242.344.266.328.27.32.285.31.3.3.309.285.32.27.328.258.344.25.352.234.363.223.363.199.387.195.387.176.398.168.403.14.414.137.421.106.422.101.434.078.437.067.45.047.449.03.453.005.465v334.933l-.004.461-.031.457-.047.45-.067.441-.078.438-.101.433-.106.43-.137.414-.14.414-.168.41-.176.39-.195.387-.2.38-.222.37-.234.364-.25.351-.258.344-.27.328-.285.32-.3.31-.31.3-.32.285-.328.27-.344.257-.351.25-.363.239-.364.214-.386.207-.387.192-.395.18-.406.164-.414.14-.414.13-.43.116-.43.098-.44.078-.442.067-.453.05-.457.028-.457.007H19.91l-.457-.007-.457-.028-.45-.05-.448-.067-.438-.078-.433-.098-.422-.117-.422-.129-.414-.14-.403-.164-.398-.18-.387-.192-.379-.207-.37-.214-.364-.239-.352-.25-.343-.257-.328-.27-.32-.285-.31-.3-.3-.31-.285-.32-.27-.328-.258-.344-.25-.351-.238-.364-.219-.37-.207-.38-.187-.386-.18-.39-.164-.411-.14-.414-.137-.414-.114-.43-.093-.433-.086-.438-.059-.441-.05-.45-.028-.457-.008-.46V21.34l.008-.465.027-.453.051-.45.059-.449.086-.437.093-.434.114-.422.136-.421.141-.414.164-.403.18-.398.187-.387.207-.387.22-.363.237-.363.25-.352.258-.344.27-.328.285-.32.3-.309.31-.3.32-.286.328-.27.343-.265.352-.242.363-.234.371-.223.38-.207.386-.195.398-.168.403-.168.414-.14.422-.138.422-.113.433-.094.438-.085.449-.063.45-.043.456-.031.457-.004h334.938l.457.004ZM28.187 18.914l-.457.031-.453.043-.441.063-.445.086-.426.093-.43.114-.422.136-.406.145-.41.164-.39.172-.395.191-.38.207-.37.223-.356.234-.351.243-.344.265-.328.27-.32.289-.31.297-.3.308-.285.32-.27.333-.265.34-.242.351-.239.355-.218.375-.207.375-.188.395-.18.395-.164.406-.14.406-.137.422-.113.43-.094.43-.086.44-.059.442-.046.453-.032.457-.008.457v317.465l.008.457.032.461.046.45.059.44.086.438.094.434.113.43.137.414.14.414.164.41.18.39.188.387.207.38.218.37.239.363.242.352.265.344.27.328.285.32.3.309.31.3.32.286.328.27.344.257.351.25.356.238.37.211.38.207.394.196.39.18.411.163.406.141.422.129.43.113.426.102.445.078.441.066.453.047.457.031.458.008h317.464l.457-.008.457-.03.454-.048.441-.066.441-.078.43-.102.43-.113.414-.129.414-.14.406-.165.395-.18.386-.195.383-.207.367-.21.364-.239.351-.25.34-.258.332-.27.32-.284.309-.301.297-.309.289-.32.27-.328.257-.344.25-.352.235-.363.222-.37.2-.38.195-.387.176-.39.164-.41.144-.414.137-.414.105-.43.102-.434.078-.437.063-.442.05-.449.032-.46.004-.458V30.07l-.004-.457-.032-.457-.05-.453-.063-.441-.078-.442-.102-.43-.105-.43-.137-.42-.144-.407-.164-.406-.176-.395-.195-.39-.2-.38-.222-.375-.235-.355-.25-.352-.258-.34-.27-.331-.288-.32-.297-.31-.309-.296-.32-.29-.332-.269-.34-.265-.351-.243-.364-.234-.367-.223-.383-.207-.386-.191-.395-.172-.406-.164-.414-.145-.414-.136-.43-.114-.43-.093-.441-.086-.441-.063-.454-.043-.457-.03-.457-.005H28.645Zm0 0"/>
</svg>
