<svg xmlns="http://www.w3.org/2000/svg" version="1.2" viewBox="0 0 375 375">
  <path d="M191.072 194.818a255.141 255.141 0 0 0-3.437-10.344 801.346 801.346 0 0 1-3.703-10.656h-37.797a931.15 931.15 0 0 1-3.703 10.656 232.96 232.96 0 0 0-3.422 10.344h-22.672a1737.965 1737.965 0 0 1 10.344-28.97c3.27-8.862 6.469-17.21 9.594-25.046a886.481 886.481 0 0 1 9.234-22.328 485.946 485.946 0 0 1 9.453-20.64h20.844a761.587 761.587 0 0 1 9.375 20.64 725.993 725.993 0 0 1 9.312 22.328 1001.115 1001.115 0 0 1 9.578 25.047 1692.42 1692.42 0 0 1 10.36 28.969Zm-26.171-75.016c-.47 1.398-1.172 3.309-2.11 5.734-.93 2.43-2 5.23-3.219 8.407-1.21 3.168-2.539 6.668-3.984 10.5a601.498 601.498 0 0 0-4.406 12.03h27.562a1206.414 1206.414 0 0 0-4.343-12.03 402.996 402.996 0 0 0-3.985-10.5c-1.25-3.176-2.344-5.977-3.281-8.407a979.828 979.828 0 0 0-2.234-5.734Zm90.127 76.422c-6.063-.094-10.984-.746-14.766-1.953-3.78-1.219-6.773-2.922-8.968-5.11-2.188-2.195-3.68-4.859-4.47-7.984-.792-3.125-1.187-6.648-1.187-10.578V89.568l20.86-3.36v80.203c0 1.868.133 3.543.406 5.032.281 1.492.816 2.75 1.61 3.78.8 1.032 1.945 1.876 3.437 2.532 1.488.649 3.492 1.063 6.015 1.25Zm-147.882 69.398a85.348 85.348 0 0 0-1-2.953 404.91 404.91 0 0 1-1.047-3.047H94.302c-.344 1.012-.7 2.028-1.063 3.047a56.835 56.835 0 0 0-.984 2.953h-6.469a394.551 394.551 0 0 1 2.953-8.28 350.71 350.71 0 0 1 2.735-7.157 258.187 258.187 0 0 1 2.64-6.375c.875-2.02 1.774-3.988 2.704-5.906h5.968a199.158 199.158 0 0 1 2.672 5.906c.883 2.012 1.77 4.137 2.656 6.375a277.947 277.947 0 0 1 2.735 7.156 468.758 468.758 0 0 1 2.969 8.281Zm-7.485-21.437c-.136.398-.34.945-.609 1.64-.262.688-.57 1.485-.922 2.391-.344.906-.726 1.906-1.14 3a222.509 222.509 0 0 0-1.25 3.453h7.874c-.43-1.207-.84-2.36-1.234-3.453a101.479 101.479 0 0 0-1.14-3 226.52 226.52 0 0 1-.954-2.39 113.7 113.7 0 0 0-.625-1.641Zm25.762 21.844c-1.742-.032-3.152-.22-4.234-.563-1.075-.351-1.922-.844-2.547-1.469a4.836 4.836 0 0 1-1.282-2.265c-.23-.895-.343-1.907-.343-3.032v-23.156l5.968-.969v22.922c0 .543.036 1.028.11 1.453.082.418.238.778.469 1.079.226.293.55.53.968.718.426.188 1.004.309 1.735.36Zm22.202-1.125c-1.023.293-2.336.562-3.937.812-1.594.258-3.274.39-5.031.39-1.782 0-3.266-.241-4.453-.718-1.188-.477-2.133-1.148-2.829-2.016-.687-.875-1.183-1.91-1.484-3.109-.293-1.195-.437-2.516-.437-3.953v-11.735h5.968v11c0 1.93.25 3.32.75 4.172.508.856 1.457 1.282 2.844 1.282.426 0 .879-.02 1.36-.063.476-.039.906-.086 1.28-.14v-16.25h5.97Zm17.154-10.438c0-1.926-.25-3.285-.75-4.078-.492-.8-1.336-1.203-2.531-1.203-.375 0-.766.023-1.172.062-.399.043-.778.09-1.14.141v16.234h-5.97V245.31a37.888 37.888 0 0 1 3.938-.813 27.274 27.274 0 0 1 2.344-.28 26.7 26.7 0 0 1 2.36-.11c1.519 0 2.753.195 3.702.578.946.387 1.727.844 2.344 1.375a10.162 10.162 0 0 1 2.937-1.438c1.102-.343 2.125-.515 3.063-.515 1.676 0 3.05.234 4.125.703 1.082.46 1.941 1.117 2.578 1.969.645.855 1.086 1.87 1.328 3.046.238 1.168.36 2.477.36 3.922v11.875h-5.954v-11.156c0-1.926-.25-3.285-.75-4.078-.492-.8-1.335-1.203-2.53-1.203-.325 0-.774.086-1.345.25-.574.156-1.046.355-1.421.594.187.605.304 1.25.359 1.937.05.68.078 1.402.078 2.172v11.484h-5.953Zm28.886 11.156h-5.969v-21.047h5.969Zm.547-27.125c0 1.094-.356 1.961-1.063 2.594-.699.625-1.527.938-2.484.938-.969 0-1.809-.313-2.516-.938-.699-.633-1.047-1.5-1.047-2.594 0-1.093.348-1.953 1.047-2.578.707-.625 1.547-.937 2.516-.937.957 0 1.785.312 2.484.937.707.625 1.063 1.485 1.063 2.578Zm5.044 6.813c1.008-.301 2.316-.578 3.922-.828a32.722 32.722 0 0 1 5.047-.375c1.781 0 3.265.234 4.453.703 1.187.46 2.125 1.117 2.812 1.969.696.855 1.192 1.87 1.485 3.046.289 1.168.437 2.477.437 3.922v11.875h-5.953v-11.156c0-1.926-.258-3.285-.765-4.078-.5-.8-1.446-1.203-2.829-1.203-.43 0-.886.023-1.375.062-.48.043-.902.09-1.265.141v16.234h-5.969Zm29.529 20.312h-5.97v-21.047h5.97Zm.547-27.125c0 1.094-.356 1.961-1.063 2.594-.7.625-1.527.938-2.484.938-.97 0-1.809-.313-2.516-.938-.7-.633-1.047-1.5-1.047-2.594 0-1.093.348-1.953 1.047-2.578.707-.625 1.547-.937 2.516-.937.957 0 1.785.312 2.484.937.707.625 1.063 1.485 1.063 2.578Zm23.013 26.407c-1.024.293-2.336.562-3.938.812-1.594.258-3.273.39-5.031.39-1.781 0-3.266-.241-4.453-.718-1.188-.477-2.133-1.148-2.828-2.016-.688-.875-1.184-1.91-1.485-3.109-.293-1.195-.437-2.516-.437-3.953v-11.735h5.968v11c0 1.93.25 3.32.75 4.172.508.856 1.457 1.282 2.844 1.282.426 0 .88-.02 1.36-.063.476-.039.906-.086 1.28-.14v-16.25h5.97Zm17.153-10.438c0-1.926-.25-3.285-.75-4.078-.492-.8-1.336-1.203-2.531-1.203-.375 0-.766.023-1.172.062-.398.043-.777.09-1.14.141v16.234h-5.97V245.31a37.888 37.888 0 0 1 3.938-.813c.758-.125 1.54-.218 2.344-.28a26.7 26.7 0 0 1 2.36-.11c1.519 0 2.753.195 3.702.578.946.387 1.727.844 2.344 1.375a10.156 10.156 0 0 1 2.938-1.438c1.101-.343 2.125-.515 3.062-.515 1.676 0 3.05.234 4.125.703 1.082.46 1.942 1.117 2.578 1.969.645.855 1.086 1.87 1.328 3.046.239 1.168.36 2.477.36 3.922v11.875h-5.953v-11.156c0-1.926-.25-3.285-.75-4.078-.493-.8-1.336-1.203-2.532-1.203-.324 0-.773.086-1.343.25-.575.156-1.047.355-1.422.594.187.605.304 1.25.36 1.937.05.68.077 1.402.077 2.172v11.484h-5.953Zm-112.514 53.471a7.27 7.27 0 0 1-.61 2.922c-.398.93-.918 1.828-1.562 2.703-.637.868-1.356 1.7-2.157 2.5a122.18 122.18 0 0 1-2.359 2.266c-.398.375-.828.797-1.297 1.266a34.866 34.866 0 0 0-2.484 2.765c-.336.406-.54.746-.61 1.016h11.922v5h-18.484a6.209 6.209 0 0 1-.078-1.11v-.968c0-1.282.203-2.453.61-3.516.413-1.07.956-2.066 1.624-2.984a19.415 19.415 0 0 1 2.25-2.578c.844-.801 1.68-1.602 2.516-2.407.633-.613 1.234-1.191 1.797-1.734a20.189 20.189 0 0 0 1.484-1.61 7.557 7.557 0 0 0 1-1.546c.238-.52.36-1.051.36-1.594 0-1.164-.336-1.988-1-2.469-.669-.476-1.497-.719-2.485-.719-.719 0-1.398.118-2.031.344a9.3 9.3 0 0 0-1.719.797c-.512.305-.953.61-1.328.922-.375.305-.656.547-.844.734l-2.953-4.156c1.164-1.094 2.531-1.992 4.094-2.703a12.025 12.025 0 0 1 5.015-1.063c1.625 0 3.024.188 4.204.563 1.175.375 2.144.902 2.906 1.578a6.077 6.077 0 0 1 1.672 2.484c.363.97.547 2.07.547 3.297Zm13.829 7.391c-.586 0-1.211.059-1.875.172-.668.105-1.188.25-1.563.437 0 .106-.008.266-.015.485-.012.21-.016.39-.016.547 0 .968.063 1.882.188 2.734.132.844.363 1.59.687 2.234.32.637.75 1.137 1.281 1.5.532.356 1.196.532 2 .532.664 0 1.235-.133 1.703-.407a3.772 3.772 0 0 0 1.157-1.062c.3-.426.523-.899.672-1.422.156-.52.234-1.02.234-1.5 0-1.363-.344-2.41-1.031-3.14-.68-.739-1.82-1.11-3.422-1.11Zm.765-4.64c1.727 0 3.196.234 4.407.702 1.218.47 2.21 1.106 2.984 1.907a7.1 7.1 0 0 1 1.688 2.797c.343 1.062.515 2.199.515 3.406 0 1.062-.195 2.156-.578 3.281a9.123 9.123 0 0 1-1.766 3.031c-.78.907-1.78 1.657-3 2.25-1.21.582-2.636.875-4.28.875-3.337 0-5.872-1.05-7.61-3.156-1.73-2.113-2.594-5.02-2.594-8.719 0-2.664.41-5.023 1.234-7.078.82-2.062 2-3.789 3.532-5.187 1.539-1.407 3.394-2.473 5.562-3.203 2.176-.727 4.625-1.11 7.344-1.141.05.824.101 1.633.156 2.422.063.793.117 1.61.172 2.453a23.24 23.24 0 0 0-3.828.39 13.06 13.06 0 0 0-3.25 1.063 8.92 8.92 0 0 0-2.531 1.86c-.72.761-1.278 1.687-1.672 2.78a7.104 7.104 0 0 1 1.797-.562 9.516 9.516 0 0 1 1.718-.172Zm19.642 14.531c0 1.199-.383 2.109-1.14 2.734-.762.625-1.622.937-2.579.937-.96 0-1.82-.312-2.578-.937-.761-.625-1.14-1.535-1.14-2.734 0-1.196.379-2.11 1.14-2.735.758-.633 1.617-.953 2.578-.953.957 0 1.817.32 2.578.953.758.625 1.141 1.54 1.141 2.735Zm12.762-11.719c.613 0 1.254-.055 1.922-.172.664-.125 1.156-.297 1.469-.516v-.36c0-.1.003-.206.015-.312a1.75 1.75 0 0 0 .031-.28 22.022 22.022 0 0 0-.25-2.704c-.125-.844-.351-1.578-.671-2.203a3.775 3.775 0 0 0-1.313-1.469c-.543-.363-1.21-.547-2-.547-.648 0-1.21.137-1.687.407-.48.261-.868.605-1.157 1.03-.293.43-.511.9-.656 1.407-.148.5-.219.992-.219 1.469 0 1.449.348 2.523 1.047 3.219.707.687 1.863 1.03 3.469 1.03Zm2.922 3.875a7.221 7.221 0 0 1-1.875.594c-.68.117-1.258.171-1.735.171-1.73 0-3.21-.207-4.437-.625-1.23-.414-2.242-1.003-3.031-1.765a6.998 6.998 0 0 1-1.735-2.735c-.367-1.062-.547-2.234-.547-3.515 0-1.07.176-2.164.532-3.281a9.002 9.002 0 0 1 1.703-3.063c.77-.914 1.75-1.676 2.937-2.281 1.188-.602 2.617-.906 4.297-.906 3.445 0 6.04 1.062 7.781 3.187 1.75 2.117 2.625 5.164 2.625 9.14 0 2.618-.343 4.923-1.03 6.923-.68 2-1.731 3.683-3.157 5.046-1.418 1.356-3.234 2.387-5.453 3.094-2.211.711-4.836 1.07-7.875 1.094a90.625 90.625 0 0 0-.125-2.469c-.055-.8-.106-1.629-.156-2.484 1.52-.031 2.89-.145 4.109-.344 1.226-.195 2.305-.531 3.234-1a7.477 7.477 0 0 0 2.39-1.86c.657-.769 1.173-1.741 1.548-2.921Zm29.438 3.281c0 1.2-.21 2.297-.625 3.297a7.383 7.383 0 0 1-1.859 2.625c-.824.742-1.855 1.32-3.094 1.734-1.242.414-2.68.625-4.312.625-1.867 0-3.418-.261-4.657-.78-1.242-.52-2.242-1.165-3-1.938-.761-.77-1.304-1.614-1.625-2.532-.312-.925-.468-1.773-.468-2.547 0-.8.101-1.535.312-2.203a7.28 7.28 0 0 1 .875-1.812 9.357 9.357 0 0 1 1.266-1.5c.469-.457.969-.89 1.5-1.297-1.149-.926-1.996-1.844-2.547-2.75-.543-.906-.813-2.066-.813-3.484 0-1.063.22-2.086.657-3.079a7.863 7.863 0 0 1 1.86-2.578c.8-.738 1.769-1.328 2.905-1.765 1.133-.438 2.395-.657 3.782-.657 1.625 0 3.015.235 4.171.704 1.165.468 2.118 1.062 2.86 1.78.75.72 1.289 1.528 1.625 2.423.332.886.5 1.773.5 2.656 0 1.281-.34 2.477-1.016 3.578-.68 1.106-1.527 1.98-2.547 2.625 1.52.98 2.61 2.012 3.266 3.094.656 1.086.984 2.344.984 3.781Zm-13.843.234c0 .325.07.68.218 1.063.145.387.38.742.703 1.062.32.325.735.594 1.235.813.508.21 1.125.312 1.844.312 1.382 0 2.394-.332 3.03-1 .645-.664.97-1.414.97-2.25 0-.613-.141-1.16-.422-1.64a4.266 4.266 0 0 0-1.14-1.25 8.103 8.103 0 0 0-1.704-.969 23.084 23.084 0 0 0-2.094-.781 8.21 8.21 0 0 0-1.89 1.969c-.5.742-.75 1.632-.75 2.671Zm7.406-13.156a2.7 2.7 0 0 0-.188-.937 2.6 2.6 0 0 0-.593-.938 3.586 3.586 0 0 0-1.063-.734c-.43-.207-.95-.313-1.562-.313-.586 0-1.09.094-1.516.282a3.03 3.03 0 0 0-1.063.75 3.06 3.06 0 0 0-.625.968c-.136.344-.203.68-.203 1 0 .856.313 1.657.938 2.407.633.742 1.71 1.382 3.234 1.921.852-.539 1.504-1.156 1.953-1.843.457-.696.688-1.551.688-2.563ZM40.297 54.297c.77-.32 1.578-.692 2.422-1.11.844-.414 1.66-.867 2.453-1.36.8-.487 1.566-1.003 2.297-1.546a15.52 15.52 0 0 0 1.984-1.75h4.172V76.25h-5.969V56.297a18.481 18.481 0 0 1-2.687 1.453c-.98.437-1.938.82-2.875 1.14Zm29.046 22.546c-.719 0-1.48-.046-2.282-.14a26.337 26.337 0 0 1-2.328-.375 23.58 23.58 0 0 1-2.03-.516 12.157 12.157 0 0 1-1.438-.515l1.156-4.97c.687.294 1.57.606 2.656.938 1.082.336 2.422.5 4.016.5 1.843 0 3.191-.343 4.047-1.03.851-.696 1.28-1.63 1.28-2.798 0-.726-.155-1.336-.468-1.828a3.48 3.48 0 0 0-1.25-1.187c-.531-.313-1.168-.524-1.906-.641a13.9 13.9 0 0 0-2.344-.188H66.14v-4.796h2.64c.582 0 1.145-.051 1.688-.157a4.833 4.833 0 0 0 1.468-.547 2.87 2.87 0 0 0 1.016-1.046c.258-.438.39-.989.39-1.657 0-.508-.109-.945-.327-1.312a2.85 2.85 0 0 0-.813-.922 3.576 3.576 0 0 0-1.172-.531 4.826 4.826 0 0 0-1.328-.188c-1.148 0-2.21.172-3.187.516a13.17 13.17 0 0 0-2.657 1.281l-2.125-4.36a18.8 18.8 0 0 1 1.5-.843c.57-.29 1.203-.555 1.891-.797a17.344 17.344 0 0 1 2.219-.594c.789-.164 1.629-.25 2.515-.25 1.625 0 3.032.196 4.22.578 1.187.387 2.163.934 2.937 1.641a6.73 6.73 0 0 1 1.718 2.484c.375.95.563 1.98.563 3.094 0 1.094-.309 2.156-.922 3.188a6.097 6.097 0 0 1-2.469 2.328c1.438.594 2.547 1.469 3.328 2.625.79 1.156 1.188 2.554 1.188 4.187 0 1.282-.215 2.465-.64 3.547a7.223 7.223 0 0 1-2 2.797c-.907.781-2.063 1.39-3.47 1.828-1.398.438-3.054.656-4.968.656Zm0 0"/>
  <path d="m355.762 10.207.453.043.441.063.442.085.43.094.429.113.414.137.414.14.406.169.395.168.387.195.386.207.364.223.363.234.351.242.344.266.328.27.32.285.31.3.3.309.285.32.27.328.258.344.25.352.234.363.223.363.199.387.195.387.176.398.168.403.14.414.137.421.106.422.101.434.078.437.067.45.047.449.03.453.005.465v334.933l-.004.461-.031.457-.047.45-.067.441-.078.438-.101.433-.106.43-.137.414-.14.414-.168.41-.176.39-.195.387-.2.38-.222.37-.234.364-.25.351-.258.344-.27.328-.285.32-.3.31-.31.3-.32.285-.328.27-.344.257-.351.25-.363.239-.364.214-.386.207-.387.192-.395.18-.406.164-.414.14-.414.13-.43.116-.43.098-.44.078-.442.067-.453.05-.457.028-.457.007H19.91l-.457-.007-.457-.028-.45-.05-.448-.067-.438-.078-.433-.098-.422-.117-.422-.129-.414-.14-.403-.164-.398-.18-.387-.192-.379-.207-.37-.214-.364-.239-.352-.25-.343-.257-.328-.27-.32-.285-.31-.3-.3-.31-.285-.32-.27-.328-.258-.344-.25-.351-.238-.364-.219-.37-.207-.38-.187-.386-.18-.39-.164-.411-.14-.414-.137-.414-.114-.43-.093-.433-.086-.438-.059-.441-.05-.45-.028-.457-.008-.46V21.34l.008-.465.027-.453.051-.45.059-.449.086-.437.093-.434.114-.422.136-.421.141-.414.164-.403.18-.398.187-.387.207-.387.22-.363.237-.363.25-.352.258-.344.27-.328.285-.32.3-.309.31-.3.32-.286.328-.27.343-.265.352-.242.363-.234.371-.223.38-.207.386-.195.398-.168.403-.168.414-.14.422-.138.422-.113.433-.094.438-.085.449-.063.45-.043.456-.031.457-.004h334.938l.457.004ZM28.187 18.914l-.457.031-.453.043-.441.063-.445.086-.426.093-.43.114-.422.136-.406.145-.41.164-.39.172-.395.191-.38.207-.37.223-.356.234-.351.243-.344.265-.328.27-.32.289-.31.297-.3.308-.285.32-.27.333-.265.34-.242.351-.239.355-.218.375-.207.375-.188.395-.18.395-.164.406-.14.406-.137.422-.113.43-.094.43-.086.44-.059.442-.046.453-.032.457-.008.457v317.465l.008.457.032.461.046.45.059.44.086.438.094.434.113.43.137.414.14.414.164.41.18.39.188.387.207.38.218.37.239.363.242.352.265.344.27.328.285.32.3.309.31.3.32.286.328.27.344.257.351.25.356.238.37.211.38.207.394.196.39.18.411.163.406.141.422.129.43.113.426.102.445.078.441.066.453.047.457.031.458.008h317.464l.457-.008.457-.03.454-.048.441-.066.441-.078.43-.102.43-.113.414-.129.414-.14.406-.165.395-.18.386-.195.383-.207.367-.21.364-.239.351-.25.34-.258.332-.27.32-.284.309-.301.297-.309.289-.32.27-.328.257-.344.25-.352.235-.363.222-.37.2-.38.195-.387.176-.39.164-.41.144-.414.137-.414.105-.43.102-.434.078-.437.063-.442.05-.449.032-.46.004-.458V30.07l-.004-.457-.032-.457-.05-.453-.063-.441-.078-.442-.102-.43-.105-.43-.137-.42-.144-.407-.164-.406-.176-.395-.195-.39-.2-.38-.222-.375-.235-.355-.25-.352-.258-.34-.27-.331-.288-.32-.297-.31-.309-.296-.32-.29-.332-.269-.34-.265-.351-.243-.364-.234-.367-.223-.383-.207-.386-.191-.395-.172-.406-.164-.414-.145-.414-.136-.43-.114-.43-.093-.441-.086-.441-.063-.454-.043-.457-.03-.457-.005H28.645Zm0 0"/>
</svg>
