<svg xmlns="http://www.w3.org/2000/svg" version="1.2" viewBox="0 0 375 375">
  <path d="M164.19 178.161c3.081 0 5.624-.254 7.624-.765 2.008-.508 3.617-1.207 4.828-2.094 1.22-.895 2.063-1.945 2.532-3.156.468-1.207.703-2.563.703-4.063 0-3.164-1.496-5.797-4.485-7.89-2.992-2.102-8.12-4.368-15.39-6.797a120.914 120.914 0 0 1-9.531-3.844c-3.168-1.445-6.012-3.266-8.532-5.453-2.523-2.195-4.574-4.86-6.156-7.984-1.586-3.133-2.375-6.938-2.375-11.407 0-4.476.836-8.515 2.516-12.11a25.774 25.774 0 0 1 7.14-9.171c3.082-2.52 6.813-4.457 11.188-5.812 4.383-1.352 9.332-2.032 14.844-2.032 6.53 0 12.175.703 16.937 2.11 4.758 1.398 8.676 2.933 11.75 4.609l-6.297 17.219c-2.71-1.395-5.719-2.63-9.031-3.703-3.313-1.07-7.305-1.61-11.969-1.61-5.219 0-8.976.727-11.265 2.172-2.282 1.438-3.422 3.652-3.422 6.64 0 1.774.414 3.266 1.25 4.485.843 1.211 2.035 2.305 3.578 3.281 1.539.98 3.312 1.868 5.312 2.657 2.008.793 4.227 1.609 6.657 2.453 5.039 1.867 9.425 3.71 13.156 5.531 3.726 1.824 6.828 3.95 9.297 6.375a22.879 22.879 0 0 1 5.53 8.531c1.22 3.262 1.829 7.227 1.829 11.89 0 9.056-3.172 16.075-9.516 21.063-6.343 4.993-15.914 7.485-28.703 7.485-4.293 0-8.164-.258-11.61-.766-3.448-.512-6.507-1.137-9.171-1.875-2.656-.75-4.945-1.547-6.86-2.39-1.906-.844-3.515-1.633-4.827-2.375l6.171-17.36c2.883 1.586 6.446 3.008 10.688 4.266 4.25 1.261 9.453 1.89 15.61 1.89Zm74.47 16.657H217.8v-73.61h20.86Zm1.953-94.891c0 3.824-1.242 6.836-3.72 9.031-2.468 2.188-5.382 3.282-8.733 3.282-3.368 0-6.282-1.094-8.75-3.282-2.47-2.195-3.704-5.207-3.704-9.031 0-3.82 1.235-6.828 3.704-9.016 2.468-2.195 5.382-3.296 8.75-3.296 3.351 0 6.265 1.101 8.734 3.296 2.477 2.188 3.719 5.196 3.719 9.016Zm-105.787 160.93c.875 0 1.598-.07 2.172-.219.57-.145 1.031-.344 1.375-.594.352-.25.594-.547.719-.89.133-.352.203-.743.203-1.172 0-.907-.43-1.657-1.281-2.25-.844-.602-2.309-1.254-4.391-1.953a29.271 29.271 0 0 1-2.719-1.094 10.325 10.325 0 0 1-2.453-1.563 7.479 7.479 0 0 1-1.765-2.28c-.45-.895-.672-1.985-.672-3.267 0-1.27.238-2.421.718-3.453a7.523 7.523 0 0 1 2.047-2.625c.883-.718 1.953-1.27 3.203-1.656 1.25-.383 2.66-.578 4.235-.578 1.863 0 3.476.203 4.844.61 1.363.398 2.484.835 3.359 1.312l-1.797 4.922a16.274 16.274 0 0 0-2.578-1.063c-.95-.312-2.09-.469-3.422-.469-1.5 0-2.578.211-3.234.625-.649.418-.97 1.055-.97 1.907 0 .5.118.93.36 1.281.239.344.578.656 1.016.937.445.282.957.54 1.531.766.57.219 1.203.45 1.89.688a40.83 40.83 0 0 1 3.75 1.578c1.071.523 1.962 1.133 2.673 1.828a6.459 6.459 0 0 1 1.578 2.437c.351.938.531 2.075.531 3.407 0 2.586-.914 4.59-2.734 6.015-1.813 1.43-4.543 2.14-8.188 2.14-1.23 0-2.34-.073-3.328-.218a22.941 22.941 0 0 1-2.625-.531 16.14 16.14 0 0 1-1.953-.688c-.543-.238-1-.468-1.375-.687l1.75-4.953c.832.449 1.851.855 3.062 1.218 1.22.356 2.707.532 4.47.532Zm21.28 4.765h-5.969v-21.047h5.969Zm.547-27.125c0 1.094-.356 1.961-1.063 2.594-.699.625-1.527.938-2.484.938-.969 0-1.809-.313-2.516-.938-.699-.633-1.047-1.5-1.047-2.594 0-1.093.348-1.953 1.047-2.578.707-.625 1.547-.937 2.516-.937.957 0 1.785.312 2.484.937.707.625 1.063 1.485 1.063 2.578Zm13.45 27.532c-1.742-.032-3.152-.22-4.234-.563-1.074-.351-1.922-.844-2.547-1.469a4.836 4.836 0 0 1-1.281-2.265c-.23-.895-.344-1.907-.344-3.032v-23.156l5.969-.969v22.922c0 .543.035 1.028.11 1.453.081.418.238.778.468 1.079.227.293.55.53.969.718.426.188 1.004.309 1.734.36Zm10.203-.407h-5.969v-21.047h5.969Zm.547-27.125c0 1.094-.356 1.961-1.063 2.594-.699.625-1.527.938-2.484.938-.969 0-1.809-.313-2.516-.938-.699-.633-1.047-1.5-1.047-2.594 0-1.093.348-1.953 1.047-2.578.707-.625 1.547-.937 2.516-.937.957 0 1.785.312 2.484.937.707.625 1.063 1.485 1.063 2.578Zm4.044 16.61c0-1.52.242-2.953.734-4.297.5-1.352 1.211-2.531 2.141-3.531.937-1 2.07-1.79 3.406-2.375 1.332-.582 2.852-.875 4.563-.875 1.113 0 2.14.101 3.078.296.937.2 1.844.485 2.719.86l-1.235 4.75c-.562-.207-1.18-.39-1.844-.547a9.377 9.377 0 0 0-2.234-.25c-1.762 0-3.078.547-3.953 1.64-.867 1.094-1.297 2.54-1.297 4.329 0 1.886.406 3.351 1.219 4.39.812 1.043 2.234 1.563 4.265 1.563.72 0 1.489-.063 2.313-.188a9.187 9.187 0 0 0 2.281-.656l.844 4.89c-.688.294-1.555.54-2.594.75-1.043.22-2.187.329-3.437.329-1.93 0-3.586-.29-4.969-.86-1.387-.57-2.527-1.351-3.422-2.343-.887-.989-1.539-2.157-1.953-3.5-.418-1.344-.625-2.801-.625-4.375Zm40.687-.047c0 1.656-.242 3.172-.718 4.547-.48 1.375-1.18 2.547-2.094 3.515a9.505 9.505 0 0 1-3.266 2.266c-1.262.531-2.68.797-4.25.797-1.543 0-2.95-.266-4.219-.797a9.656 9.656 0 0 1-3.265-2.266c-.906-.968-1.617-2.14-2.125-3.515-.5-1.375-.75-2.89-.75-4.547 0-1.656.258-3.16.781-4.516.52-1.363 1.238-2.523 2.156-3.484a9.81 9.81 0 0 1 3.282-2.235c1.27-.53 2.648-.796 4.14-.796 1.52 0 2.91.265 4.172.796a9.48 9.48 0 0 1 3.266 2.235c.906.96 1.613 2.12 2.125 3.484.507 1.356.765 2.86.765 4.516Zm-6.078 0c0-1.832-.37-3.274-1.11-4.328-.73-1.063-1.777-1.594-3.14-1.594-1.355 0-2.406.531-3.156 1.594-.75 1.054-1.125 2.496-1.125 4.328 0 1.844.375 3.308 1.125 4.39.75 1.075 1.8 1.61 3.156 1.61 1.363 0 2.41-.535 3.14-1.61.74-1.082 1.11-2.546 1.11-4.39Zm10.671-9.75c1.007-.301 2.316-.578 3.921-.828a32.722 32.722 0 0 1 5.047-.375c1.782 0 3.266.234 4.453.703 1.188.46 2.125 1.117 2.813 1.969.695.855 1.191 1.87 1.484 3.046.29 1.168.438 2.477.438 3.922v11.875h-5.953v-11.156c0-1.926-.258-3.285-.766-4.078-.5-.8-1.445-1.203-2.828-1.203-.43 0-.887.023-1.375.062-.48.043-.902.09-1.266.141v16.234h-5.968Zm-73.193 62.627a7.27 7.27 0 0 1-.61 2.922c-.398.93-.918 1.828-1.562 2.703-.637.868-1.356 1.7-2.157 2.5a122.18 122.18 0 0 1-2.359 2.266c-.398.375-.828.797-1.297 1.266a34.866 34.866 0 0 0-2.484 2.765c-.336.406-.54.746-.61 1.016h11.922v5h-18.484a6.209 6.209 0 0 1-.078-1.11v-.968c0-1.282.203-2.453.61-3.516.413-1.07.956-2.066 1.624-2.984a19.415 19.415 0 0 1 2.25-2.578c.844-.801 1.68-1.602 2.516-2.407.633-.613 1.234-1.191 1.797-1.734a20.189 20.189 0 0 0 1.484-1.61 7.557 7.557 0 0 0 1-1.546c.238-.52.36-1.051.36-1.594 0-1.164-.336-1.988-1-2.469-.669-.476-1.497-.719-2.485-.719-.719 0-1.398.118-2.031.344a9.3 9.3 0 0 0-1.719.797c-.512.305-.953.61-1.328.922-.375.305-.656.547-.844.734l-2.953-4.156c1.164-1.094 2.531-1.992 4.094-2.703a12.025 12.025 0 0 1 5.015-1.063c1.625 0 3.024.188 4.204.563 1.175.375 2.144.902 2.906 1.578a6.077 6.077 0 0 1 1.672 2.484c.363.97.547 2.07.547 3.297Zm24.079 12.719c0 1.2-.211 2.297-.625 3.297a7.383 7.383 0 0 1-1.86 2.625c-.824.742-1.855 1.32-3.093 1.734-1.243.414-2.68.625-4.313.625-1.867 0-3.418-.261-4.656-.78-1.242-.52-2.242-1.165-3-1.938-.762-.77-1.305-1.614-1.625-2.532-.313-.925-.469-1.773-.469-2.547 0-.8.102-1.535.313-2.203a7.28 7.28 0 0 1 .875-1.812 9.403 9.403 0 0 1 1.265-1.5c.469-.457.969-.89 1.5-1.297-1.148-.926-1.996-1.844-2.547-2.75-.543-.906-.812-2.066-.812-3.484 0-1.063.219-2.086.656-3.079a7.863 7.863 0 0 1 1.86-2.578c.8-.738 1.77-1.328 2.906-1.765 1.133-.438 2.394-.657 3.781-.657 1.625 0 3.016.235 4.172.704 1.164.468 2.117 1.062 2.86 1.78.75.72 1.288 1.528 1.624 2.423.332.886.5 1.773.5 2.656 0 1.281-.34 2.477-1.015 3.578-.68 1.106-1.528 1.98-2.547 2.625 1.52.98 2.61 2.012 3.265 3.094.657 1.086.985 2.344.985 3.781Zm-13.844.234c0 .325.07.68.219 1.063.144.387.379.742.703 1.062.32.325.734.594 1.234.813.508.21 1.125.312 1.844.312 1.383 0 2.395-.332 3.031-1 .645-.664.969-1.414.969-2.25 0-.613-.14-1.16-.422-1.64a4.266 4.266 0 0 0-1.14-1.25 8.103 8.103 0 0 0-1.704-.969 23.084 23.084 0 0 0-2.093-.781 8.21 8.21 0 0 0-1.891 1.969c-.5.742-.75 1.632-.75 2.671Zm7.406-13.156a2.7 2.7 0 0 0-.187-.937 2.6 2.6 0 0 0-.594-.938 3.586 3.586 0 0 0-1.062-.734c-.43-.207-.95-.313-1.563-.313-.586 0-1.09.094-1.516.282-.43.187-.78.437-1.062.75a3.06 3.06 0 0 0-.625.968c-.137.344-.203.68-.203 1 0 .856.312 1.657.937 2.407.633.742 1.711 1.382 3.235 1.921.851-.539 1.504-1.156 1.953-1.843.457-.696.687-1.551.687-2.563Zm16.595 17.485c0 1.199-.383 2.109-1.14 2.734-.762.625-1.622.937-2.579.937-.96 0-1.82-.312-2.578-.937-.761-.625-1.14-1.535-1.14-2.734 0-1.196.379-2.11 1.14-2.735.758-.633 1.617-.953 2.578-.953.957 0 1.817.32 2.578.953.758.625 1.141 1.54 1.141 2.735Zm22.559-10.766c0 4.668-.887 8.25-2.656 10.75-1.774 2.492-4.22 3.734-7.344 3.734-3.117 0-5.563-1.242-7.344-3.734-1.773-2.5-2.656-6.082-2.656-10.75 0-2.32.234-4.375.703-6.156.469-1.79 1.14-3.297 2.016-4.516.882-1.226 1.937-2.16 3.156-2.797 1.226-.644 2.601-.969 4.125-.969 3.125 0 5.57 1.25 7.344 3.75 1.77 2.493 2.656 6.055 2.656 10.688Zm-6.078 0c0-1.383-.07-2.645-.203-3.781-.137-1.133-.352-2.114-.641-2.938-.293-.82-.695-1.457-1.203-1.906-.5-.457-1.125-.688-1.875-.688s-1.371.23-1.86.688c-.492.45-.89 1.086-1.203 1.906-.304.824-.523 1.805-.656 2.938a31.88 31.88 0 0 0-.203 3.78c0 1.388.066 2.653.203 3.798.133 1.148.352 2.137.656 2.969.313.824.711 1.464 1.203 1.921.489.45 1.11.672 1.86.672s1.375-.222 1.875-.672c.508-.457.91-1.097 1.203-1.921.289-.832.504-1.82.64-2.97.133-1.144.204-2.41.204-3.796Zm19.001-.953c.613 0 1.254-.055 1.922-.172.664-.125 1.156-.297 1.468-.516v-.36c0-.1.004-.206.016-.312a1.75 1.75 0 0 0 .031-.28 22.022 22.022 0 0 0-.25-2.704c-.125-.844-.351-1.578-.672-2.203a3.775 3.775 0 0 0-1.312-1.469c-.543-.363-1.211-.547-2-.547-.649 0-1.211.137-1.688.407-.48.261-.867.605-1.156 1.03-.293.43-.512.9-.656 1.407-.149.5-.219.992-.219 1.469 0 1.449.348 2.523 1.047 3.219.707.687 1.863 1.03 3.469 1.03Zm2.922 3.875a7.221 7.221 0 0 1-1.875.594c-.68.117-1.258.171-1.735.171-1.73 0-3.21-.207-4.437-.625-1.23-.414-2.242-1.003-3.032-1.765a6.998 6.998 0 0 1-1.734-2.735c-.367-1.062-.547-2.234-.547-3.515 0-1.07.176-2.164.531-3.281a9.002 9.002 0 0 1 1.704-3.063c.77-.914 1.75-1.676 2.937-2.281 1.188-.602 2.617-.906 4.297-.906 3.445 0 6.039 1.062 7.781 3.187 1.75 2.117 2.625 5.164 2.625 9.14 0 2.618-.344 4.923-1.031 6.923-.68 2-1.73 3.683-3.156 5.046-1.418 1.356-3.235 2.387-5.453 3.094-2.211.711-4.836 1.07-7.875 1.094a90.625 90.625 0 0 0-.125-2.469c-.055-.8-.106-1.629-.157-2.484 1.52-.031 2.891-.145 4.11-.344 1.226-.195 2.304-.531 3.234-1a7.477 7.477 0 0 0 2.39-1.86c.657-.769 1.173-1.741 1.548-2.921ZM40.297 54.297c.77-.32 1.578-.692 2.422-1.11.844-.414 1.66-.867 2.453-1.36.8-.487 1.566-1.003 2.297-1.546a15.52 15.52 0 0 0 1.984-1.75h4.172V76.25h-5.969V56.297a18.481 18.481 0 0 1-2.687 1.453c-.98.437-1.938.82-2.875 1.14Zm32.686 1.515a247.352 247.352 0 0 0-3.328 4.438 31.341 31.341 0 0 0-2.953 4.922h6.281Zm5.828-7.281v16.64h2.97v4.876h-2.97v6.203h-5.828v-6.203H61.015v-4.36a74.056 74.056 0 0 1 2.203-3.969 69.398 69.398 0 0 1 2.937-4.562 80.118 80.118 0 0 1 3.422-4.578 48.177 48.177 0 0 1 3.594-4.047Zm0 0"/>
  <path d="m355.762 10.207.453.043.441.063.442.085.43.094.429.113.414.137.414.14.406.169.395.168.387.195.386.207.364.223.363.234.351.242.344.266.328.27.32.285.31.3.3.309.285.32.27.328.258.344.25.352.234.363.223.363.199.387.195.387.176.398.168.403.14.414.137.421.106.422.101.434.078.437.067.45.047.449.03.453.005.465v334.933l-.004.461-.031.457-.047.45-.067.441-.078.438-.101.433-.106.43-.137.414-.14.414-.168.41-.176.39-.195.387-.2.38-.222.37-.234.364-.25.351-.258.344-.27.328-.285.32-.3.31-.31.3-.32.285-.328.27-.344.257-.351.25-.363.239-.364.214-.386.207-.387.192-.395.18-.406.164-.414.14-.414.13-.43.116-.43.098-.44.078-.442.067-.453.05-.457.028-.457.007H19.91l-.457-.007-.457-.028-.45-.05-.448-.067-.438-.078-.433-.098-.422-.117-.422-.129-.414-.14-.403-.164-.398-.18-.387-.192-.379-.207-.37-.214-.364-.239-.352-.25-.343-.257-.328-.27-.32-.285-.31-.3-.3-.31-.285-.32-.27-.328-.258-.344-.25-.351-.238-.364-.219-.37-.207-.38-.187-.386-.18-.39-.164-.411-.14-.414-.137-.414-.114-.43-.093-.433-.086-.438-.059-.441-.05-.45-.028-.457-.008-.46V21.34l.008-.465.027-.453.051-.45.059-.449.086-.437.093-.434.114-.422.136-.421.141-.414.164-.403.18-.398.187-.387.207-.387.22-.363.237-.363.25-.352.258-.344.27-.328.285-.32.3-.309.31-.3.32-.286.328-.27.343-.265.352-.242.363-.234.371-.223.38-.207.386-.195.398-.168.403-.168.414-.14.422-.138.422-.113.433-.094.438-.085.449-.063.45-.043.456-.031.457-.004h334.938l.457.004ZM28.187 18.914l-.457.031-.453.043-.441.063-.445.086-.426.093-.43.114-.422.136-.406.145-.41.164-.39.172-.395.191-.38.207-.37.223-.356.234-.351.243-.344.265-.328.27-.32.289-.31.297-.3.308-.285.32-.27.333-.265.34-.242.351-.239.355-.218.375-.207.375-.188.395-.18.395-.164.406-.14.406-.137.422-.113.43-.094.43-.086.44-.059.442-.046.453-.032.457-.008.457v317.465l.008.457.032.461.046.45.059.44.086.438.094.434.113.43.137.414.14.414.164.41.18.39.188.387.207.38.218.37.239.363.242.352.265.344.27.328.285.32.3.309.31.3.32.286.328.27.344.257.351.25.356.238.37.211.38.207.394.196.39.18.411.163.406.141.422.129.43.113.426.102.445.078.441.066.453.047.457.031.458.008h317.464l.457-.008.457-.03.454-.048.441-.066.441-.078.43-.102.43-.113.414-.129.414-.14.406-.165.395-.18.386-.195.383-.207.367-.21.364-.239.351-.25.34-.258.332-.27.32-.284.309-.301.297-.309.289-.32.27-.328.257-.344.25-.352.235-.363.222-.37.2-.38.195-.387.176-.39.164-.41.144-.414.137-.414.105-.43.102-.434.078-.437.063-.442.05-.449.032-.46.004-.458V30.07l-.004-.457-.032-.457-.05-.453-.063-.441-.078-.442-.102-.43-.105-.43-.137-.42-.144-.407-.164-.406-.176-.395-.195-.39-.2-.38-.222-.375-.235-.355-.25-.352-.258-.34-.27-.331-.288-.32-.297-.31-.309-.296-.32-.29-.332-.269-.34-.265-.351-.243-.364-.234-.367-.223-.383-.207-.386-.191-.395-.172-.406-.164-.414-.145-.414-.136-.43-.114-.43-.093-.441-.086-.441-.063-.454-.043-.457-.03-.457-.005H28.645Zm0 0"/>
</svg>
