<svg xmlns="http://www.w3.org/2000/svg" version="1.2" viewBox="0 0 375 375">
  <path d="M184.412 178.161c3.082 0 5.625-.254 7.625-.765 2.008-.508 3.617-1.207 4.828-2.094 1.22-.895 2.063-1.945 2.532-3.156.468-1.207.703-2.563.703-4.063 0-3.164-1.496-5.797-4.485-7.89-2.992-2.102-8.12-4.368-15.39-6.797a120.914 120.914 0 0 1-9.531-3.844c-3.168-1.445-6.012-3.266-8.532-5.453-2.523-2.195-4.574-4.86-6.156-7.984-1.586-3.133-2.375-6.938-2.375-11.407 0-4.476.836-8.515 2.516-12.11a25.774 25.774 0 0 1 7.14-9.171c3.082-2.52 6.813-4.457 11.188-5.812 4.383-1.352 9.332-2.032 14.844-2.032 6.53 0 12.175.703 16.937 2.11 4.758 1.398 8.676 2.933 11.75 4.609l-6.297 17.219c-2.71-1.395-5.719-2.63-9.031-3.703-3.313-1.07-7.305-1.61-11.969-1.61-5.219 0-8.976.727-11.265 2.172-2.282 1.438-3.422 3.652-3.422 6.64 0 1.774.414 3.266 1.25 4.485.843 1.211 2.035 2.305 3.578 3.281 1.539.98 3.312 1.868 5.312 2.657 2.008.793 4.227 1.609 6.657 2.453 5.039 1.867 9.425 3.71 13.156 5.531 3.726 1.824 6.828 3.95 9.297 6.375a22.879 22.879 0 0 1 5.53 8.531c1.22 3.262 1.829 7.227 1.829 11.89 0 9.056-3.172 16.075-9.516 21.063-6.343 4.993-15.914 7.485-28.703 7.485-4.293 0-8.164-.258-11.61-.766-3.448-.512-6.507-1.137-9.171-1.875-2.656-.75-4.945-1.547-6.86-2.39-1.906-.844-3.515-1.633-4.827-2.375l6.171-17.36c2.883 1.586 6.446 3.008 10.688 4.266 4.25 1.261 9.453 1.89 15.61 1.89Zm-44.546 82.696c.875 0 1.598-.07 2.172-.219.57-.145 1.032-.344 1.375-.594.352-.25.594-.547.719-.89.133-.352.203-.743.203-1.172 0-.907-.43-1.657-1.281-2.25-.844-.602-2.309-1.254-4.39-1.953a29.271 29.271 0 0 1-2.72-1.094 10.325 10.325 0 0 1-2.453-1.563 7.479 7.479 0 0 1-1.765-2.28c-.45-.895-.672-1.985-.672-3.267 0-1.27.238-2.421.719-3.453a7.523 7.523 0 0 1 2.047-2.625c.882-.718 1.953-1.27 3.203-1.656 1.25-.383 2.66-.578 4.234-.578 1.863 0 3.477.203 4.844.61 1.363.398 2.484.835 3.36 1.312l-1.798 4.922a16.274 16.274 0 0 0-2.578-1.063c-.95-.312-2.09-.469-3.422-.469-1.5 0-2.578.211-3.234.625-.649.418-.969 1.055-.969 1.907 0 .5.117.93.36 1.281.238.344.578.656 1.015.937.445.282.957.54 1.531.766.57.219 1.204.45 1.891.688a40.83 40.83 0 0 1 3.75 1.578c1.07.523 1.961 1.133 2.672 1.828a6.459 6.459 0 0 1 1.578 2.437c.352.938.531 2.075.531 3.407 0 2.586-.914 4.59-2.734 6.015-1.813 1.43-4.543 2.14-8.188 2.14-1.23 0-2.34-.073-3.328-.218a22.941 22.941 0 0 1-2.625-.531 16.14 16.14 0 0 1-1.953-.688c-.543-.238-1-.468-1.375-.687l1.75-4.953c.832.449 1.852.855 3.063 1.218 1.218.356 2.707.532 4.468.532Zm33.28 4.047c-1.023.293-2.336.562-3.937.812-1.594.258-3.274.39-5.032.39-1.78 0-3.265-.241-4.453-.718-1.187-.477-2.132-1.148-2.828-2.016-.687-.875-1.183-1.91-1.484-3.109-.293-1.195-.438-2.516-.438-3.953v-11.735h5.97v11c0 1.93.25 3.32.75 4.172.507.856 1.456 1.282 2.843 1.282.426 0 .879-.02 1.36-.063.476-.039.905-.086 1.28-.14v-16.25h5.97Zm13.998 1.125c-1.743-.032-3.153-.22-4.235-.563-1.074-.351-1.922-.844-2.547-1.469a4.836 4.836 0 0 1-1.281-2.265c-.23-.895-.344-1.907-.344-3.032v-23.156l5.969-.969v22.922c0 .543.035 1.028.11 1.453.081.418.238.778.468 1.079.227.293.55.53.969.718.426.188 1.004.309 1.734.36Zm13.358-31.454c1.113 0 2.14.118 3.078.344.938.23 1.657.45 2.157.656l-1.157 4.766a7.692 7.692 0 0 0-1.75-.531 8.886 8.886 0 0 0-1.734-.188c-.719 0-1.328.102-1.828.297-.492.2-.875.477-1.156.828a3.302 3.302 0 0 0-.594 1.235c-.117.48-.172 1-.172 1.562v1.031h7.36v4.97h-7.36v16.077h-5.969v-22.156c0-2.719.766-4.879 2.297-6.484 1.54-1.602 3.816-2.407 6.828-2.407Zm25.724 30.329c-1.024.293-2.336.562-3.938.812-1.593.258-3.273.39-5.031.39-1.781 0-3.266-.241-4.453-.718-1.188-.477-2.133-1.148-2.828-2.016-.688-.875-1.184-1.91-1.485-3.109-.293-1.195-.437-2.516-.437-3.953v-11.735h5.969v11c0 1.93.25 3.32.75 4.172.507.856 1.457 1.282 2.843 1.282.426 0 .88-.02 1.36-.063.476-.039.906-.086 1.281-.14v-16.25h5.969Zm18.278-15.047a68.408 68.408 0 0 0-1.89-.407 10.891 10.891 0 0 0-2.313-.234c-.375 0-.824.04-1.344.11-.523.062-.914.136-1.171.218v16.078h-5.97V245.7c1.071-.375 2.333-.726 3.782-1.062 1.457-.332 3.078-.5 4.86-.5.32 0 .707.023 1.156.062.457.043.91.102 1.36.172.456.063.91.141 1.358.235.458.093.848.203 1.172.328Zm-98.239 79.112c-.719 0-1.48-.047-2.281-.141a26.337 26.337 0 0 1-2.329-.375 23.58 23.58 0 0 1-2.03-.516 12.157 12.157 0 0 1-1.438-.515l1.156-4.97c.687.294 1.57.606 2.656.938 1.082.336 2.422.5 4.016.5 1.844 0 3.191-.343 4.047-1.03.851-.696 1.281-1.63 1.281-2.798 0-.726-.156-1.336-.469-1.828a3.48 3.48 0 0 0-1.25-1.187c-.531-.313-1.168-.524-1.906-.64a13.9 13.9 0 0 0-2.344-.188h-2.312v-4.797h2.64c.582 0 1.145-.051 1.688-.157a4.833 4.833 0 0 0 1.469-.546 2.87 2.87 0 0 0 1.015-1.047c.258-.438.39-.989.39-1.657 0-.507-.109-.945-.327-1.312a2.85 2.85 0 0 0-.813-.922 3.576 3.576 0 0 0-1.172-.531 4.826 4.826 0 0 0-1.328-.188c-1.148 0-2.21.172-3.187.516a13.17 13.17 0 0 0-2.657 1.281l-2.125-4.36a18.8 18.8 0 0 1 1.5-.843c.57-.289 1.204-.555 1.891-.797a17.344 17.344 0 0 1 2.219-.594c.789-.164 1.629-.25 2.515-.25 1.625 0 3.032.196 4.22.579 1.187.386 2.163.933 2.937 1.64a6.73 6.73 0 0 1 1.718 2.485c.375.949.563 1.98.563 3.093 0 1.094-.309 2.157-.922 3.188a6.097 6.097 0 0 1-2.469 2.328c1.438.594 2.547 1.469 3.328 2.625.79 1.156 1.188 2.555 1.188 4.187 0 1.282-.215 2.465-.64 3.547a7.223 7.223 0 0 1-2 2.797c-.907.781-2.063 1.39-3.47 1.828-1.398.438-3.054.657-4.968.657Zm33.438-21.032a7.27 7.27 0 0 1-.609 2.922c-.398.93-.918 1.828-1.562 2.703-.637.868-1.356 1.7-2.157 2.5a122.18 122.18 0 0 1-2.36 2.266c-.398.375-.827.797-1.296 1.266a34.866 34.866 0 0 0-2.484 2.765c-.336.406-.54.746-.61 1.016h11.922v5h-18.484a6.209 6.209 0 0 1-.078-1.11v-.968c0-1.282.203-2.453.609-3.516.414-1.07.957-2.066 1.625-2.984a19.415 19.415 0 0 1 2.25-2.578c.844-.801 1.68-1.602 2.516-2.407.632-.613 1.234-1.191 1.797-1.734a20.189 20.189 0 0 0 1.484-1.61 7.557 7.557 0 0 0 1-1.546c.238-.52.36-1.051.36-1.594 0-1.164-.337-1.988-1-2.469-.669-.476-1.497-.719-2.485-.719-.719 0-1.399.118-2.031.344a9.34 9.34 0 0 0-1.72.797c-.51.305-.952.61-1.327.922-.375.305-.656.547-.844.734l-2.953-4.156c1.164-1.094 2.531-1.992 4.094-2.703a12.025 12.025 0 0 1 5.015-1.063c1.625 0 3.024.188 4.203.563 1.176.375 2.145.902 2.907 1.578a6.077 6.077 0 0 1 1.672 2.484c.363.97.546 2.07.546 3.297Zm11.517 17.282c0 1.199-.383 2.109-1.14 2.734-.762.625-1.622.937-2.579.937-.96 0-1.82-.312-2.578-.937-.761-.625-1.14-1.535-1.14-2.734 0-1.196.379-2.11 1.14-2.735.758-.633 1.617-.953 2.578-.953.957 0 1.817.32 2.578.953.758.625 1.141 1.54 1.141 2.735Zm22.559-10.766c0 4.668-.887 8.25-2.656 10.75-1.774 2.492-4.22 3.734-7.344 3.734-3.117 0-5.563-1.242-7.344-3.734-1.773-2.5-2.656-6.082-2.656-10.75 0-2.32.234-4.375.703-6.156.469-1.79 1.14-3.297 2.016-4.516.882-1.226 1.937-2.16 3.156-2.797 1.226-.644 2.601-.969 4.125-.969 3.125 0 5.57 1.25 7.344 3.75 1.77 2.493 2.656 6.055 2.656 10.688Zm-6.078 0c0-1.383-.07-2.645-.203-3.781-.137-1.133-.352-2.114-.641-2.938-.293-.82-.695-1.457-1.203-1.906-.5-.457-1.125-.688-1.875-.688s-1.371.23-1.86.688c-.492.45-.89 1.086-1.203 1.906-.304.824-.523 1.805-.656 2.938a31.88 31.88 0 0 0-.203 3.78c0 1.388.066 2.653.203 3.798.133 1.148.352 2.137.656 2.969.313.824.711 1.464 1.203 1.921.489.45 1.11.672 1.86.672s1.375-.222 1.875-.672c.508-.457.91-1.097 1.203-1.921.289-.832.504-1.82.64-2.97.133-1.144.204-2.41.204-3.796Zm18.391.875c-.586 0-1.21.059-1.875.172-.668.105-1.187.25-1.562.437 0 .106-.008.266-.016.485-.011.21-.015.39-.015.547 0 .968.062 1.882.187 2.734.133.844.363 1.59.688 2.234.32.637.75 1.137 1.28 1.5.532.356 1.196.532 2 .532.665 0 1.235-.133 1.704-.407a3.772 3.772 0 0 0 1.156-1.062 4.62 4.62 0 0 0 .672-1.422c.156-.52.234-1.02.234-1.5 0-1.363-.343-2.41-1.03-3.14-.68-.739-1.821-1.11-3.423-1.11Zm.766-4.64c1.727 0 3.195.234 4.406.702 1.219.47 2.211 1.106 2.985 1.907a7.1 7.1 0 0 1 1.687 2.797c.344 1.062.516 2.199.516 3.406 0 1.062-.196 2.156-.578 3.281a9.123 9.123 0 0 1-1.766 3.031c-.781.907-1.781 1.657-3 2.25-1.211.582-2.637.875-4.281.875-3.336 0-5.871-1.05-7.61-3.156-1.73-2.113-2.593-5.02-2.593-8.719 0-2.664.41-5.023 1.234-7.078.82-2.062 2-3.789 3.531-5.187 1.54-1.407 3.395-2.473 5.563-3.203 2.176-.727 4.625-1.11 7.343-1.141.051.824.102 1.633.157 2.422.062.793.117 1.61.172 2.453a23.24 23.24 0 0 0-3.829.39 13.06 13.06 0 0 0-3.25 1.063 8.92 8.92 0 0 0-2.53 1.86c-.72.761-1.278 1.687-1.673 2.78a7.104 7.104 0 0 1 1.797-.562 9.516 9.516 0 0 1 1.719-.172ZM40.297 54.297c.77-.32 1.578-.692 2.422-1.11.844-.414 1.66-.867 2.453-1.36.8-.487 1.566-1.003 2.297-1.546a15.52 15.52 0 0 0 1.984-1.75h4.172V76.25h-5.969V56.297a18.481 18.481 0 0 1-2.687 1.453c-.98.437-1.938.82-2.875 1.14Zm30.873 8.906c-.585 0-1.21.058-1.874.172-.668.105-1.188.25-1.563.437 0 .106-.007.266-.015.485a9.5 9.5 0 0 0-.016.546c0 .97.063 1.883.188 2.735.132.844.363 1.59.687 2.234.32.637.75 1.137 1.281 1.5.532.356 1.196.531 2 .531.664 0 1.235-.132 1.703-.406a3.772 3.772 0 0 0 1.157-1.062c.3-.426.523-.899.672-1.422.156-.52.234-1.02.234-1.5 0-1.363-.344-2.41-1.031-3.14-.68-.74-1.82-1.11-3.422-1.11Zm.766-4.64c1.727 0 3.196.234 4.407.702 1.218.47 2.21 1.106 2.984 1.907a7.1 7.1 0 0 1 1.688 2.796c.343 1.063.515 2.2.515 3.407 0 1.062-.195 2.156-.578 3.28a9.123 9.123 0 0 1-1.766 3.032c-.78.906-1.78 1.656-3 2.25-1.21.582-2.636.875-4.28.875-3.337 0-5.872-1.05-7.61-3.156-1.73-2.113-2.594-5.02-2.594-8.719 0-2.664.41-5.023 1.234-7.078.82-2.062 2-3.789 3.532-5.187 1.539-1.407 3.394-2.473 5.562-3.204 2.176-.726 4.625-1.109 7.344-1.14.05.824.102 1.633.156 2.422.063.793.117 1.61.172 2.453a23.24 23.24 0 0 0-3.828.39 13.06 13.06 0 0 0-3.25 1.063 8.92 8.92 0 0 0-2.531 1.86c-.719.761-1.278 1.687-1.672 2.78a7.104 7.104 0 0 1 1.797-.562 9.516 9.516 0 0 1 1.718-.172Zm0 0"/>
  <path d="m355.762 10.207.453.043.441.063.442.085.43.094.429.113.414.137.414.14.406.169.395.168.387.195.386.207.364.223.363.234.351.242.344.266.328.27.32.285.31.3.3.309.285.32.27.328.258.344.25.352.234.363.223.363.199.387.195.387.176.398.168.403.14.414.137.421.106.422.101.434.078.437.067.45.047.449.03.453.005.465v334.933l-.004.461-.031.457-.047.45-.067.441-.078.438-.101.433-.106.43-.137.414-.14.414-.168.41-.176.39-.195.387-.2.38-.222.37-.234.364-.25.351-.258.344-.27.328-.285.32-.3.31-.31.3-.32.285-.328.27-.344.257-.351.25-.363.239-.364.214-.386.207-.387.192-.395.18-.406.164-.414.14-.414.13-.43.116-.43.098-.44.078-.442.067-.453.05-.457.028-.457.007H19.91l-.457-.007-.457-.028-.45-.05-.448-.067-.438-.078-.433-.098-.422-.117-.422-.129-.414-.14-.403-.164-.398-.18-.387-.192-.379-.207-.37-.214-.364-.239-.352-.25-.343-.257-.328-.27-.32-.285-.31-.3-.3-.31-.285-.32-.27-.328-.258-.344-.25-.351-.238-.364-.219-.37-.207-.38-.187-.386-.18-.39-.164-.411-.14-.414-.137-.414-.114-.43-.093-.433-.086-.438-.059-.441-.05-.45-.028-.457-.008-.46V21.34l.008-.465.027-.453.051-.45.059-.449.086-.437.093-.434.114-.422.136-.421.141-.414.164-.403.18-.398.187-.387.207-.387.22-.363.237-.363.25-.352.258-.344.27-.328.285-.32.3-.309.31-.3.32-.286.328-.27.343-.265.352-.242.363-.234.371-.223.38-.207.386-.195.398-.168.403-.168.414-.14.422-.138.422-.113.433-.094.438-.085.449-.063.45-.043.456-.031.457-.004h334.938l.457.004ZM28.187 18.914l-.457.031-.453.043-.441.063-.445.086-.426.093-.43.114-.422.136-.406.145-.41.164-.39.172-.395.191-.38.207-.37.223-.356.234-.351.243-.344.265-.328.27-.32.289-.31.297-.3.308-.285.32-.27.333-.265.34-.242.351-.239.355-.218.375-.207.375-.188.395-.18.395-.164.406-.14.406-.137.422-.113.43-.094.43-.086.44-.059.442-.046.453-.032.457-.008.457v317.465l.008.457.032.461.046.45.059.44.086.438.094.434.113.43.137.414.14.414.164.41.18.39.188.387.207.38.218.37.239.363.242.352.265.344.27.328.285.32.3.309.31.3.32.286.328.27.344.257.351.25.356.238.37.211.38.207.394.196.39.18.411.163.406.141.422.129.43.113.426.102.445.078.441.066.453.047.457.031.458.008h317.464l.457-.008.457-.03.454-.048.441-.066.441-.078.43-.102.43-.113.414-.129.414-.14.406-.165.395-.18.386-.195.383-.207.367-.21.364-.239.351-.25.34-.258.332-.27.32-.284.309-.301.297-.309.289-.32.27-.328.257-.344.25-.352.235-.363.222-.37.2-.38.195-.387.176-.39.164-.41.144-.414.137-.414.105-.43.102-.434.078-.437.063-.442.05-.449.032-.46.004-.458V30.07l-.004-.457-.032-.457-.05-.453-.063-.441-.078-.442-.102-.43-.105-.43-.137-.42-.144-.407-.164-.406-.176-.395-.195-.39-.2-.38-.222-.375-.235-.355-.25-.352-.258-.34-.27-.331-.288-.32-.297-.31-.309-.296-.32-.29-.332-.269-.34-.265-.351-.243-.364-.234-.367-.223-.383-.207-.386-.191-.395-.172-.406-.164-.414-.145-.414-.136-.43-.114-.43-.093-.441-.086-.441-.063-.454-.043-.457-.03-.457-.005H28.645Zm0 0"/>
</svg>
