<svg xmlns="http://www.w3.org/2000/svg" version="1.2" viewBox="0 0 375 375">
  <path d="m355.762 10.207.453.043.441.063.442.085.43.094.429.113.414.137.414.14.406.169.395.168.387.195.386.207.364.223.363.234.351.242.344.266.328.27.32.285.31.3.3.309.285.32.27.328.258.344.25.352.234.363.223.363.199.387.195.387.176.398.168.403.14.414.137.421.106.422.101.434.078.437.067.45.047.449.03.453.005.465v334.933l-.004.461-.031.457-.047.45-.067.441-.078.438-.101.433-.106.43-.137.414-.14.414-.168.41-.176.39-.195.387-.2.38-.222.37-.234.364-.25.351-.258.344-.27.328-.285.32-.3.31-.31.3-.32.285-.328.27-.344.257-.351.25-.363.239-.364.214-.386.207-.387.192-.395.18-.406.164-.414.14-.414.13-.43.116-.43.098-.44.078-.442.067-.453.05-.457.028-.457.007H19.91l-.457-.007-.457-.028-.45-.05-.448-.067-.438-.078-.433-.098-.422-.117-.422-.129-.414-.14-.403-.164-.398-.18-.387-.192-.379-.207-.37-.214-.364-.239-.352-.25-.343-.257-.328-.27-.32-.285-.31-.3-.3-.31-.285-.32-.27-.328-.258-.344-.25-.351-.238-.364-.219-.37-.207-.38-.187-.386-.18-.39-.164-.411-.14-.414-.137-.414-.114-.43-.093-.433-.086-.438-.059-.441-.05-.45-.028-.457-.008-.46V21.34l.008-.465.027-.453.051-.45.059-.449.086-.437.093-.434.114-.422.136-.421.141-.414.164-.403.18-.398.187-.387.207-.387.22-.363.237-.363.25-.352.258-.344.27-.328.285-.32.3-.309.31-.3.32-.286.328-.27.343-.265.352-.242.363-.234.371-.223.38-.207.386-.195.398-.168.403-.168.414-.14.422-.138.422-.113.433-.094.438-.085.449-.063.45-.043.456-.031.457-.004h334.938l.457.004ZM28.187 18.914l-.457.031-.453.043-.441.063-.445.086-.426.093-.43.114-.422.136-.406.145-.41.164-.39.172-.395.191-.38.207-.37.223-.356.234-.351.243-.344.265-.328.27-.32.289-.31.297-.3.308-.285.32-.27.333-.265.34-.242.351-.239.355-.218.375-.207.375-.188.395-.18.395-.164.406-.14.406-.137.422-.113.43-.094.43-.086.44-.059.442-.046.453-.032.457-.008.457v317.465l.008.457.032.461.046.45.059.44.086.438.094.434.113.43.137.414.14.414.164.41.18.39.188.387.207.38.218.37.239.363.242.352.265.344.27.328.285.32.3.309.31.3.32.286.328.27.344.257.351.25.356.238.37.211.38.207.394.196.39.18.411.163.406.141.422.129.43.113.426.102.445.078.441.066.453.047.457.031.458.008h317.464l.457-.008.457-.03.454-.048.441-.066.441-.078.43-.102.43-.113.414-.129.414-.14.406-.165.395-.18.386-.195.383-.207.367-.21.364-.239.351-.25.34-.258.332-.27.32-.284.309-.301.297-.309.289-.32.27-.328.257-.344.25-.352.235-.363.222-.37.2-.38.195-.387.176-.39.164-.41.144-.414.137-.414.105-.43.102-.434.078-.437.063-.442.05-.449.032-.46.004-.458V30.07l-.004-.457-.032-.457-.05-.453-.063-.441-.078-.442-.102-.43-.105-.43-.137-.42-.144-.407-.164-.406-.176-.395-.195-.39-.2-.38-.222-.375-.235-.355-.25-.352-.258-.34-.27-.331-.288-.32-.297-.31-.309-.296-.32-.29-.332-.269-.34-.265-.351-.243-.364-.234-.367-.223-.383-.207-.386-.191-.395-.172-.406-.164-.414-.145-.414-.136-.43-.114-.43-.093-.441-.086-.441-.063-.454-.043-.457-.03-.457-.005H28.645Zm0 0"/>
  <path d="M175.462 196.771c-15.774 0-27.79-4.383-36.047-13.156-8.25-8.77-12.375-21.223-12.375-37.36 0-8.019 1.258-15.18 3.781-21.484 2.52-6.3 5.969-11.617 10.344-15.953 4.383-4.344 9.61-7.633 15.672-9.875 6.07-2.238 12.656-3.36 19.75-3.36 4.101 0 7.832.31 11.187.923 3.364.605 6.301 1.304 8.813 2.093 2.52.793 4.617 1.61 6.297 2.453 1.687.836 2.898 1.485 3.64 1.954l-6.296 17.64c-2.98-1.582-6.454-2.93-10.422-4.047-3.97-1.125-8.47-1.687-13.5-1.687-3.368 0-6.657.562-9.875 1.687-3.22 1.118-6.063 2.907-8.532 5.375-2.468 2.47-4.453 5.668-5.953 9.594-1.492 3.918-2.234 8.672-2.234 14.266 0 4.48.488 8.656 1.469 12.531.976 3.867 2.562 7.2 4.75 10 2.195 2.805 5.066 5.023 8.609 6.656 3.55 1.625 7.844 2.438 12.875 2.438 3.176 0 6.023-.18 8.547-.547 2.52-.375 4.758-.817 6.719-1.328 1.957-.52 3.68-1.102 5.172-1.75a262.82 262.82 0 0 0 4.062-1.828l6.016 17.5c-3.086 1.867-7.422 3.543-13.016 5.03-5.594 1.49-12.078 2.235-19.453 2.235Zm74.458-.547c-6.063-.093-10.985-.746-14.766-1.953-3.782-1.219-6.774-2.922-8.969-5.11-2.188-2.194-3.68-4.859-4.469-7.984-.793-3.125-1.187-6.648-1.187-10.578V89.57l20.86-3.36v80.203c0 1.867.132 3.543.405 5.031.282 1.492.817 2.75 1.61 3.781.8 1.032 1.945 1.875 3.437 2.532 1.488.648 3.492 1.062 6.016 1.25Zm-127.456 69.961c-4.511 0-7.949-1.25-10.312-3.75-2.356-2.508-3.531-6.07-3.531-10.687 0-2.29.36-4.336 1.078-6.14.719-1.802 1.703-3.321 2.953-4.563 1.258-1.239 2.754-2.176 4.484-2.813 1.739-.644 3.618-.969 5.641-.969 1.176 0 2.242.09 3.203.266.957.168 1.797.367 2.516.594a13.11 13.11 0 0 1 2.843 1.265l-1.796 5.032c-.856-.446-1.852-.832-2.985-1.157-1.137-.32-2.422-.484-3.86-.484-.96 0-1.902.164-2.827.484a6.45 6.45 0 0 0-2.438 1.547c-.699.7-1.262 1.61-1.687 2.735-.43 1.117-.64 2.476-.64 4.078 0 1.281.132 2.476.405 3.578.282 1.105.735 2.059 1.36 2.86.633.804 1.457 1.437 2.468 1.906 1.008.468 2.239.703 3.688.703.906 0 1.719-.051 2.437-.157a18.68 18.68 0 0 0 1.907-.39 9.826 9.826 0 0 0 1.484-.5l1.172-.516 1.719 5c-.887.531-2.133 1.012-3.735 1.438-1.593.425-3.445.64-5.547.64Zm12.873-.562v-30.078l5.97-.97v10.095c.394-.133.905-.258 1.53-.375a9.311 9.311 0 0 1 1.828-.188c1.708 0 3.125.235 4.25.703 1.133.461 2.04 1.117 2.72 1.969.687.856 1.163 1.871 1.437 3.047.281 1.168.422 2.476.422 3.922v11.875h-5.954v-11.156c0-1.926-.25-3.286-.75-4.079-.492-.8-1.402-1.203-2.734-1.203-.531 0-1.031.047-1.5.14a17.48 17.48 0 0 0-1.25.298v16Zm31.966.406c-1.742-.031-3.152-.219-4.234-.562-1.074-.352-1.922-.844-2.547-1.47a4.836 4.836 0 0 1-1.281-2.265c-.23-.894-.344-1.906-.344-3.031v-23.156l5.969-.97v22.923c0 .543.035 1.027.11 1.453.081.418.238.777.468 1.078.227.293.55.531.969.719.426.187 1.004.308 1.734.36Zm23.922-10.969c0 1.657-.243 3.172-.72 4.547-.48 1.375-1.179 2.547-2.093 3.516a9.505 9.505 0 0 1-3.266 2.265c-1.261.532-2.68.797-4.25.797-1.543 0-2.949-.265-4.218-.797a9.656 9.656 0 0 1-3.266-2.265c-.906-.969-1.617-2.14-2.125-3.516-.5-1.375-.75-2.89-.75-4.547 0-1.656.258-3.16.781-4.515.52-1.364 1.239-2.524 2.157-3.485a9.81 9.81 0 0 1 3.28-2.234c1.27-.531 2.65-.797 4.141-.797 1.52 0 2.91.266 4.172.797a9.48 9.48 0 0 1 3.266 2.234c.906.961 1.613 2.121 2.125 3.485.508 1.355.766 2.859.766 4.515Zm-6.079 0c0-1.832-.37-3.273-1.109-4.328-.73-1.062-1.777-1.594-3.14-1.594-1.356 0-2.407.532-3.157 1.594-.75 1.055-1.125 2.496-1.125 4.328 0 1.844.375 3.309 1.125 4.39.75 1.075 1.801 1.61 3.156 1.61 1.364 0 2.41-.535 3.141-1.61.738-1.081 1.11-2.546 1.11-4.39Zm23.358-5.203a68.408 68.408 0 0 0-1.89-.406 10.891 10.891 0 0 0-2.313-.234c-.375 0-.824.039-1.343.109-.524.062-.915.137-1.172.219v16.078h-5.97V245.7c1.071-.375 2.333-.727 3.782-1.063 1.457-.332 3.078-.5 4.86-.5.32 0 .707.024 1.156.063.457.043.91.101 1.36.172.456.062.91.14 1.359.234.457.094.847.203 1.171.328Zm10.161 15.766h-5.968v-21.047h5.968Zm.547-27.125c0 1.094-.355 1.96-1.062 2.594-.7.625-1.527.937-2.485.937-.968 0-1.808-.312-2.515-.937-.7-.633-1.047-1.5-1.047-2.594 0-1.094.348-1.953 1.047-2.578.707-.625 1.547-.938 2.515-.938.958 0 1.786.313 2.485.938.707.625 1.062 1.484 1.062 2.578Zm5.045 6.812c1.007-.3 2.316-.578 3.922-.828a32.722 32.722 0 0 1 5.046-.375c1.782 0 3.266.235 4.454.703 1.187.461 2.125 1.117 2.812 1.969.695.856 1.191 1.871 1.484 3.047.29 1.168.438 2.476.438 3.922v11.875h-5.953v-11.156c0-1.926-.258-3.286-.766-4.079-.5-.8-1.445-1.203-2.828-1.203-.43 0-.887.024-1.375.063-.48.043-.902.09-1.266.14v16.235h-5.968Zm22.559 9.953c0-1.863.286-3.492.86-4.89.57-1.406 1.32-2.57 2.25-3.5a9.42 9.42 0 0 1 3.219-2.125 10.218 10.218 0 0 1 3.75-.719c2.988 0 5.347.914 7.078 2.734 1.738 1.825 2.61 4.512 2.61 8.063 0 .344-.017.726-.048 1.14-.023.407-.047.774-.078 1.094h-13.516c.133 1.23.707 2.203 1.72 2.922 1.007.719 2.366 1.078 4.077 1.078 1.094 0 2.164-.097 3.22-.297 1.05-.195 1.91-.441 2.577-.734l.797 4.828c-.312.168-.742.328-1.281.485-.531.156-1.125.289-1.781.406-.649.125-1.344.226-2.094.312a20.29 20.29 0 0 1-2.235.125c-1.898 0-3.546-.281-4.953-.843-1.398-.563-2.554-1.329-3.468-2.297a9.279 9.279 0 0 1-2.047-3.47c-.438-1.331-.657-2.769-.657-4.312Zm14-2.28a5.617 5.617 0 0 0-.265-1.485 3.573 3.573 0 0 0-1.828-2.188c-.469-.25-1.055-.375-1.75-.375-.668 0-1.242.117-1.719.344-.48.23-.883.531-1.203.906a4.268 4.268 0 0 0-.735 1.297 9.159 9.159 0 0 0-.375 1.5Zm-114.551 75.986c-.719 0-1.48-.047-2.281-.141a26.337 26.337 0 0 1-2.329-.375 23.58 23.58 0 0 1-2.03-.516 12.157 12.157 0 0 1-1.438-.515l1.156-4.97c.687.294 1.57.606 2.656.938 1.082.336 2.422.5 4.016.5 1.844 0 3.191-.343 4.047-1.03.851-.696 1.281-1.63 1.281-2.798 0-.726-.156-1.336-.469-1.828a3.48 3.48 0 0 0-1.25-1.187c-.531-.313-1.168-.524-1.906-.64a13.9 13.9 0 0 0-2.344-.188h-2.312v-4.797h2.64c.582 0 1.145-.051 1.688-.157a4.833 4.833 0 0 0 1.469-.546 2.87 2.87 0 0 0 1.015-1.047c.258-.438.39-.989.39-1.657 0-.507-.109-.945-.327-1.312a2.85 2.85 0 0 0-.813-.922 3.576 3.576 0 0 0-1.172-.531 4.826 4.826 0 0 0-1.328-.188c-1.148 0-2.21.172-3.187.516a13.17 13.17 0 0 0-2.657 1.281l-2.125-4.36a18.8 18.8 0 0 1 1.5-.843c.57-.289 1.204-.555 1.891-.797a17.344 17.344 0 0 1 2.219-.594c.789-.164 1.629-.25 2.515-.25 1.625 0 3.032.196 4.22.579 1.187.386 2.163.933 2.937 1.64a6.73 6.73 0 0 1 1.718 2.485c.375.949.563 1.98.563 3.093 0 1.094-.309 2.157-.922 3.188a6.097 6.097 0 0 1-2.469 2.328c1.438.594 2.547 1.469 3.328 2.625.79 1.156 1.188 2.555 1.188 4.187 0 1.282-.215 2.465-.64 3.547a7.223 7.223 0 0 1-2 2.797c-.907.781-2.063 1.39-3.47 1.828-1.398.438-3.054.657-4.968.657Zm28.001-8.75c0-.77-.18-1.457-.531-2.063-.344-.601-.946-1.101-1.797-1.5-.856-.394-2-.695-3.438-.906-1.437-.219-3.25-.328-5.437-.328.289-2.489.531-5.008.719-7.563.187-2.562.332-4.96.437-7.203h15v5h-10c-.055.961-.117 1.887-.187 2.781a43.89 43.89 0 0 1-.22 2.344c3.895.262 6.77 1.172 8.626 2.734 1.851 1.563 2.781 3.73 2.781 6.5 0 1.282-.23 2.47-.687 3.563a7.61 7.61 0 0 1-2.032 2.844c-.906.793-2.047 1.418-3.422 1.875-1.375.445-2.98.672-4.812.672-.73 0-1.492-.047-2.281-.141a29.875 29.875 0 0 1-2.266-.36c-.73-.144-1.39-.296-1.984-.453-.586-.156-1.04-.316-1.36-.484l1.078-4.922c.664.305 1.547.594 2.641.875 1.094.274 2.398.406 3.922.406 1.844 0 3.176-.363 4-1.093.832-.739 1.25-1.598 1.25-2.578Zm16.954 5c0 1.199-.383 2.109-1.14 2.734-.762.625-1.622.937-2.579.937-.96 0-1.82-.312-2.578-.937-.761-.625-1.14-1.535-1.14-2.734 0-1.196.379-2.11 1.14-2.735.758-.633 1.617-.953 2.578-.953.957 0 1.817.32 2.578.953.758.625 1.141 1.54 1.141 2.735Zm13.965-17.282a247.352 247.352 0 0 0-3.328 4.438 31.341 31.341 0 0 0-2.953 4.922h6.281Zm5.828-7.28v16.64h2.969v4.875h-2.969v6.203h-5.828v-6.203h-11.969v-4.36a74.056 74.056 0 0 1 2.203-3.968 69.398 69.398 0 0 1 2.938-4.563 80.118 80.118 0 0 1 3.422-4.578 48.177 48.177 0 0 1 3.594-4.047Zm18.532 19.562c0-.77-.18-1.457-.53-2.063-.345-.601-.946-1.101-1.798-1.5-.855-.394-2-.695-3.437-.906-1.438-.219-3.25-.328-5.438-.328.29-2.489.532-5.008.72-7.563.187-2.562.331-4.96.437-7.203h15v5h-10c-.055.961-.118 1.887-.188 2.781a43.99 43.99 0 0 1-.219 2.344c3.895.262 6.77 1.172 8.625 2.734 1.852 1.563 2.782 3.73 2.782 6.5 0 1.282-.23 2.47-.688 3.563a7.61 7.61 0 0 1-2.031 2.844c-.906.793-2.047 1.418-3.422 1.875-1.375.445-2.98.672-4.813.672-.73 0-1.492-.047-2.28-.141a29.875 29.875 0 0 1-2.266-.36 32.12 32.12 0 0 1-1.985-.453c-.586-.156-1.039-.316-1.36-.484l1.079-4.922c.664.305 1.547.594 2.64.875 1.094.274 2.399.406 3.922.406 1.844 0 3.176-.363 4-1.093.833-.739 1.25-1.598 1.25-2.578ZM40.297 54.297c.77-.32 1.578-.691 2.422-1.11.844-.413 1.66-.867 2.453-1.359a30.39 30.39 0 0 0 2.297-1.547 15.52 15.52 0 0 0 1.984-1.75h4.172v27.72h-5.969V56.296a18.291 18.291 0 0 1-2.687 1.453c-.98.438-1.938.82-2.875 1.14ZM65.905 76.25c.156-1.945.485-3.973.985-6.078a59.072 59.072 0 0 1 1.859-6.187 53.583 53.583 0 0 1 2.469-5.75c.906-1.801 1.828-3.36 2.765-4.672H61.936v-5.078h19.407v4.328c-.856.93-1.797 2.218-2.828 3.875-1.024 1.656-1.996 3.53-2.922 5.625a53.19 53.19 0 0 0-2.407 6.75 34.54 34.54 0 0 0-1.25 7.187Zm0 0"/>
</svg>
