<svg xmlns="http://www.w3.org/2000/svg" version="1.2" viewBox="0 0 375 375">
  <path d="M183.656 194.819a256.762 256.762 0 0 0-3.438-10.344 801.346 801.346 0 0 1-3.703-10.656h-37.797a931.15 931.15 0 0 1-3.703 10.656 232.96 232.96 0 0 0-3.422 10.344h-22.672a1737.965 1737.965 0 0 1 10.344-28.97c3.27-8.862 6.469-17.21 9.594-25.046a886.481 886.481 0 0 1 9.234-22.328 485.946 485.946 0 0 1 9.453-20.64h20.844a761.587 761.587 0 0 1 9.375 20.64 725.993 725.993 0 0 1 9.313 22.328 1001.115 1001.115 0 0 1 9.578 25.047 1692.83 1692.83 0 0 1 10.359 28.969Zm-26.172-75.016c-.469 1.398-1.172 3.309-2.11 5.734-.93 2.43-2 5.23-3.218 8.407-1.211 3.168-2.54 6.668-3.985 10.5a601.498 601.498 0 0 0-4.406 12.03h27.563a1206.414 1206.414 0 0 0-4.344-12.03 402.996 402.996 0 0 0-3.985-10.5 1321.65 1321.65 0 0 1-3.28-8.407 979.828 979.828 0 0 0-2.235-5.734Zm105.096 19.875a150.34 150.34 0 0 0-6.578-1.469c-2.512-.508-5.215-.765-8.11-.765-1.312 0-2.882.117-4.703.343-1.812.23-3.183.485-4.11.766v56.266h-20.858v-69.704c3.726-1.3 8.132-2.535 13.218-3.703 5.094-1.164 10.766-1.75 17.016-1.75 1.113 0 2.46.075 4.047.22 1.594.136 3.18.323 4.765.562a88.24 88.24 0 0 1 4.75.828c1.594.324 2.946.718 4.063 1.187ZM150.606 265.623a85.348 85.348 0 0 0-1-2.953 404.91 404.91 0 0 1-1.047-3.047h-10.797a209.307 209.307 0 0 1-1.062 3.047 56.835 56.835 0 0 0-.984 2.953h-6.47a394.551 394.551 0 0 1 2.954-8.281 350.71 350.71 0 0 1 2.734-7.156 258.187 258.187 0 0 1 2.641-6.375c.875-2.02 1.773-3.989 2.703-5.906h5.969a199.158 199.158 0 0 1 2.672 5.906c.883 2.011 1.77 4.136 2.656 6.375a277.947 277.947 0 0 1 2.734 7.156 468.758 468.758 0 0 1 2.97 8.281Zm-7.484-21.437c-.137.398-.34.945-.61 1.64-.261.688-.57 1.485-.921 2.391-.344.906-.727 1.906-1.141 3a222.509 222.509 0 0 0-1.25 3.453h7.875c-.43-1.207-.84-2.36-1.234-3.453a101.479 101.479 0 0 0-1.141-3 226.52 226.52 0 0 1-.953-2.39c-.262-.696-.469-1.243-.625-1.641Zm30.043 5.672a68.408 68.408 0 0 0-1.89-.407 10.891 10.891 0 0 0-2.313-.234c-.375 0-.825.04-1.344.11-.524.062-.914.136-1.172.218v16.078h-5.969v-19.922c1.07-.375 2.332-.726 3.782-1.062 1.457-.332 3.078-.5 4.859-.5.32 0 .707.023 1.156.062.457.043.91.102 1.36.172.457.063.91.14 1.359.235.457.093.848.203 1.172.328Zm9.27 4.562c0 3.336 1.348 5 4.047 5 .613 0 1.188-.078 1.719-.234a6.99 6.99 0 0 0 1.36-.563v-9.515a16.112 16.112 0 0 0-1.048-.141 14.313 14.313 0 0 0-1.39-.062c-1.574 0-2.75.523-3.531 1.562-.774 1.043-1.157 2.36-1.157 3.953Zm13.078 8.563c0 3.437-.875 5.988-2.625 7.656-1.742 1.664-4.437 2.5-8.093 2.5a22.04 22.04 0 0 1-3.844-.344 22.844 22.844 0 0 1-3.547-.89l1.031-5a17.26 17.26 0 0 0 2.938.875c1.031.218 2.195.328 3.5.328 1.707 0 2.914-.375 3.625-1.125.707-.75 1.062-1.707 1.062-2.875v-.766a9.312 9.312 0 0 1-1.984.656c-.68.149-1.418.219-2.219.219-2.906 0-5.137-.86-6.687-2.578-1.543-1.719-2.313-4.125-2.313-7.219 0-1.539.238-2.941.719-4.203a8.941 8.941 0 0 1 2.094-3.266c.925-.914 2.054-1.617 3.39-2.109 1.332-.488 2.836-.734 4.516-.734.719 0 1.457.039 2.219.109a43.65 43.65 0 0 1 2.265.25c.75.105 1.461.23 2.14.375a22.71 22.71 0 0 1 1.813.469Zm25.291-7.923c0 1.657-.242 3.173-.718 4.548-.48 1.375-1.18 2.547-2.094 3.515a9.505 9.505 0 0 1-3.266 2.266c-1.261.531-2.68.797-4.25.797-1.543 0-2.949-.266-4.218-.797a9.656 9.656 0 0 1-3.266-2.266c-.906-.968-1.617-2.14-2.125-3.515-.5-1.375-.75-2.891-.75-4.547 0-1.656.258-3.16.781-4.516.52-1.363 1.238-2.523 2.156-3.484a9.81 9.81 0 0 1 3.282-2.235c1.27-.53 2.648-.796 4.14-.796 1.52 0 2.91.265 4.172.796a9.48 9.48 0 0 1 3.266 2.235c.906.96 1.613 2.12 2.125 3.484.508 1.356.765 2.86.765 4.516Zm-6.078 0c0-1.831-.37-3.273-1.11-4.327-.73-1.063-1.776-1.594-3.14-1.594-1.355 0-2.406.531-3.156 1.594-.75 1.054-1.125 2.496-1.125 4.328 0 1.844.375 3.308 1.125 4.39.75 1.075 1.8 1.61 3.156 1.61 1.364 0 2.41-.535 3.14-1.61.74-1.082 1.11-2.546 1.11-4.39Zm10.671-9.75c1.008-.3 2.316-.577 3.922-.827a32.722 32.722 0 0 1 5.046-.375c1.782 0 3.266.234 4.454.703 1.187.46 2.125 1.117 2.812 1.969.695.855 1.192 1.87 1.484 3.046.29 1.168.438 2.477.438 3.922v11.875H237.6v-11.156c0-1.926-.258-3.285-.766-4.078-.5-.8-1.445-1.203-2.828-1.203-.43 0-.887.023-1.375.062-.48.043-.902.09-1.266.14v16.235h-5.968Zm-79.132 83.659c-.719 0-1.48-.047-2.281-.14a26.337 26.337 0 0 1-2.329-.376 23.58 23.58 0 0 1-2.03-.515 12.157 12.157 0 0 1-1.438-.516l1.156-4.969c.687.293 1.57.606 2.656.938 1.082.336 2.422.5 4.016.5 1.844 0 3.191-.344 4.047-1.031.851-.696 1.281-1.63 1.281-2.797 0-.727-.156-1.336-.469-1.828a3.48 3.48 0 0 0-1.25-1.188c-.531-.312-1.168-.523-1.906-.64a13.9 13.9 0 0 0-2.344-.188h-2.312v-4.797h2.64c.582 0 1.145-.05 1.688-.156a4.833 4.833 0 0 0 1.469-.547 2.87 2.87 0 0 0 1.015-1.047c.258-.437.39-.988.39-1.656 0-.508-.109-.945-.327-1.313a2.85 2.85 0 0 0-.813-.921 3.576 3.576 0 0 0-1.172-.532 4.826 4.826 0 0 0-1.328-.187c-1.148 0-2.21.172-3.187.515a13.17 13.17 0 0 0-2.657 1.282l-2.125-4.36a18.8 18.8 0 0 1 1.5-.843c.57-.29 1.204-.555 1.891-.797a17.344 17.344 0 0 1 2.219-.594c.789-.164 1.629-.25 2.515-.25 1.625 0 3.032.195 4.22.578 1.187.387 2.163.934 2.937 1.64a6.73 6.73 0 0 1 1.718 2.485c.375.95.563 1.98.563 3.094 0 1.094-.309 2.156-.922 3.187a6.097 6.097 0 0 1-2.469 2.328c1.438.594 2.547 1.47 3.328 2.625.79 1.157 1.188 2.555 1.188 4.188 0 1.281-.215 2.465-.64 3.547a7.223 7.223 0 0 1-2 2.797c-.907.78-2.063 1.39-3.47 1.828-1.398.437-3.054.656-4.968.656Zm25.157-15.469c.613 0 1.254-.054 1.922-.172.664-.125 1.156-.296 1.469-.515v-.36c0-.101.004-.207.015-.312a1.75 1.75 0 0 0 .032-.281 22.022 22.022 0 0 0-.25-2.703c-.125-.844-.352-1.579-.672-2.204a3.775 3.775 0 0 0-1.313-1.468c-.543-.364-1.21-.547-2-.547-.648 0-1.21.137-1.687.406a3.26 3.26 0 0 0-1.156 1.031c-.293.43-.512.899-.657 1.407-.148.5-.218.992-.218 1.468 0 1.45.347 2.524 1.046 3.219.707.688 1.864 1.031 3.47 1.031Zm2.922 3.875a7.221 7.221 0 0 1-1.875.594 10.44 10.44 0 0 1-1.734.172c-1.73 0-3.211-.207-4.438-.625-1.23-.414-2.242-1.004-3.031-1.766a6.998 6.998 0 0 1-1.734-2.734c-.368-1.063-.547-2.234-.547-3.516 0-1.07.175-2.164.53-3.281a9.002 9.002 0 0 1 1.704-3.062c.77-.915 1.75-1.676 2.938-2.282 1.187-.601 2.617-.906 4.296-.906 3.446 0 6.04 1.063 7.782 3.188 1.75 2.117 2.625 5.164 2.625 9.14 0 2.617-.344 4.922-1.032 6.922-.68 2-1.73 3.684-3.156 5.047-1.418 1.355-3.234 2.387-5.453 3.094-2.21.71-4.836 1.07-7.875 1.093a90.625 90.625 0 0 0-.125-2.468c-.055-.801-.105-1.63-.156-2.485 1.52-.031 2.89-.144 4.11-.343 1.226-.196 2.304-.532 3.234-1a7.477 7.477 0 0 0 2.39-1.86c.656-.77 1.172-1.742 1.547-2.922Zm16.876 7.844c0 1.2-.383 2.11-1.14 2.734-.762.625-1.622.938-2.579.938-.96 0-1.82-.313-2.578-.938-.761-.625-1.14-1.535-1.14-2.734 0-1.195.379-2.11 1.14-2.734.758-.633 1.617-.953 2.578-.953.957 0 1.817.32 2.578.953.758.625 1.141 1.539 1.141 2.734Zm12.762-11.719c.613 0 1.254-.054 1.922-.172.664-.125 1.156-.296 1.469-.515v-.36c0-.101.003-.207.015-.312a1.75 1.75 0 0 0 .031-.281 22.022 22.022 0 0 0-.25-2.703c-.125-.844-.351-1.579-.671-2.204a3.775 3.775 0 0 0-1.313-1.468c-.543-.364-1.21-.547-2-.547-.648 0-1.21.137-1.687.406-.48.262-.868.606-1.157 1.031-.293.43-.511.899-.656 1.407-.148.5-.219.992-.219 1.468 0 1.45.348 2.524 1.047 3.219.707.688 1.863 1.031 3.469 1.031Zm2.922 3.875a7.221 7.221 0 0 1-1.875.594 10.44 10.44 0 0 1-1.735.172c-1.73 0-3.21-.207-4.437-.625-1.23-.414-2.242-1.004-3.031-1.766a6.998 6.998 0 0 1-1.735-2.734c-.367-1.063-.547-2.234-.547-3.516 0-1.07.176-2.164.532-3.281a9.002 9.002 0 0 1 1.703-3.062c.77-.915 1.75-1.676 2.937-2.282 1.188-.601 2.617-.906 4.297-.906 3.445 0 6.04 1.063 7.781 3.188 1.75 2.117 2.625 5.164 2.625 9.14 0 2.617-.343 4.922-1.03 6.922-.68 2-1.731 3.684-3.157 5.047-1.418 1.355-3.234 2.387-5.453 3.094-2.211.71-4.836 1.07-7.875 1.093a90.625 90.625 0 0 0-.125-2.468c-.055-.801-.106-1.63-.156-2.485 1.52-.031 2.89-.144 4.109-.343 1.226-.196 2.305-.532 3.234-1a7.477 7.477 0 0 0 2.39-1.86c.657-.77 1.173-1.742 1.548-2.922Zm22.641 2.844c0-.77-.18-1.457-.53-2.062-.345-.602-.946-1.102-1.798-1.5-.855-.395-2-.696-3.437-.907-1.438-.218-3.25-.328-5.438-.328.29-2.488.532-5.008.72-7.562.187-2.563.331-4.961.437-7.203h15v5h-10c-.055.96-.118 1.886-.188 2.78-.062.9-.137 1.68-.219 2.345 3.895.261 6.77 1.171 8.625 2.734 1.852 1.562 2.782 3.73 2.782 6.5 0 1.281-.23 2.469-.688 3.562a7.61 7.61 0 0 1-2.031 2.844c-.906.793-2.047 1.418-3.422 1.875-1.375.445-2.98.672-4.813.672-.73 0-1.492-.047-2.28-.14a29.875 29.875 0 0 1-2.266-.36 32.866 32.866 0 0 1-1.985-.453c-.586-.156-1.039-.316-1.36-.484l1.079-4.922c.664.304 1.547.593 2.64.875 1.094.273 2.399.406 3.922.406 1.844 0 3.176-.363 4-1.094.833-.738 1.25-1.597 1.25-2.578ZM40.297 54.297c.77-.32 1.578-.69 2.422-1.109.844-.414 1.66-.867 2.453-1.36a30.38 30.38 0 0 0 2.297-1.546 15.52 15.52 0 0 0 1.984-1.75h4.172V76.25h-5.969V56.297a18.293 18.293 0 0 1-2.687 1.454c-.98.437-1.938.82-2.875 1.14ZM81.42 68.532c0 1.2-.21 2.297-.624 3.297a7.383 7.383 0 0 1-1.86 2.625c-.824.742-1.855 1.32-3.093 1.734-1.242.414-2.68.625-4.313.625-1.867 0-3.418-.262-4.656-.781-1.242-.52-2.242-1.164-3-1.938-.762-.77-1.305-1.613-1.625-2.53-.313-.927-.469-1.774-.469-2.548 0-.8.102-1.535.313-2.203a7.28 7.28 0 0 1 .875-1.812 9.403 9.403 0 0 1 1.265-1.5c.47-.457.97-.891 1.5-1.297-1.148-.926-1.996-1.844-2.547-2.75-.542-.907-.812-2.067-.812-3.485 0-1.062.219-2.086.656-3.078a7.863 7.863 0 0 1 1.86-2.578c.8-.738 1.77-1.328 2.906-1.766 1.133-.437 2.394-.656 3.781-.656 1.625 0 3.016.235 4.172.703 1.164.47 2.117 1.063 2.86 1.782.75.718 1.288 1.527 1.624 2.421.332.887.5 1.774.5 2.657 0 1.281-.34 2.476-1.015 3.578-.68 1.105-1.528 1.98-2.547 2.625 1.52.98 2.61 2.012 3.265 3.094.657 1.086.985 2.343.985 3.78Zm-13.843.234c0 .324.07.68.219 1.063.144.386.379.742.703 1.062.32.324.734.594 1.234.813.508.21 1.125.312 1.844.312 1.383 0 2.395-.332 3.031-1 .645-.664.97-1.414.97-2.25 0-.613-.142-1.16-.423-1.64a4.266 4.266 0 0 0-1.14-1.25 8.103 8.103 0 0 0-1.704-.97 23.084 23.084 0 0 0-2.093-.78 8.21 8.21 0 0 0-1.89 1.968c-.5.743-.75 1.633-.75 2.672Zm7.406-13.156a2.7 2.7 0 0 0-.187-.938 2.6 2.6 0 0 0-.594-.937 3.586 3.586 0 0 0-1.062-.734c-.43-.207-.95-.313-1.563-.313-.586 0-1.09.094-1.516.281-.43.188-.78.438-1.062.75a3.06 3.06 0 0 0-.625.97 2.693 2.693 0 0 0-.203 1c0 .855.312 1.655.937 2.405.633.743 1.711 1.383 3.235 1.922.851-.539 1.504-1.156 1.953-1.844.457-.695.687-1.55.687-2.562Zm0 0"/>
  <path d="m355.762 10.207.453.043.441.063.442.085.43.094.429.113.414.137.414.145.406.164.395.172.387.191.386.207.364.223.363.234.351.242.344.266.328.27.32.289.31.296.3.309.285.32.27.332.258.34.25.352.234.363.223.367.199.383.195.387.176.402.168.399.14.414.137.421.106.422.101.438.078.433.067.45.047.453.03.449.005.465v334.937l-.004.457-.031.457-.047.45-.067.441-.078.438-.101.437-.106.426-.137.414-.14.414-.168.41-.176.39-.195.387-.2.38-.222.37-.234.368-.25.347-.258.344-.27.328-.285.32-.3.31-.31.3-.32.285-.328.273-.344.254-.351.25-.363.239-.364.214-.386.207-.387.192-.395.18-.406.164-.414.14-.414.13-.43.116-.43.098-.44.078-.442.067-.453.05-.457.028-.457.007H19.91l-.457-.007-.457-.028-.45-.05-.448-.067-.438-.078-.433-.098-.422-.117-.422-.129-.414-.14-.403-.164-.398-.18-.387-.192-.379-.207-.37-.214-.364-.239-.352-.25-.343-.254-.328-.273-.32-.285-.31-.3-.3-.31-.285-.32-.27-.328-.258-.344-.25-.347-.238-.368-.219-.37-.207-.38-.187-.386-.18-.39-.164-.411-.14-.414-.137-.414-.114-.426-.093-.437-.086-.438-.059-.441-.05-.45-.028-.457-.008-.457V21.34l.008-.465.027-.45.051-.452.059-.45.086-.433.093-.438.114-.422.136-.421.141-.414.164-.399.18-.402.187-.387.207-.383.22-.367.237-.363.25-.352.258-.34.27-.332.285-.32.3-.309.31-.296.32-.29.328-.27.343-.265.352-.242.363-.234.371-.223.38-.207.386-.191.398-.172.403-.164.414-.145.422-.137.422-.113.433-.094.438-.085.449-.063.45-.043.456-.031.457-.004h334.938l.457.004ZM28.187 18.918l-.457.027-.453.043-.441.063-.445.086-.426.093-.43.114-.422.136-.406.145-.41.164-.39.172-.395.191-.38.207-.37.223-.356.234-.351.243-.344.265-.328.274-.32.285-.31.3-.3.305-.285.325-.27.328-.265.34-.242.351-.239.36-.218.37-.207.38-.188.39-.18.395-.164.406-.14.406-.137.422-.113.43-.094.43-.086.44-.059.446-.046.45-.032.456-.008.457v317.465l.008.461.032.457.046.45.059.44.086.438.094.434.113.43.137.414.14.414.164.41.18.39.188.387.207.38.218.37.239.363.242.352.265.344.27.328.285.32.3.309.31.3.32.286.328.27.344.257.351.25.356.238.37.215.38.207.394.192.39.18.411.163.406.141.422.129.43.117.426.098.445.078.441.066.453.051.457.027.458.008h317.464l.457-.008.457-.027.454-.05.441-.067.441-.078.43-.098.43-.117.414-.129.414-.14.406-.165.395-.18.386-.19.383-.208.367-.215.364-.238.351-.25.34-.258.332-.27.32-.284.309-.301.297-.309.289-.32.27-.328.257-.344.25-.352.235-.363.222-.37.2-.38.195-.387.176-.39.164-.41.144-.414.137-.414.105-.43.102-.434.078-.437.063-.442.05-.449.032-.457.004-.46V30.07l-.004-.457-.032-.457-.05-.449-.063-.445-.078-.442-.102-.43-.105-.43-.137-.42-.144-.407-.164-.406-.176-.395-.195-.39-.2-.38-.222-.37-.235-.36-.25-.352-.258-.34-.27-.328-.288-.324-.297-.304-.309-.301-.32-.285-.332-.274-.34-.265-.351-.243-.364-.234-.367-.223-.383-.207-.386-.191-.395-.172-.406-.164-.414-.145-.414-.136-.43-.114-.43-.093-.441-.086-.441-.063-.454-.043-.457-.027-.457-.008H28.645Zm0 0"/>
</svg>
