<svg xmlns="http://www.w3.org/2000/svg" version="1.2" viewBox="0 0 375 375">
  <path d="m355.762 10.207.453.043.441.063.442.085.43.094.429.113.414.137.414.145.406.164.395.172.387.191.386.207.364.223.363.234.351.242.344.266.328.27.32.289.31.296.3.309.285.32.27.332.258.34.25.352.234.363.223.367.199.383.195.387.176.402.168.399.14.414.137.421.106.422.101.438.078.433.067.45.047.453.03.449.005.465v334.937l-.004.457-.031.457-.047.45-.067.441-.078.438-.101.437-.106.426-.137.414-.14.414-.168.41-.176.39-.195.387-.2.38-.222.37-.234.368-.25.347-.258.344-.27.328-.285.32-.3.31-.31.3-.32.285-.328.273-.344.254-.351.25-.363.239-.364.214-.386.207-.387.192-.395.18-.406.164-.414.14-.414.13-.43.116-.43.098-.44.078-.442.067-.453.05-.457.028-.457.007H19.91l-.457-.007-.457-.028-.45-.05-.448-.067-.438-.078-.433-.098-.422-.117-.422-.129-.414-.14-.403-.164-.398-.18-.387-.192-.379-.207-.37-.214-.364-.239-.352-.25-.343-.254-.328-.273-.32-.285-.31-.3-.3-.31-.285-.32-.27-.328-.258-.344-.25-.347-.238-.368-.219-.37-.207-.38-.187-.386-.18-.39-.164-.411-.14-.414-.137-.414-.114-.426-.093-.437-.086-.438-.059-.441-.05-.45-.028-.457-.008-.457V21.34l.008-.465.027-.45.051-.452.059-.45.086-.433.093-.438.114-.422.136-.421.141-.414.164-.399.18-.402.187-.387.207-.383.22-.367.237-.363.25-.352.258-.34.27-.332.285-.32.3-.309.31-.296.32-.29.328-.27.343-.265.352-.242.363-.234.371-.223.38-.207.386-.191.398-.172.403-.164.414-.145.422-.137.422-.113.433-.094.438-.085.449-.063.45-.043.456-.031.457-.004h334.938l.457.004ZM28.187 18.918l-.457.027-.453.043-.441.063-.445.086-.426.093-.43.114-.422.136-.406.145-.41.164-.39.172-.395.191-.38.207-.37.223-.356.234-.351.243-.344.265-.328.274-.32.285-.31.3-.3.305-.285.325-.27.328-.265.34-.242.351-.239.36-.218.37-.207.38-.188.39-.18.395-.164.406-.14.406-.137.422-.113.43-.094.43-.086.44-.059.446-.046.45-.032.456-.008.457v317.465l.008.461.032.457.046.45.059.44.086.438.094.434.113.43.137.414.14.414.164.41.18.39.188.387.207.38.218.37.239.363.242.352.265.344.27.328.285.32.3.309.31.3.32.286.328.27.344.257.351.25.356.238.37.215.38.207.394.192.39.18.411.163.406.141.422.129.43.117.426.098.445.078.441.066.453.051.457.027.458.008h317.464l.457-.008.457-.027.454-.05.441-.067.441-.078.43-.098.43-.117.414-.129.414-.14.406-.165.395-.18.386-.19.383-.208.367-.215.364-.238.351-.25.34-.258.332-.27.32-.284.309-.301.297-.309.289-.32.27-.328.257-.344.25-.352.235-.363.222-.37.2-.38.195-.387.176-.39.164-.41.144-.414.137-.414.105-.43.102-.434.078-.437.063-.442.05-.449.032-.457.004-.46V30.07l-.004-.457-.032-.457-.05-.449-.063-.445-.078-.442-.102-.43-.105-.43-.137-.42-.144-.407-.164-.406-.176-.395-.195-.39-.2-.38-.222-.37-.235-.36-.25-.352-.258-.34-.27-.328-.288-.324-.297-.304-.309-.301-.32-.285-.332-.274-.34-.265-.351-.243-.364-.234-.367-.223-.383-.207-.386-.191-.395-.172-.406-.164-.414-.145-.414-.136-.43-.114-.43-.093-.441-.086-.441-.063-.454-.043-.457-.027-.457-.008H28.645Zm0 0"/>
  <path d="M158.878 196.772c-15.774 0-27.79-4.383-36.047-13.157-8.25-8.77-12.375-21.222-12.375-37.359 0-8.02 1.257-15.18 3.78-21.484 2.52-6.301 5.97-11.617 10.345-15.953 4.382-4.344 9.609-7.633 15.672-9.875 6.07-2.239 12.656-3.36 19.75-3.36 4.101 0 7.832.309 11.187.922 3.363.606 6.3 1.305 8.813 2.094 2.52.793 4.617 1.61 6.296 2.453 1.688.836 2.899 1.484 3.641 1.953l-6.297 17.64c-2.98-1.581-6.453-2.929-10.422-4.046-3.968-1.125-8.468-1.688-13.5-1.688-3.367 0-6.656.563-9.875 1.688-3.218 1.117-6.062 2.906-8.531 5.375-2.469 2.469-4.453 5.668-5.953 9.594-1.492 3.918-2.234 8.671-2.234 14.265 0 4.48.488 8.656 1.468 12.531.977 3.868 2.563 7.2 4.75 10 2.196 2.805 5.067 5.024 8.61 6.657 3.55 1.625 7.843 2.437 12.875 2.437 3.175 0 6.023-.18 8.547-.547 2.52-.375 4.757-.816 6.718-1.328 1.957-.52 3.68-1.101 5.172-1.75a262.82 262.82 0 0 0 4.063-1.828l6.015 17.5c-3.086 1.867-7.422 3.543-13.015 5.031-5.594 1.489-12.078 2.235-19.453 2.235Zm73.192-16.516c2.05 0 4.007-.039 5.874-.125 1.875-.094 3.368-.234 4.485-.422v-15.812c-.836-.188-2.094-.375-3.782-.563a41.803 41.803 0 0 0-4.609-.281c-1.96 0-3.805.121-5.531.36-1.73.23-3.25.671-4.563 1.327-1.304.649-2.328 1.532-3.078 2.657-.742 1.117-1.11 2.511-1.11 4.187 0 3.274 1.095 5.54 3.282 6.797 2.195 1.25 5.207 1.875 9.031 1.875Zm-1.673-61.016c6.157 0 11.286.704 15.391 2.11 4.102 1.398 7.39 3.402 9.86 6.015 2.476 2.618 4.226 5.79 5.25 9.516 1.03 3.73 1.546 7.883 1.546 12.453v43.39c-2.992.65-7.148 1.415-12.468 2.298-5.313.894-11.747 1.343-19.297 1.343-4.762 0-9.078-.421-12.953-1.265-3.868-.844-7.2-2.219-10-4.125-2.805-1.914-4.954-4.41-6.454-7.485-1.492-3.082-2.234-6.863-2.234-11.343 0-4.29.863-7.926 2.594-10.907 1.726-2.988 4.035-5.367 6.922-7.14 2.894-1.781 6.207-3.067 9.937-3.86 3.738-.789 7.613-1.187 11.625-1.187 2.707 0 5.11.121 7.203.36 2.102.23 3.805.53 5.11.906v-1.97c0-3.538-1.075-6.382-3.219-8.53-2.148-2.145-5.875-3.22-11.188-3.22a72.36 72.36 0 0 0-10.515.766c-3.45.512-6.43 1.235-8.938 2.172l-2.672-16.797c1.22-.375 2.735-.77 4.547-1.187a82.258 82.258 0 0 1 5.953-1.11 121.02 121.02 0 0 1 6.782-.843 72.586 72.586 0 0 1 7.218-.36ZM128.204 266.186c-4.511 0-7.949-1.25-10.312-3.75-2.356-2.508-3.531-6.07-3.531-10.688 0-2.289.359-4.336 1.078-6.14.718-1.801 1.703-3.32 2.953-4.563 1.258-1.238 2.754-2.176 4.484-2.812 1.738-.645 3.617-.97 5.64-.97 1.177 0 2.243.09 3.204.267.957.167 1.797.367 2.516.593a13.11 13.11 0 0 1 2.843 1.266l-1.797 5.031c-.855-.445-1.851-.832-2.984-1.156-1.137-.32-2.422-.484-3.86-.484-.96 0-1.902.164-2.827.484a6.45 6.45 0 0 0-2.438 1.547c-.7.699-1.262 1.61-1.687 2.734-.43 1.117-.641 2.477-.641 4.078 0 1.282.133 2.477.406 3.578.281 1.106.735 2.059 1.36 2.86.632.804 1.457 1.437 2.468 1.906 1.008.469 2.239.703 3.688.703.906 0 1.719-.05 2.437-.156a18.68 18.68 0 0 0 1.907-.39 9.826 9.826 0 0 0 1.484-.5l1.172-.516 1.719 5c-.887.53-2.133 1.011-3.735 1.437-1.594.426-3.445.64-5.547.64Zm20.92-4.719c.582 0 1.14-.008 1.672-.031.531-.031.957-.07 1.281-.125v-4.531a12.89 12.89 0 0 0-1.078-.157c-.48-.05-.918-.078-1.312-.078-.563 0-1.094.04-1.594.11a4.001 4.001 0 0 0-1.297.375 2.307 2.307 0 0 0-.89.765c-.212.313-.313.711-.313 1.188 0 .937.312 1.59.937 1.953.633.355 1.5.531 2.594.531Zm-.484-17.437c1.758 0 3.222.199 4.39.593 1.176.399 2.118.969 2.828 1.719.707.75 1.207 1.664 1.5 2.734.29 1.063.438 2.246.438 3.547v12.407a73.67 73.67 0 0 1-3.563.656c-1.511.25-3.351.375-5.515.375-1.356 0-2.59-.121-3.703-.36-1.106-.238-2.059-.629-2.86-1.171a5.485 5.485 0 0 1-1.828-2.141c-.43-.883-.64-1.969-.64-3.25 0-1.219.242-2.254.734-3.11a5.718 5.718 0 0 1 1.969-2.046c.832-.508 1.781-.875 2.843-1.094a16.03 16.03 0 0 1 3.329-.344c.77 0 1.453.04 2.046.11a9.568 9.568 0 0 1 1.47.25v-.563c0-1.008-.31-1.82-.923-2.437-.617-.614-1.68-.922-3.187-.922a20.8 20.8 0 0 0-3.016.218c-.98.149-1.828.356-2.547.625l-.765-4.796a14.07 14.07 0 0 1 1.297-.344c.52-.125 1.086-.235 1.703-.328a32.544 32.544 0 0 1 1.937-.235 22.387 22.387 0 0 1 2.063-.093Zm22.963 22c-1.742-.032-3.152-.22-4.234-.563-1.074-.352-1.922-.844-2.547-1.469a4.836 4.836 0 0 1-1.281-2.265c-.23-.895-.344-1.907-.344-3.032v-23.156l5.969-.969v22.922c0 .543.035 1.028.11 1.453.081.418.237.778.468 1.079.226.292.55.53.969.718.425.188 1.004.309 1.734.36Zm3.234-10.922c0-1.52.242-2.953.734-4.297.5-1.352 1.211-2.531 2.14-3.531.938-1 2.071-1.79 3.407-2.375 1.332-.583 2.852-.875 4.563-.875 1.113 0 2.14.101 3.078.296.937.2 1.844.485 2.719.86l-1.235 4.75c-.562-.207-1.18-.39-1.844-.547a9.377 9.377 0 0 0-2.234-.25c-1.762 0-3.078.547-3.953 1.64-.867 1.094-1.297 2.54-1.297 4.329 0 1.886.406 3.351 1.219 4.39.812 1.043 2.234 1.563 4.265 1.563.72 0 1.489-.063 2.313-.188a9.187 9.187 0 0 0 2.281-.656l.844 4.89c-.688.294-1.555.54-2.594.75-1.043.22-2.187.329-3.437.329-1.93 0-3.586-.29-4.97-.86-1.386-.57-2.526-1.351-3.42-2.343-.888-.989-1.54-2.157-1.954-3.5-.418-1.344-.625-2.801-.625-4.375Zm26.969 10.515h-5.97v-21.047h5.97Zm.546-27.125c0 1.094-.355 1.961-1.062 2.594-.7.625-1.527.938-2.484.938-.97 0-1.81-.313-2.516-.938-.7-.633-1.047-1.5-1.047-2.594 0-1.093.348-1.953 1.047-2.578.707-.625 1.547-.937 2.516-.937.957 0 1.785.312 2.484.937.707.625 1.062 1.485 1.062 2.578Zm23.013 26.407c-1.023.292-2.336.562-3.937.812-1.594.258-3.274.39-5.031.39-1.782 0-3.266-.242-4.453-.718-1.188-.477-2.133-1.149-2.829-2.016-.687-.875-1.183-1.91-1.484-3.11-.293-1.194-.437-2.515-.437-3.952v-11.735h5.968v11c0 1.93.25 3.32.75 4.172.508.856 1.457 1.282 2.844 1.282.426 0 .879-.02 1.36-.063.476-.039.906-.086 1.28-.14v-16.25h5.97Zm17.154-10.438c0-1.926-.25-3.285-.75-4.078-.492-.8-1.336-1.203-2.531-1.203-.375 0-.766.023-1.172.062-.399.043-.777.09-1.14.14v16.235h-5.97v-20.312a37.888 37.888 0 0 1 3.938-.813c.758-.125 1.54-.218 2.344-.281.8-.07 1.586-.11 2.36-.11 1.519 0 2.753.196 3.702.579.946.386 1.727.844 2.344 1.375.852-.614 1.832-1.094 2.937-1.438 1.102-.343 2.125-.515 3.063-.515 1.676 0 3.05.234 4.125.703 1.082.46 1.941 1.117 2.578 1.969.645.855 1.086 1.87 1.328 3.046.239 1.168.36 2.477.36 3.922v11.875h-5.954v-11.156c0-1.926-.25-3.285-.75-4.078-.492-.8-1.335-1.203-2.53-1.203-.325 0-.774.086-1.345.25-.574.156-1.046.355-1.421.594.187.605.304 1.25.359 1.937.05.68.078 1.402.078 2.172v11.484h-5.953Zm-92.614 53.471a247.352 247.352 0 0 0-3.328 4.437 31.341 31.341 0 0 0-2.953 4.922h6.281Zm5.829-7.281v16.64h2.968v4.875h-2.968v6.203h-5.829v-6.203h-11.968v-4.36a74.056 74.056 0 0 1 2.203-3.968 69.398 69.398 0 0 1 2.937-4.562 80.118 80.118 0 0 1 3.422-4.579 48.177 48.177 0 0 1 3.594-4.046Zm25.485 13.796c0 4.668-.887 8.25-2.656 10.75-1.774 2.493-4.219 3.735-7.344 3.735-3.117 0-5.562-1.242-7.344-3.735-1.773-2.5-2.656-6.082-2.656-10.75 0-2.32.234-4.375.703-6.156.469-1.789 1.14-3.297 2.016-4.515.883-1.227 1.937-2.16 3.156-2.797 1.227-.645 2.602-.97 4.125-.97 3.125 0 5.57 1.25 7.344 3.75 1.77 2.493 2.656 6.056 2.656 10.688Zm-6.078 0c0-1.382-.07-2.644-.203-3.78-.137-1.134-.352-2.114-.64-2.938-.294-.82-.696-1.457-1.204-1.907-.5-.457-1.125-.687-1.875-.687s-1.371.23-1.86.687c-.492.45-.89 1.086-1.202 1.907-.305.824-.524 1.804-.657 2.937a31.88 31.88 0 0 0-.203 3.781c0 1.387.067 2.653.203 3.797.133 1.149.352 2.137.657 2.969.312.824.71 1.465 1.203 1.922.488.45 1.109.672 1.859.672s1.375-.223 1.875-.672c.508-.457.91-1.098 1.203-1.922.29-.832.504-1.82.64-2.969.134-1.144.204-2.41.204-3.797Zm16.079 10.766c0 1.2-.383 2.11-1.14 2.734-.762.625-1.622.938-2.579.938-.96 0-1.82-.313-2.578-.938-.761-.625-1.14-1.535-1.14-2.734 0-1.195.379-2.11 1.14-2.734.758-.633 1.617-.953 2.578-.953.957 0 1.817.32 2.578.953.758.625 1.141 1.539 1.141 2.734Zm22.559-10.766c0 4.668-.887 8.25-2.656 10.75-1.774 2.493-4.22 3.735-7.344 3.735-3.117 0-5.563-1.242-7.344-3.735-1.773-2.5-2.656-6.082-2.656-10.75 0-2.32.234-4.375.703-6.156.469-1.789 1.14-3.297 2.016-4.515.882-1.227 1.937-2.16 3.156-2.797 1.226-.645 2.601-.97 4.125-.97 3.125 0 5.57 1.25 7.344 3.75 1.77 2.493 2.656 6.056 2.656 10.688Zm-6.078 0c0-1.382-.07-2.644-.203-3.78-.137-1.134-.352-2.114-.641-2.938-.293-.82-.695-1.457-1.203-1.907-.5-.457-1.125-.687-1.875-.687s-1.371.23-1.86.687c-.492.45-.89 1.086-1.203 1.907-.304.824-.523 1.804-.656 2.937a31.88 31.88 0 0 0-.203 3.781c0 1.387.066 2.653.203 3.797.133 1.149.352 2.137.656 2.969.313.824.711 1.465 1.203 1.922.489.45 1.11.672 1.86.672s1.375-.223 1.875-.672c.508-.457.91-1.098 1.203-1.922.289-.832.504-1.82.64-2.969.133-1.144.204-2.41.204-3.797Zm13.126 13.922c.156-1.945.484-3.972.984-6.078a59.072 59.072 0 0 1 1.86-6.187 53.583 53.583 0 0 1 2.468-5.75c.906-1.801 1.828-3.36 2.766-4.672h-12.047v-5.078h19.406v4.328c-.855.93-1.797 2.219-2.828 3.875-1.023 1.656-1.996 3.531-2.922 5.625a53.19 53.19 0 0 0-2.406 6.75 34.54 34.54 0 0 0-1.25 7.187ZM57.344 55.813a7.27 7.27 0 0 1-.61 2.922c-.398.93-.918 1.828-1.562 2.703-.637.867-1.356 1.7-2.156 2.5a122.18 122.18 0 0 1-2.36 2.266c-.398.375-.828.797-1.297 1.265a34.866 34.866 0 0 0-2.484 2.766c-.336.406-.54.746-.61 1.016h11.923v5H39.703a6.209 6.209 0 0 1-.078-1.11v-.969c0-1.28.203-2.453.61-3.515.413-1.07.956-2.067 1.624-2.985a19.415 19.415 0 0 1 2.25-2.578c.844-.8 1.68-1.601 2.516-2.406.633-.613 1.234-1.191 1.797-1.734a20.189 20.189 0 0 0 1.484-1.61 7.557 7.557 0 0 0 1-1.547c.239-.519.36-1.05.36-1.593 0-1.164-.336-1.989-1-2.469-.668-.477-1.496-.719-2.485-.719-.718 0-1.398.117-2.031.344-.625.219-1.2.484-1.719.797-.511.305-.953.61-1.328.922a11.86 11.86 0 0 0-.844.734l-2.953-4.156c1.164-1.094 2.532-1.992 4.094-2.703a12.025 12.025 0 0 1 5.016-1.063c1.625 0 3.023.188 4.203.563 1.176.375 2.144.902 2.906 1.578a6.077 6.077 0 0 1 1.672 2.484c.363.969.547 2.07.547 3.297Zm24.233 6.516c0 4.668-.887 8.25-2.656 10.75-1.774 2.492-4.219 3.734-7.344 3.734-3.117 0-5.562-1.242-7.344-3.734-1.773-2.5-2.656-6.082-2.656-10.75 0-2.32.234-4.375.703-6.157.469-1.789 1.14-3.296 2.016-4.515.883-1.227 1.937-2.16 3.156-2.797 1.227-.645 2.602-.969 4.125-.969 3.125 0 5.57 1.25 7.344 3.75 1.77 2.492 2.656 6.055 2.656 10.688Zm-6.078 0c0-1.383-.07-2.645-.203-3.782-.137-1.132-.352-2.113-.64-2.937-.294-.82-.696-1.457-1.204-1.906-.5-.457-1.125-.688-1.875-.688s-1.371.23-1.86.688c-.491.449-.89 1.086-1.202 1.906-.305.824-.524 1.805-.657 2.937a31.88 31.88 0 0 0-.203 3.782c0 1.386.067 2.652.203 3.797.133 1.148.352 2.136.657 2.968.312.825.71 1.465 1.203 1.922.488.45 1.11.672 1.86.672s1.374-.223 1.874-.672c.508-.457.91-1.097 1.203-1.922.29-.832.504-1.82.64-2.968a32.79 32.79 0 0 0 .204-3.797Zm0 0"/>
</svg>
