<svg xmlns="http://www.w3.org/2000/svg" version="1.2" viewBox="0 0 375 375">
  <path d="m355.762 10.207.453.043.441.063.442.085.43.094.429.113.414.137.414.14.406.165.395.172.387.195.386.207.364.223.363.234.351.242.344.266.328.27.32.285.31.3.3.309.285.32.27.328.258.344.25.352.234.363.223.363.199.387.195.387.176.398.168.403.14.414.137.421.106.422.101.434.078.437.067.45.047.449.03.453.005.465v334.933l-.004.461-.031.457-.047.45-.067.441-.078.438-.101.433-.106.43-.137.414-.14.414-.168.41-.176.39-.195.387-.2.38-.222.37-.234.364-.25.351-.258.344-.27.328-.285.32-.3.31-.31.3-.32.285-.328.27-.344.257-.351.25-.363.239-.364.214-.386.207-.387.192-.395.18-.406.164-.414.14-.414.13-.43.116-.43.098-.44.078-.442.067-.453.05-.457.028-.457.007H19.91l-.457-.007-.457-.028-.45-.05-.448-.067-.438-.078-.433-.098-.422-.117-.422-.129-.414-.14-.403-.164-.398-.18-.387-.192-.379-.207-.37-.214-.364-.239-.352-.25-.343-.257-.328-.27-.32-.285-.31-.3-.3-.31-.285-.32-.27-.328-.258-.344-.25-.351-.238-.364-.219-.37-.207-.38-.187-.386-.18-.39-.164-.411-.14-.414-.137-.414-.114-.43-.093-.433-.086-.438-.059-.441-.05-.45-.028-.457-.008-.46V21.34l.008-.465.027-.453.051-.45.059-.449.086-.437.093-.434.114-.422.136-.421.141-.414.164-.403.18-.398.187-.387.207-.387.22-.363.237-.363.25-.352.258-.344.27-.328.285-.32.3-.309.31-.3.32-.286.328-.27.343-.265.352-.242.363-.234.371-.223.38-.207.386-.195.398-.172.403-.164.414-.14.422-.138.422-.113.433-.094.438-.085.449-.063.45-.043.456-.031.457-.004h334.938l.457.004ZM28.187 18.914l-.457.031-.453.043-.441.063-.445.086-.426.093-.43.114-.422.136-.406.145-.41.164-.39.172-.395.191-.38.207-.37.223-.356.234-.351.243-.344.265-.328.27-.32.289-.31.297-.3.308-.285.32-.27.333-.265.34-.242.351-.239.355-.218.375-.207.375-.188.395-.18.395-.164.406-.14.406-.137.422-.113.43-.094.43-.086.44-.059.442-.046.453-.032.457-.008.457v317.465l.008.457.032.457.046.453.059.442.086.437.094.434.113.43.137.414.14.414.164.406.18.394.188.387.207.38.218.37.239.363.242.352.265.344.27.328.285.32.3.309.31.3.32.286.328.27.344.257.351.25.356.238.37.211.38.207.394.196.39.18.411.163.406.141.422.129.43.113.426.102.445.078.441.066.453.047.457.031.458.008h317.464l.457-.008.457-.03.454-.048.441-.066.441-.078.43-.102.43-.113.414-.129.414-.14.406-.165.395-.18.386-.195.383-.207.367-.21.364-.239.351-.25.34-.258.332-.27.32-.284.309-.301.297-.309.289-.32.27-.328.257-.344.25-.352.235-.363.222-.37.2-.38.195-.387.176-.394.164-.406.144-.414.137-.414.105-.43.102-.434.078-.437.063-.442.05-.453.032-.457.004-.457V30.07l-.004-.457-.032-.457-.05-.453-.063-.441-.078-.442-.102-.43-.105-.43-.137-.42-.144-.407-.164-.406-.176-.395-.195-.395-.2-.375-.222-.375-.235-.355-.25-.352-.258-.34-.27-.331-.288-.32-.297-.31-.309-.296-.32-.29-.332-.269-.34-.265-.351-.243-.364-.234-.367-.223-.383-.207-.386-.191-.395-.172-.406-.164-.414-.145-.414-.136-.43-.114-.43-.093-.441-.086-.441-.063-.454-.043-.457-.03-.457-.005H28.645Zm0 0"/>
  <path d="M207.434 97.834v18.609h-29.25v78.375h-21.828v-78.375h-29.25v-18.61Zm33.465 96.984h-20.86v-73.61h20.86Zm1.953-94.89c0 3.824-1.242 6.835-3.719 9.03-2.469 2.188-5.383 3.282-8.734 3.282-3.367 0-6.282-1.094-8.75-3.281-2.469-2.196-3.703-5.207-3.703-9.032 0-3.82 1.234-6.828 3.703-9.015 2.468-2.196 5.383-3.297 8.75-3.297 3.351 0 6.265 1.101 8.734 3.297 2.477 2.187 3.719 5.195 3.719 9.015ZM126.687 237.904v5.312h-8.36v22.406h-6.25v-22.406h-8.359v-5.312Zm9.56 27.718h-5.97v-21.047h5.97Zm.546-27.125c0 1.094-.355 1.961-1.062 2.594-.7.625-1.527.938-2.484.938-.97 0-1.81-.313-2.516-.938-.7-.633-1.047-1.5-1.047-2.594 0-1.093.348-1.953 1.047-2.578.707-.625 1.547-.937 2.516-.937.957 0 1.785.312 2.484.937.707.625 1.062 1.485 1.062 2.578Zm4.842.844 5.968-.953v6.187h7.157v4.97h-7.157v7.39c0 1.261.22 2.265.657 3.015.437.743 1.32 1.11 2.656 1.11a11.106 11.106 0 0 0 3.844-.672l.843 4.64a16.18 16.18 0 0 1-2.406.75c-.875.22-1.953.329-3.234.329-1.625 0-2.977-.22-4.047-.657-1.063-.445-1.918-1.062-2.563-1.843-.636-.79-1.086-1.743-1.343-2.86-.25-1.125-.375-2.363-.375-3.718Zm26.009 22.125c.582 0 1.141-.008 1.672-.031.532-.031.957-.07 1.282-.125v-4.531a12.994 12.994 0 0 0-1.079-.157c-.48-.05-.918-.078-1.312-.078-.563 0-1.094.04-1.594.11a4.001 4.001 0 0 0-1.297.375 2.307 2.307 0 0 0-.89.765c-.211.313-.313.711-.313 1.188 0 .937.313 1.59.938 1.953.632.355 1.5.531 2.593.531Zm-.484-17.437c1.758 0 3.223.199 4.39.593 1.176.399 2.118.969 2.829 1.719.707.75 1.207 1.664 1.5 2.734.289 1.063.437 2.246.437 3.547v12.407c-.855.187-2.043.406-3.562.656-1.512.25-3.352.375-5.516.375-1.355 0-2.59-.121-3.703-.36-1.105-.238-2.059-.629-2.86-1.171a5.485 5.485 0 0 1-1.827-2.141c-.43-.883-.641-1.969-.641-3.25 0-1.219.242-2.254.734-3.11a5.718 5.718 0 0 1 1.969-2.046c.832-.508 1.781-.875 2.844-1.094a16.03 16.03 0 0 1 3.328-.344c.77 0 1.453.04 2.047.11a9.568 9.568 0 0 1 1.469.25v-.563c0-1.008-.31-1.82-.922-2.437-.618-.614-1.68-.922-3.188-.922a20.8 20.8 0 0 0-3.015.218c-.98.149-1.829.356-2.547.625l-.766-4.796a14.07 14.07 0 0 1 1.297-.344c.52-.125 1.086-.235 1.703-.328a32.544 32.544 0 0 1 1.938-.235 22.387 22.387 0 0 1 2.062-.093Zm14.557 1.281c1.008-.301 2.317-.578 3.922-.828a32.722 32.722 0 0 1 5.047-.375c1.781 0 3.266.234 4.453.703 1.188.46 2.125 1.117 2.813 1.969.695.855 1.191 1.87 1.484 3.046.29 1.168.438 2.477.438 3.922v11.875h-5.954v-11.156c0-1.926-.257-3.285-.765-4.078-.5-.8-1.445-1.203-2.828-1.203-.43 0-.887.023-1.375.062-.48.043-.903.09-1.266.14v16.235h-5.969Zm29.529 20.312h-5.969v-21.047h5.969Zm.547-27.125c0 1.094-.356 1.961-1.063 2.594-.699.625-1.527.938-2.484.938-.969 0-1.809-.313-2.516-.938-.699-.633-1.047-1.5-1.047-2.594 0-1.093.348-1.953 1.047-2.578.707-.625 1.547-.937 2.516-.937.957 0 1.785.312 2.484.937.707.625 1.063 1.485 1.063 2.578Zm23.013 26.407c-1.024.292-2.336.562-3.938.812a31.47 31.47 0 0 1-5.03.39c-1.782 0-3.267-.242-4.454-.718-1.188-.477-2.133-1.149-2.828-2.016-.688-.875-1.184-1.91-1.485-3.11-.293-1.194-.437-2.515-.437-3.952v-11.735h5.969v11c0 1.93.25 3.32.75 4.172.508.856 1.457 1.282 2.843 1.282.426 0 .88-.02 1.36-.063.476-.039.906-.086 1.281-.14v-16.25h5.969Zm17.154-10.438c0-1.926-.25-3.285-.75-4.078-.493-.8-1.337-1.203-2.532-1.203-.375 0-.765.023-1.172.062-.398.043-.777.09-1.14.14v16.235h-5.97V245.31a37.888 37.888 0 0 1 3.938-.813c.758-.125 1.54-.218 2.344-.281.8-.07 1.586-.11 2.36-.11 1.52 0 2.753.196 3.703.579.945.386 1.726.844 2.343 1.375.852-.614 1.832-1.094 2.938-1.438 1.101-.343 2.125-.515 3.062-.515 1.676 0 3.051.234 4.125.703 1.082.46 1.942 1.117 2.579 1.969.644.855 1.085 1.87 1.328 3.046.238 1.168.359 2.477.359 3.922v11.875h-5.953v-11.156c0-1.926-.25-3.285-.75-4.078-.492-.8-1.336-1.203-2.531-1.203-.325 0-.774.086-1.344.25-.574.156-1.047.355-1.422.594a8.9 8.9 0 0 1 .36 1.937c.05.68.078 1.402.078 2.172v11.484h-5.954Zm-102.055 53.471a247.352 247.352 0 0 0-3.328 4.438 31.341 31.341 0 0 0-2.953 4.922h6.281Zm5.829-7.28v16.64h2.968v4.875h-2.968v6.203h-5.829v-6.203h-11.968v-4.36a74.056 74.056 0 0 1 2.203-3.968 69.398 69.398 0 0 1 2.937-4.563 80.118 80.118 0 0 1 3.422-4.578 48.177 48.177 0 0 1 3.594-4.047Zm9.813 27.718c.156-1.945.485-3.973.985-6.078a59.072 59.072 0 0 1 1.859-6.188 53.583 53.583 0 0 1 2.469-5.75c.906-1.8 1.828-3.359 2.765-4.672h-12.047v-5.078h19.407v4.328c-.856.93-1.797 2.22-2.828 3.875-1.024 1.657-1.997 3.532-2.922 5.625a53.19 53.19 0 0 0-2.407 6.75 34.54 34.54 0 0 0-1.25 7.188Zm25.673-3.156c0 1.199-.383 2.11-1.14 2.734-.762.625-1.622.938-2.579.938-.96 0-1.82-.313-2.578-.938-.761-.625-1.14-1.535-1.14-2.734 0-1.196.379-2.11 1.14-2.735.758-.632 1.617-.953 2.578-.953.957 0 1.817.32 2.578.953.758.625 1.141 1.54 1.141 2.735Zm22.403-4.563c0 1.2-.211 2.297-.625 3.297a7.383 7.383 0 0 1-1.86 2.625c-.824.742-1.855 1.32-3.094 1.734-1.242.415-2.68.625-4.312.625-1.867 0-3.418-.261-4.656-.78-1.243-.52-2.243-1.165-3-1.938-.762-.77-1.305-1.614-1.625-2.532-.313-.925-.47-1.773-.47-2.546 0-.801.102-1.536.313-2.204a7.28 7.28 0 0 1 .875-1.812c.375-.55.797-1.05 1.266-1.5.469-.457.969-.89 1.5-1.297-1.148-.926-1.996-1.844-2.547-2.75-.543-.906-.812-2.066-.812-3.484 0-1.063.218-2.086.656-3.078a7.863 7.863 0 0 1 1.86-2.579c.8-.738 1.769-1.328 2.906-1.765 1.132-.438 2.394-.656 3.78-.656 1.626 0 3.016.234 4.173.703 1.164.468 2.117 1.062 2.859 1.781.75.719 1.29 1.527 1.625 2.422.332.887.5 1.773.5 2.656 0 1.281-.34 2.477-1.016 3.578-.68 1.106-1.527 1.98-2.546 2.625 1.52.98 2.609 2.012 3.265 3.094.656 1.086.985 2.344.985 3.781Zm-13.844.235c0 .324.07.68.219 1.062.144.387.378.742.703 1.063.32.324.734.593 1.234.812.508.211 1.125.313 1.844.313 1.383 0 2.394-.332 3.031-1 .645-.664.969-1.414.969-2.25 0-.614-.14-1.16-.422-1.641a4.266 4.266 0 0 0-1.14-1.25 8.103 8.103 0 0 0-1.704-.969 23.084 23.084 0 0 0-2.094-.781 8.21 8.21 0 0 0-1.89 1.969c-.5.742-.75 1.633-.75 2.672Zm7.406-13.157a2.7 2.7 0 0 0-.187-.937 2.6 2.6 0 0 0-.594-.938 3.586 3.586 0 0 0-1.063-.734c-.43-.207-.949-.313-1.562-.313-.586 0-1.09.094-1.516.282-.43.187-.781.437-1.062.75a3.06 3.06 0 0 0-.625.968c-.137.344-.203.68-.203 1 0 .856.312 1.657.937 2.407.633.742 1.711 1.383 3.234 1.922.852-.54 1.504-1.157 1.954-1.844.457-.695.687-1.55.687-2.563Zm13.642 20.641c.156-1.945.484-3.973.984-6.078a59.072 59.072 0 0 1 1.86-6.188 53.583 53.583 0 0 1 2.468-5.75c.906-1.8 1.828-3.359 2.766-4.672h-12.047v-5.078h19.406v4.328c-.855.93-1.797 2.22-2.828 3.875-1.023 1.657-1.996 3.532-2.922 5.625a53.19 53.19 0 0 0-2.406 6.75 34.54 34.54 0 0 0-1.25 7.188ZM57.344 55.813a7.27 7.27 0 0 1-.61 2.921c-.398.93-.918 1.829-1.562 2.704a21.84 21.84 0 0 1-2.156 2.5 122.18 122.18 0 0 1-2.36 2.265c-.398.375-.828.797-1.297 1.266a34.866 34.866 0 0 0-2.484 2.765c-.336.407-.54.746-.61 1.016h11.923v5H39.703a6.209 6.209 0 0 1-.078-1.11v-.968c0-1.281.203-2.453.61-3.516.413-1.07.956-2.066 1.624-2.984a19.415 19.415 0 0 1 2.25-2.578c.844-.801 1.68-1.602 2.516-2.406.633-.614 1.234-1.192 1.797-1.735a20.189 20.189 0 0 0 1.484-1.61 7.557 7.557 0 0 0 1-1.546c.239-.52.36-1.05.36-1.594 0-1.164-.336-1.988-1-2.469-.668-.476-1.496-.718-2.485-.718a6.01 6.01 0 0 0-2.031.343c-.625.22-1.2.485-1.719.797-.511.305-.953.61-1.328.922-.375.305-.656.547-.844.735l-2.953-4.157c1.164-1.093 2.532-1.992 4.094-2.703a12.025 12.025 0 0 1 5.016-1.062c1.625 0 3.023.187 4.203.562 1.176.375 2.144.902 2.906 1.578a6.077 6.077 0 0 1 1.672 2.485c.363.968.547 2.07.547 3.297Zm22.717 0a7.27 7.27 0 0 1-.609 2.921c-.398.93-.918 1.829-1.562 2.704a21.752 21.752 0 0 1-2.157 2.5 122.18 122.18 0 0 1-2.359 2.265c-.398.375-.828.797-1.297 1.266a34.866 34.866 0 0 0-2.484 2.765c-.336.407-.54.746-.61 1.016h11.922v5H62.421a6.209 6.209 0 0 1-.078-1.11v-.968c0-1.281.203-2.453.61-3.516.413-1.07.956-2.066 1.624-2.984a19.415 19.415 0 0 1 2.25-2.578c.844-.801 1.68-1.602 2.516-2.406.633-.614 1.234-1.192 1.797-1.735a20.189 20.189 0 0 0 1.484-1.61 7.557 7.557 0 0 0 1-1.546c.238-.52.36-1.05.36-1.594 0-1.164-.337-1.988-1-2.469-.669-.476-1.497-.718-2.485-.718-.719 0-1.398.117-2.031.343-.625.22-1.2.485-1.719.797-.512.305-.953.61-1.328.922-.375.305-.656.547-.844.735l-2.953-4.157c1.164-1.093 2.531-1.992 4.094-2.703a12.025 12.025 0 0 1 5.015-1.062c1.625 0 3.024.187 4.203.562 1.176.375 2.145.902 2.907 1.578a6.077 6.077 0 0 1 1.672 2.485c.363.968.546 2.07.546 3.297Zm0 0"/>
</svg>
