<svg xmlns="http://www.w3.org/2000/svg" version="1.2" viewBox="0 0 375 375">
  <path d="m355.762 10.207.453.043.441.063.442.085.43.094.429.113.414.137.414.14.406.165.395.172.387.195.386.207.364.223.363.234.351.242.344.266.328.27.32.285.31.3.3.309.285.32.27.328.258.344.25.352.234.363.223.363.199.387.195.387.176.398.168.403.14.414.137.421.106.422.101.434.078.437.067.45.047.449.03.453.005.465v334.933l-.004.457-.031.461-.047.45-.067.441-.078.438-.101.433-.106.43-.137.414-.14.414-.168.41-.176.39-.195.387-.2.38-.222.37-.234.364-.25.351-.258.344-.27.328-.285.32-.3.31-.31.3-.32.285-.328.27-.344.257-.351.25-.363.239-.364.21-.386.212-.387.19-.395.18-.406.165-.414.14-.414.13-.43.112-.43.102-.44.078-.442.067-.453.046-.457.032-.457.007H19.91l-.457-.007-.457-.032-.45-.046-.448-.067-.438-.078-.433-.102-.422-.113-.422-.129-.414-.14-.403-.164-.398-.18-.387-.192-.379-.21-.37-.211-.364-.239-.352-.25-.343-.257-.328-.27-.32-.285-.31-.3-.3-.31-.285-.32-.27-.328-.258-.344-.25-.351-.238-.364-.219-.37-.207-.38-.187-.386-.18-.39-.164-.411-.14-.414-.137-.414-.114-.43-.093-.433-.086-.438-.059-.441-.05-.45-.028-.46-.008-.458V21.34l.008-.465.027-.453.051-.45.059-.449.086-.437.093-.434.114-.422.136-.421.141-.414.164-.403.18-.398.187-.387.207-.387.22-.363.237-.363.25-.352.258-.344.27-.328.285-.32.3-.309.31-.3.32-.286.328-.27.343-.265.352-.242.363-.234.371-.223.38-.207.386-.195.398-.172.403-.164.414-.14.422-.138.422-.113.433-.094.438-.085.449-.063.45-.043.456-.031.457-.008h334.938l.457.008ZM28.187 18.914l-.457.031-.453.043-.441.063-.445.086-.426.093-.43.114-.422.136-.406.145-.41.164-.39.168-.395.195-.38.207-.37.223-.356.234-.351.243-.344.265-.328.27-.32.289-.31.297-.3.308-.285.32-.27.329-.265.343-.242.352-.239.355-.218.372-.207.378-.188.395-.18.395-.164.406-.14.406-.137.422-.113.43-.094.43-.086.44-.059.442-.046.453-.032.457-.008.457v317.465l.008.457.032.457.046.453.059.442.086.437.094.434.113.43.137.414.14.414.164.406.18.394.188.387.207.38.218.37.239.363.242.352.265.344.27.328.285.32.3.309.31.3.32.286.328.27.344.257.351.25.356.234.37.215.38.207.394.196.39.18.411.163.406.141.422.129.43.113.426.102.445.078.441.066.453.047.457.031.458.008h317.464l.457-.008.457-.03.454-.048.441-.066.441-.078.43-.102.43-.113.414-.129.414-.14.406-.165.395-.18.386-.195.383-.207.367-.215.364-.234.351-.25.34-.258.332-.27.32-.284.309-.301.297-.309.289-.32.27-.328.257-.344.25-.352.235-.363.222-.37.2-.38.195-.387.176-.394.164-.406.144-.414.137-.414.105-.43.102-.434.078-.437.063-.442.05-.453.032-.457.004-.457V30.07l-.004-.457-.032-.457-.05-.453-.063-.441-.078-.442-.102-.43-.105-.43-.137-.42-.144-.407-.164-.406-.176-.395-.195-.395-.2-.378-.222-.372-.235-.355-.25-.352-.258-.343-.27-.328-.288-.32-.297-.31-.309-.296-.32-.29-.332-.269-.34-.265-.351-.243-.364-.234-.367-.223-.383-.207-.386-.195-.395-.168-.406-.164-.414-.145-.414-.136-.43-.114-.43-.093-.441-.086-.441-.063-.454-.043-.457-.03-.457-.005H28.645Zm0 0"/>
  <path d="M156.358 196.77c-15.773 0-27.79-4.382-36.047-13.155-8.25-8.77-12.375-21.223-12.375-37.36 0-8.02 1.258-15.18 3.781-21.484 2.52-6.301 5.97-11.617 10.344-15.953 4.383-4.344 9.61-7.633 15.672-9.875 6.07-2.239 12.656-3.36 19.75-3.36 4.102 0 7.832.309 11.188.922 3.363.606 6.3 1.305 8.812 2.094 2.52.793 4.617 1.61 6.297 2.453 1.687.836 2.898 1.484 3.64 1.953l-6.296 17.64c-2.98-1.581-6.453-2.929-10.422-4.046-3.969-1.125-8.469-1.688-13.5-1.688-3.367 0-6.656.563-9.875 1.688-3.219 1.117-6.063 2.906-8.531 5.375-2.47 2.469-4.454 5.668-5.954 9.594-1.492 3.918-2.234 8.672-2.234 14.265 0 4.48.488 8.657 1.469 12.532.976 3.867 2.562 7.199 4.75 10 2.195 2.804 5.066 5.023 8.61 6.656 3.55 1.625 7.843 2.437 12.874 2.437 3.176 0 6.024-.18 8.547-.547 2.52-.375 4.758-.816 6.719-1.328 1.957-.52 3.68-1.101 5.172-1.75a262.82 262.82 0 0 0 4.062-1.828l6.016 17.5c-3.086 1.867-7.422 3.543-13.016 5.031-5.594 1.489-12.078 2.235-19.453 2.235Zm107.911-4.468c-3.555 1.023-8.133 1.977-13.735 2.86-5.594.882-11.469 1.328-17.625 1.328-6.25 0-11.453-.84-15.61-2.516-4.148-1.676-7.433-4.031-9.859-7.063-2.43-3.03-4.156-6.644-5.187-10.843-1.024-4.196-1.531-8.817-1.531-13.86v-41h20.86v38.485c0 6.718.882 11.574 2.655 14.562 1.77 2.98 5.082 4.469 9.938 4.469 1.488 0 3.07-.067 4.75-.203a79.43 79.43 0 0 0 4.484-.5v-56.813h20.86Zm-130.305 73.883c-4.512 0-7.95-1.25-10.312-3.75-2.356-2.508-3.532-6.07-3.532-10.688 0-2.289.36-4.336 1.078-6.14.72-1.801 1.704-3.32 2.954-4.563 1.257-1.238 2.753-2.176 4.484-2.812 1.738-.645 3.617-.969 5.64-.969 1.176 0 2.243.09 3.204.266.957.168 1.797.367 2.515.593a13.11 13.11 0 0 1 2.844 1.266l-1.797 5.031c-.855-.445-1.851-.832-2.984-1.156-1.137-.32-2.422-.484-3.86-.484-.96 0-1.902.164-2.828.484a6.45 6.45 0 0 0-2.437 1.547c-.7.699-1.262 1.61-1.688 2.734-.43 1.117-.64 2.477-.64 4.078 0 1.282.132 2.477.406 3.578.281 1.106.734 2.059 1.36 2.86.632.805 1.456 1.437 2.468 1.906 1.008.469 2.238.703 3.688.703.906 0 1.718-.05 2.437-.156a18.68 18.68 0 0 0 1.906-.39 9.826 9.826 0 0 0 1.485-.5l1.172-.516 1.718 5c-.886.531-2.133 1.011-3.734 1.437-1.594.426-3.445.64-5.547.64Zm32.56-11.125c0 1.656-.242 3.172-.718 4.547-.48 1.375-1.18 2.547-2.094 3.515a9.505 9.505 0 0 1-3.266 2.266c-1.261.531-2.68.797-4.25.797-1.543 0-2.949-.266-4.218-.797a9.656 9.656 0 0 1-3.266-2.266c-.906-.968-1.617-2.14-2.125-3.515-.5-1.375-.75-2.89-.75-4.547 0-1.656.258-3.16.781-4.516.52-1.363 1.239-2.523 2.156-3.484a9.81 9.81 0 0 1 3.282-2.235c1.27-.53 2.648-.796 4.14-.796 1.52 0 2.91.265 4.172.796a9.48 9.48 0 0 1 3.266 2.235c.906.96 1.613 2.12 2.125 3.484.508 1.356.765 2.86.765 4.516Zm-6.078 0c0-1.832-.37-3.274-1.109-4.328-.73-1.063-1.777-1.594-3.14-1.594-1.356 0-2.407.531-3.157 1.594-.75 1.054-1.125 2.496-1.125 4.328 0 1.844.375 3.308 1.125 4.39.75 1.075 1.8 1.61 3.156 1.61 1.364 0 2.41-.535 3.141-1.61.738-1.082 1.11-2.546 1.11-4.39Zm24.155.203c0-1.844-.418-3.316-1.25-4.422-.824-1.101-2.047-1.656-3.672-1.656-.531 0-1.027.023-1.484.062-.45.043-.82.09-1.11.141v10.75c.364.242.848.445 1.454.61.601.156 1.21.234 1.828.234 2.82 0 4.234-1.907 4.234-5.719Zm6.078-.156c0 1.625-.203 3.105-.61 4.437-.398 1.336-.98 2.48-1.75 3.438a8.025 8.025 0 0 1-2.874 2.25c-1.149.531-2.469.797-3.969.797-.824 0-1.594-.086-2.312-.25a10.85 10.85 0 0 1-2.078-.672v7.922h-5.97v-27.72a21.55 21.55 0 0 1 1.845-.468c.695-.144 1.421-.27 2.171-.375a43.614 43.614 0 0 1 2.313-.25 25.9 25.9 0 0 1 2.281-.11c1.727 0 3.27.262 4.625.782 1.363.523 2.508 1.258 3.438 2.203.937.938 1.648 2.09 2.14 3.453.5 1.356.75 2.875.75 4.563Zm18.082.156c0-1.844-.418-3.316-1.25-4.422-.824-1.101-2.047-1.656-3.672-1.656-.531 0-1.027.023-1.484.062-.45.043-.82.09-1.11.141v10.75c.364.242.848.445 1.453.61a7.259 7.259 0 0 0 1.829.234c2.82 0 4.234-1.907 4.234-5.719Zm6.078-.156c0 1.625-.203 3.105-.61 4.437-.398 1.336-.98 2.48-1.75 3.438a8.025 8.025 0 0 1-2.874 2.25c-1.149.531-2.469.797-3.969.797-.824 0-1.594-.086-2.313-.25a10.85 10.85 0 0 1-2.078-.672v7.922h-5.968v-27.72c.53-.163 1.144-.32 1.843-.468.696-.144 1.422-.27 2.172-.375a43.614 43.614 0 0 1 2.313-.25 25.9 25.9 0 0 1 2.281-.11c1.727 0 3.27.262 4.625.782 1.363.523 2.508 1.258 3.437 2.203.938.938 1.649 2.09 2.141 3.453.5 1.356.75 2.875.75 4.563Zm3.597.156c0-1.863.286-3.492.86-4.89.57-1.407 1.32-2.571 2.25-3.5a9.42 9.42 0 0 1 3.219-2.126 10.218 10.218 0 0 1 3.75-.718c2.988 0 5.347.914 7.078 2.734 1.738 1.824 2.609 4.512 2.609 8.062 0 .344-.016.727-.047 1.141-.023.406-.047.774-.078 1.094h-13.516c.133 1.23.707 2.203 1.72 2.922 1.007.718 2.366 1.078 4.077 1.078 1.094 0 2.164-.098 3.219-.297 1.05-.195 1.91-.441 2.578-.734l.797 4.828c-.312.168-.742.328-1.281.484-.531.156-1.125.29-1.781.406-.649.125-1.344.227-2.094.313a20.29 20.29 0 0 1-2.235.125c-1.898 0-3.546-.281-4.953-.844-1.398-.562-2.554-1.328-3.468-2.297a9.279 9.279 0 0 1-2.047-3.469c-.438-1.332-.657-2.77-.657-4.312Zm14-2.281a5.617 5.617 0 0 0-.265-1.485 3.573 3.573 0 0 0-1.828-2.188c-.47-.25-1.055-.374-1.75-.374-.668 0-1.243.117-1.72.344-.48.23-.882.53-1.202.906a4.268 4.268 0 0 0-.735 1.297 9.159 9.159 0 0 0-.375 1.5Zm23.048-3.125a68.408 68.408 0 0 0-1.89-.407 10.891 10.891 0 0 0-2.313-.234c-.375 0-.825.04-1.344.11-.524.062-.914.136-1.172.218v16.078h-5.969V245.7c1.07-.375 2.332-.726 3.781-1.062 1.457-.332 3.079-.5 4.86-.5.32 0 .707.023 1.156.062.457.043.91.102 1.36.172.456.063.91.141 1.359.235a7.41 7.41 0 0 1 1.172.328Zm-107.391 65.471c-.586 0-1.211.058-1.875.172-.668.105-1.188.25-1.563.437 0 .106-.007.266-.015.484a9.557 9.557 0 0 0-.016.547c0 .97.063 1.883.188 2.735.133.843.363 1.59.687 2.234.32.637.75 1.137 1.281 1.5.532.356 1.196.531 2 .531.665 0 1.235-.132 1.704-.406a3.772 3.772 0 0 0 1.156-1.062c.3-.426.523-.899.672-1.422.156-.52.234-1.02.234-1.5 0-1.364-.344-2.41-1.031-3.14-.68-.74-1.82-1.11-3.422-1.11Zm.766-4.64c1.726 0 3.195.233 4.406.702 1.219.469 2.21 1.106 2.984 1.906a7.1 7.1 0 0 1 1.688 2.797c.343 1.063.515 2.2.515 3.407 0 1.062-.195 2.156-.578 3.28a9.123 9.123 0 0 1-1.765 3.032c-.782.906-1.782 1.656-3 2.25-1.211.582-2.637.875-4.282.875-3.336 0-5.87-1.05-7.609-3.156-1.73-2.113-2.594-5.02-2.594-8.719 0-2.664.41-5.023 1.235-7.078.82-2.063 2-3.79 3.53-5.188 1.54-1.406 3.395-2.472 5.563-3.203 2.176-.726 4.625-1.109 7.344-1.14.05.824.102 1.633.156 2.422.063.793.118 1.609.172 2.453a23.24 23.24 0 0 0-3.828.39 13.06 13.06 0 0 0-3.25 1.063 8.92 8.92 0 0 0-2.531 1.86c-.719.76-1.278 1.687-1.672 2.78a7.104 7.104 0 0 1 1.797-.562 9.516 9.516 0 0 1 1.719-.172Zm20.126 18.28c-.72 0-1.48-.047-2.282-.14a26.337 26.337 0 0 1-2.328-.375 23.58 23.58 0 0 1-2.031-.516 12.157 12.157 0 0 1-1.437-.516l1.156-4.968c.687.293 1.57.605 2.656.937 1.082.336 2.422.5 4.016.5 1.843 0 3.191-.344 4.047-1.031.851-.695 1.28-1.629 1.28-2.797 0-.726-.155-1.336-.468-1.828a3.48 3.48 0 0 0-1.25-1.188c-.531-.312-1.168-.523-1.906-.64a13.9 13.9 0 0 0-2.344-.188h-2.312v-4.797h2.64c.582 0 1.145-.05 1.688-.156a4.833 4.833 0 0 0 1.468-.547 2.87 2.87 0 0 0 1.016-1.047c.258-.437.39-.988.39-1.656 0-.508-.109-.945-.327-1.312a2.85 2.85 0 0 0-.813-.922 3.576 3.576 0 0 0-1.172-.531 4.826 4.826 0 0 0-1.328-.188c-1.148 0-2.21.172-3.187.516a13.17 13.17 0 0 0-2.657 1.281l-2.125-4.36a18.8 18.8 0 0 1 1.5-.843c.57-.29 1.203-.555 1.89-.797a17.344 17.344 0 0 1 2.22-.594c.789-.164 1.629-.25 2.515-.25 1.625 0 3.032.196 4.219.578 1.188.387 2.164.934 2.938 1.641a6.73 6.73 0 0 1 1.718 2.484c.375.95.563 1.98.563 3.094 0 1.094-.309 2.156-.922 3.188a6.097 6.097 0 0 1-2.469 2.328c1.438.593 2.547 1.468 3.328 2.625.79 1.156 1.188 2.554 1.188 4.187 0 1.281-.215 2.465-.64 3.547a7.223 7.223 0 0 1-2 2.797c-.907.781-2.063 1.39-3.47 1.828-1.398.438-3.054.656-4.968.656Zm22.235-3.75c0 1.2-.383 2.11-1.14 2.735-.762.625-1.622.937-2.579.937-.96 0-1.82-.312-2.578-.937-.761-.625-1.14-1.535-1.14-2.735 0-1.195.379-2.109 1.14-2.734.758-.633 1.617-.953 2.578-.953.957 0 1.817.32 2.578.953.758.625 1.141 1.539 1.141 2.734Zm15.606-5c0-.77-.18-1.457-.532-2.062-.343-.602-.945-1.102-1.796-1.5-.856-.395-2-.695-3.438-.906-1.437-.22-3.25-.329-5.437-.329.289-2.488.53-5.007.718-7.562.188-2.563.332-4.961.438-7.203h15v5h-10c-.055.96-.117 1.887-.188 2.781a44.09 44.09 0 0 1-.218 2.344c3.894.262 6.77 1.172 8.625 2.734 1.851 1.563 2.78 3.73 2.78 6.5 0 1.281-.23 2.469-.687 3.563a7.61 7.61 0 0 1-2.031 2.843c-.906.793-2.047 1.418-3.422 1.875-1.375.446-2.98.672-4.812.672-.73 0-1.493-.047-2.282-.14a29.875 29.875 0 0 1-2.265-.36c-.73-.144-1.39-.297-1.985-.453-.586-.156-1.039-.316-1.359-.484l1.078-4.922c.664.305 1.547.594 2.64.875 1.095.273 2.4.406 3.923.406 1.843 0 3.175-.363 4-1.094.832-.738 1.25-1.597 1.25-2.578Zm22.719 0c0-.77-.18-1.457-.53-2.062-.345-.602-.946-1.102-1.798-1.5-.855-.395-2-.695-3.437-.906-1.438-.22-3.25-.329-5.438-.329.29-2.488.532-5.007.72-7.562.187-2.563.331-4.961.437-7.203h15v5h-10c-.055.96-.118 1.887-.188 2.781a43.99 43.99 0 0 1-.219 2.344c3.895.262 6.77 1.172 8.625 2.734 1.852 1.563 2.782 3.73 2.782 6.5 0 1.281-.23 2.469-.688 3.563a7.61 7.61 0 0 1-2.031 2.843c-.906.793-2.047 1.418-3.422 1.875-1.375.446-2.98.672-4.813.672-.73 0-1.492-.047-2.28-.14a29.875 29.875 0 0 1-2.266-.36 32.866 32.866 0 0 1-1.985-.453c-.586-.156-1.039-.316-1.36-.484l1.079-4.922c.664.305 1.547.594 2.64.875 1.094.273 2.399.406 3.922.406 1.844 0 3.176-.363 4-1.094.833-.738 1.25-1.597 1.25-2.578ZM57.344 55.812a7.27 7.27 0 0 1-.61 2.922c-.398.93-.918 1.828-1.562 2.703-.637.868-1.356 1.7-2.156 2.5a122.18 122.18 0 0 1-2.36 2.266c-.398.375-.828.797-1.297 1.266a34.866 34.866 0 0 0-2.484 2.765c-.336.407-.54.746-.61 1.016h11.923v5H39.703a6.209 6.209 0 0 1-.078-1.11v-.968c0-1.281.203-2.453.61-3.516.413-1.07.956-2.066 1.624-2.984a19.415 19.415 0 0 1 2.25-2.578c.844-.801 1.68-1.602 2.516-2.407.633-.613 1.234-1.191 1.797-1.734a20.189 20.189 0 0 0 1.484-1.61 7.557 7.557 0 0 0 1-1.546c.239-.52.36-1.051.36-1.594 0-1.164-.336-1.988-1-2.469-.668-.476-1.496-.718-2.485-.718a6.01 6.01 0 0 0-2.031.343 9.3 9.3 0 0 0-1.719.797c-.511.305-.953.61-1.328.922-.375.305-.656.547-.844.734l-2.953-4.156c1.164-1.094 2.532-1.992 4.094-2.703a12.025 12.025 0 0 1 5.016-1.062c1.625 0 3.023.187 4.203.562 1.176.375 2.144.902 2.906 1.578a6.077 6.077 0 0 1 1.672 2.485c.363.968.547 2.07.547 3.296Zm14.436 5.563c.614 0 1.254-.055 1.922-.172.664-.125 1.156-.297 1.469-.516v-.359c0-.102.004-.207.015-.312a1.75 1.75 0 0 0 .032-.282 22.022 22.022 0 0 0-.25-2.703c-.125-.844-.352-1.578-.672-2.203a3.775 3.775 0 0 0-1.313-1.469c-.543-.363-1.21-.547-2-.547-.648 0-1.21.137-1.687.407-.48.261-.867.605-1.156 1.03-.293.43-.512.9-.657 1.407-.148.5-.218.992-.218 1.469 0 1.45.347 2.523 1.046 3.219.708.687 1.864 1.03 3.47 1.03Zm2.922 3.875a7.221 7.221 0 0 1-1.875.594 10.44 10.44 0 0 1-1.734.172c-1.73 0-3.211-.207-4.438-.625-1.23-.415-2.242-1.004-3.031-1.766a6.998 6.998 0 0 1-1.734-2.734c-.368-1.063-.547-2.235-.547-3.516 0-1.07.176-2.164.531-3.281a9.002 9.002 0 0 1 1.703-3.063c.77-.914 1.75-1.676 2.938-2.281 1.187-.602 2.617-.906 4.296-.906 3.446 0 6.04 1.062 7.782 3.187 1.75 2.117 2.625 5.164 2.625 9.14 0 2.618-.344 4.923-1.032 6.923-.68 2-1.73 3.683-3.156 5.047-1.418 1.355-3.234 2.386-5.453 3.093-2.21.711-4.836 1.07-7.875 1.094a90.625 90.625 0 0 0-.125-2.469c-.055-.8-.105-1.629-.156-2.484 1.52-.031 2.89-.145 4.11-.344 1.226-.195 2.304-.531 3.234-1a7.477 7.477 0 0 0 2.39-1.86c.656-.769 1.172-1.741 1.547-2.921Zm0 0"/>
</svg>
