<svg xmlns="http://www.w3.org/2000/svg" version="1.2" viewBox="0 0 375 375">
  <path d="M183.236 112.943c-2.992 3.086-6.54 7.074-10.64 11.969-4.106 4.898-8.352 10.242-12.735 16.03a545.454 545.454 0 0 0-13.016 17.907c-4.293 6.156-8.121 12.04-11.484 17.64h49.406v18.329h-76.281v-13.016c2.613-4.758 5.812-10.05 9.593-15.875a699.67 699.67 0 0 1 11.829-17.64 455.069 455.069 0 0 1 12.515-17.22c4.25-5.55 8.192-10.519 11.828-14.905h-43.515V97.834h72.5Zm15.529 10.781c3.54-1.031 8.11-1.988 13.704-2.875 5.601-.883 11.484-1.328 17.64-1.328 6.25 0 11.453.82 15.61 2.453 4.156 1.637 7.441 3.95 9.859 6.938 2.426 2.98 4.148 6.523 5.172 10.625 1.031 4.105 1.547 8.68 1.547 13.718v41.563h-20.844V155.77c0-6.719-.887-11.473-2.656-14.266-1.774-2.8-5.086-4.203-9.938-4.203-1.5 0-3.09.074-4.765.219-1.68.137-3.168.293-4.47.469v56.828h-20.859Zm-28.259 118.492c-.855.887-1.87 2.032-3.047 3.438a108.08 108.08 0 0 0-3.64 4.578 159.782 159.782 0 0 0-3.719 5.11 85.016 85.016 0 0 0-3.281 5.046h14.125v5.235h-21.797v-3.72a66.363 66.363 0 0 1 2.734-4.546 209.812 209.812 0 0 1 3.375-5.031 133.08 133.08 0 0 1 3.578-4.922 160.01 160.01 0 0 1 3.391-4.266h-12.438v-5.234h20.72Zm10.4 23.407h-5.969v-21.047h5.969Zm.547-27.125c0 1.093-.356 1.96-1.063 2.593-.699.625-1.527.938-2.484.938-.969 0-1.809-.313-2.516-.938-.699-.633-1.046-1.5-1.046-2.593 0-1.094.347-1.954 1.046-2.579.707-.625 1.547-.937 2.516-.937.957 0 1.785.312 2.484.937.707.625 1.063 1.485 1.063 2.579Zm5.044 6.812c1.008-.3 2.317-.578 3.922-.828a32.722 32.722 0 0 1 5.047-.375c1.781 0 3.266.234 4.453.703 1.188.461 2.125 1.117 2.813 1.969.695.855 1.191 1.87 1.484 3.047.289 1.168.437 2.476.437 3.922v11.875H198.7v-11.157c0-1.925-.257-3.285-.765-4.078-.5-.8-1.446-1.203-2.828-1.203-.43 0-.887.023-1.375.063-.48.043-.903.09-1.266.14v16.235h-5.969Zm22.56 9.797c0-1.52.242-2.953.734-4.297.5-1.352 1.211-2.531 2.141-3.531.938-1 2.07-1.79 3.406-2.375 1.332-.582 2.852-.875 4.563-.875 1.113 0 2.14.101 3.078.297.937.199 1.844.484 2.719.86l-1.235 4.75a15.671 15.671 0 0 0-1.843-.548 9.377 9.377 0 0 0-2.235-.25c-1.762 0-3.078.547-3.953 1.64-.867 1.095-1.297 2.54-1.297 4.329 0 1.887.406 3.351 1.219 4.39.812 1.044 2.234 1.563 4.266 1.563.718 0 1.488-.062 2.312-.187a9.187 9.187 0 0 0 2.281-.657l.844 4.89c-.687.294-1.555.54-2.594.75-1.043.22-2.187.33-3.437.33-1.93 0-3.586-.29-4.969-.86-1.387-.57-2.527-1.352-3.422-2.344-.887-.988-1.539-2.156-1.953-3.5-.418-1.344-.625-2.8-.625-4.375Zm-60.964 60.221c-.586 0-1.211.059-1.875.172-.668.105-1.188.25-1.563.437 0 .106-.007.266-.015.485-.012.21-.016.39-.016.547 0 .968.063 1.882.188 2.734.133.844.363 1.59.687 2.234.32.637.75 1.137 1.281 1.5.532.356 1.196.532 2 .532.665 0 1.235-.133 1.704-.407a3.772 3.772 0 0 0 1.156-1.062c.3-.426.523-.899.672-1.422.156-.52.234-1.02.234-1.5 0-1.363-.344-2.41-1.031-3.14-.68-.739-1.82-1.11-3.422-1.11Zm.766-4.64c1.726 0 3.195.234 4.406.702 1.219.47 2.21 1.106 2.984 1.907a7.1 7.1 0 0 1 1.688 2.797c.343 1.062.515 2.199.515 3.406 0 1.062-.195 2.156-.578 3.281a9.123 9.123 0 0 1-1.765 3.031c-.782.907-1.782 1.657-3 2.25-1.211.582-2.637.875-4.282.875-3.336 0-5.87-1.05-7.609-3.156-1.73-2.113-2.594-5.02-2.594-8.719 0-2.664.41-5.023 1.235-7.078.82-2.062 2-3.789 3.53-5.187 1.54-1.407 3.395-2.473 5.563-3.203 2.176-.727 4.625-1.11 7.344-1.141.05.824.102 1.633.156 2.422.063.793.118 1.61.172 2.453a23.24 23.24 0 0 0-3.828.39 13.06 13.06 0 0 0-3.25 1.063 8.92 8.92 0 0 0-2.531 1.86c-.719.761-1.278 1.687-1.672 2.78a7.104 7.104 0 0 1 1.797-.562 9.516 9.516 0 0 1 1.719-.172Zm25.407 9.531c0-.77-.18-1.457-.531-2.063-.344-.601-.946-1.101-1.797-1.5-.856-.394-2-.695-3.438-.906-1.437-.219-3.25-.328-5.437-.328.289-2.489.531-5.008.719-7.563.187-2.562.332-4.96.437-7.203h15v5h-10c-.055.961-.117 1.887-.187 2.781a43.89 43.89 0 0 1-.22 2.344c3.895.262 6.77 1.172 8.626 2.734 1.851 1.563 2.781 3.73 2.781 6.5 0 1.282-.23 2.47-.687 3.563a7.61 7.61 0 0 1-2.032 2.844c-.906.793-2.047 1.418-3.422 1.875-1.375.445-2.98.672-4.812.672-.73 0-1.492-.047-2.281-.141a29.875 29.875 0 0 1-2.266-.36c-.73-.144-1.39-.296-1.984-.453-.586-.156-1.04-.316-1.36-.484l1.078-4.922c.664.305 1.547.594 2.641.875 1.094.274 2.398.406 3.922.406 1.844 0 3.176-.363 4-1.093.832-.739 1.25-1.598 1.25-2.578Zm16.954 5c0 1.199-.383 2.109-1.14 2.734-.762.625-1.622.937-2.579.937-.96 0-1.82-.312-2.578-.937-.761-.625-1.14-1.535-1.14-2.734 0-1.196.379-2.11 1.14-2.735.758-.633 1.617-.953 2.578-.953.957 0 1.817.32 2.578.953.758.625 1.141 1.54 1.141 2.735Zm10.324 3.75c-.718 0-1.48-.047-2.28-.141a26.337 26.337 0 0 1-2.329-.375 23.58 23.58 0 0 1-2.031-.516 12.157 12.157 0 0 1-1.438-.515l1.157-4.97c.687.294 1.57.606 2.656.938 1.082.336 2.422.5 4.015.5 1.844 0 3.192-.343 4.047-1.03.852-.696 1.282-1.63 1.282-2.798 0-.726-.157-1.336-.47-1.828a3.48 3.48 0 0 0-1.25-1.187c-.53-.313-1.167-.524-1.905-.64a13.9 13.9 0 0 0-2.344-.188h-2.313v-4.797h2.64c.583 0 1.145-.051 1.688-.157a4.833 4.833 0 0 0 1.47-.546 2.87 2.87 0 0 0 1.015-1.047c.258-.438.39-.989.39-1.657 0-.507-.109-.945-.328-1.312a2.85 2.85 0 0 0-.812-.922 3.576 3.576 0 0 0-1.172-.531 4.826 4.826 0 0 0-1.328-.188c-1.149 0-2.211.172-3.188.516a13.17 13.17 0 0 0-2.656 1.281l-2.125-4.36a18.8 18.8 0 0 1 1.5-.843c.57-.289 1.203-.555 1.89-.797a17.344 17.344 0 0 1 2.22-.594c.788-.164 1.628-.25 2.515-.25 1.625 0 3.031.196 4.219.579 1.187.386 2.164.933 2.937 1.64a6.73 6.73 0 0 1 1.719 2.485c.375.949.563 1.98.563 3.093 0 1.094-.31 2.157-.922 3.188a6.097 6.097 0 0 1-2.47 2.328c1.438.594 2.548 1.469 3.329 2.625.79 1.156 1.188 2.555 1.188 4.187 0 1.282-.215 2.465-.641 3.547a7.223 7.223 0 0 1-2 2.797c-.906.781-2.063 1.39-3.469 1.828-1.398.438-3.055.657-4.969.657Zm34.798-8.313c0 1.2-.21 2.297-.625 3.297a7.383 7.383 0 0 1-1.859 2.625c-.824.742-1.855 1.32-3.094 1.734-1.242.414-2.68.625-4.312.625-1.867 0-3.418-.261-4.657-.78-1.242-.52-2.242-1.165-3-1.938-.761-.77-1.304-1.614-1.625-2.532-.312-.925-.468-1.773-.468-2.547 0-.8.101-1.535.312-2.203a7.28 7.28 0 0 1 .875-1.812 9.357 9.357 0 0 1 1.266-1.5c.469-.457.969-.89 1.5-1.297-1.149-.926-1.996-1.844-2.547-2.75-.543-.906-.813-2.066-.813-3.484 0-1.063.22-2.086.657-3.079a7.863 7.863 0 0 1 1.86-2.578c.8-.738 1.769-1.328 2.905-1.765 1.133-.438 2.395-.657 3.782-.657 1.625 0 3.015.235 4.171.704 1.165.468 2.118 1.062 2.86 1.78.75.72 1.289 1.528 1.625 2.423.332.886.5 1.773.5 2.656 0 1.281-.34 2.477-1.016 3.578-.68 1.106-1.527 1.98-2.547 2.625 1.52.98 2.61 2.012 3.266 3.094.656 1.086.984 2.344.984 3.781Zm-13.843.234c0 .325.07.68.218 1.063.145.387.38.742.703 1.062.32.325.735.594 1.235.813.508.21 1.125.312 1.844.312 1.382 0 2.394-.332 3.03-1 .645-.664.97-1.414.97-2.25 0-.613-.141-1.16-.422-1.64a4.266 4.266 0 0 0-1.14-1.25 8.103 8.103 0 0 0-1.704-.969 23.084 23.084 0 0 0-2.094-.781 8.21 8.21 0 0 0-1.89 1.969c-.5.742-.75 1.632-.75 2.671Zm7.406-13.156a2.7 2.7 0 0 0-.188-.937 2.6 2.6 0 0 0-.593-.938 3.586 3.586 0 0 0-1.063-.734c-.43-.207-.95-.313-1.562-.313-.586 0-1.09.094-1.516.282a3.03 3.03 0 0 0-1.063.75 3.06 3.06 0 0 0-.625.968c-.136.344-.203.68-.203 1 0 .856.313 1.657.938 2.407.633.742 1.71 1.382 3.234 1.921.852-.539 1.504-1.156 1.953-1.843.457-.696.688-1.551.688-2.563ZM46.625 76.844c-.719 0-1.48-.047-2.281-.14a26.337 26.337 0 0 1-2.328-.376 23.58 23.58 0 0 1-2.032-.515 12.157 12.157 0 0 1-1.437-.516l1.156-4.969c.688.293 1.57.606 2.656.938 1.082.336 2.422.5 4.016.5 1.844 0 3.191-.344 4.047-1.031.851-.696 1.281-1.63 1.281-2.797 0-.727-.156-1.336-.469-1.828a3.48 3.48 0 0 0-1.25-1.188c-.53-.312-1.168-.523-1.906-.64a13.9 13.9 0 0 0-2.344-.188h-2.312v-4.797h2.64c.583 0 1.145-.05 1.688-.156a4.833 4.833 0 0 0 1.469-.547 2.87 2.87 0 0 0 1.015-1.047c.258-.437.391-.988.391-1.656 0-.508-.11-.946-.328-1.313a2.85 2.85 0 0 0-.813-.922 3.576 3.576 0 0 0-1.171-.53 4.826 4.826 0 0 0-1.329-.188c-1.148 0-2.21.172-3.187.515a13.17 13.17 0 0 0-2.656 1.282l-2.125-4.36a18.8 18.8 0 0 1 1.5-.844 15.8 15.8 0 0 1 1.89-.796 17.344 17.344 0 0 1 2.219-.594c.79-.164 1.629-.25 2.516-.25 1.625 0 3.03.195 4.218.578 1.188.387 2.164.933 2.938 1.64a6.73 6.73 0 0 1 1.719 2.485c.375.95.562 1.98.562 3.094 0 1.093-.308 2.156-.922 3.187a6.097 6.097 0 0 1-2.468 2.328c1.437.594 2.546 1.469 3.328 2.625.789 1.157 1.187 2.555 1.187 4.188 0 1.281-.215 2.465-.64 3.547a7.223 7.223 0 0 1-2 2.797c-.907.78-2.063 1.39-3.47 1.828-1.398.437-3.054.656-4.968.656Zm34.952-14.516c0 4.668-.887 8.25-2.656 10.75-1.774 2.492-4.219 3.735-7.344 3.735-3.117 0-5.562-1.243-7.344-3.735-1.773-2.5-2.656-6.082-2.656-10.75 0-2.32.234-4.375.703-6.156.469-1.789 1.14-3.297 2.016-4.516.883-1.226 1.937-2.16 3.156-2.796 1.227-.645 2.602-.97 4.125-.97 3.125 0 5.57 1.25 7.344 3.75 1.77 2.493 2.656 6.055 2.656 10.688Zm-6.078 0c0-1.383-.07-2.644-.203-3.781-.137-1.133-.352-2.113-.64-2.937-.294-.82-.696-1.458-1.204-1.907-.5-.457-1.125-.687-1.875-.687s-1.371.23-1.86.687c-.491.45-.89 1.086-1.202 1.907-.305.824-.524 1.804-.657 2.937a31.88 31.88 0 0 0-.203 3.781c0 1.387.067 2.653.203 3.797.133 1.149.352 2.137.657 2.969.312.824.71 1.465 1.203 1.922.488.449 1.11.672 1.86.672s1.374-.223 1.874-.672c.508-.457.91-1.098 1.203-1.922.29-.832.504-1.82.64-2.969.134-1.144.204-2.41.204-3.797Zm0 0"/>
  <path d="m355.762 10.207.453.043.441.063.442.085.43.094.429.113.414.137.414.14.406.169.395.168.387.195.386.207.364.223.363.234.351.242.344.266.328.27.32.285.31.3.3.309.285.32.27.328.258.344.25.352.234.363.223.363.199.387.195.387.176.398.168.403.14.414.137.421.106.422.101.434.078.437.067.45.047.449.03.453.005.465v334.933l-.004.461-.031.457-.047.45-.067.441-.078.438-.101.433-.106.43-.137.414-.14.414-.168.41-.176.39-.195.387-.2.38-.222.37-.234.364-.25.351-.258.344-.27.328-.285.32-.3.31-.31.3-.32.285-.328.27-.344.257-.351.25-.363.239-.364.214-.386.207-.387.192-.395.18-.406.164-.414.14-.414.13-.43.116-.43.098-.44.078-.442.067-.453.05-.457.028-.457.007H19.91l-.457-.007-.457-.028-.45-.05-.448-.067-.438-.078-.433-.098-.422-.117-.422-.129-.414-.14-.403-.164-.398-.18-.387-.192-.379-.207-.37-.214-.364-.239-.352-.25-.343-.257-.328-.27-.32-.285-.31-.3-.3-.31-.285-.32-.27-.328-.258-.344-.25-.351-.238-.364-.219-.37-.207-.38-.187-.386-.18-.39-.164-.411-.14-.414-.137-.414-.114-.43-.093-.433-.086-.438-.059-.441-.05-.45-.028-.457-.008-.46V21.34l.008-.465.027-.453.051-.45.059-.449.086-.437.093-.434.114-.422.136-.421.141-.414.164-.403.18-.398.187-.387.207-.387.22-.363.237-.363.25-.352.258-.344.27-.328.285-.32.3-.309.31-.3.32-.286.328-.27.343-.265.352-.242.363-.234.371-.223.38-.207.386-.195.398-.168.403-.168.414-.14.422-.138.422-.113.433-.094.438-.085.449-.063.45-.043.456-.031.457-.004h334.938l.457.004ZM28.187 18.914l-.457.031-.453.043-.441.063-.445.086-.426.093-.43.114-.422.136-.406.145-.41.164-.39.172-.395.191-.38.207-.37.223-.356.234-.351.243-.344.265-.328.27-.32.289-.31.297-.3.308-.285.32-.27.333-.265.34-.242.351-.239.355-.218.375-.207.375-.188.395-.18.395-.164.406-.14.406-.137.422-.113.43-.094.43-.086.44-.059.442-.046.453-.032.457-.008.457v317.465l.008.457.032.461.046.45.059.44.086.438.094.434.113.43.137.414.14.414.164.41.18.39.188.387.207.38.218.37.239.363.242.352.265.344.27.328.285.32.3.309.31.3.32.286.328.27.344.257.351.25.356.238.37.211.38.207.394.196.39.18.411.163.406.141.422.129.43.113.426.102.445.078.441.066.453.047.457.031.458.008h317.464l.457-.008.457-.03.454-.048.441-.066.441-.078.43-.102.43-.113.414-.129.414-.14.406-.165.395-.18.386-.195.383-.207.367-.21.364-.239.351-.25.34-.258.332-.27.32-.284.309-.301.297-.309.289-.32.27-.328.257-.344.25-.352.235-.363.222-.37.2-.38.195-.387.176-.39.164-.41.144-.414.137-.414.105-.43.102-.434.078-.437.063-.442.05-.449.032-.46.004-.458V30.07l-.004-.457-.032-.457-.05-.453-.063-.441-.078-.442-.102-.43-.105-.43-.137-.42-.144-.407-.164-.406-.176-.395-.195-.39-.2-.38-.222-.375-.235-.355-.25-.352-.258-.34-.27-.331-.288-.32-.297-.31-.309-.296-.32-.29-.332-.269-.34-.265-.351-.243-.364-.234-.367-.223-.383-.207-.386-.191-.395-.172-.406-.164-.414-.145-.414-.136-.43-.114-.43-.093-.441-.086-.441-.063-.454-.043-.457-.03-.457-.005H28.645Zm0 0"/>
</svg>
