<svg xmlns="http://www.w3.org/2000/svg" version="1.2" viewBox="0 0 375 375">
  <path d="m359.121 5.996.461.043.45.066.448.086.438.094.437.117.422.137.422.145.414.168.399.175.39.196.395.21.371.227.371.238.356.25.347.266.336.277.328.293.313.305.304.313.29.324.277.336.262.347.253.36.239.367.226.371.203.395.2.39.18.41.167.407.145.421.137.426.109.43.101.445.083.442.066.46.05.458.028.457.008.472v340.74l-.008.464-.027.465-.051.461-.066.45-.082.445-.102.441-.11.438-.136.422-.145.421-.168.414-.18.399-.199.39-.203.387-.226.38-.239.37-.253.356-.262.347-.277.336-.29.328-.304.313-.313.305-.328.289-.336.277-.347.262-.356.254-.371.242-.371.215-.395.21-.39.2-.399.18-.414.168-.422.144-.422.133-.437.113-.438.102-.449.082-.449.066-.46.05-.466.028-.465.008H17.453l-.465-.008-.465-.027-.457-.05-.46-.067-.442-.082-.445-.102-.43-.113-.426-.133-.422-.144-.406-.168-.41-.18-.39-.2-.387-.21-.38-.215-.366-.242-.36-.254-.347-.262-.336-.277-.325-.29-.312-.304-.305-.313-.293-.328-.277-.336-.262-.347-.254-.356-.238-.37-.227-.38-.21-.386-.188-.391-.184-.399-.168-.414-.144-.421-.137-.422-.117-.438-.094-.441-.086-.446-.058-.449-.051-.46-.031-.466-.008-.464V17.32l.008-.472.03-.457.052-.457.058-.461.086-.442.094-.445.117-.43.137-.426.144-.421.168-.407.184-.41.187-.39.211-.395.227-.371.238-.367.254-.36.262-.347.277-.336.293-.324.305-.313.312-.305.325-.293.336-.277.347-.266.36-.25.367-.238.379-.226.386-.211.391-.196.41-.175.406-.168.422-.145.426-.137.43-.117.445-.094.441-.086.461-.066.457-.043.465-.031.465-.008h340.738l.465.008Zm-333.25 8.86-.465.03-.457.044-.453.062-.45.09-.437.094-.437.117-.426.137-.414.144-.414.168-.402.176-.399.195-.387.211-.378.227-.364.238-.355.246-.348.27-.336.277-.324.29-.313.308-.308.312-.29.324-.276.336-.27.348-.246.355-.238.364-.227.379-.21.386-.188.399-.184.402-.168.414-.145.414-.136.426-.117.438-.094.437-.09.45-.055.452-.05.457-.032.465-.008.465v322.965l.008.465.032.469.05.457.055.449.09.445.094.442.117.437.136.422.145.422.168.414.184.398.187.395.211.383.227.379.238.37.246.356.27.348.277.336.289.328.308.312.313.305.324.29.336.276.348.262.355.254.364.242.378.215.387.211.399.2.402.179.414.168.414.144.426.133.437.113.438.106.45.078.452.067.457.05.465.028.465.007H349.3l.465-.007.468-.028.457-.05.45-.067.453-.078.433-.106.438-.113.422-.133.422-.144.414-.168.398-.18.395-.199.39-.21.371-.216.371-.242.356-.254.348-.262.336-.277.328-.289.312-.305.305-.312.289-.328.277-.336.262-.348.254-.355.242-.371.223-.38.203-.382.199-.395.18-.398.168-.414.144-.422.14-.422.106-.437.106-.442.078-.445.066-.45.051-.456.027-.47.008-.464V26.203l-.008-.465-.027-.465-.05-.457-.067-.453-.078-.449-.211-.875-.14-.426-.145-.414-.168-.414-.18-.402-.2-.399-.202-.386-.223-.38-.242-.363-.254-.355-.262-.348-.277-.336-.29-.324-.304-.312-.312-.309-.329-.289-.335-.277-.348-.27-.356-.246-.37-.238-.372-.227-.39-.21-.395-.196-.398-.176-.414-.168-.422-.144-.422-.137-.438-.117-.433-.094-.453-.09-.45-.062-.457-.043-.468-.032-.465-.007H26.336Zm0 0"/>
  <path d="M158.176 114.592c-10.168 0-17.515 2.824-22.047 8.469-4.523 5.636-6.78 13.355-6.78 23.156 0 4.762.554 9.078 1.671 12.953 1.125 3.867 2.805 7.2 5.047 10 2.238 2.805 5.035 4.976 8.39 6.516 3.364 1.53 7.286 2.296 11.766 2.296 2.426 0 4.5-.046 6.219-.14 1.727-.094 3.242-.281 4.547-.563v-33.718h21.844v48c-2.618 1.03-6.82 2.125-12.61 3.28-5.781 1.165-12.918 1.75-21.406 1.75-7.281 0-13.887-1.116-19.813-3.343-5.917-2.238-10.976-5.504-15.171-9.797-4.2-4.3-7.446-9.578-9.735-15.828-2.281-6.25-3.422-13.383-3.422-21.406 0-8.113 1.258-15.297 3.782-21.547 2.52-6.258 5.968-11.555 10.343-15.89 4.383-4.344 9.54-7.634 15.47-9.876 5.925-2.238 12.25-3.36 18.968-3.36 4.57 0 8.695.31 12.375.923 3.687.605 6.86 1.304 9.515 2.094 2.665.793 4.86 1.609 6.579 2.453 1.726.836 2.968 1.484 3.718 1.953l-6.297 17.5c-2.992-1.582-6.421-2.957-10.296-4.125-3.868-1.164-8.086-1.75-12.657-1.75Zm77.672 65.625c2.05 0 4.008-.04 5.875-.125 1.875-.094 3.367-.235 4.484-.422v-15.813c-.836-.187-2.094-.375-3.781-.562a41.803 41.803 0 0 0-4.61-.281c-1.96 0-3.804.12-5.53.359-1.731.23-3.25.672-4.563 1.328-1.305.649-2.328 1.531-3.078 2.656-.743 1.118-1.11 2.512-1.11 4.188 0 3.273 1.094 5.539 3.281 6.797 2.196 1.25 5.207 1.875 9.032 1.875Zm-1.672-61.016c6.156 0 11.285.703 15.39 2.11 4.102 1.398 7.391 3.402 9.86 6.015 2.476 2.617 4.226 5.79 5.25 9.516 1.031 3.73 1.547 7.883 1.547 12.453v43.39c-2.992.649-7.149 1.415-12.47 2.297-5.312.895-11.745 1.344-19.296 1.344-4.762 0-9.078-.422-12.953-1.265-3.867-.844-7.2-2.22-10-4.125-2.805-1.915-4.953-4.41-6.453-7.485-1.492-3.082-2.235-6.863-2.235-11.344 0-4.289.864-7.925 2.594-10.906 1.727-2.988 4.035-5.367 6.922-7.14 2.895-1.782 6.207-3.067 9.938-3.86 3.738-.789 7.613-1.187 11.625-1.187 2.707 0 5.109.12 7.203.359 2.101.23 3.804.531 5.11.906v-1.968c0-3.54-1.075-6.383-3.22-8.532-2.148-2.144-5.875-3.218-11.187-3.218-3.555 0-7.059.257-10.516.765-3.449.512-6.43 1.235-8.937 2.172l-2.672-16.797c1.219-.375 2.734-.77 4.547-1.187a82.258 82.258 0 0 1 5.953-1.11 119.94 119.94 0 0 1 6.781-.843c2.383-.239 4.79-.36 7.219-.36ZM131.68 242.7c-2.907 0-5.008.809-6.297 2.422-1.293 1.617-1.938 3.824-1.938 6.625 0 1.356.157 2.59.47 3.703.32 1.106.8 2.059 1.437 2.86a6.666 6.666 0 0 0 2.406 1.86c.957.437 2.078.655 3.36.655.694 0 1.288-.007 1.78-.03.5-.032.93-.087 1.297-.173v-9.64h6.25V264.7c-.75.293-1.953.606-3.61.938-1.648.332-3.683.5-6.108.5-2.086 0-3.977-.32-5.672-.953-1.688-.645-3.137-1.578-4.344-2.797-1.2-1.227-2.125-2.734-2.781-4.516-.649-1.789-.97-3.832-.97-6.125 0-2.32.36-4.375 1.08-6.156.718-1.79 1.702-3.305 2.952-4.547a12.54 12.54 0 0 1 4.422-2.812c1.695-.645 3.504-.97 5.422-.97 1.312 0 2.492.09 3.547.267a21.6 21.6 0 0 1 2.719.593c.757.23 1.382.465 1.875.703.5.243.851.43 1.062.563l-1.797 5c-.855-.457-1.836-.852-2.937-1.188-1.106-.332-2.313-.5-3.625-.5Zm22.204 18.766c.582 0 1.141-.008 1.672-.031.532-.031.957-.07 1.282-.125v-4.531a12.994 12.994 0 0 0-1.079-.157c-.48-.05-.918-.078-1.312-.078-.563 0-1.094.04-1.594.11a4.001 4.001 0 0 0-1.297.375 2.307 2.307 0 0 0-.89.765c-.211.313-.313.711-.313 1.188 0 .937.313 1.59.938 1.953.633.355 1.5.531 2.593.531Zm-.484-17.437c1.758 0 3.223.199 4.39.593 1.176.399 2.118.969 2.829 1.719.707.75 1.207 1.664 1.5 2.734.289 1.063.437 2.246.437 3.547v12.407c-.855.187-2.043.406-3.562.656-1.512.25-3.352.375-5.516.375-1.355 0-2.59-.121-3.703-.36-1.105-.238-2.059-.629-2.86-1.171a5.485 5.485 0 0 1-1.827-2.141c-.43-.883-.641-1.969-.641-3.25 0-1.219.242-2.254.734-3.11a5.718 5.718 0 0 1 1.97-2.046c.831-.508 1.78-.875 2.843-1.094a16.03 16.03 0 0 1 3.328-.344c.77 0 1.453.04 2.047.11a9.568 9.568 0 0 1 1.469.25v-.563c0-1.008-.309-1.82-.922-2.437-.617-.614-1.68-.922-3.188-.922a20.8 20.8 0 0 0-3.015.218c-.98.149-1.829.356-2.547.625l-.766-4.796a14.07 14.07 0 0 1 1.297-.344c.52-.125 1.086-.235 1.703-.328a32.544 32.544 0 0 1 1.938-.235 22.387 22.387 0 0 1 2.062-.093Zm22.964 22c-1.743-.032-3.153-.22-4.235-.563-1.074-.352-1.922-.844-2.547-1.469a4.836 4.836 0 0 1-1.28-2.265c-.231-.895-.345-1.907-.345-3.032v-23.156l5.97-.969v22.922c0 .543.034 1.028.109 1.453.082.418.238.778.468 1.079.227.292.551.53.969.718.426.188 1.004.309 1.734.36Zm12.64 0c-1.743-.032-3.153-.22-4.235-.563-1.074-.352-1.922-.844-2.547-1.469a4.836 4.836 0 0 1-1.28-2.265c-.231-.895-.345-1.907-.345-3.032v-23.156l5.97-.969v22.922c0 .543.034 1.028.108 1.453.082.418.239.778.47 1.079.226.292.55.53.968.718.426.188 1.004.309 1.734.36Zm10.202-.407h-5.969v-21.047h5.969Zm.547-27.125c0 1.094-.356 1.961-1.063 2.594-.699.625-1.527.938-2.484.938-.969 0-1.809-.313-2.516-.938-.699-.633-1.047-1.5-1.047-2.594 0-1.093.348-1.953 1.047-2.578.707-.625 1.547-.937 2.516-.937.957 0 1.785.312 2.484.937.707.625 1.063 1.485 1.063 2.578Zm23.013 26.407c-1.024.292-2.336.562-3.938.812a31.47 31.47 0 0 1-5.03.39c-1.782 0-3.267-.242-4.454-.718-1.188-.477-2.133-1.149-2.828-2.016-.688-.875-1.184-1.91-1.485-3.11-.292-1.194-.437-2.515-.437-3.952v-11.735h5.969v11c0 1.93.25 3.32.75 4.172.508.856 1.457 1.282 2.843 1.282.426 0 .88-.02 1.36-.063.476-.04.906-.086 1.281-.14v-16.25h5.969Zm17.154-10.438c0-1.926-.25-3.285-.75-4.078-.493-.8-1.337-1.203-2.532-1.203-.375 0-.765.023-1.172.062-.398.043-.777.09-1.14.14v16.235h-5.97V245.31a37.888 37.888 0 0 1 3.938-.813c.758-.125 1.54-.218 2.344-.281.801-.07 1.586-.11 2.36-.11 1.52 0 2.753.196 3.703.579.945.386 1.726.844 2.343 1.375.852-.614 1.832-1.094 2.938-1.438 1.101-.343 2.125-.515 3.062-.515 1.676 0 3.051.234 4.125.703 1.082.46 1.942 1.117 2.579 1.969.644.855 1.085 1.87 1.328 3.046.238 1.168.36 2.477.36 3.922v11.875h-5.954v-11.156c0-1.926-.25-3.285-.75-4.078-.492-.8-1.336-1.203-2.531-1.203-.325 0-.774.086-1.344.25-.574.156-1.047.355-1.422.594a8.9 8.9 0 0 1 .36 1.937c.05.68.078 1.402.078 2.172v11.484h-5.954Zm-91.827 60.813c-.586 0-1.211.058-1.875.172-.668.105-1.188.25-1.563.437 0 .106-.007.266-.015.485-.012.21-.016.39-.016.547 0 .968.063 1.882.188 2.734.133.844.363 1.59.687 2.234.32.637.75 1.137 1.281 1.5.532.356 1.196.532 2 .532.665 0 1.235-.133 1.704-.407a3.772 3.772 0 0 0 1.156-1.062c.3-.426.523-.899.672-1.422.156-.52.234-1.02.234-1.5 0-1.363-.344-2.41-1.031-3.14-.68-.739-1.82-1.11-3.422-1.11Zm.766-4.64c1.726 0 3.195.234 4.406.702 1.219.47 2.21 1.106 2.984 1.907a7.1 7.1 0 0 1 1.688 2.797c.343 1.062.515 2.199.515 3.406 0 1.062-.195 2.156-.578 3.281a9.123 9.123 0 0 1-1.765 3.031c-.782.907-1.782 1.657-3 2.25-1.211.582-2.637.875-4.282.875-3.336 0-5.87-1.05-7.609-3.156-1.73-2.113-2.594-5.02-2.594-8.719 0-2.664.41-5.023 1.235-7.078.82-2.062 2-3.789 3.53-5.187 1.54-1.407 3.395-2.473 5.563-3.203 2.176-.727 4.625-1.11 7.344-1.141.05.824.102 1.633.156 2.422.063.793.118 1.61.172 2.453a23.24 23.24 0 0 0-3.828.39 13.06 13.06 0 0 0-3.25 1.063 8.92 8.92 0 0 0-2.531 1.86c-.719.761-1.278 1.687-1.672 2.78a7.104 7.104 0 0 1 1.797-.562 9.516 9.516 0 0 1 1.719-.172Zm22.563 2.811c.613 0 1.254-.054 1.922-.171.664-.125 1.156-.297 1.469-.516v-.36c0-.1.004-.206.015-.312a1.75 1.75 0 0 0 .032-.28 22.022 22.022 0 0 0-.25-2.704c-.125-.844-.352-1.578-.672-2.203a3.775 3.775 0 0 0-1.313-1.469c-.543-.363-1.21-.547-2-.547-.648 0-1.21.137-1.687.407-.48.261-.867.605-1.156 1.03-.293.43-.512.9-.657 1.407-.148.5-.218.992-.218 1.469 0 1.449.347 2.523 1.046 3.219.707.687 1.864 1.03 3.47 1.03Zm2.922 3.876a7.221 7.221 0 0 1-1.875.594c-.68.117-1.258.171-1.734.171-1.73 0-3.211-.207-4.438-.625-1.23-.414-2.242-1.004-3.031-1.765a6.998 6.998 0 0 1-1.734-2.735c-.368-1.062-.547-2.234-.547-3.515 0-1.07.175-2.164.53-3.281a9.002 9.002 0 0 1 1.704-3.063c.77-.914 1.75-1.676 2.938-2.281 1.187-.602 2.617-.906 4.296-.906 3.446 0 6.04 1.062 7.782 3.187 1.75 2.117 2.625 5.164 2.625 9.14 0 2.618-.344 4.923-1.032 6.923-.68 2-1.73 3.683-3.156 5.046-1.418 1.356-3.234 2.387-5.453 3.094-2.21.711-4.836 1.07-7.875 1.094a90.625 90.625 0 0 0-.125-2.469c-.055-.8-.105-1.629-.156-2.484 1.52-.031 2.89-.145 4.11-.344 1.226-.195 2.304-.531 3.234-1a7.477 7.477 0 0 0 2.39-1.86c.656-.769 1.172-1.742 1.547-2.921Zm16.876 7.844c0 1.199-.383 2.109-1.14 2.734-.762.625-1.622.937-2.579.937-.96 0-1.82-.312-2.578-.937-.761-.625-1.14-1.535-1.14-2.734 0-1.196.379-2.11 1.14-2.735.758-.633 1.617-.953 2.578-.953.957 0 1.817.32 2.578.953.758.625 1.141 1.54 1.141 2.735Zm6.887 3.156c.156-1.946.484-3.973.984-6.078a59.072 59.072 0 0 1 1.86-6.188 53.583 53.583 0 0 1 2.468-5.75c.907-1.8 1.829-3.36 2.766-4.672h-12.047v-5.078h19.406v4.328c-.855.93-1.796 2.219-2.828 3.875-1.023 1.657-1.996 3.532-2.922 5.625a53.19 53.19 0 0 0-2.406 6.75 34.54 34.54 0 0 0-1.25 7.188Zm36.876-20.438a7.27 7.27 0 0 1-.61 2.922 13.5 13.5 0 0 1-1.562 2.703c-.637.867-1.355 1.7-2.156 2.5a122.18 122.18 0 0 1-2.36 2.266c-.398.375-.828.797-1.296 1.266a34.866 34.866 0 0 0-2.485 2.765c-.336.406-.539.746-.61 1.016h11.923v5h-18.485a6.209 6.209 0 0 1-.078-1.11v-.968c0-1.282.203-2.453.61-3.516.414-1.07.957-2.066 1.625-2.984a19.415 19.415 0 0 1 2.25-2.578c.843-.801 1.68-1.602 2.515-2.407.633-.613 1.235-1.191 1.797-1.734a20.189 20.189 0 0 0 1.484-1.61 7.557 7.557 0 0 0 1-1.546c.239-.52.36-1.051.36-1.594 0-1.164-.336-1.988-1-2.469-.668-.476-1.496-.719-2.485-.719a6 6 0 0 0-2.03.344 9.31 9.31 0 0 0-1.72.797c-.511.305-.953.61-1.328.922a11.83 11.83 0 0 0-.843.734l-2.954-4.156c1.165-1.094 2.532-1.992 4.094-2.703a12.025 12.025 0 0 1 5.016-1.063c1.625 0 3.023.188 4.203.563 1.176.375 2.145.902 2.906 1.578a6.077 6.077 0 0 1 1.672 2.484c.363.97.547 2.07.547 3.297ZM46.625 76.844c-.719 0-1.48-.047-2.281-.14a26.337 26.337 0 0 1-2.328-.376 23.58 23.58 0 0 1-2.032-.516 12.157 12.157 0 0 1-1.437-.515l1.156-4.969c.688.293 1.57.606 2.656.938 1.082.336 2.422.5 4.016.5 1.844 0 3.191-.344 4.047-1.032.851-.695 1.281-1.629 1.281-2.797 0-.726-.156-1.335-.469-1.828a3.48 3.48 0 0 0-1.25-1.187c-.53-.313-1.168-.524-1.906-.64a13.9 13.9 0 0 0-2.344-.188h-2.312v-4.797h2.64c.583 0 1.145-.05 1.688-.156a4.833 4.833 0 0 0 1.469-.547 2.87 2.87 0 0 0 1.015-1.047c.258-.438.391-.988.391-1.656 0-.508-.11-.946-.328-1.313a2.85 2.85 0 0 0-.813-.922 3.576 3.576 0 0 0-1.171-.531 4.826 4.826 0 0 0-1.329-.188c-1.148 0-2.21.172-3.187.516a13.17 13.17 0 0 0-2.656 1.281l-2.125-4.359a18.8 18.8 0 0 1 1.5-.844c.57-.289 1.203-.554 1.89-.797a17.344 17.344 0 0 1 2.219-.593c.79-.164 1.629-.25 2.516-.25 1.625 0 3.03.195 4.218.578 1.188.386 2.164.933 2.938 1.64a6.73 6.73 0 0 1 1.719 2.485c.375.949.562 1.98.562 3.093 0 1.094-.308 2.157-.922 3.188a6.097 6.097 0 0 1-2.468 2.328c1.437.594 2.546 1.469 3.328 2.625.789 1.156 1.187 2.555 1.187 4.188 0 1.28-.215 2.464-.64 3.546a7.223 7.223 0 0 1-2 2.797c-.907.782-2.063 1.391-3.47 1.828-1.398.438-3.054.657-4.968.657Zm16.39-22.547c.77-.32 1.578-.692 2.421-1.11.844-.414 1.66-.867 2.454-1.359a30.17 30.17 0 0 0 2.296-1.547 15.52 15.52 0 0 0 1.985-1.75h4.172V76.25h-5.969V56.297a18.45 18.45 0 0 1-2.688 1.453c-.98.437-1.937.82-2.875 1.14Zm0 0"/>
</svg>
