<svg xmlns="http://www.w3.org/2000/svg" version="1.2" viewBox="0 0 375 375">
  <path d="m359.121 5.996.461.043.45.066.448.086.438.094.437.117.422.137.422.145.414.168.399.175.39.196.395.21.371.227.371.238.356.25.347.266.336.277.328.293.313.305.304.313.29.324.277.336.262.347.253.36.239.367.226.371.203.395.2.39.18.41.167.407.145.421.137.426.109.43.101.445.083.442.066.46.05.458.028.457.008.472v340.74l-.008.464-.027.465-.051.461-.066.45-.082.445-.102.441-.11.438-.136.422-.145.421-.168.414-.18.399-.199.39-.203.387-.226.38-.239.37-.253.356-.262.347-.277.336-.29.328-.304.313-.313.305-.328.289-.336.277-.347.262-.356.254-.371.242-.371.215-.395.21-.39.2-.399.18-.414.168-.422.144-.422.133-.437.113-.438.102-.449.082-.449.066-.46.05-.466.028-.465.008H17.453l-.465-.008-.465-.027-.457-.05-.46-.067-.442-.082-.445-.102-.43-.113-.426-.133-.422-.144-.406-.168-.41-.18-.39-.2-.387-.21-.38-.215-.366-.242-.36-.254-.347-.262-.336-.277-.325-.29-.312-.304-.305-.313-.293-.328-.277-.336-.262-.347-.254-.356-.238-.37-.227-.38-.21-.386-.188-.391-.184-.399-.168-.414-.144-.421-.137-.422-.117-.438-.094-.441-.086-.446-.058-.449-.051-.46-.031-.466-.008-.464V17.32l.008-.472.03-.457.052-.457.058-.461.086-.442.094-.445.117-.43.137-.426.144-.421.168-.407.184-.41.187-.39.211-.395.227-.371.238-.367.254-.36.262-.347.277-.336.293-.324.305-.313.312-.305.325-.293.336-.277.347-.266.36-.25.367-.238.379-.226.386-.211.391-.196.41-.175.406-.168.422-.145.426-.137.43-.117.445-.094.441-.086.461-.066.457-.043.465-.031.465-.008h340.738l.465.008Zm-333.25 8.86-.465.03-.457.044-.453.062-.45.09-.437.094-.437.117-.426.137-.414.144-.414.168-.402.176-.399.195-.387.211-.378.227-.364.238-.355.246-.348.27-.336.277-.324.29-.313.308-.308.312-.29.324-.276.336-.27.348-.246.355-.238.364-.227.379-.21.386-.188.399-.184.402-.168.414-.145.414-.136.426-.117.438-.094.437-.09.45-.055.452-.05.457-.032.465-.008.465v322.965l.008.465.032.469.05.457.055.449.09.445.094.442.117.437.136.422.145.422.168.414.184.398.187.395.211.383.227.379.238.37.246.356.27.348.277.336.289.328.308.312.313.305.324.29.336.276.348.262.355.254.364.242.378.215.387.211.399.2.402.179.414.168.414.144.426.133.437.113.438.106.45.078.452.067.457.05.465.028.465.007H349.3l.465-.007.468-.028.457-.05.45-.067.453-.078.433-.106.438-.113.422-.133.422-.144.414-.168.398-.18.395-.199.39-.21.371-.216.371-.242.356-.254.348-.262.336-.277.328-.289.312-.305.305-.312.289-.328.277-.336.262-.348.254-.355.242-.371.223-.38.203-.382.199-.395.18-.398.168-.414.144-.422.14-.422.106-.437.106-.442.078-.445.066-.45.051-.456.027-.47.008-.464V26.203l-.008-.465-.027-.465-.05-.457-.067-.453-.078-.449-.211-.875-.14-.426-.145-.414-.168-.414-.18-.402-.2-.399-.202-.386-.223-.38-.242-.363-.254-.355-.262-.348-.277-.336-.29-.324-.304-.312-.312-.309-.329-.289-.335-.277-.348-.27-.356-.246-.37-.238-.372-.227-.39-.21-.395-.196-.398-.176-.414-.168-.422-.144-.422-.137-.438-.117-.433-.094-.453-.09-.45-.062-.457-.043-.468-.032-.465-.007H26.336Zm0 0"/>
  <path d="M156.007 114.63c-10.168 0-17.515 2.825-22.047 8.47-4.523 5.636-6.78 13.355-6.78 23.155 0 4.762.554 9.079 1.671 12.954 1.125 3.867 2.805 7.199 5.047 10 2.238 2.804 5.035 4.976 8.39 6.515 3.364 1.531 7.286 2.297 11.766 2.297 2.426 0 4.5-.047 6.219-.14 1.726-.094 3.242-.282 4.547-.563v-33.719h21.843v48c-2.617 1.031-6.82 2.125-12.609 3.281-5.781 1.165-12.918 1.75-21.406 1.75-7.281 0-13.887-1.117-19.813-3.343-5.918-2.239-10.976-5.504-15.172-9.797-4.199-4.3-7.445-9.578-9.734-15.828-2.281-6.25-3.422-13.383-3.422-21.407 0-8.113 1.258-15.296 3.781-21.546 2.52-6.258 5.97-11.555 10.344-15.891 4.383-4.344 9.54-7.633 15.469-9.875 5.926-2.238 12.25-3.36 18.969-3.36 4.57 0 8.695.31 12.375.922 3.687.606 6.86 1.305 9.515 2.094 2.664.793 4.86 1.61 6.578 2.453 1.727.836 2.97 1.485 3.72 1.953l-6.298 17.5c-2.992-1.582-6.422-2.957-10.297-4.125-3.867-1.164-8.085-1.75-12.656-1.75Zm46.047 43.938c0-6.531 1-12.242 3-17.14 2.007-4.895 4.644-8.973 7.906-12.235 3.27-3.27 7.023-5.742 11.265-7.422 4.25-1.687 8.614-2.531 13.094-2.531 10.445 0 18.703 3.2 24.766 9.594 6.07 6.386 9.11 15.789 9.11 28.203 0 1.21-.048 2.539-.141 3.984-.094 1.45-.188 2.73-.282 3.844H223.46c.469 4.293 2.472 7.7 6.015 10.219 3.551 2.523 8.313 3.78 14.282 3.78 3.82 0 7.578-.347 11.265-1.046 3.688-.695 6.696-1.563 9.032-2.594l2.796 16.938c-1.117.562-2.609 1.125-4.484 1.687-1.867.555-3.945 1.035-6.234 1.453a92.44 92.44 0 0 1-7.344 1.047 72.888 72.888 0 0 1-7.828.422c-6.625 0-12.387-.98-17.281-2.937-4.899-1.957-8.954-4.641-12.172-8.047-3.22-3.407-5.602-7.438-7.141-12.094-1.543-4.664-2.312-9.707-2.312-15.125Zm48.984-7.969a21.811 21.811 0 0 0-.906-5.187 12.915 12.915 0 0 0-2.375-4.469c-1.075-1.313-2.43-2.383-4.063-3.219-1.637-.844-3.668-1.265-6.094-1.265-2.336 0-4.34.398-6.015 1.187-1.68.793-3.078 1.844-4.203 3.156-1.118 1.305-1.98 2.82-2.594 4.547a29.716 29.716 0 0 0-1.328 5.25ZM95.179 242.74c-2.906 0-5.008.808-6.297 2.42-1.293 1.618-1.938 3.825-1.938 6.626 0 1.355.157 2.59.47 3.703.32 1.106.8 2.059 1.437 2.86a6.666 6.666 0 0 0 2.406 1.859c.957.437 2.078.656 3.36.656.695 0 1.288-.008 1.78-.031.5-.031.93-.086 1.297-.172v-9.64h6.25v13.718c-.75.293-1.953.606-3.609.938-1.648.332-3.684.5-6.11.5-2.085 0-3.976-.32-5.671-.954-1.688-.644-3.137-1.578-4.344-2.796-1.2-1.227-2.125-2.735-2.781-4.516-.649-1.79-.969-3.832-.969-6.125 0-2.32.36-4.375 1.078-6.156.719-1.79 1.703-3.305 2.953-4.547a12.54 12.54 0 0 1 4.422-2.813c1.695-.644 3.504-.968 5.422-.968 1.313 0 2.492.09 3.547.265 1.05.168 1.957.367 2.719.594.757.23 1.382.465 1.875.703.5.242.851.43 1.062.563l-1.797 5c-.855-.457-1.836-.852-2.937-1.188-1.106-.332-2.313-.5-3.625-.5Zm13.158 12.562c0-1.864.285-3.493.86-4.891.57-1.406 1.32-2.57 2.25-3.5a9.42 9.42 0 0 1 3.218-2.125 10.218 10.218 0 0 1 3.75-.719c2.988 0 5.347.914 7.078 2.735 1.738 1.824 2.61 4.511 2.61 8.062 0 .344-.016.727-.048 1.14-.023.407-.046.774-.078 1.094h-13.515c.132 1.23.707 2.204 1.718 2.922 1.008.72 2.368 1.078 4.079 1.078 1.093 0 2.164-.097 3.218-.296 1.051-.196 1.91-.442 2.578-.735l.797 4.828c-.312.168-.742.328-1.28.485-.532.156-1.126.289-1.782.406a27.42 27.42 0 0 1-2.094.312 20.29 20.29 0 0 1-2.234.125c-1.899 0-3.547-.28-4.953-.843-1.399-.563-2.555-1.328-3.47-2.297a9.279 9.279 0 0 1-2.046-3.469c-.438-1.332-.656-2.77-.656-4.312Zm14-2.282a5.617 5.617 0 0 0-.266-1.484 3.573 3.573 0 0 0-1.828-2.188c-.469-.25-1.055-.375-1.75-.375-.668 0-1.242.118-1.719.344-.48.23-.883.531-1.203.906a4.268 4.268 0 0 0-.734 1.297 9.159 9.159 0 0 0-.375 1.5Zm23.047-3.125a68.408 68.408 0 0 0-1.89-.406 10.891 10.891 0 0 0-2.313-.234c-.375 0-.824.039-1.344.11-.523.062-.914.136-1.172.218v16.078h-5.969v-19.922c1.07-.375 2.333-.726 3.782-1.062 1.457-.332 3.078-.5 4.86-.5.32 0 .706.023 1.155.062.457.043.91.102 1.36.172.457.062.91.14 1.36.234.456.094.847.203 1.171.328Zm15.755 4.61c0-1.926-.25-3.285-.75-4.078-.492-.801-1.336-1.204-2.531-1.204-.375 0-.766.024-1.172.063-.399.043-.778.09-1.14.14v16.235h-5.97v-20.313a37.888 37.888 0 0 1 3.938-.813 27.677 27.677 0 0 1 2.344-.28c.8-.07 1.586-.11 2.359-.11 1.52 0 2.754.196 3.703.578.945.387 1.727.844 2.344 1.375.851-.613 1.832-1.093 2.937-1.437 1.102-.344 2.125-.516 3.063-.516 1.676 0 3.05.235 4.125.703 1.082.461 1.941 1.118 2.578 1.97.645.855 1.086 1.87 1.328 3.046.238 1.168.36 2.477.36 3.922v11.875H172.7v-11.156c0-1.926-.25-3.285-.75-4.078-.492-.801-1.336-1.204-2.53-1.204-.325 0-.774.086-1.345.25-.574.157-1.047.356-1.422.594a8.91 8.91 0 0 1 .36 1.938c.05.68.078 1.402.078 2.172v11.484h-5.953Zm30.964 7c.582 0 1.14-.008 1.672-.032.531-.03.957-.07 1.281-.125v-4.53a12.479 12.479 0 0 0-1.078-.157 11.323 11.323 0 0 0-2.906.032 4.001 4.001 0 0 0-1.297.374 2.307 2.307 0 0 0-.89.766c-.212.312-.313.71-.313 1.187 0 .938.312 1.59.937 1.953.633.356 1.5.532 2.594.532Zm-.484-17.438c1.757 0 3.222.2 4.39.594 1.176.398 2.117.969 2.828 1.719.707.75 1.207 1.664 1.5 2.734.29 1.063.438 2.246.438 3.547v12.406a72.45 72.45 0 0 1-3.563.656c-1.511.25-3.351.375-5.515.375-1.356 0-2.59-.12-3.703-.359-1.106-.238-2.059-.629-2.86-1.172a5.485 5.485 0 0 1-1.828-2.14c-.43-.883-.64-1.97-.64-3.25 0-1.22.242-2.254.734-3.11a5.718 5.718 0 0 1 1.969-2.047 8.829 8.829 0 0 1 2.843-1.093 16.03 16.03 0 0 1 3.328-.344c.77 0 1.454.039 2.047.11a9.568 9.568 0 0 1 1.47.25v-.563c0-1.008-.31-1.82-.923-2.438-.617-.613-1.68-.922-3.187-.922a20.8 20.8 0 0 0-3.016.22c-.98.148-1.828.355-2.547.624l-.765-4.797a14.07 14.07 0 0 1 1.296-.344c.52-.125 1.086-.234 1.704-.328a32.544 32.544 0 0 1 1.937-.234 22.387 22.387 0 0 1 2.063-.094Zm14.557 1.281c1.008-.3 2.316-.578 3.922-.828a32.722 32.722 0 0 1 5.047-.375c1.78 0 3.265.235 4.453.703 1.187.461 2.125 1.118 2.812 1.97.696.855 1.192 1.87 1.485 3.046.289 1.168.437 2.477.437 3.922v11.875h-5.953v-11.156c0-1.926-.258-3.285-.766-4.078-.5-.801-1.445-1.204-2.828-1.204-.43 0-.886.024-1.375.063-.48.043-.902.09-1.265.14v16.235h-5.97Zm29.528 20.312h-5.968v-21.046h5.968Zm.547-27.124c0 1.094-.355 1.96-1.062 2.594-.7.625-1.527.937-2.485.937-.968 0-1.808-.312-2.515-.937-.7-.633-1.047-1.5-1.047-2.594 0-1.094.348-1.953 1.047-2.578.707-.625 1.547-.938 2.515-.938.958 0 1.786.313 2.485.938.707.625 1.062 1.484 1.062 2.578Zm23.013 26.406c-1.023.293-2.336.563-3.937.813-1.594.258-3.274.39-5.031.39-1.782 0-3.266-.242-4.453-.718-1.188-.477-2.133-1.149-2.829-2.016-.687-.875-1.183-1.91-1.484-3.11-.293-1.195-.438-2.515-.438-3.953v-11.734h5.97v11c0 1.93.25 3.32.75 4.172.507.855 1.456 1.281 2.843 1.281.426 0 .879-.02 1.36-.062.476-.04.906-.086 1.28-.14v-16.25h5.97Zm17.154-10.437c0-1.926-.25-3.285-.75-4.078-.492-.801-1.336-1.204-2.531-1.204-.375 0-.766.024-1.172.063-.399.043-.778.09-1.14.14v16.235h-5.97v-20.313a37.888 37.888 0 0 1 3.938-.813 27.677 27.677 0 0 1 2.344-.28c.8-.07 1.586-.11 2.36-.11 1.519 0 2.753.196 3.702.578.946.387 1.727.844 2.344 1.375.852-.613 1.832-1.093 2.937-1.437 1.102-.344 2.125-.516 3.063-.516 1.676 0 3.05.235 4.125.703 1.082.461 1.941 1.118 2.578 1.97.645.855 1.086 1.87 1.328 3.046.238 1.168.36 2.477.36 3.922v11.875h-5.954v-11.156c0-1.926-.25-3.285-.75-4.078-.492-.801-1.335-1.204-2.53-1.204-.325 0-.774.086-1.345.25-.574.157-1.046.356-1.421.594a8.97 8.97 0 0 1 .359 1.938c.05.68.078 1.402.078 2.172v11.484h-5.953Zm-133.591 73.821c.157-1.946.485-3.973.985-6.078a59.072 59.072 0 0 1 1.86-6.188 53.583 53.583 0 0 1 2.468-5.75c.906-1.8 1.828-3.36 2.765-4.672H138.86v-5.078h19.406v4.328c-.856.93-1.797 2.219-2.828 3.875-1.024 1.657-1.996 3.532-2.922 5.625a53.19 53.19 0 0 0-2.406 6.75 34.54 34.54 0 0 0-1.25 7.188Zm36.876-20.438a7.27 7.27 0 0 1-.609 2.922c-.398.93-.918 1.828-1.562 2.703-.637.867-1.356 1.7-2.157 2.5a122.18 122.18 0 0 1-2.36 2.266c-.398.375-.827.797-1.296 1.266a34.866 34.866 0 0 0-2.484 2.765c-.336.406-.54.746-.61 1.016h11.922v5h-18.484a6.209 6.209 0 0 1-.078-1.11v-.968c0-1.282.203-2.453.609-3.516.414-1.07.957-2.066 1.625-2.984a19.415 19.415 0 0 1 2.25-2.578c.844-.801 1.68-1.602 2.516-2.407.632-.613 1.234-1.191 1.797-1.734a20.189 20.189 0 0 0 1.484-1.61 7.557 7.557 0 0 0 1-1.546c.238-.52.36-1.051.36-1.594 0-1.164-.337-1.988-1-2.469-.669-.476-1.497-.719-2.485-.719-.719 0-1.399.118-2.031.344a9.34 9.34 0 0 0-1.72.797c-.51.305-.952.61-1.327.922-.375.305-.656.547-.844.734l-2.953-4.156c1.164-1.094 2.531-1.992 4.094-2.703a12.025 12.025 0 0 1 5.015-1.063c1.625 0 3.024.188 4.203.563 1.176.375 2.145.902 2.907 1.578a6.077 6.077 0 0 1 1.672 2.484c.363.97.546 2.07.546 3.297Zm11.517 17.282c0 1.199-.383 2.109-1.14 2.734-.762.625-1.622.937-2.579.937-.96 0-1.82-.312-2.578-.937-.761-.625-1.14-1.535-1.14-2.734 0-1.196.379-2.11 1.14-2.735.758-.633 1.617-.953 2.578-.953.957 0 1.817.32 2.578.953.758.625 1.141 1.54 1.141 2.735Zm12.153-9.891c-.586 0-1.211.058-1.875.172-.668.105-1.188.25-1.563.437 0 .106-.008.266-.016.485-.011.21-.015.39-.015.547 0 .968.062 1.882.187 2.734.133.844.364 1.59.688 2.234.32.637.75 1.137 1.281 1.5.531.356 1.195.532 2 .532.664 0 1.234-.133 1.703-.407a3.772 3.772 0 0 0 1.156-1.062 4.62 4.62 0 0 0 .672-1.422c.157-.52.235-1.02.235-1.5 0-1.363-.344-2.41-1.032-3.14-.68-.739-1.82-1.11-3.421-1.11Zm.765-4.64c1.727 0 3.195.234 4.406.702 1.22.47 2.211 1.106 2.985 1.907a7.1 7.1 0 0 1 1.687 2.797c.344 1.062.516 2.199.516 3.406 0 1.062-.195 2.156-.578 3.281a9.123 9.123 0 0 1-1.766 3.031c-.781.907-1.781 1.657-3 2.25-1.21.582-2.637.875-4.281.875-3.336 0-5.871-1.05-7.61-3.156-1.73-2.113-2.593-5.02-2.593-8.719 0-2.664.41-5.023 1.234-7.078.82-2.062 2-3.789 3.531-5.187 1.54-1.407 3.395-2.473 5.563-3.203 2.176-.727 4.625-1.11 7.344-1.141.05.824.101 1.633.156 2.422.062.793.117 1.61.172 2.453a23.24 23.24 0 0 0-3.828.39 13.06 13.06 0 0 0-3.25 1.063 8.92 8.92 0 0 0-2.532 1.86c-.718.761-1.277 1.687-1.671 2.78a7.104 7.104 0 0 1 1.796-.562 9.516 9.516 0 0 1 1.72-.172Zm20.126 18.281c-.719 0-1.48-.047-2.281-.141a26.337 26.337 0 0 1-2.328-.375 23.58 23.58 0 0 1-2.031-.516 12.157 12.157 0 0 1-1.438-.515l1.156-4.97c.688.294 1.57.606 2.657.938 1.082.336 2.421.5 4.015.5 1.844 0 3.192-.343 4.047-1.03.852-.696 1.281-1.63 1.281-2.798 0-.726-.156-1.336-.468-1.828a3.48 3.48 0 0 0-1.25-1.187c-.532-.313-1.168-.524-1.907-.641a13.9 13.9 0 0 0-2.343-.187h-2.313v-4.797h2.64c.583 0 1.145-.051 1.688-.157a4.833 4.833 0 0 0 1.469-.546 2.87 2.87 0 0 0 1.016-1.047c.257-.438.39-.989.39-1.657 0-.507-.11-.945-.328-1.312a2.85 2.85 0 0 0-.812-.922 3.576 3.576 0 0 0-1.172-.531 4.826 4.826 0 0 0-1.328-.188c-1.149 0-2.211.172-3.188.516a13.17 13.17 0 0 0-2.656 1.281l-2.125-4.36a18.8 18.8 0 0 1 1.5-.843c.57-.289 1.203-.555 1.89-.797a17.344 17.344 0 0 1 2.22-.594c.788-.164 1.628-.25 2.515-.25 1.625 0 3.031.196 4.219.579 1.187.386 2.164.933 2.937 1.64a6.73 6.73 0 0 1 1.719 2.485c.375.949.562 1.98.562 3.093 0 1.094-.308 2.157-.922 3.188a6.097 6.097 0 0 1-2.468 2.328c1.437.594 2.547 1.469 3.328 2.625.789 1.156 1.187 2.555 1.187 4.187 0 1.282-.214 2.465-.64 3.547a7.223 7.223 0 0 1-2 2.797c-.907.781-2.063 1.39-3.469 1.828-1.398.438-3.055.657-4.969.657ZM46.625 76.844c-.719 0-1.48-.047-2.281-.14a26.337 26.337 0 0 1-2.328-.376 23.58 23.58 0 0 1-2.032-.515 12.157 12.157 0 0 1-1.437-.516l1.156-4.969c.688.293 1.57.606 2.656.938 1.082.336 2.422.5 4.016.5 1.844 0 3.191-.344 4.047-1.032.851-.695 1.281-1.629 1.281-2.796 0-.727-.156-1.336-.469-1.829a3.48 3.48 0 0 0-1.25-1.187c-.53-.313-1.168-.524-1.906-.64a13.9 13.9 0 0 0-2.344-.188h-2.312v-4.797h2.64c.583 0 1.145-.05 1.688-.156a4.833 4.833 0 0 0 1.469-.547 2.87 2.87 0 0 0 1.015-1.047c.258-.438.391-.988.391-1.656 0-.508-.11-.946-.328-1.313a2.85 2.85 0 0 0-.813-.922 3.576 3.576 0 0 0-1.171-.531 4.826 4.826 0 0 0-1.329-.187c-1.148 0-2.21.171-3.187.515a13.17 13.17 0 0 0-2.656 1.281l-2.125-4.359a18.8 18.8 0 0 1 1.5-.844c.57-.289 1.203-.554 1.89-.797a17.344 17.344 0 0 1 2.219-.593c.79-.164 1.629-.25 2.516-.25 1.625 0 3.03.195 4.218.578 1.188.386 2.164.933 2.938 1.64a6.73 6.73 0 0 1 1.719 2.485c.375.949.562 1.98.562 3.094 0 1.093-.308 2.156-.922 3.187a6.097 6.097 0 0 1-2.468 2.328c1.437.594 2.546 1.469 3.328 2.625.789 1.156 1.187 2.555 1.187 4.188 0 1.28-.215 2.464-.64 3.547a7.223 7.223 0 0 1-2 2.796c-.907.782-2.063 1.391-3.47 1.829-1.398.437-3.054.656-4.968.656Zm33.436-21.031a7.27 7.27 0 0 1-.609 2.921c-.398.93-.918 1.829-1.562 2.704a21.752 21.752 0 0 1-2.157 2.5 122.18 122.18 0 0 1-2.359 2.265c-.398.375-.828.797-1.297 1.266a34.866 34.866 0 0 0-2.484 2.765c-.336.407-.54.746-.61 1.016h11.922v5H62.421a6.209 6.209 0 0 1-.078-1.11v-.968c0-1.281.203-2.453.61-3.516.413-1.07.956-2.066 1.624-2.984a19.415 19.415 0 0 1 2.25-2.578c.844-.801 1.68-1.602 2.516-2.406.633-.614 1.234-1.192 1.797-1.735a20.189 20.189 0 0 0 1.484-1.61 7.557 7.557 0 0 0 1-1.546c.238-.52.36-1.05.36-1.594 0-1.164-.337-1.988-1-2.469-.669-.476-1.497-.718-2.485-.718-.719 0-1.398.117-2.031.343-.625.22-1.2.485-1.719.797-.512.305-.953.61-1.328.922-.375.305-.656.547-.844.735l-2.953-4.157c1.164-1.093 2.531-1.992 4.094-2.703a12.025 12.025 0 0 1 5.015-1.062c1.625 0 3.024.187 4.203.562 1.176.375 2.145.902 2.907 1.578a6.077 6.077 0 0 1 1.672 2.485c.363.968.546 2.07.546 3.297Zm0 0"/>
</svg>
