<svg xmlns="http://www.w3.org/2000/svg" version="1.2" viewBox="0 0 375 375">
  <path d="m359.121 5.996.461.043.45.066.448.086.438.094.437.117.422.137.422.145.414.168.399.175.39.196.395.21.371.227.371.238.356.25.347.266.336.277.328.293.313.305.304.313.29.324.277.336.262.347.253.36.239.367.226.371.203.395.2.39.18.41.167.407.145.421.137.426.109.43.101.445.083.442.066.46.05.458.028.457.008.472v340.74l-.008.464-.027.465-.051.461-.066.45-.082.445-.102.441-.11.438-.136.422-.145.421-.168.414-.18.399-.199.39-.203.387-.226.38-.239.37-.253.356-.262.347-.277.336-.29.328-.304.313-.313.305-.328.289-.336.277-.347.262-.356.254-.371.242-.371.215-.395.21-.39.2-.399.18-.414.168-.422.144-.422.133-.437.113-.438.102-.449.082-.449.066-.46.05-.466.028-.465.008H17.453l-.465-.008-.465-.027-.457-.05-.46-.067-.442-.082-.445-.102-.43-.113-.426-.133-.422-.144-.406-.168-.41-.18-.39-.2-.387-.21-.38-.215-.366-.242-.36-.254-.347-.262-.336-.277-.325-.29-.312-.304-.305-.313-.293-.328-.277-.336-.262-.347-.254-.356-.238-.37-.227-.38-.21-.386-.188-.391-.184-.399-.168-.414-.144-.421-.137-.422-.117-.438-.094-.441-.086-.446-.058-.449-.051-.46-.031-.466-.008-.464V17.32l.008-.472.03-.457.052-.457.058-.461.086-.442.094-.445.117-.43.137-.426.144-.421.168-.407.184-.41.187-.39.211-.395.227-.371.238-.367.254-.36.262-.347.277-.336.293-.324.305-.313.312-.305.325-.293.336-.277.347-.266.36-.25.367-.238.379-.226.386-.211.391-.196.41-.175.406-.168.422-.145.426-.137.43-.117.445-.094.441-.086.461-.066.457-.043.465-.031.465-.008h340.738l.465.008Zm-333.25 8.86-.465.03-.457.044-.453.062-.45.09-.437.094-.437.117-.426.137-.414.144-.414.168-.402.176-.399.195-.387.211-.378.227-.364.238-.355.246-.348.27-.336.277-.324.29-.313.308-.308.312-.29.324-.276.336-.27.348-.246.355-.238.364-.227.379-.21.386-.188.399-.184.402-.168.414-.145.414-.136.426-.117.438-.094.437-.09.45-.055.452-.05.457-.032.465-.008.465v322.965l.008.465.032.469.05.457.055.449.09.445.094.442.117.437.136.422.145.422.168.414.184.398.187.395.211.383.227.379.238.37.246.356.27.348.277.336.289.328.308.312.313.305.324.29.336.276.348.262.355.254.364.242.378.215.387.211.399.2.402.179.414.168.414.144.426.133.437.113.438.106.45.078.452.067.457.05.465.028.465.007H349.3l.465-.007.468-.028.457-.05.45-.067.453-.078.433-.106.438-.113.422-.133.422-.144.414-.168.398-.18.395-.199.39-.21.371-.216.371-.242.356-.254.348-.262.336-.277.328-.289.312-.305.305-.312.289-.328.277-.336.262-.348.254-.355.242-.371.223-.38.203-.382.199-.395.18-.398.168-.414.144-.422.14-.422.106-.437.106-.442.078-.445.066-.45.051-.456.027-.47.008-.464V26.203l-.008-.465-.027-.465-.05-.457-.067-.453-.078-.449-.211-.875-.14-.426-.145-.414-.168-.414-.18-.402-.2-.399-.202-.386-.223-.38-.242-.363-.254-.355-.262-.348-.277-.336-.29-.324-.304-.312-.312-.309-.329-.289-.335-.277-.348-.27-.356-.246-.37-.238-.372-.227-.39-.21-.395-.196-.398-.176-.414-.168-.422-.144-.422-.137-.438-.117-.433-.094-.453-.09-.45-.062-.457-.043-.468-.032-.465-.007H26.336Zm0 0"/>
  <path d="M179.246 194.818c-1.031-3.352-2.18-6.8-3.438-10.344a801.346 801.346 0 0 1-3.703-10.656h-37.797a931.15 931.15 0 0 1-3.703 10.656 232.96 232.96 0 0 0-3.422 10.344h-22.671a1737.965 1737.965 0 0 1 10.343-28.969 1034.66 1034.66 0 0 1 9.594-25.047 886.481 886.481 0 0 1 9.234-22.328 485.946 485.946 0 0 1 9.454-20.64h20.843a761.587 761.587 0 0 1 9.375 20.64 725.993 725.993 0 0 1 9.313 22.328 1001.115 1001.115 0 0 1 9.578 25.047 1695.49 1695.49 0 0 1 10.36 28.969Zm-26.172-75.016c-.469 1.399-1.172 3.309-2.11 5.735-.929 2.43-2 5.23-3.218 8.406-1.211 3.168-2.54 6.668-3.984 10.5a601.498 601.498 0 0 0-4.407 12.031h27.563a1206.414 1206.414 0 0 0-4.344-12.031 402.996 402.996 0 0 0-3.984-10.5c-1.25-3.176-2.344-5.977-3.282-8.406a979.828 979.828 0 0 0-2.234-5.735Zm81.862 60.048c3.832 0 6.539-.376 8.125-1.126 1.582-.75 2.375-2.195 2.375-4.344 0-1.675-1.028-3.144-3.078-4.406-2.055-1.258-5.18-2.68-9.375-4.265-3.262-1.207-6.227-2.461-8.891-3.766-2.656-1.313-4.918-2.879-6.781-4.703-1.867-1.82-3.313-3.988-4.344-6.5-1.023-2.52-1.531-5.555-1.531-9.11 0-6.894 2.562-12.347 7.687-16.359 5.133-4.02 12.18-6.031 21.14-6.031 4.477 0 8.77.398 12.876 1.187 4.101.793 7.367 1.657 9.797 2.594l-3.64 16.234c-2.43-.843-5.063-1.585-7.907-2.234-2.844-.656-6.043-.984-9.594-.984-6.531 0-9.797 1.82-9.797 5.453 0 .844.14 1.594.422 2.25.281.648.836 1.277 1.672 1.89.844.606 1.988 1.258 3.438 1.954 1.445.699 3.289 1.468 5.53 2.312 4.571 1.68 8.348 3.336 11.329 4.969 2.988 1.637 5.348 3.414 7.078 5.328 1.727 1.906 2.941 4.027 3.64 6.36.696 2.335 1.048 5.038 1.048 8.109 0 7.28-2.73 12.789-8.188 16.515-5.46 3.727-13.18 5.594-23.156 5.594-6.531 0-11.969-.562-16.313-1.687-4.336-1.114-7.343-2.04-9.031-2.782l3.5-16.937a69.636 69.636 0 0 0 10.922 3.297 52.964 52.964 0 0 0 11.047 1.187Zm-97.47 85.811a85.348 85.348 0 0 0-1-2.953 404.91 404.91 0 0 1-1.047-3.047h-10.797a213.545 213.545 0 0 1-1.062 3.047 56.835 56.835 0 0 0-.985 2.953h-6.468a394.551 394.551 0 0 1 2.953-8.281 350.71 350.71 0 0 1 2.734-7.157 258.187 258.187 0 0 1 2.64-6.375 154.315 154.315 0 0 1 2.704-5.906h5.969a199.158 199.158 0 0 1 2.672 5.906 193.088 193.088 0 0 1 2.656 6.375 277.947 277.947 0 0 1 2.734 7.157 468.758 468.758 0 0 1 2.969 8.281Zm-7.484-21.438c-.137.399-.34.946-.61 1.641a338.1 338.1 0 0 1-.922 2.39c-.343.907-.726 1.907-1.14 3a222.509 222.509 0 0 0-1.25 3.454h7.875c-.43-1.207-.84-2.36-1.235-3.453a101.479 101.479 0 0 0-1.14-3 226.52 226.52 0 0 1-.953-2.39c-.262-.696-.47-1.243-.625-1.642Zm30.043 5.672a68.408 68.408 0 0 0-1.891-.406 10.891 10.891 0 0 0-2.313-.234c-.375 0-.824.039-1.343.11-.524.062-.914.136-1.172.218v16.078h-5.969v-19.922c1.07-.375 2.332-.726 3.781-1.062 1.457-.332 3.078-.5 4.86-.5.32 0 .707.023 1.156.062.457.043.91.102 1.36.172.456.062.91.14 1.359.234.457.094.847.203 1.172.328Zm10.239 11.485c1.094 0 1.863-.102 2.312-.313.457-.219.688-.633.688-1.25 0-.476-.297-.894-.89-1.25-.587-.363-1.477-.77-2.673-1.219a29.81 29.81 0 0 1-2.547-1.078c-.761-.375-1.406-.82-1.937-1.343a5.38 5.38 0 0 1-1.234-1.86c-.293-.726-.438-1.597-.438-2.61 0-1.968.727-3.523 2.188-4.671 1.468-1.145 3.484-1.719 6.046-1.719 1.282 0 2.504.117 3.672.344 1.176.219 2.114.465 2.813.734l-1.047 4.641a21.726 21.726 0 0 0-2.266-.64c-.812-.188-1.726-.282-2.734-.282-1.867 0-2.797.524-2.797 1.563 0 .242.035.453.11.64.081.188.242.371.484.547.238.168.566.352.984.547.414.2.942.418 1.578.656 1.313.48 2.395.953 3.25 1.422.852.469 1.524.98 2.016 1.531a4.717 4.717 0 0 1 1.031 1.813c.207.668.313 1.437.313 2.312 0 2.086-.782 3.664-2.344 4.735-1.563 1.062-3.774 1.593-6.625 1.593-1.867 0-3.418-.164-4.656-.484-1.243-.32-2.102-.586-2.578-.797l1-4.844c1.007.407 2.046.727 3.109.954a15.82 15.82 0 0 0 3.172.328Zm12.353-6.078c0-1.864.285-3.493.86-4.891.57-1.406 1.32-2.57 2.25-3.5a9.42 9.42 0 0 1 3.218-2.125 10.218 10.218 0 0 1 3.75-.719c2.988 0 5.348.914 7.078 2.735 1.738 1.824 2.61 4.511 2.61 8.062 0 .344-.016.727-.048 1.14-.023.407-.046.774-.078 1.094h-13.515c.133 1.231.707 2.204 1.718 2.922 1.008.72 2.368 1.078 4.079 1.078 1.093 0 2.164-.097 3.218-.296 1.051-.196 1.91-.442 2.578-.735l.797 4.828c-.312.168-.742.328-1.28.485-.532.156-1.126.289-1.782.406a27.42 27.42 0 0 1-2.094.312 20.29 20.29 0 0 1-2.234.125c-1.899 0-3.547-.28-4.953-.843-1.399-.563-2.555-1.328-3.47-2.297a9.279 9.279 0 0 1-2.046-3.469c-.438-1.332-.656-2.77-.656-4.312Zm14-2.282a5.617 5.617 0 0 0-.266-1.484 3.573 3.573 0 0 0-1.828-2.188c-.469-.25-1.055-.375-1.75-.375-.668 0-1.242.118-1.719.344-.48.23-.883.531-1.203.906a4.268 4.268 0 0 0-.734 1.297 9.159 9.159 0 0 0-.375 1.5Zm10.36-7.672c1.007-.3 2.316-.578 3.921-.828a32.722 32.722 0 0 1 5.047-.375c1.782 0 3.266.235 4.453.703 1.188.461 2.125 1.118 2.813 1.97.695.855 1.191 1.87 1.484 3.046.29 1.168.438 2.477.438 3.922v11.875h-5.953v-11.156c0-1.926-.258-3.285-.766-4.078-.5-.801-1.445-1.204-2.828-1.204-.43 0-.887.024-1.375.063-.48.043-.902.09-1.266.14v16.235h-5.968Zm29.528 20.313h-5.969v-21.047h5.97Zm.547-27.125c0 1.094-.355 1.96-1.063 2.594-.699.625-1.527.937-2.484.937-.969 0-1.808-.312-2.516-.937-.699-.633-1.046-1.5-1.046-2.594 0-1.094.347-1.953 1.046-2.578.708-.625 1.547-.938 2.516-.938.957 0 1.785.313 2.484.938.708.625 1.063 1.484 1.063 2.578Zm4.044 16.609c0-1.52.242-2.953.735-4.297.5-1.351 1.21-2.53 2.14-3.53.938-1 2.07-1.79 3.407-2.376 1.332-.582 2.851-.875 4.562-.875 1.113 0 2.14.102 3.078.297.938.2 1.844.484 2.719.86l-1.234 4.75a15.693 15.693 0 0 0-1.844-.547 9.377 9.377 0 0 0-2.235-.25c-1.761 0-3.078.546-3.953 1.64-.867 1.094-1.297 2.54-1.297 4.328 0 1.887.407 3.352 1.22 4.391.812 1.043 2.234 1.562 4.265 1.562.719 0 1.488-.062 2.312-.187a9.187 9.187 0 0 0 2.282-.656l.843 4.89c-.687.293-1.554.54-2.593.75-1.043.22-2.188.328-3.438.328-1.93 0-3.586-.289-4.969-.859-1.386-.57-2.527-1.351-3.422-2.344-.886-.988-1.539-2.156-1.953-3.5-.418-1.343-.625-2.8-.625-4.375Zm-98.269 73.181c.157-1.946.485-3.973.985-6.078a59.072 59.072 0 0 1 1.86-6.188 53.583 53.583 0 0 1 2.468-5.75c.906-1.8 1.828-3.36 2.765-4.672H138.86v-5.078h19.406v4.328c-.856.93-1.797 2.219-2.828 3.875-1.024 1.656-1.996 3.531-2.922 5.625a53.19 53.19 0 0 0-2.406 6.75 34.54 34.54 0 0 0-1.25 7.188Zm29.798-20.438a247.352 247.352 0 0 0-3.328 4.438 31.341 31.341 0 0 0-2.953 4.922h6.281Zm5.828-7.281v16.64h2.97v4.876h-2.97v6.203h-5.828v-6.203h-11.968v-4.36a74.056 74.056 0 0 1 2.203-3.969 69.398 69.398 0 0 1 2.937-4.562 80.118 80.118 0 0 1 3.422-4.578 48.177 48.177 0 0 1 3.594-4.047Zm12.767 24.563c0 1.199-.383 2.109-1.14 2.734-.762.625-1.622.937-2.579.937-.96 0-1.82-.312-2.578-.937-.761-.625-1.14-1.535-1.14-2.735 0-1.195.379-2.109 1.14-2.734.758-.633 1.617-.953 2.578-.953.957 0 1.817.32 2.578.953.758.625 1.141 1.54 1.141 2.734Zm12.762-11.72c.613 0 1.254-.054 1.922-.171.664-.125 1.156-.297 1.469-.516v-.36c0-.1.003-.206.015-.312a1.75 1.75 0 0 0 .031-.28 22.022 22.022 0 0 0-.25-2.704c-.125-.844-.351-1.578-.671-2.203a3.775 3.775 0 0 0-1.313-1.469c-.543-.363-1.21-.547-2-.547-.648 0-1.21.137-1.687.406-.48.262-.868.606-1.157 1.032-.293.43-.511.898-.656 1.406-.148.5-.219.992-.219 1.469 0 1.449.348 2.523 1.047 3.218.707.688 1.863 1.032 3.469 1.032Zm2.922 3.876a7.221 7.221 0 0 1-1.875.593c-.68.118-1.258.172-1.735.172-1.73 0-3.21-.207-4.437-.625-1.23-.414-2.242-1.004-3.031-1.765a6.998 6.998 0 0 1-1.735-2.735c-.367-1.062-.547-2.234-.547-3.515 0-1.07.176-2.164.532-3.282a9.002 9.002 0 0 1 1.703-3.062c.77-.914 1.75-1.676 2.937-2.281 1.188-.602 2.617-.907 4.297-.907 3.445 0 6.04 1.063 7.781 3.188 1.75 2.117 2.625 5.164 2.625 9.14 0 2.618-.343 4.922-1.03 6.922-.68 2-1.731 3.684-3.157 5.047-1.418 1.356-3.234 2.387-5.453 3.094-2.211.711-4.836 1.07-7.875 1.094a90.625 90.625 0 0 0-.125-2.469c-.055-.8-.106-1.629-.156-2.484 1.52-.032 2.89-.145 4.109-.344 1.226-.195 2.305-.531 3.234-1a7.477 7.477 0 0 0 2.39-1.86c.657-.769 1.173-1.742 1.548-2.921Zm28.079-9.438a7.27 7.27 0 0 1-.61 2.922 13.5 13.5 0 0 1-1.562 2.703c-.637.867-1.355 1.7-2.156 2.5a122.18 122.18 0 0 1-2.36 2.266 61.78 61.78 0 0 0-1.296 1.265 34.866 34.866 0 0 0-2.485 2.766c-.336.406-.539.746-.61 1.016h11.923v5h-18.485a6.209 6.209 0 0 1-.078-1.11v-.968c0-1.282.203-2.454.61-3.516.414-1.07.957-2.066 1.625-2.984a19.415 19.415 0 0 1 2.25-2.579c.843-.8 1.68-1.601 2.515-2.406.633-.613 1.235-1.191 1.797-1.734a20.189 20.189 0 0 0 1.484-1.61 7.557 7.557 0 0 0 1-1.546c.239-.52.36-1.051.36-1.594 0-1.164-.336-1.988-1-2.469-.668-.476-1.496-.719-2.485-.719a6 6 0 0 0-2.03.344c-.626.219-1.2.484-1.72.797-.511.305-.953.61-1.328.922a11.83 11.83 0 0 0-.843.734l-2.954-4.156c1.165-1.094 2.532-1.992 4.094-2.703a12.025 12.025 0 0 1 5.016-1.063c1.625 0 3.023.188 4.203.563 1.176.375 2.145.902 2.906 1.578a6.077 6.077 0 0 1 1.672 2.484c.363.97.547 2.07.547 3.297ZM46.625 76.844c-.719 0-1.48-.047-2.281-.14a26.337 26.337 0 0 1-2.328-.376 23.58 23.58 0 0 1-2.032-.516 12.157 12.157 0 0 1-1.437-.515l1.156-4.969c.688.293 1.57.606 2.656.938 1.082.336 2.422.5 4.016.5 1.844 0 3.191-.344 4.047-1.032.851-.695 1.281-1.629 1.281-2.797 0-.726-.156-1.335-.469-1.828a3.48 3.48 0 0 0-1.25-1.187c-.53-.313-1.168-.524-1.906-.64a13.9 13.9 0 0 0-2.344-.188h-2.312v-4.797h2.64c.583 0 1.145-.05 1.688-.156a4.833 4.833 0 0 0 1.469-.547 2.87 2.87 0 0 0 1.015-1.047c.258-.438.391-.988.391-1.656 0-.508-.11-.946-.328-1.313a2.85 2.85 0 0 0-.813-.922 3.576 3.576 0 0 0-1.171-.531 4.826 4.826 0 0 0-1.329-.188c-1.148 0-2.21.172-3.187.516a13.17 13.17 0 0 0-2.656 1.281l-2.125-4.359a18.8 18.8 0 0 1 1.5-.844c.57-.289 1.203-.554 1.89-.797a17.344 17.344 0 0 1 2.219-.593c.79-.164 1.629-.25 2.516-.25 1.625 0 3.03.195 4.218.578 1.188.386 2.164.933 2.938 1.64a6.73 6.73 0 0 1 1.719 2.485c.375.949.562 1.98.562 3.093 0 1.094-.308 2.157-.922 3.188a6.097 6.097 0 0 1-2.468 2.328c1.437.594 2.546 1.469 3.328 2.625.789 1.156 1.187 2.555 1.187 4.188 0 1.28-.215 2.464-.64 3.546a7.223 7.223 0 0 1-2 2.797c-.907.782-2.063 1.391-3.47 1.828-1.398.438-3.054.657-4.968.657Zm22.718 0c-.719 0-1.48-.047-2.282-.14a26.337 26.337 0 0 1-2.328-.376 23.58 23.58 0 0 1-2.03-.516 12.157 12.157 0 0 1-1.438-.515l1.156-4.969c.687.293 1.57.606 2.656.938 1.082.336 2.422.5 4.016.5 1.843 0 3.191-.344 4.047-1.032.851-.695 1.28-1.629 1.28-2.797 0-.726-.155-1.335-.468-1.828a3.48 3.48 0 0 0-1.25-1.187c-.531-.313-1.168-.524-1.906-.64a13.9 13.9 0 0 0-2.344-.188H66.14v-4.797h2.64c.582 0 1.145-.05 1.688-.156a4.833 4.833 0 0 0 1.468-.547 2.87 2.87 0 0 0 1.016-1.047c.258-.438.39-.988.39-1.656 0-.508-.109-.946-.327-1.313a2.85 2.85 0 0 0-.813-.922 3.576 3.576 0 0 0-1.172-.531 4.826 4.826 0 0 0-1.328-.188c-1.148 0-2.21.172-3.187.516a13.17 13.17 0 0 0-2.657 1.281l-2.125-4.359a18.8 18.8 0 0 1 1.5-.844 15.91 15.91 0 0 1 1.891-.797 17.344 17.344 0 0 1 2.219-.593c.789-.164 1.629-.25 2.515-.25 1.625 0 3.032.195 4.22.578 1.187.386 2.163.933 2.937 1.64a6.73 6.73 0 0 1 1.718 2.485c.375.949.563 1.98.563 3.093 0 1.094-.309 2.157-.922 3.188a6.097 6.097 0 0 1-2.469 2.328c1.438.594 2.547 1.469 3.328 2.625.79 1.156 1.188 2.555 1.188 4.188 0 1.28-.215 2.464-.64 3.546a7.223 7.223 0 0 1-2 2.797c-.907.782-2.063 1.391-3.47 1.828-1.398.438-3.054.657-4.968.657Zm0 0"/>
</svg>
