<svg xmlns="http://www.w3.org/2000/svg" version="1.2" viewBox="0 0 375 375">
  <path d="m359.121 5.996.461.043.45.066.448.086.438.094.437.117.422.137.422.145.414.168.399.175.39.196.395.21.371.227.371.238.356.25.347.266.336.277.328.293.313.305.304.313.29.324.277.336.262.347.253.36.239.367.226.371.203.395.2.39.18.41.167.407.145.421.137.426.109.43.101.445.083.442.066.46.05.458.028.457.008.472v340.74l-.008.464-.027.465-.051.461-.066.45-.082.445-.102.441-.11.438-.136.422-.145.421-.168.414-.18.399-.199.39-.203.387-.226.38-.239.37-.253.356-.262.347-.277.336-.29.328-.304.313-.313.305-.328.289-.336.277-.347.262-.356.254-.371.242-.371.215-.395.21-.39.2-.399.18-.414.168-.422.144-.422.133-.437.113-.438.102-.449.082-.449.066-.46.05-.466.028-.465.008H17.453l-.465-.008-.465-.027-.457-.05-.46-.067-.442-.082-.445-.102-.43-.113-.426-.133-.422-.144-.406-.168-.41-.18-.39-.2-.387-.21-.38-.215-.366-.242-.36-.254-.347-.262-.336-.277-.325-.29-.312-.304-.305-.313-.293-.328-.277-.336-.262-.347-.254-.356-.238-.37-.227-.38-.21-.386-.188-.391-.184-.399-.168-.414-.144-.421-.137-.422-.117-.438-.094-.441-.086-.446-.058-.449-.051-.46-.031-.466-.008-.464V17.32l.008-.472.03-.457.052-.457.058-.461.086-.442.094-.445.117-.43.137-.426.144-.421.168-.407.184-.41.187-.39.211-.395.227-.371.238-.367.254-.36.262-.347.277-.336.293-.324.305-.313.312-.305.325-.293.336-.277.347-.266.36-.25.367-.238.379-.226.386-.211.391-.196.41-.175.406-.168.422-.145.426-.137.43-.117.445-.094.441-.086.461-.066.457-.043.465-.031.465-.008h340.738l.465.008Zm-333.25 8.86-.465.03-.457.044-.453.062-.45.09-.437.094-.437.117-.426.137-.414.144-.414.168-.402.176-.399.195-.387.211-.378.227-.364.238-.355.246-.348.27-.336.277-.324.29-.313.308-.308.312-.29.324-.276.336-.27.348-.246.355-.238.364-.227.379-.21.386-.188.399-.184.402-.168.414-.145.414-.136.426-.117.438-.094.437-.09.45-.055.452-.05.457-.032.465-.008.465v322.965l.008.465.032.469.05.457.055.449.09.445.094.442.117.437.136.422.145.422.168.414.184.398.187.395.211.383.227.379.238.37.246.356.27.348.277.336.289.328.308.312.313.305.324.29.336.276.348.262.355.254.364.242.378.215.387.211.399.2.402.179.414.168.414.144.426.133.437.113.438.106.45.078.452.067.457.05.465.028.465.007H349.3l.465-.007.468-.028.457-.05.45-.067.453-.078.433-.106.438-.113.422-.133.422-.144.414-.168.398-.18.395-.199.39-.21.371-.216.371-.242.356-.254.348-.262.336-.277.328-.289.312-.305.305-.312.289-.328.277-.336.262-.348.254-.355.242-.371.223-.38.203-.382.199-.395.18-.398.168-.414.144-.422.14-.422.106-.437.106-.442.078-.445.066-.45.051-.456.027-.47.008-.464V26.203l-.008-.465-.027-.465-.05-.457-.067-.453-.078-.449-.211-.875-.14-.426-.145-.414-.168-.414-.18-.402-.2-.399-.202-.386-.223-.38-.242-.363-.254-.355-.262-.348-.277-.336-.29-.324-.304-.312-.312-.309-.329-.289-.335-.277-.348-.27-.356-.246-.37-.238-.372-.227-.39-.21-.395-.196-.398-.176-.414-.168-.422-.144-.422-.137-.438-.117-.433-.094-.453-.09-.45-.062-.457-.043-.468-.032-.465-.007H26.336Zm0 0"/>
  <path d="M138.167 96.67c14.55 0 25.695 2.59 33.437 7.766 7.75 5.18 11.625 13.226 11.625 24.14 0 6.813-1.562 12.344-4.687 16.594-3.125 4.242-7.625 7.574-13.5 10 1.957 2.43 4.007 5.203 6.156 8.328a232.327 232.327 0 0 1 6.36 9.797 191.467 191.467 0 0 1 6.093 10.64 271.147 271.147 0 0 1 5.453 10.844H164.62c-1.774-3.175-3.57-6.394-5.39-9.656a230.341 230.341 0 0 0-5.61-9.516c-1.907-3.082-3.793-6-5.657-8.75-1.867-2.75-3.73-5.242-5.593-7.484h-10.782v35.406H109.76V99.186c4.75-.926 9.664-1.579 14.75-1.954 5.094-.375 9.645-.562 13.657-.562Zm1.25 18.61c-1.586 0-3.008.046-4.266.14-1.262.094-2.45.187-3.563.281v26.313h6.157c8.207 0 14.082-1.024 17.625-3.078 3.55-2.051 5.328-5.551 5.328-10.5 0-4.75-1.797-8.13-5.39-10.141-3.595-2.008-8.891-3.016-15.891-3.016Zm109.444 42.124c0-13.425-4.945-20.14-14.828-20.14-2.148 0-4.273.28-6.375.843-2.094.555-3.793 1.25-5.094 2.094v37.922c1.02.188 2.32.356 3.907.5a60.92 60.92 0 0 0 5.187.203c5.688 0 9.973-1.957 12.86-5.875 2.894-3.914 4.343-9.097 4.343-15.547Zm21.282.563c0 5.887-.868 11.21-2.594 15.969-1.719 4.75-4.215 8.808-7.485 12.171-3.261 3.356-7.273 5.946-12.03 7.766-4.763 1.813-10.173 2.719-16.235 2.719-2.524 0-5.164-.117-7.922-.344-2.75-.23-5.453-.531-8.11-.906a114.59 114.59 0 0 1-7.624-1.328c-2.43-.52-4.575-1.055-6.438-1.61V89.53l20.86-3.36v36.673a39.82 39.82 0 0 1 7.265-2.375c2.52-.563 5.227-.844 8.125-.844 5.219 0 9.832.914 13.844 2.734 4.02 1.813 7.379 4.403 10.078 7.766 2.707 3.356 4.758 7.39 6.156 12.11 1.406 4.71 2.11 9.953 2.11 15.734Zm-161.19 79.608c4.164 0 7.352.746 9.563 2.235 2.218 1.48 3.328 3.777 3.328 6.89 0 1.95-.45 3.532-1.344 4.75-.898 1.211-2.184 2.164-3.86 2.86.563.687 1.15 1.48 1.766 2.375a67.78 67.78 0 0 1 1.813 2.797 47.04 47.04 0 0 1 1.734 3.047 76.86 76.86 0 0 1 1.563 3.093h-7c-.5-.906-1.012-1.82-1.532-2.75a60.1 60.1 0 0 0-1.609-2.718 56.891 56.891 0 0 0-1.625-2.5 28.658 28.658 0 0 0-1.594-2.157h-3.078v10.125h-6.234V238.31a34.17 34.17 0 0 1 4.203-.563 50.996 50.996 0 0 1 3.906-.172Zm.375 5.329c-.46 0-.871.015-1.234.046-.356.024-.696.047-1.016.079v7.515h1.766c2.343 0 4.02-.289 5.031-.875 1.02-.594 1.531-1.594 1.531-3 0-1.363-.515-2.332-1.547-2.906-1.023-.57-2.53-.86-4.53-.86Zm35.758 22c-1.023.292-2.336.562-3.937.812-1.594.258-3.274.39-5.032.39-1.781 0-3.265-.242-4.453-.718-1.187-.477-2.133-1.149-2.828-2.016-.687-.875-1.184-1.91-1.484-3.11-.293-1.194-.438-2.515-.438-3.952v-11.735h5.969v11c0 1.93.25 3.32.75 4.172.508.856 1.457 1.282 2.844 1.282.425 0 .879-.02 1.359-.063.477-.039.906-.086 1.281-.14v-16.25h5.969Zm19.075-9.969c0-3.832-1.414-5.75-4.234-5.75-.617 0-1.226.086-1.828.25-.605.156-1.09.355-1.453.594v10.828a15.964 15.964 0 0 0 2.594.203c1.625 0 2.847-.555 3.671-1.672.833-1.125 1.25-2.61 1.25-4.453Zm6.079.172c0 1.68-.25 3.199-.75 4.562-.493 1.356-1.204 2.512-2.141 3.469-.93.96-2.074 1.7-3.438 2.219-1.355.52-2.898.78-4.625.78-.73 0-1.492-.038-2.28-.108a43.614 43.614 0 0 1-2.313-.25 31.354 31.354 0 0 1-2.172-.375c-.7-.145-1.313-.301-1.844-.47v-29.39l5.969-.969v10.485a11.13 11.13 0 0 1 2.078-.672c.719-.164 1.488-.25 2.312-.25 1.5 0 2.82.262 3.97.781a7.82 7.82 0 0 1 2.874 2.219c.77.96 1.352 2.117 1.75 3.469.406 1.343.61 2.843.61 4.5Zm10.566 10.515h-5.97v-21.047h5.97Zm.547-27.125c0 1.094-.356 1.961-1.063 2.594-.7.625-1.527.938-2.484.938-.97 0-1.809-.313-2.516-.938-.7-.633-1.047-1.5-1.047-2.594 0-1.093.348-1.953 1.047-2.578.707-.625 1.547-.937 2.516-.937.957 0 1.785.312 2.484.937.707.625 1.063 1.485 1.063 2.578Zm10.122 16.438c0 1.844.41 3.328 1.234 4.453.832 1.117 2.063 1.672 3.688 1.672.531 0 1.02-.02 1.469-.063.457-.039.835-.086 1.14-.14v-10.828c-.375-.239-.867-.438-1.469-.594a6.786 6.786 0 0 0-1.812-.25c-2.836 0-4.25 1.918-4.25 5.75Zm13.484 10c-.53.168-1.148.324-1.843.469-.688.148-1.415.269-2.172.375a43.77 43.77 0 0 1-2.328.25c-.782.07-1.532.109-2.25.109-1.743 0-3.293-.25-4.657-.75-1.355-.508-2.5-1.238-3.437-2.188-.93-.945-1.64-2.093-2.14-3.437-.493-1.344-.735-2.86-.735-4.547 0-1.695.21-3.234.64-4.61.426-1.374 1.04-2.538 1.844-3.5a7.998 7.998 0 0 1 2.938-2.202c1.156-.508 2.484-.766 3.984-.766.82 0 1.563.086 2.219.25.656.156 1.316.383 1.984.672v-9.516l5.953-.969Zm11.566.687h-5.968v-21.047h5.968Zm.547-27.125c0 1.094-.355 1.961-1.062 2.594-.7.625-1.528.938-2.485.938-.968 0-1.808-.313-2.515-.938-.7-.633-1.047-1.5-1.047-2.594 0-1.093.348-1.953 1.047-2.578.707-.625 1.547-.937 2.515-.937.957 0 1.786.312 2.485.937.707.625 1.062 1.485 1.062 2.578Zm23.013 26.407c-1.023.292-2.336.562-3.937.812-1.594.258-3.274.39-5.031.39-1.782 0-3.266-.242-4.454-.718-1.187-.477-2.132-1.149-2.828-2.016-.687-.875-1.183-1.91-1.484-3.11-.293-1.194-.438-2.515-.438-3.952v-11.735h5.97v11c0 1.93.25 3.32.75 4.172.507.856 1.456 1.282 2.843 1.282.426 0 .879-.02 1.36-.063.476-.039.906-.086 1.28-.14v-16.25h5.97Zm17.154-10.438c0-1.926-.25-3.285-.75-4.078-.492-.8-1.336-1.203-2.531-1.203-.375 0-.766.023-1.172.062-.399.043-.778.09-1.14.14v16.235h-5.97V245.31a37.888 37.888 0 0 1 3.938-.813 27.673 27.673 0 0 1 2.344-.281c.8-.07 1.586-.11 2.359-.11 1.52 0 2.754.196 3.703.579.945.386 1.727.844 2.344 1.375.851-.614 1.832-1.094 2.937-1.438 1.102-.343 2.125-.515 3.063-.515 1.676 0 3.05.234 4.125.703 1.082.46 1.941 1.117 2.578 1.969.644.855 1.086 1.87 1.328 3.046.238 1.168.36 2.477.36 3.922v11.875H268.8v-11.156c0-1.926-.25-3.285-.75-4.078-.492-.8-1.336-1.203-2.53-1.203-.325 0-.774.086-1.345.25-.574.156-1.047.355-1.422.594a8.9 8.9 0 0 1 .36 1.937c.05.68.078 1.402.078 2.172v11.484h-5.953Zm-98.896 66.141c0 1.2-.211 2.297-.625 3.297a7.383 7.383 0 0 1-1.86 2.625c-.824.742-1.855 1.32-3.093 1.734-1.242.414-2.68.625-4.313.625-1.867 0-3.418-.261-4.656-.781-1.242-.52-2.242-1.164-3-1.937-.762-.77-1.305-1.614-1.625-2.532-.312-.926-.469-1.773-.469-2.547 0-.8.102-1.535.313-2.203a7.28 7.28 0 0 1 .875-1.812 9.403 9.403 0 0 1 1.265-1.5c.47-.457.97-.89 1.5-1.297-1.148-.926-1.996-1.844-2.546-2.75-.543-.906-.813-2.067-.813-3.484 0-1.063.219-2.086.656-3.079a7.863 7.863 0 0 1 1.86-2.578c.8-.738 1.77-1.328 2.906-1.765 1.133-.438 2.394-.657 3.781-.657 1.625 0 3.016.235 4.172.704 1.164.468 2.117 1.062 2.86 1.78.75.72 1.289 1.528 1.624 2.423.332.886.5 1.773.5 2.656 0 1.281-.34 2.476-1.015 3.578-.68 1.105-1.528 1.98-2.547 2.625 1.52.98 2.61 2.012 3.266 3.094.656 1.086.984 2.344.984 3.781Zm-13.844.234c0 .325.07.68.219 1.063.144.387.379.742.703 1.062.32.325.734.594 1.234.813.508.21 1.125.312 1.844.312 1.383 0 2.395-.332 3.031-1 .645-.664.97-1.414.97-2.25 0-.613-.141-1.16-.423-1.64a4.266 4.266 0 0 0-1.14-1.25 8.103 8.103 0 0 0-1.703-.969 23.084 23.084 0 0 0-2.094-.781 8.21 8.21 0 0 0-1.89 1.969c-.5.742-.75 1.632-.75 2.671Zm7.406-13.156a2.7 2.7 0 0 0-.187-.937 2.6 2.6 0 0 0-.594-.938 3.586 3.586 0 0 0-1.062-.734c-.43-.207-.95-.313-1.563-.313-.586 0-1.09.094-1.515.282a3.02 3.02 0 0 0-1.063.75 3.06 3.06 0 0 0-.625.968c-.137.344-.203.68-.203 1 0 .856.312 1.657.937 2.407.633.742 1.711 1.382 3.235 1.921.851-.539 1.504-1.156 1.953-1.843.457-.696.687-1.551.687-2.563Zm22.361 12.485c0-.77-.18-1.458-.531-2.063-.344-.602-.946-1.102-1.797-1.5-.856-.395-2-.695-3.438-.906-1.437-.219-3.25-.328-5.437-.328.289-2.489.531-5.008.719-7.563.187-2.562.332-4.96.437-7.203h15v5h-10c-.055.961-.117 1.887-.187 2.781a43.89 43.89 0 0 1-.22 2.344c3.895.262 6.77 1.172 8.626 2.734 1.851 1.563 2.781 3.73 2.781 6.5 0 1.282-.23 2.47-.687 3.563a7.61 7.61 0 0 1-2.032 2.844c-.906.793-2.047 1.418-3.422 1.875-1.375.445-2.98.672-4.812.672-.73 0-1.492-.047-2.281-.141a29.875 29.875 0 0 1-2.266-.36c-.73-.144-1.39-.296-1.984-.453-.586-.156-1.04-.316-1.36-.484l1.078-4.922c.664.305 1.547.594 2.641.875 1.094.274 2.398.406 3.922.406 1.844 0 3.176-.363 4-1.093.832-.739 1.25-1.598 1.25-2.578Zm16.954 5c0 1.199-.383 2.109-1.14 2.734-.762.625-1.622.937-2.579.937-.96 0-1.82-.312-2.578-.937-.761-.625-1.14-1.535-1.14-2.734 0-1.196.379-2.11 1.14-2.735.758-.633 1.617-.953 2.578-.953.957 0 1.817.32 2.578.953.758.625 1.141 1.54 1.141 2.735Zm13.965-17.282a247.352 247.352 0 0 0-3.328 4.438 31.341 31.341 0 0 0-2.953 4.922h6.281Zm5.828-7.281v16.64h2.969v4.876h-2.969v6.203h-5.828v-6.203h-11.969v-4.36a74.056 74.056 0 0 1 2.203-3.968 69.398 69.398 0 0 1 2.938-4.563 80.118 80.118 0 0 1 3.422-4.578 48.177 48.177 0 0 1 3.594-4.047Zm9.814 27.719c.156-1.946.484-3.973.984-6.078a59.072 59.072 0 0 1 1.86-6.188 53.583 53.583 0 0 1 2.468-5.75c.906-1.8 1.828-3.36 2.766-4.672h-12.047v-5.078h19.406v4.328c-.855.93-1.797 2.219-2.828 3.875-1.023 1.657-1.996 3.532-2.922 5.625a53.19 53.19 0 0 0-2.406 6.75 34.54 34.54 0 0 0-1.25 7.188ZM46.625 76.844c-.719 0-1.48-.047-2.281-.14a26.337 26.337 0 0 1-2.328-.376 23.58 23.58 0 0 1-2.032-.515 12.157 12.157 0 0 1-1.437-.516l1.156-4.969c.688.293 1.57.606 2.656.938 1.082.336 2.422.5 4.016.5 1.844 0 3.191-.344 4.047-1.032.851-.695 1.281-1.629 1.281-2.796 0-.727-.156-1.336-.469-1.829a3.48 3.48 0 0 0-1.25-1.187c-.53-.313-1.168-.524-1.906-.64a13.9 13.9 0 0 0-2.344-.188h-2.312v-4.797h2.64c.583 0 1.145-.05 1.688-.156a4.833 4.833 0 0 0 1.469-.547 2.87 2.87 0 0 0 1.015-1.047c.258-.438.391-.988.391-1.656 0-.508-.11-.946-.328-1.313a2.85 2.85 0 0 0-.813-.922 3.576 3.576 0 0 0-1.171-.531 4.826 4.826 0 0 0-1.329-.187c-1.148 0-2.21.171-3.187.515a13.17 13.17 0 0 0-2.656 1.281l-2.125-4.359a18.8 18.8 0 0 1 1.5-.844c.57-.289 1.203-.554 1.89-.797a17.344 17.344 0 0 1 2.219-.593c.79-.164 1.629-.25 2.516-.25 1.625 0 3.03.195 4.218.578 1.188.386 2.164.933 2.938 1.64a6.73 6.73 0 0 1 1.719 2.485c.375.949.562 1.98.562 3.094 0 1.093-.308 2.156-.922 3.187a6.097 6.097 0 0 1-2.468 2.328c1.437.594 2.546 1.469 3.328 2.625.789 1.156 1.187 2.555 1.187 4.188 0 1.28-.215 2.464-.64 3.547a7.223 7.223 0 0 1-2 2.796c-.907.782-2.063 1.391-3.47 1.829-1.398.437-3.054.656-4.968.656Zm19.28-.594c.156-1.945.485-3.973.985-6.078a59.072 59.072 0 0 1 1.859-6.188 53.583 53.583 0 0 1 2.469-5.75c.906-1.8 1.828-3.359 2.765-4.671H61.936v-5.079h19.407v4.329c-.856.93-1.797 2.218-2.828 3.875-1.024 1.656-1.996 3.53-2.922 5.625a53.19 53.19 0 0 0-2.407 6.75 34.54 34.54 0 0 0-1.25 7.187Zm0 0"/>
</svg>
