<svg xmlns="http://www.w3.org/2000/svg" version="1.2" viewBox="0 0 375 375">
  <path d="m359.121 5.996.461.043.45.066.448.086.438.094.437.117.422.137.422.145.414.168.399.175.39.196.395.21.371.227.371.238.356.25.347.266.336.277.328.293.313.305.304.313.29.324.277.336.262.347.253.36.239.367.226.371.203.395.2.39.18.41.167.407.145.421.137.426.109.43.101.445.083.442.066.46.05.458.028.457.008.472v340.74l-.008.464-.027.465-.051.461-.066.45-.082.445-.102.441-.11.438-.136.422-.145.421-.168.414-.18.399-.199.39-.203.387-.226.38-.239.37-.253.356-.262.347-.277.336-.29.328-.304.313-.313.305-.328.289-.336.277-.347.262-.356.254-.371.242-.371.215-.395.21-.39.2-.399.18-.414.168-.422.144-.422.133-.437.113-.438.102-.449.082-.449.066-.46.05-.466.028-.465.008H17.453l-.465-.008-.465-.027-.457-.05-.46-.067-.442-.082-.445-.102-.43-.113-.426-.133-.422-.144-.406-.168-.41-.18-.39-.2-.387-.21-.38-.215-.366-.242-.36-.254-.347-.262-.336-.277-.325-.29-.312-.304-.305-.313-.293-.328-.277-.336-.262-.347-.254-.356-.238-.37-.227-.38-.21-.386-.188-.391-.184-.399-.168-.414-.144-.421-.137-.422-.117-.438-.094-.441-.086-.446-.058-.449-.051-.46-.031-.466-.008-.464V17.32l.008-.472.03-.457.052-.457.058-.461.086-.442.094-.445.117-.43.137-.426.144-.421.168-.407.184-.41.187-.39.211-.395.227-.371.238-.367.254-.36.262-.347.277-.336.293-.324.305-.313.312-.305.325-.293.336-.277.347-.266.36-.25.367-.238.379-.226.386-.211.391-.196.41-.175.406-.168.422-.145.426-.137.43-.117.445-.094.441-.086.461-.066.457-.043.465-.031.465-.008h340.738l.465.008Zm-333.25 8.86-.465.03-.457.044-.453.062-.45.09-.437.094-.437.117-.426.137-.414.144-.414.168-.402.176-.399.195-.387.211-.378.227-.364.238-.355.246-.348.27-.336.277-.324.29-.313.308-.308.312-.29.324-.276.336-.27.348-.246.355-.238.364-.227.379-.21.386-.188.399-.184.402-.168.414-.145.414-.136.426-.117.438-.094.437-.09.45-.055.452-.05.457-.032.465-.008.465v322.965l.008.465.032.469.05.457.055.449.09.445.094.442.117.437.136.422.145.422.168.414.184.398.187.395.211.383.227.379.238.37.246.356.27.348.277.336.289.328.308.312.313.305.324.29.336.276.348.262.355.254.364.242.378.215.387.211.399.2.402.179.414.168.414.144.426.133.437.113.438.106.45.078.452.067.457.05.465.028.465.007H349.3l.465-.007.468-.028.457-.05.45-.067.453-.078.433-.106.438-.113.422-.133.422-.144.414-.168.398-.18.395-.199.39-.21.371-.216.371-.242.356-.254.348-.262.336-.277.328-.289.312-.305.305-.312.289-.328.277-.336.262-.348.254-.355.242-.371.223-.38.203-.382.199-.395.18-.398.168-.414.144-.422.14-.422.106-.437.106-.442.078-.445.066-.45.051-.456.027-.47.008-.464V26.203l-.008-.465-.027-.465-.05-.457-.067-.453-.078-.449-.211-.875-.14-.426-.145-.414-.168-.414-.18-.402-.2-.399-.202-.386-.223-.38-.242-.363-.254-.355-.262-.348-.277-.336-.29-.324-.304-.312-.312-.309-.329-.289-.335-.277-.348-.27-.356-.246-.37-.238-.372-.227-.39-.21-.395-.196-.398-.176-.414-.168-.422-.144-.422-.137-.438-.117-.433-.094-.453-.09-.45-.062-.457-.043-.468-.032-.465-.007H26.336Zm0 0"/>
  <path d="M194.923 112.943c-2.992 3.086-6.54 7.074-10.64 11.969-4.106 4.898-8.352 10.242-12.735 16.031a545.454 545.454 0 0 0-13.016 17.906c-4.293 6.157-8.12 12.04-11.484 17.641h49.406v18.328h-76.281v-13.016c2.613-4.757 5.812-10.05 9.594-15.875a699.67 699.67 0 0 1 11.828-17.64 455.069 455.069 0 0 1 12.515-17.219c4.25-5.55 8.192-10.52 11.828-14.906h-43.515V97.834h72.5Zm59.889 26.734a150.34 150.34 0 0 0-6.578-1.468c-2.512-.508-5.215-.766-8.11-.766-1.312 0-2.882.117-4.703.344-1.812.23-3.183.484-4.11.765v56.266h-20.858v-69.703c3.726-1.3 8.132-2.535 13.218-3.703 5.094-1.164 10.766-1.75 17.016-1.75 1.113 0 2.46.074 4.047.219 1.594.136 3.18.324 4.765.562a88.24 88.24 0 0 1 4.75.828c1.594.324 2.946.719 4.063 1.188ZM115.126 242.255c-.855.886-1.87 2.031-3.047 3.437a108.08 108.08 0 0 0-3.64 4.578 159.782 159.782 0 0 0-3.719 5.11 85.016 85.016 0 0 0-3.281 5.047h14.125v5.234H93.767v-3.719a66.363 66.363 0 0 1 2.734-4.547 209.812 209.812 0 0 1 3.375-5.03 133.08 133.08 0 0 1 3.578-4.923 160.01 160.01 0 0 1 3.391-4.265H94.407v-5.235h20.72Zm10.4 23.406h-5.969v-21.047h5.969Zm.547-27.125c0 1.094-.356 1.96-1.063 2.594-.699.625-1.527.937-2.484.937-.969 0-1.809-.312-2.516-.937-.699-.633-1.046-1.5-1.046-2.594 0-1.094.347-1.953 1.046-2.578.707-.625 1.547-.938 2.516-.938.957 0 1.785.313 2.484.938.707.625 1.063 1.484 1.063 2.578Zm17.732 11.359a68.408 68.408 0 0 0-1.89-.406 10.891 10.891 0 0 0-2.313-.234c-.375 0-.825.039-1.344.11-.524.062-.914.136-1.172.218v16.078h-5.969v-19.922c1.07-.375 2.332-.726 3.781-1.062 1.457-.332 3.079-.5 4.86-.5.32 0 .707.023 1.156.062.457.043.91.102 1.36.172.456.062.91.14 1.359.234.457.094.847.203 1.172.328Zm3.192 5.25c0-1.52.242-2.953.734-4.297.5-1.351 1.211-2.53 2.141-3.53.938-1 2.07-1.79 3.406-2.376 1.332-.582 2.852-.875 4.563-.875 1.113 0 2.14.102 3.078.297.937.2 1.844.484 2.719.86l-1.235 4.75a15.675 15.675 0 0 0-1.843-.547 9.377 9.377 0 0 0-2.235-.25c-1.762 0-3.078.546-3.953 1.64-.867 1.094-1.297 2.54-1.297 4.328 0 1.887.406 3.352 1.219 4.391.812 1.043 2.234 1.562 4.266 1.562.718 0 1.488-.062 2.312-.187a9.187 9.187 0 0 0 2.281-.656l.844 4.89c-.687.293-1.555.54-2.594.75-1.043.22-2.187.328-3.437.328-1.93 0-3.586-.289-4.969-.859-1.387-.57-2.527-1.351-3.422-2.344-.887-.988-1.539-2.156-1.953-3.5-.418-1.343-.625-2.8-.625-4.375Zm40.687-.047c0 1.657-.242 3.172-.718 4.547-.48 1.375-1.18 2.547-2.094 3.516a9.505 9.505 0 0 1-3.266 2.266c-1.261.53-2.68.796-4.25.796-1.543 0-2.949-.265-4.219-.796a9.656 9.656 0 0 1-3.265-2.266c-.906-.969-1.617-2.14-2.125-3.516-.5-1.375-.75-2.89-.75-4.547 0-1.656.258-3.16.781-4.515.52-1.363 1.238-2.524 2.156-3.485a9.81 9.81 0 0 1 3.282-2.234c1.27-.531 2.648-.797 4.14-.797 1.52 0 2.91.266 4.172.797a9.48 9.48 0 0 1 3.266 2.234c.906.961 1.613 2.122 2.125 3.485.508 1.355.765 2.86.765 4.515Zm-6.078 0c0-1.832-.37-3.273-1.11-4.328-.73-1.062-1.776-1.593-3.14-1.593-1.355 0-2.406.53-3.156 1.593-.75 1.055-1.125 2.496-1.125 4.328 0 1.844.375 3.31 1.125 4.391.75 1.074 1.8 1.61 3.156 1.61 1.364 0 2.41-.536 3.14-1.61.74-1.082 1.11-2.547 1.11-4.39Zm10.671-9.75c1.007-.3 2.316-.578 3.922-.828a32.722 32.722 0 0 1 5.046-.375c1.782 0 3.266.235 4.454.703 1.187.461 2.125 1.118 2.812 1.97.695.855 1.191 1.87 1.484 3.046.29 1.168.438 2.477.438 3.922v11.875h-5.953v-11.156c0-1.926-.258-3.285-.766-4.078-.5-.801-1.445-1.204-2.828-1.204-.43 0-.887.024-1.375.063-.48.043-.902.09-1.266.14v16.235h-5.968Zm29.528 20.313h-5.969v-21.047h5.97Zm.547-27.125c0 1.094-.355 1.96-1.062 2.594-.7.625-1.528.937-2.485.937-.969 0-1.808-.312-2.515-.937-.7-.633-1.047-1.5-1.047-2.594 0-1.094.347-1.953 1.047-2.578.707-.625 1.546-.938 2.515-.938.957 0 1.785.313 2.485.938.707.625 1.062 1.484 1.062 2.578Zm23.013 26.406c-1.023.293-2.336.563-3.937.813-1.594.258-3.274.39-5.032.39-1.78 0-3.265-.242-4.453-.718-1.187-.477-2.133-1.149-2.828-2.016-.687-.875-1.183-1.91-1.484-3.11-.293-1.195-.438-2.515-.438-3.953v-11.734h5.969v11c0 1.93.25 3.32.75 4.172.508.855 1.457 1.281 2.844 1.281.426 0 .879-.02 1.36-.062.476-.04.905-.086 1.28-.14v-16.25h5.97Zm17.154-10.437c0-1.926-.25-3.285-.75-4.078-.492-.801-1.336-1.204-2.532-1.204-.375 0-.765.024-1.171.063-.399.043-.778.09-1.141.14v16.235h-5.969v-20.313a37.888 37.888 0 0 1 3.938-.813 27.702 27.702 0 0 1 2.343-.28c.801-.07 1.586-.11 2.36-.11 1.52 0 2.754.196 3.703.578.945.387 1.727.844 2.344 1.375.851-.613 1.832-1.093 2.937-1.437 1.102-.344 2.125-.516 3.063-.516 1.675 0 3.05.235 4.125.703 1.082.461 1.941 1.118 2.578 1.97.644.855 1.086 1.87 1.328 3.046.238 1.168.36 2.477.36 3.922v11.875h-5.954v-11.156c0-1.926-.25-3.285-.75-4.078-.492-.801-1.336-1.204-2.531-1.204-.324 0-.773.086-1.344.25-.574.157-1.047.356-1.422.594a8.91 8.91 0 0 1 .36 1.938c.05.68.078 1.402.078 2.172v11.484h-5.953ZM148.702 313.45c.614 0 1.254-.054 1.922-.171.664-.125 1.156-.297 1.469-.516v-.36c0-.1.004-.206.016-.312a1.75 1.75 0 0 0 .03-.28 22.022 22.022 0 0 0-.25-2.704c-.124-.844-.35-1.578-.671-2.203a3.775 3.775 0 0 0-1.313-1.469c-.543-.363-1.21-.547-2-.547-.648 0-1.21.137-1.687.406-.48.262-.867.606-1.156 1.032-.293.43-.512.898-.657 1.406-.148.5-.218.992-.218 1.469 0 1.449.347 2.523 1.047 3.218.707.688 1.863 1.032 3.468 1.032Zm2.922 3.876a7.221 7.221 0 0 1-1.875.593c-.68.118-1.258.172-1.734.172-1.73 0-3.211-.207-4.438-.625-1.23-.414-2.242-1.004-3.03-1.765a6.998 6.998 0 0 1-1.735-2.735c-.367-1.062-.547-2.234-.547-3.515 0-1.07.176-2.164.531-3.282a9.002 9.002 0 0 1 1.703-3.062c.77-.914 1.75-1.676 2.938-2.281 1.187-.602 2.617-.907 4.297-.907 3.445 0 6.039 1.063 7.78 3.188 1.75 2.117 2.626 5.164 2.626 9.14 0 2.618-.344 4.922-1.031 6.922-.68 2-1.73 3.684-3.157 5.047-1.418 1.356-3.234 2.387-5.453 3.094-2.21.711-4.836 1.07-7.875 1.094a90.625 90.625 0 0 0-.125-2.469c-.054-.8-.105-1.629-.156-2.484 1.52-.032 2.89-.145 4.11-.344 1.226-.195 2.304-.531 3.234-1a7.477 7.477 0 0 0 2.39-1.86c.657-.769 1.172-1.742 1.547-2.921Zm11.033-10.953c.77-.32 1.578-.692 2.421-1.11a28.13 28.13 0 0 0 2.454-1.36c.8-.487 1.566-1.003 2.296-1.546a15.52 15.52 0 0 0 1.985-1.75h4.172v27.719h-5.97v-19.953a18.43 18.43 0 0 1-2.687 1.453c-.98.437-1.937.82-2.875 1.14Zm28.563 18.797c0 1.199-.383 2.109-1.14 2.734-.762.625-1.622.937-2.579.937-.96 0-1.82-.312-2.578-.937-.761-.625-1.14-1.535-1.14-2.735 0-1.195.379-2.109 1.14-2.734.758-.633 1.617-.953 2.578-.953.957 0 1.817.32 2.578.953.758.625 1.141 1.54 1.141 2.734Zm21.043-17.282a7.27 7.27 0 0 1-.61 2.922 13.5 13.5 0 0 1-1.562 2.703 21.56 21.56 0 0 1-2.156 2.5 122.18 122.18 0 0 1-2.36 2.266c-.398.375-.827.797-1.296 1.265a34.866 34.866 0 0 0-2.485 2.766c-.336.406-.539.746-.609 1.016h11.922v5h-18.484a6.209 6.209 0 0 1-.079-1.11v-.968c0-1.282.204-2.454.61-3.516.414-1.07.957-2.066 1.625-2.984a19.415 19.415 0 0 1 2.25-2.579c.844-.8 1.68-1.601 2.515-2.406.633-.613 1.235-1.191 1.797-1.734a20.189 20.189 0 0 0 1.485-1.61 7.557 7.557 0 0 0 1-1.546c.238-.52.359-1.051.359-1.594 0-1.164-.336-1.988-1-2.469-.668-.476-1.496-.719-2.484-.719-.72 0-1.399.118-2.032.344a9.225 9.225 0 0 0-1.718.797c-.512.305-.953.61-1.328.922-.375.305-.657.547-.844.734l-2.953-4.156c1.164-1.094 2.53-1.992 4.093-2.703a12.025 12.025 0 0 1 5.016-1.063c1.625 0 3.023.188 4.203.563 1.176.375 2.145.902 2.906 1.578a6.077 6.077 0 0 1 1.672 2.484c.364.97.547 2.07.547 3.297Zm22.72 0a7.27 7.27 0 0 1-.61 2.922 13.5 13.5 0 0 1-1.562 2.703c-.637.867-1.355 1.7-2.156 2.5a122.18 122.18 0 0 1-2.36 2.266 61.78 61.78 0 0 0-1.296 1.265 34.866 34.866 0 0 0-2.485 2.766c-.336.406-.539.746-.61 1.016h11.923v5h-18.485a6.209 6.209 0 0 1-.078-1.11v-.968c0-1.282.203-2.454.61-3.516.414-1.07.957-2.066 1.625-2.984a19.415 19.415 0 0 1 2.25-2.579c.843-.8 1.68-1.601 2.515-2.406.633-.613 1.235-1.191 1.797-1.734a20.189 20.189 0 0 0 1.484-1.61 7.557 7.557 0 0 0 1-1.546c.239-.52.36-1.051.36-1.594 0-1.164-.336-1.988-1-2.469-.668-.476-1.496-.719-2.485-.719a6 6 0 0 0-2.03.344c-.626.219-1.2.484-1.72.797-.511.305-.953.61-1.328.922a11.83 11.83 0 0 0-.843.734l-2.954-4.156c1.165-1.094 2.532-1.992 4.094-2.703a12.025 12.025 0 0 1 5.016-1.063c1.625 0 3.023.188 4.203.563 1.176.375 2.145.902 2.906 1.578a6.077 6.077 0 0 1 1.672 2.484c.363.97.547 2.07.547 3.297ZM50.266 55.813a247.352 247.352 0 0 0-3.328 4.437 31.341 31.341 0 0 0-2.954 4.922h6.282Zm5.828-7.282v16.64h2.969v4.876h-2.97v6.203h-5.827v-6.203h-11.97v-4.36A74.056 74.056 0 0 1 40.5 61.72a69.398 69.398 0 0 1 2.938-4.563 80.118 80.118 0 0 1 3.421-4.578 48.177 48.177 0 0 1 3.594-4.047Zm25.483 13.797c0 4.668-.887 8.25-2.656 10.75-1.774 2.492-4.219 3.735-7.344 3.735-3.117 0-5.562-1.243-7.344-3.735-1.773-2.5-2.656-6.082-2.656-10.75 0-2.32.234-4.375.703-6.156.469-1.79 1.14-3.297 2.016-4.516.883-1.226 1.937-2.16 3.156-2.797 1.227-.644 2.602-.968 4.125-.968 3.125 0 5.57 1.25 7.344 3.75 1.77 2.492 2.656 6.054 2.656 10.687Zm-6.078 0c0-1.383-.07-2.644-.203-3.781-.137-1.133-.352-2.113-.64-2.938-.294-.82-.696-1.457-1.204-1.906-.5-.457-1.125-.687-1.875-.687s-1.371.23-1.86.687c-.491.45-.89 1.086-1.202 1.906-.305.825-.524 1.805-.657 2.938a31.88 31.88 0 0 0-.203 3.781c0 1.387.067 2.653.203 3.797.133 1.148.352 2.137.657 2.969.312.824.71 1.465 1.203 1.922.488.449 1.11.672 1.86.672s1.374-.223 1.874-.672c.508-.457.91-1.098 1.203-1.922.29-.832.504-1.82.64-2.969.134-1.144.204-2.41.204-3.797Zm0 0"/>
</svg>
