<svg xmlns="http://www.w3.org/2000/svg" version="1.2" viewBox="0 0 375 375">
  <path d="m359.121 5.996.461.043.45.066.448.086.438.094.437.117.422.137.422.145.414.168.399.175.39.196.395.21.371.227.371.238.356.247.347.27.336.276.328.29.313.308.304.313.29.324.277.336.262.347.253.36.239.367.226.371.203.395.2.39.18.41.167.407.145.421.137.426.109.43.101.445.083.442.066.46.05.458.028.457.008.472v340.74l-.008.464-.027.465-.051.461-.066.45-.082.445-.102.441-.11.438-.136.422-.145.421-.168.414-.18.399-.199.39-.203.387-.226.38-.239.37-.253.356-.262.347-.277.336-.29.328-.304.313-.313.305-.328.289-.336.277-.347.262-.356.254-.371.238-.371.219-.395.21-.39.2-.399.18-.414.168-.422.144-.422.133-.437.113-.438.102-.449.082-.449.066-.46.05-.466.028-.465.008H17.453l-.465-.008-.465-.027-.457-.05-.46-.067-.442-.082-.445-.102-.43-.113-.426-.133-.422-.144-.406-.168-.41-.18-.39-.2-.387-.21-.38-.22-.366-.237-.36-.254-.347-.262-.336-.277-.325-.29-.312-.304-.305-.313-.293-.328-.277-.336-.262-.347-.254-.356-.238-.37-.227-.38-.21-.386-.188-.391-.184-.399-.168-.414-.144-.421-.137-.422-.117-.438-.094-.441-.086-.446-.058-.449-.051-.46-.031-.466-.008-.464V17.32l.008-.472.03-.457.052-.457.058-.461.086-.442.094-.445.117-.43.137-.426.144-.421.168-.407.184-.41.187-.39.211-.395.227-.371.238-.367.254-.36.262-.347.277-.336.293-.324.305-.313.312-.305.325-.293.336-.277.347-.27.36-.246.367-.238.379-.226.386-.211.391-.196.41-.175.406-.168.422-.145.426-.137.43-.117.445-.094.441-.086.461-.066.457-.043.465-.031.465-.008h340.738l.465.008Zm-333.25 8.86-.465.03-.457.044-.453.062-.45.09-.437.094-.437.117-.426.137-.414.144-.414.168-.402.176-.399.195-.387.211-.378.227-.364.238-.355.246-.348.27-.336.277-.324.29-.313.308-.308.312-.29.324-.276.336-.27.348-.246.355-.238.364-.227.379-.21.386-.188.399-.184.402-.168.414-.145.414-.136.426-.117.438-.094.437-.09.45-.055.452-.05.457-.032.465-.008.465v322.965l.008.465.032.469.05.457.055.449.09.445.094.442.117.437.136.422.145.422.168.414.184.398.187.395.211.383.227.379.238.37.246.356.27.348.277.336.289.328.308.312.313.305.324.29.336.276.348.262.355.254.364.242.378.215.387.211.399.2.402.179.414.168.414.144.426.133.437.113.438.106.45.078.452.067.457.05.465.028.465.007H349.3l.465-.007.468-.028.457-.05.45-.067.453-.078.433-.106.438-.113.422-.133.422-.144.414-.168.398-.18.395-.199.39-.21.371-.216.371-.242.356-.254.348-.262.336-.277.328-.289.312-.305.305-.312.289-.328.277-.336.262-.348.254-.355.242-.371.223-.38.203-.382.199-.395.18-.398.168-.414.144-.422.14-.422.106-.437.106-.442.078-.445.066-.45.051-.456.027-.47.008-.464V26.203l-.008-.465-.027-.465-.05-.457-.067-.453-.078-.449-.211-.875-.14-.426-.145-.414-.168-.414-.18-.402-.2-.399-.202-.386-.223-.38-.242-.363-.254-.355-.262-.348-.277-.336-.29-.324-.304-.312-.312-.309-.329-.289-.335-.277-.348-.27-.356-.246-.37-.238-.372-.227-.39-.21-.395-.196-.398-.176-.414-.168-.422-.144-.422-.137-.438-.117-.433-.094-.453-.09-.45-.062-.457-.043-.468-.032-.465-.007H26.336Zm0 0"/>
  <path d="M119.205 97.834c1.676 3.074 3.61 6.875 5.797 11.406a572.197 572.197 0 0 1 6.859 14.687 758.657 758.657 0 0 1 7.078 16.172c2.332 5.5 4.524 10.68 6.578 15.532l6.563-15.532a779.399 779.399 0 0 1 7.062-16.172 630.564 630.564 0 0 1 6.86-14.687c2.195-4.531 4.132-8.332 5.812-11.406h19.875c.938 6.437 1.8 13.648 2.594 21.625a872.54 872.54 0 0 1 2.094 24.906c.613 8.637 1.175 17.293 1.687 25.969.508 8.68.953 16.84 1.328 24.484h-21.265a2526.72 2526.72 0 0 0-1.125-30.781 850.148 850.148 0 0 0-2.094-33.594l-5.61 13.016a1932.716 1932.716 0 0 0-6.093 14.281c-2 4.75-3.934 9.297-5.797 13.64a3004.606 3004.606 0 0 0-4.766 11.126h-15.25a1536.26 1536.26 0 0 0-4.765-11.125 2412.014 2412.014 0 0 1-5.813-13.641c-2-4.758-4.027-9.52-6.078-14.281a4043.627 4043.627 0 0 1-5.594-13.016 828.576 828.576 0 0 0-2.11 33.594 2642.07 2642.07 0 0 0-1.108 30.781H90.642c.375-7.644.817-15.805 1.328-24.484a2555.19 2555.19 0 0 1 1.688-25.969c.601-8.633 1.3-16.938 2.094-24.906.789-7.977 1.656-15.188 2.593-21.625Zm167.244 60.031c0 5.793-.844 11.09-2.531 15.89-1.68 4.805-4.106 8.907-7.282 12.313-3.168 3.406-6.968 6.043-11.406 7.906-4.43 1.864-9.39 2.797-14.89 2.797-5.418 0-10.34-.933-14.766-2.797-4.43-1.863-8.23-4.5-11.406-7.906-3.18-3.406-5.653-7.508-7.422-12.312-1.774-4.801-2.657-10.098-2.657-15.891 0-5.781.907-11.05 2.72-15.813 1.82-4.757 4.343-8.816 7.562-12.171 3.218-3.364 7.039-5.977 11.468-7.844 4.438-1.863 9.27-2.797 14.5-2.797 5.313 0 10.18.934 14.61 2.797 4.437 1.867 8.238 4.48 11.406 7.844 3.176 3.355 5.649 7.414 7.422 12.171 1.781 4.762 2.672 10.032 2.672 15.813Zm-21.281 0c0-6.438-1.282-11.492-3.844-15.172-2.563-3.687-6.227-5.531-10.985-5.531-4.761 0-8.449 1.844-11.062 5.531-2.605 3.68-3.906 8.734-3.906 15.172 0 6.437 1.3 11.547 3.906 15.328 2.613 3.781 6.3 5.672 11.062 5.672 4.758 0 8.422-1.89 10.985-5.672 2.562-3.781 3.844-8.89 3.844-15.328ZM74.083 237.942a73.619 73.619 0 0 1 1.657 3.266 174.677 174.677 0 0 1 1.953 4.203c.687 1.5 1.363 3.04 2.031 4.61.664 1.574 1.289 3.054 1.875 4.437.582-1.383 1.207-2.863 1.875-4.438a197.5 197.5 0 0 1 2.016-4.609c.687-1.508 1.343-2.91 1.968-4.203.625-1.3 1.176-2.39 1.657-3.266h5.687c.27 1.844.516 3.906.734 6.188a227.2 227.2 0 0 1 .594 7.11c.176 2.468.336 4.944.485 7.421.144 2.48.273 4.812.39 7h-6.078a882.442 882.442 0 0 0-.328-8.797 262.994 262.994 0 0 0-.594-9.61 565.372 565.372 0 0 1-1.61 3.735 375.455 375.455 0 0 0-1.734 4.078 935.85 935.85 0 0 1-1.656 3.89 1446.06 1446.06 0 0 0-1.36 3.188h-4.359c-.375-.882-.835-1.945-1.375-3.187a598.152 598.152 0 0 1-1.656-3.89 638.909 638.909 0 0 0-1.734-4.079 775.848 775.848 0 0 1-1.594-3.734 225.79 225.79 0 0 0-.61 9.61 520.041 520.041 0 0 0-.312 8.796h-6.078c.102-2.188.227-4.52.375-7 .145-2.477.3-4.953.469-7.422.176-2.469.379-4.836.61-7.11.226-2.28.472-4.343.734-6.187Zm47.802 17.156c0 1.657-.242 3.172-.719 4.547-.48 1.375-1.18 2.547-2.094 3.516a9.505 9.505 0 0 1-3.265 2.266c-1.262.53-2.68.796-4.25.796-1.543 0-2.95-.265-4.219-.796a9.656 9.656 0 0 1-3.266-2.266c-.906-.969-1.617-2.14-2.125-3.516-.5-1.375-.75-2.89-.75-4.547 0-1.656.258-3.16.782-4.515.52-1.363 1.238-2.524 2.156-3.485a9.81 9.81 0 0 1 3.281-2.234c1.27-.531 2.649-.797 4.14-.797 1.52 0 2.911.266 4.173.797a9.48 9.48 0 0 1 3.265 2.234c.907.961 1.614 2.122 2.125 3.485.508 1.355.766 2.86.766 4.515Zm-6.078 0c0-1.832-.371-3.273-1.11-4.328-.73-1.062-1.777-1.593-3.14-1.593-1.356 0-2.406.53-3.156 1.593-.75 1.055-1.125 2.496-1.125 4.328 0 1.844.375 3.31 1.125 4.391.75 1.074 1.8 1.61 3.156 1.61 1.363 0 2.41-.536 3.14-1.61.739-1.082 1.11-2.547 1.11-4.39Zm19.077 10.969c-1.743-.031-3.153-.219-4.235-.562-1.074-.352-1.922-.844-2.547-1.469a4.836 4.836 0 0 1-1.281-2.266c-.23-.894-.344-1.906-.344-3.03v-23.157l5.969-.969v22.922c0 .543.035 1.027.11 1.453.081.418.238.777.468 1.078.227.293.55.531.969.719.426.187 1.004.309 1.734.36Zm22.921-21.453a179.936 179.936 0 0 1-3.766 11.422 134.912 134.912 0 0 1-4.281 10.312c-.563 1.196-1.125 2.211-1.688 3.047-.554.844-1.164 1.536-1.828 2.078a6.367 6.367 0 0 1-2.265 1.204c-.836.257-1.813.39-2.938.39-.937 0-1.805-.09-2.594-.265-.781-.18-1.422-.371-1.922-.579l1.032-4.765a9.086 9.086 0 0 0 3.172.562c1.062 0 1.878-.289 2.453-.859.57-.574 1.054-1.367 1.453-2.375-1.356-2.664-2.715-5.66-4.078-8.984-1.356-3.32-2.633-7.051-3.828-11.188h6.312c.27 1.043.582 2.172.938 3.39.363 1.212.742 2.434 1.14 3.673.406 1.242.813 2.449 1.219 3.625.414 1.18.812 2.246 1.187 3.203.344-.957.704-2.024 1.079-3.203a126.15 126.15 0 0 0 1.093-3.625c.364-1.239.711-2.461 1.047-3.672.332-1.219.63-2.348.89-3.39Zm16.676 10.359c0-3.832-1.414-5.75-4.234-5.75-.617 0-1.227.086-1.828.25-.606.157-1.09.356-1.453.594v10.828c.289.055.66.102 1.11.141.456.043.952.062 1.483.062 1.625 0 2.848-.554 3.672-1.671.832-1.125 1.25-2.61 1.25-4.454Zm6.078.172c0 1.68-.25 3.2-.75 4.563-.492 1.355-1.203 2.512-2.14 3.469-.93.96-2.074 1.699-3.438 2.218-1.355.52-2.898.782-4.625.782-.73 0-1.492-.04-2.28-.11a43.614 43.614 0 0 1-2.313-.25 31.354 31.354 0 0 1-2.172-.375c-.7-.144-1.313-.3-1.844-.469v-29.39l5.969-.969v10.484a11.13 11.13 0 0 1 2.078-.671c.719-.164 1.488-.25 2.312-.25 1.5 0 2.82.261 3.97.78a7.82 7.82 0 0 1 2.874 2.22c.77.96 1.352 2.117 1.75 3.468.406 1.344.61 2.844.61 4.5Zm9.676-.172c0 1.844.41 3.329 1.234 4.454.832 1.117 2.063 1.671 3.688 1.671.531 0 1.02-.019 1.469-.062.457-.04.835-.086 1.14-.14v-10.829c-.375-.238-.867-.437-1.469-.594a6.786 6.786 0 0 0-1.812-.25c-2.836 0-4.25 1.918-4.25 5.75Zm13.484 10a19.14 19.14 0 0 1-1.843.47c-.688.148-1.415.269-2.172.374a43.77 43.77 0 0 1-2.328.25c-.782.07-1.532.11-2.25.11-1.743 0-3.293-.25-4.657-.75-1.355-.508-2.5-1.239-3.437-2.188-.93-.945-1.64-2.094-2.14-3.437-.493-1.344-.735-2.86-.735-4.547 0-1.696.21-3.235.64-4.61.426-1.375 1.04-2.539 1.844-3.5a7.998 7.998 0 0 1 2.938-2.203c1.156-.508 2.484-.765 3.984-.765.82 0 1.563.086 2.219.25a11.99 11.99 0 0 1 1.984.671v-9.515l5.953-.969Zm4.598-9.671c0-1.864.285-3.493.859-4.891.57-1.406 1.32-2.57 2.25-3.5a9.42 9.42 0 0 1 3.219-2.125 10.218 10.218 0 0 1 3.75-.719c2.988 0 5.347.914 7.078 2.735 1.738 1.824 2.61 4.511 2.61 8.062 0 .344-.016.727-.048 1.14-.023.407-.047.774-.078 1.094h-13.515c.132 1.231.707 2.204 1.718 2.922 1.008.72 2.368 1.078 4.078 1.078 1.094 0 2.165-.097 3.22-.296 1.05-.196 1.91-.442 2.577-.735l.797 4.828c-.312.168-.742.328-1.281.485-.531.156-1.125.289-1.781.406a27.42 27.42 0 0 1-2.094.312 20.29 20.29 0 0 1-2.234.125c-1.899 0-3.547-.28-4.954-.843-1.398-.563-2.554-1.328-3.468-2.297a9.279 9.279 0 0 1-2.047-3.469c-.438-1.332-.656-2.77-.656-4.312Zm14-2.282a5.617 5.617 0 0 0-.266-1.484 3.573 3.573 0 0 0-1.828-2.188c-.469-.25-1.055-.375-1.75-.375-.668 0-1.242.118-1.719.344-.48.23-.883.531-1.203.906a4.268 4.268 0 0 0-.734 1.297 9.159 9.159 0 0 0-.375 1.5Zm10.359-7.672c1.008-.3 2.317-.578 3.922-.828a32.722 32.722 0 0 1 5.047-.375c1.781 0 3.266.235 4.453.703 1.188.461 2.125 1.118 2.813 1.97.695.855 1.191 1.87 1.484 3.046.29 1.168.438 2.477.438 3.922v11.875h-5.953v-11.156c0-1.926-.258-3.285-.766-4.078-.5-.801-1.445-1.204-2.828-1.204-.43 0-.887.024-1.375.063-.48.043-.903.09-1.266.14v16.235h-5.969Zm41.529 19.594c-1.023.293-2.336.563-3.938.813a31.47 31.47 0 0 1-5.03.39c-1.782 0-3.266-.242-4.454-.718-1.187-.477-2.133-1.149-2.828-2.016-.688-.875-1.184-1.91-1.484-3.11-.293-1.195-.438-2.515-.438-3.953v-11.734h5.969v11c0 1.93.25 3.32.75 4.172.508.855 1.457 1.281 2.844 1.281.425 0 .878-.02 1.359-.062.477-.04.906-.086 1.281-.14v-16.25h5.969Zm17.154-10.437c0-1.926-.25-3.285-.75-4.078-.493-.801-1.336-1.204-2.532-1.204-.375 0-.765.024-1.172.063-.398.043-.777.09-1.14.14v16.235h-5.969v-20.313a37.888 37.888 0 0 1 3.938-.813 27.653 27.653 0 0 1 2.343-.28c.801-.07 1.586-.11 2.36-.11 1.52 0 2.754.196 3.703.578.945.387 1.726.844 2.344 1.375.851-.613 1.832-1.093 2.937-1.437 1.102-.344 2.125-.516 3.063-.516 1.675 0 3.05.235 4.125.703 1.082.461 1.94 1.118 2.578 1.97.644.855 1.086 1.87 1.328 3.046.238 1.168.36 2.477.36 3.922v11.875h-5.954v-11.156c0-1.926-.25-3.285-.75-4.078-.492-.801-1.336-1.204-2.531-1.204-.324 0-.774.086-1.344.25-.574.157-1.047.356-1.422.594a8.91 8.91 0 0 1 .36 1.938c.05.68.078 1.402.078 2.172v11.484h-5.953ZM148.702 313.45c.614 0 1.254-.054 1.922-.171.664-.125 1.156-.297 1.469-.516v-.359c0-.102.004-.207.016-.313a1.75 1.75 0 0 0 .03-.28 22.022 22.022 0 0 0-.25-2.704c-.124-.844-.35-1.578-.671-2.203a3.775 3.775 0 0 0-1.313-1.469c-.543-.363-1.21-.547-2-.547-.648 0-1.21.137-1.687.407-.48.261-.867.605-1.156 1.03-.293.43-.512.9-.657 1.407-.148.5-.218.992-.218 1.469 0 1.45.347 2.523 1.047 3.219.707.687 1.863 1.03 3.468 1.03Zm2.922 3.876a7.221 7.221 0 0 1-1.875.594c-.68.117-1.258.171-1.734.171-1.73 0-3.211-.207-4.438-.625-1.23-.414-2.242-1.003-3.03-1.765a6.998 6.998 0 0 1-1.735-2.735c-.367-1.062-.547-2.234-.547-3.515 0-1.07.176-2.164.531-3.281a9.002 9.002 0 0 1 1.703-3.063c.77-.914 1.75-1.676 2.938-2.281 1.187-.602 2.617-.906 4.297-.906 3.445 0 6.039 1.062 7.78 3.187 1.75 2.117 2.626 5.164 2.626 9.14 0 2.618-.344 4.923-1.031 6.923-.68 2-1.73 3.683-3.157 5.046-1.418 1.356-3.234 2.387-5.453 3.094-2.21.711-4.836 1.07-7.875 1.094a90.625 90.625 0 0 0-.125-2.469c-.054-.8-.105-1.629-.156-2.484 1.52-.031 2.89-.145 4.11-.344 1.226-.195 2.304-.531 3.234-1a7.477 7.477 0 0 0 2.39-1.86c.657-.769 1.172-1.741 1.547-2.921Zm22.642 2.844c0-.77-.18-1.457-.531-2.063-.344-.601-.946-1.101-1.797-1.5-.856-.394-2-.695-3.438-.906-1.437-.219-3.25-.328-5.437-.328.289-2.489.531-5.008.719-7.563.187-2.562.332-4.96.437-7.203h15v5h-10c-.055.961-.117 1.887-.187 2.781a43.89 43.89 0 0 1-.22 2.344c3.895.262 6.77 1.172 8.626 2.734 1.851 1.563 2.781 3.73 2.781 6.5 0 1.282-.23 2.47-.687 3.563a7.61 7.61 0 0 1-2.032 2.844c-.906.793-2.047 1.418-3.422 1.875-1.375.445-2.98.672-4.812.672-.73 0-1.492-.047-2.281-.141a29.875 29.875 0 0 1-2.266-.36c-.73-.144-1.39-.296-1.984-.453-.586-.156-1.04-.316-1.36-.484l1.078-4.922c.664.305 1.547.594 2.641.875 1.094.274 2.398.406 3.922.406 1.844 0 3.176-.363 4-1.093.832-.739 1.25-1.598 1.25-2.578Zm16.954 5c0 1.199-.383 2.109-1.14 2.734-.762.625-1.622.937-2.579.937-.96 0-1.82-.312-2.578-.937-.761-.625-1.14-1.535-1.14-2.734 0-1.196.379-2.11 1.14-2.735.758-.633 1.617-.953 2.578-.953.957 0 1.817.32 2.578.953.758.625 1.141 1.54 1.141 2.735Zm12.762-11.72c.613 0 1.254-.054 1.922-.171.664-.125 1.156-.297 1.469-.516v-.359c0-.102.003-.207.015-.313a1.75 1.75 0 0 0 .031-.28 22.022 22.022 0 0 0-.25-2.704c-.125-.844-.351-1.578-.671-2.203a3.775 3.775 0 0 0-1.313-1.469c-.543-.363-1.21-.547-2-.547-.648 0-1.21.137-1.687.407-.48.261-.868.605-1.157 1.03-.293.43-.511.9-.656 1.407-.148.5-.219.992-.219 1.469 0 1.45.348 2.523 1.047 3.219.707.687 1.863 1.03 3.469 1.03Zm2.922 3.876a7.221 7.221 0 0 1-1.875.594c-.68.117-1.258.171-1.735.171-1.73 0-3.21-.207-4.437-.625-1.23-.414-2.242-1.003-3.031-1.765a6.998 6.998 0 0 1-1.735-2.735c-.367-1.062-.547-2.234-.547-3.515 0-1.07.176-2.164.532-3.281a9.002 9.002 0 0 1 1.703-3.063c.77-.914 1.75-1.676 2.937-2.281 1.188-.602 2.617-.906 4.297-.906 3.445 0 6.04 1.062 7.781 3.187 1.75 2.117 2.625 5.164 2.625 9.14 0 2.618-.343 4.923-1.03 6.923-.68 2-1.731 3.683-3.157 5.046-1.418 1.356-3.234 2.387-5.453 3.094-2.211.711-4.836 1.07-7.875 1.094a90.625 90.625 0 0 0-.125-2.469c-.055-.8-.106-1.629-.156-2.484 1.52-.031 2.89-.145 4.109-.344 1.226-.195 2.305-.531 3.234-1a7.477 7.477 0 0 0 2.39-1.86c.657-.769 1.173-1.741 1.548-2.921Zm22.641 2.844c0-.77-.18-1.457-.53-2.063-.345-.601-.946-1.101-1.798-1.5-.855-.394-2-.695-3.437-.906-1.438-.219-3.25-.328-5.438-.328.29-2.489.532-5.008.72-7.563.187-2.562.331-4.96.437-7.203h15v5h-10c-.055.961-.118 1.887-.188 2.781a43.99 43.99 0 0 1-.219 2.344c3.895.262 6.77 1.172 8.625 2.734 1.852 1.563 2.782 3.73 2.782 6.5 0 1.282-.23 2.47-.688 3.563a7.61 7.61 0 0 1-2.031 2.844c-.906.793-2.047 1.418-3.422 1.875-1.375.445-2.98.672-4.813.672-.73 0-1.492-.047-2.28-.141a29.875 29.875 0 0 1-2.266-.36 32.12 32.12 0 0 1-1.985-.453c-.586-.156-1.039-.316-1.36-.484l1.079-4.922c.664.305 1.547.594 2.64.875 1.094.274 2.399.406 3.922.406 1.844 0 3.176-.363 4-1.093.833-.739 1.25-1.598 1.25-2.578ZM50.266 55.813a247.352 247.352 0 0 0-3.328 4.437 31.341 31.341 0 0 0-2.954 4.922h6.282Zm5.828-7.282v16.641h2.969v4.875h-2.97v6.203h-5.827v-6.203h-11.97v-4.36A74.056 74.056 0 0 1 40.5 61.72a69.398 69.398 0 0 1 2.938-4.563 80.118 80.118 0 0 1 3.421-4.578 48.177 48.177 0 0 1 3.594-4.047Zm23.967 7.282a7.27 7.27 0 0 1-.609 2.922c-.398.93-.918 1.828-1.562 2.703a21.752 21.752 0 0 1-2.157 2.5 122.18 122.18 0 0 1-2.359 2.265c-.398.375-.828.797-1.297 1.266a34.866 34.866 0 0 0-2.484 2.766c-.336.406-.54.746-.61 1.015h11.922v5H62.421a6.209 6.209 0 0 1-.078-1.11v-.968c0-1.281.203-2.453.61-3.516.413-1.07.956-2.066 1.624-2.984a19.415 19.415 0 0 1 2.25-2.578c.844-.8 1.68-1.602 2.516-2.406.633-.614 1.234-1.192 1.797-1.735a20.189 20.189 0 0 0 1.484-1.61 7.557 7.557 0 0 0 1-1.546c.238-.52.36-1.05.36-1.594 0-1.164-.337-1.988-1-2.468-.669-.477-1.497-.72-2.485-.72-.719 0-1.398.118-2.031.345-.625.218-1.2.484-1.719.796-.512.305-.953.61-1.328.922-.375.305-.656.547-.844.735l-2.953-4.157c1.164-1.093 2.531-1.992 4.094-2.703a12.025 12.025 0 0 1 5.015-1.062c1.625 0 3.024.187 4.203.562 1.176.375 2.145.903 2.907 1.578a6.077 6.077 0 0 1 1.672 2.485c.363.969.546 2.07.546 3.297Zm0 0"/>
</svg>
