<svg xmlns="http://www.w3.org/2000/svg" version="1.2" viewBox="0 0 375 375">
  <path d="m359.121 5.996.461.043.45.066.448.086.438.094.437.117.422.137.422.145.414.168.399.175.39.196.395.21.371.227.371.238.356.247.347.27.336.276.328.29.313.308.304.313.29.324.277.336.262.347.253.36.239.367.226.371.203.395.2.39.18.41.167.407.145.421.137.426.109.43.101.445.083.442.066.46.05.458.028.457.008.472v340.74l-.008.464-.027.465-.051.461-.066.45-.082.445-.102.441-.11.438-.136.422-.145.421-.168.414-.18.399-.199.39-.203.387-.226.38-.239.37-.253.356-.262.347-.277.336-.29.328-.304.313-.313.305-.328.289-.336.277-.347.262-.356.254-.371.238-.371.219-.395.21-.39.2-.399.18-.414.168-.422.144-.422.133-.437.113-.438.102-.449.082-.449.066-.46.05-.466.028-.465.008H17.453l-.465-.008-.465-.027-.457-.05-.46-.067-.442-.082-.445-.102-.43-.113-.426-.133-.422-.144-.406-.168-.41-.18-.39-.2-.387-.21-.38-.22-.366-.237-.36-.254-.347-.262-.336-.277-.325-.29-.312-.304-.305-.313-.293-.328-.277-.336-.262-.347-.254-.356-.238-.37-.227-.38-.21-.386-.188-.391-.184-.399-.168-.414-.144-.421-.137-.422-.117-.438-.094-.441-.086-.446-.058-.449-.051-.46-.031-.466-.008-.464V17.32l.008-.472.03-.457.052-.457.058-.461.086-.442.094-.445.117-.43.137-.426.144-.421.168-.407.184-.41.187-.39.211-.395.227-.371.238-.367.254-.36.262-.347.277-.336.293-.324.305-.313.312-.305.325-.293.336-.277.347-.27.36-.246.367-.238.379-.226.386-.211.391-.196.41-.175.406-.168.422-.145.426-.137.43-.117.445-.094.441-.086.461-.066.457-.043.465-.031.465-.008h340.738l.465.008Zm-333.25 8.86-.465.03-.457.044-.453.062-.45.09-.437.094-.437.117-.426.137-.414.144-.414.168-.402.176-.399.195-.387.211-.378.227-.364.238-.355.246-.348.27-.336.277-.324.29-.313.308-.308.312-.29.324-.276.336-.27.348-.246.355-.238.364-.227.379-.21.386-.188.399-.184.402-.168.414-.145.414-.136.426-.117.438-.094.437-.09.45-.055.452-.05.457-.032.465-.008.465v322.965l.008.465.032.469.05.457.055.449.09.445.094.442.117.437.136.422.145.422.168.414.184.398.187.395.211.383.227.379.238.37.246.356.27.348.277.336.289.328.308.312.313.305.324.29.336.276.348.262.355.254.364.242.378.215.387.211.399.2.402.179.414.168.414.144.426.133.437.113.438.106.45.078.452.067.457.05.465.028.465.007H349.3l.465-.007.468-.028.457-.05.45-.067.453-.078.433-.106.438-.113.422-.133.422-.144.414-.168.398-.18.395-.199.39-.21.371-.216.371-.242.356-.254.348-.262.336-.277.328-.289.312-.305.305-.312.289-.328.277-.336.262-.348.254-.355.242-.371.223-.38.203-.382.199-.395.18-.398.168-.414.144-.422.14-.422.106-.437.106-.442.078-.445.066-.45.051-.456.027-.47.008-.464V26.203l-.008-.465-.027-.465-.05-.457-.067-.453-.078-.449-.211-.875-.14-.426-.145-.414-.168-.414-.18-.402-.2-.399-.202-.386-.223-.38-.242-.363-.254-.355-.262-.348-.277-.336-.29-.324-.304-.312-.312-.309-.329-.289-.335-.277-.348-.27-.356-.246-.37-.238-.372-.227-.39-.21-.395-.196-.398-.176-.414-.168-.422-.144-.422-.137-.438-.117-.433-.094-.453-.09-.45-.062-.457-.043-.468-.032-.465-.007H26.336Zm0 0"/>
  <path d="M192.669 97.834v18.61h-29.25v78.374H141.59v-78.375h-29.25v-18.61Zm9.105 60.172c0-5.313.86-10.32 2.578-15.032 1.726-4.718 4.222-8.828 7.484-12.328 3.27-3.5 7.238-6.273 11.906-8.328 4.665-2.05 9.985-3.078 15.954-3.078 3.925 0 7.52.355 10.78 1.062 3.27.7 6.442 1.7 9.516 3l-4.328 16.657c-1.968-.75-4.12-1.399-6.453-1.953-2.324-.563-4.933-.844-7.828-.844-6.156 0-10.75 1.914-13.781 5.734-3.031 3.824-4.547 8.86-4.547 15.11 0 6.625 1.422 11.761 4.266 15.406 2.843 3.637 7.812 5.453 14.906 5.453 2.508 0 5.21-.234 8.11-.703 2.894-.469 5.554-1.211 7.984-2.235l2.937 17.079c-2.43 1.023-5.465 1.898-9.11 2.64-3.636.75-7.648 1.125-12.03 1.125-6.72 0-12.508-1-17.36-3-4.844-2.008-8.828-4.738-11.953-8.187-3.125-3.457-5.414-7.54-6.86-12.25-1.449-4.707-2.171-9.817-2.171-15.328ZM98.385 237.942v5.313h-8.359v22.406h-6.25v-22.406h-8.36v-5.313Zm2.592 17.36c0-1.864.285-3.493.859-4.891.57-1.406 1.32-2.57 2.25-3.5a9.42 9.42 0 0 1 3.219-2.125 10.218 10.218 0 0 1 3.75-.719c2.988 0 5.347.914 7.078 2.735 1.738 1.824 2.61 4.511 2.61 8.062 0 .344-.016.727-.048 1.14-.023.407-.047.774-.078 1.094h-13.515c.132 1.231.707 2.204 1.718 2.922 1.008.72 2.367 1.078 4.078 1.078 1.094 0 2.164-.097 3.22-.296 1.05-.196 1.91-.442 2.577-.735l.797 4.828c-.312.168-.742.328-1.281.485-.531.156-1.125.289-1.781.406a27.42 27.42 0 0 1-2.094.312 20.29 20.29 0 0 1-2.234.125c-1.899 0-3.547-.28-4.954-.843-1.398-.563-2.554-1.328-3.468-2.297a9.279 9.279 0 0 1-2.047-3.469c-.438-1.332-.656-2.77-.656-4.312Zm14-2.282a5.617 5.617 0 0 0-.266-1.484 3.573 3.573 0 0 0-1.828-2.188c-.469-.25-1.055-.375-1.75-.375-.668 0-1.242.118-1.719.344-.48.23-.883.531-1.203.906a4.268 4.268 0 0 0-.734 1.297 9.159 9.159 0 0 0-.375 1.5Zm9.359 2.125c0-1.52.243-2.953.735-4.297.5-1.351 1.21-2.53 2.14-3.53.938-1 2.07-1.79 3.407-2.376 1.332-.582 2.851-.875 4.562-.875 1.113 0 2.14.102 3.078.297.938.2 1.844.484 2.719.86l-1.234 4.75a15.693 15.693 0 0 0-1.844-.547 9.377 9.377 0 0 0-2.235-.25c-1.761 0-3.078.546-3.953 1.64-.867 1.094-1.297 2.54-1.297 4.328 0 1.887.407 3.352 1.22 4.391.812 1.043 2.234 1.562 4.265 1.562.719 0 1.488-.062 2.312-.187a9.187 9.187 0 0 0 2.282-.656l.843 4.89c-.687.293-1.554.54-2.593.75-1.043.22-2.188.328-3.438.328-1.93 0-3.586-.289-4.969-.859-1.386-.57-2.527-1.351-3.422-2.344-.886-.988-1.539-2.156-1.953-3.5-.418-1.343-.625-2.8-.625-4.375Zm21 10.516v-30.078l5.969-.969v10.094c.394-.133.906-.258 1.531-.375a9.311 9.311 0 0 1 1.828-.188c1.707 0 3.125.235 4.25.703 1.133.461 2.04 1.118 2.719 1.97.688.855 1.164 1.87 1.438 3.046.28 1.168.421 2.477.421 3.922v11.875h-5.953v-11.156c0-1.926-.25-3.285-.75-4.078-.492-.801-1.402-1.204-2.734-1.204-.531 0-1.031.047-1.5.141-.469.094-.887.195-1.25.297v16Zm23.56-20.313c1.008-.3 2.316-.578 3.922-.828a32.722 32.722 0 0 1 5.047-.375c1.781 0 3.265.235 4.453.703 1.187.461 2.125 1.118 2.812 1.97.696.855 1.192 1.87 1.485 3.046.289 1.168.437 2.477.437 3.922v11.875H181.1v-11.156c0-1.926-.258-3.285-.766-4.078-.5-.801-1.445-1.204-2.828-1.204-.43 0-.886.024-1.375.063-.48.043-.902.09-1.265.14v16.235h-5.969Zm22.56 9.954c0-1.864.285-3.493.86-4.891.57-1.406 1.32-2.57 2.25-3.5a9.42 9.42 0 0 1 3.218-2.125 10.218 10.218 0 0 1 3.75-.719c2.988 0 5.348.914 7.078 2.735 1.738 1.824 2.61 4.511 2.61 8.062 0 .344-.016.727-.047 1.14-.024.407-.047.774-.079 1.094h-13.515c.133 1.231.707 2.204 1.719 2.922 1.007.72 2.367 1.078 4.078 1.078 1.093 0 2.164-.097 3.218-.296 1.051-.196 1.91-.442 2.579-.735l.796 4.828c-.312.168-.742.328-1.28.485-.532.156-1.126.289-1.782.406a27.42 27.42 0 0 1-2.094.312 20.29 20.29 0 0 1-2.234.125c-1.899 0-3.547-.28-4.953-.843-1.399-.563-2.555-1.328-3.47-2.297a9.279 9.279 0 0 1-2.046-3.469c-.437-1.332-.656-2.77-.656-4.312Zm14-2.282a5.617 5.617 0 0 0-.266-1.484 3.573 3.573 0 0 0-1.828-2.188c-.469-.25-1.055-.375-1.75-.375-.668 0-1.242.118-1.719.344-.48.23-.883.531-1.203.906a4.268 4.268 0 0 0-.734 1.297 9.159 9.159 0 0 0-.375 1.5Zm10.156-13.64 5.97-.953v6.187h7.155v4.969h-7.156v7.39c0 1.262.219 2.266.656 3.016.438.742 1.32 1.11 2.657 1.11a11.106 11.106 0 0 0 3.844-.672l.843 4.64a16.18 16.18 0 0 1-2.406.75c-.875.219-1.953.328-3.234.328-1.625 0-2.977-.218-4.047-.656-1.063-.445-1.918-1.062-2.563-1.844-.637-.789-1.086-1.742-1.344-2.859-.25-1.125-.375-2.363-.375-3.719Zm23.932 26.281h-5.969v-21.047h5.97Zm.547-27.125c0 1.094-.355 1.96-1.062 2.594-.7.625-1.528.937-2.485.937-.969 0-1.808-.312-2.515-.937-.7-.633-1.047-1.5-1.047-2.594 0-1.094.347-1.953 1.047-2.578.707-.625 1.546-.938 2.515-.938.957 0 1.785.313 2.485.938.707.625 1.062 1.484 1.062 2.578Zm23.013 26.406c-1.023.293-2.336.563-3.937.813-1.594.258-3.274.39-5.032.39-1.78 0-3.265-.242-4.453-.718-1.187-.477-2.133-1.149-2.828-2.016-.687-.875-1.183-1.91-1.484-3.11-.293-1.195-.438-2.515-.438-3.953v-11.734h5.969v11c0 1.93.25 3.32.75 4.172.508.855 1.457 1.281 2.844 1.281.426 0 .879-.02 1.36-.062.476-.04.905-.086 1.28-.14v-16.25h5.97Zm17.154-10.437c0-1.926-.25-3.285-.75-4.078-.493-.801-1.336-1.204-2.532-1.204-.375 0-.765.024-1.171.063-.399.043-.778.09-1.141.14v16.235h-5.969v-20.313a37.888 37.888 0 0 1 3.938-.813 27.653 27.653 0 0 1 2.343-.28c.801-.07 1.586-.11 2.36-.11 1.52 0 2.754.196 3.703.578.945.387 1.726.844 2.344 1.375.851-.613 1.832-1.093 2.937-1.437 1.102-.344 2.125-.516 3.063-.516 1.675 0 3.05.235 4.125.703 1.082.461 1.941 1.118 2.578 1.97.644.855 1.086 1.87 1.328 3.046.238 1.168.36 2.477.36 3.922v11.875h-5.954v-11.156c0-1.926-.25-3.285-.75-4.078-.492-.801-1.336-1.204-2.531-1.204-.324 0-.774.086-1.344.25-.574.157-1.047.356-1.422.594a8.91 8.91 0 0 1 .36 1.938c.05.68.078 1.402.078 2.172v11.484h-5.953ZM148.702 313.45c.614 0 1.254-.054 1.922-.171.664-.125 1.156-.297 1.469-.516v-.359c0-.102.004-.207.016-.313a1.75 1.75 0 0 0 .03-.28 22.022 22.022 0 0 0-.25-2.704c-.124-.844-.35-1.578-.671-2.203a3.775 3.775 0 0 0-1.313-1.469c-.543-.363-1.21-.547-2-.547-.648 0-1.21.137-1.687.407-.48.261-.867.605-1.156 1.03-.293.43-.512.9-.657 1.407-.148.5-.218.992-.218 1.469 0 1.45.347 2.523 1.047 3.219.707.687 1.863 1.03 3.468 1.03Zm2.922 3.876a7.221 7.221 0 0 1-1.875.594c-.68.117-1.258.171-1.734.171-1.73 0-3.211-.207-4.438-.625-1.23-.414-2.242-1.003-3.03-1.765a6.998 6.998 0 0 1-1.735-2.735c-.367-1.062-.547-2.234-.547-3.515 0-1.07.176-2.164.531-3.281a9.002 9.002 0 0 1 1.703-3.063c.77-.914 1.75-1.676 2.938-2.281 1.187-.602 2.617-.906 4.297-.906 3.445 0 6.039 1.062 7.78 3.187 1.75 2.117 2.626 5.164 2.626 9.14 0 2.618-.344 4.923-1.031 6.923-.68 2-1.73 3.683-3.157 5.046-1.418 1.356-3.234 2.387-5.453 3.094-2.21.711-4.836 1.07-7.875 1.094a90.625 90.625 0 0 0-.125-2.469c-.054-.8-.105-1.629-.156-2.484 1.52-.031 2.89-.145 4.11-.344 1.226-.195 2.304-.531 3.234-1a7.477 7.477 0 0 0 2.39-1.86c.657-.769 1.172-1.741 1.547-2.921Zm29.439 3.281c0 1.2-.211 2.297-.625 3.297a7.383 7.383 0 0 1-1.86 2.625c-.824.742-1.855 1.32-3.093 1.734-1.243.414-2.68.625-4.313.625-1.867 0-3.418-.261-4.656-.78-1.242-.52-2.242-1.165-3-1.938-.762-.77-1.305-1.614-1.625-2.532-.313-.925-.469-1.773-.469-2.547 0-.8.102-1.535.313-2.203a7.28 7.28 0 0 1 .875-1.812c.375-.55.797-1.05 1.265-1.5.469-.457.969-.89 1.5-1.297-1.148-.926-1.996-1.844-2.547-2.75-.543-.906-.812-2.066-.812-3.484 0-1.063.219-2.086.656-3.079a7.863 7.863 0 0 1 1.86-2.578c.8-.738 1.77-1.328 2.906-1.765 1.133-.438 2.394-.657 3.781-.657 1.625 0 3.016.235 4.172.704 1.164.468 2.117 1.062 2.86 1.78.75.72 1.288 1.528 1.624 2.423.332.886.5 1.773.5 2.656 0 1.281-.34 2.477-1.015 3.578-.68 1.106-1.528 1.98-2.547 2.625 1.52.98 2.61 2.012 3.265 3.094.657 1.086.985 2.344.985 3.781Zm-13.844.234c0 .325.07.68.219 1.063.144.387.379.742.703 1.062.32.325.734.594 1.234.813.508.21 1.125.312 1.844.312 1.383 0 2.395-.332 3.031-1 .645-.664.969-1.414.969-2.25 0-.613-.14-1.16-.422-1.64a4.266 4.266 0 0 0-1.14-1.25 8.103 8.103 0 0 0-1.704-.969 23.084 23.084 0 0 0-2.093-.781 8.21 8.21 0 0 0-1.891 1.969c-.5.742-.75 1.632-.75 2.671Zm7.406-13.156a2.7 2.7 0 0 0-.187-.937 2.6 2.6 0 0 0-.594-.938 3.586 3.586 0 0 0-1.062-.734c-.43-.207-.95-.313-1.563-.313-.586 0-1.09.094-1.516.282-.43.187-.78.437-1.062.75a3.06 3.06 0 0 0-.625.968c-.137.344-.203.68-.203 1 0 .856.312 1.657.937 2.407.633.742 1.711 1.382 3.235 1.921.851-.539 1.504-1.156 1.953-1.843.457-.696.687-1.551.687-2.563Zm16.595 17.485c0 1.199-.383 2.109-1.14 2.734-.762.625-1.622.937-2.579.937-.96 0-1.82-.312-2.578-.937-.761-.625-1.14-1.535-1.14-2.734 0-1.196.379-2.11 1.14-2.735.758-.633 1.617-.953 2.578-.953.957 0 1.817.32 2.578.953.758.625 1.141 1.54 1.141 2.735Zm12.762-11.72c.613 0 1.254-.054 1.922-.171.664-.125 1.156-.297 1.469-.516v-.359c0-.102.003-.207.015-.313a1.75 1.75 0 0 0 .031-.28 22.022 22.022 0 0 0-.25-2.704c-.125-.844-.351-1.578-.671-2.203a3.775 3.775 0 0 0-1.313-1.469c-.543-.363-1.21-.547-2-.547-.648 0-1.21.137-1.687.407-.48.261-.868.605-1.157 1.03-.293.43-.511.9-.656 1.407-.148.5-.219.992-.219 1.469 0 1.45.348 2.523 1.047 3.219.707.687 1.863 1.03 3.469 1.03Zm2.922 3.876a7.221 7.221 0 0 1-1.875.594c-.68.117-1.258.171-1.735.171-1.73 0-3.21-.207-4.437-.625-1.23-.414-2.242-1.003-3.031-1.765a6.998 6.998 0 0 1-1.735-2.735c-.367-1.062-.547-2.234-.547-3.515 0-1.07.176-2.164.532-3.281a9.002 9.002 0 0 1 1.703-3.063c.77-.914 1.75-1.676 2.937-2.281 1.188-.602 2.617-.906 4.297-.906 3.445 0 6.04 1.062 7.781 3.187 1.75 2.117 2.625 5.164 2.625 9.14 0 2.618-.343 4.923-1.03 6.923-.68 2-1.731 3.683-3.157 5.046-1.418 1.356-3.234 2.387-5.453 3.094-2.211.711-4.836 1.07-7.875 1.094a90.625 90.625 0 0 0-.125-2.469c-.055-.8-.106-1.629-.156-2.484 1.52-.031 2.89-.145 4.109-.344 1.226-.195 2.305-.531 3.234-1a7.477 7.477 0 0 0 2.39-1.86c.657-.769 1.173-1.741 1.548-2.921Zm11.032-10.953c.77-.32 1.578-.692 2.422-1.11.844-.414 1.66-.867 2.453-1.359a30.19 30.19 0 0 0 2.297-1.547 15.52 15.52 0 0 0 1.984-1.75h4.172v27.719h-5.969v-19.953a18.386 18.386 0 0 1-2.687 1.453c-.98.437-1.938.82-2.875 1.14ZM50.266 55.813a247.352 247.352 0 0 0-3.328 4.437 31.341 31.341 0 0 0-2.954 4.922h6.282Zm5.828-7.282v16.641h2.969v4.875h-2.97v6.203h-5.827v-6.203h-11.97v-4.36A74.056 74.056 0 0 1 40.5 61.72a69.398 69.398 0 0 1 2.938-4.563 80.118 80.118 0 0 1 3.421-4.578 48.177 48.177 0 0 1 3.594-4.047Zm13.249 28.313c-.719 0-1.48-.047-2.282-.14a26.337 26.337 0 0 1-2.328-.376 23.58 23.58 0 0 1-2.03-.515 12.157 12.157 0 0 1-1.438-.516l1.156-4.969c.687.293 1.57.606 2.656.938 1.082.336 2.422.5 4.016.5 1.843 0 3.191-.344 4.047-1.031.851-.696 1.28-1.63 1.28-2.797 0-.727-.155-1.336-.468-1.828a3.48 3.48 0 0 0-1.25-1.188c-.531-.312-1.168-.523-1.906-.64a13.9 13.9 0 0 0-2.344-.188H66.14v-4.797h2.64c.582 0 1.145-.05 1.688-.156a4.833 4.833 0 0 0 1.468-.547 2.87 2.87 0 0 0 1.016-1.047c.258-.437.39-.988.39-1.656 0-.508-.109-.946-.327-1.313a2.85 2.85 0 0 0-.813-.922 3.576 3.576 0 0 0-1.172-.53 4.826 4.826 0 0 0-1.328-.188c-1.148 0-2.21.172-3.187.515a13.17 13.17 0 0 0-2.657 1.282l-2.125-4.36a18.8 18.8 0 0 1 1.5-.844c.57-.289 1.203-.554 1.891-.796a17.344 17.344 0 0 1 2.219-.594c.789-.164 1.629-.25 2.515-.25 1.625 0 3.032.195 4.22.578 1.187.387 2.163.933 2.937 1.64a6.73 6.73 0 0 1 1.718 2.485c.375.95.563 1.98.563 3.094 0 1.093-.309 2.156-.922 3.187a6.097 6.097 0 0 1-2.469 2.328c1.438.594 2.547 1.469 3.328 2.625.79 1.157 1.188 2.555 1.188 4.188 0 1.281-.215 2.465-.64 3.547a7.223 7.223 0 0 1-2 2.797c-.907.78-2.063 1.39-3.47 1.828-1.398.437-3.054.656-4.968.656Zm0 0"/>
</svg>
