<svg xmlns="http://www.w3.org/2000/svg" version="1.2" viewBox="0 0 375 375">
  <path d="m359.121 5.996.461.043.45.066.448.086.438.094.437.117.422.137.422.149.414.164.399.175.39.196.395.21.371.227.371.238.356.25.347.266.336.277.328.293.313.305.304.313.29.324.277.336.262.347.253.36.239.367.226.371.203.395.2.39.18.41.167.407.145.421.137.43.109.426.101.445.083.442.066.46.05.458.028.457.008.472v340.74l-.008.464-.027.465-.051.461-.066.45-.082.445-.102.441-.11.438-.136.422-.145.421-.168.414-.18.399-.199.394-.203.383-.226.38-.239.37-.253.356-.262.347-.277.336-.29.328-.304.313-.313.305-.328.289-.336.277-.347.262-.356.254-.371.242-.371.215-.395.21-.39.2-.399.18-.414.168-.422.144-.422.133-.437.113-.438.102-.449.082-.449.066-.46.05-.466.028-.465.008H17.453l-.465-.008-.465-.027-.457-.05-.46-.067-.442-.082-.445-.102-.43-.113-.426-.133-.422-.144-.406-.168-.41-.18-.39-.2-.387-.21-.38-.215-.366-.242-.36-.254-.347-.262-.336-.277-.325-.29-.312-.304-.305-.313-.293-.328-.277-.336-.262-.347-.254-.356-.238-.37-.227-.38-.21-.383-.188-.394-.184-.399-.168-.414-.144-.421-.137-.422-.117-.438-.094-.441-.086-.446-.058-.449-.051-.46-.031-.466-.008-.464V17.32l.008-.472.03-.457.052-.457.058-.461.086-.442.094-.445.117-.426.137-.43.144-.421.168-.407.184-.41.187-.39.211-.395.227-.371.238-.367.254-.36.262-.347.277-.336.293-.324.305-.313.312-.305.325-.293.336-.277.347-.266.36-.25.367-.238.379-.226.386-.211.391-.196.41-.175.406-.165.422-.148.426-.137.43-.117.445-.094.441-.086.461-.066.457-.043.465-.031.465-.008h340.738l.465.008Zm-333.25 8.86-.465.03-.457.044-.453.066-.45.086-.437.094-.437.117-.426.137-.414.144-.414.168-.402.176-.399.195-.387.211-.378.227-.364.238-.355.246-.348.27-.336.277-.324.29-.313.308-.308.312-.29.324-.276.336-.27.348-.246.355-.238.364-.227.379-.21.386-.188.399-.184.402-.168.414-.145.414-.136.43-.117.434-.094.437-.09.45-.055.452-.05.457-.032.465-.008.465v322.965l.008.469.032.465.05.457.055.449.09.445.094.442.117.437.136.422.145.422.168.414.184.398.187.395.211.383.227.379.238.37.246.356.27.348.277.336.289.328.308.312.313.305.324.29.336.276.348.262.355.254.364.242.378.215.387.211.399.2.402.179.414.168.414.144.426.133.437.117.438.102.45.078.452.067.457.05.465.028.465.007H349.3l.465-.007.468-.028.457-.05.45-.067.453-.078.433-.102.438-.117.422-.133.422-.144.414-.168.398-.18.395-.199.39-.21.371-.216.371-.242.356-.254.348-.262.336-.277.328-.289.312-.305.305-.312.289-.328.277-.336.262-.348.254-.355.242-.371.223-.38.203-.382.199-.395.18-.398.168-.414.144-.422.14-.422.106-.437.106-.442.078-.445.066-.45.051-.456.027-.465.008-.469V26.203l-.008-.465-.027-.465-.05-.457-.067-.453-.078-.449-.106-.437-.105-.434-.14-.43-.145-.414-.168-.414-.18-.402-.2-.399-.202-.386-.223-.38-.242-.363-.254-.355-.262-.348-.277-.336-.29-.324-.304-.312-.312-.309-.329-.289-.335-.277-.348-.27-.356-.246-.37-.238-.372-.227-.39-.21-.395-.196-.398-.176-.414-.168-.422-.144-.422-.137-.438-.117-.433-.094-.453-.086-.45-.066-.457-.043-.468-.032-.465-.007H26.336Zm0 0"/>
  <path d="M140.479 96.709c14.457 0 25.554 2.542 33.297 7.625 7.75 5.085 11.625 13.414 11.625 24.984 0 11.668-3.922 20.09-11.766 25.266-7.836 5.18-19.027 7.765-33.578 7.765h-6.86v32.469H111.37V99.224c4.75-.926 9.782-1.578 15.094-1.953 5.32-.375 9.992-.562 14.016-.562Zm1.39 18.609c-1.586 0-3.148.047-4.687.14a174.64 174.64 0 0 0-3.985.282v28h6.86c7.55 0 13.238-1.024 17.062-3.078 3.832-2.051 5.75-5.88 5.75-11.485 0-2.707-.492-4.945-1.468-6.718-.98-1.77-2.383-3.192-4.204-4.266-1.824-1.07-4.043-1.817-6.656-2.234-2.605-.426-5.496-.641-8.672-.641Zm76.007 42.125c0 6.45 1.442 11.633 4.328 15.547 2.895 3.918 7.188 5.875 12.875 5.875 1.864 0 3.586-.067 5.172-.203 1.594-.145 2.899-.313 3.922-.5V140.24c-1.305-.844-3.008-1.54-5.11-2.094a24.415 24.415 0 0 0-6.359-.844c-9.886 0-14.828 6.715-14.828 20.14Zm47.157 35c-1.868.555-4.012 1.09-6.438 1.61-2.43.511-4.969.952-7.625 1.327a143.85 143.85 0 0 1-8.125.907 96.73 96.73 0 0 1-7.906.343c-6.063 0-11.477-.886-16.235-2.656-4.761-1.77-8.777-4.312-12.046-7.625-3.262-3.312-5.758-7.32-7.485-12.031-1.719-4.719-2.578-10.016-2.578-15.89 0-5.97.742-11.352 2.234-16.157 1.5-4.812 3.645-8.895 6.438-12.25 2.8-3.363 6.226-5.93 10.281-7.703 4.063-1.77 8.707-2.656 13.938-2.656 2.894 0 5.484.28 7.765.843a42.477 42.477 0 0 1 6.922 2.375V89.568l20.86-3.36Zm-160.537 45.171c4.133 0 7.305.73 9.516 2.188 2.219 1.449 3.328 3.828 3.328 7.14 0 3.336-1.121 5.742-3.36 7.219-2.242 1.48-5.437 2.219-9.593 2.219h-1.969v9.281h-6.234v-27.313a34.11 34.11 0 0 1 4.312-.562 54.691 54.691 0 0 1 4-.172Zm.406 5.328c-.46 0-.906.016-1.343.047-.438.024-.82.047-1.141.078v8h1.969c2.156 0 3.781-.289 4.875-.875 1.094-.594 1.64-1.691 1.64-3.297 0-.77-.14-1.406-.421-1.906a3.189 3.189 0 0 0-1.204-1.219c-.523-.312-1.156-.523-1.906-.64a14.9 14.9 0 0 0-2.469-.188Zm24.682 18.563c.582 0 1.14-.008 1.672-.032.531-.03.957-.07 1.281-.125v-4.53a12.479 12.479 0 0 0-1.078-.157 11.327 11.327 0 0 0-2.906.032 4.001 4.001 0 0 0-1.297.374 2.307 2.307 0 0 0-.89.766c-.212.312-.313.71-.313 1.187 0 .938.312 1.59.937 1.953.633.356 1.5.532 2.594.532Zm-.484-17.438c1.757 0 3.222.2 4.39.594 1.176.398 2.117.969 2.828 1.719.707.75 1.207 1.664 1.5 2.734.29 1.063.438 2.246.438 3.547v12.406a72.45 72.45 0 0 1-3.563.656c-1.511.25-3.351.375-5.515.375-1.356 0-2.59-.12-3.703-.359-1.106-.238-2.059-.629-2.86-1.172a5.485 5.485 0 0 1-1.828-2.14c-.43-.883-.64-1.97-.64-3.25 0-1.22.242-2.254.734-3.11a5.718 5.718 0 0 1 1.969-2.047 8.829 8.829 0 0 1 2.843-1.093 16.03 16.03 0 0 1 3.329-.344c.77 0 1.453.039 2.046.11a9.568 9.568 0 0 1 1.47.25v-.563c0-1.008-.31-1.82-.923-2.438-.617-.613-1.68-.922-3.187-.922a20.8 20.8 0 0 0-3.016.22c-.98.148-1.828.355-2.547.624l-.765-4.797a14.07 14.07 0 0 1 1.297-.344 20.45 20.45 0 0 1 1.703-.328 32.544 32.544 0 0 1 1.937-.234 22.387 22.387 0 0 1 2.063-.094Zm22.963 22c-1.742-.031-3.152-.219-4.234-.562-1.074-.352-1.922-.844-2.547-1.469a4.836 4.836 0 0 1-1.281-2.266c-.23-.894-.344-1.906-.344-3.03v-23.157l5.969-.969v22.922c0 .543.035 1.027.11 1.453.081.418.237.777.468 1.078.226.293.55.531.969.719.425.187 1.004.309 1.734.36Zm12.64 0c-1.742-.031-3.152-.219-4.234-.562-1.074-.352-1.922-.844-2.547-1.469a4.836 4.836 0 0 1-1.281-2.266c-.23-.894-.344-1.906-.344-3.03v-23.157l5.969-.969v22.922c0 .543.035 1.027.109 1.453.082.418.238.777.469 1.078.226.293.55.531.969.719.425.187 1.003.309 1.734.36Zm12.281-4.562c.582 0 1.14-.008 1.672-.032.53-.03.957-.07 1.28-.125v-4.53c-.241-.052-.6-.102-1.077-.157a11.337 11.337 0 0 0-2.907.032 4.001 4.001 0 0 0-1.296.374 2.307 2.307 0 0 0-.891.766c-.211.312-.313.71-.313 1.187 0 .938.313 1.59.938 1.953.633.356 1.5.532 2.594.532Zm-.485-17.438c1.758 0 3.223.2 4.39.594 1.177.398 2.118.969 2.83 1.719.706.75 1.206 1.664 1.5 2.734.288 1.063.437 2.246.437 3.547v12.406a72.45 72.45 0 0 1-3.563.656c-1.512.25-3.352.375-5.516.375-1.355 0-2.59-.12-3.703-.359-1.105-.238-2.058-.629-2.86-1.172a5.485 5.485 0 0 1-1.827-2.14c-.43-.883-.64-1.97-.64-3.25 0-1.22.241-2.254.734-3.11a5.718 5.718 0 0 1 1.968-2.047 8.843 8.843 0 0 1 2.844-1.093 16.03 16.03 0 0 1 3.328-.344c.77 0 1.453.039 2.047.11a9.568 9.568 0 0 1 1.469.25v-.563c0-1.008-.309-1.82-.922-2.438-.617-.613-1.68-.922-3.188-.922a20.8 20.8 0 0 0-3.015.22c-.98.148-1.828.355-2.547.624l-.766-4.797a14.07 14.07 0 0 1 1.297-.344 20.53 20.53 0 0 1 1.703-.328 32.544 32.544 0 0 1 1.938-.234 22.387 22.387 0 0 1 2.062-.094Zm19.636 10.906c0 1.844.41 3.329 1.234 4.454.832 1.117 2.063 1.671 3.688 1.671.53 0 1.02-.019 1.468-.062.457-.04.836-.086 1.141-.14v-10.829c-.375-.238-.867-.437-1.469-.594a6.786 6.786 0 0 0-1.812-.25c-2.836 0-4.25 1.918-4.25 5.75Zm13.484 10c-.531.168-1.148.325-1.844.47-.687.148-1.414.269-2.172.374a43.77 43.77 0 0 1-2.328.25c-.78.07-1.53.11-2.25.11-1.742 0-3.293-.25-4.656-.75-1.355-.508-2.5-1.239-3.437-2.188-.93-.945-1.641-2.094-2.141-3.437-.492-1.344-.734-2.86-.734-4.547 0-1.696.21-3.235.64-4.61.426-1.375 1.04-2.539 1.844-3.5a7.998 7.998 0 0 1 2.937-2.203c1.157-.508 2.485-.765 3.985-.765.82 0 1.562.086 2.219.25a11.99 11.99 0 0 1 1.984.671v-9.515l5.953-.969Zm11.566.688h-5.969v-21.047h5.97Zm.547-27.125c0 1.094-.355 1.96-1.062 2.594-.7.625-1.528.937-2.485.937-.969 0-1.808-.312-2.515-.937-.7-.633-1.047-1.5-1.047-2.594 0-1.094.347-1.953 1.047-2.578.707-.625 1.546-.938 2.515-.938.957 0 1.785.313 2.485.938.707.625 1.062 1.484 1.062 2.578Zm23.013 26.406c-1.023.293-2.336.563-3.937.813-1.594.258-3.274.39-5.032.39-1.78 0-3.265-.242-4.453-.718-1.187-.477-2.133-1.149-2.828-2.016-.687-.875-1.184-1.91-1.484-3.11-.293-1.195-.438-2.515-.438-3.953v-11.734h5.969v11c0 1.93.25 3.32.75 4.172.508.855 1.457 1.281 2.844 1.281.425 0 .879-.02 1.36-.062.476-.04.905-.086 1.28-.14v-16.25h5.97Zm17.154-10.437c0-1.926-.25-3.285-.75-4.078-.493-.801-1.336-1.204-2.532-1.204-.375 0-.765.024-1.171.063-.399.043-.778.09-1.141.14v16.235h-5.969v-20.313a37.888 37.888 0 0 1 3.938-.813 27.653 27.653 0 0 1 2.343-.28c.801-.07 1.586-.11 2.36-.11 1.52 0 2.754.196 3.703.578.945.387 1.726.844 2.344 1.375.851-.613 1.832-1.093 2.937-1.437 1.102-.344 2.125-.516 3.063-.516 1.675 0 3.05.235 4.125.703 1.082.461 1.941 1.118 2.578 1.97.644.855 1.086 1.87 1.328 3.046.238 1.168.36 2.477.36 3.922v11.875h-5.954v-11.156c0-1.926-.25-3.285-.75-4.078-.492-.801-1.336-1.204-2.531-1.204-.324 0-.774.086-1.344.25-.574.157-1.047.356-1.422.594a8.91 8.91 0 0 1 .36 1.938c.05.68.078 1.402.078 2.172v11.484h-5.953Zm-121.962 51.868c.77-.32 1.578-.692 2.422-1.11.843-.414 1.66-.867 2.453-1.359a30.39 30.39 0 0 0 2.297-1.547 15.52 15.52 0 0 0 1.984-1.75h4.172v27.719h-5.969v-19.953a18.49 18.49 0 0 1-2.687 1.453c-.98.437-1.938.82-2.875 1.14Zm41.282 8.031c0 4.668-.887 8.25-2.656 10.75-1.774 2.492-4.219 3.734-7.344 3.734-3.117 0-5.562-1.242-7.344-3.734-1.773-2.5-2.656-6.082-2.656-10.75 0-2.32.234-4.375.703-6.156.469-1.79 1.14-3.297 2.016-4.516.883-1.226 1.937-2.16 3.156-2.797 1.227-.644 2.602-.969 4.125-.969 3.125 0 5.57 1.25 7.344 3.75 1.77 2.493 2.656 6.055 2.656 10.688Zm-6.078 0c0-1.383-.07-2.645-.203-3.781-.137-1.133-.352-2.114-.64-2.938-.294-.82-.696-1.457-1.204-1.906-.5-.457-1.125-.688-1.875-.688s-1.371.23-1.86.688c-.492.45-.89 1.086-1.202 1.906-.305.824-.524 1.805-.657 2.938a31.88 31.88 0 0 0-.203 3.781c0 1.387.067 2.652.203 3.797.133 1.148.352 2.137.657 2.969.312.824.71 1.464 1.203 1.921.488.45 1.109.672 1.859.672s1.375-.222 1.875-.672c.508-.457.91-1.097 1.203-1.921.29-.832.504-1.82.64-2.97.134-1.144.204-2.41.204-3.796Zm18.392.875c-.586 0-1.211.059-1.875.172-.668.105-1.188.25-1.563.437 0 .106-.008.266-.016.485-.011.21-.015.39-.015.547 0 .968.062 1.882.187 2.734.133.844.364 1.59.688 2.234.32.637.75 1.137 1.281 1.5.531.356 1.195.532 2 .532.664 0 1.234-.133 1.703-.407a3.772 3.772 0 0 0 1.156-1.062 4.62 4.62 0 0 0 .672-1.422c.157-.52.235-1.02.235-1.5 0-1.363-.344-2.41-1.032-3.14-.68-.739-1.82-1.11-3.421-1.11Zm.765-4.64c1.727 0 3.196.234 4.406.702 1.22.47 2.211 1.106 2.985 1.907a7.1 7.1 0 0 1 1.687 2.797c.344 1.062.516 2.199.516 3.406 0 1.062-.195 2.156-.578 3.281a9.123 9.123 0 0 1-1.766 3.031c-.781.907-1.781 1.657-3 2.25-1.21.582-2.636.875-4.281.875-3.336 0-5.871-1.05-7.61-3.156-1.73-2.113-2.593-5.02-2.593-8.719 0-2.664.41-5.023 1.234-7.078.82-2.062 2-3.789 3.531-5.187 1.54-1.407 3.395-2.473 5.563-3.203 2.176-.727 4.625-1.11 7.344-1.141.05.824.101 1.633.156 2.422.062.793.117 1.61.172 2.453a23.24 23.24 0 0 0-3.828.39 13.06 13.06 0 0 0-3.25 1.063 8.92 8.92 0 0 0-2.532 1.86c-.718.761-1.277 1.687-1.671 2.78a7.104 7.104 0 0 1 1.796-.562 9.516 9.516 0 0 1 1.72-.172Zm19.642 14.531c0 1.199-.383 2.109-1.14 2.734-.762.625-1.622.937-2.579.937-.96 0-1.82-.312-2.578-.937-.762-.625-1.14-1.535-1.14-2.734 0-1.196.378-2.11 1.14-2.735.758-.633 1.617-.953 2.578-.953.957 0 1.817.32 2.578.953.758.625 1.14 1.54 1.14 2.735Zm13.965-17.282a247.352 247.352 0 0 0-3.328 4.438 31.341 31.341 0 0 0-2.953 4.922h6.28Zm5.828-7.28v16.64h2.969v4.875h-2.969v6.203h-5.828v-6.203h-11.969v-4.36a74.056 74.056 0 0 1 2.203-3.968 69.398 69.398 0 0 1 2.938-4.563 80.118 80.118 0 0 1 3.422-4.578 48.177 48.177 0 0 1 3.593-4.047ZM50.266 55.813a247.352 247.352 0 0 0-3.328 4.437 31.341 31.341 0 0 0-2.954 4.922h6.282Zm5.828-7.282v16.641h2.969v4.875h-2.97v6.203h-5.827v-6.203h-11.97v-4.36A74.056 74.056 0 0 1 40.5 61.72a69.398 69.398 0 0 1 2.938-4.563 80.118 80.118 0 0 1 3.421-4.578 48.177 48.177 0 0 1 3.594-4.047ZM71.17 63.203c-.585 0-1.21.059-1.874.172-.668.106-1.188.25-1.563.438 0 .105-.007.265-.015.484-.012.211-.016.39-.016.547 0 .969.063 1.883.188 2.734.132.844.363 1.59.687 2.235.32.636.75 1.136 1.281 1.5.532.355 1.196.53 2 .53.664 0 1.235-.132 1.703-.405a3.772 3.772 0 0 0 1.157-1.063c.3-.426.523-.898.672-1.422.156-.52.234-1.02.234-1.5 0-1.363-.344-2.41-1.031-3.14-.68-.739-1.82-1.11-3.422-1.11Zm.766-4.64c1.727 0 3.196.234 4.407.703 1.218.469 2.21 1.105 2.984 1.906a7.1 7.1 0 0 1 1.688 2.797c.343 1.062.515 2.2.515 3.406 0 1.063-.195 2.156-.578 3.281a9.123 9.123 0 0 1-1.766 3.032c-.78.906-1.78 1.656-3 2.25-1.21.582-2.636.875-4.28.875-3.337 0-5.872-1.051-7.61-3.157-1.73-2.113-2.594-5.02-2.594-8.718 0-2.664.41-5.024 1.234-7.078.82-2.063 2-3.79 3.532-5.188 1.539-1.406 3.394-2.473 5.562-3.203 2.176-.727 4.625-1.11 7.344-1.14.05.823.102 1.632.156 2.421.063.793.117 1.61.172 2.453a23.24 23.24 0 0 0-3.828.39 13.06 13.06 0 0 0-3.25 1.063 8.92 8.92 0 0 0-2.531 1.86c-.719.761-1.278 1.687-1.672 2.781a7.104 7.104 0 0 1 1.797-.562 9.516 9.516 0 0 1 1.718-.172Zm0 0"/>
</svg>
