<svg xmlns="http://www.w3.org/2000/svg" version="1.2" viewBox="0 0 375 375">
  <path d="m359.121 5.996.461.043.45.066.448.086.438.094.437.117.422.137.422.145.414.168.399.175.39.196.395.21.371.227.371.238.356.247.347.27.336.276.328.29.313.308.304.313.29.324.277.336.262.347.253.36.239.367.226.371.203.395.2.39.18.41.167.407.145.421.137.426.109.43.101.445.083.442.066.46.05.458.028.457.008.472v340.74l-.008.464-.027.465-.051.461-.066.45-.082.445-.102.441-.11.438-.136.422-.145.421-.168.414-.18.399-.199.39-.203.387-.226.38-.239.37-.253.356-.262.347-.277.336-.29.328-.304.313-.313.305-.328.289-.336.277-.347.262-.356.254-.371.238-.371.219-.395.21-.39.2-.399.18-.414.168-.422.144-.422.133-.437.113-.438.102-.449.082-.449.066-.46.05-.466.028-.465.008H17.453l-.465-.008-.465-.027-.457-.05-.46-.067-.442-.082-.445-.102-.43-.113-.426-.133-.422-.144-.406-.168-.41-.18-.39-.2-.387-.21-.38-.22-.366-.237-.36-.254-.347-.262-.336-.277-.325-.29-.312-.304-.305-.313-.293-.328-.277-.336-.262-.347-.254-.356-.238-.37-.227-.38-.21-.386-.188-.391-.184-.399-.168-.414-.144-.421-.137-.422-.117-.438-.094-.441-.086-.446-.058-.449-.051-.46-.031-.466-.008-.464V17.32l.008-.472.03-.457.052-.457.058-.461.086-.442.094-.445.117-.43.137-.426.144-.421.168-.407.184-.41.187-.39.211-.395.227-.371.238-.367.254-.36.262-.347.277-.336.293-.324.305-.313.312-.305.325-.293.336-.277.347-.27.36-.246.367-.238.379-.226.386-.211.391-.196.41-.175.406-.168.422-.145.426-.137.43-.117.445-.094.441-.086.461-.066.457-.043.465-.031.465-.008h340.738l.465.008Zm-333.25 8.86-.465.03-.457.044-.453.062-.45.09-.437.094-.437.117-.426.137-.414.144-.414.168-.402.176-.399.195-.387.211-.378.227-.364.238-.355.246-.348.27-.336.277-.324.29-.313.308-.308.312-.29.324-.276.336-.27.348-.246.355-.238.364-.227.379-.21.386-.188.399-.184.402-.168.414-.145.414-.136.426-.117.438-.094.437-.09.45-.055.452-.05.457-.032.465-.008.465v322.965l.008.465.032.469.05.457.055.449.09.445.094.442.117.437.136.422.145.422.168.414.184.398.187.395.211.383.227.379.238.37.246.356.27.348.277.336.289.328.308.312.313.305.324.29.336.276.348.262.355.254.364.242.378.215.387.211.399.2.402.179.414.168.414.144.426.133.437.113.438.106.45.078.452.067.457.05.465.028.465.007H349.3l.465-.007.468-.028.457-.05.45-.067.453-.078.433-.106.438-.113.422-.133.422-.144.414-.168.398-.18.395-.199.39-.21.371-.216.371-.242.356-.254.348-.262.336-.277.328-.289.312-.305.305-.312.289-.328.277-.336.262-.348.254-.355.242-.371.223-.38.203-.382.199-.395.18-.398.168-.414.144-.422.14-.422.106-.437.106-.442.078-.445.066-.45.051-.456.027-.47.008-.464V26.203l-.008-.465-.027-.465-.05-.457-.067-.453-.078-.449-.211-.875-.14-.426-.145-.414-.168-.414-.18-.402-.2-.399-.202-.386-.223-.38-.242-.363-.254-.355-.262-.348-.277-.336-.29-.324-.304-.312-.312-.309-.329-.289-.335-.277-.348-.27-.356-.246-.37-.238-.372-.227-.39-.21-.395-.196-.398-.176-.414-.168-.422-.144-.422-.137-.438-.117-.433-.094-.453-.09-.45-.062-.457-.043-.468-.032-.465-.007H26.336Zm0 0"/>
  <path d="M171.62 194.818a256.762 256.762 0 0 0-3.438-10.344 801.346 801.346 0 0 1-3.703-10.656h-37.797a931.15 931.15 0 0 1-3.703 10.656 232.96 232.96 0 0 0-3.422 10.344H96.885a1737.965 1737.965 0 0 1 10.344-28.97c3.27-8.862 6.468-17.21 9.593-25.046a886.481 886.481 0 0 1 9.235-22.328 485.946 485.946 0 0 1 9.453-20.64h20.844a761.587 761.587 0 0 1 9.375 20.64 725.993 725.993 0 0 1 9.312 22.328 1001.115 1001.115 0 0 1 9.578 25.047 1692.42 1692.42 0 0 1 10.36 28.969Zm-26.173-75.016c-.468 1.398-1.171 3.309-2.109 5.734-.93 2.43-2 5.23-3.219 8.407-1.21 3.168-2.539 6.668-3.984 10.5a601.498 601.498 0 0 0-4.406 12.03h27.562a1206.414 1206.414 0 0 0-4.344-12.03 402.996 402.996 0 0 0-3.984-10.5c-1.25-3.176-2.344-5.977-3.281-8.407a979.828 979.828 0 0 0-2.235-5.734Zm78.518 35.828c0 11.668 4.708 17.5 14.125 17.5 2.145 0 4.149-.281 6.016-.844 1.863-.562 3.453-1.21 4.766-1.953v-33.312a45.544 45.544 0 0 0-3.64-.485c-1.4-.144-3.032-.218-4.907-.218-5.5 0-9.606 1.824-12.313 5.468-2.699 3.637-4.047 8.25-4.047 13.844Zm45.75 29.953c0 12.032-3.058 20.961-9.171 26.797-6.106 5.832-15.547 8.75-28.329 8.75-4.48 0-8.96-.398-13.437-1.187-4.48-.793-8.633-1.844-12.453-3.157l3.64-17.484a60.88 60.88 0 0 0 10.282 3.063c3.593.75 7.675 1.125 12.25 1.125 5.968 0 10.187-1.31 12.656-3.922 2.477-2.606 3.719-5.957 3.719-10.063v-2.672a33.786 33.786 0 0 1-6.938 2.328c-2.375.512-4.965.766-7.765.766-10.168 0-17.961-3.008-23.375-9.031-5.407-6.02-8.11-14.442-8.11-25.266 0-5.406.836-10.32 2.516-14.75 1.687-4.437 4.14-8.238 7.36-11.406 3.218-3.176 7.155-5.629 11.812-7.36 4.664-1.726 9.941-2.593 15.828-2.593 2.508 0 5.094.12 7.75.36 2.664.23 5.305.53 7.922.905 2.613.375 5.11.82 7.484 1.329 2.375.511 4.492 1.046 6.36 1.609Zm-126.309 75.312c.875 0 1.598-.07 2.172-.219.57-.144 1.031-.343 1.375-.593.351-.25.594-.547.719-.891.132-.352.203-.742.203-1.172 0-.906-.43-1.656-1.282-2.25-.843-.601-2.308-1.254-4.39-1.953a29.271 29.271 0 0 1-2.719-1.094 10.325 10.325 0 0 1-2.453-1.562 7.479 7.479 0 0 1-1.766-2.281c-.449-.895-.672-1.985-.672-3.266 0-1.27.239-2.422.72-3.453a7.523 7.523 0 0 1 2.046-2.625c.883-.719 1.953-1.27 3.203-1.656 1.25-.383 2.66-.579 4.235-.579 1.863 0 3.476.204 4.843.61 1.364.398 2.485.836 3.36 1.312l-1.797 4.922a16.274 16.274 0 0 0-2.578-1.062c-.95-.313-2.09-.47-3.422-.47-1.5 0-2.578.212-3.235.626-.648.418-.968 1.055-.968 1.906 0 .5.117.93.359 1.281.238.344.578.657 1.016.938.445.281.957.539 1.53.766.571.218 1.204.449 1.892.687a40.83 40.83 0 0 1 3.75 1.578c1.07.524 1.96 1.133 2.671 1.828a6.459 6.459 0 0 1 1.579 2.438c.351.937.53 2.074.53 3.406 0 2.586-.913 4.59-2.734 6.016-1.812 1.43-4.543 2.14-8.187 2.14-1.23 0-2.34-.074-3.328-.218a22.941 22.941 0 0 1-2.625-.532 16.14 16.14 0 0 1-1.953-.687c-.543-.239-1-.469-1.375-.688l1.75-4.953c.832.45 1.851.856 3.062 1.219 1.219.355 2.707.531 4.469.531Zm21.28 4.765h-5.969v-21.046h5.969Zm.547-27.124c0 1.094-.356 1.96-1.063 2.594-.7.625-1.527.937-2.484.937-.969 0-1.809-.312-2.516-.937-.7-.633-1.047-1.5-1.047-2.594 0-1.094.348-1.953 1.047-2.578.707-.625 1.547-.938 2.516-.938.957 0 1.785.313 2.484.938.707.625 1.063 1.484 1.063 2.578Zm13.45 27.531c-1.742-.031-3.152-.219-4.234-.562-1.074-.352-1.922-.844-2.547-1.47a4.836 4.836 0 0 1-1.281-2.265c-.23-.894-.344-1.906-.344-3.031v-23.156l5.969-.97v22.923c0 .543.035 1.027.109 1.453.082.418.238.777.469 1.078.226.293.55.531.968.719.426.187 1.004.308 1.735.36Zm9.953-.407c-1.356-2.663-2.735-5.784-4.141-9.359-1.399-3.57-2.719-7.468-3.969-11.687h6.313c.27 1.043.582 2.172.937 3.39.363 1.211.738 2.434 1.125 3.672.383 1.243.77 2.45 1.156 3.625a57.12 57.12 0 0 0 1.141 3.204c.344-.958.711-2.024 1.11-3.204.406-1.175.8-2.382 1.187-3.625.383-1.238.758-2.46 1.125-3.671.363-1.22.676-2.348.937-3.391h6.157c-1.25 4.219-2.578 8.117-3.985 11.687-1.398 3.575-2.773 6.696-4.125 9.36Zm15.281-10.359c0-1.863.285-3.492.859-4.89.57-1.406 1.32-2.57 2.25-3.5a9.42 9.42 0 0 1 3.219-2.125 10.218 10.218 0 0 1 3.75-.719c2.988 0 5.347.914 7.078 2.734 1.738 1.825 2.61 4.512 2.61 8.063 0 .344-.016.726-.048 1.14-.023.407-.047.774-.078 1.094h-13.515c.132 1.23.707 2.203 1.718 2.922 1.008.719 2.368 1.078 4.078 1.078a17.23 17.23 0 0 0 3.22-.297c1.05-.195 1.91-.441 2.577-.734l.797 4.828c-.312.168-.742.328-1.281.485-.531.156-1.125.289-1.781.406-.649.125-1.344.226-2.094.312a20.29 20.29 0 0 1-2.234.125c-1.899 0-3.547-.281-4.954-.843-1.398-.563-2.554-1.329-3.468-2.297a9.279 9.279 0 0 1-2.047-3.47c-.438-1.331-.656-2.769-.656-4.312Zm14-2.28a5.617 5.617 0 0 0-.266-1.485 3.573 3.573 0 0 0-1.828-2.188c-.469-.25-1.055-.375-1.75-.375-.668 0-1.242.117-1.719.344-.48.23-.883.531-1.203.906a4.268 4.268 0 0 0-.734 1.297 9.159 9.159 0 0 0-.375 1.5Zm23.047-3.126a68.408 68.408 0 0 0-1.89-.406 10.891 10.891 0 0 0-2.313-.234c-.375 0-.824.039-1.344.109-.523.062-.914.137-1.172.219v16.078h-5.969v-19.922c1.07-.375 2.332-.727 3.782-1.063 1.457-.332 3.078-.5 4.859-.5.32 0 .707.024 1.156.063.457.043.91.101 1.36.172.457.062.91.14 1.359.234.457.094.848.203 1.172.328Zm-101.027 56.477c.77-.32 1.578-.69 2.422-1.109.843-.414 1.66-.867 2.453-1.36a30.38 30.38 0 0 0 2.297-1.546 15.52 15.52 0 0 0 1.984-1.75h4.172v27.719h-5.969v-19.954c-.805.532-1.7 1.016-2.687 1.454-.98.437-1.938.82-2.875 1.14Zm41.282 8.032c0 4.668-.887 8.25-2.656 10.75-1.774 2.492-4.219 3.734-7.344 3.734-3.117 0-5.562-1.242-7.344-3.734-1.773-2.5-2.656-6.082-2.656-10.75 0-2.32.234-4.375.703-6.157.469-1.789 1.14-3.296 2.016-4.515.883-1.227 1.937-2.16 3.156-2.797 1.227-.645 2.602-.969 4.125-.969 3.125 0 5.57 1.25 7.344 3.75 1.77 2.492 2.656 6.055 2.656 10.688Zm-6.078 0c0-1.383-.07-2.645-.203-3.782-.137-1.132-.352-2.113-.64-2.937-.294-.82-.696-1.457-1.204-1.906-.5-.457-1.125-.688-1.875-.688s-1.371.23-1.86.688c-.492.449-.89 1.086-1.202 1.906-.305.824-.524 1.805-.657 2.937a31.88 31.88 0 0 0-.203 3.782c0 1.386.067 2.652.203 3.797.133 1.148.352 2.136.657 2.968.312.825.71 1.465 1.203 1.922.488.45 1.109.672 1.859.672s1.375-.223 1.875-.672c.508-.457.91-1.097 1.203-1.922.29-.832.504-1.82.64-2.968a32.79 32.79 0 0 0 .204-3.797Zm13.126 13.922c.156-1.946.484-3.973.984-6.079a59.072 59.072 0 0 1 1.86-6.187 53.583 53.583 0 0 1 2.468-5.75c.907-1.8 1.829-3.36 2.766-4.672h-12.047v-5.078h19.406v4.328c-.855.93-1.796 2.219-2.828 3.875-1.023 1.656-1.996 3.531-2.922 5.625a53.19 53.19 0 0 0-2.406 6.75 34.54 34.54 0 0 0-1.25 7.188Zm25.673-3.156c0 1.199-.383 2.109-1.14 2.734-.762.625-1.622.937-2.579.937-.96 0-1.82-.312-2.578-.937-.762-.625-1.14-1.535-1.14-2.735 0-1.195.378-2.109 1.14-2.734.758-.633 1.617-.953 2.578-.953.957 0 1.817.32 2.578.953.758.625 1.14 1.539 1.14 2.734Zm12.762-11.72c.613 0 1.254-.054 1.922-.171.664-.125 1.156-.297 1.468-.516v-.36c0-.1.004-.206.016-.312a1.75 1.75 0 0 0 .031-.281 22.022 22.022 0 0 0-.25-2.703c-.125-.844-.351-1.578-.672-2.203a3.775 3.775 0 0 0-1.312-1.469c-.543-.363-1.211-.547-2-.547-.649 0-1.211.137-1.688.406-.48.262-.867.606-1.156 1.032-.293.43-.512.898-.656 1.406-.149.5-.219.992-.219 1.469 0 1.449.348 2.523 1.047 3.218.707.688 1.863 1.032 3.469 1.032Zm2.922 3.876a7.221 7.221 0 0 1-1.875.593c-.68.118-1.258.172-1.735.172-1.73 0-3.21-.207-4.437-.625-1.23-.414-2.242-1.004-3.032-1.765a6.998 6.998 0 0 1-1.734-2.735c-.367-1.062-.547-2.234-.547-3.515 0-1.07.176-2.164.531-3.282a9.002 9.002 0 0 1 1.704-3.062c.77-.914 1.75-1.676 2.937-2.281 1.188-.602 2.617-.907 4.297-.907 3.445 0 6.039 1.063 7.781 3.188 1.75 2.117 2.625 5.164 2.625 9.14 0 2.618-.344 4.922-1.031 6.922-.68 2-1.73 3.684-3.156 5.047-1.418 1.356-3.235 2.387-5.453 3.094-2.211.71-4.836 1.07-7.875 1.094a90.625 90.625 0 0 0-.125-2.469c-.055-.8-.106-1.629-.157-2.484 1.52-.032 2.891-.145 4.11-.344 1.226-.195 2.304-.531 3.234-1a7.477 7.477 0 0 0 2.39-1.86c.657-.77 1.173-1.742 1.548-2.921ZM50.266 55.812a247.352 247.352 0 0 0-3.328 4.438 31.341 31.341 0 0 0-2.954 4.922h6.282Zm5.828-7.281v16.64h2.969v4.876h-2.97v6.203h-5.827v-6.203h-11.97v-4.36a74.056 74.056 0 0 1 2.204-3.969 69.398 69.398 0 0 1 2.938-4.562 80.118 80.118 0 0 1 3.421-4.578 48.177 48.177 0 0 1 3.594-4.047Zm9.811 27.719c.156-1.946.485-3.973.985-6.078a59.072 59.072 0 0 1 1.859-6.188 53.583 53.583 0 0 1 2.469-5.75c.906-1.8 1.828-3.36 2.765-4.672H61.936v-5.078h19.407v4.328c-.856.93-1.797 2.219-2.828 3.875-1.024 1.656-1.996 3.531-2.922 5.625a53.19 53.19 0 0 0-2.407 6.75 34.54 34.54 0 0 0-1.25 7.188Zm0 0"/>
</svg>
