<svg xmlns="http://www.w3.org/2000/svg" version="1.2" viewBox="0 0 375 375">
  <path d="m359.121 5.996.461.043.45.066.448.086.438.094.437.117.422.137.422.145.414.168.399.175.39.196.395.21.371.227.371.238.356.247.347.27.336.276.328.29.313.308.304.313.29.324.277.336.262.347.253.36.239.367.226.371.203.395.2.39.18.41.167.407.145.421.137.426.109.43.101.445.083.442.066.46.05.458.028.457.008.472v340.74l-.008.464-.027.465-.051.461-.066.45-.082.445-.102.441-.11.438-.136.422-.145.421-.168.414-.18.399-.199.39-.203.387-.226.38-.239.37-.253.356-.262.347-.277.336-.29.328-.304.313-.313.305-.328.289-.336.277-.347.262-.356.254-.371.238-.371.219-.395.21-.39.2-.399.18-.414.168-.422.144-.422.133-.437.113-.438.102-.449.082-.449.066-.46.05-.466.028-.465.008H17.453l-.465-.008-.465-.027-.457-.05-.46-.067-.442-.082-.445-.102-.43-.113-.426-.133-.422-.144-.406-.168-.41-.18-.39-.2-.387-.21-.38-.22-.366-.237-.36-.254-.347-.262-.336-.277-.325-.29-.312-.304-.305-.313-.293-.328-.277-.336-.262-.347-.254-.356-.238-.37-.227-.38-.21-.386-.188-.391-.184-.399-.168-.414-.144-.421-.137-.422-.117-.438-.094-.441-.086-.446-.058-.449-.051-.46-.031-.466-.008-.464V17.32l.008-.472.03-.457.052-.457.058-.461.086-.442.094-.445.117-.43.137-.426.144-.421.168-.407.184-.41.187-.39.211-.395.227-.371.238-.367.254-.36.262-.347.277-.336.293-.324.305-.313.312-.305.325-.293.336-.277.347-.27.36-.246.367-.238.379-.226.386-.211.391-.196.41-.175.406-.168.422-.145.426-.137.43-.117.445-.094.441-.086.461-.066.457-.043.465-.031.465-.008h340.738l.465.008Zm-333.25 8.86-.465.03-.457.044-.453.062-.45.09-.437.094-.437.117-.426.137-.414.144-.414.168-.402.176-.399.195-.387.211-.378.227-.364.238-.355.246-.348.27-.336.277-.324.29-.313.308-.308.312-.29.324-.276.336-.27.348-.246.355-.238.364-.227.379-.21.386-.188.399-.184.402-.168.414-.145.414-.136.426-.117.438-.094.437-.09.45-.055.452-.05.457-.032.465-.008.465v322.965l.008.465.032.469.05.457.055.449.09.445.094.442.117.437.136.422.145.422.168.414.184.398.187.395.211.383.227.379.238.37.246.356.27.348.277.336.289.328.308.312.313.305.324.29.336.276.348.262.355.254.364.242.378.215.387.211.399.2.402.179.414.168.414.144.426.133.437.113.438.106.45.078.452.067.457.05.465.028.465.007H349.3l.465-.007.468-.028.457-.05.45-.067.453-.078.433-.106.438-.113.422-.133.422-.144.414-.168.398-.18.395-.199.39-.21.371-.216.371-.242.356-.254.348-.262.336-.277.328-.289.312-.305.305-.312.289-.328.277-.336.262-.348.254-.355.242-.371.223-.38.203-.382.199-.395.18-.398.168-.414.144-.422.14-.422.106-.437.106-.442.078-.445.066-.45.051-.456.027-.47.008-.464V26.203l-.008-.465-.027-.465-.05-.457-.067-.453-.078-.449-.211-.875-.14-.426-.145-.414-.168-.414-.18-.402-.2-.399-.202-.386-.223-.38-.242-.363-.254-.355-.262-.348-.277-.336-.29-.324-.304-.312-.312-.309-.329-.289-.335-.277-.348-.27-.356-.246-.37-.238-.372-.227-.39-.21-.395-.196-.398-.176-.414-.168-.422-.144-.422-.137-.438-.117-.433-.094-.453-.09-.45-.062-.457-.043-.468-.032-.465-.007H26.336Zm0 0"/>
  <path d="M143.195 178.161c3.082 0 5.625-.254 7.625-.765 2.008-.508 3.617-1.207 4.828-2.094 1.219-.895 2.063-1.945 2.531-3.156.47-1.207.704-2.563.704-4.063 0-3.164-1.496-5.797-4.485-7.89-2.992-2.102-8.12-4.368-15.39-6.797a120.914 120.914 0 0 1-9.532-3.844c-3.168-1.445-6.011-3.266-8.53-5.453-2.524-2.195-4.575-4.86-6.157-7.984-1.586-3.133-2.375-6.938-2.375-11.407 0-4.476.836-8.515 2.515-12.11a25.774 25.774 0 0 1 7.141-9.171c3.082-2.52 6.813-4.457 11.188-5.812 4.382-1.352 9.332-2.032 14.843-2.032 6.532 0 12.176.703 16.938 2.11 4.758 1.398 8.676 2.933 11.75 4.609l-6.297 17.219c-2.711-1.395-5.719-2.63-9.031-3.703-3.313-1.07-7.305-1.61-11.969-1.61-5.219 0-8.977.727-11.266 2.172-2.28 1.438-3.422 3.652-3.422 6.64 0 1.774.415 3.266 1.25 4.485.844 1.211 2.036 2.305 3.579 3.281 1.539.98 3.312 1.868 5.312 2.657a171.32 171.32 0 0 0 6.656 2.453c5.04 1.867 9.426 3.71 13.157 5.531 3.726 1.824 6.828 3.95 9.296 6.375a22.879 22.879 0 0 1 5.532 8.531c1.218 3.262 1.828 7.227 1.828 11.89 0 9.056-3.172 16.075-9.516 21.063-6.344 4.993-15.914 7.485-28.703 7.485-4.293 0-8.164-.258-11.61-.766-3.448-.512-6.507-1.137-9.171-1.875-2.656-.75-4.945-1.547-6.86-2.39-1.906-.844-3.515-1.633-4.828-2.375l6.172-17.36c2.883 1.586 6.446 3.008 10.688 4.266 4.25 1.261 9.453 1.89 15.61 1.89Zm53.611-54.437c3.54-1.031 8.11-1.988 13.703-2.875 5.602-.883 11.485-1.328 17.64-1.328 6.25 0 11.454.82 15.61 2.453 4.156 1.637 7.442 3.95 9.86 6.937 2.425 2.98 4.148 6.524 5.171 10.625 1.032 4.106 1.547 8.68 1.547 13.72v41.562h-20.843V155.77c0-6.719-.887-11.473-2.657-14.266-1.773-2.8-5.086-4.203-9.937-4.203-1.5 0-3.09.074-4.766.219-1.68.136-3.168.293-4.469.469v56.828h-20.859Zm-15.381 114.218v5.313h-8.359v22.406h-6.25v-22.406h-8.36v-5.313Zm9.56 27.718h-5.969v-21.046h5.97Zm.547-27.124c0 1.094-.355 1.96-1.062 2.594-.7.625-1.528.937-2.485.937-.969 0-1.808-.312-2.515-.937-.7-.633-1.047-1.5-1.047-2.594 0-1.094.347-1.953 1.047-2.578.707-.625 1.546-.938 2.515-.938.957 0 1.785.313 2.485.938.707.625 1.062 1.484 1.062 2.578Zm5.044 6.812c1.008-.3 2.317-.578 3.922-.828a32.722 32.722 0 0 1 5.047-.375c1.781 0 3.266.235 4.453.703 1.188.461 2.125 1.117 2.813 1.969.695.855 1.191 1.871 1.484 3.047.29 1.168.438 2.476.438 3.922v11.875h-5.953v-11.156c0-1.926-.258-3.286-.766-4.079-.5-.8-1.445-1.203-2.828-1.203-.43 0-.887.024-1.375.063-.48.043-.903.09-1.266.14v16.235h-5.969Zm-56.639 61.024c.77-.32 1.578-.69 2.422-1.109.843-.414 1.66-.867 2.453-1.36a30.38 30.38 0 0 0 2.297-1.546 15.52 15.52 0 0 0 1.984-1.75h4.172v27.719h-5.969v-19.954c-.805.532-1.7 1.016-2.687 1.454-.98.437-1.938.82-2.875 1.14Zm22.72 0c.77-.32 1.578-.69 2.421-1.109a28.13 28.13 0 0 0 2.454-1.36 30.16 30.16 0 0 0 2.296-1.546 15.52 15.52 0 0 0 1.985-1.75h4.172v27.719h-5.97v-19.954a18.242 18.242 0 0 1-2.687 1.454c-.98.437-1.937.82-2.875 1.14Zm41.126 14.235c0 1.2-.211 2.297-.625 3.297a7.383 7.383 0 0 1-1.86 2.625c-.824.742-1.855 1.32-3.094 1.734-1.242.414-2.68.625-4.312.625-1.867 0-3.418-.262-4.656-.781-1.242-.52-2.242-1.164-3-1.938-.762-.77-1.305-1.613-1.625-2.53-.313-.927-.469-1.774-.469-2.548 0-.8.102-1.535.312-2.203a7.28 7.28 0 0 1 .875-1.812 9.357 9.357 0 0 1 1.266-1.5c.469-.457.969-.891 1.5-1.297-1.148-.926-1.996-1.844-2.547-2.75-.543-.907-.812-2.067-.812-3.485 0-1.062.218-2.086.656-3.078a7.863 7.863 0 0 1 1.86-2.578c.8-.738 1.769-1.328 2.906-1.766 1.132-.437 2.394-.656 3.78-.656 1.626 0 3.016.235 4.173.703 1.164.47 2.117 1.063 2.86 1.782.75.718 1.288 1.527 1.624 2.421.332.887.5 1.774.5 2.657 0 1.281-.34 2.476-1.016 3.578-.68 1.105-1.527 1.98-2.546 2.625 1.52.98 2.609 2.012 3.265 3.094.656 1.086.985 2.343.985 3.78Zm-13.844.234c0 .324.07.68.219 1.063.144.386.379.742.703 1.062.32.324.734.594 1.234.813.508.21 1.125.312 1.844.312 1.383 0 2.394-.332 3.031-1 .645-.664.969-1.414.969-2.25 0-.613-.14-1.16-.422-1.64a4.266 4.266 0 0 0-1.14-1.25 8.103 8.103 0 0 0-1.704-.97 23.084 23.084 0 0 0-2.094-.78 8.21 8.21 0 0 0-1.89 1.968c-.5.743-.75 1.633-.75 2.672Zm7.406-13.156a2.7 2.7 0 0 0-.187-.938 2.6 2.6 0 0 0-.594-.937 3.586 3.586 0 0 0-1.063-.734c-.43-.207-.949-.313-1.562-.313-.586 0-1.09.094-1.516.281-.43.188-.781.438-1.062.75a3.06 3.06 0 0 0-.625.97 2.693 2.693 0 0 0-.203 1c0 .855.312 1.655.937 2.405.633.743 1.711 1.383 3.234 1.922.852-.539 1.504-1.156 1.954-1.844.457-.695.687-1.55.687-2.562Zm16.595 17.485c0 1.199-.383 2.109-1.14 2.734-.762.625-1.622.937-2.579.937-.96 0-1.82-.312-2.578-.937-.762-.625-1.14-1.535-1.14-2.735 0-1.195.378-2.109 1.14-2.734.758-.633 1.617-.953 2.578-.953.957 0 1.817.32 2.578.953.758.625 1.14 1.539 1.14 2.734Zm6.887 3.156c.156-1.946.484-3.973.984-6.079a59.072 59.072 0 0 1 1.86-6.187 53.583 53.583 0 0 1 2.468-5.75c.906-1.8 1.828-3.36 2.766-4.672h-12.047v-5.078h19.406v4.328c-.855.93-1.797 2.219-2.828 3.875-1.023 1.656-1.996 3.531-2.922 5.625a53.19 53.19 0 0 0-2.406 6.75 34.54 34.54 0 0 0-1.25 7.188ZM51.906 68.093c0-.77-.18-1.457-.531-2.062-.344-.602-.945-1.102-1.797-1.5-.855-.395-2-.695-3.437-.906-1.438-.22-3.25-.328-5.438-.328a178.5 178.5 0 0 0 .719-7.563c.187-2.562.332-4.96.437-7.203h15v5h-10c-.054.96-.117 1.887-.187 2.781-.063.899-.137 1.68-.219 2.344 3.895.262 6.77 1.172 8.625 2.734 1.852 1.563 2.781 3.73 2.781 6.5 0 1.282-.23 2.47-.687 3.563a7.61 7.61 0 0 1-2.031 2.844c-.907.793-2.047 1.418-3.422 1.875-1.375.445-2.98.671-4.813.671-.73 0-1.492-.046-2.281-.14a29.875 29.875 0 0 1-2.266-.36c-.73-.144-1.39-.296-1.984-.453-.586-.156-1.04-.316-1.36-.484l1.079-4.922c.664.305 1.547.594 2.64.875 1.094.273 2.399.406 3.922.406 1.844 0 3.176-.363 4-1.093.832-.739 1.25-1.598 1.25-2.579Zm29.671-5.765c0 4.668-.887 8.25-2.656 10.75-1.774 2.492-4.219 3.734-7.344 3.734-3.117 0-5.562-1.242-7.344-3.734-1.773-2.5-2.656-6.082-2.656-10.75 0-2.32.234-4.375.703-6.156.469-1.79 1.14-3.297 2.016-4.516.883-1.227 1.937-2.16 3.156-2.797 1.227-.644 2.602-.969 4.125-.969 3.125 0 5.57 1.25 7.344 3.75 1.77 2.492 2.656 6.055 2.656 10.688Zm-6.078 0c0-1.383-.07-2.645-.203-3.781-.137-1.133-.352-2.114-.64-2.938-.294-.82-.696-1.457-1.204-1.906-.5-.457-1.125-.688-1.875-.688s-1.371.23-1.86.688c-.491.449-.89 1.086-1.202 1.906-.305.824-.524 1.805-.657 2.938a31.88 31.88 0 0 0-.203 3.78c0 1.388.067 2.653.203 3.798.133 1.148.352 2.136.657 2.968.312.825.71 1.465 1.203 1.922.488.45 1.11.672 1.86.672s1.374-.222 1.874-.672c.508-.457.91-1.097 1.203-1.922.29-.832.504-1.82.64-2.968a32.79 32.79 0 0 0 .204-3.797Zm0 0"/>
</svg>
