<svg xmlns="http://www.w3.org/2000/svg" version="1.2" viewBox="0 0 375 375">
  <path d="m359.121 5.996.461.043.45.066.448.086.438.094.437.117.422.137.422.145.414.168.399.175.39.196.395.21.371.227.371.238.356.25.347.266.336.277.328.293.313.305.304.313.29.324.277.336.262.347.253.36.239.367.226.371.203.395.2.39.18.41.167.407.145.421.137.426.109.43.101.445.083.442.066.46.05.458.028.457.008.472v340.74l-.008.464-.027.465-.051.461-.066.45-.082.445-.102.441-.11.438-.136.422-.145.421-.168.414-.18.399-.199.39-.203.387-.226.38-.239.37-.253.356-.262.347-.277.336-.29.328-.304.313-.313.305-.328.289-.336.277-.347.262-.356.254-.371.242-.371.215-.395.21-.39.2-.399.18-.414.168-.422.144-.422.133-.437.113-.438.102-.449.082-.449.066-.46.05-.466.028-.465.008H17.453l-.465-.008-.465-.027-.457-.05-.46-.067-.442-.082-.445-.102-.43-.113-.426-.133-.422-.144-.406-.168-.41-.18-.39-.2-.387-.21-.38-.215-.366-.242-.36-.254-.347-.262-.336-.277-.325-.29-.312-.304-.305-.313-.293-.328-.277-.336-.262-.347-.254-.356-.238-.37-.227-.38-.21-.386-.188-.391-.184-.399-.168-.414-.144-.421-.137-.422-.117-.438-.094-.441-.086-.446-.058-.449-.051-.46-.031-.466-.008-.464V17.32l.008-.472.03-.457.052-.457.058-.461.086-.442.094-.445.117-.43.137-.426.144-.421.168-.407.184-.41.187-.39.211-.395.227-.371.238-.367.254-.36.262-.347.277-.336.293-.324.305-.313.312-.305.325-.293.336-.277.347-.266.36-.25.367-.238.379-.226.386-.211.391-.196.41-.175.406-.168.422-.145.426-.137.43-.117.445-.094.441-.086.461-.066.457-.043.465-.031.465-.008h340.738l.465.008Zm-333.25 8.86-.465.03-.457.044-.453.062-.45.09-.437.094-.437.117-.426.137-.414.144-.414.168-.402.176-.399.195-.387.211-.378.227-.364.238-.355.246-.348.27-.336.277-.324.29-.313.308-.308.312-.29.324-.276.336-.27.348-.246.355-.238.364-.227.379-.21.386-.188.399-.184.402-.168.414-.145.414-.136.426-.117.438-.094.437-.09.45-.055.452-.05.457-.032.465-.008.465v322.965l.008.465.032.469.05.457.055.449.09.445.094.442.117.437.136.422.145.422.168.414.184.398.187.395.211.383.227.379.238.37.246.356.27.348.277.336.289.328.308.312.313.305.324.29.336.276.348.262.355.254.364.242.378.215.387.211.399.2.402.179.414.168.414.144.426.133.437.113.438.106.45.078.452.067.457.05.465.028.465.007H349.3l.465-.007.468-.028.457-.05.45-.067.453-.078.433-.106.438-.113.422-.133.422-.144.414-.168.398-.18.395-.199.39-.21.371-.216.371-.242.356-.254.348-.262.336-.277.328-.289.312-.305.305-.312.289-.328.277-.336.262-.348.254-.355.242-.371.223-.38.203-.382.199-.395.18-.398.168-.414.144-.422.14-.422.106-.437.106-.442.078-.445.066-.45.051-.456.027-.47.008-.464V26.203l-.008-.465-.027-.465-.05-.457-.067-.453-.078-.449-.211-.875-.14-.426-.145-.414-.168-.414-.18-.402-.2-.399-.202-.386-.223-.38-.242-.363-.254-.355-.262-.348-.277-.336-.29-.324-.304-.312-.312-.309-.329-.289-.335-.277-.348-.27-.356-.246-.37-.238-.372-.227-.39-.21-.395-.196-.398-.176-.414-.168-.422-.144-.422-.137-.438-.117-.433-.094-.453-.09-.45-.062-.457-.043-.468-.032-.465-.007H26.336Zm0 0"/>
  <path d="M145.308 196.084a252.66 252.66 0 0 1-15.891-.5c-5.273-.325-10.75-1.094-16.438-2.313V99.224c4.47-.832 9.364-1.457 14.688-1.875 5.32-.426 10.266-.64 14.828-.64 6.164 0 11.836.445 17.016 1.328 5.176.886 9.629 2.402 13.36 4.547 3.726 2.148 6.644 4.968 8.75 8.468 2.1 3.5 3.155 7.82 3.155 12.953 0 7.743-3.734 13.852-11.203 18.329 6.156 2.336 10.352 5.507 12.594 9.515 2.238 4.012 3.36 8.54 3.36 13.578 0 10.168-3.712 17.82-11.126 22.953-7.418 5.137-18.449 7.704-33.093 7.704Zm-11.063-43.532V177.6a76.86 76.86 0 0 0 5.172.422c1.875.094 3.93.14 6.172.14 6.531 0 11.8-.929 15.812-2.796 4.008-1.863 6.016-5.317 6.016-10.36 0-4.476-1.684-7.671-5.047-9.578-3.355-1.914-8.156-2.875-14.406-2.875Zm0-16.656h10.64c6.72 0 11.52-.86 14.407-2.578 2.895-1.727 4.344-4.508 4.344-8.344 0-3.914-1.496-6.664-4.485-8.25-2.98-1.582-7.367-2.375-13.156-2.375-1.867 0-3.871.028-6.016.078-2.148.043-4.058.157-5.734.344Zm99.504 44.359c2.05 0 4.008-.039 5.875-.125 1.875-.093 3.367-.234 4.484-.421v-15.813c-.836-.187-2.093-.375-3.78-.562a41.803 41.803 0 0 0-4.61-.282c-1.961 0-3.805.121-5.531.36-1.731.23-3.25.672-4.563 1.328-1.305.648-2.328 1.531-3.078 2.656-.742 1.117-1.11 2.512-1.11 4.188 0 3.273 1.094 5.539 3.282 6.796 2.195 1.25 5.207 1.875 9.031 1.875Zm-1.672-61.015c6.156 0 11.285.703 15.39 2.11 4.102 1.398 7.391 3.402 9.86 6.015 2.477 2.617 4.227 5.789 5.25 9.515 1.031 3.73 1.547 7.883 1.547 12.454v43.39c-2.992.649-7.148 1.414-12.469 2.297-5.312.895-11.746 1.344-19.297 1.344-4.761 0-9.078-.422-12.953-1.266-3.867-.844-7.199-2.219-10-4.125-2.804-1.914-4.953-4.41-6.453-7.484-1.492-3.082-2.234-6.863-2.234-11.344 0-4.289.863-7.926 2.594-10.906 1.726-2.988 4.035-5.367 6.921-7.14 2.895-1.782 6.207-3.067 9.938-3.86 3.738-.79 7.613-1.188 11.625-1.188 2.707 0 5.11.121 7.203.36 2.102.23 3.805.531 5.11.906v-1.969c0-3.539-1.075-6.383-3.22-8.531-2.148-2.145-5.874-3.219-11.187-3.219a72.21 72.21 0 0 0-10.515.766c-3.45.512-6.43 1.234-8.938 2.172l-2.672-16.797c1.219-.375 2.735-.77 4.547-1.188a82.258 82.258 0 0 1 5.953-1.109c2.145-.332 4.406-.613 6.781-.844a72.61 72.61 0 0 1 7.22-.36Zm-99.879 146.78c-1.524 0-3.04-.047-4.547-.14a32.455 32.455 0 0 1-4.688-.657v-26.875c1.282-.25 2.68-.43 4.203-.546 1.52-.125 2.93-.188 4.235-.188 1.758 0 3.379.133 4.86.39 1.476.25 2.75.684 3.812 1.298 1.07.617 1.906 1.421 2.5 2.421.601 1 .906 2.235.906 3.704 0 2.21-1.07 3.953-3.203 5.234 1.758.668 2.957 1.574 3.594 2.719.644 1.148.968 2.437.968 3.875 0 2.906-1.062 5.093-3.187 6.562-2.117 1.469-5.266 2.203-9.453 2.203Zm-3.157-12.437v7.156c.446.055.938.094 1.47.125.538.024 1.128.031 1.765.031 1.863 0 3.367-.265 4.515-.797 1.157-.53 1.735-1.515 1.735-2.953 0-1.28-.485-2.191-1.453-2.734-.961-.55-2.328-.828-4.11-.828Zm0-4.766h3.032c1.925 0 3.3-.242 4.125-.734.832-.488 1.25-1.281 1.25-2.375 0-1.125-.43-1.91-1.282-2.36-.855-.457-2.109-.687-3.765-.687-.531 0-1.106.012-1.719.031-.617.012-1.164.043-1.64.094Zm28.443 12.688c.582 0 1.14-.008 1.672-.032.53-.03.957-.07 1.28-.125v-4.53c-.241-.052-.6-.102-1.077-.157a11.337 11.337 0 0 0-2.907.032 4.001 4.001 0 0 0-1.296.374 2.307 2.307 0 0 0-.891.766c-.211.312-.313.71-.313 1.187 0 .938.313 1.59.938 1.953.633.356 1.5.532 2.594.532Zm-.485-17.438c1.758 0 3.223.2 4.391.594 1.176.398 2.117.969 2.828 1.719.707.75 1.207 1.664 1.5 2.734.29 1.063.438 2.246.438 3.547v12.406a72.45 72.45 0 0 1-3.563.656c-1.512.25-3.351.375-5.516.375-1.355 0-2.59-.12-3.703-.359-1.105-.238-2.058-.629-2.859-1.172a5.485 5.485 0 0 1-1.828-2.14c-.43-.883-.64-1.97-.64-3.25 0-1.22.241-2.254.734-3.11a5.718 5.718 0 0 1 1.968-2.047 8.843 8.843 0 0 1 2.844-1.093 16.03 16.03 0 0 1 3.328-.344c.77 0 1.453.039 2.047.11a9.568 9.568 0 0 1 1.469.25v-.563c0-1.008-.309-1.82-.922-2.438-.617-.613-1.68-.922-3.188-.922a20.8 20.8 0 0 0-3.015.22c-.98.148-1.828.355-2.547.624l-.766-4.797a14.07 14.07 0 0 1 1.297-.344 20.53 20.53 0 0 1 1.703-.328 32.544 32.544 0 0 1 1.938-.234 22.387 22.387 0 0 1 2.062-.094Zm27.245 5.828a68.408 68.408 0 0 0-1.89-.406 10.891 10.891 0 0 0-2.313-.234c-.375 0-.824.039-1.344.11-.523.062-.914.136-1.172.218v16.078h-5.968v-19.922c1.07-.375 2.332-.726 3.78-1.062 1.458-.332 3.08-.5 4.86-.5.32 0 .707.023 1.157.062.457.043.91.102 1.359.172.457.062.91.14 1.36.234.456.094.847.203 1.171.328Zm10.161 15.765h-5.968v-21.046h5.968Zm.547-27.124c0 1.094-.355 1.96-1.062 2.594-.7.625-1.528.937-2.485.937-.968 0-1.808-.312-2.515-.937-.7-.633-1.047-1.5-1.047-2.594 0-1.094.347-1.953 1.047-2.578.707-.625 1.547-.938 2.515-.938.957 0 1.785.313 2.485.938.707.625 1.062 1.484 1.062 2.578Zm23.013 26.406c-1.023.293-2.336.563-3.937.813-1.594.258-3.274.39-5.032.39-1.78 0-3.265-.242-4.453-.718-1.187-.477-2.132-1.149-2.828-2.016-.687-.875-1.183-1.91-1.484-3.11-.293-1.195-.438-2.515-.438-3.953v-11.734h5.97v11c0 1.93.25 3.32.75 4.172.507.855 1.456 1.281 2.843 1.281.426 0 .879-.02 1.36-.062.476-.04.905-.086 1.28-.14v-16.25h5.97Zm17.154-10.437c0-1.926-.25-3.285-.75-4.078-.492-.801-1.336-1.204-2.531-1.204-.375 0-.766.024-1.172.063-.399.043-.778.09-1.141.14v16.235h-5.969v-20.313a37.888 37.888 0 0 1 3.938-.813 27.677 27.677 0 0 1 2.344-.28c.8-.07 1.585-.11 2.359-.11 1.52 0 2.754.196 3.703.578.945.387 1.727.844 2.344 1.375.851-.613 1.832-1.093 2.937-1.437 1.102-.344 2.125-.516 3.063-.516 1.676 0 3.05.235 4.125.703 1.082.461 1.941 1.118 2.578 1.97.644.855 1.086 1.87 1.328 3.046.238 1.168.36 2.477.36 3.922v11.875h-5.954v-11.156c0-1.926-.25-3.285-.75-4.078-.492-.801-1.336-1.204-2.531-1.204-.324 0-.773.086-1.344.25-.574.157-1.047.356-1.422.594a8.91 8.91 0 0 1 .36 1.938c.05.68.078 1.402.078 2.172v11.484h-5.953Zm-95.182 51.868c.77-.32 1.578-.692 2.422-1.11.843-.414 1.66-.867 2.453-1.36.8-.487 1.566-1.003 2.297-1.546a15.52 15.52 0 0 0 1.984-1.75h4.172v27.719h-5.969v-19.953c-.805.53-1.7 1.015-2.687 1.453-.98.437-1.938.82-2.875 1.14Zm29.048 22.547c-.72 0-1.48-.047-2.282-.141a26.337 26.337 0 0 1-2.328-.375 23.58 23.58 0 0 1-2.031-.516 12.157 12.157 0 0 1-1.437-.515l1.156-4.97c.687.294 1.57.606 2.656.938 1.082.336 2.422.5 4.016.5 1.843 0 3.191-.343 4.047-1.03.851-.696 1.28-1.63 1.28-2.798 0-.726-.155-1.336-.468-1.828a3.48 3.48 0 0 0-1.25-1.187c-.531-.313-1.168-.524-1.906-.641a13.9 13.9 0 0 0-2.344-.187h-2.312v-4.797h2.64c.582 0 1.145-.051 1.688-.157a4.833 4.833 0 0 0 1.468-.546 2.87 2.87 0 0 0 1.016-1.047c.258-.438.39-.989.39-1.657 0-.507-.109-.945-.327-1.312a2.85 2.85 0 0 0-.813-.922 3.576 3.576 0 0 0-1.172-.531 4.826 4.826 0 0 0-1.328-.188c-1.148 0-2.21.172-3.187.516a13.17 13.17 0 0 0-2.657 1.281l-2.125-4.36a18.8 18.8 0 0 1 1.5-.843c.57-.289 1.203-.555 1.89-.797a17.344 17.344 0 0 1 2.22-.594c.789-.164 1.629-.25 2.515-.25 1.625 0 3.032.196 4.219.579 1.188.386 2.164.933 2.938 1.64a6.73 6.73 0 0 1 1.718 2.485c.375.949.563 1.98.563 3.093 0 1.094-.309 2.157-.922 3.188a6.097 6.097 0 0 1-2.469 2.328c1.438.594 2.547 1.469 3.328 2.625.79 1.156 1.188 2.555 1.188 4.187 0 1.282-.215 2.465-.64 3.547a7.223 7.223 0 0 1-2 2.797c-.907.781-2.063 1.39-3.47 1.828-1.398.438-3.054.657-4.968.657Zm19.282-.594c.156-1.946.484-3.973.984-6.078a59.072 59.072 0 0 1 1.86-6.188 53.583 53.583 0 0 1 2.468-5.75c.907-1.8 1.829-3.36 2.766-4.672h-12.047v-5.078h19.406v4.328c-.855.93-1.796 2.219-2.828 3.875-1.023 1.657-1.996 3.532-2.922 5.625a53.19 53.19 0 0 0-2.406 6.75 34.54 34.54 0 0 0-1.25 7.188Zm25.673-3.156c0 1.199-.383 2.109-1.14 2.734-.762.625-1.622.937-2.579.937-.96 0-1.82-.312-2.578-.937-.762-.625-1.14-1.535-1.14-2.734 0-1.196.378-2.11 1.14-2.735.758-.633 1.617-.953 2.578-.953.957 0 1.817.32 2.578.953.758.625 1.14 1.54 1.14 2.735Zm10.324 3.75c-.719 0-1.48-.047-2.281-.141a26.337 26.337 0 0 1-2.328-.375 23.58 23.58 0 0 1-2.031-.516 12.157 12.157 0 0 1-1.438-.515l1.156-4.97c.688.294 1.57.606 2.657.938 1.082.336 2.421.5 4.015.5 1.844 0 3.192-.343 4.047-1.03.852-.696 1.281-1.63 1.281-2.798 0-.726-.156-1.336-.468-1.828a3.48 3.48 0 0 0-1.25-1.187c-.532-.313-1.168-.524-1.907-.641a13.9 13.9 0 0 0-2.343-.187h-2.313v-4.797h2.64c.583 0 1.145-.051 1.688-.157a4.833 4.833 0 0 0 1.469-.546 2.87 2.87 0 0 0 1.016-1.047c.257-.438.39-.989.39-1.657 0-.507-.11-.945-.328-1.312a2.85 2.85 0 0 0-.812-.922 3.576 3.576 0 0 0-1.172-.531 4.826 4.826 0 0 0-1.328-.188c-1.149 0-2.211.172-3.188.516a13.17 13.17 0 0 0-2.656 1.281l-2.125-4.36a18.8 18.8 0 0 1 1.5-.843c.57-.289 1.203-.555 1.89-.797a17.344 17.344 0 0 1 2.22-.594c.788-.164 1.628-.25 2.515-.25 1.625 0 3.031.196 4.219.579 1.187.386 2.164.933 2.937 1.64a6.73 6.73 0 0 1 1.719 2.485c.375.949.562 1.98.562 3.093 0 1.094-.308 2.157-.922 3.188a6.097 6.097 0 0 1-2.468 2.328c1.437.594 2.547 1.469 3.328 2.625.789 1.156 1.187 2.555 1.187 4.187 0 1.282-.214 2.465-.64 3.547a7.223 7.223 0 0 1-2 2.797c-.907.781-2.063 1.39-3.469 1.828-1.398.438-3.055.657-4.969.657ZM51.906 68.094c0-.77-.18-1.457-.531-2.063-.344-.601-.945-1.101-1.797-1.5-.855-.394-2-.695-3.437-.906-1.438-.219-3.25-.328-5.438-.328.29-2.488.531-5.008.719-7.563.187-2.562.332-4.96.437-7.203h15v5h-10a127.06 127.06 0 0 1-.187 2.782c-.063.898-.137 1.68-.219 2.343 3.895.262 6.77 1.172 8.625 2.735 1.852 1.562 2.781 3.73 2.781 6.5 0 1.28-.23 2.468-.687 3.562a7.61 7.61 0 0 1-2.031 2.844c-.907.793-2.047 1.418-3.422 1.875-1.375.445-2.98.672-4.813.672-.73 0-1.492-.047-2.281-.14a29.875 29.875 0 0 1-2.266-.36c-.73-.145-1.39-.297-1.984-.453-.586-.157-1.04-.317-1.36-.485l1.079-4.922c.664.305 1.547.594 2.64.875 1.094.274 2.399.407 3.922.407 1.844 0 3.176-.364 4-1.094.832-.738 1.25-1.598 1.25-2.578Zm19.264-4.891c-.585 0-1.21.059-1.874.172-.668.105-1.188.25-1.563.438 0 .105-.007.265-.015.484-.012.21-.016.39-.016.547 0 .969.063 1.883.188 2.734.132.844.363 1.59.687 2.235.32.636.75 1.136 1.281 1.5.532.355 1.196.53 2 .53.664 0 1.235-.132 1.703-.405a3.772 3.772 0 0 0 1.157-1.063c.3-.426.523-.898.672-1.422.156-.52.234-1.02.234-1.5 0-1.363-.344-2.41-1.031-3.14-.68-.739-1.82-1.11-3.422-1.11Zm.766-4.64c1.727 0 3.196.234 4.407.703 1.218.468 2.21 1.105 2.984 1.906a7.1 7.1 0 0 1 1.688 2.797c.343 1.062.515 2.199.515 3.406 0 1.063-.195 2.156-.578 3.281a9.123 9.123 0 0 1-1.766 3.032c-.78.906-1.78 1.656-3 2.25-1.21.582-2.636.875-4.28.875-3.337 0-5.872-1.051-7.61-3.157-1.73-2.113-2.594-5.02-2.594-8.718 0-2.665.41-5.024 1.234-7.079.82-2.062 2-3.789 3.532-5.187 1.539-1.406 3.394-2.473 5.562-3.203 2.176-.727 4.625-1.11 7.344-1.14.05.823.102 1.632.156 2.421.063.793.117 1.61.172 2.453a23.24 23.24 0 0 0-3.828.39 13.06 13.06 0 0 0-3.25 1.063 8.92 8.92 0 0 0-2.531 1.86c-.719.761-1.278 1.687-1.672 2.78a7.104 7.104 0 0 1 1.797-.562 9.516 9.516 0 0 1 1.718-.171Zm0 0"/>
</svg>
