<svg xmlns="http://www.w3.org/2000/svg" version="1.2" viewBox="0 0 375 375">
  <path d="m359.121 5.996.461.043.45.066.448.086.438.094.437.117.422.137.422.145.414.168.399.175.39.196.395.21.371.227.371.238.356.25.347.266.336.277.328.293.313.305.304.313.29.324.277.336.262.347.253.36.239.367.226.371.203.395.2.39.18.41.167.407.145.421.137.426.109.43.101.445.083.442.066.46.05.458.028.457.008.472v340.74l-.008.464-.027.465-.051.461-.066.45-.082.445-.102.441-.11.438-.136.422-.145.421-.168.414-.18.399-.199.39-.203.387-.226.38-.239.37-.253.356-.262.347-.277.336-.29.328-.304.313-.313.305-.328.289-.336.277-.347.262-.356.254-.371.242-.371.215-.395.21-.39.2-.399.18-.414.168-.422.144-.422.133-.437.113-.438.102-.449.082-.449.066-.46.05-.466.028-.465.008H17.453l-.465-.008-.465-.027-.457-.05-.46-.067-.442-.082-.445-.102-.43-.113-.426-.133-.422-.144-.406-.168-.41-.18-.39-.2-.387-.21-.38-.215-.366-.242-.36-.254-.347-.262-.336-.277-.325-.29-.312-.304-.305-.313-.293-.328-.277-.336-.262-.347-.254-.356-.238-.37-.227-.38-.21-.386-.188-.391-.184-.399-.168-.414-.144-.421-.137-.422-.117-.438-.094-.441-.086-.446-.058-.449-.051-.46-.031-.466-.008-.464V17.32l.008-.472.03-.457.052-.457.058-.461.086-.442.094-.445.117-.43.137-.426.144-.421.168-.407.184-.41.187-.39.211-.395.227-.371.238-.367.254-.36.262-.347.277-.336.293-.324.305-.313.312-.305.325-.293.336-.277.347-.266.36-.25.367-.238.379-.226.386-.211.391-.196.41-.175.406-.168.422-.145.426-.137.43-.117.445-.094.441-.086.461-.066.457-.043.465-.031.465-.008h340.738l.465.008Zm-333.25 8.86-.465.03-.457.044-.453.062-.45.09-.437.094-.437.117-.426.137-.414.144-.414.168-.402.176-.399.195-.387.211-.378.227-.364.238-.355.246-.348.27-.336.277-.324.29-.313.308-.308.312-.29.324-.276.336-.27.348-.246.355-.238.364-.227.379-.21.386-.188.399-.184.402-.168.414-.145.414-.136.426-.117.438-.094.437-.09.45-.055.452-.05.457-.032.465-.008.465v322.965l.008.465.032.469.05.457.055.449.09.445.094.442.117.437.136.422.145.422.168.414.184.398.187.395.211.383.227.379.238.37.246.356.27.348.277.336.289.328.308.312.313.305.324.29.336.276.348.262.355.254.364.242.378.215.387.211.399.2.402.179.414.168.414.144.426.133.437.113.438.106.45.078.452.067.457.05.465.028.465.007H349.3l.465-.007.468-.028.457-.05.45-.067.453-.078.433-.106.438-.113.422-.133.422-.144.414-.168.398-.18.395-.199.39-.21.371-.216.371-.242.356-.254.348-.262.336-.277.328-.289.312-.305.305-.312.289-.328.277-.336.262-.348.254-.355.242-.371.223-.38.203-.382.199-.395.18-.398.168-.414.144-.422.14-.422.106-.437.106-.442.078-.445.066-.45.051-.456.027-.47.008-.464V26.203l-.008-.465-.027-.465-.05-.457-.067-.453-.078-.449-.211-.875-.14-.426-.145-.414-.168-.414-.18-.402-.2-.399-.202-.386-.223-.38-.242-.363-.254-.355-.262-.348-.277-.336-.29-.324-.304-.312-.312-.309-.329-.289-.335-.277-.348-.27-.356-.246-.37-.238-.372-.227-.39-.21-.395-.196-.398-.176-.414-.168-.422-.144-.422-.137-.438-.117-.433-.094-.453-.09-.45-.062-.457-.043-.468-.032-.465-.007H26.336Zm0 0"/>
  <path d="M176.308 97.834h21.828v96.984h-21.828v-41.14h-36.672v41.14h-21.828V97.834h21.828v37.078h36.672Zm74.728-11.625c3.914 0 7.504.402 10.765 1.203 3.27.793 5.797 1.558 7.578 2.297l-4.062 16.656c-1.867-.832-3.899-1.457-6.094-1.875-2.187-.426-4.215-.64-6.078-.64-2.523 0-4.648.35-6.375 1.046-1.73.7-3.086 1.656-4.062 2.875-.98 1.211-1.68 2.656-2.094 4.344-.418 1.68-.625 3.496-.625 5.453v3.64h25.75v17.344h-25.75v56.266h-20.86v-77.531c0-9.52 2.68-17.078 8.047-22.672 5.364-5.602 13.317-8.406 23.86-8.406ZM126.663 237.942h6.234v27.719h-6.234v-11.766h-10.485v11.766h-6.234v-27.719h6.234v10.594h10.485Zm20.281 23.563c.582 0 1.14-.008 1.672-.032.531-.03.957-.07 1.281-.125v-4.53a12.479 12.479 0 0 0-1.078-.157 11.327 11.327 0 0 0-2.906.032 4.001 4.001 0 0 0-1.297.374 2.307 2.307 0 0 0-.89.766c-.212.312-.313.71-.313 1.187 0 .938.312 1.59.937 1.953.633.356 1.5.532 2.594.532Zm-.484-17.438c1.758 0 3.222.2 4.39.594 1.176.398 2.118.969 2.829 1.719.707.75 1.207 1.664 1.5 2.734.289 1.063.437 2.246.437 3.547v12.406c-.855.188-2.043.406-3.562.656-1.512.25-3.352.375-5.516.375-1.356 0-2.59-.12-3.703-.359-1.106-.238-2.059-.629-2.86-1.172a5.485 5.485 0 0 1-1.828-2.14c-.43-.883-.64-1.97-.64-3.25 0-1.22.242-2.254.734-3.11a5.718 5.718 0 0 1 1.969-2.047 8.835 8.835 0 0 1 2.844-1.093 16.03 16.03 0 0 1 3.328-.344c.77 0 1.453.039 2.047.11a9.568 9.568 0 0 1 1.468.25v-.563c0-1.008-.308-1.82-.922-2.438-.617-.613-1.68-.922-3.187-.922a20.8 20.8 0 0 0-3.016.22c-.98.148-1.828.355-2.547.624l-.765-4.797a14.07 14.07 0 0 1 1.297-.344 20.53 20.53 0 0 1 1.703-.328 32.544 32.544 0 0 1 1.937-.234 22.387 22.387 0 0 1 2.063-.094Zm23.682-9.453c1.113 0 2.14.117 3.078.344.938.23 1.657.45 2.157.656l-1.157 4.766a7.692 7.692 0 0 0-1.75-.532 8.886 8.886 0 0 0-1.734-.187c-.719 0-1.328.102-1.828.297-.492.2-.875.476-1.156.828a3.302 3.302 0 0 0-.594 1.234c-.117.48-.172 1-.172 1.563v1.031h7.36v4.969h-7.36v16.078h-5.969v-22.156c0-2.719.766-4.88 2.297-6.485 1.54-1.601 3.816-2.406 6.828-2.406Zm7.755 10.734c1.008-.3 2.316-.578 3.922-.828a32.722 32.722 0 0 1 5.047-.375c1.781 0 3.265.235 4.453.703 1.187.461 2.125 1.118 2.812 1.97.696.855 1.192 1.87 1.485 3.046.289 1.168.437 2.477.437 3.922v11.875H190.1v-11.156c0-1.926-.258-3.285-.766-4.078-.5-.801-1.445-1.204-2.828-1.204-.43 0-.886.024-1.375.063-.48.043-.902.09-1.265.14v16.235h-5.969Zm29.529 20.313h-5.97v-21.047h5.97Zm.546-27.125c0 1.094-.355 1.96-1.062 2.594-.7.625-1.527.937-2.484.937-.97 0-1.809-.312-2.516-.937-.7-.633-1.047-1.5-1.047-2.594 0-1.094.348-1.953 1.047-2.578.707-.625 1.547-.938 2.516-.938.957 0 1.785.313 2.484.938.707.625 1.062 1.484 1.062 2.578Zm23.013 26.406c-1.023.293-2.335.563-3.937.813-1.594.258-3.273.39-5.031.39-1.782 0-3.266-.242-4.453-.718-1.188-.477-2.133-1.149-2.829-2.016-.687-.875-1.183-1.91-1.484-3.11-.293-1.195-.437-2.515-.437-3.953v-11.734h5.968v11c0 1.93.25 3.32.75 4.172.508.855 1.457 1.281 2.844 1.281.426 0 .879-.02 1.36-.062.476-.04.906-.086 1.28-.14v-16.25h5.97Zm17.154-10.437c0-1.926-.25-3.285-.75-4.078-.492-.801-1.336-1.204-2.531-1.204-.375 0-.766.024-1.172.063-.399.043-.777.09-1.14.14v16.235h-5.97v-20.313a37.888 37.888 0 0 1 3.938-.813c.758-.124 1.54-.218 2.344-.28.8-.07 1.586-.11 2.36-.11 1.519 0 2.753.196 3.702.578.946.387 1.727.844 2.344 1.375.852-.613 1.832-1.093 2.938-1.437 1.101-.344 2.125-.516 3.062-.516 1.676 0 3.05.235 4.125.703 1.082.461 1.941 1.118 2.578 1.97.645.855 1.086 1.87 1.328 3.046.239 1.168.36 2.477.36 3.922v11.875h-5.953v-11.156c0-1.926-.25-3.285-.75-4.078-.493-.801-1.336-1.204-2.532-1.204-.324 0-.773.086-1.343.25-.575.157-1.047.356-1.422.594a8.97 8.97 0 0 1 .359 1.938c.05.68.078 1.402.078 2.172v11.484h-5.953Zm-108.202 51.868c.77-.32 1.578-.692 2.422-1.11.843-.414 1.66-.867 2.453-1.36.8-.487 1.566-1.003 2.297-1.546a15.52 15.52 0 0 0 1.984-1.75h4.172v27.719h-5.969v-19.953c-.805.53-1.7 1.015-2.687 1.453-.98.437-1.938.82-2.875 1.14Zm25.61 21.953c.156-1.946.485-3.973.985-6.078a59.072 59.072 0 0 1 1.859-6.188 53.583 53.583 0 0 1 2.469-5.75c.906-1.8 1.828-3.36 2.765-4.672h-12.047v-5.078h19.407v4.328c-.856.93-1.797 2.219-2.828 3.875-1.024 1.656-1.997 3.531-2.922 5.625a53.19 53.19 0 0 0-2.407 6.75 34.54 34.54 0 0 0-1.25 7.188Zm38.236-7.719c0 1.2-.211 2.297-.625 3.297a7.383 7.383 0 0 1-1.86 2.625c-.824.742-1.855 1.32-3.094 1.734-1.242.414-2.68.625-4.312.625-1.867 0-3.418-.261-4.656-.781-1.242-.52-2.242-1.164-3-1.938-.762-.77-1.305-1.613-1.625-2.53-.313-.927-.469-1.774-.469-2.548 0-.8.102-1.535.312-2.203a7.28 7.28 0 0 1 .875-1.812 9.357 9.357 0 0 1 1.266-1.5c.469-.457.969-.89 1.5-1.297-1.148-.926-1.996-1.844-2.547-2.75-.543-.906-.812-2.067-.812-3.485a7.54 7.54 0 0 1 .656-3.078 7.863 7.863 0 0 1 1.86-2.578c.8-.738 1.769-1.328 2.906-1.765 1.132-.438 2.394-.657 3.78-.657 1.626 0 3.016.235 4.173.703 1.164.47 2.117 1.063 2.86 1.782.75.718 1.288 1.527 1.624 2.422.332.886.5 1.773.5 2.656 0 1.281-.34 2.476-1.016 3.578-.68 1.105-1.527 1.98-2.546 2.625 1.52.98 2.609 2.012 3.265 3.094.656 1.086.985 2.343.985 3.781Zm-13.844.234c0 .325.07.68.219 1.063.144.387.379.742.703 1.062.32.325.734.594 1.234.813.508.21 1.125.312 1.844.312 1.383 0 2.394-.332 3.031-1 .645-.664.969-1.414.969-2.25 0-.613-.14-1.16-.422-1.64a4.266 4.266 0 0 0-1.14-1.25 8.103 8.103 0 0 0-1.704-.969 23.084 23.084 0 0 0-2.094-.781 8.21 8.21 0 0 0-1.89 1.968c-.5.743-.75 1.633-.75 2.672Zm7.406-13.156a2.7 2.7 0 0 0-.187-.937 2.6 2.6 0 0 0-.594-.938 3.586 3.586 0 0 0-1.063-.734c-.43-.207-.949-.313-1.562-.313-.586 0-1.09.094-1.516.281-.43.188-.781.438-1.062.75a3.06 3.06 0 0 0-.625.97 2.693 2.693 0 0 0-.203 1c0 .855.312 1.655.937 2.405.633.743 1.711 1.383 3.234 1.922.852-.539 1.504-1.156 1.954-1.843.457-.696.687-1.551.687-2.563Zm16.595 17.485c0 1.199-.383 2.109-1.14 2.734-.762.625-1.622.937-2.579.937-.96 0-1.82-.312-2.578-.937-.762-.625-1.14-1.535-1.14-2.735 0-1.195.378-2.109 1.14-2.734.758-.633 1.617-.953 2.578-.953.957 0 1.817.32 2.578.953.758.625 1.14 1.54 1.14 2.734Zm15.605-5c0-.77-.18-1.458-.53-2.063-.345-.602-.946-1.102-1.798-1.5-.855-.395-2-.695-3.437-.906-1.438-.219-3.25-.328-5.438-.328.29-2.489.532-5.008.72-7.563.187-2.562.331-4.96.437-7.203h15v5h-10c-.055.96-.118 1.887-.188 2.781a43.99 43.99 0 0 1-.219 2.344c3.895.262 6.77 1.172 8.625 2.734 1.852 1.563 2.782 3.73 2.782 6.5 0 1.282-.23 2.47-.688 3.563a7.61 7.61 0 0 1-2.031 2.844c-.906.793-2.047 1.418-3.422 1.875-1.375.445-2.98.671-4.813.671-.73 0-1.492-.046-2.28-.14a29.875 29.875 0 0 1-2.266-.36 32.12 32.12 0 0 1-1.985-.453c-.586-.156-1.039-.316-1.36-.484l1.079-4.922c.664.305 1.547.594 2.64.875 1.094.274 2.399.406 3.922.406 1.844 0 3.176-.363 4-1.093.833-.739 1.25-1.598 1.25-2.579ZM43.188 76.25c.156-1.945.484-3.973.984-6.078a59.072 59.072 0 0 1 1.86-6.188 53.583 53.583 0 0 1 2.468-5.75c.906-1.8 1.828-3.359 2.766-4.672H39.219v-5.078h19.406v4.328c-.855.93-1.797 2.22-2.828 3.875-1.024 1.657-1.996 3.532-2.922 5.625a53.19 53.19 0 0 0-2.406 6.75 34.54 34.54 0 0 0-1.25 7.188Zm36.873-20.438a7.27 7.27 0 0 1-.609 2.922c-.398.93-.918 1.828-1.562 2.703-.637.868-1.356 1.7-2.157 2.5a122.18 122.18 0 0 1-2.359 2.266c-.398.375-.828.797-1.297 1.266a34.866 34.866 0 0 0-2.484 2.765c-.336.407-.54.746-.61 1.016h11.922v5H62.421a6.209 6.209 0 0 1-.078-1.11v-.968c0-1.281.203-2.453.61-3.516.413-1.07.956-2.066 1.624-2.984a19.415 19.415 0 0 1 2.25-2.578c.844-.801 1.68-1.602 2.516-2.407.633-.613 1.234-1.19 1.797-1.734a20.189 20.189 0 0 0 1.484-1.61 7.557 7.557 0 0 0 1-1.546c.238-.52.36-1.05.36-1.594 0-1.164-.337-1.988-1-2.469-.669-.476-1.497-.718-2.485-.718-.719 0-1.398.117-2.031.343-.625.22-1.2.485-1.719.797-.512.305-.953.61-1.328.922-.375.305-.656.547-.844.734l-2.953-4.156c1.164-1.094 2.531-1.992 4.094-2.703a12.025 12.025 0 0 1 5.015-1.062c1.625 0 3.024.187 4.203.562 1.176.375 2.145.902 2.907 1.578a6.077 6.077 0 0 1 1.672 2.485c.363.968.546 2.07.546 3.296Zm0 0"/>
</svg>
