<svg xmlns="http://www.w3.org/2000/svg" version="1.2" viewBox="0 0 375 375">
  <path d="m359.121 5.996.461.043.45.066.448.086.438.094.437.117.422.137.422.145.414.168.399.175.39.196.395.21.371.227.371.238.356.25.347.266.336.277.328.293.313.305.304.313.29.324.277.336.262.347.253.36.239.367.226.371.203.395.2.39.18.41.167.407.145.421.137.426.109.43.101.445.083.442.066.46.05.458.028.457.008.472v340.74l-.008.464-.027.465-.051.461-.066.45-.082.445-.102.441-.11.438-.136.422-.145.421-.168.414-.18.399-.199.39-.203.387-.226.38-.239.37-.253.356-.262.347-.277.336-.29.328-.304.313-.313.305-.328.289-.336.277-.347.262-.356.254-.371.242-.371.215-.395.21-.39.2-.399.18-.414.168-.422.144-.422.133-.437.113-.438.102-.449.082-.449.066-.46.05-.466.028-.465.008H17.453l-.465-.008-.465-.027-.457-.05-.46-.067-.442-.082-.445-.102-.43-.113-.426-.133-.422-.144-.406-.168-.41-.18-.39-.2-.387-.21-.38-.215-.366-.242-.36-.254-.347-.262-.336-.277-.325-.29-.312-.304-.305-.313-.293-.328-.277-.336-.262-.347-.254-.356-.238-.37-.227-.38-.21-.386-.188-.391-.184-.399-.168-.414-.144-.421-.137-.422-.117-.438-.094-.441-.086-.446-.058-.449-.051-.46-.031-.466-.008-.464V17.32l.008-.472.03-.457.052-.457.058-.461.086-.442.094-.445.117-.43.137-.426.144-.421.168-.407.184-.41.187-.39.211-.395.227-.371.238-.367.254-.36.262-.347.277-.336.293-.324.305-.313.312-.305.325-.293.336-.277.347-.266.36-.25.367-.238.379-.226.386-.211.391-.196.41-.175.406-.168.422-.145.426-.137.43-.117.445-.094.441-.086.461-.066.457-.043.465-.031.465-.008h340.738l.465.008Zm-333.25 8.86-.465.03-.457.044-.453.062-.45.09-.437.094-.437.117-.426.137-.414.144-.414.168-.402.176-.399.195-.387.211-.378.227-.364.238-.355.246-.348.27-.336.277-.324.29-.313.308-.308.312-.29.324-.276.336-.27.348-.246.355-.238.364-.227.379-.21.386-.188.399-.184.402-.168.414-.145.414-.136.426-.117.438-.094.437-.09.45-.055.452-.05.457-.032.465-.008.465v322.965l.008.465.032.469.05.457.055.449.09.445.094.442.117.437.136.422.145.422.168.414.184.398.187.395.211.383.227.379.238.37.246.356.27.348.277.336.289.328.308.312.313.305.324.29.336.276.348.262.355.254.364.242.378.215.387.211.399.2.402.179.414.168.414.144.426.133.437.113.438.106.45.078.452.067.457.05.465.028.465.007H349.3l.465-.007.468-.028.457-.05.45-.067.453-.078.433-.106.438-.113.422-.133.422-.144.414-.168.398-.18.395-.199.39-.21.371-.216.371-.242.356-.254.348-.262.336-.277.328-.289.312-.305.305-.312.289-.328.277-.336.262-.348.254-.355.242-.371.223-.38.203-.382.199-.395.18-.398.168-.414.144-.422.14-.422.106-.437.106-.442.078-.445.066-.45.051-.456.027-.47.008-.464V26.203l-.008-.465-.027-.465-.05-.457-.067-.453-.078-.449-.211-.875-.14-.426-.145-.414-.168-.414-.18-.402-.2-.399-.202-.386-.223-.38-.242-.363-.254-.355-.262-.348-.277-.336-.29-.324-.304-.312-.312-.309-.329-.289-.335-.277-.348-.27-.356-.246-.37-.238-.372-.227-.39-.21-.395-.196-.398-.176-.414-.168-.422-.144-.422-.137-.438-.117-.433-.094-.453-.09-.45-.062-.457-.043-.468-.032-.465-.007H26.336Zm0 0"/>
  <path d="M197.442 108.193c1.113 3.824 2.347 8.137 3.703 12.938a990.376 990.376 0 0 0 4.328 14.906 1873.817 1873.817 0 0 0 4.687 15.406 565.973 565.973 0 0 0 4.625 14.266 555.354 555.354 0 0 0 3.72-15.532 494.72 494.72 0 0 0 3.562-17.359 3499.532 3499.532 0 0 0 3.28-17.844c1.071-5.925 2.079-11.64 3.016-17.14h22.672a998.147 998.147 0 0 1-11.265 49.406c-4.242 16.7-8.836 32.559-13.782 47.578h-20.015c-3.274-8.957-6.45-18.36-9.531-28.203a3014.271 3014.271 0 0 1-9.079-29.594c-2.992 9.887-5.98 19.75-8.968 29.594-2.98 9.844-6.106 19.246-9.375 28.203h-20.016c-4.937-15.02-9.531-30.879-13.781-47.578a1016.193 1016.193 0 0 1-11.266-49.406h23.656c.926 5.5 1.946 11.215 3.063 17.14 1.125 5.93 2.289 11.875 3.5 17.844a883.197 883.197 0 0 0 3.719 17.36 334.81 334.81 0 0 0 3.86 15.53 299.617 299.617 0 0 0 4.89-14.546 1026.431 1026.431 0 0 0 4.61-15.39 609.589 609.589 0 0 0 4.14-14.845c1.258-4.757 2.398-9.003 3.422-12.734Zm-75.936 129.749v5.313h-8.36v22.406h-6.25v-22.406h-8.358v-5.313Zm21.56 27c-1.023.293-2.336.563-3.937.813-1.594.258-3.274.39-5.032.39-1.78 0-3.265-.242-4.453-.718-1.187-.477-2.133-1.149-2.828-2.016-.687-.875-1.184-1.91-1.484-3.11-.293-1.195-.438-2.515-.438-3.953v-11.734h5.969v11c0 1.93.25 3.32.75 4.172.508.855 1.457 1.281 2.844 1.281.425 0 .879-.02 1.36-.062.476-.04.905-.086 1.28-.14v-16.25h5.97Zm5.591-19.594c1.008-.3 2.317-.578 3.922-.828a32.722 32.722 0 0 1 5.047-.375c1.781 0 3.266.235 4.453.703 1.188.461 2.125 1.118 2.813 1.97.695.855 1.19 1.87 1.484 3.046.289 1.168.437 2.477.437 3.922v11.875h-5.953v-11.156c0-1.926-.258-3.285-.765-4.078-.5-.801-1.446-1.204-2.828-1.204-.43 0-.887.024-1.375.063-.48.043-.903.09-1.266.14v16.235h-5.969Zm28.638 9.11c0 3.336 1.348 5 4.047 5 .613 0 1.187-.078 1.719-.235a6.99 6.99 0 0 0 1.36-.562v-9.516a13.989 13.989 0 0 0-2.438-.203c-1.575 0-2.75.524-3.532 1.563-.773 1.043-1.156 2.36-1.156 3.953Zm13.078 8.562c0 3.438-.875 5.989-2.625 7.657-1.742 1.664-4.437 2.5-8.094 2.5a22.04 22.04 0 0 1-3.843-.344 22.844 22.844 0 0 1-3.547-.89l1.031-5a17.26 17.26 0 0 0 2.938.874c1.03.219 2.195.328 3.5.328 1.707 0 2.914-.375 3.625-1.125.707-.75 1.062-1.707 1.062-2.875v-.765a9.312 9.312 0 0 1-1.984.656c-.68.148-1.418.219-2.219.219-2.906 0-5.137-.86-6.688-2.578-1.543-1.72-2.312-4.125-2.312-7.22 0-1.538.238-2.94.719-4.202a8.941 8.941 0 0 1 2.093-3.266c.926-.914 2.055-1.617 3.391-2.11 1.332-.488 2.836-.734 4.516-.734.718 0 1.457.04 2.218.11a43.65 43.65 0 0 1 2.266.25c.75.105 1.461.23 2.14.375a22.71 22.71 0 0 1 1.813.468Zm11.651-1.64c1.093 0 1.863-.102 2.312-.313.457-.219.688-.633.688-1.25 0-.476-.297-.894-.891-1.25-.586-.363-1.477-.77-2.672-1.219a29.81 29.81 0 0 1-2.547-1.078c-.761-.375-1.406-.82-1.937-1.343a5.38 5.38 0 0 1-1.235-1.86c-.293-.726-.437-1.597-.437-2.61 0-1.968.726-3.523 2.187-4.671 1.47-1.145 3.485-1.719 6.047-1.719 1.282 0 2.504.117 3.672.344 1.176.219 2.113.465 2.813.734l-1.047 4.641a21.726 21.726 0 0 0-2.266-.64c-.812-.188-1.726-.282-2.734-.282-1.867 0-2.797.524-2.797 1.563 0 .242.035.453.11.64.081.188.241.371.484.547.238.168.566.352.984.547.414.2.941.418 1.578.656 1.313.48 2.395.953 3.25 1.422.852.469 1.524.98 2.016 1.531a4.717 4.717 0 0 1 1.031 1.813c.207.668.313 1.437.313 2.312 0 2.086-.782 3.664-2.344 4.735-1.563 1.062-3.774 1.593-6.625 1.593-1.867 0-3.418-.164-4.656-.484-1.243-.32-2.102-.586-2.579-.797l1-4.844c1.008.407 2.047.727 3.11.954a15.82 15.82 0 0 0 3.172.328Zm13.149-22 5.97-.953v6.187h7.155v4.969h-7.156v7.39c0 1.262.219 2.266.656 3.016.438.742 1.32 1.11 2.657 1.11a11.106 11.106 0 0 0 3.844-.672l.843 4.64a16.18 16.18 0 0 1-2.406.75c-.875.219-1.953.328-3.234.328-1.625 0-2.977-.218-4.047-.656-1.063-.445-1.918-1.062-2.563-1.844-.636-.789-1.086-1.742-1.344-2.859-.25-1.125-.375-2.363-.375-3.719Zm16.963 15.922c0-1.864.286-3.493.86-4.891.57-1.406 1.32-2.57 2.25-3.5a9.42 9.42 0 0 1 3.219-2.125 10.218 10.218 0 0 1 3.75-.719c2.988 0 5.347.914 7.078 2.735 1.738 1.824 2.61 4.511 2.61 8.062 0 .344-.017.727-.048 1.14-.023.407-.047.774-.078 1.094h-13.516c.133 1.231.708 2.204 1.72 2.922 1.007.72 2.366 1.078 4.077 1.078 1.094 0 2.164-.097 3.22-.296 1.05-.196 1.91-.442 2.577-.735l.797 4.828c-.312.168-.742.328-1.281.485-.531.156-1.125.289-1.781.406a27.42 27.42 0 0 1-2.094.312 20.29 20.29 0 0 1-2.235.125c-1.898 0-3.546-.28-4.953-.843-1.398-.563-2.554-1.328-3.468-2.297a9.279 9.279 0 0 1-2.047-3.469c-.438-1.332-.657-2.77-.657-4.312Zm14-2.282a5.617 5.617 0 0 0-.265-1.484 3.573 3.573 0 0 0-1.828-2.188c-.469-.25-1.055-.375-1.75-.375-.668 0-1.242.118-1.719.344-.48.23-.883.531-1.203.906a4.268 4.268 0 0 0-.735 1.297 9.159 9.159 0 0 0-.375 1.5Zm10.36-7.672c1.008-.3 2.317-.578 3.922-.828a32.722 32.722 0 0 1 5.047-.375c1.781 0 3.266.235 4.453.703 1.188.461 2.125 1.118 2.813 1.97.695.855 1.191 1.87 1.484 3.046.29 1.168.438 2.477.438 3.922v11.875h-5.954v-11.156c0-1.926-.257-3.285-.765-4.078-.5-.801-1.446-1.204-2.828-1.204-.43 0-.887.024-1.375.063-.48.043-.903.09-1.266.14v16.235h-5.969Zm-116.559 61.025c.77-.32 1.578-.692 2.422-1.11.843-.414 1.66-.867 2.453-1.36.8-.487 1.566-1.003 2.297-1.546a15.52 15.52 0 0 0 1.984-1.75h4.172v27.719h-5.969v-19.953c-.805.53-1.7 1.015-2.687 1.453-.98.437-1.938.82-2.875 1.14Zm41.126 14.234c0 1.2-.211 2.297-.625 3.297a7.383 7.383 0 0 1-1.86 2.625c-.824.742-1.855 1.32-3.093 1.734-1.243.414-2.68.625-4.313.625-1.867 0-3.418-.261-4.656-.781-1.242-.52-2.242-1.164-3-1.938-.762-.77-1.305-1.613-1.625-2.53-.313-.927-.469-1.774-.469-2.548 0-.8.102-1.535.313-2.203a7.28 7.28 0 0 1 .875-1.812 9.403 9.403 0 0 1 1.265-1.5c.469-.457.969-.89 1.5-1.297-1.148-.926-1.996-1.844-2.547-2.75-.543-.906-.812-2.067-.812-3.485 0-1.062.219-2.085.656-3.078a7.863 7.863 0 0 1 1.86-2.578c.8-.738 1.77-1.328 2.906-1.765 1.133-.438 2.394-.657 3.781-.657 1.625 0 3.016.235 4.172.703 1.164.47 2.117 1.063 2.86 1.782.75.718 1.288 1.527 1.624 2.422.332.886.5 1.773.5 2.656 0 1.281-.34 2.476-1.015 3.578-.68 1.105-1.528 1.98-2.547 2.625 1.52.98 2.61 2.012 3.265 3.094.657 1.086.985 2.343.985 3.781Zm-13.844.234c0 .325.07.68.219 1.063.144.387.379.742.703 1.062.32.325.734.594 1.234.813.508.21 1.125.312 1.844.312 1.383 0 2.395-.332 3.031-1 .645-.664.969-1.414.969-2.25 0-.613-.14-1.16-.422-1.64a4.266 4.266 0 0 0-1.14-1.25 8.103 8.103 0 0 0-1.704-.969 23.084 23.084 0 0 0-2.093-.781 8.21 8.21 0 0 0-1.891 1.968c-.5.743-.75 1.633-.75 2.672Zm7.406-13.156a2.7 2.7 0 0 0-.187-.937 2.6 2.6 0 0 0-.594-.938 3.586 3.586 0 0 0-1.062-.734c-.43-.207-.95-.313-1.563-.313-.586 0-1.09.094-1.516.281-.43.188-.78.438-1.062.75a3.06 3.06 0 0 0-.625.97 2.693 2.693 0 0 0-.203 1c0 .855.312 1.655.937 2.405.633.743 1.711 1.383 3.235 1.922.851-.539 1.504-1.156 1.953-1.843.457-.696.687-1.551.687-2.563Zm17.079 21.235c-.718 0-1.48-.047-2.28-.141a26.337 26.337 0 0 1-2.329-.375 23.58 23.58 0 0 1-2.031-.516 12.157 12.157 0 0 1-1.438-.515l1.157-4.97c.687.294 1.57.606 2.656.938 1.082.336 2.422.5 4.015.5 1.844 0 3.192-.343 4.047-1.03.852-.696 1.282-1.63 1.282-2.798 0-.726-.157-1.336-.47-1.828a3.48 3.48 0 0 0-1.25-1.187c-.53-.313-1.167-.524-1.905-.641a13.9 13.9 0 0 0-2.344-.188H188.5v-4.796h2.641c.582 0 1.145-.051 1.687-.157a4.833 4.833 0 0 0 1.47-.547 2.87 2.87 0 0 0 1.015-1.046c.258-.438.39-.989.39-1.657 0-.507-.109-.945-.328-1.312a2.85 2.85 0 0 0-.812-.922 3.576 3.576 0 0 0-1.172-.531 4.826 4.826 0 0 0-1.328-.188c-1.149 0-2.211.172-3.188.516a13.17 13.17 0 0 0-2.656 1.281l-2.125-4.36a18.8 18.8 0 0 1 1.5-.843c.57-.29 1.203-.555 1.89-.797a17.344 17.344 0 0 1 2.22-.594 12.34 12.34 0 0 1 2.515-.25c1.625 0 3.031.196 4.219.578 1.187.387 2.164.934 2.937 1.641a6.73 6.73 0 0 1 1.72 2.484c.374.95.562 1.98.562 3.094 0 1.094-.309 2.156-.922 3.188a6.097 6.097 0 0 1-2.469 2.328c1.437.594 2.547 1.469 3.328 2.625.79 1.156 1.188 2.555 1.188 4.187 0 1.282-.215 2.465-.641 3.547a7.223 7.223 0 0 1-2 2.797c-.906.781-2.063 1.39-3.469 1.828-1.398.438-3.054.656-4.969.656Zm22.236-3.75c0 1.199-.383 2.109-1.14 2.734-.762.625-1.622.937-2.579.937-.96 0-1.82-.312-2.578-.937-.762-.625-1.14-1.535-1.14-2.735 0-1.195.378-2.109 1.14-2.734.758-.633 1.617-.953 2.578-.953.957 0 1.817.32 2.578.953.758.625 1.14 1.54 1.14 2.734Zm22.402-4.563c0 1.2-.21 2.297-.625 3.297a7.383 7.383 0 0 1-1.859 2.625c-.824.742-1.855 1.32-3.094 1.734-1.242.414-2.68.625-4.312.625-1.867 0-3.418-.261-4.657-.781-1.242-.52-2.242-1.164-3-1.938-.761-.77-1.304-1.613-1.625-2.53-.312-.927-.468-1.774-.468-2.548 0-.8.101-1.535.312-2.203a7.28 7.28 0 0 1 .875-1.812 9.357 9.357 0 0 1 1.266-1.5c.469-.457.969-.89 1.5-1.297-1.149-.926-1.996-1.844-2.547-2.75-.543-.906-.813-2.067-.813-3.485 0-1.062.22-2.085.657-3.078a7.863 7.863 0 0 1 1.86-2.578c.8-.738 1.769-1.328 2.905-1.765 1.133-.438 2.395-.657 3.782-.657 1.625 0 3.015.235 4.171.703 1.165.47 2.118 1.063 2.86 1.782.75.718 1.289 1.527 1.625 2.422.332.886.5 1.773.5 2.656 0 1.281-.34 2.476-1.016 3.578-.68 1.105-1.527 1.98-2.547 2.625 1.52.98 2.61 2.012 3.266 3.094.656 1.086.984 2.343.984 3.781Zm-13.843.234c0 .325.07.68.218 1.063.145.387.38.742.703 1.062.32.325.735.594 1.235.813.508.21 1.125.312 1.844.312 1.382 0 2.394-.332 3.03-1 .645-.664.97-1.414.97-2.25 0-.613-.141-1.16-.422-1.64a4.266 4.266 0 0 0-1.14-1.25 8.103 8.103 0 0 0-1.704-.969 23.084 23.084 0 0 0-2.094-.781 8.21 8.21 0 0 0-1.89 1.968c-.5.743-.75 1.633-.75 2.672Zm7.406-13.156a2.7 2.7 0 0 0-.188-.937 2.6 2.6 0 0 0-.593-.938 3.586 3.586 0 0 0-1.063-.734c-.43-.207-.95-.313-1.562-.313-.586 0-1.09.094-1.516.281-.43.188-.781.438-1.063.75a3.06 3.06 0 0 0-.625.97 2.713 2.713 0 0 0-.203 1c0 .855.313 1.655.938 2.405.633.743 1.71 1.383 3.234 1.922.852-.539 1.504-1.156 1.953-1.843.457-.696.688-1.551.688-2.563ZM43.188 76.25c.156-1.945.484-3.973.984-6.078a59.072 59.072 0 0 1 1.86-6.188 53.583 53.583 0 0 1 2.468-5.75c.906-1.8 1.828-3.359 2.766-4.671H39.219v-5.079h19.406v4.329c-.855.93-1.797 2.218-2.828 3.875-1.024 1.656-1.996 3.53-2.922 5.625a53.19 53.19 0 0 0-2.406 6.75 34.54 34.54 0 0 0-1.25 7.187Zm29.795-20.437a247.352 247.352 0 0 0-3.328 4.437 31.341 31.341 0 0 0-2.953 4.922h6.281Zm5.828-7.282v16.64h2.97v4.876h-2.97v6.203h-5.828v-6.203H61.015v-4.36a74.056 74.056 0 0 1 2.203-3.968 69.398 69.398 0 0 1 2.937-4.563 80.118 80.118 0 0 1 3.422-4.578 48.177 48.177 0 0 1 3.594-4.047Zm0 0"/>
</svg>
