<svg xmlns="http://www.w3.org/2000/svg" version="1.2" viewBox="0 0 375 375">
  <path d="m359.121 5.996.461.043.45.066.448.086.438.094.437.117.422.137.422.145.414.168.399.175.39.196.395.21.371.227.371.238.356.247.347.27.336.276.328.29.313.308.304.313.29.324.277.336.262.347.253.36.239.367.226.371.203.395.2.39.18.41.167.407.145.421.137.426.109.43.101.445.083.442.066.46.05.458.028.457.008.472v340.74l-.008.464-.027.465-.051.461-.066.45-.082.445-.102.441-.11.438-.136.422-.145.421-.168.414-.18.399-.199.39-.203.387-.226.38-.239.37-.253.356-.262.347-.277.336-.29.328-.304.313-.313.305-.328.289-.336.277-.347.262-.356.254-.371.238-.371.219-.395.21-.39.2-.399.18-.414.168-.422.144-.422.133-.437.113-.438.102-.449.082-.449.066-.46.05-.466.028-.465.008H17.453l-.465-.008-.465-.027-.457-.05-.46-.067-.442-.082-.445-.102-.43-.113-.426-.133-.422-.144-.406-.168-.41-.18-.39-.2-.387-.21-.38-.22-.366-.237-.36-.254-.347-.262-.336-.277-.325-.29-.312-.304-.305-.313-.293-.328-.277-.336-.262-.347-.254-.356-.238-.37-.227-.38-.21-.386-.188-.391-.184-.399-.168-.414-.144-.421-.137-.422-.117-.438-.094-.441-.086-.446-.058-.449-.051-.46-.031-.466-.008-.464V17.32l.008-.472.03-.457.052-.457.058-.461.086-.442.094-.445.117-.43.137-.426.144-.421.168-.407.184-.41.187-.39.211-.395.227-.371.238-.367.254-.36.262-.347.277-.336.293-.324.305-.313.312-.305.325-.293.336-.277.347-.27.36-.246.367-.238.379-.226.386-.211.391-.196.41-.175.406-.168.422-.145.426-.137.43-.117.445-.094.441-.086.461-.066.457-.043.465-.031.465-.008h340.738l.465.008Zm-333.25 8.86-.465.03-.457.044-.453.062-.45.09-.437.094-.437.117-.426.137-.414.144-.414.168-.402.176-.399.195-.387.211-.378.227-.364.238-.355.246-.348.27-.336.277-.324.29-.313.308-.308.312-.29.324-.276.336-.27.348-.246.355-.238.364-.227.379-.21.386-.188.399-.184.402-.168.414-.145.414-.136.426-.117.438-.094.437-.09.45-.055.452-.05.457-.032.465-.008.465v322.965l.008.465.032.469.05.457.055.449.09.445.094.442.117.437.136.422.145.422.168.414.184.398.187.395.211.383.227.379.238.37.246.356.27.348.277.336.289.328.308.312.313.305.324.29.336.276.348.262.355.254.364.242.378.215.387.211.399.2.402.179.414.168.414.144.426.133.437.113.438.106.45.078.452.067.457.05.465.028.465.007H349.3l.465-.007.468-.028.457-.05.45-.067.453-.078.433-.106.438-.113.422-.133.422-.144.414-.168.398-.18.395-.199.39-.21.371-.216.371-.242.356-.254.348-.262.336-.277.328-.289.312-.305.305-.312.289-.328.277-.336.262-.348.254-.355.242-.371.223-.38.203-.382.199-.395.18-.398.168-.414.144-.422.14-.422.106-.437.106-.442.078-.445.066-.45.051-.456.027-.47.008-.464V26.203l-.008-.465-.027-.465-.05-.457-.067-.453-.078-.449-.211-.875-.14-.426-.145-.414-.168-.414-.18-.402-.2-.399-.202-.386-.223-.38-.242-.363-.254-.355-.262-.348-.277-.336-.29-.324-.304-.312-.312-.309-.329-.289-.335-.277-.348-.27-.356-.246-.37-.238-.372-.227-.39-.21-.395-.196-.398-.176-.414-.168-.422-.144-.422-.137-.438-.117-.433-.094-.453-.09-.45-.062-.457-.043-.468-.032-.465-.007H26.336Zm0 0"/>
  <path d="M147.059 97.834h21.828v96.984h-21.828Zm87.179 41.843a150.34 150.34 0 0 0-6.578-1.468c-2.512-.508-5.215-.766-8.11-.766-1.312 0-2.882.117-4.702.344-1.813.23-3.184.484-4.11.765v56.266h-20.86v-69.703c3.727-1.3 8.134-2.535 13.22-3.703 5.093-1.164 10.765-1.75 17.015-1.75 1.113 0 2.461.074 4.047.219a75.11 75.11 0 0 1 4.766.562 88.24 88.24 0 0 1 4.75.828c1.593.324 2.945.719 4.062 1.188Zm-110.955 98.265h6.235v27.719h-6.235Zm24.921 11.953a68.408 68.408 0 0 0-1.89-.406 10.891 10.891 0 0 0-2.313-.234c-.375 0-.824.039-1.343.11-.524.062-.915.136-1.172.218v16.078h-5.97v-19.922c1.071-.375 2.333-.726 3.782-1.062 1.457-.332 3.078-.5 4.86-.5.32 0 .707.023 1.156.062.457.043.91.102 1.36.172.456.062.91.14 1.359.234.457.094.847.203 1.171.328Zm10.162 15.766h-5.97v-21.047h5.97Zm.546-27.125c0 1.094-.355 1.96-1.062 2.594-.7.625-1.527.937-2.484.937-.97 0-1.81-.312-2.516-.937-.7-.633-1.047-1.5-1.047-2.594 0-1.094.348-1.953 1.047-2.578.707-.625 1.547-.938 2.516-.938.957 0 1.785.313 2.484.938.707.625 1.062 1.484 1.062 2.578Zm10.123 16.437c0 1.844.41 3.329 1.234 4.454.832 1.117 2.063 1.671 3.688 1.671.53 0 1.02-.019 1.468-.062.457-.04.836-.086 1.141-.14v-10.829c-.375-.238-.867-.437-1.469-.594a6.786 6.786 0 0 0-1.812-.25c-2.836 0-4.25 1.918-4.25 5.75Zm13.484 10c-.531.168-1.148.325-1.844.47-.687.148-1.414.269-2.171.374a43.77 43.77 0 0 1-2.329.25c-.78.07-1.53.11-2.25.11-1.742 0-3.293-.25-4.656-.75-1.355-.508-2.5-1.239-3.437-2.188-.93-.945-1.641-2.094-2.141-3.437-.492-1.344-.734-2.86-.734-4.547 0-1.696.21-3.235.64-4.61.426-1.375 1.04-2.539 1.844-3.5a7.998 7.998 0 0 1 2.938-2.203c1.156-.508 2.484-.765 3.984-.765.82 0 1.562.086 2.219.25a11.99 11.99 0 0 1 1.984.671v-9.515l5.953-.969Zm11.566.688h-5.969v-21.047h5.97Zm.547-27.125c0 1.094-.355 1.96-1.062 2.594-.7.625-1.528.937-2.485.937-.969 0-1.808-.312-2.515-.937-.7-.633-1.047-1.5-1.047-2.594 0-1.094.347-1.953 1.047-2.578.707-.625 1.546-.938 2.515-.938.957 0 1.785.313 2.485.938.707.625 1.062 1.484 1.062 2.578Zm23.013 26.406c-1.023.293-2.336.563-3.937.813-1.594.258-3.274.39-5.032.39-1.78 0-3.265-.242-4.453-.718-1.187-.477-2.133-1.149-2.828-2.016-.687-.875-1.183-1.91-1.484-3.11-.293-1.195-.438-2.515-.438-3.953v-11.734h5.969v11c0 1.93.25 3.32.75 4.172.508.855 1.457 1.281 2.844 1.281.426 0 .879-.02 1.36-.062.476-.04.905-.086 1.28-.14v-16.25h5.97Zm17.154-10.437c0-1.926-.25-3.285-.75-4.078-.492-.801-1.336-1.204-2.532-1.204-.375 0-.765.024-1.171.063-.399.043-.778.09-1.141.14v16.235h-5.969v-20.313a37.888 37.888 0 0 1 3.938-.813 27.702 27.702 0 0 1 2.343-.28c.801-.07 1.586-.11 2.36-.11 1.52 0 2.754.196 3.703.578.945.387 1.727.844 2.344 1.375.851-.613 1.832-1.093 2.937-1.437 1.102-.344 2.125-.516 3.063-.516 1.675 0 3.05.235 4.125.703 1.082.461 1.941 1.118 2.578 1.97.644.855 1.086 1.87 1.328 3.046.238 1.168.36 2.477.36 3.922v11.875h-5.954v-11.156c0-1.926-.25-3.285-.75-4.078-.492-.801-1.336-1.204-2.531-1.204-.324 0-.773.086-1.344.25-.574.157-1.047.356-1.422.594a8.91 8.91 0 0 1 .36 1.938c.05.68.078 1.402.078 2.172v11.484h-5.953Zm-94.862 51.868c.77-.32 1.578-.692 2.422-1.11.843-.414 1.66-.867 2.453-1.359a30.39 30.39 0 0 0 2.297-1.547 15.52 15.52 0 0 0 1.984-1.75h4.172v27.719h-5.969v-19.953a18.49 18.49 0 0 1-2.687 1.453c-.98.437-1.938.82-2.875 1.14Zm31.485 7.077c.613 0 1.254-.054 1.922-.171.664-.125 1.156-.297 1.469-.516v-.359c0-.102.004-.207.015-.313a1.75 1.75 0 0 0 .032-.28 22.022 22.022 0 0 0-.25-2.704c-.125-.844-.352-1.578-.672-2.203a3.775 3.775 0 0 0-1.313-1.469c-.543-.363-1.21-.547-2-.547-.648 0-1.21.137-1.687.407-.48.261-.867.605-1.156 1.03-.293.43-.512.9-.657 1.407-.148.5-.218.992-.218 1.469 0 1.45.347 2.523 1.046 3.219.707.687 1.864 1.03 3.47 1.03Zm2.922 3.876a7.221 7.221 0 0 1-1.875.594c-.68.117-1.258.171-1.734.171-1.73 0-3.211-.207-4.438-.625-1.23-.414-2.242-1.003-3.031-1.765a6.998 6.998 0 0 1-1.734-2.735c-.368-1.062-.547-2.234-.547-3.515 0-1.07.175-2.164.53-3.281a9.002 9.002 0 0 1 1.704-3.063c.77-.914 1.75-1.676 2.938-2.281 1.187-.602 2.617-.906 4.296-.906 3.446 0 6.04 1.062 7.782 3.187 1.75 2.117 2.625 5.164 2.625 9.14 0 2.618-.344 4.923-1.032 6.923-.68 2-1.73 3.683-3.156 5.046-1.418 1.356-3.234 2.387-5.453 3.094-2.21.711-4.836 1.07-7.875 1.094a90.625 90.625 0 0 0-.125-2.469c-.055-.8-.105-1.629-.156-2.484 1.52-.031 2.89-.145 4.11-.344 1.226-.195 2.304-.531 3.234-1a7.477 7.477 0 0 0 2.39-1.86c.656-.769 1.172-1.741 1.547-2.921Zm28.079-9.438a7.27 7.27 0 0 1-.61 2.922 13.5 13.5 0 0 1-1.562 2.703c-.636.868-1.355 1.7-2.156 2.5a122.18 122.18 0 0 1-2.36 2.266c-.398.375-.827.797-1.296 1.266a34.866 34.866 0 0 0-2.485 2.765c-.335.406-.539.746-.609 1.016h11.922v5h-18.484a6.209 6.209 0 0 1-.079-1.11v-.968c0-1.282.204-2.453.61-3.516.414-1.07.957-2.066 1.625-2.984a19.415 19.415 0 0 1 2.25-2.578c.844-.801 1.68-1.602 2.515-2.407.633-.613 1.235-1.191 1.797-1.734a20.189 20.189 0 0 0 1.485-1.61 7.557 7.557 0 0 0 1-1.546c.238-.52.36-1.051.36-1.594 0-1.164-.337-1.988-1-2.469-.669-.476-1.497-.719-2.485-.719-.719 0-1.399.118-2.032.344a9.29 9.29 0 0 0-1.718.797c-.512.305-.953.61-1.328.922-.375.305-.657.547-.844.734l-2.953-4.156c1.164-1.094 2.531-1.992 4.093-2.703a12.025 12.025 0 0 1 5.016-1.063c1.625 0 3.024.188 4.203.563 1.176.375 2.145.902 2.906 1.578a6.077 6.077 0 0 1 1.672 2.484c.364.97.547 2.07.547 3.297Zm11.517 17.282c0 1.199-.383 2.109-1.14 2.734-.762.625-1.622.937-2.579.937-.96 0-1.82-.312-2.578-.937-.762-.625-1.14-1.535-1.14-2.734 0-1.196.378-2.11 1.14-2.735.758-.633 1.617-.953 2.578-.953.957 0 1.817.32 2.578.953.758.625 1.14 1.54 1.14 2.735Zm21.043-17.282a7.27 7.27 0 0 1-.61 2.922 13.5 13.5 0 0 1-1.562 2.703c-.637.868-1.355 1.7-2.156 2.5a122.18 122.18 0 0 1-2.36 2.266c-.398.375-.828.797-1.296 1.266a34.866 34.866 0 0 0-2.485 2.765c-.336.406-.539.746-.61 1.016h11.923v5h-18.485a6.209 6.209 0 0 1-.078-1.11v-.968c0-1.282.203-2.453.61-3.516.414-1.07.957-2.066 1.625-2.984a19.415 19.415 0 0 1 2.25-2.578c.843-.801 1.68-1.602 2.515-2.407.633-.613 1.235-1.191 1.797-1.734a20.189 20.189 0 0 0 1.484-1.61 7.557 7.557 0 0 0 1-1.546c.239-.52.36-1.051.36-1.594 0-1.164-.336-1.988-1-2.469-.668-.476-1.496-.719-2.485-.719a6 6 0 0 0-2.03.344 9.31 9.31 0 0 0-1.72.797c-.511.305-.953.61-1.328.922a11.83 11.83 0 0 0-.843.734l-2.954-4.156c1.165-1.094 2.532-1.992 4.094-2.703a12.025 12.025 0 0 1 5.016-1.063c1.625 0 3.023.188 4.203.563 1.176.375 2.145.902 2.906 1.578a6.077 6.077 0 0 1 1.672 2.484c.363.97.547 2.07.547 3.297ZM43.188 76.25c.156-1.945.484-3.973.984-6.078a59.072 59.072 0 0 1 1.86-6.187 53.583 53.583 0 0 1 2.468-5.75c.906-1.801 1.828-3.36 2.766-4.672H39.219v-5.078h19.406v4.328c-.855.93-1.797 2.218-2.828 3.875-1.024 1.656-1.996 3.53-2.922 5.625a53.19 53.19 0 0 0-2.406 6.75 34.54 34.54 0 0 0-1.25 7.187Zm22.717 0c.156-1.945.485-3.973.985-6.078a59.072 59.072 0 0 1 1.859-6.187 53.583 53.583 0 0 1 2.469-5.75c.906-1.801 1.828-3.36 2.765-4.672H61.936v-5.078h19.407v4.328c-.856.93-1.797 2.218-2.828 3.875-1.024 1.656-1.996 3.53-2.922 5.625a53.19 53.19 0 0 0-2.407 6.75 34.54 34.54 0 0 0-1.25 7.187Zm0 0"/>
</svg>
