<svg xmlns="http://www.w3.org/2000/svg" version="1.2" viewBox="0 0 375 375">
  <path d="m359.121 5.996.461.043.45.066.448.086.438.094.437.117.422.137.422.149.414.164.399.175.39.196.395.21.371.227.371.238.356.25.347.266.336.277.328.293.313.305.304.313.29.324.277.336.262.347.253.36.239.367.226.371.203.395.2.39.18.41.167.407.145.421.137.43.109.426.101.445.083.442.066.46.05.458.028.457.008.472v340.74l-.008.464-.027.465-.051.461-.066.45-.082.445-.102.441-.11.438-.136.422-.145.421-.168.414-.18.399-.199.394-.203.383-.226.38-.239.37-.253.356-.262.347-.277.336-.29.328-.304.313-.313.305-.328.289-.336.277-.347.262-.356.254-.371.242-.371.215-.395.21-.39.2-.399.18-.414.168-.422.144-.422.133-.437.113-.438.102-.449.082-.449.066-.46.05-.466.028-.465.008H17.453l-.465-.008-.465-.027-.457-.05-.46-.067-.442-.082-.445-.102-.43-.113-.426-.133-.422-.144-.406-.168-.41-.18-.39-.2-.387-.21-.38-.215-.366-.242-.36-.254-.347-.262-.336-.277-.325-.29-.312-.304-.305-.313-.293-.328-.277-.336-.262-.347-.254-.356-.238-.37-.227-.38-.21-.383-.188-.394-.184-.399-.168-.414-.144-.421-.137-.422-.117-.438-.094-.441-.086-.446-.058-.449-.051-.46-.031-.466-.008-.464V17.32l.008-.472.03-.457.052-.457.058-.461.086-.442.094-.445.117-.426.137-.43.144-.421.168-.407.184-.41.187-.39.211-.395.227-.371.238-.367.254-.36.262-.347.277-.336.293-.324.305-.313.312-.305.325-.293.336-.277.347-.266.36-.25.367-.238.379-.226.386-.211.391-.196.41-.175.406-.165.422-.148.426-.137.43-.117.445-.094.441-.086.461-.066.457-.043.465-.031.465-.008h340.738l.465.008Zm-333.25 8.86-.465.03-.457.044-.453.066-.45.086-.437.094-.437.117-.426.137-.414.144-.414.168-.402.176-.399.195-.387.211-.378.227-.364.238-.355.246-.348.27-.336.277-.324.29-.313.308-.308.312-.29.324-.276.336-.27.348-.246.355-.238.364-.227.379-.21.386-.188.399-.184.402-.168.414-.145.414-.136.43-.117.434-.094.437-.09.45-.055.452-.05.457-.032.465-.008.465v322.965l.008.469.032.465.05.457.055.449.09.445.094.442.117.437.136.422.145.422.168.414.184.398.187.395.211.383.227.379.238.37.246.356.27.348.277.336.289.328.308.312.313.305.324.29.336.276.348.262.355.254.364.242.378.215.387.211.399.2.402.179.414.168.414.144.426.133.437.117.438.102.45.078.452.067.457.05.465.028.465.007H349.3l.465-.007.468-.028.457-.05.45-.067.453-.078.433-.102.438-.117.422-.133.422-.144.414-.168.398-.18.395-.199.39-.21.371-.216.371-.242.356-.254.348-.262.336-.277.328-.289.312-.305.305-.312.289-.328.277-.336.262-.348.254-.355.242-.371.223-.38.203-.382.199-.395.18-.398.168-.414.144-.422.14-.422.106-.437.106-.442.078-.445.066-.45.051-.456.027-.465.008-.469V26.203l-.008-.465-.027-.465-.05-.457-.067-.453-.078-.449-.106-.437-.105-.434-.14-.43-.145-.414-.168-.414-.18-.402-.2-.399-.202-.386-.223-.38-.242-.363-.254-.355-.262-.348-.277-.336-.29-.324-.304-.312-.312-.309-.329-.289-.335-.277-.348-.27-.356-.246-.37-.238-.372-.227-.39-.21-.395-.196-.398-.176-.414-.168-.422-.144-.422-.137-.438-.117-.433-.094-.453-.086-.45-.066-.457-.043-.468-.032-.465-.007H26.336Zm0 0"/>
  <path d="M171.969 194.818c-1.032-3.352-2.18-6.8-3.438-10.344a801.346 801.346 0 0 1-3.703-10.656H127.03a931.15 931.15 0 0 1-3.703 10.656 232.96 232.96 0 0 0-3.422 10.344H97.234a1737.965 1737.965 0 0 1 10.344-28.969 1034.66 1034.66 0 0 1 9.594-25.047 886.481 886.481 0 0 1 9.234-22.328 485.946 485.946 0 0 1 9.453-20.64h20.844a761.587 761.587 0 0 1 9.375 20.64 725.993 725.993 0 0 1 9.312 22.328 1001.115 1001.115 0 0 1 9.579 25.047c3.27 8.867 6.722 18.524 10.359 28.969Zm-26.172-75.016c-.47 1.399-1.172 3.309-2.11 5.735-.93 2.43-2 5.23-3.218 8.406-1.211 3.168-2.54 6.668-3.985 10.5a601.498 601.498 0 0 0-4.406 12.031h27.562a1206.414 1206.414 0 0 0-4.343-12.031 402.996 402.996 0 0 0-3.985-10.5c-1.25-3.176-2.343-5.977-3.281-8.406a979.828 979.828 0 0 0-2.234-5.735Zm123.58 72.5c-3.554 1.024-8.133 1.977-13.734 2.86-5.594.882-11.469 1.328-17.625 1.328-6.25 0-11.453-.84-15.61-2.516-4.148-1.676-7.433-4.031-9.859-7.062-2.43-3.032-4.156-6.645-5.187-10.844-1.024-4.195-1.532-8.817-1.532-13.86v-41h20.86v38.485c0 6.719.883 11.574 2.656 14.562 1.77 2.98 5.082 4.47 9.937 4.47 1.489 0 3.07-.067 4.75-.204a79.43 79.43 0 0 0 4.485-.5v-56.812h20.86ZM159.639 242.74c-2.907 0-5.008.808-6.297 2.421-1.293 1.617-1.938 3.824-1.938 6.625 0 1.355.157 2.59.47 3.703.32 1.106.8 2.059 1.437 2.86a6.666 6.666 0 0 0 2.406 1.859c.957.437 2.078.656 3.36.656.695 0 1.288-.008 1.78-.031.5-.031.93-.086 1.297-.172v-9.64h6.25v13.718c-.75.293-1.953.606-3.609.938-1.648.332-3.684.5-6.11.5-2.085 0-3.976-.32-5.671-.954-1.688-.644-3.137-1.578-4.344-2.796-1.2-1.227-2.125-2.735-2.781-4.516-.649-1.79-.969-3.832-.969-6.125 0-2.32.36-4.375 1.078-6.156.719-1.79 1.703-3.305 2.953-4.547a12.54 12.54 0 0 1 4.422-2.813c1.695-.644 3.504-.968 5.422-.968 1.312 0 2.492.09 3.547.265 1.05.168 1.957.367 2.719.594.757.23 1.382.465 1.875.703.5.242.851.43 1.062.563l-1.797 5c-.855-.457-1.836-.852-2.937-1.188-1.106-.332-2.313-.5-3.625-.5Zm33.845 12.358c0 1.657-.242 3.172-.719 4.547-.48 1.375-1.18 2.547-2.093 3.516a9.505 9.505 0 0 1-3.266 2.266c-1.262.53-2.68.796-4.25.796-1.543 0-2.95-.265-4.219-.796a9.656 9.656 0 0 1-3.265-2.266c-.907-.969-1.618-2.14-2.125-3.516-.5-1.375-.75-2.89-.75-4.547 0-1.656.257-3.16.78-4.515.52-1.363 1.24-2.524 2.157-3.485a9.81 9.81 0 0 1 3.281-2.234c1.27-.531 2.649-.797 4.141-.797 1.52 0 2.91.266 4.172.797a9.48 9.48 0 0 1 3.265 2.234c.907.961 1.614 2.122 2.125 3.485.508 1.355.766 2.86.766 4.515Zm-6.078 0c0-1.832-.371-3.273-1.11-4.328-.73-1.062-1.777-1.593-3.14-1.593-1.355 0-2.406.53-3.156 1.593-.75 1.055-1.125 2.496-1.125 4.328 0 1.844.375 3.31 1.125 4.391.75 1.074 1.8 1.61 3.156 1.61 1.363 0 2.41-.536 3.14-1.61.739-1.082 1.11-2.547 1.11-4.39Zm19.077 10.969c-1.743-.031-3.153-.219-4.235-.562-1.074-.352-1.922-.844-2.547-1.469a4.836 4.836 0 0 1-1.28-2.266c-.231-.894-.345-1.906-.345-3.03v-23.157l5.97-.969v22.922c0 .543.034 1.027.109 1.453.082.418.238.777.468 1.078.227.293.551.531.969.719.426.187 1.004.309 1.734.36Zm9.311-11.094c0 1.844.41 3.329 1.235 4.454.832 1.117 2.062 1.671 3.687 1.671.532 0 1.02-.019 1.47-.062.456-.04.835-.086 1.14-.14v-10.829c-.375-.238-.868-.437-1.47-.594a6.786 6.786 0 0 0-1.812-.25c-2.836 0-4.25 1.918-4.25 5.75Zm13.485 10c-.531.168-1.149.325-1.844.47-.687.148-1.414.269-2.172.374a43.77 43.77 0 0 1-2.328.25c-.781.07-1.531.11-2.25.11-1.742 0-3.293-.25-4.656-.75-1.356-.508-2.5-1.239-3.438-2.188-.93-.945-1.64-2.094-2.14-3.437-.493-1.344-.735-2.86-.735-4.547 0-1.696.211-3.235.64-4.61.427-1.375 1.04-2.539 1.845-3.5a7.998 7.998 0 0 1 2.937-2.203c1.156-.508 2.485-.765 3.985-.765.82 0 1.562.086 2.218.25.657.156 1.317.382 1.985.671v-9.515l5.953-.969Zm-89.342 41.4c.77-.32 1.578-.692 2.422-1.11.843-.414 1.66-.867 2.453-1.359a30.39 30.39 0 0 0 2.297-1.547 15.52 15.52 0 0 0 1.984-1.75h4.172v27.719h-5.969v-19.953a18.49 18.49 0 0 1-2.687 1.453c-.98.437-1.938.82-2.875 1.14Zm31.485 7.077c.613 0 1.254-.054 1.922-.171.664-.125 1.156-.297 1.469-.516v-.359c0-.102.004-.207.015-.313a1.75 1.75 0 0 0 .032-.28 22.022 22.022 0 0 0-.25-2.704c-.125-.844-.352-1.578-.672-2.203a3.775 3.775 0 0 0-1.313-1.469c-.543-.363-1.21-.547-2-.547-.648 0-1.21.137-1.687.407-.48.261-.867.605-1.156 1.03-.293.43-.512.9-.657 1.407-.148.5-.218.992-.218 1.469 0 1.45.347 2.523 1.046 3.219.707.687 1.864 1.03 3.47 1.03Zm2.922 3.876a7.221 7.221 0 0 1-1.875.594c-.68.117-1.258.171-1.734.171-1.73 0-3.211-.207-4.438-.625-1.23-.414-2.242-1.003-3.031-1.765a6.998 6.998 0 0 1-1.734-2.735c-.368-1.062-.547-2.234-.547-3.515 0-1.07.175-2.164.53-3.281a9.002 9.002 0 0 1 1.704-3.063c.77-.914 1.75-1.676 2.938-2.281 1.187-.602 2.617-.906 4.296-.906 3.446 0 6.04 1.062 7.782 3.187 1.75 2.117 2.625 5.164 2.625 9.14 0 2.618-.344 4.923-1.032 6.923-.68 2-1.73 3.683-3.156 5.046-1.418 1.356-3.234 2.387-5.453 3.094-2.21.711-4.836 1.07-7.875 1.094a90.625 90.625 0 0 0-.125-2.469c-.055-.8-.105-1.629-.156-2.484 1.52-.031 2.89-.145 4.11-.344 1.226-.195 2.304-.531 3.234-1a7.477 7.477 0 0 0 2.39-1.86c.656-.769 1.172-1.741 1.547-2.921Zm19.189-2.047c-.586 0-1.211.059-1.875.172-.668.105-1.188.25-1.563.437 0 .106-.008.266-.016.485-.011.21-.015.39-.015.547 0 .968.062 1.882.187 2.734.133.844.364 1.59.688 2.234.32.637.75 1.137 1.281 1.5.531.356 1.195.532 2 .532.664 0 1.234-.133 1.703-.407a3.772 3.772 0 0 0 1.156-1.062 4.62 4.62 0 0 0 .672-1.422c.157-.52.235-1.02.235-1.5 0-1.363-.344-2.41-1.032-3.14-.68-.739-1.82-1.11-3.421-1.11Zm.765-4.64c1.727 0 3.196.234 4.406.702 1.22.47 2.211 1.106 2.985 1.907a7.1 7.1 0 0 1 1.687 2.797c.344 1.062.516 2.199.516 3.406 0 1.062-.195 2.156-.578 3.281a9.123 9.123 0 0 1-1.766 3.031c-.781.907-1.781 1.657-3 2.25-1.21.582-2.636.875-4.281.875-3.336 0-5.871-1.05-7.61-3.156-1.73-2.113-2.593-5.02-2.593-8.719 0-2.664.41-5.023 1.234-7.078.82-2.062 2-3.789 3.531-5.187 1.54-1.407 3.395-2.473 5.563-3.203 2.176-.727 4.625-1.11 7.344-1.141.05.824.101 1.633.156 2.422.062.793.117 1.61.172 2.453a23.24 23.24 0 0 0-3.828.39 13.06 13.06 0 0 0-3.25 1.063 8.92 8.92 0 0 0-2.532 1.86c-.718.761-1.277 1.687-1.671 2.78a7.104 7.104 0 0 1 1.796-.562 9.516 9.516 0 0 1 1.72-.172Zm19.642 14.531c0 1.199-.383 2.109-1.14 2.734-.762.625-1.622.937-2.579.937-.96 0-1.82-.312-2.578-.937-.762-.625-1.14-1.535-1.14-2.734 0-1.196.378-2.11 1.14-2.735.758-.633 1.617-.953 2.578-.953.957 0 1.817.32 2.578.953.758.625 1.14 1.54 1.14 2.735Zm12.762-11.72c.613 0 1.254-.054 1.922-.171.664-.125 1.156-.297 1.468-.516v-.359c0-.102.004-.207.016-.313a1.75 1.75 0 0 0 .031-.28 22.022 22.022 0 0 0-.25-2.704c-.125-.844-.351-1.578-.672-2.203a3.775 3.775 0 0 0-1.312-1.469c-.543-.363-1.211-.547-2-.547-.649 0-1.211.137-1.688.407-.48.261-.867.605-1.156 1.03-.293.43-.512.9-.656 1.407-.149.5-.219.992-.219 1.469 0 1.45.348 2.523 1.047 3.219.707.687 1.863 1.03 3.469 1.03Zm2.922 3.876a7.221 7.221 0 0 1-1.875.594c-.68.117-1.258.171-1.735.171-1.73 0-3.21-.207-4.437-.625-1.23-.414-2.242-1.003-3.032-1.765a6.998 6.998 0 0 1-1.734-2.735c-.367-1.062-.547-2.234-.547-3.515 0-1.07.176-2.164.531-3.281a9.002 9.002 0 0 1 1.704-3.063c.77-.914 1.75-1.676 2.937-2.281 1.188-.602 2.617-.906 4.297-.906 3.445 0 6.039 1.062 7.781 3.187 1.75 2.117 2.625 5.164 2.625 9.14 0 2.618-.344 4.923-1.031 6.923-.68 2-1.73 3.683-3.156 5.046-1.418 1.356-3.235 2.387-5.453 3.094-2.211.711-4.836 1.07-7.875 1.094a90.625 90.625 0 0 0-.125-2.469c-.055-.8-.106-1.629-.157-2.484 1.52-.031 2.891-.145 4.11-.344 1.226-.195 2.304-.531 3.234-1a7.477 7.477 0 0 0 2.39-1.86c.657-.769 1.173-1.741 1.548-2.921ZM43.188 76.25c.156-1.945.484-3.973.984-6.078a59.072 59.072 0 0 1 1.86-6.187 53.583 53.583 0 0 1 2.468-5.75c.906-1.801 1.828-3.36 2.766-4.672H39.219v-5.078h19.406v4.328c-.855.93-1.797 2.218-2.828 3.875-1.024 1.656-1.996 3.53-2.922 5.625a53.19 53.19 0 0 0-2.406 6.75 34.54 34.54 0 0 0-1.25 7.187ZM71.78 61.375c.614 0 1.254-.055 1.922-.172.664-.125 1.156-.297 1.469-.515v-.36c0-.101.004-.207.015-.312a1.75 1.75 0 0 0 .032-.281 22.022 22.022 0 0 0-.25-2.704c-.125-.843-.352-1.578-.672-2.203a3.775 3.775 0 0 0-1.313-1.468c-.543-.364-1.21-.547-2-.547-.648 0-1.21.136-1.687.406-.48.262-.867.605-1.156 1.031-.293.43-.512.899-.657 1.406-.148.5-.218.993-.218 1.47 0 1.448.347 2.523 1.046 3.218.708.687 1.864 1.031 3.47 1.031Zm2.922 3.875a7.221 7.221 0 0 1-1.875.594 10.44 10.44 0 0 1-1.734.172c-1.73 0-3.211-.207-4.438-.625-1.23-.414-2.242-1.004-3.031-1.766a6.998 6.998 0 0 1-1.734-2.734c-.368-1.063-.547-2.235-.547-3.516 0-1.07.176-2.164.531-3.281a9.002 9.002 0 0 1 1.703-3.063c.77-.914 1.75-1.675 2.938-2.28 1.187-.602 2.617-.907 4.296-.907 3.446 0 6.04 1.062 7.782 3.187 1.75 2.118 2.625 5.164 2.625 9.141 0 2.617-.344 4.922-1.032 6.922-.68 2-1.73 3.683-3.156 5.047-1.418 1.355-3.234 2.386-5.453 3.094-2.21.71-4.836 1.07-7.875 1.093a90.625 90.625 0 0 0-.125-2.468c-.055-.801-.105-1.63-.156-2.485 1.52-.031 2.89-.144 4.11-.344 1.226-.195 2.304-.53 3.234-1a7.477 7.477 0 0 0 2.39-1.859c.656-.77 1.172-1.742 1.547-2.922Zm0 0"/>
</svg>
