<svg xmlns="http://www.w3.org/2000/svg" version="1.2" viewBox="0 0 375 375">
  <path d="m359.121 5.996.461.043.45.066.448.086.438.094.437.117.422.137.422.145.414.168.399.175.39.196.395.21.371.227.371.238.356.247.347.27.336.276.328.29.313.308.304.313.29.324.277.336.262.347.253.36.239.367.226.371.203.395.2.39.18.41.167.407.145.421.137.426.109.43.101.445.083.442.066.46.05.458.028.457.008.472v340.74l-.008.464-.027.465-.051.461-.066.45-.082.445-.102.441-.11.438-.136.422-.145.421-.168.414-.18.399-.199.39-.203.387-.226.38-.239.37-.253.356-.262.347-.277.336-.29.328-.304.313-.313.305-.328.289-.336.277-.347.262-.356.254-.371.238-.371.219-.395.21-.39.2-.399.18-.414.168-.422.144-.422.133-.437.113-.438.102-.449.082-.449.066-.46.05-.466.028-.465.008H17.453l-.465-.008-.465-.027-.457-.05-.46-.067-.442-.082-.445-.102-.43-.113-.426-.133-.422-.144-.406-.168-.41-.18-.39-.2-.387-.21-.38-.22-.366-.237-.36-.254-.347-.262-.336-.277-.325-.29-.312-.304-.305-.313-.293-.328-.277-.336-.262-.347-.254-.356-.238-.37-.227-.38-.21-.386-.188-.391-.184-.399-.168-.414-.144-.421-.137-.422-.117-.438-.094-.441-.086-.446-.058-.449-.051-.46-.031-.466-.008-.464V17.32l.008-.472.03-.457.052-.457.058-.461.086-.442.094-.445.117-.43.137-.426.144-.421.168-.407.184-.41.187-.39.211-.395.227-.371.238-.367.254-.36.262-.347.277-.336.293-.324.305-.313.312-.305.325-.293.336-.277.347-.27.36-.246.367-.238.379-.226.386-.211.391-.196.41-.175.406-.168.422-.145.426-.137.43-.117.445-.094.441-.086.461-.066.457-.043.465-.031.465-.008h340.738l.465.008Zm-333.25 8.86-.465.03-.457.044-.453.062-.45.09-.437.094-.437.117-.426.137-.414.144-.414.168-.402.176-.399.195-.387.211-.378.227-.364.238-.355.246-.348.27-.336.277-.324.29-.313.308-.308.312-.29.324-.276.336-.27.348-.246.355-.238.364-.227.379-.21.386-.188.399-.184.402-.168.414-.145.414-.136.426-.117.438-.094.437-.09.45-.055.452-.05.457-.032.465-.008.465v322.965l.008.465.032.469.05.457.055.449.09.445.094.442.117.437.136.422.145.422.168.414.184.398.187.395.211.383.227.379.238.37.246.356.27.348.277.336.289.328.308.312.313.305.324.29.336.276.348.262.355.254.364.242.378.215.387.211.399.2.402.179.414.168.414.144.426.133.437.113.438.106.45.078.452.067.457.05.465.028.465.007H349.3l.465-.007.468-.028.457-.05.45-.067.453-.078.433-.106.438-.113.422-.133.422-.144.414-.168.398-.18.395-.199.39-.21.371-.216.371-.242.356-.254.348-.262.336-.277.328-.289.312-.305.305-.312.289-.328.277-.336.262-.348.254-.355.242-.371.223-.38.203-.382.199-.395.18-.398.168-.414.144-.422.14-.422.106-.437.106-.442.078-.445.066-.45.051-.456.027-.47.008-.464V26.203l-.008-.465-.027-.465-.05-.457-.067-.453-.078-.449-.211-.875-.14-.426-.145-.414-.168-.414-.18-.402-.2-.399-.202-.386-.223-.38-.242-.363-.254-.355-.262-.348-.277-.336-.29-.324-.304-.312-.312-.309-.329-.289-.335-.277-.348-.27-.356-.246-.37-.238-.372-.227-.39-.21-.395-.196-.398-.176-.414-.168-.422-.144-.422-.137-.438-.117-.433-.094-.453-.09-.45-.062-.457-.043-.468-.032-.465-.007H26.336Zm0 0"/>
  <path d="M140.269 96.708c14.457 0 25.555 2.543 33.297 7.625 7.75 5.086 11.625 13.414 11.625 24.985 0 11.668-3.922 20.09-11.766 25.265-7.836 5.18-19.027 7.766-33.578 7.766h-6.86v32.469H111.16V99.224c4.75-.926 9.78-1.578 15.093-1.953 5.32-.375 9.993-.563 14.016-.563Zm1.39 18.61a77.71 77.71 0 0 0-4.687.14 174.64 174.64 0 0 0-3.984.282v28h6.86c7.55 0 13.237-1.024 17.062-3.079 3.832-2.05 5.75-5.879 5.75-11.484 0-2.707-.493-4.945-1.47-6.719-.98-1.77-2.382-3.191-4.202-4.265-1.825-1.07-4.043-1.817-6.657-2.235-2.605-.426-5.496-.64-8.671-.64Zm127.086 42.547c0 5.792-.844 11.09-2.532 15.89-1.68 4.805-4.105 8.906-7.28 12.313-3.169 3.406-6.97 6.043-11.407 7.906-4.43 1.863-9.39 2.797-14.89 2.797-5.419 0-10.34-.934-14.766-2.797-4.43-1.863-8.23-4.5-11.407-7.906-3.18-3.407-5.652-7.508-7.421-12.313-1.774-4.8-2.657-10.098-2.657-15.89 0-5.782.907-11.051 2.719-15.813 1.82-4.758 4.344-8.816 7.563-12.172 3.218-3.363 7.039-5.976 11.468-7.844 4.438-1.863 9.27-2.796 14.5-2.796 5.313 0 10.18.933 14.61 2.796 4.437 1.868 8.238 4.48 11.406 7.844 3.176 3.356 5.648 7.414 7.422 12.172 1.781 4.762 2.672 10.031 2.672 15.813Zm-21.282 0c0-6.438-1.28-11.493-3.843-15.172-2.563-3.688-6.227-5.532-10.985-5.532-4.761 0-8.449 1.844-11.062 5.532-2.606 3.68-3.906 8.734-3.906 15.172 0 6.437 1.3 11.546 3.906 15.328 2.613 3.78 6.3 5.672 11.062 5.672 4.758 0 8.422-1.891 10.985-5.672 2.562-3.782 3.843-8.891 3.843-15.328Zm-138.507 79.749c4.133 0 7.305.73 9.516 2.187 2.219 1.45 3.328 3.829 3.328 7.141 0 3.336-1.121 5.742-3.36 7.219-2.242 1.48-5.437 2.219-9.593 2.219h-1.969v9.28h-6.234v-27.312a33.928 33.928 0 0 1 4.312-.562 54.691 54.691 0 0 1 4-.172Zm.407 5.328c-.461 0-.907.016-1.344.047-.438.023-.82.047-1.14.078v8h1.968c2.156 0 3.781-.289 4.875-.875 1.094-.594 1.64-1.691 1.64-3.297 0-.77-.14-1.406-.421-1.906a3.189 3.189 0 0 0-1.203-1.219c-.524-.312-1.157-.523-1.907-.64a14.9 14.9 0 0 0-2.468-.188Zm36.322 12.156c0 1.657-.242 3.172-.719 4.547-.48 1.375-1.18 2.547-2.094 3.516a9.505 9.505 0 0 1-3.265 2.265c-1.262.532-2.68.797-4.25.797-1.543 0-2.95-.265-4.219-.797a9.656 9.656 0 0 1-3.266-2.265c-.906-.969-1.617-2.14-2.125-3.516-.5-1.375-.75-2.89-.75-4.547 0-1.656.258-3.16.782-4.515.52-1.364 1.238-2.524 2.156-3.485a9.81 9.81 0 0 1 3.281-2.234c1.27-.531 2.649-.797 4.14-.797 1.52 0 2.91.266 4.173.797a9.48 9.48 0 0 1 3.265 2.234c.906.961 1.613 2.121 2.125 3.485.508 1.355.766 2.859.766 4.515Zm-6.078 0c0-1.832-.371-3.273-1.11-4.328-.73-1.062-1.777-1.594-3.14-1.594-1.356 0-2.407.532-3.157 1.594-.75 1.055-1.125 2.496-1.125 4.328 0 1.844.375 3.309 1.125 4.39.75 1.075 1.801 1.61 3.157 1.61 1.363 0 2.41-.535 3.14-1.61.739-1.081 1.11-2.546 1.11-4.39Zm19.076 10.969c-1.742-.031-3.152-.219-4.234-.562-1.074-.352-1.922-.844-2.547-1.47a4.836 4.836 0 0 1-1.281-2.265c-.23-.894-.344-1.906-.344-3.031v-23.156l5.969-.97v22.923c0 .543.035 1.027.11 1.453.081.418.238.777.468 1.078.227.293.55.531.969.719.426.187 1.004.308 1.734.36Zm23.922-10.969c0 1.657-.243 3.172-.72 4.547-.48 1.375-1.179 2.547-2.093 3.516a9.505 9.505 0 0 1-3.266 2.265c-1.261.532-2.68.797-4.25.797-1.543 0-2.949-.265-4.218-.797a9.656 9.656 0 0 1-3.266-2.265c-.906-.969-1.617-2.14-2.125-3.516-.5-1.375-.75-2.89-.75-4.547 0-1.656.258-3.16.781-4.515.52-1.364 1.239-2.524 2.157-3.485a9.81 9.81 0 0 1 3.28-2.234c1.27-.531 2.65-.797 4.141-.797 1.52 0 2.91.266 4.172.797a9.48 9.48 0 0 1 3.266 2.234c.906.961 1.613 2.121 2.125 3.485.508 1.355.766 2.859.766 4.515Zm-6.079 0c0-1.832-.37-3.273-1.109-4.328-.73-1.062-1.777-1.594-3.14-1.594-1.356 0-2.407.532-3.157 1.594-.75 1.055-1.125 2.496-1.125 4.328 0 1.844.375 3.309 1.125 4.39.75 1.075 1.8 1.61 3.156 1.61 1.364 0 2.41-.535 3.141-1.61.738-1.081 1.11-2.546 1.11-4.39Zm10.671-9.75c1.008-.3 2.316-.578 3.922-.828a32.722 32.722 0 0 1 5.047-.375c1.78 0 3.265.235 4.453.703 1.187.461 2.125 1.117 2.812 1.969.696.855 1.192 1.871 1.485 3.047.289 1.168.437 2.476.437 3.922v11.875H199.4v-11.156c0-1.926-.258-3.286-.766-4.079-.5-.8-1.445-1.203-2.828-1.203-.43 0-.886.024-1.375.063-.48.043-.902.09-1.265.14v16.235h-5.97Zm29.528 20.312h-5.968v-21.046h5.968Zm.547-27.124c0 1.094-.355 1.96-1.062 2.594-.7.625-1.528.937-2.485.937-.968 0-1.808-.312-2.515-.937-.7-.633-1.047-1.5-1.047-2.594 0-1.094.348-1.953 1.047-2.578.707-.625 1.547-.938 2.515-.938.957 0 1.786.313 2.485.938.707.625 1.062 1.484 1.062 2.578Zm23.013 26.406c-1.023.293-2.336.563-3.937.813a31.61 31.61 0 0 1-5.031.39c-1.782 0-3.266-.242-4.454-.719-1.187-.476-2.132-1.148-2.828-2.015-.687-.875-1.183-1.91-1.484-3.11-.293-1.195-.438-2.515-.438-3.953v-11.734h5.97v11c0 1.93.25 3.32.75 4.172.507.855 1.456 1.281 2.843 1.281.426 0 .879-.02 1.36-.062.476-.04.906-.086 1.28-.141v-16.25h5.97Zm17.154-10.437c0-1.926-.25-3.286-.75-4.079-.492-.8-1.336-1.203-2.531-1.203-.375 0-.766.024-1.172.063-.399.043-.778.09-1.14.14v16.235h-5.97v-20.313a37.888 37.888 0 0 1 3.938-.813 27.677 27.677 0 0 1 2.344-.28c.8-.07 1.586-.11 2.359-.11 1.52 0 2.754.195 3.703.578.945.387 1.727.844 2.344 1.375.851-.613 1.832-1.093 2.937-1.437 1.102-.344 2.125-.516 3.063-.516 1.676 0 3.05.235 4.125.703 1.082.461 1.941 1.117 2.578 1.969.645.855 1.086 1.871 1.328 3.047.238 1.168.36 2.476.36 3.922v11.875H269v-11.156c0-1.926-.25-3.286-.75-4.079-.492-.8-1.336-1.203-2.53-1.203-.325 0-.774.086-1.345.25-.574.157-1.046.356-1.421.594.187.605.304 1.25.359 1.938.05.68.078 1.402.078 2.171v11.485h-5.953Zm-100.455 53.383a7.27 7.27 0 0 1-.61 2.922c-.398.93-.918 1.828-1.562 2.703-.637.867-1.356 1.7-2.157 2.5a122.18 122.18 0 0 1-2.359 2.266c-.398.375-.828.797-1.297 1.265a34.866 34.866 0 0 0-2.484 2.766c-.336.406-.54.746-.61 1.016h11.922v5h-18.484a6.209 6.209 0 0 1-.078-1.11v-.969c0-1.28.203-2.453.61-3.515.413-1.07.956-2.067 1.624-2.985a19.415 19.415 0 0 1 2.25-2.578c.844-.8 1.68-1.601 2.516-2.406.633-.613 1.234-1.191 1.797-1.734a20.189 20.189 0 0 0 1.484-1.61 7.557 7.557 0 0 0 1-1.547c.238-.52.36-1.05.36-1.593 0-1.164-.336-1.989-1-2.469-.669-.477-1.497-.719-2.485-.719-.719 0-1.398.117-2.031.344-.625.219-1.2.484-1.719.797-.512.305-.953.61-1.328.922a11.86 11.86 0 0 0-.844.734l-2.953-4.156c1.164-1.094 2.531-1.992 4.094-2.703a12.025 12.025 0 0 1 5.015-1.063c1.625 0 3.024.188 4.204.563 1.175.375 2.144.902 2.906 1.578a6.077 6.077 0 0 1 1.672 2.484c.363.969.547 2.07.547 3.297Zm24.235 6.516c0 4.668-.887 8.25-2.656 10.75-1.774 2.492-4.219 3.734-7.344 3.734-3.117 0-5.562-1.242-7.344-3.734-1.773-2.5-2.656-6.082-2.656-10.75 0-2.32.234-4.375.703-6.157.469-1.789 1.14-3.296 2.016-4.515.883-1.227 1.937-2.16 3.156-2.797 1.227-.645 2.602-.969 4.125-.969 3.125 0 5.57 1.25 7.344 3.75 1.77 2.492 2.656 6.055 2.656 10.688Zm-6.078 0c0-1.383-.07-2.645-.203-3.782-.137-1.132-.352-2.113-.64-2.937-.294-.82-.696-1.457-1.204-1.906-.5-.457-1.125-.688-1.875-.688s-1.371.23-1.86.688c-.492.449-.89 1.086-1.202 1.906-.305.824-.524 1.805-.657 2.937a31.88 31.88 0 0 0-.203 3.782c0 1.386.067 2.652.203 3.797.133 1.148.352 2.136.657 2.968.312.825.71 1.465 1.203 1.922.488.45 1.109.672 1.859.672s1.375-.223 1.875-.672c.508-.457.91-1.097 1.203-1.922.29-.832.504-1.82.64-2.968a32.79 32.79 0 0 0 .204-3.797Zm28.642 6.203c0 1.2-.211 2.297-.625 3.297a7.383 7.383 0 0 1-1.86 2.625c-.824.742-1.855 1.32-3.094 1.734-1.242.414-2.68.625-4.312.625-1.867 0-3.418-.262-4.656-.781-1.242-.52-2.242-1.164-3-1.938-.762-.77-1.305-1.613-1.625-2.53-.313-.927-.469-1.774-.469-2.548 0-.8.102-1.535.312-2.203a7.28 7.28 0 0 1 .875-1.812 9.357 9.357 0 0 1 1.266-1.5c.469-.457.969-.891 1.5-1.297-1.148-.926-1.996-1.844-2.547-2.75-.543-.907-.812-2.067-.812-3.485 0-1.062.218-2.086.656-3.078a7.863 7.863 0 0 1 1.86-2.578c.8-.738 1.769-1.328 2.906-1.766 1.132-.437 2.394-.656 3.78-.656 1.626 0 3.016.235 4.173.703 1.164.47 2.117 1.063 2.86 1.782.75.718 1.288 1.527 1.624 2.421.332.887.5 1.774.5 2.657 0 1.281-.34 2.476-1.016 3.578-.68 1.105-1.527 1.98-2.546 2.625 1.52.98 2.609 2.012 3.265 3.094.656 1.086.985 2.343.985 3.78Zm-13.844.234c0 .324.07.68.219 1.063.144.386.379.742.703 1.062.32.324.734.594 1.234.813.508.21 1.125.312 1.844.312 1.383 0 2.394-.332 3.031-1 .645-.664.969-1.414.969-2.25 0-.613-.14-1.16-.422-1.64a4.266 4.266 0 0 0-1.14-1.25 8.103 8.103 0 0 0-1.704-.97 23.084 23.084 0 0 0-2.094-.78 8.21 8.21 0 0 0-1.89 1.968c-.5.743-.75 1.633-.75 2.672Zm7.406-13.156a2.7 2.7 0 0 0-.187-.938 2.6 2.6 0 0 0-.594-.937 3.586 3.586 0 0 0-1.063-.734c-.43-.207-.949-.313-1.562-.313-.586 0-1.09.094-1.516.281-.43.188-.781.438-1.062.75a3.06 3.06 0 0 0-.625.97 2.693 2.693 0 0 0-.203 1c0 .855.312 1.655.937 2.405.633.743 1.711 1.383 3.234 1.922.852-.539 1.504-1.156 1.954-1.844.457-.695.687-1.55.687-2.562Zm16.595 17.485c0 1.199-.383 2.109-1.14 2.734-.762.625-1.622.937-2.579.937-.96 0-1.82-.312-2.578-.937-.762-.625-1.14-1.535-1.14-2.735 0-1.195.378-2.109 1.14-2.734.758-.633 1.617-.953 2.578-.953.957 0 1.817.32 2.578.953.758.625 1.14 1.539 1.14 2.734Zm12.762-11.72c.613 0 1.254-.054 1.922-.171.664-.125 1.156-.297 1.468-.516v-.36c0-.1.004-.206.016-.312a1.75 1.75 0 0 0 .031-.281 22.022 22.022 0 0 0-.25-2.703c-.125-.844-.351-1.578-.672-2.203a3.775 3.775 0 0 0-1.312-1.469c-.543-.363-1.211-.547-2-.547-.649 0-1.211.137-1.688.406-.48.262-.867.606-1.156 1.032-.293.43-.512.898-.656 1.406-.149.5-.219.992-.219 1.469 0 1.449.348 2.523 1.047 3.218.707.688 1.863 1.032 3.469 1.032Zm2.922 3.876a7.221 7.221 0 0 1-1.875.593c-.68.118-1.258.172-1.735.172-1.73 0-3.21-.207-4.437-.625-1.23-.414-2.242-1.004-3.032-1.765a6.998 6.998 0 0 1-1.734-2.735c-.367-1.062-.547-2.234-.547-3.515 0-1.07.176-2.164.531-3.282a9.002 9.002 0 0 1 1.704-3.062c.77-.914 1.75-1.676 2.937-2.281 1.188-.602 2.617-.907 4.297-.907 3.445 0 6.039 1.063 7.781 3.188 1.75 2.117 2.625 5.164 2.625 9.14 0 2.618-.344 4.922-1.031 6.922-.68 2-1.73 3.684-3.156 5.047-1.418 1.356-3.235 2.387-5.453 3.094-2.211.71-4.836 1.07-7.875 1.094a90.625 90.625 0 0 0-.125-2.469c-.055-.8-.106-1.629-.157-2.484 1.52-.032 2.891-.145 4.11-.344 1.226-.195 2.304-.531 3.234-1a7.477 7.477 0 0 0 2.39-1.86c.657-.77 1.173-1.742 1.548-2.921ZM58.703 68.53c0 1.2-.21 2.298-.625 3.298a7.383 7.383 0 0 1-1.86 2.625c-.823.742-1.855 1.32-3.093 1.734-1.242.414-2.68.625-4.312.625-1.868 0-3.418-.262-4.657-.781-1.242-.52-2.242-1.164-3-1.938-.761-.77-1.304-1.613-1.625-2.53-.312-.927-.468-1.774-.468-2.548 0-.8.101-1.535.312-2.203A7.28 7.28 0 0 1 40.25 65a9.357 9.357 0 0 1 1.266-1.5c.468-.457.968-.89 1.5-1.297-1.149-.926-1.996-1.844-2.547-2.75-.543-.906-.813-2.067-.813-3.485 0-1.062.219-2.086.657-3.078a7.863 7.863 0 0 1 1.859-2.578c.8-.738 1.77-1.328 2.906-1.765 1.133-.438 2.395-.657 3.781-.657 1.625 0 3.016.235 4.172.703 1.164.47 2.117 1.063 2.86 1.782.75.718 1.289 1.527 1.625 2.422.332.886.5 1.773.5 2.656 0 1.281-.34 2.476-1.016 3.578-.68 1.105-1.527 1.98-2.547 2.625 1.52.98 2.61 2.012 3.266 3.094.656 1.086.984 2.343.984 3.78Zm-13.844.235c0 .325.07.68.22 1.063.144.387.378.742.702 1.062.32.325.735.594 1.235.813.507.21 1.125.312 1.843.312 1.383 0 2.395-.332 3.032-1 .644-.664.968-1.414.968-2.25 0-.613-.14-1.16-.421-1.64a4.266 4.266 0 0 0-1.141-1.25 8.103 8.103 0 0 0-1.703-.97 23.084 23.084 0 0 0-2.094-.78 8.21 8.21 0 0 0-1.89 1.968c-.5.743-.75 1.633-.75 2.672Zm7.407-13.156a2.7 2.7 0 0 0-.188-.937 2.6 2.6 0 0 0-.594-.938A3.586 3.586 0 0 0 50.422 53c-.43-.207-.95-.313-1.563-.313-.586 0-1.09.094-1.515.281-.43.188-.781.438-1.063.75a3.06 3.06 0 0 0-.625.97 2.713 2.713 0 0 0-.203 1c0 .855.313 1.655.938 2.405.632.743 1.71 1.383 3.234 1.922.852-.539 1.504-1.156 1.953-1.843.457-.696.688-1.551.688-2.563Zm20.717.203a247.352 247.352 0 0 0-3.328 4.438 31.341 31.341 0 0 0-2.953 4.922h6.281Zm5.828-7.281v16.64h2.97v4.876h-2.97v6.203h-5.828v-6.203H61.015v-4.36a74.056 74.056 0 0 1 2.203-3.969 69.398 69.398 0 0 1 2.937-4.562 80.118 80.118 0 0 1 3.422-4.578 48.177 48.177 0 0 1 3.594-4.047Zm0 0"/>
</svg>
