<svg xmlns="http://www.w3.org/2000/svg" version="1.2" viewBox="0 0 375 375">
  <path d="m359.121 5.996.461.043.45.066.448.086.438.094.437.117.422.137.422.145.414.168.399.175.39.196.395.21.371.227.371.238.356.247.347.27.336.276.328.29.313.308.304.313.29.324.277.336.262.347.253.36.239.367.226.371.203.395.2.39.18.41.167.407.145.421.137.426.109.43.101.445.083.442.066.46.05.458.028.457.008.472v340.74l-.008.464-.027.465-.051.461-.066.45-.082.445-.102.441-.11.438-.136.422-.145.421-.168.414-.18.399-.199.39-.203.387-.226.38-.239.37-.253.356-.262.347-.277.336-.29.328-.304.313-.313.305-.328.289-.336.277-.347.262-.356.254-.371.238-.371.219-.395.21-.39.2-.399.18-.414.168-.422.144-.422.133-.437.113-.438.102-.449.082-.449.066-.46.05-.466.028-.465.008H17.453l-.465-.008-.465-.027-.457-.05-.46-.067-.442-.082-.445-.102-.43-.113-.426-.133-.422-.144-.406-.168-.41-.18-.39-.2-.387-.21-.38-.22-.366-.237-.36-.254-.347-.262-.336-.277-.325-.29-.312-.304-.305-.313-.293-.328-.277-.336-.262-.347-.254-.356-.238-.37-.227-.38-.21-.386-.188-.391-.184-.399-.168-.414-.144-.421-.137-.422-.117-.438-.094-.441-.086-.446-.058-.449-.051-.46-.031-.466-.008-.464V17.32l.008-.472.03-.457.052-.457.058-.461.086-.442.094-.445.117-.43.137-.426.144-.421.168-.407.184-.41.187-.39.211-.395.227-.371.238-.367.254-.36.262-.347.277-.336.293-.324.305-.313.312-.305.325-.293.336-.277.347-.27.36-.246.367-.238.379-.226.386-.211.391-.196.41-.175.406-.168.422-.145.426-.137.43-.117.445-.094.441-.086.461-.066.457-.043.465-.031.465-.008h340.738l.465.008Zm-333.25 8.86-.465.03-.457.044-.453.062-.45.09-.437.094-.437.117-.426.137-.414.144-.414.168-.402.176-.399.195-.387.211-.378.227-.364.238-.355.246-.348.27-.336.277-.324.29-.313.308-.308.312-.29.324-.276.336-.27.348-.246.355-.238.364-.227.379-.21.386-.188.399-.184.402-.168.414-.145.414-.136.426-.117.438-.094.437-.09.45-.055.452-.05.457-.032.465-.008.465v322.965l.008.465.032.469.05.457.055.449.09.445.094.442.117.437.136.422.145.422.168.414.184.398.187.395.211.383.227.379.238.37.246.356.27.348.277.336.289.328.308.312.313.305.324.29.336.276.348.262.355.254.364.242.378.215.387.211.399.2.402.179.414.168.414.144.426.133.437.113.438.106.45.078.452.067.457.05.465.028.465.007H349.3l.465-.007.468-.028.457-.05.45-.067.453-.078.433-.106.438-.113.422-.133.422-.144.414-.168.398-.18.395-.199.39-.21.371-.216.371-.242.356-.254.348-.262.336-.277.328-.289.312-.305.305-.312.289-.328.277-.336.262-.348.254-.355.242-.371.223-.38.203-.382.199-.395.18-.398.168-.414.144-.422.14-.422.106-.437.106-.442.078-.445.066-.45.051-.456.027-.47.008-.464V26.203l-.008-.465-.027-.465-.05-.457-.067-.453-.078-.449-.211-.875-.14-.426-.145-.414-.168-.414-.18-.402-.2-.399-.202-.386-.223-.38-.242-.363-.254-.355-.262-.348-.277-.336-.29-.324-.304-.312-.312-.309-.329-.289-.335-.277-.348-.27-.356-.246-.37-.238-.372-.227-.39-.21-.395-.196-.398-.176-.414-.168-.422-.144-.422-.137-.438-.117-.433-.094-.453-.09-.45-.062-.457-.043-.468-.032-.465-.007H26.336Zm0 0"/>
  <path d="M182.116 194.818a255.192 255.192 0 0 0-3.438-10.344 801.346 801.346 0 0 1-3.703-10.656h-37.797a931.15 931.15 0 0 1-3.703 10.656 232.96 232.96 0 0 0-3.422 10.344h-22.672a1737.965 1737.965 0 0 1 10.344-28.97c3.27-8.862 6.469-17.21 9.594-25.046a886.481 886.481 0 0 1 9.234-22.328 485.946 485.946 0 0 1 9.453-20.64h20.844a761.587 761.587 0 0 1 9.375 20.64 725.993 725.993 0 0 1 9.313 22.328 1001.115 1001.115 0 0 1 9.578 25.047c3.27 8.867 6.722 18.523 10.36 28.969Zm-26.172-75.016c-.469 1.398-1.172 3.309-2.11 5.734-.93 2.43-2 5.23-3.218 8.407-1.211 3.168-2.54 6.668-3.985 10.5a601.498 601.498 0 0 0-4.406 12.03h27.563a1206.414 1206.414 0 0 0-4.344-12.03 402.996 402.996 0 0 0-3.984-10.5 1396.92 1396.92 0 0 1-3.282-8.407 979.828 979.828 0 0 0-2.234-5.734Zm60.034-16.937 20.859-3.36v21.703h25.047v17.344h-25.047v25.89c0 4.387.766 7.887 2.297 10.5 1.539 2.618 4.644 3.923 9.312 3.923 2.239 0 4.547-.208 6.922-.625 2.383-.426 4.555-1.008 6.516-1.75l2.937 16.234c-2.523 1.023-5.324 1.902-8.406 2.64-3.074.75-6.851 1.126-11.328 1.126-5.688 0-10.402-.766-14.14-2.297-3.731-1.54-6.716-3.688-8.954-6.438-2.242-2.758-3.804-6.098-4.687-10.015-.887-3.915-1.328-8.254-1.328-13.016ZM127.086 265.66a85.348 85.348 0 0 0-1-2.952 404.91 404.91 0 0 1-1.047-3.047h-10.797a231.698 231.698 0 0 1-1.062 3.047 56.835 56.835 0 0 0-.985 2.953h-6.468a394.551 394.551 0 0 1 2.953-8.281 350.71 350.71 0 0 1 2.734-7.157 258.187 258.187 0 0 1 2.64-6.375c.876-2.02 1.774-3.988 2.704-5.906h5.969a199.158 199.158 0 0 1 2.671 5.906c.883 2.012 1.77 4.137 2.657 6.375a277.947 277.947 0 0 1 2.734 7.157 468.758 468.758 0 0 1 2.969 8.28Zm-7.484-21.437c-.137.399-.34.946-.61 1.64-.261.688-.57 1.485-.922 2.392-.343.906-.726 1.906-1.14 3a222.509 222.509 0 0 0-1.25 3.453h7.875c-.43-1.207-.84-2.36-1.235-3.453a101.479 101.479 0 0 0-1.14-3 226.52 226.52 0 0 1-.953-2.391c-.262-.695-.47-1.242-.625-1.64Zm23.402 17.157c1.094 0 1.863-.102 2.312-.313.457-.219.688-.633.688-1.25 0-.477-.297-.895-.89-1.25-.587-.363-1.477-.77-2.673-1.219a29.81 29.81 0 0 1-2.547-1.078c-.761-.375-1.406-.82-1.937-1.344a5.38 5.38 0 0 1-1.234-1.859c-.293-.727-.438-1.598-.438-2.61 0-1.968.727-3.523 2.188-4.671 1.468-1.145 3.484-1.719 6.046-1.719 1.282 0 2.504.117 3.672.344 1.176.219 2.114.465 2.813.734l-1.047 4.64a21.726 21.726 0 0 0-2.266-.64c-.812-.187-1.726-.281-2.734-.281-1.867 0-2.797.523-2.797 1.562 0 .243.035.454.11.641.082.188.242.371.484.547.238.168.566.351.984.547.414.199.942.418 1.578.656 1.313.48 2.395.953 3.25 1.422.852.469 1.524.98 2.016 1.531a4.717 4.717 0 0 1 1.031 1.813c.207.668.313 1.437.313 2.312 0 2.086-.782 3.664-2.344 4.735-1.563 1.062-3.773 1.593-6.625 1.593-1.867 0-3.418-.164-4.656-.484-1.242-.32-2.102-.586-2.578-.797l1-4.844c1.007.407 2.046.727 3.109.953a15.82 15.82 0 0 0 3.172.329Zm13.15-22 5.968-.954v6.188h7.157v4.969h-7.157v7.39c0 1.262.22 2.266.657 3.016.437.742 1.32 1.11 2.656 1.11.644 0 1.305-.055 1.984-.173a11.011 11.011 0 0 0 1.86-.5l.843 4.641a16.18 16.18 0 0 1-2.406.75c-.875.219-1.953.328-3.234.328-1.625 0-2.977-.219-4.047-.656-1.063-.445-1.918-1.063-2.563-1.844-.636-.789-1.085-1.742-1.343-2.86-.25-1.124-.375-2.363-.375-3.718Zm26.01 22.125c.582 0 1.14-.008 1.671-.032.532-.031.957-.07 1.282-.125v-4.531c-.242-.05-.602-.102-1.078-.156a12.55 12.55 0 0 0-1.313-.078c-.562 0-1.094.039-1.594.109a4.001 4.001 0 0 0-1.297.375 2.307 2.307 0 0 0-.89.766c-.211.312-.313.71-.313 1.187 0 .938.313 1.59.938 1.953.633.356 1.5.532 2.594.532Zm-.485-17.438c1.758 0 3.223.2 4.39.594 1.177.398 2.118.969 2.829 1.719.707.75 1.207 1.664 1.5 2.734.289 1.062.437 2.246.437 3.547v12.406c-.855.188-2.043.406-3.562.656-1.512.25-3.352.375-5.516.375-1.355 0-2.59-.12-3.703-.36-1.105-.237-2.058-.628-2.86-1.171a5.485 5.485 0 0 1-1.827-2.14c-.43-.883-.64-1.97-.64-3.25 0-1.22.241-2.255.733-3.11a5.718 5.718 0 0 1 1.97-2.047c.831-.508 1.78-.875 2.843-1.094a16.03 16.03 0 0 1 3.328-.343c.77 0 1.453.039 2.047.109a9.568 9.568 0 0 1 1.469.25v-.562c0-1.008-.309-1.82-.922-2.438-.617-.613-1.68-.922-3.188-.922a20.8 20.8 0 0 0-3.015.219c-.98.148-1.828.355-2.547.625l-.766-4.797a14.07 14.07 0 0 1 1.297-.344 20.53 20.53 0 0 1 1.703-.328 32.544 32.544 0 0 1 1.938-.234 22.387 22.387 0 0 1 2.062-.094Zm14.354-4.687 5.97-.954v6.188h7.155v4.969h-7.156v7.39c0 1.262.219 2.266.656 3.016.438.742 1.32 1.11 2.657 1.11.644 0 1.304-.055 1.984-.173a11.011 11.011 0 0 0 1.86-.5l.843 4.641a16.18 16.18 0 0 1-2.406.75c-.875.219-1.953.328-3.234.328-1.625 0-2.977-.219-4.047-.656-1.063-.445-1.918-1.063-2.563-1.844-.637-.789-1.086-1.742-1.344-2.86-.25-1.124-.375-2.363-.375-3.718Zm23.932 26.28h-5.969v-21.046h5.97Zm.547-27.124c0 1.094-.355 1.96-1.062 2.594-.7.625-1.528.937-2.485.937-.969 0-1.808-.312-2.515-.937-.7-.633-1.047-1.5-1.047-2.594 0-1.094.347-1.953 1.047-2.578.707-.625 1.546-.938 2.515-.938.957 0 1.785.313 2.485.938.707.625 1.062 1.484 1.062 2.578Zm5.044 6.812c1.008-.3 2.317-.578 3.922-.828a32.722 32.722 0 0 1 5.047-.375c1.781 0 3.266.235 4.453.703 1.188.461 2.125 1.117 2.813 1.969.695.855 1.191 1.871 1.484 3.047.29 1.168.438 2.476.438 3.922v11.875h-5.954v-11.156c0-1.926-.257-3.286-.765-4.079-.5-.8-1.446-1.203-2.828-1.203-.43 0-.887.024-1.375.063-.48.043-.903.09-1.266.14v16.235h-5.969Zm22.56 9.953c0-1.863.285-3.492.86-4.89.57-1.406 1.32-2.57 2.25-3.5a9.42 9.42 0 0 1 3.218-2.125 10.218 10.218 0 0 1 3.75-.719c2.989 0 5.348.914 7.078 2.734 1.739 1.825 2.61 4.512 2.61 8.063 0 .344-.016.726-.047 1.14-.024.407-.047.774-.078 1.094H254.24c.133 1.23.707 2.203 1.719 2.922 1.008.719 2.367 1.078 4.078 1.078a17.22 17.22 0 0 0 3.219-.297c1.05-.195 1.91-.441 2.578-.734l.797 4.828c-.313.168-.742.328-1.282.485-.53.156-1.125.289-1.78.406-.65.125-1.345.226-2.095.312a20.29 20.29 0 0 1-2.234.125c-1.898 0-3.547-.281-4.953-.843-1.398-.563-2.555-1.329-3.469-2.297a9.279 9.279 0 0 1-2.047-3.47c-.437-1.331-.656-2.769-.656-4.312Zm14-2.28a5.617 5.617 0 0 0-.266-1.485 3.573 3.573 0 0 0-1.828-2.188c-.468-.25-1.054-.375-1.75-.375-.668 0-1.242.117-1.718.344-.48.23-.883.531-1.204.906a4.268 4.268 0 0 0-.734 1.297 9.159 9.159 0 0 0-.375 1.5Zm-105.132 54.867a7.27 7.27 0 0 1-.61 2.922c-.398.93-.918 1.828-1.562 2.703-.637.867-1.356 1.7-2.157 2.5a122.18 122.18 0 0 1-2.359 2.266c-.398.375-.828.797-1.297 1.265a34.866 34.866 0 0 0-2.484 2.766c-.336.406-.54.746-.61 1.016h11.922v5h-18.484a6.209 6.209 0 0 1-.078-1.11v-.969c0-1.28.203-2.453.61-3.515.413-1.07.956-2.067 1.624-2.985a19.415 19.415 0 0 1 2.25-2.578c.844-.8 1.68-1.601 2.516-2.406.633-.613 1.234-1.191 1.797-1.734a20.189 20.189 0 0 0 1.484-1.61 7.557 7.557 0 0 0 1-1.547c.238-.52.36-1.05.36-1.593 0-1.164-.336-1.989-1-2.469-.669-.477-1.497-.719-2.485-.719-.719 0-1.398.117-2.031.344-.625.219-1.2.484-1.719.797-.512.305-.953.61-1.328.922a11.86 11.86 0 0 0-.844.734l-2.953-4.156c1.164-1.094 2.531-1.992 4.094-2.703a12.025 12.025 0 0 1 5.015-1.063c1.625 0 3.024.188 4.204.563 1.175.375 2.144.902 2.906 1.578a6.077 6.077 0 0 1 1.672 2.484c.363.969.547 2.07.547 3.297Zm24.235 6.516c0 4.668-.887 8.25-2.656 10.75-1.774 2.492-4.219 3.734-7.344 3.734-3.117 0-5.562-1.242-7.344-3.734-1.773-2.5-2.656-6.082-2.656-10.75 0-2.32.234-4.375.703-6.157.469-1.789 1.14-3.296 2.016-4.515.883-1.227 1.937-2.16 3.156-2.797 1.227-.645 2.602-.969 4.125-.969 3.125 0 5.57 1.25 7.344 3.75 1.77 2.492 2.656 6.055 2.656 10.688Zm-6.078 0c0-1.383-.07-2.645-.203-3.782-.137-1.132-.352-2.113-.64-2.937-.294-.82-.696-1.457-1.204-1.906-.5-.457-1.125-.688-1.875-.688s-1.371.23-1.86.688c-.492.449-.89 1.086-1.202 1.906-.305.824-.524 1.805-.657 2.937a31.88 31.88 0 0 0-.203 3.782c0 1.386.067 2.652.203 3.797.133 1.148.352 2.136.657 2.968.312.825.71 1.465 1.203 1.922.488.45 1.109.672 1.859.672s1.375-.223 1.875-.672c.508-.457.91-1.097 1.203-1.922.29-.832.504-1.82.64-2.968a32.79 32.79 0 0 0 .204-3.797Zm19.001-.954c.613 0 1.254-.054 1.922-.171.664-.125 1.156-.297 1.469-.516v-.36c0-.1.004-.206.015-.312a1.75 1.75 0 0 0 .031-.281 22.022 22.022 0 0 0-.25-2.703c-.125-.844-.351-1.578-.671-2.203a3.775 3.775 0 0 0-1.313-1.469c-.543-.363-1.21-.547-2-.547-.648 0-1.21.137-1.687.406-.48.262-.868.606-1.157 1.032-.293.43-.511.898-.656 1.406-.148.5-.219.992-.219 1.469 0 1.449.348 2.523 1.047 3.218.707.688 1.864 1.032 3.469 1.032Zm2.922 3.876a7.221 7.221 0 0 1-1.875.593c-.68.118-1.258.172-1.735.172-1.73 0-3.21-.207-4.437-.625-1.23-.414-2.242-1.004-3.031-1.765a6.998 6.998 0 0 1-1.735-2.735c-.367-1.062-.547-2.234-.547-3.515 0-1.07.176-2.164.532-3.282a9.002 9.002 0 0 1 1.703-3.062c.77-.914 1.75-1.676 2.937-2.281 1.188-.602 2.618-.907 4.297-.907 3.446 0 6.04 1.063 7.781 3.188 1.75 2.117 2.625 5.164 2.625 9.14 0 2.618-.343 4.922-1.03 6.922-.68 2-1.731 3.684-3.157 5.047-1.418 1.356-3.234 2.387-5.453 3.094-2.211.71-4.836 1.07-7.875 1.094a90.625 90.625 0 0 0-.125-2.469c-.055-.8-.106-1.629-.156-2.484 1.52-.032 2.89-.145 4.109-.344 1.227-.195 2.305-.531 3.234-1a7.477 7.477 0 0 0 2.391-1.86c.656-.77 1.172-1.742 1.547-2.921Zm16.876 7.844c0 1.199-.383 2.109-1.14 2.734-.762.625-1.622.937-2.579.937-.96 0-1.82-.312-2.578-.937-.762-.625-1.14-1.535-1.14-2.735 0-1.195.378-2.109 1.14-2.734.758-.633 1.617-.953 2.578-.953.957 0 1.817.32 2.578.953.758.625 1.14 1.539 1.14 2.734Zm12.762-11.72c.613 0 1.254-.054 1.922-.171.664-.125 1.156-.297 1.468-.516v-.36c0-.1.004-.206.016-.312a1.75 1.75 0 0 0 .031-.281 22.022 22.022 0 0 0-.25-2.703c-.125-.844-.351-1.578-.672-2.203a3.775 3.775 0 0 0-1.312-1.469c-.543-.363-1.211-.547-2-.547-.649 0-1.211.137-1.688.406-.48.262-.867.606-1.156 1.032-.293.43-.512.898-.656 1.406-.149.5-.219.992-.219 1.469 0 1.449.348 2.523 1.047 3.218.707.688 1.863 1.032 3.469 1.032Zm2.922 3.876a7.221 7.221 0 0 1-1.875.593c-.68.118-1.258.172-1.735.172-1.73 0-3.21-.207-4.437-.625-1.23-.414-2.242-1.004-3.032-1.765a6.998 6.998 0 0 1-1.734-2.735c-.367-1.062-.547-2.234-.547-3.515 0-1.07.176-2.164.531-3.282a9.002 9.002 0 0 1 1.704-3.062c.77-.914 1.75-1.676 2.937-2.281 1.188-.602 2.617-.907 4.297-.907 3.445 0 6.039 1.063 7.781 3.188 1.75 2.117 2.625 5.164 2.625 9.14 0 2.618-.344 4.922-1.031 6.922-.68 2-1.73 3.684-3.156 5.047-1.418 1.356-3.235 2.387-5.453 3.094-2.211.71-4.836 1.07-7.875 1.094a90.625 90.625 0 0 0-.125-2.469c-.055-.8-.106-1.629-.157-2.484 1.52-.032 2.891-.145 4.11-.344 1.226-.195 2.304-.531 3.234-1a7.477 7.477 0 0 0 2.39-1.86c.657-.77 1.173-1.742 1.548-2.921ZM58.703 68.53c0 1.2-.21 2.298-.625 3.298a7.383 7.383 0 0 1-1.86 2.625c-.823.742-1.855 1.32-3.093 1.734-1.242.414-2.68.625-4.312.625-1.868 0-3.418-.262-4.657-.781-1.242-.52-2.242-1.164-3-1.938-.761-.77-1.304-1.613-1.625-2.53-.312-.927-.468-1.774-.468-2.548 0-.8.101-1.535.312-2.203A7.28 7.28 0 0 1 40.25 65a9.357 9.357 0 0 1 1.266-1.5c.468-.457.968-.89 1.5-1.297-1.149-.926-1.996-1.844-2.547-2.75-.543-.906-.813-2.067-.813-3.485 0-1.062.219-2.086.657-3.078a7.863 7.863 0 0 1 1.859-2.578c.8-.738 1.77-1.328 2.906-1.765 1.133-.438 2.395-.657 3.781-.657 1.625 0 3.016.235 4.172.703 1.164.47 2.117 1.063 2.86 1.782.75.718 1.289 1.527 1.625 2.422.332.886.5 1.773.5 2.656 0 1.281-.34 2.476-1.016 3.578-.68 1.105-1.527 1.98-2.547 2.625 1.52.98 2.61 2.012 3.266 3.094.656 1.086.984 2.343.984 3.78Zm-13.844.235c0 .325.07.68.22 1.063.144.387.378.742.702 1.062.32.325.735.594 1.235.813.507.21 1.125.312 1.843.312 1.383 0 2.395-.332 3.032-1 .644-.664.968-1.414.968-2.25 0-.613-.14-1.16-.421-1.64a4.266 4.266 0 0 0-1.141-1.25 8.103 8.103 0 0 0-1.703-.97 23.084 23.084 0 0 0-2.094-.78 8.21 8.21 0 0 0-1.89 1.968c-.5.743-.75 1.633-.75 2.672Zm7.407-13.156a2.7 2.7 0 0 0-.188-.937 2.6 2.6 0 0 0-.594-.938A3.586 3.586 0 0 0 50.422 53c-.43-.207-.95-.313-1.563-.313-.586 0-1.09.094-1.515.281-.43.188-.781.438-1.063.75a3.06 3.06 0 0 0-.625.97 2.713 2.713 0 0 0-.203 1c0 .855.313 1.655.938 2.405.632.743 1.71 1.383 3.234 1.922.852-.539 1.504-1.156 1.953-1.843.457-.696.688-1.551.688-2.563Zm22.358 12.484c0-.77-.18-1.457-.531-2.062-.344-.602-.946-1.102-1.797-1.5-.856-.395-2-.695-3.438-.906-1.437-.22-3.25-.328-5.437-.328.289-2.489.531-5.008.719-7.563.187-2.562.332-4.96.437-7.203h15v5h-10c-.055.96-.117 1.887-.187 2.781a43.89 43.89 0 0 1-.22 2.344c3.895.262 6.77 1.172 8.626 2.734 1.851 1.563 2.781 3.73 2.781 6.5 0 1.282-.23 2.47-.687 3.563a7.61 7.61 0 0 1-2.032 2.844c-.906.793-2.047 1.418-3.422 1.875-1.375.445-2.98.671-4.812.671-.73 0-1.492-.046-2.281-.14a29.875 29.875 0 0 1-2.266-.36c-.73-.144-1.39-.296-1.984-.453-.586-.156-1.04-.316-1.36-.484l1.078-4.922c.665.305 1.547.594 2.641.875 1.094.273 2.399.406 3.922.406 1.844 0 3.176-.363 4-1.093.832-.739 1.25-1.598 1.25-2.579Zm0 0"/>
</svg>
