<svg xmlns="http://www.w3.org/2000/svg" version="1.2" viewBox="0 0 375 375">
  <path d="m359.121 5.996.461.043.45.066.448.086.438.094.437.117.422.137.422.145.414.168.399.175.39.196.395.21.371.227.371.238.356.247.347.27.336.276.328.29.313.308.304.313.29.324.277.336.262.347.253.36.239.367.226.371.203.395.2.39.18.41.167.407.145.421.137.426.109.43.101.445.083.442.066.46.05.458.028.457.008.472v340.74l-.008.464-.027.465-.051.461-.066.45-.082.445-.102.441-.11.438-.136.422-.145.421-.168.414-.18.399-.199.39-.203.387-.226.38-.239.37-.253.356-.262.347-.277.336-.29.328-.304.313-.313.305-.328.289-.336.277-.347.262-.356.254-.371.238-.371.219-.395.21-.39.2-.399.18-.414.168-.422.144-.422.133-.437.113-.438.102-.449.082-.449.066-.46.05-.466.028-.465.008H17.453l-.465-.008-.465-.027-.457-.05-.46-.067-.442-.082-.445-.102-.43-.113-.426-.133-.422-.144-.406-.168-.41-.18-.39-.2-.387-.21-.38-.22-.366-.237-.36-.254-.347-.262-.336-.277-.325-.29-.312-.304-.305-.313-.293-.328-.277-.336-.262-.347-.254-.356-.238-.37-.227-.38-.21-.386-.188-.391-.184-.399-.168-.414-.144-.421-.137-.422-.117-.438-.094-.441-.086-.446-.058-.449-.051-.46-.031-.466-.008-.464V17.32l.008-.472.03-.457.052-.457.058-.461.086-.442.094-.445.117-.43.137-.426.144-.421.168-.407.184-.41.187-.39.211-.395.227-.371.238-.367.254-.36.262-.347.277-.336.293-.324.305-.313.312-.305.325-.293.336-.277.347-.27.36-.246.367-.238.379-.226.386-.211.391-.196.41-.175.406-.168.422-.145.426-.137.43-.117.445-.094.441-.086.461-.066.457-.043.465-.031.465-.008h340.738l.465.008Zm-333.25 8.86-.465.03-.457.044-.453.062-.45.09-.437.094-.437.117-.426.137-.414.144-.414.168-.402.176-.399.195-.387.211-.378.227-.364.238-.355.246-.348.27-.336.277-.324.29-.313.308-.308.312-.29.324-.276.336-.27.348-.246.355-.238.364-.227.379-.21.386-.188.399-.184.402-.168.414-.145.414-.136.426-.117.438-.094.437-.09.45-.055.452-.05.457-.032.465-.008.465v322.965l.008.465.032.469.05.457.055.449.09.445.094.442.117.437.136.422.145.422.168.414.184.398.187.395.211.383.227.379.238.37.246.356.27.348.277.336.289.328.308.312.313.305.324.29.336.276.348.262.355.254.364.242.378.215.387.211.399.2.402.179.414.168.414.144.426.133.437.113.438.106.45.078.452.067.457.05.465.028.465.007H349.3l.465-.007.468-.028.457-.05.45-.067.453-.078.433-.106.438-.113.422-.133.422-.144.414-.168.398-.18.395-.199.39-.21.371-.216.371-.242.356-.254.348-.262.336-.277.328-.289.312-.305.305-.312.289-.328.277-.336.262-.348.254-.355.242-.371.223-.38.203-.382.199-.395.18-.398.168-.414.144-.422.14-.422.106-.437.106-.442.078-.445.066-.45.051-.456.027-.47.008-.464V26.203l-.008-.465-.027-.465-.05-.457-.067-.453-.078-.449-.211-.875-.14-.426-.145-.414-.168-.414-.18-.402-.2-.399-.202-.386-.223-.38-.242-.363-.254-.355-.262-.348-.277-.336-.29-.324-.304-.312-.312-.309-.329-.289-.335-.277-.348-.27-.356-.246-.37-.238-.372-.227-.39-.21-.395-.196-.398-.176-.414-.168-.422-.144-.422-.137-.438-.117-.433-.094-.453-.09-.45-.062-.457-.043-.468-.032-.465-.007H26.336Zm0 0"/>
  <path d="M139.217 96.709c14.55 0 25.695 2.59 33.437 7.765 7.75 5.18 11.625 13.227 11.625 24.141 0 6.812-1.562 12.344-4.687 16.594-3.125 4.242-7.625 7.574-13.5 10 1.957 2.43 4.007 5.203 6.156 8.328a232.327 232.327 0 0 1 6.36 9.797 191.467 191.467 0 0 1 6.093 10.64 271.147 271.147 0 0 1 5.453 10.844H165.67c-1.774-3.176-3.57-6.394-5.39-9.656a230.341 230.341 0 0 0-5.61-9.516c-1.907-3.082-3.793-6-5.657-8.75-1.867-2.75-3.73-5.242-5.593-7.484h-10.782v35.406H110.81V99.224a125.3 125.3 0 0 1 14.75-1.953c5.094-.375 9.645-.562 13.657-.562Zm1.25 18.61c-1.586 0-3.008.046-4.266.14-1.262.093-2.45.187-3.563.281v26.312h6.157c8.207 0 14.082-1.023 17.625-3.078 3.55-2.05 5.328-5.55 5.328-10.5 0-4.75-1.797-8.129-5.39-10.14-3.595-2.008-8.891-3.016-15.891-3.016Zm62.288 8.405c3.54-1.03 8.11-1.988 13.703-2.875 5.602-.882 11.485-1.328 17.64-1.328 6.25 0 11.454.82 15.61 2.453 4.156 1.637 7.442 3.95 9.86 6.938 2.425 2.98 4.148 6.523 5.171 10.625 1.032 4.105 1.547 8.68 1.547 13.719v41.562h-20.843v-39.047c0-6.719-.887-11.472-2.657-14.265-1.773-2.801-5.086-4.204-9.937-4.204-1.5 0-3.09.075-4.766.22-1.68.136-3.168.292-4.469.468v56.828h-20.859Zm-64.342 113.89c4.164 0 7.352.746 9.563 2.235 2.219 1.48 3.328 3.777 3.328 6.89 0 1.95-.45 3.532-1.344 4.75-.898 1.211-2.183 2.164-3.86 2.86.563.687 1.15 1.48 1.766 2.375a67.78 67.78 0 0 1 1.813 2.797 47.04 47.04 0 0 1 1.734 3.046 76.86 76.86 0 0 1 1.563 3.094h-7c-.5-.906-1.012-1.82-1.531-2.75a60.1 60.1 0 0 0-1.61-2.719 56.891 56.891 0 0 0-1.625-2.5 28.658 28.658 0 0 0-1.594-2.156h-3.078v10.125h-6.234V238.35a34.17 34.17 0 0 1 4.203-.563 50.996 50.996 0 0 1 3.906-.172Zm.375 5.328c-.46 0-.87.016-1.234.047-.356.024-.695.047-1.016.078v7.516h1.766c2.344 0 4.02-.289 5.031-.875 1.02-.594 1.531-1.594 1.531-3 0-1.363-.515-2.332-1.546-2.906-1.024-.57-2.532-.86-4.532-.86Zm25.836 18.563c.582 0 1.141-.008 1.672-.031.531-.032.957-.07 1.281-.125v-4.532c-.242-.05-.601-.101-1.078-.156-.48-.05-.918-.078-1.312-.078-.563 0-1.094.04-1.594.11a4.001 4.001 0 0 0-1.297.374 2.307 2.307 0 0 0-.89.766c-.211.313-.313.711-.313 1.188 0 .937.313 1.59.938 1.953.632.355 1.5.531 2.593.531Zm-.484-17.438c1.758 0 3.223.2 4.39.594 1.176.399 2.118.969 2.829 1.719.707.75 1.207 1.664 1.5 2.734.289 1.063.437 2.246.437 3.547v12.406c-.855.188-2.043.407-3.562.657-1.512.25-3.352.375-5.516.375-1.355 0-2.59-.121-3.703-.36-1.105-.238-2.059-.629-2.86-1.172a5.485 5.485 0 0 1-1.828-2.14c-.43-.883-.64-1.969-.64-3.25 0-1.219.242-2.254.734-3.11a5.718 5.718 0 0 1 1.969-2.046c.832-.508 1.781-.875 2.844-1.094a16.03 16.03 0 0 1 3.328-.344c.77 0 1.453.04 2.047.11a9.568 9.568 0 0 1 1.468.25v-.563c0-1.008-.308-1.82-.921-2.438-.618-.613-1.68-.921-3.188-.921a20.8 20.8 0 0 0-3.016.218c-.98.149-1.828.356-2.546.625l-.766-4.797a14.07 14.07 0 0 1 1.297-.343c.52-.125 1.086-.235 1.703-.328a32.544 32.544 0 0 1 1.937-.235 22.387 22.387 0 0 1 2.063-.094Zm19.635 10.907c0 1.843.41 3.328 1.235 4.453.832 1.117 2.062 1.672 3.687 1.672.532 0 1.02-.02 1.47-.063a13.09 13.09 0 0 0 1.14-.14v-10.829c-.375-.238-.868-.437-1.47-.593a6.786 6.786 0 0 0-1.812-.25c-2.836 0-4.25 1.918-4.25 5.75Zm13.485 10a18.91 18.91 0 0 1-1.844.468c-.687.149-1.414.27-2.172.375a43.77 43.77 0 0 1-2.328.25c-.781.07-1.531.11-2.25.11-1.742 0-3.293-.25-4.656-.75-1.356-.508-2.5-1.238-3.438-2.188-.93-.945-1.64-2.093-2.14-3.437-.493-1.344-.735-2.86-.735-4.547 0-1.695.211-3.234.64-4.61.427-1.374 1.04-2.538 1.845-3.5a7.998 7.998 0 0 1 2.937-2.203c1.156-.507 2.485-.765 3.985-.765.82 0 1.562.086 2.218.25.657.156 1.317.383 1.985.672v-9.516l5.953-.969Zm25.285-9.875c0 1.656-.243 3.172-.72 4.547-.48 1.375-1.179 2.546-2.093 3.515a9.505 9.505 0 0 1-3.266 2.266c-1.261.531-2.68.797-4.25.797-1.542 0-2.949-.266-4.218-.797a9.656 9.656 0 0 1-3.266-2.266c-.906-.969-1.617-2.14-2.125-3.515-.5-1.375-.75-2.891-.75-4.547 0-1.657.258-3.16.781-4.516.52-1.363 1.239-2.523 2.157-3.484a9.81 9.81 0 0 1 3.28-2.235c1.27-.53 2.65-.797 4.141-.797 1.52 0 2.91.266 4.172.797a9.48 9.48 0 0 1 3.266 2.235c.906.96 1.613 2.12 2.125 3.484.508 1.356.766 2.86.766 4.516Zm-6.079 0c0-1.832-.37-3.274-1.109-4.328-.73-1.063-1.777-1.594-3.14-1.594-1.356 0-2.407.531-3.157 1.594-.75 1.054-1.125 2.496-1.125 4.328 0 1.843.375 3.308 1.125 4.39.75 1.075 1.801 1.61 3.156 1.61 1.364 0 2.41-.535 3.141-1.61.738-1.082 1.11-2.547 1.11-4.39Zm10.671-9.75c1.008-.301 2.316-.578 3.922-.828a32.722 32.722 0 0 1 5.047-.375c1.78 0 3.265.234 4.453.703 1.187.46 2.125 1.117 2.812 1.968.696.856 1.192 1.872 1.485 3.047.289 1.168.437 2.477.437 3.922v11.875h-5.953v-11.156c0-1.926-.258-3.285-.766-4.078-.5-.8-1.445-1.203-2.828-1.203-.43 0-.886.023-1.375.062-.48.043-.902.09-1.265.14v16.235h-5.97Zm-70.153 62.54a7.27 7.27 0 0 1-.61 2.921c-.398.93-.918 1.829-1.562 2.704a21.752 21.752 0 0 1-2.157 2.5 122.18 122.18 0 0 1-2.359 2.265c-.398.375-.828.797-1.297 1.266a34.866 34.866 0 0 0-2.484 2.765c-.336.407-.54.747-.61 1.016h11.922v5h-18.484a6.209 6.209 0 0 1-.078-1.11v-.968c0-1.281.203-2.453.61-3.516.413-1.07.956-2.066 1.624-2.984a19.415 19.415 0 0 1 2.25-2.578c.844-.801 1.68-1.602 2.516-2.406.633-.614 1.234-1.192 1.797-1.735a20.189 20.189 0 0 0 1.484-1.61 7.557 7.557 0 0 0 1-1.546c.238-.52.36-1.05.36-1.594 0-1.164-.336-1.988-1-2.469-.669-.476-1.497-.718-2.485-.718-.719 0-1.398.117-2.031.343-.625.22-1.2.485-1.719.797-.512.305-.953.61-1.328.922-.375.305-.656.547-.844.735l-2.953-4.157c1.164-1.093 2.531-1.992 4.094-2.703a12.025 12.025 0 0 1 5.015-1.062c1.625 0 3.024.187 4.204.562 1.175.375 2.144.903 2.906 1.578a6.077 6.077 0 0 1 1.672 2.485c.363.968.547 2.07.547 3.297Zm22.719 0a7.27 7.27 0 0 1-.609 2.921c-.398.93-.918 1.829-1.562 2.704a21.752 21.752 0 0 1-2.157 2.5 122.18 122.18 0 0 1-2.36 2.265c-.398.375-.827.797-1.296 1.266a34.866 34.866 0 0 0-2.484 2.765c-.336.407-.54.747-.61 1.016h11.922v5h-18.484a6.209 6.209 0 0 1-.078-1.11v-.968c0-1.281.203-2.453.609-3.516.414-1.07.957-2.066 1.625-2.984a19.415 19.415 0 0 1 2.25-2.578c.844-.801 1.68-1.602 2.516-2.406.632-.614 1.234-1.192 1.797-1.735a20.189 20.189 0 0 0 1.484-1.61 7.557 7.557 0 0 0 1-1.546c.238-.52.36-1.05.36-1.594 0-1.164-.337-1.988-1-2.469-.669-.476-1.497-.718-2.485-.718-.719 0-1.399.117-2.031.343-.625.22-1.2.485-1.72.797-.51.305-.952.61-1.327.922-.375.305-.656.547-.844.735l-2.953-4.157c1.164-1.093 2.531-1.992 4.094-2.703a12.025 12.025 0 0 1 5.015-1.062c1.625 0 3.024.187 4.203.562 1.176.375 2.145.903 2.907 1.578a6.077 6.077 0 0 1 1.672 2.485c.363.968.546 2.07.546 3.297Zm22.72 0a7.27 7.27 0 0 1-.61 2.921c-.398.93-.917 1.829-1.562 2.704a21.644 21.644 0 0 1-2.156 2.5 122.18 122.18 0 0 1-2.36 2.265c-.398.375-.827.797-1.296 1.266a34.866 34.866 0 0 0-2.485 2.765c-.335.407-.539.747-.609 1.016h11.922v5h-18.484a6.209 6.209 0 0 1-.079-1.11v-.968c0-1.281.204-2.453.61-3.516.414-1.07.957-2.066 1.625-2.984a19.415 19.415 0 0 1 2.25-2.578c.844-.801 1.68-1.602 2.515-2.406.633-.614 1.235-1.192 1.797-1.735a20.189 20.189 0 0 0 1.485-1.61 7.557 7.557 0 0 0 1-1.546c.238-.52.36-1.05.36-1.594 0-1.164-.337-1.988-1-2.469-.669-.476-1.497-.718-2.485-.718-.719 0-1.399.117-2.032.343a9.355 9.355 0 0 0-1.718.797c-.512.305-.953.61-1.328.922-.375.305-.657.547-.844.735l-2.953-4.157c1.164-1.093 2.531-1.992 4.093-2.703a12.025 12.025 0 0 1 5.016-1.062c1.625 0 3.024.187 4.203.562 1.176.375 2.145.903 2.906 1.578a6.077 6.077 0 0 1 1.672 2.485c.364.968.547 2.07.547 3.297Zm11.517 17.281c0 1.199-.383 2.11-1.14 2.734-.762.625-1.622.938-2.579.938-.96 0-1.82-.313-2.578-.938-.762-.625-1.14-1.535-1.14-2.734 0-1.195.378-2.11 1.14-2.735.758-.632 1.617-.953 2.578-.953.957 0 1.817.32 2.578.953.758.625 1.14 1.54 1.14 2.735Zm22.559-10.766c0 4.668-.887 8.25-2.657 10.75-1.773 2.492-4.218 3.735-7.343 3.735-3.118 0-5.563-1.243-7.344-3.735-1.774-2.5-2.656-6.082-2.656-10.75 0-2.32.234-4.375.703-6.156.468-1.79 1.14-3.297 2.015-4.516.883-1.226 1.938-2.16 3.157-2.797 1.226-.644 2.601-.968 4.125-.968 3.125 0 5.57 1.25 7.343 3.75 1.77 2.492 2.657 6.054 2.657 10.687Zm-6.079 0c0-1.383-.07-2.644-.203-3.781-.136-1.133-.351-2.113-.64-2.938-.293-.82-.696-1.457-1.203-1.906-.5-.457-1.125-.687-1.875-.687s-1.371.23-1.86.687c-.492.45-.89 1.086-1.203 1.906-.305.825-.523 1.805-.656 2.938a31.88 31.88 0 0 0-.203 3.781c0 1.387.066 2.653.203 3.797.133 1.149.351 2.137.656 2.969.313.824.711 1.465 1.203 1.922.489.449 1.11.672 1.86.672s1.375-.223 1.875-.672c.507-.457.91-1.098 1.203-1.922.289-.832.504-1.82.64-2.969.133-1.144.203-2.41.203-3.797ZM58.703 68.531c0 1.2-.21 2.297-.625 3.297a7.383 7.383 0 0 1-1.86 2.625c-.823.742-1.855 1.32-3.093 1.735-1.242.414-2.68.625-4.312.625-1.868 0-3.418-.262-4.657-.782-1.242-.52-2.242-1.164-3-1.937-.761-.77-1.304-1.613-1.625-2.531-.312-.926-.468-1.774-.468-2.547 0-.801.101-1.535.312-2.203A7.28 7.28 0 0 1 40.25 65c.375-.55.797-1.05 1.266-1.5.468-.457.968-.89 1.5-1.297-1.149-.926-1.996-1.843-2.547-2.75-.543-.906-.813-2.066-.813-3.484 0-1.063.219-2.086.657-3.078a7.863 7.863 0 0 1 1.859-2.578c.8-.739 1.77-1.328 2.906-1.766 1.133-.437 2.395-.656 3.781-.656 1.625 0 3.016.234 4.172.703 1.164.469 2.117 1.062 2.86 1.781.75.719 1.289 1.527 1.625 2.422.332.887.5 1.773.5 2.656 0 1.282-.34 2.477-1.016 3.578-.68 1.106-1.527 1.98-2.547 2.625 1.52.98 2.61 2.012 3.266 3.094.656 1.086.984 2.344.984 3.781Zm-13.844.235c0 .324.07.68.22 1.062.144.387.378.742.702 1.063.32.324.735.594 1.235.812.507.211 1.125.313 1.843.313 1.383 0 2.395-.332 3.032-1 .644-.664.968-1.414.968-2.25 0-.614-.14-1.16-.421-1.64a4.266 4.266 0 0 0-1.141-1.25 8.103 8.103 0 0 0-1.703-.97 23.084 23.084 0 0 0-2.094-.78 8.21 8.21 0 0 0-1.89 1.968c-.5.742-.75 1.633-.75 2.672Zm7.407-13.156a2.7 2.7 0 0 0-.188-.938 2.6 2.6 0 0 0-.594-.937A3.586 3.586 0 0 0 50.422 53c-.43-.207-.95-.312-1.563-.312-.586 0-1.09.093-1.515.28-.43.188-.781.438-1.063.75a3.06 3.06 0 0 0-.625.97c-.136.343-.203.68-.203 1 0 .855.313 1.656.938 2.406.632.742 1.71 1.383 3.234 1.922.852-.54 1.504-1.156 1.953-1.844.457-.695.688-1.55.688-2.562Zm18.904 7.593c-.585 0-1.21.059-1.874.172-.668.106-1.188.25-1.563.438 0 .105-.007.265-.015.484-.012.211-.016.39-.016.547 0 .969.063 1.883.188 2.734.132.844.363 1.59.687 2.235.32.636.75 1.136 1.281 1.5.532.355 1.196.53 2 .53.664 0 1.235-.132 1.703-.405a3.772 3.772 0 0 0 1.157-1.063c.3-.426.523-.898.672-1.422.156-.52.234-1.02.234-1.5 0-1.363-.344-2.41-1.031-3.14-.68-.739-1.82-1.11-3.422-1.11Zm.766-4.64c1.727 0 3.196.234 4.407.703 1.218.469 2.21 1.105 2.984 1.906a7.1 7.1 0 0 1 1.688 2.797c.343 1.062.515 2.2.515 3.406 0 1.063-.195 2.156-.578 3.281a9.123 9.123 0 0 1-1.766 3.032c-.78.906-1.78 1.656-3 2.25-1.21.582-2.636.875-4.28.875-3.337 0-5.872-1.051-7.61-3.157-1.73-2.113-2.594-5.02-2.594-8.718 0-2.664.41-5.024 1.234-7.078.82-2.063 2-3.79 3.532-5.188 1.539-1.406 3.394-2.473 5.562-3.203 2.176-.727 4.625-1.11 7.344-1.14.05.823.102 1.632.156 2.421.063.793.117 1.61.172 2.453a23.24 23.24 0 0 0-3.828.39 13.06 13.06 0 0 0-3.25 1.063 8.92 8.92 0 0 0-2.531 1.86c-.719.761-1.278 1.687-1.672 2.781a7.104 7.104 0 0 1 1.797-.562 9.516 9.516 0 0 1 1.718-.172Zm0 0"/>
</svg>
